<?xml version="1.0" encoding="UTF-8"?>
<svg width="942px" height="341px" viewBox="0 0 942 341" version="1.1" xmlns="http://www.w3.org/2000/svg" xmlns:xlink="http://www.w3.org/1999/xlink">
    <title>F79F83CC-C27C-4A00-88AA-AE20FFFB6E8E</title>
    <g id="💥-error-404" stroke="none" stroke-width="1" fill="none" fill-rule="evenodd">
        <g id="403-error" transform="translate(-249.000000, -117.000000)">
            <g id="EM__403" transform="translate(250.000000, 117.000000)">
                <line x1="1" y1="113.5" x2="940" y2="113.5" id="Path" stroke="#6C81A7" stroke-width="2"></line>
                <line x1="1" y1="90.5" x2="940" y2="90.5" id="Path" stroke="#6C81A7" stroke-width="2"></line>
                <line x1="1" y1="66.5" x2="940" y2="66.5" id="Path" stroke="#6C81A7" stroke-width="2"></line>
                <line x1="1" y1="44.5" x2="940" y2="44.5" id="Path" stroke="#6C81A7" stroke-width="2"></line>
                <line x1="1" y1="138.5" x2="940" y2="138.5" id="Path" stroke="#6C81A7" stroke-width="2"></line>
                <line x1="1" y1="269.5" x2="940" y2="269.5" id="Path" stroke="#6C81A7" stroke-width="2"></line>
                <path d="M1,240 C133.319098,241.230745 265.5631,241.846117 397.882198,241.982867 C556.034309,242.119616 781.847889,241.435869 940,240" id="Path" stroke="#6C81A7" stroke-width="2"></path>
                <line x1="23.5" y1="0" x2="23.5" y2="324" id="Path" stroke="#6C81A7" stroke-width="2"></line>
                <rect id="Rectangle" fill="#1B2B4C" fill-rule="nonzero" x="12" y="317" width="23" height="24"></rect>
                <path d="M624,224.513158 L624,224.588517 C608.677247,224.965311 594.251436,225.342105 581.171037,225.643541 C555.757691,226.246411 530.344345,226.698565 504.930999,227 C506.425901,223.156699 507.173353,218.936603 506.949117,214.791866 C507.771314,215.017943 544.39643,210.797847 529.895874,185.401914 C529.895874,185.401914 523.991008,174.022727 508.44402,194.143541 C508.44402,194.143541 496.933269,192.334928 502.539154,164 L547.01251,164 C548.507413,165.2811 549.852825,166.712919 550.974002,168.370813 C553.889063,172.666268 555.234475,178.016746 558.672751,181.935407 C565.250323,189.395933 577.658016,189.697368 583.338646,197.836124 C586.104216,201.754785 587.075903,207.33134 591.186885,209.742823 C593.205004,210.948565 595.596848,211.174641 597.913948,211.400718 C603.669323,211.852871 609.499444,212.229665 614.731603,214.641148 C618.917331,216.600478 622.654588,220.217703 624,224.513158 Z" id="Path" fill="#1B2B4C" fill-rule="nonzero"></path>
                <path d="M484.505929,193.4 C470.694314,178.085714 457.107888,182.961905 449.076134,188.904762 C448.400566,189.285714 447.800061,189.819048 447.199556,190.428571 C443.596526,193.47619 441.644884,196.371429 442.0202,196.67619 C444.197031,198.428571 446.448924,200.028571 448.926007,201.4 C470.694314,213.514286 486.082254,196.219048 484.505929,193.4 Z M529.618867,184.561905 C544.10605,210.238095 507.400182,214.504762 506.574487,214.27619 C506.724614,218.466667 506.049045,222.657143 504.547783,226.619048 C480.302394,226.92381 455.981941,227 431.736552,227 L431.736552,211.990476 L421.152651,211.990476 C419.426199,211.990476 418,210.542857 418,208.790476 C418,208.714286 418,208.638095 418,208.638095 C419.651389,182.2 429.259469,166.12381 432.337057,163 L502.145763,163 C496.440965,191.647619 508.07575,193.47619 508.07575,193.47619 C523.613817,173.057143 529.618867,184.561905 529.618867,184.561905 L529.618867,184.561905 Z M487.583517,203.685714 C487.583517,202.238095 486.45757,201.095238 484.956307,201.095238 C483.530108,201.095238 482.404161,202.238095 482.404161,203.761905 C482.404161,205.209524 483.530108,206.352381 484.956307,206.352381 C486.382507,206.27619 487.583517,205.133333 487.583517,203.685714 C487.583517,203.685714 487.583517,203.685714 487.583517,203.685714 L487.583517,203.685714 Z" id="Shape" fill="#CAD9EB" fill-rule="nonzero"></path>
                <path d="M484.463768,201 C485.84058,201 486.927536,202.086957 487,203.463768 C487,204.84058 485.913043,205.927536 484.536232,206 C483.15942,206 482.072464,204.913043 482,203.536232 C482,203.536232 482,203.536232 482,203.536232 C482,202.15942 483.086957,201 484.463768,201 Z" id="Path" fill="#1B2B4C" fill-rule="nonzero"></path>
                <path d="M454.5,188 C459.769531,188 464,191.142857 464,195 C464,198.857143 459.769531,202 454.5,202 C452.496094,202 450.566406,201.5 448.785156,200.571429 C446.484375,199.285714 445,197.214286 445,194.928571 C445,193.357143 445.667969,191.857143 446.855469,190.785714 C447.449219,190.285714 448.042969,189.857143 448.710938,189.357143 C450.417969,188.5 452.421875,188 454.5,188 Z" id="Path" fill="#1B2B4C" fill-rule="nonzero"></path>
                <path d="M449.075873,188.602772 C457.118394,182.786233 470.927252,178.013689 484.887856,193.002461 C486.481185,195.761589 470.927252,212.689208 449,200.832417 L449.303491,200.31042 C451.048567,201.279843 453.097134,201.80184 455.1457,201.80184 C460.532672,201.80184 464.857425,198.520716 464.857425,194.493882 C464.857425,190.467047 460.532672,187.185923 455.1457,187.185923 C452.945388,187.036781 450.896821,187.558778 449.075873,188.602772 Z" id="Path" fill="#F4F7FB" fill-rule="nonzero"></path>
                <path d="M448.780316,202 C446.437018,200.625 444.166949,199.020833 442.043336,197.263889 C441.677195,196.958333 443.654353,194.055556 447.096071,191 C445.924422,192.145833 445.338598,193.75 445.26537,195.430556 C445.26537,197.875 446.729931,200.090278 449,201.465278 L448.780316,202 Z" id="Path" fill="#F4F7FB" fill-rule="nonzero"></path>
                <path d="M0,211 C143.670079,220.902913 287.265056,225.854369 430.860034,226 C455.117972,226 479.451012,225.927184 503.70895,225.635922 C529.243622,225.34466 554.778293,224.907767 580.312965,224.325243 C593.530913,224.033981 608.025594,223.669903 623.346397,223.305825 C720.903863,220.902913 855.261297,216.752427 939,211" id="Path" stroke="#6C81A7" stroke-width="2" stroke-linecap="round" stroke-linejoin="round"></path>
                <path d="M490,189 C490,189 490,198.745124 484,193.396297" id="Path" stroke="#1B2B4C" stroke-width="2" stroke-linecap="round" stroke-linejoin="round"></path>
                <path d="M487,203.465402 C487,204.841327 485.913043,205.927583 484.536232,206 C483.15942,206 482.072464,204.913744 482,203.537819 C482,202.161895 483.086957,201.075638 484.463768,201.003221 C485.84058,200.930804 487,202.089477 487,203.465402 C487,203.465402 487,203.465402 487,203.465402 Z" id="Path" stroke="#1B2B4C" stroke-width="2" stroke-linecap="round" stroke-linejoin="round"></path>
                <polyline id="Path" stroke="#6C81A7" stroke-width="2" stroke-linecap="round" stroke-linejoin="round" points="1 163.5 432.426344 163.5 502.265595 163.5 546.947697 163.5 940 163.5"></polyline>
                <path d="M431.413613,227 L431.413613,211.990476 L421.078534,211.990476 C419.39267,211.990476 418,210.542857 418,208.790476 C418,208.714286 418,208.638095 418,208.638095 C419.612565,182.2 428.994764,166.12381 432,163" id="Path" stroke="#1B2B4C" stroke-width="2" stroke-linecap="round" stroke-linejoin="round"></path>
                <path d="M448.847326,200.832417 C446.48087,199.490139 444.188365,197.924148 442.043764,196.209015 C441.674005,195.910731 443.670703,193.077032 447.146436,190.094192 C447.73805,189.572195 448.329664,189.124769 448.99523,188.602772 C456.834117,182.786233 470.293338,178.013689 483.900463,193.002461 C485.379498,195.761589 470.219386,212.689208 448.847326,200.832417 Z" id="Path" stroke="#1B2B4C" stroke-width="2" stroke-linecap="round" stroke-linejoin="round"></path>
                <path d="M448.710938,189.5 C450.492188,188.5 452.496094,188 454.5,188 C459.769531,188 464,191.142857 464,195 C464,198.857143 459.769531,202 454.5,202 C452.496094,202 450.566406,201.5 448.785156,200.571429 C446.484375,199.285714 445,197.214286 445,194.928571 C445,193.357143 445.667969,191.857143 446.855469,190.785714 C447.449219,190.357143 448.042969,189.857143 448.710938,189.5 Z" id="Path" stroke="#1B2B4C" stroke-width="2" stroke-linecap="round" stroke-linejoin="round"></path>
                <path d="M453,174.605462 C453,174.605462 465.628702,158.256548 486,177" id="Path" stroke="#1B2B4C" stroke-width="2" stroke-linecap="round" stroke-linejoin="round"></path>
                <path d="M510,205 C515.121951,204.758929 519.349593,200.982143 520,196" id="Path" stroke="#1B2B4C" stroke-width="2" stroke-linecap="round" stroke-linejoin="round"></path>
                <path d="M501.602004,164 C495.796668,192.334928 507.636498,194.143541 507.636498,194.143541 C523.524786,174.022727 529.559279,185.401914 529.559279,185.401914 C544.301777,210.797847 506.949024,215.017943 506.108778,214.791866 C506.26155,218.936603 505.574076,223.08134 504.046356,227 L504.046356,227" id="Path" stroke="#1B2B4C" stroke-width="2" stroke-linecap="round" stroke-linejoin="round"></path>
                <path d="M547,163 C548.495146,164.291407 549.840777,165.734745 550.962136,167.405978 C553.87767,171.73599 555.223301,177.129514 558.662136,181.079701 C565.240777,188.600249 577.650485,188.90411 583.332039,197.108344 C586.098058,201.058531 587.069903,206.67995 591.181553,209.110834 C593.2,210.326276 595.592233,210.554172 597.909709,210.782067 C603.666019,211.237858 609.497087,211.617684 614.730097,214.048568 C618.916505,215.947696 622.654369,219.594022 624,224" id="Path" stroke="#1B2B4C" stroke-width="2" stroke-linecap="round" stroke-linejoin="round"></path>
                <path d="M1,211 C194.522313,224.333333 387.96953,228.777778 581.266555,224.333333 C678.290547,222.147541 842.976008,217.630237 940,211" id="Path" stroke="#6C81A7" stroke-width="2"></path>
                <line x1="1" y1="163.5" x2="940" y2="163.5" id="Path" stroke="#6C81A7" stroke-width="2"></line>
                <path d="M366.078259,221.062953 C368.686084,222.357809 369.729215,225.556866 368.462556,228.222746 L358.776346,248.026431 C356.24303,253.358192 349.984248,255.490897 344.768596,252.901184 L340,250.539976 C340.298037,250.082967 340.596074,249.625959 340.819602,249.092783 L351.92149,225.937706 C352.219527,225.328362 352.368545,224.642849 352.443055,223.957337 L353.858732,220.986785 C355.12539,218.320904 358.254781,217.254552 360.862607,218.549408 L366.078259,221.062953 Z" id="Path" fill="#CAD9EB" fill-rule="nonzero"></path>
                <path d="M349.085467,220.179449 C350.945732,221.158596 352.136302,223.11689 351.987481,225.225822 C351.91307,225.903693 351.764249,226.581565 351.466607,227.184117 L340.379424,250.081094 C340.156192,250.608327 339.858549,251.060241 339.560907,251.512155 C336.584482,255.730019 331.078096,257.236399 326.464637,254.90151 L322,252.717259 L322,252.717259 L335.245091,223.493485 L335.245091,223.493485 L336.956535,219.953492 C338.221516,217.317327 341.346762,216.262861 343.951134,217.543284 C343.951134,217.543284 343.951134,217.543284 343.951134,217.543284 L349.085467,220.179449 Z" id="Path" fill="#CAD9EB" fill-rule="nonzero"></path>
                <path d="M314.838631,255.963004 C312.943765,256.113669 310.973105,255.812338 309.229829,254.908347 L304,252.347039 L319.91687,219.954025 C321.205379,217.317384 324.388753,216.262728 327.041565,217.543382 C327.041565,217.543382 327.041565,217.543382 327.041565,217.543382 L332.271394,220.10469 C332.422983,220.180023 332.574572,220.255355 332.726161,220.330688 C333.02934,220.556686 333.332518,220.782683 333.635697,221.008681 C333.711491,221.084014 333.711491,221.084014 333.787286,221.159346 C333.787286,221.159346 333.787286,221.159346 333.787286,221.159346 C333.787286,221.159346 333.787286,221.159346 333.787286,221.159346 C333.863081,221.234679 333.938875,221.310012 334.01467,221.460677 C334.242054,221.762007 334.469438,222.063337 334.621027,222.44 C334.696822,222.515333 334.696822,222.590666 334.696822,222.665998 C334.772616,222.741331 334.772616,222.891996 334.848411,223.042661 C334.924205,223.193326 335,223.419324 335,223.569989 L335,223.569989 L321.508557,252.799035 L321.508557,252.799035 C321.356968,252.9497 321.129584,253.175698 320.977995,253.326363 C320.826406,253.477028 320.750611,253.552361 320.599022,253.703026 C320.447433,253.853691 320.220049,254.004356 319.992665,254.155021 C319.91687,254.230354 319.841076,254.305687 319.689487,254.305687 C319.613692,254.381019 319.537897,254.456352 319.386308,254.456352 C319.234719,254.531684 319.158924,254.607017 319.007335,254.68235 C318.0978,255.209678 317.112469,255.586341 316.127139,255.812338 C315.97555,255.812338 315.823961,255.887671 315.672372,255.887671 C315.672372,255.887671 315.672372,255.887671 315.596577,255.887671 C315.444988,255.887671 315.217604,255.963004 315.066015,255.963004 C314.99022,255.963004 314.914425,255.963004 314.914425,255.963004 C314.914425,255.963004 314.838631,255.963004 314.838631,255.963004 Z" id="Path" fill="#CAD9EB" fill-rule="nonzero"></path>
                <path d="M321.25,252.75 C321.45,252.65 321.55,252.45 321.75,252.25" id="Path" stroke="#1B2B4C" stroke-width="2" stroke-linecap="round" stroke-linejoin="round"></path>
                <path d="M320.3,253.6 C320.4,253.5 320.5,253.4 320.7,253.4" id="Path" stroke="#1B2B4C" stroke-width="2" stroke-linecap="round" stroke-linejoin="round"></path>
                <path d="M319.25,253.65 C319.45,253.55 319.55,253.45 319.75,253.35" id="Path" stroke="#1B2B4C" stroke-width="2" stroke-linecap="round" stroke-linejoin="round"></path>
                <path d="M316.2,254.55 C316.4,254.55 316.6,254.45 316.8,254.45" id="Path" stroke="#1B2B4C" stroke-width="2" stroke-linecap="round" stroke-linejoin="round"></path>
                <path d="M315.15,254.55 C315.35,254.55 315.65,254.45 315.85,254.45" id="Path" stroke="#1B2B4C" stroke-width="2" stroke-linecap="round" stroke-linejoin="round"></path>
                <path d="M315.4,255.5 C315.5,255.5 315.6,255.5 315.6,255.5" id="Path" stroke="#1B2B4C" stroke-width="2" stroke-linecap="round" stroke-linejoin="round"></path>
                <path d="M332.8,220.65 C332.6,220.55 332.4,220.45 332.2,220.35" id="Path" stroke="#1B2B4C" stroke-width="2" stroke-linecap="round" stroke-linejoin="round"></path>
                <path d="M333.6,220.6 C333.6,220.5 333.5,220.5 333.4,220.4" id="Path" stroke="#1B2B4C" stroke-width="2" stroke-linecap="round" stroke-linejoin="round"></path>
                <path d="M333.65,221.7 C333.55,221.6 333.45,221.5 333.35,221.3" id="Path" stroke="#1B2B4C" stroke-width="2" stroke-linecap="round" stroke-linejoin="round"></path>
                <path d="M334.55,222.65 C334.55,222.55 334.45,222.45 334.45,222.35" id="Path" stroke="#1B2B4C" stroke-width="2" stroke-linecap="round" stroke-linejoin="round"></path>
                <path d="M335.6,222.85 C335.5,222.65 335.5,222.35 335.4,222.15" id="Path" stroke="#1B2B4C" stroke-width="2" stroke-linecap="round" stroke-linejoin="round"></path>
                <path d="M335.245091,223.436112 L335.245091,223.436112 L322,252.7416 L322,252.7416 L326.464637,254.931958 C331.078096,257.197847 336.658893,255.762784 339.560907,251.533126 C339.858549,251.079948 340.156192,250.626771 340.379424,250.098064 L351.466607,227.137063 C351.764249,226.532826 351.91307,225.85306 351.987481,225.173293 C352.136302,223.058464 350.945732,221.019165 349.085467,220.11281 L343.951134,217.544803 C341.346762,216.2608 338.221516,217.318214 336.956535,219.96175 C336.956535,219.96175 336.956535,219.96175 336.956535,219.96175 L335.245091,223.436112 Z" id="Path" stroke="#1B2B4C" stroke-width="2" stroke-linecap="round" stroke-linejoin="round"></path>
                <path d="M335,223.570745 C334.924205,223.420063 334.924205,223.194039 334.848411,223.043357 C334.772616,222.892674 334.772616,222.817333 334.696822,222.66665 C334.696822,222.591309 334.621027,222.515968 334.621027,222.440626 C334.469438,222.06392 334.242054,221.762555 334.01467,221.46119 C333.938875,221.385849 333.863081,221.310508 333.787286,221.159825 C333.787286,221.159825 333.787286,221.159825 333.787286,221.159825 C333.787286,221.159825 333.787286,221.159825 333.787286,221.159825 C333.787286,221.084484 333.711491,221.084484 333.635697,221.009142 C333.332518,220.783119 333.105134,220.557095 332.726161,220.331071 C332.574572,220.25573 332.422983,220.180389 332.271394,220.105047 L327.041565,217.543444 C324.388753,216.262643 321.205379,217.317421 319.91687,219.954365 C319.91687,219.954365 319.91687,219.954365 319.91687,219.954365 L304,252.351107 L309.229829,254.91271 C310.973105,255.741464 312.867971,256.11817 314.838631,255.967488 C314.914425,255.967488 314.99022,255.967488 314.99022,255.967488 C315.066015,255.967488 315.141809,255.967488 315.141809,255.967488 C315.293399,255.967488 315.444988,255.892147 315.672372,255.892147 C315.672372,255.892147 315.672372,255.892147 315.748166,255.892147 C315.899756,255.892147 316.051345,255.816805 316.202934,255.816805 C317.188264,255.590781 318.173594,255.214075 319.08313,254.686686 C319.234719,254.611345 319.310513,254.536004 319.462103,254.460663 C319.537897,254.385321 319.689487,254.30998 319.765281,254.30998 C319.841076,254.234639 319.91687,254.159298 320.06846,254.159298 C320.295844,254.008615 320.447433,253.857932 320.674817,253.70725 C320.826406,253.631909 320.9022,253.481226 321.05379,253.330544 C321.205379,253.179861 321.432763,252.953837 321.584352,252.803155" id="Path" stroke="#1B2B4C" stroke-width="2" stroke-linecap="round" stroke-linejoin="round"></path>
                <path d="M352.517564,223.944759 L353.933241,220.980478 C355.199899,218.320226 358.32929,217.256126 360.937116,218.548248 L366.078259,221.132493 C368.686084,222.424615 369.729215,225.616918 368.462556,228.27717 L358.776346,248.039043 C356.24303,253.359547 349.984248,255.487749 344.768596,252.903504 L340,250.547281" id="Path" stroke="#1B2B4C" stroke-width="2" stroke-linecap="round" stroke-linejoin="round"></path>
            </g>
        </g>
    </g>
</svg>