<?xml version="1.0" encoding="UTF-8"?>
<svg width="871px" height="330px" viewBox="0 0 871 330" version="1.1" xmlns="http://www.w3.org/2000/svg" xmlns:xlink="http://www.w3.org/1999/xlink">
    <title>Group 2</title>
    <defs>
        <path d="M440.081009,264.983517 L441.254157,255.216773 L441.254157,247.170097 L435.24226,247.170097 L435.24226,255.216773 L436.368275,264.983517 L440.081009,264.983517 Z M441.556718,271.215827 C441.556718,269.558973 440.213573,268.215827 438.556718,268.215827 C436.899864,268.215827 435.556718,269.558973 435.556718,271.215827 C435.556718,272.872681 436.899864,274.215827 438.556718,274.215827 C440.213573,274.215827 441.556718,272.872681 441.556718,271.215827 Z" id="path-1"></path>
    </defs>
    <g id="💥-error-404" stroke="none" stroke-width="1" fill="none" fill-rule="evenodd">
        <g id="404-error" transform="translate(-285.000000, -129.000000)">
            <g id="Group-2" transform="translate(286.000000, 130.000000)">
                <rect id="Rectangle" stroke="#CAD9EB" stroke-width="2" fill="#FFFFFF" fill-rule="nonzero" stroke-linecap="round" stroke-linejoin="round" x="660.183969" y="162.439582" width="208.816031" height="165.064818"></rect>
                <rect id="Rectangle" stroke="#CAD9EB" stroke-width="2" fill="#FFFFFF" fill-rule="nonzero" stroke-linecap="round" stroke-linejoin="round" x="751.22565" y="162.439582" width="25.6784229" height="165.064818"></rect>
                <rect id="Rectangle" stroke="#CAD9EB" stroke-width="2" fill="#FFFFFF" fill-rule="nonzero" stroke-linecap="round" stroke-linejoin="round" x="526.219411" y="238.119391" width="134.039861" height="89.3850087"></rect>
                <rect id="Rectangle" stroke="#CAD9EB" stroke-width="2" fill="#FFFFFF" fill-rule="nonzero" stroke-linecap="round" stroke-linejoin="round" x="562.063778" y="238.119391" width="12.8015598" height="89.3850087"></rect>
                <rect id="Rectangle" stroke="#CAD9EB" stroke-width="2" fill="#FFFFFF" fill-rule="nonzero" stroke-linecap="round" stroke-linejoin="round" x="479.983189" y="129.080223" width="205.803899" height="109.039168"></rect>
                <rect id="Rectangle" stroke="#CAD9EB" stroke-width="2" fill="#FFFFFF" fill-rule="nonzero" stroke-linecap="round" stroke-linejoin="round" x="612.742894" y="129.080223" width="22.4403813" height="109.039168"></rect>
                <rect id="Rectangle" stroke="#CAD9EB" stroke-width="2" fill="#FFFFFF" fill-rule="nonzero" stroke-linecap="round" stroke-linejoin="round" x="685.862392" y="26.5171381" width="160.923137" height="135.922444"></rect>
                <rect id="Rectangle" stroke="#CAD9EB" stroke-width="2" fill="#FFFFFF" fill-rule="nonzero" stroke-linecap="round" stroke-linejoin="round" x="-3.21037246e-14" y="199.187589" width="190.969151" height="128.316811"></rect>
                <rect id="Rectangle" stroke="#CAD9EB" stroke-width="2" fill="#FFFFFF" fill-rule="nonzero" stroke-linecap="round" stroke-linejoin="round" x="83.8878683" y="199.187589" width="22.892201" height="128.316811"></rect>
                <rect id="Rectangle" stroke="#CAD9EB" stroke-width="2" fill="#FFFFFF" fill-rule="nonzero" stroke-linecap="round" stroke-linejoin="round" x="50.8297227" y="79.7565662" width="139.838215" height="119.431023"></rect>
                <rect id="Rectangle" stroke="#CAD9EB" stroke-width="2" fill="#FFFFFF" fill-rule="nonzero" stroke-linecap="round" stroke-linejoin="round" x="190.969151" y="232.019824" width="136.148354" height="95.4845754"></rect>
                <rect id="Rectangle" stroke="#CAD9EB" stroke-width="2" fill="#FFFFFF" fill-rule="nonzero" stroke-linecap="round" stroke-linejoin="round" x="190.667938" y="142.258299" width="136.374263" height="89.7615251"></rect>
                <path d="M488.191248,198.434556 C454.078856,200.241835 427.120277,181.566618 423.129203,160.255786 C418.234489,134.125544 448.581716,107.317571 475.464991,102.272251 C509.72799,95.7961676 522.002426,127.800067 573.434575,131.941748 C588.269324,133.146601 621.026256,135.4057 644.972704,113.567745 C666.810659,93.6876754 675.621144,54.8311763 661.162912,29.6798764 C639.85208,-7.29404037 574.488821,-3.22766255 538.267938,7.39010175 C495.721577,19.9657517 489.923224,42.7073461 447.678076,54.9817829 C410.327643,65.825457 375.462218,59.4999804 351.591075,52.3461676" id="Path" stroke="#1B2B4C" stroke-width="2" stroke-linecap="round" stroke-linejoin="round" stroke-dasharray="8.8521,17.7041"></path>
                <rect id="Rectangle" fill="#CAD9EB" fill-rule="nonzero" x="283.742808" y="169.066272" width="301.514385" height="157.986308"></rect>
                <path d="M320.189601,36.1559596 C320.189601,36.4571728 320.264905,36.6830827 320.264905,36.9842959 C320.490815,38.038542 320.867331,39.0927881 321.319151,40.1470342 C322.4487,42.8579527 323.653553,45.0417482 325.912652,47.0749371 C327.418718,48.5056997 329.451906,49.4093392 331.560399,49.5599458 C333.668891,49.7105524 335.70208,48.6563063 336.831629,46.7737239 C337.810572,44.8911416 337.434055,42.6320428 336.681023,40.5988539 C335.174957,36.6830827 332.388735,33.4450411 328.774177,31.3365489 C325.536135,29.4539666 320.942634,29.830483 320.264905,34.2733773 C320.189601,34.9511069 320.114298,35.5535333 320.189601,36.1559596" id="Path" fill="#1B2B4C" fill-rule="nonzero"></path>
                <path d="M331.711005,33.3697378 C330.581456,30.5082127 329.828423,26.5924414 333.141768,24.8604657 C335.02435,23.8815229 337.434055,24.2580394 338.864818,25.8394085 C342.404073,29.6798764 338.036482,34.3486806 334.421924,35.8547465" id="Path" stroke="#1B2B4C" stroke-width="2" stroke-linecap="round" stroke-linejoin="round"></path>
                <path d="M336.078596,39.0174848 C336.229203,39.0927881 336.379809,39.0927881 336.530416,39.1680913 C339.090728,40.1470342 343.684229,41.4271901 346.169237,39.6952144 C347.675303,38.6409683 348.428336,36.758386 348.127123,34.9511069 C347.675303,32.9932213 346.319844,31.4118522 344.437262,30.7341225 C342.554679,30.0563929 340.596794,30.0563929 338.714211,30.583516 C336.530416,31.1859423 334.34662,32.0895818 332.313432,33.1438279" id="Path" stroke="#1B2B4C" stroke-width="2" stroke-linecap="round" stroke-linejoin="round"></path>
                <rect id="Rectangle" stroke="#1B2B4C" stroke-width="2" stroke-linecap="round" stroke-linejoin="round" x="283.742808" y="169.066272" width="301.514385" height="157.986308"></rect>
                <path d="M558.148007,194.292875 L323.728856,194.292875 L283.742808,169.216878 L585.257192,169.216878 C576.220797,177.575544 567.184402,185.934209 558.148007,194.292875 Z" id="Path" fill="#6C81A7" fill-rule="nonzero"></path>
                <path d="M558.148007,194.292875 L323.728856,194.292875 L283.742808,169.216878 L585.257192,169.216878 C576.220797,177.575544 567.184402,185.934209 558.148007,194.292875 Z" id="Path" stroke="#1B2B4C" stroke-width="2" stroke-linecap="round" stroke-linejoin="round"></path>
                <polygon id="4" fill="#262D33" fill-rule="nonzero" points="394.639938 285.167859 394.639938 275.311859 400.799938 275.311859 400.799938 262.287859 394.639938 262.287859 394.639938 249.087859 380.383938 249.087859 380.383938 262.287859 367.535938 262.287859 387.159938 223.567859 372.023938 223.567859 352.399938 262.287859 352.399938 275.311859 380.383938 275.311859 380.383938 285.167859"></polygon>
                <polygon id="4" fill="#262D33" fill-rule="nonzero" points="513.639938 285.167859 513.639938 275.311859 519.799938 275.311859 519.799938 262.287859 513.639938 262.287859 513.639938 249.087859 499.383938 249.087859 499.383938 262.287859 486.535938 262.287859 506.159938 223.567859 491.023938 223.567859 471.399938 262.287859 471.399938 275.311859 499.383938 275.311859 499.383938 285.167859"></polygon>
                <path d="M433.444904,231.318921 L411.036245,275.979293 C409.357053,279.244278 411.44407,283.451973 414.942201,283.451973 L459.822964,283.451973 C463.329457,283.451973 465.397359,279.31617 463.729523,275.980496 L441.288539,231.249137 C440.944883,230.381035 440.156204,229.557392 439.233735,229.123896 L439.076541,229.055212 C436.914094,228.072281 434.342053,229.125888 433.444904,231.318921 Z M438.248935,230.875945 L438.291348,230.894055 C438.790278,231.093627 439.266665,231.570014 439.466237,232.068945 L450.72108,254.511049 L461.941271,276.876127 C462.98375,278.961087 461.738307,281.451973 459.822964,281.451973 L414.942201,281.451973 C413.042592,281.451973 411.7799,278.906224 412.819357,276.885058 L435.264275,232.145971 C435.767237,230.924267 437.128483,230.366649 438.248935,230.875945 Z" id="Path" fill="#1B2B4C" fill-rule="nonzero"></path>
                <g id="!" fill-rule="nonzero">
                    <use fill="#000000" xlink:href="#path-1"></use>
                    <use fill="#1B2B4C" xlink:href="#path-1"></use>
                </g>
                <line x1="283.742808" y1="169.292181" x2="252.567244" y2="195.347121" id="Path" stroke="#1B2B4C" stroke-width="2" stroke-linecap="round" stroke-linejoin="round"></line>
                <line x1="585.257192" y1="169.292181" x2="611.989861" y2="192.259686" id="Path" stroke="#1B2B4C" stroke-width="2" stroke-linecap="round" stroke-linejoin="round"></line>
            </g>
        </g>
    </g>
</svg>