<?xml version="1.0" encoding="UTF-8"?>
<svg width="12px" height="12px" viewBox="0 0 12 12" version="1.1" xmlns="http://www.w3.org/2000/svg" xmlns:xlink="http://www.w3.org/1999/xlink">
    <!-- Generator: sketchtool 59 (101010) - https://sketch.com -->
    <title>73FAE88D-3572-4DF6-92F2-4AEDA77A14BC</title>
    <desc>Created with sketchtool.</desc>
    <g id="🚀-Initiate-BGV" stroke="none" stroke-width="1" fill="none" fill-rule="evenodd">
        <g id="filter-5" transform="translate(-1127.000000, -155.000000)">
            <g id="Group-3" transform="translate(1080.000000, 144.000000)">
                <g id="onboard" transform="translate(45.000000, 8.000000)">
                    <g id="Group-2" transform="translate(0.000000, 1.000000)">
                        <rect id="Rectangle" x="0" y="0" width="16" height="16"></rect>
                        <g id="noun_Tag_2146578" transform="translate(2.000000, 2.000000)" fill="#0059B2" fill-rule="nonzero">
                            <g id="Group">
                                <path d="M11.925,0.075 C11.8793478,0.0326086957 11.823913,0.0097826087 11.7619565,0.0097826087 L7.04673913,0.0326086957 C7.04021739,0.0326086957 7.03695652,0.0326086957 7.03043478,0.0326086957 C6.47608696,0.0717391304 5.9576087,0.309782609 5.56630435,0.701086957 L0.456521739,5.81086957 C-0.140217391,6.4076087 -0.140217391,7.37934783 0.456521739,7.97934783 L4.02065217,11.5434783 C4.32065217,11.8434783 4.71195652,11.9902174 5.10326087,11.9902174 C5.49456522,11.9902174 5.88913043,11.8402174 6.18586957,11.5434783 L11.298913,6.43369565 C11.6902174,6.0423913 11.9282609,5.52065217 11.9673913,4.96956522 C11.9673913,4.96304348 11.9673913,4.95978261 11.9673913,4.95326087 L11.9902174,0.238043478 C11.9902174,0.176086957 11.9673913,0.117391304 11.925,0.075 Z M7.93695652,5.22717391 C7.29456522,5.22717391 6.77608696,4.70543478 6.77608696,4.06630435 C6.77608696,3.42391304 7.29782609,2.90543478 7.93695652,2.90543478 C8.57934783,2.90543478 9.09782609,3.42717391 9.09782609,4.06630435 C9.09782609,4.70543478 8.57608696,5.22717391 7.93695652,5.22717391 Z" id="Shape"></path>
                                <circle id="Oval" transform="translate(7.936763, 4.062342) rotate(-13.285796) translate(-7.936763, -4.062342) " cx="7.93676283" cy="4.06234239" r="1"></circle>
                            </g>
                        </g>
                    </g>
                </g>
            </g>
        </g>
    </g>
</svg>