<?xml version="1.0" encoding="UTF-8"?>
<svg width="12px" height="12px" viewBox="0 0 12 12" version="1.1" xmlns="http://www.w3.org/2000/svg" xmlns:xlink="http://www.w3.org/1999/xlink">
    <title>pen</title>
    <g id="roster" stroke="none" stroke-width="1" fill="none" fill-rule="evenodd">
        <g id="Publish-functionalitv2_07" transform="translate(-988.000000, -120.000000)" fill="#0059B2">
            <g id="table-header" transform="translate(160.000000, 112.000000)">
                <g id="roster/-weekday" transform="translate(820.000000, 0.000000)">
                    <g id="pen" transform="translate(8.000000, 8.000000)">
                        <path d="M11.8348338,2.42429255 L9.57595349,0.165412274 C9.35543038,-0.055044241 8.99796241,-0.055044241 8.77743931,0.165412274 L7.20017615,1.74267543 L10.2575706,4.80006989 L11.8348338,3.22280673 C12.0552903,3.00228363 12.0552903,2.64481566 11.8348338,2.42429255 L11.8348338,2.42429255 Z" id="Path"></path>
                        <path d="M6.63008284,2.40006989 L1.25769205,7.77222989 C1.19757586,7.83250106 1.15231155,7.90593502 1.12548066,7.98672132 L0.0282906649,11.2781499 C-0.0274030074,11.4453574 0.000632968995,11.6291399 0.103648477,11.7721384 C0.206663984,11.9151369 0.372113134,11.9999361 0.548358721,12.0000699 C0.607311714,12.0000699 0.66586768,11.9904262 0.72171474,11.9715442 L4.01328471,10.8744013 C4.09407448,10.8475716 4.16751159,10.8023092 4.22778536,10.7421956 L9.60017615,5.3700356 L6.63008284,2.40006989 Z" id="Path"></path>
                    </g>
                </g>
            </g>
        </g>
    </g>
</svg>