<?xml version="1.0" encoding="UTF-8"?>
<svg width="16px" height="16px" viewBox="0 0 16 16" version="1.1" xmlns="http://www.w3.org/2000/svg" xmlns:xlink="http://www.w3.org/1999/xlink">
    <title>5F46CB58-9650-46C0-B2ED-CB7AA769D7CD</title>
    <g id="⛑-in-progress-screen" stroke="none" stroke-width="1" fill="none" fill-rule="evenodd">
        <g id="vendor_management_filter_01" transform="translate(-1294.000000, -191.000000)" fill-rule="nonzero">
            <g id="Group-19" transform="translate(1080.000000, 135.000000)">
                <g id="Group-3" transform="translate(0.000000, 48.000000)">
                    <g id="Group-25" transform="translate(202.000000, 2.000000)">
                        <g id="Group-2" transform="translate(12.000000, 6.000000)">
                            <rect id="Rectangle" fill="#D8D8D8" opacity="0" x="0" y="0" width="16" height="16"></rect>
                            <g id="Group" transform="translate(1.400000, 0.000000)" fill="#0059B2">
                                <path d="M0.04763158,10.411579 C0.042105264,10.4336842 0.036578948,10.4557895 0.036578948,10.4778947 L0.036578948,15.2673684 C0.036578948,15.383421 0.130526316,15.4773684 0.246578948,15.4773684 L10.8571053,15.4773684 C10.9731579,15.4773684 11.0671053,15.383421 11.0671053,15.2673684 L11.0671053,10.4778947 C11.0671053,10.4502632 11.061579,10.4281579 11.0505263,10.4060526 C10.9786842,9.135 10.4371053,8.26184212 9.39263156,7.75342104 C9.00578948,7.56552632 8.55263156,7.43289472 7.99447368,7.33894736 C8.79026316,6.6536842 9.29315788,5.63684212 9.29315788,4.50947368 C9.29315788,2.44263158 7.61315788,0.76263158 5.5463158,0.76263158 C3.47947368,0.76263158 1.805,2.44263158 1.805,4.50394736 C1.805,5.6313158 2.30789474,6.64263156 3.10368421,7.33342104 C1.64473684,7.57657896 0.169210528,8.23421052 0.04763158,10.411579 Z M5.5463158,14.7718421 L4.43552632,13.2907895 L5.10973684,8.22315788 C5.25342104,8.23973684 5.39710528,8.25078948 5.5463158,8.25078948 C5.69552632,8.25078948 5.83921052,8.23973684 5.98289472,8.22315788 L6.65710528,13.2907895 L5.5463158,14.7718421 Z M2.21947368,4.50394736 C2.21947368,2.66921053 3.71157896,1.17157895 5.5463158,1.17157895 C7.38105264,1.17157895 8.8786842,2.66368421 8.8786842,4.50394736 C8.8786842,5.66447368 8.2763158,6.69236844 7.37,7.28921052 C7.35342104,7.29473684 7.34236844,7.30578948 7.3313158,7.3113158 C6.81736844,7.63736844 6.20394736,7.83078948 5.5463158,7.83078948 C4.8886842,7.83078948 4.28078948,7.63736844 3.76684212,7.3113158 C3.75578948,7.30026316 3.73921052,7.29473684 3.72263156,7.2836842 C2.81631579,6.69236844 2.21947368,5.67 2.21947368,4.50394736 Z" id="Shape"></path>
                                <path d="M13.5207895,1.97289474 C13.4876316,1.87342105 13.4047368,1.80710526 13.3052632,1.79052632 L12.0894737,1.61368421 L11.5423684,0.508421052 C11.4539474,0.326052632 11.15,0.326052632 11.061579,0.508421052 L10.5144737,1.61368421 L9.2986842,1.79052632 C9.19921052,1.80710526 9.11078948,1.87894737 9.08315788,1.97289474 C9.05,2.07236842 9.07763156,2.17736842 9.14947368,2.24921053 L10.0281579,3.10578947 L9.8236842,4.32157896 C9.80157896,4.42105264 9.84026316,4.52605264 9.92315788,4.5813158 C9.96736844,4.61447368 10.0226316,4.63105264 10.083421,4.63105264 C10.1276316,4.63105264 10.1663158,4.62 10.2105263,4.59789472 L11.2992105,4.02315788 L12.3878947,4.59789472 C12.4818421,4.64763156 12.5868421,4.63657896 12.6697368,4.57578948 C12.7526316,4.52052632 12.7968421,4.42105264 12.7802632,4.32157896 L12.5702632,3.10578947 L13.4544737,2.24921053 C13.5263158,2.17736842 13.548421,2.07236842 13.5207895,1.97289474 Z" id="Path"></path>
                            </g>
                        </g>
                    </g>
                </g>
            </g>
        </g>
    </g>
</svg>