<?xml version="1.0" encoding="UTF-8"?>
<svg width="15px" height="14px" viewBox="0 0 15 14" version="1.1" xmlns="http://www.w3.org/2000/svg" xmlns:xlink="http://www.w3.org/1999/xlink">
    <!-- Generator: sketchtool 58 (101010) - https://sketch.com -->
    <title>6DD9C359-16C3-47D8-9965-2E4A2C59CB06</title>
    <desc>Created with sketchtool.</desc>
    <defs>
        <path d="M15.2469571,3.65217384 L15.2469571,12.927536 C15.2469571,13.193623 15.0660876,13.425507 14.8075368,13.4898549 L10.1698555,14.6492751 C10.0631888,14.6765215 9.95014531,14.6718838 9.84579748,14.6371012 L6.52753646,13.5310143 L2.05333337,14.6498549 C2.00695655,14.6608693 1.96000003,14.6666664 1.9130435,14.6666664 C1.78492756,14.6666664 1.65913045,14.6243476 1.55652175,14.5437679 C1.41565218,14.4342027 1.33333333,14.265507 1.33333333,14.0869563 L1.33333333,4.81159411 L2.49275367,4.81159411 L2.49275367,13.3443476 L6.41043501,12.3652172 C6.51710168,12.3379708 6.63014516,12.3426085 6.73449299,12.3773911 L10.052754,13.4834781 L14.0875368,12.4747824 L14.0875368,3.65217384 L15.2469571,3.65217384 Z M8.289855,1.33333333 C10.2840579,1.33333333 12.347826,2.8510145 12.347826,5.39130437 C12.347826,7.70318844 9.08173906,11.1976812 8.70956515,11.5884059 C8.59999993,11.7031885 8.44811587,11.768116 8.289855,11.768116 C8.13159413,11.768116 7.97971008,11.7031885 7.87014486,11.5884059 C7.49797095,11.1976812 4.231884,7.70318844 4.231884,5.39130437 C4.231884,2.8510145 6.29565211,1.33333333 8.289855,1.33333333 Z M8.28985492,4.231884 C7.64927523,4.231884 7.13043467,4.75072457 7.13043467,5.39130425 C7.13043467,6.03188394 7.64927523,6.55072451 8.28985492,6.55072451 C8.93043461,6.55072451 9.44927518,6.03188394 9.44927518,5.39130425 C9.44927518,4.75072457 8.93043461,4.231884 8.28985492,4.231884 Z" id="path-1"></path>
    </defs>
    <g id="🚀-Initiate-BGV" stroke="none" stroke-width="1" fill="none" fill-rule="evenodd">
        <g id="initiating-BGV_filter_process_3" transform="translate(-418.000000, -214.000000)">
            <g id="action-bar-/-with-out-label-notification" transform="translate(159.000000, 88.000000)">
                <g id="action-bar-/-expanded-action-bar_with_label" transform="translate(0.000000, 6.000000)">
                    <g id="location,-function,-custom" transform="translate(38.000000, 115.000000)">
                        <g id="location_tag" transform="translate(212.000000, 0.000000)">
                            <g id="tag">
                                <g id="icon-/-24-/-info-/-address-list" transform="translate(8.000000, 4.000000)">
                                    <mask id="mask-2" fill="white">
                                        <use xlink:href="#path-1"></use>
                                    </mask>
                                    <use id="Combined-Shape" fill="#000000" fill-rule="nonzero" xlink:href="#path-1"></use>
                                    <rect id="Rectangle" fill="#8697A8" mask="url(#mask-2)" x="0" y="0" width="16" height="16"></rect>
                                </g>
                            </g>
                        </g>
                    </g>
                </g>
            </g>
        </g>
    </g>
</svg>