<?xml version="1.0" encoding="UTF-8"?>
<svg width="40px" height="40px" viewBox="0 0 40 40" version="1.1" xmlns="http://www.w3.org/2000/svg" xmlns:xlink="http://www.w3.org/1999/xlink">
    <!-- Generator: Sketch 55.2 (78181) - https://sketchapp.com -->
    <title>icon / 40 / info / address</title>
    <desc>Created with Sketch.</desc>
    <defs>
        <rect id="path-1" x="0" y="0" width="40" height="40" rx="19.5"></rect>
        <path d="M2.86956522,22 C2.6773913,22 2.48869565,21.9365217 2.33478261,21.8156522 C2.12347826,21.6513043 2,21.3982609 2,21.1304348 L2,7.2173913 L3.73913043,7.2173913 L3.73913043,20.0165217 L9.61565217,18.5478261 C9.77565217,18.5069565 9.94521739,18.513913 10.1017391,18.566087 L15.0791304,20.2252174 L21.1313043,18.7121739 L21.1313043,5.47826087 L22.8704348,5.47826087 L22.8704348,19.3913043 C22.8704348,19.7904348 22.5991304,20.1382609 22.2113043,20.2347826 L15.2547826,21.973913 C15.0947826,22.0147826 14.9252174,22.0078261 14.7686957,21.9556522 L9.79130435,20.2965217 L3.08,21.9747826 C3.01043478,21.9913043 2.94,22 2.86956522,22 Z M12.4347826,2 C15.426087,2 18.5217391,4.27652174 18.5217391,8.08695652 C18.5217391,11.5547826 13.6226087,16.7965217 13.0643478,17.3826087 C12.9,17.5547826 12.6721739,17.6521739 12.4347826,17.6521739 C12.1973913,17.6521739 11.9695652,17.5547826 11.8052174,17.3826087 C11.2469565,16.7965217 6.34782609,11.5547826 6.34782609,8.08695652 C6.34782609,4.27652174 9.44347826,2 12.4347826,2 Z M12.4347826,9.82608696 C13.3956522,9.82608696 14.173913,9.04782609 14.173913,8.08695652 C14.173913,7.12608696 13.3956522,6.34782609 12.4347826,6.34782609 C11.473913,6.34782609 10.6956522,7.12608696 10.6956522,8.08695652 C10.6956522,9.04782609 11.473913,9.82608696 12.4347826,9.82608696 Z" id="path-3"></path>
    </defs>
    <g id="ðŸ‚-on-boarding" stroke="none" stroke-width="1" fill="none" fill-rule="evenodd">
        <g id="01-BGV-Client-onboarding_organisation-details_C" transform="translate(-160.000000, -64.000000)">
            <g id="section-title" transform="translate(160.000000, 64.000000)">
                <g id="icon-/-40-/-info-/-address">
                    <g id="icon-/-40-/-info-/-container">
                        <mask id="mask-2" fill="white">
                            <use xlink:href="#path-1"></use>
                        </mask>
                        <use fill="#0059B2" fill-rule="evenodd" xlink:href="#path-1"></use>
                    </g>
                    <g id="icon-/-24-/-info-/-address-list" transform="translate(8.000000, 8.000000)">
                        <mask id="mask-4" fill="white">
                            <use xlink:href="#path-3"></use>
                        </mask>
                        <use id="Combined-Shape" fill="#000000" fill-rule="nonzero" xlink:href="#path-3"></use>
                        <rect id="Rectangle" fill="#FFFFFF" fill-rule="evenodd" mask="url(#mask-4)" x="0" y="0" width="24" height="24"></rect>
                    </g>
                </g>
            </g>
        </g>
    </g>
</svg>