<?xml version="1.0" encoding="UTF-8"?>
<svg width="17px" height="16px" viewBox="0 0 17 16" version="1.1" xmlns="http://www.w3.org/2000/svg" xmlns:xlink="http://www.w3.org/1999/xlink">
    <!-- Generator: sketchtool 57.1 (101010) - https://sketch.com -->
    <title>2330CBBD-46B1-4AB0-A8D1-21EB1AF989BA</title>
    <desc>Created with sketchtool.</desc>
    <defs>
        <rect id="path-1" x="2" y="2" width="20" height="20"></rect>
    </defs>
    <g id="BGV-configuration" stroke="none" stroke-width="1" fill="none" fill-rule="evenodd">
        <g id="bgv-configuration-1_select-services" transform="translate(-440.000000, -368.000000)">
            <g id="section" transform="translate(160.000000, 120.000000)">
                <g id="Security-Guard-Copy-6" transform="translate(268.000000, 236.000000)">
                    <g id="icon-/-48-/-info-/-verification-/-aadhaar" transform="translate(8.000000, 8.000000)">
                        <mask id="mask-2" fill="white">
                            <use xlink:href="#path-1"></use>
                        </mask>
                        <g id="container"></g>
                        <g id="property-location" mask="url(#mask-2)" fill-rule="nonzero">
                            <g transform="translate(4.000000, 4.000000)" id="Path">
                                <path d="M8.17777789,0.311466664 L1.77777779,5.54666682 L1.77777779,14.9333338 C1.77777779,15.3260696 2.09615308,15.6444449 2.48888891,15.6444449 L12.4444446,15.6444449 C13.6226521,15.6444449 14.577778,14.689319 14.577778,13.5111115 L14.577778,5.54666682 L8.17777789,0.311466664 Z" fill="#EAD8C5"></path>
                                <path d="M15.9999991,7.11111125 C15.9180748,7.11101405 15.8386974,7.08262909 15.775288,7.0307557 L8.17777734,0.81493335 L0.580622192,7.0307557 C0.428393322,7.15140628 0.207512459,7.12755965 0.0845424415,6.9771982 C-0.0384275763,6.82683674 -0.0179697982,6.60561626 0.130488882,6.48035568 L7.95271069,0.0803555572 C8.08365458,-0.0267132242 8.27190011,-0.0267132242 8.402844,0.0803555572 L16.2250658,6.48035568 C16.3413792,6.57550808 16.3853116,6.73351096 16.3348089,6.8750463 C16.2843061,7.01658165 16.1502748,7.11111125 15.9999991,7.11111125 Z" fill="#5A7A84"></path>
                                <path d="M13.155556,8.17777824 C11.5825782,8.17777824 9.95555592,9.32586712 9.95555592,11.2476449 C9.95555592,13.030756 12.6076448,15.613156 12.9102226,15.9018671 C13.0475731,16.0328019 13.2635388,16.0328019 13.4008893,15.9018671 C13.7034671,15.613156 16.355556,13.030756 16.355556,11.2476449 C16.355556,9.32586712 14.7285338,8.17777824 13.155556,8.17777824 Z" fill="#E86C60"></path>
                                <path d="M13.1555558,12.4444449 C12.5664521,12.4444449 12.0888891,11.9668819 12.0888891,11.3777782 C12.0888891,10.7886744 12.5664521,10.3111115 13.1555558,10.3111115 C13.7446596,10.3111115 14.2222226,10.7886744 14.2222226,11.3777782 C14.2222226,11.9668819 13.7446596,12.4444449 13.1555558,12.4444449 Z" fill="#FFFFFF"></path>
                            </g>
                        </g>
                    </g>
                </g>
            </g>
        </g>
    </g>
</svg>