<?xml version="1.0" encoding="UTF-8"?>
<svg width="148px" height="92px" viewBox="0 0 148 92" version="1.1" xmlns="http://www.w3.org/2000/svg" xmlns:xlink="http://www.w3.org/1999/xlink">
    <!-- Generator: sketchtool 63.1 (101010) - https://sketch.com -->
    <title>E1D4EC9C-AAA9-481C-8285-7B593F39ABC2</title>
    <desc>Created with sketchtool.</desc>
    <g id="🖥-Ops_analyst-" stroke="none" stroke-width="1" fill="none" fill-rule="evenodd">
        <g id="menual-address-review__03" transform="translate(-868.000000, -89.000000)">
            <g id="🖥-Ops_analyst-/-dashboard-/-task-header-/-manual-address-review" transform="translate(160.000000, 65.000000)">
                <g id="intro-card">
                    <g id="pan-cards" transform="translate(708.000000, 24.000000)">
                        <path d="M0.861111111,8.00345689 C0.861111111,3.5832697 4.44014703,0 8.86886275,0 L139.853359,0 C144.275919,0 147.861111,3.57827291 147.861111,8.00345689 L147.861111,83.9965431 C147.861111,88.4167303 144.282075,92 139.853359,92 L8.86886275,92 C4.44630364,92 0.861111111,88.4217271 0.861111111,83.9965431 L0.861111111,8.00345689 Z" id="Rectangle-Copy-13" fill="#0E6170"></path>
                        <path d="M19.0247273,32.2370909 C20.498,32.2370909 21.5878182,31.672 22.3143636,30.7638182 L22.3143636,31.9545455 L24.9178182,31.9545455 L24.9178182,21.8636364 L22.3143636,21.8636364 L22.3143636,23.0543636 C21.5878182,22.1461818 20.498,21.5810909 19.0247273,21.5810909 C16.3405455,21.5810909 14.1205455,23.902 14.1205455,26.9090909 C14.1205455,29.9161818 16.3405455,32.2370909 19.0247273,32.2370909 Z M19.5090909,29.7547273 C17.9147273,29.7547273 16.724,28.6043636 16.724,26.9090909 C16.724,25.2138182 17.9147273,24.0634545 19.5090909,24.0634545 C21.1236364,24.0634545 22.3143636,25.2138182 22.3143636,26.9090909 C22.3143636,28.6043636 21.1236364,29.7547273 19.5090909,29.7547273 Z M31.6585455,32.2370909 C33.1318182,32.2370909 34.2014545,31.6921818 34.928,30.7638182 L34.928,31.9545455 L37.5314545,31.9545455 L37.5314545,17.8272727 L34.928,17.8272727 L34.928,23.0543636 C34.2014545,22.126 33.1318182,21.5810909 31.6585455,21.5810909 C28.9541818,21.5810909 26.7341818,23.902 26.7341818,26.9090909 C26.7341818,29.9161818 28.9541818,32.2370909 31.6585455,32.2370909 Z M32.1429091,29.7547273 C30.5283636,29.7547273 29.3376364,28.6043636 29.3376364,26.9090909 C29.3376364,25.2138182 30.5283636,24.0634545 32.1429091,24.0634545 C33.7372727,24.0634545 34.928,25.2138182 34.928,26.9090909 C34.928,28.6043636 33.7372727,29.7547273 32.1429091,29.7547273 Z M44.2923636,32.2370909 C45.7656364,32.2370909 46.8352727,31.6921818 47.5618182,30.7638182 L47.5618182,31.9545455 L50.1652727,31.9545455 L50.1652727,17.8272727 L47.5618182,17.8272727 L47.5618182,23.0543636 C46.8352727,22.126 45.7656364,21.5810909 44.2923636,21.5810909 C41.588,21.5810909 39.368,23.902 39.368,26.9090909 C39.368,29.9161818 41.588,32.2370909 44.2923636,32.2370909 Z M44.7767273,29.7547273 C43.1621818,29.7547273 41.9714545,28.6043636 41.9714545,26.9090909 C41.9714545,25.2138182 43.1621818,24.0634545 44.7767273,24.0634545 C46.3710909,24.0634545 47.5618182,25.2138182 47.5618182,26.9090909 C47.5618182,28.6043636 46.3710909,29.7547273 44.7767273,29.7547273 Z M55.1501818,31.9545455 L55.1501818,27.1310909 C55.1501818,25.012 56.8656364,24.4065455 58.2178182,24.568 L58.2178182,21.6618182 C56.9463636,21.6618182 55.6749091,22.2269091 55.1501818,23.5992727 L55.1501818,21.8636364 L52.5467273,21.8636364 L52.5467273,31.9545455 L55.1501818,31.9545455 Z M64.3530909,32.2370909 C66.2905455,32.2370909 67.8041818,31.45 68.7527273,30.0776364 L66.6538182,28.8667273 C66.2098182,29.452 65.4025455,29.8758182 64.3934545,29.8758182 C63.0210909,29.8758182 61.9110909,29.3107273 61.5478182,27.9787273 L69.1563636,27.9787273 C69.2169091,27.6356364 69.2572727,27.2925455 69.2572727,26.9090909 C69.2572727,23.9423636 67.1381818,21.5810909 64.1512727,21.5810909 C60.9827273,21.5810909 58.8232727,23.902 58.8232727,26.9090909 C58.8232727,29.9161818 60.9625455,32.2370909 64.3530909,32.2370909 Z M66.6538182,25.9605455 L61.5074545,25.9605455 C61.8101818,24.6689091 62.7587273,23.9221818 64.1512727,23.9221818 C65.2410909,23.9221818 66.3309091,24.5074545 66.6538182,25.9605455 Z M74.222,32.2370909 C76.3814545,32.2370909 78.2785455,31.1876364 78.2785455,29.008 C78.2785455,25.2945455 73.0716364,26.2229091 73.0716364,24.7294545 C73.0716364,24.1845455 73.5963636,23.902 74.2421818,23.902 C74.9889091,23.902 75.554,24.2854545 75.8567273,24.9312727 L78.0767273,23.7203636 C77.2896364,22.3278182 75.8769091,21.5810909 74.2421818,21.5810909 C72.1634545,21.5810909 70.4076364,22.7314545 70.4076364,24.79 C70.4076364,28.342 75.6145455,27.5347273 75.6145455,29.008 C75.6145455,29.5932727 75.0494545,29.8758182 74.222,29.8758182 C73.2129091,29.8758182 72.5267273,29.3914545 72.2441818,28.564 L69.9838182,29.8354545 C70.7103636,31.3894545 72.2038182,32.2370909 74.222,32.2370909 Z M82.9809091,32.2370909 C85.1403636,32.2370909 87.0374545,31.1876364 87.0374545,29.008 C87.0374545,25.2945455 81.8305455,26.2229091 81.8305455,24.7294545 C81.8305455,24.1845455 82.3552727,23.902 83.0010909,23.902 C83.7478182,23.902 84.3129091,24.2854545 84.6156364,24.9312727 L86.8356364,23.7203636 C86.0485455,22.3278182 84.6358182,21.5810909 83.0010909,21.5810909 C80.9223636,21.5810909 79.1665455,22.7314545 79.1665455,24.79 C79.1665455,28.342 84.3734545,27.5347273 84.3734545,29.008 C84.3734545,29.5932727 83.8083636,29.8758182 82.9809091,29.8758182 C81.9718182,29.8758182 81.2856364,29.3914545 81.0030909,28.564 L78.7427273,29.8354545 C79.4692727,31.3894545 80.9627273,32.2370909 82.9809091,32.2370909 Z M17.2487273,55.5 L17.2487273,50.6765455 C17.2487273,48.5574545 18.9641818,47.952 20.3163636,48.1134545 L20.3163636,45.2072727 C19.0449091,45.2072727 17.7734545,45.7723636 17.2487273,47.1447273 L17.2487273,45.4090909 L14.6452727,45.4090909 L14.6452727,55.5 L17.2487273,55.5 Z M26.4516364,55.7825455 C28.3890909,55.7825455 29.9027273,54.9954545 30.8512727,53.6230909 L28.7523636,52.4121818 C28.3083636,52.9974545 27.5010909,53.4212727 26.492,53.4212727 C25.1196364,53.4212727 24.0096364,52.8561818 23.6463636,51.5241818 L31.2549091,51.5241818 C31.3154545,51.1810909 31.3558182,50.838 31.3558182,50.4545455 C31.3558182,47.4878182 29.2367273,45.1265455 26.2498182,45.1265455 C23.0812727,45.1265455 20.9218182,47.4474545 20.9218182,50.4545455 C20.9218182,53.4616364 23.0610909,55.7825455 26.4516364,55.7825455 Z M28.7523636,49.506 L23.606,49.506 C23.9087273,48.2143636 24.8572727,47.4676364 26.2498182,47.4676364 C27.3396364,47.4676364 28.4294545,48.0529091 28.7523636,49.506 Z M38.4396364,55.5 L42.2741818,45.4090909 L39.4083636,45.4090909 L36.9461818,52.4727273 L34.5041818,45.4090909 L31.6383636,45.4090909 L35.4729091,55.5 L38.4396364,55.5 Z M44.8170909,44.1981818 C45.7050909,44.1981818 46.4316364,43.4716364 46.4316364,42.6038182 C46.4316364,41.736 45.7050909,40.9892727 44.8170909,40.9892727 C43.9492727,40.9892727 43.2227273,41.736 43.2227273,42.6038182 C43.2227273,43.4716364 43.9492727,44.1981818 44.8170909,44.1981818 Z M46.1289091,55.5 L46.1289091,45.4090909 L43.5254545,45.4090909 L43.5254545,55.5 L46.1289091,55.5 Z M53.5154545,55.7825455 C55.4529091,55.7825455 56.9665455,54.9954545 57.9150909,53.6230909 L55.8161818,52.4121818 C55.3721818,52.9974545 54.5649091,53.4212727 53.5558182,53.4212727 C52.1834545,53.4212727 51.0734545,52.8561818 50.7101818,51.5241818 L58.3187273,51.5241818 C58.3792727,51.1810909 58.4196364,50.838 58.4196364,50.4545455 C58.4196364,47.4878182 56.3005455,45.1265455 53.3136364,45.1265455 C50.1450909,45.1265455 47.9856364,47.4474545 47.9856364,50.4545455 C47.9856364,53.4616364 50.1249091,55.7825455 53.5154545,55.7825455 Z M55.8161818,49.506 L50.6698182,49.506 C50.9725455,48.2143636 51.9210909,47.4676364 53.3136364,47.4676364 C54.4034545,47.4676364 55.4932727,48.0529091 55.8161818,49.506 Z M64.5549091,55.5 L66.4116364,49.3849091 L68.2683636,55.5 L70.7507273,55.5 L73.9596364,45.4090909 L71.1947273,45.4090909 L69.4792727,51.6250909 L67.6427273,45.4090909 L65.1805455,45.4090909 L63.344,51.6049091 L61.6285455,45.4090909 L58.8636364,45.4090909 L62.0725455,55.5 L64.5549091,55.5 Z" id="addressreview" fill="#FFFFFF" fill-rule="nonzero"></path>
                        <g id="Group-25" transform="translate(91.861111, 39.354545)">
                            <rect id="Rectangle" fill="#D8D8D8" opacity="0" x="0" y="0" width="40.3636364" height="40.3636364"></rect>
                            <g id="noun_Star_2801184" transform="translate(8.409091, 3.363636)" fill="#262D33" opacity="0.50155785">
                                <g id="Group">
                                    <path d="M19.016178,2.87886658 C15.3189733,-0.91673151 9.027762,-0.966300888 5.26347089,2.77264648 L5.09202793,2.94259863 C2.44584309,5.56977567 1.73770912,9.46451251 3.29560385,12.7856608 L11.7381585,30.799741 C11.8553451,31.0497848 12.1530441,31.1574868 12.4030879,31.0403003 C12.5121026,30.989209 12.5990221,30.9004987 12.6478798,30.7904649 L20.79024,12.4528379 L20.79024,12.4528379 C21.2896608,11.3269049 21.5356441,10.1443211 21.5356441,8.96881873 C21.5281901,6.75944074 20.6635213,4.57130677 19.016178,2.87886658 Z M15.9078426,14.6763785 L12.0019247,12.7290101 L8.09600677,14.6763785 L8.84141095,10.5479575 L5.68835127,7.62336418 L10.0489657,7.02145031 L12.0019247,3.26834026 L13.9548836,7.02145031 L18.3154981,7.62336418 L15.1549844,10.5479575 L15.9078426,14.6763785 Z" id="Shape"></path>
                                    <path d="M8.0857645,25.8961244 L8.69154607,27.0160928 C4.36514446,27.4899203 1.23923445,28.9144921 1.23923445,30.382803 C1.23923445,32.1815319 5.93030324,33.9146212 11.7727273,33.9146212 C17.6151513,33.9146212 22.3062201,32.1815319 22.3062201,30.382803 C22.3062201,29.0048721 19.5532893,27.6654614 15.6387324,27.1141855 L16.1117021,25.9860808 C20.4565803,26.6427053 23.5454545,28.2805802 23.5454545,30.382803 C23.5454545,33.1354026 18.2496884,35.0918939 11.7727273,35.0918939 C5.29576612,35.0918939 0,33.1354026 0,30.382803 C0,28.1768675 3.40117028,26.482227 8.0857645,25.8961244 Z" id="Combined-Shape"></path>
                                </g>
                            </g>
                        </g>
                    </g>
                </g>
            </g>
        </g>
    </g>
</svg>