<?xml version="1.0" encoding="UTF-8"?>
<svg width="32px" height="32px" viewBox="0 0 32 32" version="1.1" xmlns="http://www.w3.org/2000/svg" xmlns:xlink="http://www.w3.org/1999/xlink">
    <!-- Generator: sketchtool 56.2 (101010) - https://sketch.com -->
    <title>BAAE8200-CDDB-41A2-9E8F-086E5CD99477</title>
    <desc>Created with sketchtool.</desc>
    <defs>
        <path d="M31.0493333,4.05600008 C31.6135778,4.22505006 32,4.7443091 32,5.33333343 L32,30.6666672 C32,31.4030469 31.4030463,32.0000006 30.6666667,32.0000006 L1.33333333,32.0000006 C0.596953667,32.0000006 0,31.4030469 0,30.6666672 L0,17.3333337 C0,16.596954 0.596953667,16.0000003 1.33333333,16.0000003 L2.66666667,16.0000003 L2.66666667,29.3333339 L5.33333333,29.3333339 L5.33333333,12.0000002 C5.33333333,11.2636205 5.930287,10.6666669 6.66666667,10.6666669 L20,10.6666669 C20.7363797,10.6666669 21.3333333,11.2636205 21.3333333,12.0000002 L21.3333333,29.3333339 L29.3333333,29.3333339 L29.3333333,6.32533345 L18.6666667,3.12533339 L18.6666667,8.00000015 L16,8.00000015 L16,1.33333336 C15.9999707,0.911927775 16.1991583,0.515312037 16.5371946,0.263689055 C16.8752309,0.0120660736 17.3123227,-0.0649434026 17.716,0.056000001 L31.0493333,4.05600008 Z M16,28.0000006 L16,25.3333339 L10.6666667,25.3333339 L10.6666667,28.0000006 L16,28.0000006 Z M16,22.6666673 L16,20.0000006 L10.6666667,20.0000006 L10.6666667,22.6666673 L16,22.6666673 Z M16,17.3333339 L16,14.6666673 L10.6666667,14.6666673 L10.6666667,17.3333339 L16,17.3333339 Z M24,10.6666673 L26.6666667,10.6666673 L26.6666667,26.6666673 L24,26.6666673 L24,10.6666673 Z" id="path-1"></path>
    </defs>
    <g id="👽-GBV-Client" stroke="none" stroke-width="1" fill="none" fill-rule="evenodd">
        <g id="BGV-Client-zomato-employee-profile" transform="translate(-200.000000, -834.000000)">
            <g id="personal-details" transform="translate(160.000000, 606.000000)">
                <g id="section-copy">
                    <g id="Group-19" transform="translate(40.000000, 228.000000)">
                        <g id="company_icon">
                            <mask id="mask-2" fill="white">
                                <use xlink:href="#path-1"></use>
                            </mask>
                            <use id="Combined-Shape" fill="#0059B2" fill-rule="nonzero" xlink:href="#path-1"></use>
                            <rect id="Rectangle" fill="#8697A8" mask="url(#mask-2)" x="0" y="0" width="32" height="32"></rect>
                        </g>
                    </g>
                </g>
            </g>
        </g>
    </g>
</svg>