<?xml version="1.0" encoding="UTF-8"?>
<svg width="275px" height="186px" viewBox="0 0 275 186" version="1.1" xmlns="http://www.w3.org/2000/svg" xmlns:xlink="http://www.w3.org/1999/xlink">
    <title>Group 3</title>
    <defs>
        <path d="M4,0 L270.6,0 C272.809139,-3.17995656e-14 274.6,1.790861 274.6,4 L274.6,182 C274.6,184.209139 272.809139,186 270.6,186 L141.3,186 L141.3,186 L4,186 C1.790861,186 2.705415e-16,184.209139 0,182 L0,4 C-2.705415e-16,1.790861 1.790861,4.05812251e-16 4,0 Z" id="path-1"></path>
        <polygon id="path-3" points="10 5.33333333 6.66666667 5.33333333 6.66666667 2 5.33333333 2 5.33333333 5.33333333 2 5.33333333 2 6.66666667 5.33333333 6.66666667 5.33333333 10 6.66666667 10 6.66666667 6.66666667 10 6.66666667"></polygon>
    </defs>
    <g id="site/-shift-management" stroke="none" stroke-width="1" fill="none" fill-rule="evenodd">
        <g id="site/shift-management_06" transform="translate(-159.000000, -209.000000)">
            <g id="Group-3" transform="translate(159.000000, 209.000000)">
                <mask id="mask-2" fill="white">
                    <use xlink:href="#path-1"></use>
                </mask>
                <use id="Mask" fill="#E7ECF4" xlink:href="#path-1"></use>
                <g id="Group-2" mask="url(#mask-2)">
                    <g transform="translate(93.000000, 65.000000)">
                        <path d="M4.303,52.182 C5.493,52.182 6.389,51.65 6.949,50.796 L6.949,52 L8.167,52 L8.167,45 L6.949,45 L6.949,46.204 C6.389,45.35 5.493,44.818 4.303,44.818 C2.357,44.818 0.761,46.428 0.761,48.5 C0.761,50.572 2.357,52.182 4.303,52.182 Z M4.457,51.006 C3.057,51.006 1.979,49.928 1.979,48.5 C1.979,47.072 3.057,45.994 4.457,45.994 C5.871,45.994 6.949,47.072 6.949,48.5 C6.949,49.928 5.871,51.006 4.457,51.006 Z M13.165,52.182 C14.355,52.182 15.251,51.65 15.811,50.796 L15.811,52 L17.029,52 L17.029,42.2 L15.811,42.2 L15.811,46.204 C15.251,45.35 14.355,44.818 13.165,44.818 C11.219,44.818 9.623,46.428 9.623,48.5 C9.623,50.572 11.219,52.182 13.165,52.182 Z M13.319,51.006 C11.919,51.006 10.841,49.928 10.841,48.5 C10.841,47.072 11.919,45.994 13.319,45.994 C14.733,45.994 15.811,47.072 15.811,48.5 C15.811,49.928 14.733,51.006 13.319,51.006 Z M22.027,52.182 C23.217,52.182 24.113,51.65 24.673,50.796 L24.673,52 L25.891,52 L25.891,42.2 L24.673,42.2 L24.673,46.204 C24.113,45.35 23.217,44.818 22.027,44.818 C20.081,44.818 18.485,46.428 18.485,48.5 C18.485,50.572 20.081,52.182 22.027,52.182 Z M22.181,51.006 C20.781,51.006 19.703,49.928 19.703,48.5 C19.703,47.072 20.781,45.994 22.181,45.994 C23.595,45.994 24.673,47.072 24.673,48.5 C24.673,49.928 23.595,51.006 22.181,51.006 Z M32.457,52 L32.457,48.29 C32.457,46.638 33.367,45.98 34.487,45.98 C35.565,45.98 36.223,46.624 36.223,47.772 L36.223,52 L37.441,52 L37.441,47.702 C37.441,45.91 36.363,44.818 34.725,44.818 C33.745,44.818 32.975,45.182 32.457,46.008 L32.457,45 L31.239,45 L31.239,52 L32.457,52 Z M42.495,52.182 C43.895,52.182 44.959,51.552 45.575,50.6 L44.539,50.012 C44.189,50.586 43.489,51.034 42.523,51.034 C41.221,51.034 40.227,50.32 39.989,49.06 L45.855,49.06 C45.883,48.878 45.897,48.696 45.897,48.514 C45.897,46.554 44.525,44.818 42.411,44.818 C40.227,44.818 38.743,46.428 38.743,48.5 C38.743,50.6 40.241,52.182 42.495,52.182 Z M44.665,47.996 L39.989,47.996 C40.185,46.778 41.095,45.966 42.411,45.966 C43.461,45.966 44.455,46.61 44.665,47.996 Z M49.845,52 L51.483,46.82 L53.121,52 L54.367,52 L56.537,45 L55.263,45 L53.723,50.334 L52.071,45 L50.895,45 L49.243,50.32 L47.703,45 L46.429,45 L48.599,52 L49.845,52 Z M63.649,52.182 C65.147,52.182 66.267,51.384 66.267,50.082 C66.267,47.506 62.347,48.388 62.347,46.89 C62.347,46.26 62.963,45.952 63.593,45.952 C64.209,45.952 64.825,46.218 65.091,46.848 L66.113,46.274 C65.665,45.364 64.741,44.818 63.593,44.818 C62.179,44.818 61.115,45.672 61.115,46.904 C61.115,49.438 65.035,48.584 65.035,50.082 C65.035,50.768 64.391,51.034 63.649,51.034 C62.781,51.034 62.137,50.614 61.913,49.942 L60.863,50.544 C61.269,51.51 62.249,52.182 63.649,52.182 Z M68.857,52 L68.857,48.29 C68.857,46.638 69.767,45.98 70.887,45.98 C71.965,45.98 72.623,46.624 72.623,47.772 L72.623,52 L73.841,52 L73.841,47.702 C73.841,45.91 72.763,44.818 71.125,44.818 C70.145,44.818 69.375,45.182 68.857,46.008 L68.857,42.2 L67.639,42.2 L67.639,52 L68.857,52 Z M76.151,43.726 C76.599,43.726 76.963,43.362 76.963,42.914 C76.963,42.466 76.599,42.088 76.151,42.088 C75.689,42.088 75.325,42.466 75.325,42.914 C75.325,43.362 75.689,43.726 76.151,43.726 Z M76.753,52 L76.753,45 L75.535,45 L75.535,52 L76.753,52 Z M80.365,52 L80.365,46.176 L82.213,46.176 L82.213,45 L80.365,45 L80.365,44.79 C80.365,43.572 80.995,43.096 82.213,43.194 L82.213,42.018 C80.211,41.878 79.147,42.928 79.147,44.79 L79.147,45 L78.027,45 L78.027,46.176 L79.147,46.176 L79.147,52 L80.365,52 Z M87.211,52 L87.211,50.908 C85.965,50.964 85.349,51.034 85.349,49.97 L85.349,46.176 L87.211,46.176 L87.211,45 L85.349,45 L85.349,43.04 L84.131,43.404 L84.131,45 L82.745,45 L82.745,46.176 L84.131,46.176 L84.131,49.97 C84.131,51.72 85.111,52.28 87.211,52 Z" id="addnewshift" fill="#8697A8" fill-rule="nonzero" opacity="0.5"></path>
                        <circle id="Oval" fill="#8697A8" fill-rule="evenodd" opacity="0.2" cx="44.5" cy="15.5" r="15.5"></circle>
                        <g id="Group" stroke-width="1" fill="none" fill-rule="evenodd" transform="translate(39.000000, 10.000000)" opacity="0.4">
                            <g id="icon-/-12-/-info-/-add">
                                <mask id="mask-4" fill="white">
                                    <use xlink:href="#path-3"></use>
                                </mask>
                                <use id="Path" fill="#EBECFD" xlink:href="#path-3"></use>
                                <rect id="Rectangle" fill="#8697A8" mask="url(#mask-4)" x="0" y="0" width="12" height="12"></rect>
                            </g>
                        </g>
                    </g>
                </g>
            </g>
        </g>
    </g>
</svg>