<?xml version="1.0" encoding="UTF-8"?>
<svg width="32px" height="32px" viewBox="0 0 32 32" version="1.1" xmlns="http://www.w3.org/2000/svg" xmlns:xlink="http://www.w3.org/1999/xlink">
    <title>afternoon shift</title>
    <g id="inprogress" stroke="none" stroke-width="1" fill="none" fill-rule="evenodd">
        <g id="roster_01A" transform="translate(-176.000000, -362.000000)">
            <g id="Group-10" transform="translate(176.000000, 246.000000)">
                <g id="afternoon-shift" transform="translate(0.000000, 116.000000)">
                    <rect id="Rectangle" fill="#FFAB00" opacity="0.0968787131" x="0" y="0" width="32" height="32" rx="16"></rect>
                    <g id="Group" transform="translate(8.000000, 8.000000)" fill="#FFA600">
                        <path d="M7.86567314,3.64516947 C10.190111,3.64516947 12.0710727,5.52613224 12.0710727,7.8505698 C12.0710727,10.1750057 10.190111,12.0556343 7.86567314,12.0556343 C5.54123706,12.0556343 3.66059543,10.1750057 3.66059543,7.8505698 C3.66059543,5.52613224 5.54123706,3.64516947 7.86567314,3.64516947 Z" id="Path"></path>
                        <path d="M7.84058971,1.70341714 C7.74965702,1.70341714 7.67593682,1.77714028 7.67593682,1.86807298 L7.67593682,2.83830841 C7.67594754,2.92923875 7.74965938,3.0029582 7.84058971,3.0029582 L7.89107918,3.0029582 C7.98200952,3.0029582 8.05572135,2.92923875 8.05573208,2.83830841 L8.05573208,1.86807298 C8.05572469,1.77714028 7.98201188,1.70341714 7.89107918,1.70341714 L7.84058971,1.70341714 Z" id="Path"></path>
                        <path d="M7.84058971,0.0305152653 C7.74965938,0.0305152653 7.67594754,0.104234723 7.67593682,0.195165061 L7.67593682,1.25447657 C7.67593682,1.34540927 7.74965702,1.41913241 7.84058971,1.41913241 L7.89107918,1.41913241 C7.98201188,1.41913241 8.05572469,1.34540927 8.05573208,1.25447657 L8.05573208,0.195165061 C8.05572135,0.104234723 7.98200952,0.0305152653 7.89107918,0.0305152653 L7.84058971,0.0305152653 Z" id="Path"></path>
                        <path d="M12.0755755,3.43773992 C12.0328014,3.43842378 11.9919724,3.45572698 11.9617322,3.48598629 L11.2757878,4.17192473 C11.2115154,4.23622606 11.2115154,4.34044839 11.2757878,4.40474971 L11.3114841,4.44077518 C11.3757859,4.50505048 11.4800116,4.50505048 11.5443135,4.44077518 L12.230258,3.75483069 C12.2945386,3.69052795 12.2945386,3.58629605 12.230258,3.52199331 L12.1945633,3.48598629 C12.1630626,3.45446667 12.1201324,3.4370596 12.0755755,3.43773992 Z" id="Path"></path>
                        <path d="M13.2586955,2.25494253 C13.2158574,2.25545455 13.1749053,2.27264139 13.1445322,2.30285469 L12.3955543,3.05215804 C12.3312861,3.11645866 12.3312861,3.2206762 12.3955543,3.28497682 L12.4312522,3.32067412 C12.4955539,3.38494833 12.5997784,3.38494833 12.66408,3.32067412 L13.4133796,2.5716991 C13.4776479,2.50739847 13.4776479,2.4031808 13.4133796,2.33888016 L13.3773616,2.30285469 C13.3458837,2.2715382 13.3030928,2.2542611 13.2586955,2.25494253 L13.2586955,2.25494253 Z" id="Path"></path>
                        <path d="M12.8779363,7.66051102 C12.7870059,7.66051102 12.7132833,7.73423041 12.7132833,7.82516082 L12.7132833,7.87597061 C12.7132833,7.96690357 12.7870034,8.04061801 12.8779363,8.04062694 L13.8481665,8.04062694 C13.9390995,8.04061801 14.0128196,7.96690357 14.0128196,7.87597061 L14.0128196,7.82516082 C14.0128196,7.73423041 13.9390969,7.66051102 13.8481665,7.66051102 L12.8779363,7.66051102 Z" id="Path"></path>
                        <path d="M14.4617551,7.66051102 C14.3708247,7.66051102 14.297102,7.73423041 14.297102,7.82516082 L14.297102,7.87597061 C14.297102,7.96690357 14.3708221,8.04061801 14.4617551,8.04062694 L15.5210629,8.04062694 C15.6119958,8.04061801 15.6857159,7.96690357 15.6857159,7.87597061 L15.6857159,7.82516082 C15.6857159,7.73423041 15.6119933,7.66051102 15.5210629,7.66051102 L14.4617551,7.66051102 Z" id="Path"></path>
                        <path d="M11.4253257,11.2121159 C11.3825522,11.2128002 11.3417238,11.2301035 11.3114841,11.2603624 L11.2757878,11.296369 C11.211507,11.3606717 11.211507,11.4649038 11.2757878,11.5292065 L11.9617322,12.215151 C12.0260343,12.2794274 12.1302612,12.2794274 12.1945633,12.215151 L12.230258,12.1791265 C12.2945267,12.1148258 12.2945267,12.0106076 12.230258,11.9463069 L11.5443135,11.2603624 C11.5128129,11.2288428 11.4698826,11.2114356 11.4253257,11.2121159 L11.4253257,11.2121159 Z" id="Path"></path>
                        <path d="M12.5454155,12.3322057 C12.502531,12.332805 12.4615725,12.3501122 12.4312522,12.3804457 L12.3955543,12.416142 C12.3312855,12.4804427 12.3312855,12.5846609 12.3955543,12.6489616 L13.1445322,13.3979494 C13.1754248,13.4289146 13.2173677,13.4463168 13.2611078,13.4463168 C13.3048478,13.4463168 13.3467907,13.4289146 13.3776833,13.3979494 L13.4133796,13.3622514 C13.477656,13.2979494 13.477656,13.1937224 13.4133796,13.1294204 L12.66408,12.3801176 C12.6326024,12.3488016 12.5898122,12.3315246 12.5454155,12.3322057 L12.5454155,12.3322057 Z" id="Path"></path>
                        <path d="M7.84058971,12.6981731 C7.74965683,12.6981731 7.67593682,12.7718965 7.67593682,12.8628294 L7.67593682,13.8327314 C7.67593682,13.9236637 7.74965746,13.9973861 7.84058971,13.9973861 L7.89107918,13.9973861 C7.98201144,13.9973861 8.05572406,13.9236637 8.05573208,13.8327314 L8.05573208,12.8628294 C8.05572496,12.7718965 7.98201207,12.6981731 7.89107918,12.6981731 L7.84058971,12.6981731 Z" id="Path"></path>
                        <path d="M7.84058971,14.2819869 C7.74965683,14.2819869 7.67593682,14.3557104 7.67593682,14.4466433 L7.67593682,15.5059478 C7.67593682,15.5968806 7.74965683,15.6706041 7.84058971,15.6706041 L7.89107918,15.6706041 C7.98201207,15.6706041 8.05572496,15.5968806 8.05573208,15.5059478 L8.05573208,14.4466433 C8.05572496,14.3557104 7.98201207,14.2819869 7.89107918,14.2819869 L7.84058971,14.2819869 Z" id="Path"></path>
                        <path d="M4.30119706,11.2121159 C4.25831142,11.2127168 4.21735246,11.2300264 4.18703314,11.2603624 L3.50140931,11.9463069 C3.43714054,12.0106076 3.43714054,12.1148258 3.50140931,12.1791265 L3.53710612,12.215151 C3.60140788,12.2794259 3.7056331,12.2794259 3.76993486,12.215151 L4.4558818,11.5292065 C4.52016253,11.4649038 4.52016253,11.3606717 4.4558818,11.296369 L4.42018514,11.2603624 C4.38868445,11.2288427 4.34575405,11.2114356 4.30119706,11.2121159 L4.30119706,11.2121159 Z" id="Path"></path>
                        <path d="M3.18142988,12.3322057 C3.13854516,12.3328049 3.09758633,12.350112 3.06726596,12.3804457 L2.31828833,13.1294204 C2.25401194,13.1937224 2.25401194,13.2979494 2.31828833,13.3622514 L2.35398498,13.3979494 C2.41828674,13.4622242 2.52251196,13.4622242 2.58681371,13.3979494 L3.33611445,12.6486449 C3.40038213,12.5843444 3.40038213,12.4801275 3.33611445,12.4158269 L3.30009649,12.3801355 C3.2686739,12.3486964 3.22587588,12.3312959 3.18142988,12.331889 L3.18142988,12.3322057 Z" id="Path"></path>
                        <path d="M1.88350286,7.66051102 C1.79257252,7.66051102 1.71884996,7.73423048 1.71884996,7.82516082 L1.71884996,7.87597061 C1.71884996,7.9669035 1.79256997,8.04061792 1.88350286,8.04062694 L2.85341012,8.04062694 C2.94434295,8.04061783 3.01806286,7.96690344 3.01806286,7.87597061 L3.01806286,7.82516082 C3.01806286,7.73423054 2.9443404,7.66051102 2.85341012,7.66051102 L1.88350286,7.66051102 Z" id="Path"></path>
                        <path d="M0.210283429,7.66051102 C0.11935309,7.66051102 0.0456305306,7.73423048 0.0456305306,7.82516082 L0.0456305306,7.87597061 C0.0456305306,7.9669035 0.11935054,8.04061792 0.210283429,8.04062694 L1.26991445,8.04062694 C1.36084727,8.04061783 1.43456718,7.96690344 1.43456718,7.87597061 L1.43456718,7.82516082 C1.43456718,7.73423054 1.36084472,7.66051102 1.26991445,7.66051102 L0.210283429,7.66051102 Z" id="Path"></path>
                        <path d="M3.65094873,3.43773992 C3.60817487,3.43842395 3.56734609,3.45572714 3.53710612,3.48598629 L3.50140931,3.52199331 C3.43712868,3.58629605 3.43712868,3.69052795 3.50140931,3.75483069 L4.18703314,4.44077518 C4.21792571,4.47174072 4.25986883,4.48914312 4.30360914,4.48914312 C4.34734945,4.48914312 4.38929258,4.47174072 4.42018514,4.44077518 L4.4558818,4.40474971 C4.52015416,4.34044839 4.52015416,4.23622606 4.4558818,4.17192473 L3.76993486,3.48598629 C3.73843461,3.45446708 3.69550503,3.43706004 3.65094873,3.43773992 L3.65094873,3.43773992 Z" id="Path"></path>
                        <path d="M2.46782759,2.25494253 C2.42510093,2.25553754 2.38427869,2.27271812 2.35398498,2.30285469 L2.31828833,2.33888016 C2.25401999,2.4031808 2.25401999,2.50739847 2.31828833,2.5716991 L3.06726596,3.32067412 C3.13156792,3.38495018 3.23579453,3.38495018 3.30009649,3.32067412 L3.33611445,3.28497682 C3.40038267,3.2206762 3.40038267,3.11645866 3.33611445,3.05215804 L2.58681371,2.30285469 C2.55525793,2.27145796 2.51233526,2.25417428 2.46782759,2.25494253 L2.46782759,2.25494253 Z" id="Path"></path>
                    </g>
                </g>
            </g>
        </g>
    </g>
</svg>