<?xml version="1.0" encoding="UTF-8"?>
<svg width="16px" height="15px" viewBox="0 0 16 15" version="1.1" xmlns="http://www.w3.org/2000/svg" xmlns:xlink="http://www.w3.org/1999/xlink">
    <!-- Generator: sketchtool 57.1 (101010) - https://sketch.com -->
    <title>6EDDE604-0597-4D02-A093-8AB48D2B9BD0</title>
    <desc>Created with sketchtool.</desc>
    <defs>
        <path d="M6.33333333,1 L8.33333333,3.66666667 L15.3333333,3.66666667 C15.6680514,3.66666667 15.9451553,3.91334174 15.9927716,4.23481822 L16,4.33333333 L16,13.6666667 C16,14.7210285 15.1841222,15.5848318 14.1492623,15.6611809 L14,15.6666667 L2,15.6666667 C0.945638205,15.6666667 0.0818348781,14.8507889 0.00548573643,13.815929 L0,13.6666667 L0,1.66666667 C0,1.33194864 0.246675069,1.05484466 0.568151553,1.00722838 L0.666666667,1 L6.33333333,1 Z M6,11 C4.58388526,11 3.42558486,12.1038344 3.33857968,13.4980225 L3.33333333,13.6666667 L8.66666667,13.6666667 C8.66666667,12.1939073 7.47275933,11 6,11 Z M10.8177608,9.12721859 C9.71447887,8.77331559 8.50899439,9.17369475 7.83666667,10.1173333 C8.51342539,10.4693624 9.07600933,11.0067423 9.45866667,11.6666667 L9.45866667,11.6666667 L12.6666708,11.6666667 C12.6686969,10.5080148 11.9210427,9.48112158 10.8177608,9.12721859 Z M6,7.66666667 C5.26362033,7.66666667 4.66666667,8.26362033 4.66666667,9 C4.66666667,9.73637967 5.26362033,10.3333333 6,10.3333333 C6.73637967,10.3333333 7.33333333,9.73637967 7.33333333,9 C7.33333333,8.26362033 6.73637967,7.66666667 6,7.66666667 Z M10,5.66666667 C9.26362033,5.66666667 8.66666667,6.26362033 8.66666667,7 C8.66666667,7.73637967 9.26362033,8.33333333 10,8.33333333 C10.7363797,8.33333333 11.3333333,7.73637967 11.3333333,7 C11.3333333,6.26362033 10.7363797,5.66666667 10,5.66666667 Z" id="path-1"></path>
    </defs>
    <g id="🚀-Initiate-BGV" stroke="none" stroke-width="1" fill="none" fill-rule="evenodd">
        <g id="BGV-Client-zomato-single-employee-initiateing_B3" transform="translate(-233.000000, -97.000000)">
            <g id="action-bar-/-with_label" transform="translate(160.000000, 80.000000)">
                <g id="action-bar/-label-/-assign" transform="translate(65.000000, 8.000000)">
                    <g id="icon-/-16-/-info-/-action_bar-/-assign" transform="translate(8.000000, 8.000000)">
                        <mask id="mask-2" fill="white">
                            <use xlink:href="#path-1"></use>
                        </mask>
                        <use id="Combined-Shape" fill="#8697A8" fill-rule="nonzero" xlink:href="#path-1"></use>
                        <rect id="Rectangle" fill="#0059B2" mask="url(#mask-2)" x="0" y="0" width="16" height="16"></rect>
                    </g>
                </g>
            </g>
        </g>
    </g>
</svg>