<?xml version="1.0" encoding="UTF-8"?>
<svg width="16px" height="15px" viewBox="0 0 16 15" version="1.1" xmlns="http://www.w3.org/2000/svg" xmlns:xlink="http://www.w3.org/1999/xlink">
    <!-- Generator: sketchtool 57.1 (101010) - https://sketch.com -->
    <title>7581903D-AFE0-4B26-96E1-7C264034BA64</title>
    <desc>Created with sketchtool.</desc>
    <g id="🚀-Initiate-BGV" stroke="none" stroke-width="1" fill="none" fill-rule="evenodd">
        <g id="BGV-Client-zomato-single-employee-initiateing_B2" transform="translate(-237.000000, -97.000000)" fill="#8697A8" fill-rule="nonzero">
            <g id="action-bar" transform="translate(160.000000, 96.000000)">
                <g id="assign" transform="translate(77.000000, 1.000000)">
                    <g id="Shape">
                        <path d="M15.3333333,2.66666667 L8.33333333,2.66666667 L6.33333333,-5.32907052e-15 L0.666666667,-5.32907052e-15 C0.298476833,-5.32907052e-15 0,0.298476833 0,0.666666667 L0,12.6666667 C0,13.7712362 0.8954305,14.6666667 2,14.6666667 L14,14.6666667 C15.1045695,14.6666667 16,13.7712362 16,12.6666667 L16,3.33333333 C16,2.9651435 15.7015232,2.66666667 15.3333333,2.66666667 Z M10,4.66666667 C10.7363797,4.66666667 11.3333333,5.26362033 11.3333333,6 C11.3333333,6.73637967 10.7363797,7.33333333 10,7.33333333 C9.26362033,7.33333333 8.66666667,6.73637967 8.66666667,6 C8.66666667,5.26362033 9.26362033,4.66666667 10,4.66666667 Z M6,6.66666667 C6.73637967,6.66666667 7.33333333,7.26362033 7.33333333,8 C7.33333333,8.73637967 6.73637967,9.33333333 6,9.33333333 C5.26362033,9.33333333 4.66666667,8.73637967 4.66666667,8 C4.66666667,7.26362033 5.26362033,6.66666667 6,6.66666667 Z M3.33333333,12.6666667 C3.33333333,11.1939073 4.52724067,10 6,10 C7.47275933,10 8.66666667,11.1939073 8.66666667,12.6666667 L3.33333333,12.6666667 Z M9.45866667,10.6666667 C9.07600933,10.0067423 8.51342539,9.46936244 7.83666667,9.11733333 C8.50899439,8.17369475 9.71447887,7.77331559 10.8177608,8.12721859 C11.9210427,8.48112158 12.6686969,9.50801477 12.6666708,10.6666667 L9.45866667,10.6666667 Z"></path>
                    </g>
                </g>
            </g>
        </g>
    </g>
</svg>