<?xml version="1.0" encoding="UTF-8"?>
<svg width="8px" height="12px" viewBox="0 0 8 12" version="1.1" xmlns="http://www.w3.org/2000/svg" xmlns:xlink="http://www.w3.org/1999/xlink">
    <!-- Generator: Sketch 57.1 (83088) - https://sketch.com -->
    <title>attach</title>
    <desc>Created with Sketch.</desc>
    <defs>
        <path d="M8.5530303,1.45454545 L8.5530303,8.18181818 C8.5530303,9.55908289 7.44544653,10.6666667 6.06818182,10.6666667 C4.69091711,10.6666667 3.58333333,9.55908289 3.58333333,8.18181818 L3.58333333,2.84848485 C3.58333333,2.00455347 4.25455347,1.33333333 5.09848485,1.33333333 C5.94241623,1.33333333 6.61363636,2.00455347 6.61363636,2.84848485 L6.61363636,7.6969697 C6.61363636,8.00756774 6.37877986,8.24242424 6.06818182,8.24242424 C5.75758377,8.24242424 5.52272727,8.00756774 5.52272727,7.6969697 L5.52272727,2.90909091 L4.18939394,2.90909091 L4.18939394,7.6969697 C4.18939394,8.74394741 5.02120411,9.57575758 6.06818182,9.57575758 C7.11515953,9.57575758 7.9469697,8.74394741 7.9469697,7.6969697 L7.9469697,2.84848485 C7.9469697,1.2681738 6.67879589,0 5.09848485,0 C3.5181738,0 2.25,1.2681738 2.25,2.84848485 L2.25,8.18181818 C2.25,10.2954626 3.95453744,12 6.06818182,12 C8.1818262,12 9.88636364,10.2954626 9.88636364,8.18181818 L9.88636364,1.45454545 L8.5530303,1.45454545 Z" id="path-1"></path>
    </defs>
    <g id="🤖-BGV-OPs" stroke="none" stroke-width="1" fill="none" fill-rule="evenodd">
        <g id="OpsTask_AddComments_8" transform="translate(-214.000000, -744.000000)">
            <g id="pan-details" transform="translate(160.000000, 314.000000)">
                <g id="name" transform="translate(40.000000, 296.000000)">
                    <g id="comment-copy-2" transform="translate(0.000000, 124.000000)">
                        <g id="icon-/-16-/-info-/-attach" transform="translate(12.000000, 10.000000)">
                            <mask id="mask-2" fill="white">
                                <use xlink:href="#path-1"></use>
                            </mask>
                            <use id="Path" fill="#0059B2" fill-rule="nonzero" xlink:href="#path-1"></use>
                            <rect id="Rectangle" fill="#8697A8" fill-rule="evenodd" mask="url(#mask-2)" x="0" y="0" width="12" height="12"></rect>
                        </g>
                    </g>
                </g>
            </g>
        </g>
    </g>
</svg>