<?xml version="1.0" encoding="UTF-8"?>
<svg width="12px" height="19px" viewBox="0 0 12 19" version="1.1" xmlns="http://www.w3.org/2000/svg" xmlns:xlink="http://www.w3.org/1999/xlink">
    <title>icon / 24 / info / attend</title>
    <defs>
        <path d="M15.9,3 C16.9525906,3.00546811 17.8045319,3.85740941 17.81,4.91 L17.81,4.91 L17.81,19.4 C17.81,20.4548639 16.9548639,21.31 15.9,21.31 L15.9,21.31 L7.9,21.31 C6.84904347,21.3044975 6,20.4509709 6,19.4 L6,19.4 L6,4.91 C6.00540543,3.86127386 6.85131668,3.01091045 7.9,3 L7.9,3 Z M11.9,17.81 C11.3477153,17.81 10.9,18.2577153 10.9,18.81 C10.9,19.3622847 11.3477153,19.81 11.9,19.81 C12.4522847,19.81 12.9,19.3622847 12.9,18.81 C12.9,18.2577153 12.4522847,17.81 11.9,17.81 Z M16.67,5.57 L7.15,5.62 C6.93682824,5.62526589 6.76526589,5.79682824 6.76,6.01 L6.76,6.01 L6.76,16.14 C6.78015378,16.3358643 6.94314249,16.4859855 7.14,16.4900055 L7.14,16.4900055 L16.67,16.4900055 C16.8706903,16.4910581 17.0394189,16.339635 17.06,16.14 L17.06,16.14 L17.06,5.96 C17.0627818,5.85573764 17.0225866,5.7549151 16.9488358,5.68116424 C16.8750849,5.60741338 16.7742624,5.56721817 16.67,5.57 L16.67,5.57 Z M13.87,11.78 C14.0953979,11.8475613 14.22463,12.0837442 14.16,12.31 C13.8599038,13.3073393 12.9415102,13.9900391 11.9,13.9900015 C10.8558739,13.9911747 9.93398561,13.3088961 9.63,12.31 C9.58192342,12.0910258 9.71015251,11.8718588 9.92459735,11.8064793 C10.1390422,11.7410998 10.3677337,11.8514495 10.45,12.06 C10.6430511,12.6965092 11.2298589,13.1317364 11.895,13.1317364 C12.5601411,13.1317364 13.1469489,12.6965092 13.34,12.06 C13.3697596,11.9503342 13.4436973,11.8579373 13.54417,11.8048574 C13.6446426,11.7517775 13.7626381,11.7427757 13.87,11.78 Z M10.59,8.55 C10.915848,8.55 11.18,8.814152 11.18,9.14 C11.18,9.465848 10.915848,9.73 10.59,9.73 C10.4326994,9.73273629 10.2810355,9.67145482 10.1697903,9.56020967 C10.0585452,9.44896451 9.99726371,9.29730061 10,9.14 C10,8.814152 10.264152,8.55 10.59,8.55 Z M13.6707434,8.72647261 C13.8386667,8.89729111 13.8866463,9.15268317 13.7921663,9.37279844 C13.6976864,9.59291371 13.479501,9.73405992 13.24,9.73 C13.084426,9.73002313 12.9353648,9.66754535 12.8263016,9.55660177 C12.7172385,9.44565819 12.6573177,9.29555083 12.66,9.14 C12.6600344,8.90046464 12.8048894,8.68472364 13.0265874,8.5940199 C13.2482855,8.50331615 13.5028201,8.55565411 13.6707434,8.72647261 Z" id="path-1"></path>
    </defs>
    <g id="⛑-in-progress-screen" stroke="none" stroke-width="1" fill="none" fill-rule="evenodd">
        <g id="dashboard-with-data-2" transform="translate(-22.000000, -187.000000)">
            <g id="left-bar-/-client">
                <g id="client_nev">
                    <g id="icon-/-24-/-info-/-attend" transform="translate(16.000000, 184.000000)">
                        <mask id="mask-2" fill="white">
                            <use xlink:href="#path-1"></use>
                        </mask>
                        <use id="Combined-Shape" fill="#7892B8" fill-rule="nonzero" xlink:href="#path-1"></use>
                        <rect id="Rectangle" fill="#0059B2" fill-rule="evenodd" mask="url(#mask-2)" x="0" y="0" width="24" height="24"></rect>
                    </g>
                </g>
            </g>
        </g>
    </g>
</svg>