<svg width="32" height="32" viewBox="0 0 32 32" fill="none" xmlns="http://www.w3.org/2000/svg">
<path d="M26 32H6C2.7 32 0 29.3 0 26V6C0 2.7 2.7 0 6 0H26C29.3 0 32 2.7 32 6V26C32 29.3 29.3 32 26 32Z" fill="white"/>
<path d="M21.0001 4.5H11.0001C9.7001 4.5 8.6001 5.6 8.6001 6.9V25.1C8.6001 26.4 9.7001 27.5 11.0001 27.5H21.0001C22.3001 27.5 23.4001 26.4 23.4001 25.1V6.9C23.4001 5.6 22.3001 4.5 21.0001 4.5ZM16.0001 25.6C15.3001 25.6 14.7001 25 14.7001 24.3C14.7001 23.6 15.3001 23 16.0001 23C16.7001 23 17.3001 23.6 17.3001 24.3C17.3001 25 16.7001 25.6 16.0001 25.6ZM22.0001 21.4H10.0001C9.8001 21.4 9.5001 21.2 9.5001 21V8.3C9.5001 8 9.8001 7.8 10.0001 7.8L22.0001 7.7C22.3001 7.7 22.5001 7.9 22.5001 8.2V21C22.4001 21.3 22.2001 21.4 22.0001 21.4Z" fill="#0059B2"/>
<path d="M13.6001 12.2C13.6001 11.8 13.9001 11.5 14.3001 11.5C14.7001 11.5 15.0001 11.8 15.0001 12.2C15.0001 12.6 14.8001 13 14.3001 13C13.9001 13 13.6001 12.6 13.6001 12.2Z" fill="#0059B2"/>
<path d="M16.9001 12.2C16.9001 11.8 17.2001 11.5 17.6001 11.5C18.0001 11.5 18.3001 11.8 18.3001 12.2C18.3001 12.6 18.0001 12.9 17.6001 12.9C17.3001 13 16.9001 12.6 16.9001 12.2Z" fill="#0059B2"/>
<path d="M16 18.3C14.7 18.3 13.5 17.4 13.1 16.2C13 15.9 13.2 15.6 13.5 15.6C13.8 15.5 14 15.7 14.1 15.9C14.4 16.9 15.5 17.5 16.5 17.2C17.1 17 17.6 16.5 17.8 15.9C17.9 15.6 18.2 15.5 18.4 15.5C18.7 15.6 18.8 15.9 18.8 16.2C18.5 17.4 17.3 18.3 16 18.3Z" fill="#0059B2"/>
</svg>
