<?xml version="1.0" encoding="UTF-8"?>
<svg width="12px" height="16px" viewBox="0 0 12 16" version="1.1" xmlns="http://www.w3.org/2000/svg" xmlns:xlink="http://www.w3.org/1999/xlink">
    <!-- Generator: sketchtool 57.1 (101010) - https://sketch.com -->
    <title>B58DAFC4-50AC-4322-AD65-F0F85F1AD32B</title>
    <desc>Created with sketchtool.</desc>
    <defs>
        <path d="M5.89189189,13.7513514 L10.1081081,13.7513514 C9.75016463,14.552691 8.9401982,15.1135135 8,15.1135135 C7.11856419,15.1135135 6.35156367,14.6206031 5.96421996,13.8987058 L5.89189189,13.7513514 L10.1081081,13.7513514 Z M7.99984683,2.33513514 C10.3595376,2.33513514 12.2803166,4.24236407 12.2894396,6.59035134 L12.2897655,6.6073138 L12.2897655,6.6073138 C12.2897655,7.91292133 12.4192648,9.74176898 13.0362233,11.0400605 C13.3721457,11.7470262 13.7076533,11.9807245 13.7522613,12.009487 C13.9401124,12.0959217 14.0327347,12.2956067 13.9895188,12.4979762 C13.9458883,12.7023221 13.7537719,12.8432432 13.5439723,12.8432432 L2.45601759,12.8432432 C2.24624756,12.8432432 2.05410152,12.7023516 2.01047101,12.4979762 C1.96728481,12.2956362 2.05987745,12.0959217 2.24772856,12.009487 C2.29230692,11.980695 2.62784419,11.7470262 2.96376652,11.0400605 C3.58072501,9.74176898 3.71022439,7.91292133 3.71022439,6.6073138 C3.71022439,4.25159755 5.63455788,2.33513514 7.99984683,2.33513514 Z M7.89789863,-7.77156117e-16 L8.03726604,-7.77156117e-16 C8.91571862,-7.77156117e-16 9.63902984,0.677945725 9.71273447,1.53876258 L9.71891892,1.68384042 L9.71891892,1.75135135 C9.17154963,1.5526628 8.58171153,1.44413668 7.9674199,1.44413668 C7.45536254,1.44413668 6.96053291,1.51931722 6.49321979,1.65901694 L6.21621622,1.75049379 L6.21621622,1.68384042 C6.21621622,0.804232556 6.89329309,0.0799916806 7.75300672,0.00619238589 L7.89789863,-7.77156117e-16 L8.03726604,-7.77156117e-16 Z" id="path-1"></path>
    </defs>
    <g id="🚀-Initiate-BGV" stroke="none" stroke-width="1" fill="none" fill-rule="evenodd">
        <g id="BGV-Client-zomato-single-employee-initiateing_A2" transform="translate(-992.000000, -95.000000)">
            <g id="action-bar-/-without_label" transform="translate(160.000000, 80.000000)">
                <g id="notification" transform="translate(830.000000, 7.000000)">
                    <g id="icon-/-16-/-info-/-action_bar-/-bell" transform="translate(0.000000, 8.000000)">
                        <mask id="mask-2" fill="white">
                            <use xlink:href="#path-1"></use>
                        </mask>
                        <use id="Combined-Shape" fill="#8697A8" fill-rule="nonzero" xlink:href="#path-1"></use>
                        <rect id="Rectangle" fill="#8697A8" mask="url(#mask-2)" x="0" y="0" width="16" height="16"></rect>
                    </g>
                </g>
            </g>
        </g>
    </g>
</svg>