<?xml version="1.0" encoding="UTF-8"?>
<svg width="133px" height="31px" viewBox="0 0 133 31" version="1.1" xmlns="http://www.w3.org/2000/svg" xmlns:xlink="http://www.w3.org/1999/xlink">
    <!-- Generator: Sketch 61 (89581) - https://sketch.com -->
    <title>logo</title>
    <desc>Created with Sketch.</desc>
    <g id="📮-email-template-notification-for-web-and-mobile" stroke="none" stroke-width="1" fill="none" fill-rule="evenodd">
        <g id="employment-verification_wesite" transform="translate(-446.000000, -24.000000)" fill="#000000" fill-rule="nonzero">
            <g id="logo" transform="translate(446.000000, 24.000000)">
                <g id="Group" transform="translate(41.780883, 7.911556)">
                    <path d="M4.8555103,3.78701832 C5.95466064,3.77910833 7.00289484,4.23929513 7.72704865,5.0476565 C9.31774903,6.81155812 9.31774903,9.45679889 7.72704865,11.2207005 C7.00289484,12.0290619 5.95466064,12.4892487 4.8555103,12.481439 C3.68601104,12.481439 2.78452203,12.0806905 2.15104327,11.2793942 L2.15104327,12.2491159 L0,12.2491159 L0,0.724739355 L2.15104327,0.724739355 L2.15104327,4.98896282 C2.78626236,4.18766649 3.68775137,3.78701832 4.8555103,3.78701832 Z M2.80366562,9.80439649 C3.23596145,10.2378262 3.83454674,10.4739233 4.45349493,10.4551308 C5.07540693,10.4733463 5.6769869,10.2375603 6.11376619,9.80439649 C6.99447099,8.85733648 6.99447099,7.41102053 6.11376619,6.46396052 C5.6769869,6.03079672 5.07540693,5.79501073 4.45349493,5.81322624 C3.83454674,5.79443367 3.23596145,6.0305308 2.80366562,6.46396052 C1.93381095,7.41509577 1.93381095,8.85326124 2.80366562,9.80439649 L2.80366562,9.80439649 Z" id="Shape"></path>
                    <path d="M12.2693002,9.00565206 C12.5599347,10.0400218 13.3430815,10.5563561 14.6187407,10.5546548 C15.3428247,10.5986718 16.0424008,10.2901641 16.4878511,9.73039142 L18.2238266,10.7179764 C17.3989119,11.8952525 16.1859045,12.48304 14.5848043,12.4813424 C13.2064659,12.4813424 12.1004886,12.0696323 11.2668723,11.2462195 C9.60325059,9.49584986 9.59529512,6.78948031 11.2485989,5.0297932 C12.0801387,4.19811398 13.2313939,3.74702119 14.4203435,3.78701832 C15.5670229,3.75597993 16.6709938,4.2131705 17.4459007,5.0400008 C18.2435551,5.87785731 18.6720688,6.9888027 18.6388944,8.13290256 C18.6381482,8.42569196 18.610188,8.71780948 18.5553587,9.00565206 L12.2693002,9.00565206 Z M12.2353639,7.35967712 L16.4904616,7.35967712 C16.4074012,6.86420912 16.1361054,6.41764101 15.7308092,6.10924654 C15.3532276,5.8367668 14.8948457,5.69248055 14.4255645,5.69839078 C13.9099488,5.67862024 13.4030466,5.83268352 12.9897953,6.13476553 C12.5997986,6.4440779 12.3336353,6.87772696 12.2379743,7.35967712 L12.2353639,7.35967712 Z" id="Shape"></path>
                    <path d="M24.9014585,6.05820856 L23.0166851,6.05820856 L23.0166851,9.4828572 C22.9952585,9.71260261 23.0739264,9.94052993 23.2333557,10.1106244 C23.4122675,10.2539613 23.6363843,10.3323997 23.8677047,10.3326396 C24.2154977,10.3516684 24.5641073,10.3516684 24.9119004,10.3326396 L24.9119004,12.2491159 C23.4326231,12.4192425 22.3884273,12.2822906 21.7793131,11.8382601 C21.1701989,11.3942297 20.866512,10.6090954 20.8682523,9.4828572 L20.8682523,6.05820856 L19.4168202,6.05820856 L19.4168202,4.01668924 L20.8682523,4.01668924 L20.8682523,2.35540291 L23.0219061,1.71232432 L23.0219061,4.00903355 L24.9066794,4.00903355 L24.9014585,6.05820856 Z" id="Path"></path>
                    <path d="M31.41724,6.05820856 L29.5298562,6.05820856 L29.5298562,9.4828572 C29.5091296,9.71297752 29.588763,9.94095543 29.7491373,10.1106244 C29.927248,10.2535927 30.1504146,10.3320213 30.3808757,10.3326396 C30.728672,10.3515572 31.0772752,10.3515572 31.4250715,10.3326396 L31.4250715,12.2491159 C29.9457942,12.4192425 28.9015984,12.2822906 28.2924842,11.8382601 C27.68337,11.3942297 27.3805532,10.6090954 27.3840339,9.4828572 L27.3840339,6.05820856 L25.9326018,6.05820856 L25.9326018,4.01668924 L27.3840339,4.01668924 L27.3840339,2.35540291 L29.5350772,1.71232432 L29.5350772,4.00903355 L31.422461,4.00903355 L31.41724,6.05820856 Z" id="Path"></path>
                    <path d="M34.7795504,9.00565206 C35.0684445,10.0400218 35.8515914,10.5563561 37.1289908,10.5546548 C37.8530748,10.5986718 38.5526509,10.2901641 38.9981013,9.73039142 L40.7340767,10.7179764 C39.9091621,11.8952525 38.6961546,12.48304 37.0950545,12.4813424 C35.7167161,12.4813424 34.6107387,12.0696323 33.7771224,11.2462195 C32.1135008,9.49584986 32.1055453,6.78948031 33.758849,5.0297932 C34.5895848,4.19851288 35.7398736,3.74742752 36.9279832,3.78701832 C38.0755642,3.75523273 39.1806414,4.21248692 39.9561509,5.0400008 C40.7538052,5.87785731 41.1823189,6.9888027 41.1491445,8.13290256 C41.1483983,8.42569196 41.1204381,8.71780948 41.0656089,9.00565206 L34.7795504,9.00565206 Z M34.745614,7.35967712 L39.0007117,7.35967712 C38.9176513,6.86420912 38.6463556,6.41764101 38.2410593,6.10924654 C37.8633894,5.83693542 37.405067,5.69266791 36.9358146,5.69839078 C36.4222993,5.67606703 35.9164711,5.8264812 35.5026559,6.12455793 C35.1086211,6.43561277 34.8403426,6.87331099 34.745614,7.35967712 L34.745614,7.35967712 Z" id="Shape"></path>
                    <path d="M44.8717024,5.43299327 C45.0477398,4.93550678 45.3994598,4.51567716 45.8636884,4.24891207 C46.3322611,3.98395732 46.8652079,3.84731991 47.4064876,3.8533677 L47.4064876,6.224082 C46.7901603,6.13914664 46.1634742,6.28003121 45.6470178,6.61962637 C45.1249199,6.95902895 44.863871,7.52555056 44.863871,8.31408739 L44.863871,12.2491159 L42.7102172,12.2491159 L42.7102172,4.01668924 L44.863871,4.01668924 L44.8717024,5.43299327 Z" id="Path"></path>
                    <path d="M53.4236657,3.786918 C54.5228161,3.77910833 55.5710503,4.23929513 56.2952041,5.0476565 C57.8859045,6.81155812 57.8859045,9.45679889 56.2952041,11.2207005 C55.5710503,12.0290619 54.5228161,12.4892487 53.4236657,12.4813387 C52.2541665,12.4813387 51.3526775,12.0806905 50.7191987,11.2793942 L50.7191987,15.5436177 L48.5681554,15.5436177 L48.5681554,4.01668924 L50.7191987,4.01668924 L50.7191987,4.98896282 C51.3544178,4.18766649 52.2559068,3.786918 53.4236657,3.786918 Z M51.371821,9.80439649 C51.8041169,10.2378262 52.4027022,10.4739233 53.0216503,10.4551308 C53.6435623,10.4733463 54.2451423,10.2375603 54.6819216,9.80439649 C55.5626264,8.85733648 55.5626264,7.41102053 54.6819216,6.46396052 C54.2451423,6.03079672 53.6435623,5.79501073 53.0216503,5.81322624 C52.4027022,5.79443367 51.8041169,6.0305308 51.371821,6.46396052 C50.5019664,7.41509577 50.5019664,8.85326124 51.371821,9.80439649 L51.371821,9.80439649 Z" id="Shape"></path>
                    <polygon id="Path" points="59.0675438 12.2491159 59.0675438 0.232222822 61.2211976 0.232222822 61.2211976 12.2491159"></polygon>
                    <path d="M69.6034791,4.01668924 L71.7571328,4.01668924 L71.7571328,12.2491159 L69.6034791,12.2491159 L69.6034791,11.2793942 C68.957818,12.0806905 68.051108,12.4813387 66.8833491,12.4813387 C65.7838317,12.4909577 64.7349017,12.0304654 64.0118108,11.2207005 C62.4211104,9.45679889 62.4211104,6.81155812 64.0118108,5.0476565 C64.7349017,4.23789157 65.7838317,3.77739933 66.8833491,3.78701832 C68.0528484,3.78701832 68.9595583,4.18766649 69.6034791,4.98896282 L69.6034791,4.01668924 Z M65.6329247,9.80439649 C66.0660245,10.2382244 66.6655759,10.4743291 67.2853645,10.4551308 C67.9071072,10.4724161 68.5083215,10.2367735 68.9456357,9.80439649 C69.8226887,8.85595922 69.8226887,7.41239779 68.9456357,6.46396052 C68.5083215,6.03158355 67.9071072,5.79594088 67.2853645,5.81322624 C66.6655759,5.79402795 66.0660245,6.03013257 65.6329247,6.46396052 C64.7666175,7.41641724 64.7666175,8.85193977 65.6329247,9.80439649 L65.6329247,9.80439649 Z" id="Shape"></path>
                    <path d="M77.7351536,12.4813387 C76.558234,12.5072484 75.4233466,12.0533125 74.6025663,11.2283562 C72.9248155,9.49157591 72.9248155,6.7767811 74.6025663,5.0400008 C75.4233466,4.21504453 76.558234,3.76110856 77.7351536,3.78701832 C78.5145481,3.7794634 79.2814337,3.97878835 79.9540696,4.36374753 C80.6012314,4.7279076 81.1283852,5.26536567 81.4733744,5.9127503 L79.6199269,6.98199604 C79.4555841,6.64453018 79.1908048,6.36345685 78.8602745,6.17559592 C78.5152029,5.97599777 78.1203974,5.87355028 77.7194906,5.87957562 C77.1180151,5.86120599 76.5363489,6.09087307 76.1166501,6.5124466 C75.6891047,6.94612418 75.4601481,7.53099804 75.4823012,8.13290256 C75.4617166,8.73000659 75.6907543,9.3095594 76.1166501,9.73804711 C76.536081,10.1602905 77.1176799,10.390857 77.7194906,10.37347 C78.1252149,10.3799342 78.5253471,10.2803844 78.8785479,10.0851054 C79.2096734,9.90144438 79.4749102,9.62255839 79.6382003,9.28636097 L81.5047003,10.3402953 C81.1411336,10.9865652 80.6052829,11.524499 79.9540696,11.8969538 C79.283046,12.2865143 78.5155527,12.4886453 77.7351536,12.4813387 Z" id="Path"></path>
                    <path d="M84.4728267,9.00565206 C84.7599806,10.0400218 85.5431274,10.5563561 86.8222672,10.5546548 C87.5463512,10.5986718 88.2459273,10.2901641 88.6913776,9.73039142 L90.4273531,10.7179764 C89.6041787,11.8952525 88.3920415,12.48304 86.7909413,12.4813424 C85.4126029,12.4813424 84.3057554,12.0696323 83.4703988,11.2462195 C81.8137716,9.49277847 81.8069647,6.79119048 83.4547359,5.0297932 C84.2854717,4.19851288 85.4357605,3.74742752 86.62387,3.78701832 C87.77132,3.75591276 88.87612,4.21305226 89.6520377,5.0400008 C90.4496921,5.87785731 90.8782058,6.9888027 90.8450314,8.13290256 C90.8429832,8.42562958 90.8150338,8.71763468 90.7614957,9.00565206 L84.4728267,9.00565206 Z M84.4388904,7.35967712 L88.6939881,7.35967712 C88.6109277,6.86420912 88.3396319,6.41764101 87.9343357,6.10924654 C87.5566658,5.83693542 87.0983433,5.69266791 86.629091,5.69839078 C86.1142753,5.67858438 85.608185,5.83268109 85.1959323,6.13476553 C84.8039914,6.44325823 84.5359182,6.87700681 84.4388904,7.35967712 L84.4388904,7.35967712 Z" id="Shape"></path>
                </g>
                <path d="M30.2947296,11.588843 C28.1750122,6.99542459 21.7740921,2.60360617 13.8486463,5.43111042 C12.1674911,0.735616005 7.86801507,-2.16078952 3.7695467,2.01156557 C2.464302,3.33344933 -0.425509773,9.36103509 3.07515652,17.1188085 C4.5344201,20.3520647 7.15274098,23.0290069 10.2409499,24.8051287 C5.81094942,21.0181104 4.45088444,17.182606 3.66773762,13.7809244 C2.7357929,9.73361237 4.07497396,3.46614808 7.27804447,2.65464416 C8.73730805,2.28717068 10.5515982,4.16536845 11.3190821,6.53097895 C8.12906401,8.20502478 6.12942913,10.6956783 5.80572844,13.9493497 C5.30451448,18.9791429 12.2849632,21.2988193 14.4856057,14.4393144 C15.1147337,12.4794558 15.0729658,9.83313643 14.5143211,7.52621961 C18.3411356,6.12335896 22.6550309,7.08726147 25.4783766,9.97604279 C30.3860967,15.1385347 28.4308401,20.673604 25.885613,23.8583741 C23.1744192,27.2642262 18.9048479,29.1247534 14.5012687,28.819266 C6.62020114,28.2323292 1.10684751,20.6200141 -1.77635684e-13,15.9500387 C0.751820949,22.0490776 8.45798568,33.2136363 20.3774803,30.0799042 C28.0366562,28.0715596 33.7849539,19.1883987 30.2947296,11.588843 Z M10.475894,15.9806615 C9.15759684,16.6339476 8.23870457,15.5672538 8.19954723,14.3576536 C8.12906401,11.9843874 9.98512198,10.0194251 11.9064422,8.79451349 C12.2170904,10.3435163 12.6608736,14.8961043 10.475894,15.9806615 L10.475894,15.9806615 Z" id="Shape"></path>
            </g>
        </g>
    </g>
</svg>