<?xml version="1.0" encoding="UTF-8"?>
<svg width="78px" height="78px" viewBox="0 0 78 78" version="1.1" xmlns="http://www.w3.org/2000/svg" xmlns:xlink="http://www.w3.org/1999/xlink">
    <!-- Generator: sketchtool 58 (101010) - https://sketch.com -->
    <title>92266901-5A75-4035-A9F7-A8C3A5B1A4A7</title>
    <desc>Created with sketchtool.</desc>
    <g id="👽-GBV-Client" stroke="none" stroke-width="1" fill="none" fill-rule="evenodd">
        <g id="BGV-pdf-report_1" transform="translate(-430.000000, -56.000000)" fill="#000000" fill-rule="nonzero">
            <g id="betterplace-logo_vertical" transform="translate(394.000000, 56.000000)">
                <g id="manual_kern" transform="translate(36.103152, 0.000000)">
                    <path d="M74.8280802,29.6991404 C69.5974212,18.0687679 53.7679083,6.99713467 34.2206304,14.1446991 C30.0859599,2.27793696 19.4484241,-5.03724928 9.32664756,5.50573066 C6.13323782,8.84097421 -1.03151862,24.0730659 7.60744986,43.6676218 C11.2091691,51.8338109 17.6776504,58.5988539 25.3022923,63.0859599 C14.3638968,53.5186246 11.0028653,43.8395415 9.0730659,35.243553 C6.77793696,25.0229226 10.0830946,9.18911175 17.991404,7.13467049 C21.5931232,6.20630372 26.0759312,10.9512894 27.9756447,16.9297994 C20.0974212,21.1590258 15.1590258,27.4512894 14.3595989,35.6733524 C13.1217765,48.3782235 30.3567335,54.2406877 35.7936963,36.9111748 C37.3452722,31.9598854 37.2421203,25.2765043 35.8667622,19.4441261 C45.3250452,15.8885548 55.9925347,18.3245182 62.969914,25.6332378 C75.0859599,38.6733524 70.2765043,52.6547278 63.9713467,60.7005731 C57.2801779,69.3099389 46.7343868,74.0129007 35.8581662,73.2378223 C16.3968481,71.7550143 2.76361032,52.525788 0.0429799427,40.7234957 C1.89971347,56.1318052 20.9312321,84.3352436 50.3681948,76.4226361 C69.2492837,71.3467049 83.4455587,48.8939828 74.8280802,29.6991404 Z M25.8825215,40.7922636 C22.6289398,42.4469914 20.3553009,39.747851 20.265043,36.6919771 C20.0888252,30.7005731 24.6704871,25.7621777 29.4154728,22.6418338 C30.1848138,26.5530086 31.2808023,38.0544413 25.8825215,40.7922636 Z" id="logo"></path>
                </g>
            </g>
        </g>
    </g>
</svg>