<?xml version="1.0" encoding="UTF-8"?>
<svg width="40px" height="40px" viewBox="0 0 40 40" version="1.1" xmlns="http://www.w3.org/2000/svg" xmlns:xlink="http://www.w3.org/1999/xlink">
    <!-- Generator: sketchtool 57.1 (101010) - https://sketch.com -->
    <title>B1C548B5-F4AA-4961-B81E-E57605F0EF3A</title>
    <desc>Created with sketchtool.</desc>
    <defs>
        <rect id="path-1" x="0" y="0" width="40" height="40" rx="19.5"></rect>
        <path d="M9.95102347,14 L11.2954835,15.3444601 L4.91833097,21.7216127 C4.54703573,22.0927958 3.94516612,22.0927958 3.57387089,21.7216127 L3.57387089,21.7216127 L1,19.1477418 L2.34446008,17.8032817 L4.24610093,19.7049225 L9.95102347,14 Z M11.9230769,18 L22.0769231,18 C22.5867244,18 23,18.4477153 23,19 C23,19.5128358 22.6436552,19.9355072 22.1845733,19.9932723 L22.0769231,20 L11.9230769,20 C11.4132756,20 11,19.5522847 11,19 C11,18.4871642 11.3563448,18.0644928 11.8154267,18.0067277 L11.9230769,18 L22.0769231,18 Z M9.70713157,3.29289345 C10.0631935,3.64895541 10.095201,4.2077865 9.79994645,4.60027026 L9.71931299,4.69471202 L7.42631299,6.98771202 L9.71931299,9.28071202 C10.0982852,9.67309091 10.0928654,10.2967968 9.70713157,10.6825306 C9.3510696,11.0385926 8.79223851,11.0706 8.39975475,10.7753455 L8.30531299,10.694712 L6.01231299,8.40171202 L3.71931299,10.694712 C3.46823852,10.9546686 3.0964351,11.0589246 2.74680567,10.9674092 C2.39717624,10.8758937 2.12413128,10.6028488 2.03261584,10.2532193 C1.95126878,9.94243763 2.02460534,9.61413572 2.22448245,9.36867893 L2.30531299,9.28071202 L4.59831299,6.98771202 L2.30531299,4.69471202 C1.92634078,4.30233313 1.93176062,3.67862724 2.31749442,3.29289345 C2.67355639,2.93683148 3.23238747,2.90482401 3.62487123,3.20007857 L3.71931299,3.28071202 L6.01231299,5.57371202 L8.30531299,3.28071202 C8.69769188,2.90173981 9.32139777,2.90715965 9.70713157,3.29289345 Z M22.0769231,6 C22.5867244,6 23,6.44771525 23,7 C23,7.51283584 22.6436552,7.93550716 22.1845733,7.99327227 L22.0769231,8 L11.9230769,8 C11.4132756,8 11,7.55228475 11,7 C11,6.48716416 11.3563448,6.06449284 11.8154267,6.00672773 L11.9230769,6 L22.0769231,6 Z" id="path-3"></path>
    </defs>
    <g id="BGV-configuration" stroke="none" stroke-width="1" fill="none" fill-rule="evenodd">
        <g id="bgv-configuration-3_TAT-mapping" transform="translate(-160.000000, -64.000000)">
            <g id="section-title" transform="translate(160.000000, 64.000000)">
                <g id="icon-/-40-/-info-/-address">
                    <g id="icon-/-40-/-info-/-container">
                        <mask id="mask-2" fill="white">
                            <use xlink:href="#path-1"></use>
                        </mask>
                        <use fill="#0059B2" xlink:href="#path-1"></use>
                    </g>
                    <g id="icon-/-24-/-info-/-form" transform="translate(8.000000, 8.000000)">
                        <mask id="mask-4" fill="white">
                            <use xlink:href="#path-3"></use>
                        </mask>
                        <use id="Combined-Shape" fill="#000000" fill-rule="nonzero" xlink:href="#path-3"></use>
                        <rect id="Rectangle" fill="#FFFFFF" mask="url(#mask-4)" x="0" y="0" width="24" height="24"></rect>
                    </g>
                </g>
            </g>
        </g>
    </g>
</svg>