<?xml version="1.0" encoding="UTF-8"?>
<svg width="46px" height="46px" viewBox="0 0 46 46" version="1.1" xmlns="http://www.w3.org/2000/svg" xmlns:xlink="http://www.w3.org/1999/xlink">
    <!-- Generator: sketchtool 62 (101010) - https://sketch.com -->
    <title>6140824D-CB2C-4D2A-8A2A-FA1E3ECC261E</title>
    <desc>Created with sketchtool.</desc>
    <g id="📤-excel-uploade" stroke="none" stroke-width="1" fill="none" fill-rule="evenodd">
        <g id="excel-uploade_updated_09" transform="translate(-240.000000, -1103.000000)" fill-rule="nonzero">
            <g id="Group-2" transform="translate(160.000000, 128.000000)">
                <g id="Group-6" transform="translate(40.000000, 40.000000)">
                    <g id="Group-4" transform="translate(40.000000, 933.000000)">
                        <g id="info-icon" transform="translate(0.000000, 2.000000)">
                            <g id="c-warning">
                                <circle id="Oval" fill="#111111" cx="23" cy="34" r="1"></circle>
                                <path d="M23,46 C35.7025492,46 46,35.7025492 46,23 C46,10.2974508 35.7025492,0 23,0 C10.2974508,0 0,10.2974508 0,23 C0,35.7025492 10.2974508,46 23,46 Z M23,44 C11.4020203,44 2,34.5979797 2,23 C2,11.4020203 11.4020203,2 23,2 C34.5979797,2 44,11.4020203 44,23 C44,34.5979797 34.5979797,44 23,44 Z" id="Oval" fill="#FF002A"></path>
                                <polygon id="Path" fill="#FF002A" points="24 10 22 10 22 28 24 28"></polygon>
                                <path d="M23,36 C24.1045695,36 25,35.1045695 25,34 C25,32.8954305 24.1045695,32 23,32 C21.8954305,32 21,32.8954305 21,34 C21,35.1045695 21.8954305,36 23,36 Z" id="Oval" fill="#FF002A"></path>
                            </g>
                        </g>
                    </g>
                </g>
            </g>
        </g>
    </g>
</svg>