<?xml version="1.0" encoding="UTF-8"?>
<svg width="40px" height="40px" viewBox="0 0 40 40" version="1.1" xmlns="http://www.w3.org/2000/svg" xmlns:xlink="http://www.w3.org/1999/xlink">
    <title>3634E9E5-7ABF-4341-A00E-6A3FB2962135</title>
    <defs>
        <path d="M12.1968857,14.4235745 L13.1797286,15.4634884 L13.3333599,15.6159215 C13.9107595,16.152774 14.6398893,16.4454052 15.4151143,16.4454052 C16.0825286,16.4454052 16.6950857,16.2228936 17.2071,15.850469 L17.2071,15.850469 L17.2071,20.3148936 C17.2071,20.8469352 16.7956714,21.2822544 16.2928286,21.2822544 L16.2928286,21.2822544 L1.66427143,21.2822544 C1.16142857,21.2822544 0.75,20.8469352 0.75,20.3148936 L0.75,20.3148936 L0.75,15.8504237 C1.26197143,16.2228483 1.87911429,16.4453598 2.54198571,16.4453598 C3.38772857,16.4453598 4.17857143,16.0971045 4.76828571,15.4634884 L4.76828571,15.4634884 L5.75571429,14.4235745 L6.7386,15.4634884 C7.93174286,16.725914 10.0163143,16.725914 11.2094571,15.4634884 L11.2094571,15.4634884 L12.1968857,14.4235745 Z M9.89284286,6.77161609 L9.89284286,8.70638298 L14.4642857,8.70638298 L14.6312002,8.71168646 C16.0668574,8.80317257 17.207481,10.0667855 17.2162714,11.6085106 L17.2162714,11.6085106 L17.2162714,13.0934024 C17.2162714,14.1381684 16.4117143,14.989444 15.4242857,14.989444 C14.9442857,14.989444 14.4962571,14.7911017 14.1579857,14.4331878 L14.1579857,14.4331878 L12.2059714,12.3726771 L10.2494143,14.4331878 C9.57287143,15.149061 8.39344286,15.149061 7.71685714,14.4331878 L7.71685714,14.4331878 L5.76484286,12.3726771 L3.80828571,14.4380398 C3.46997143,14.7959991 3.02198571,14.994296 2.54198571,14.994296 C1.55455714,14.994296 0.75,14.1430203 0.75,13.0982544 L0.75,13.0982544 L0.75,11.6085106 C0.75,10.0074884 1.9797,8.70638298 3.49285714,8.70638298 L3.49285714,8.70638298 L8.06425714,8.70638298 L8.06425714,6.77161609 L9.89284286,6.77161609 Z M8.97857143,-5.32907052e-15 L10.5465857,2.87310638 C10.7111571,3.16331915 10.8071571,3.50672247 10.8071571,3.86948843 C10.8071571,4.93846902 9.98884286,5.80425532 8.97857143,5.80425532 C7.9683,5.80425532 7.14998571,4.93846902 7.14998571,3.86948843 C7.14998571,3.50672247 7.24598571,3.16331915 7.41055714,2.87310638 L7.41055714,2.87310638 L8.97857143,-5.32907052e-15 Z" id="path-1"></path>
    </defs>
    <g id="profille_view-mode" stroke="none" stroke-width="1" fill="none" fill-rule="evenodd">
        <g id="attendance-_profile_04" transform="translate(-473.000000, -2407.000000)">
            <g id="Group-29" transform="translate(160.000000, 446.000000)">
                <g id="section-copy" transform="translate(40.000000, 1882.000000)">
                    <g id="references_father_info" transform="translate(0.000000, 46.000000)">
                        <g id="father" transform="translate(273.000000, 33.000000)">
                            <circle id="Oval" fill="#E5EEF7" opacity="0.5" cx="20" cy="20" r="20"></circle>
                            <g id="icon-/-24-/-info-/-birthday_cake" transform="translate(11.000000, 9.000000)">
                                <mask id="mask-2" fill="white">
                                    <use xlink:href="#path-1"></use>
                                </mask>
                                <use id="Combined-Shape" fill="#3F47F4" fill-rule="nonzero" xlink:href="#path-1"></use>
                                <rect id="Rectangle" fill="#0059B2" mask="url(#mask-2)" x="-2" y="0" width="22" height="22"></rect>
                            </g>
                        </g>
                    </g>
                </g>
            </g>
        </g>
    </g>
</svg>