<?xml version="1.0" encoding="UTF-8"?>
<svg width="40px" height="40px" viewBox="0 0 40 40" version="1.1" xmlns="http://www.w3.org/2000/svg" xmlns:xlink="http://www.w3.org/1999/xlink">
    <title>D6D3987C-A6A3-48B2-937B-5B0210FB39FD</title>
    <g id="profille_view-mode" stroke="none" stroke-width="1" fill="none" fill-rule="evenodd">
        <g id="attendance-_profile_04" transform="translate(-744.000000, -2653.000000)">
            <g id="Group-29" transform="translate(160.000000, 446.000000)">
                <g id="section-copy" transform="translate(40.000000, 1882.000000)">
                    <g id="10th_class" transform="translate(0.000000, 325.000000)">
                        <g id="mother" transform="translate(544.000000, 0.000000)">
                            <circle id="Oval" fill="#E5EEF7" opacity="0.5" cx="20" cy="20" r="20"></circle>
                            <g id="blood_group_icon" transform="translate(11.000000, 11.000000)">
                                <rect id="Rectangle" fill-opacity="0" fill="#D8D8D8" x="0" y="0" width="18" height="18"></rect>
                                <g id="blood-drop" transform="translate(2.482759, 0.000000)">
                                    <path d="M6.80208317,16.4347763 C3.94779128,16.4345806 1.61709481,14.1719815 1.60653214,11.3910217 L3.213103,11.3910217 C3.22362551,13.3094688 4.83240529,14.8694421 6.80208317,14.8695595 L6.82758621,14.8695595 L6.82758621,0 C6.82758621,0 2.52809543,5.68654999 1.35965471,7.39678411 C0.567373737,8.55649236 -0.00562127325,9.8962788 0,11.3967739 C0.013937749,15.0571116 3.07072777,18.0134539 6.82758621,18 L6.82758621,16.4347763 L6.80208317,16.4347763 Z" id="Path" fill="#0059B2"></path>
                                    <path d="M6.46889224,14.9073383 C4.60475171,14.9072227 3.08217199,13.3714858 3.07221329,11.4827586 L1.55172414,11.4827586 C1.56172085,14.2205424 3.76753622,16.4480832 6.46889224,16.4482759 L6.51724138,16.4482759 L6.51724138,14.9073383 L6.46889224,14.9073383 Z" id="Path" fill="#FFFFFF" fill-rule="nonzero"></path>
                                    <path d="M11.9851729,7.39678411 C11.1426489,6.16358893 6.51724138,0 6.51724138,0 L6.51724138,18 C10.2740998,18.0134539 13.33093,15.0571116 13.3448276,11.3967739 C13.3504489,9.8962788 12.7774538,8.55649236 11.9851729,7.39678411 Z" id="Path" fill="#0059B2"></path>
                                </g>
                            </g>
                        </g>
                    </g>
                </g>
            </g>
        </g>
    </g>
</svg>