<?xml version="1.0" encoding="UTF-8"?>
<svg width="36px" height="36px" viewBox="0 0 36 36" version="1.1" xmlns="http://www.w3.org/2000/svg" xmlns:xlink="http://www.w3.org/1999/xlink">
    <title>Group 21</title>
    <g id="profile-view-mode" stroke="none" stroke-width="1" fill="none" fill-rule="evenodd">
        <g id="profile-view_mode_updated-2" transform="translate(-471.000000, -1151.000000)">
            <g id="Group-29" transform="translate(157.000000, 877.000000)">
                <g id="Group-27" transform="translate(43.000000, 178.000000)">
                    <g id="Group-23" transform="translate(271.000000, 92.000000)">
                        <g id="Group-21" transform="translate(0.000000, 4.000000)">
                            <circle id="Oval" fill="#E5EEF7" cx="18" cy="18" r="18"></circle>
                            <circle id="Oval" fill="#0059B2" cx="18.1404454" cy="12.9777643" r="3.81339391"></circle>
                            <path d="M13.2750808,26.5876357 C15.7406372,26.6862579 20.5731277,26.6862579 23.00581,26.5876357 C23.7947881,26.5547616 24.3865216,25.8644058 24.2878994,25.0754278 L23.9262844,21.3935302 C23.6961658,19.5854555 22.3483283,18.1389957 20.6388759,17.7116326 L18.9294234,21.9852637 L18.5678085,18.8950997 L18.8308012,18.8950997 C18.9951716,18.8950997 19.0937939,18.7636034 19.0937939,18.632107 L19.0937939,17.8102549 C19.0937939,17.6458845 18.9622975,17.5472622 18.8308012,17.5472622 L17.4829637,17.5472622 C17.3185933,17.5472622 17.219971,17.6787585 17.219971,17.8102549 L17.219971,18.632107 C17.219971,18.7964775 17.3514673,18.8950997 17.4829637,18.8950997 L17.7459564,18.8950997 L17.3514673,21.9852637 L15.6420149,17.7116326 C13.9325625,18.1389957 12.584725,19.5525814 12.3546064,21.3606561 L11.9929914,25.0425537 C11.8943692,25.8644058 12.4861027,26.5547616 13.2750808,26.5876357 Z" id="Path" fill="#0059B2"></path>
                        </g>
                    </g>
                </g>
            </g>
        </g>
    </g>
</svg>