<?xml version="1.0" encoding="UTF-8"?>
<svg width="16px" height="16px" viewBox="0 0 16 16" version="1.1" xmlns="http://www.w3.org/2000/svg" xmlns:xlink="http://www.w3.org/1999/xlink">
    <title>icon / 24 / info / generic search</title>
    <defs>
        <path d="M6.66666667,0.666666667 C9.98037517,0.666666667 12.6666667,3.35295817 12.6666667,6.66666667 C12.6666667,8.08306836 12.1758747,9.38483945 11.3550762,10.4111947 L15.1380712,14.1952621 C15.3984207,14.4556117 15.3984207,14.8777217 15.1380712,15.1380712 C14.8777217,15.3984207 14.4556117,15.3984207 14.1952621,15.1380712 L14.1952621,15.1380712 L10.4111947,11.3550762 C9.38483945,12.1758747 8.08306836,12.6666667 6.66666667,12.6666667 C3.35295817,12.6666667 0.666666667,9.98037517 0.666666667,6.66666667 C0.666666667,3.35295817 3.35295817,0.666666667 6.66666667,0.666666667 Z M6.66666667,2 C4.08933783,2 2,4.08933783 2,6.66666667 C2,9.2439955 4.08933783,11.3333333 6.66666667,11.3333333 C9.2439955,11.3333333 11.3333333,9.2439955 11.3333333,6.66666667 C11.3333333,4.08933783 9.2439955,2 6.66666667,2 Z" id="path-1"></path>
    </defs>
    <g id="🖥-Ops_analyst-" stroke="none" stroke-width="1" fill="none" fill-rule="evenodd">
        <g id="task-search-by-profile" transform="translate(-168.000000, -245.000000)">
            <g id="Group-7" transform="translate(160.000000, 237.000000)">
                <g id="icon-/-24-/-info-/-generic-search" transform="translate(8.000000, 8.000000)">
                    <mask id="mask-2" fill="white">
                        <use xlink:href="#path-1"></use>
                    </mask>
                    <use id="Combined-Shape" fill="#7892B8" fill-rule="nonzero" xlink:href="#path-1"></use>
                    <rect id="Rectangle" fill="#0059B2" mask="url(#mask-2)" x="0" y="0" width="16" height="16"></rect>
                </g>
            </g>
        </g>
    </g>
</svg>