<?xml version="1.0" encoding="UTF-8"?>
<svg width="16px" height="16px" viewBox="0 0 16 16" version="1.1" xmlns="http://www.w3.org/2000/svg" xmlns:xlink="http://www.w3.org/1999/xlink">
    <!-- Generator: Sketch 59.1 (86144) - https://sketch.com -->
    <title>fev-icon-betterplace-white</title>
    <desc>Created with Sketch.</desc>
    <g id="Page-1" stroke="none" stroke-width="1" fill="none" fill-rule="evenodd">
        <g id="fev-icon-betterplace-white" fill="#FFFFFF" fill-rule="nonzero">
            <path d="M15.2473239,5.96957746 C14.1814085,3.6056338 10.9566197,1.35211268 6.96788732,2.79887324 C6.1228169,0.378591549 3.9571831,-1.11323944 1.89295775,1.03661972 C1.24169014,1.7171831 -0.225352113,4.82253521 1.54366197,8.81802817 C2.30565402,10.4799508 3.56574535,11.8636886 5.14929577,12.7774648 C2.92957746,10.8169014 2.23549296,8.85183099 1.84112676,7.09859155 C1.37239437,5.01408451 2.04619718,1.78478873 3.65971831,1.36788732 C4.3943662,1.17859155 5.30704225,2.14535211 5.68788732,3.36450704 C4.08112676,4.22535211 3.07605634,5.50985915 2.9115493,7.19549296 C2.66591549,9.77577465 6.18140845,10.9723944 7.29014085,7.43661972 C7.6056338,6.42704225 7.58535211,5.06366197 7.30366197,3.87380282 C9.2320577,3.14987383 11.4063729,3.64645478 12.8292958,5.13577465 C15.308169,7.79492958 14.3166197,10.6456338 13.0343662,12.2861972 C11.6712798,14.0427063 9.52148162,15.0030566 7.30366197,14.8461972 C3.33521127,14.5419718 0.558873239,10.6230986 0,8.21633803 C0.378591549,11.3577465 4.25915493,17.1087324 10.2602817,15.4952113 C14.1115493,14.4585915 17.0073239,9.88394366 15.2473239,5.96957746 Z M5.26873239,8.22309859 C4.60394366,8.55887324 4.14197183,7.99774648 4.12394366,7.38704225 C4.08788732,6.1656338 5.02535211,5.15830986 5.98985915,4.52056338 C6.14535211,5.32732394 6.3684507,7.67323944 5.26873239,8.23211268 L5.26873239,8.22309859 Z" id="logo"></path>
        </g>
    </g>
</svg>