<?xml version="1.0" encoding="UTF-8"?>
<svg width="16px" height="16px" viewBox="0 0 16 16" version="1.1" xmlns="http://www.w3.org/2000/svg" xmlns:xlink="http://www.w3.org/1999/xlink">
    <!-- Generator: sketchtool 57.1 (101010) - https://sketch.com -->
    <title>02BBAD22-B1C8-447E-A59D-14FE6D4EEE95</title>
    <desc>Created with sketchtool.</desc>
    <defs>
        <path d="M8.2685973,0.131844528 C8.43761545,0.00603303682 8.65616136,-0.0324717013 8.858,0.0280000005 L8.858,0.0280000005 L15.5246667,2.02800004 C15.8067889,2.11252503 16,2.37215455 16,2.66666672 L16,2.66666672 L16,15.3333336 C16,15.7015235 15.7015232,16.0000003 15.3333333,16.0000003 L15.3333333,16.0000003 L0.666666667,16.0000003 C0.298476833,16.0000003 0,15.7015235 0,15.3333336 L0,15.3333336 L0,8.66666683 C0,8.29847699 0.298476833,8.00000015 0.666666667,8.00000015 L0.666666667,8.00000015 L1.33333333,8.00000015 L1.33333333,14.6666669 L2.66666667,14.6666669 L2.66666667,6.00000011 C2.66666667,5.63181027 2.9651435,5.33333343 3.33333333,5.33333343 L3.33333333,5.33333343 L10,5.33333343 C10.3681898,5.33333343 10.6666667,5.63181027 10.6666667,6.00000011 L10.6666667,6.00000011 L10.6666667,14.6666669 L14.6666667,14.6666669 L14.6666667,3.16266673 L9.33333333,1.5626667 L9.33333333,4.00000007 L8,4.00000007 L8,0.666666679 C7.99998537,0.455963888 8.09957915,0.257656018 8.2685973,0.131844528 Z M8,12.666667 L5.33333333,12.666667 L5.33333333,14.0000003 L8,14.0000003 L8,12.666667 Z M13.3333333,5.33333363 L13.3333333,13.3333336 L12,13.3333336 L12,5.33333363 L13.3333333,5.33333363 Z M8,10.0000003 L5.33333333,10.0000003 L5.33333333,11.3333336 L8,11.3333336 L8,10.0000003 Z M8,7.33333363 L5.33333333,7.33333363 L5.33333333,8.66666697 L8,8.66666697 L8,7.33333363 Z" id="path-1"></path>
    </defs>
    <g id="location-&amp;-Site" stroke="none" stroke-width="1" fill="none" fill-rule="evenodd">
        <g id="03-BGV-Client-onboarding_location-&amp;-site_D1" transform="translate(-817.000000, -640.000000)">
            <g id="add-section" transform="translate(805.000000, 174.000000)">
                <g id="cta" transform="translate(0.000000, 347.000000)">
                    <g id="Group-2">
                        <g id="text-input-/-small-/--add-fun-role" transform="translate(12.000000, 63.000000)">
                            <g id="add-group" transform="translate(0.000000, 56.000000)">
                                <g id="building">
                                    <mask id="mask-2" fill="white">
                                        <use xlink:href="#path-1"></use>
                                    </mask>
                                    <use id="Combined-Shape" fill="#0059B2" fill-rule="nonzero" xlink:href="#path-1"></use>
                                    <rect id="Rectangle" fill="#9A5A1E" mask="url(#mask-2)" x="0" y="0" width="16" height="16"></rect>
                                </g>
                            </g>
                        </g>
                    </g>
                </g>
            </g>
        </g>
    </g>
</svg>