<?xml version="1.0" encoding="UTF-8"?>
<svg width="36px" height="36px" viewBox="0 0 36 36" version="1.1" xmlns="http://www.w3.org/2000/svg" xmlns:xlink="http://www.w3.org/1999/xlink">
    <title>father</title>
    <defs>
        <path d="M8.2685973,0.131844525 C8.43761545,0.00603303671 8.65616136,-0.0324717007 8.858,0.028 L8.858,0.028 L15.5246667,2.028 C15.8067889,2.11252499 16,2.3721545 16,2.66666667 L16,2.66666667 L16,15.3333333 C16,15.7015232 15.7015232,16 15.3333333,16 L15.3333333,16 L0.666666667,16 C0.298476833,16 0,15.7015232 0,15.3333333 L0,15.3333333 L0,8.66666667 C0,8.29847683 0.298476833,8 0.666666667,8 L0.666666667,8 L1.33333333,8 L1.33333333,14.6666667 L2.66666667,14.6666667 L2.66666667,6 C2.66666667,5.63181017 2.9651435,5.33333333 3.33333333,5.33333333 L3.33333333,5.33333333 L10,5.33333333 C10.3681898,5.33333333 10.6666667,5.63181017 10.6666667,6 L10.6666667,6 L10.6666667,14.6666667 L14.6666667,14.6666667 L14.6666667,3.16266667 L9.33333333,1.56266667 L9.33333333,4 L8,4 L8,0.666666667 C7.99998537,0.455963879 8.09957915,0.257656014 8.2685973,0.131844525 Z M8,12.6666667 L5.33333333,12.6666667 L5.33333333,14 L8,14 L8,12.6666667 Z M13.3333333,5.33333333 L13.3333333,13.3333333 L12,13.3333333 L12,5.33333333 L13.3333333,5.33333333 Z M8,10 L5.33333333,10 L5.33333333,11.3333333 L8,11.3333333 L8,10 Z M8,7.33333333 L5.33333333,7.33333333 L5.33333333,8.66666667 L8,8.66666667 L8,7.33333333 Z" id="path-1"></path>
    </defs>
    <g id="profile-view-mode" stroke="none" stroke-width="1" fill="none" fill-rule="evenodd">
        <g id="profile-view_mode_updated-1" transform="translate(-200.000000, -1066.000000)">
            <g id="Group-29" transform="translate(157.000000, 877.000000)">
                <g id="Group-27" transform="translate(43.000000, 178.000000)">
                    <g id="Group-25" transform="translate(0.000000, 7.000000)">
                        <g id="father" transform="translate(0.000000, 4.000000)">
                            <g id="Group-32">
                                <circle id="Oval" fill="#F3F7FD" cx="18" cy="18" r="18"></circle>
                                <rect id="Rectangle" fill="#F5F5F4" fill-rule="nonzero" opacity="0" x="6" y="6" width="24" height="24" rx="2"></rect>
                                <g id="icon-/-12-/-info-/-security" transform="translate(10.000000, 10.000000)">
                                    <mask id="mask-2" fill="white">
                                        <use xlink:href="#path-1"></use>
                                    </mask>
                                    <use id="Combined-Shape" fill="#3F47F4" fill-rule="nonzero" xlink:href="#path-1"></use>
                                    <rect id="Rectangle" fill="#0059B2" mask="url(#mask-2)" x="0" y="0" width="16" height="16"></rect>
                                </g>
                            </g>
                            <g id="email" transform="translate(6.000000, 6.000000)"></g>
                        </g>
                    </g>
                </g>
            </g>
        </g>
    </g>
</svg>