<?xml version="1.0" encoding="UTF-8"?>
<svg width="32px" height="32px" viewBox="0 0 32 32" version="1.1" xmlns="http://www.w3.org/2000/svg" xmlns:xlink="http://www.w3.org/1999/xlink">
    <title>ED6FFBFC-7B2C-47DD-B1EF-03CC3FC8740C</title>
    <g id="attendance-configuration" stroke="none" stroke-width="1" fill="none" fill-rule="evenodd">
        <g id="orglevel_configuration_01-copy" transform="translate(-200.000000, -552.000000)">
            <g id="ID-verification" transform="translate(200.000000, 152.000000)">
                <g id="time-tolerance" transform="translate(0.000000, 397.000000)">
                    <g id="icon-/-32-/-info-/-edit-log" transform="translate(0.000000, 3.000000)">
                        <circle id="Oval" fill="#F3F7FD" cx="16" cy="16" r="16"></circle>
                        <g id="icon-/-48-/-info-/-verification-/-pan" transform="translate(4.000000, 4.000000)" fill="#0059B2" fill-rule="nonzero">
                            <g id="Group" transform="translate(4.000000, 4.500000)">
                                <path d="M3.47663551,0 C3.29719626,0 3.14018692,0.157009346 3.14018692,0.336448598 L3.14018692,2.82616822 C3.14018692,3.00560748 3.29719626,3.16261682 3.47663551,3.16261682 L3.94766355,3.16261682 C4.1271028,3.16261682 4.28411215,3.00560748 4.28411215,2.82616822 L4.28411215,0.336448598 C4.28411215,0.157009346 4.1271028,0 3.94766355,0 L3.47663551,0 Z" id="Path"></path>
                                <path d="M12.2242991,0 C12.0448598,0 11.8878505,0.157009346 11.8878505,0.336448598 L11.8878505,2.82616822 C11.8878505,3.00560748 12.0448598,3.16261682 12.2242991,3.16261682 L12.6953271,3.16261682 C12.8747664,3.16261682 13.0317757,3.00560748 13.0317757,2.82616822 L13.0317757,0.336448598 C13.0317757,0.157009346 12.8747664,0 12.6953271,0 L12.2242991,0 Z" id="Path"></path>
                                <path d="M4.1271028,10.317757 L2.62429907,10.317757 C2.42242991,10.317757 2.26542056,10.4747664 2.26542056,10.6766355 L2.26542056,12.1794393 C2.26542056,12.3813084 2.42242991,12.5383178 2.62429907,12.5383178 L4.1271028,12.5383178 C4.32897196,12.5383178 4.48598131,12.3813084 4.48598131,12.1794393 L4.48598131,10.6766355 C4.48598131,10.4747664 4.32897196,10.317757 4.1271028,10.317757 Z" id="Path"></path>
                                <path d="M14.2878505,1.34579439 L13.4579439,1.34579439 L13.4579439,2.80373832 C13.4579439,3.22990654 13.1214953,3.58878505 12.6728972,3.58878505 L12.2018692,3.58878505 C11.7757009,3.58878505 11.4168224,3.25233645 11.4168224,2.80373832 L11.4168224,1.34579439 L4.71028037,1.34579439 L4.71028037,2.80373832 C4.71028037,3.22990654 4.37383178,3.58878505 3.92523364,3.58878505 L3.45420561,3.58878505 C3.02803738,3.58878505 2.66915888,3.25233645 2.66915888,2.80373832 L2.66915888,1.34579439 L1.83925234,1.34579439 C0.942056075,1.34579439 0.201869159,2.08598131 0.201869159,2.98317757 L0.201869159,13.8616822 C0.201869159,14.7588785 0.942056075,15.4990654 1.83925234,15.4990654 L14.2878505,15.4990654 C15.1850467,15.4990654 15.9252336,14.7588785 15.9252336,13.8616822 L15.9252336,2.98317757 C15.9252336,2.08598131 15.1850467,1.34579439 14.2878505,1.34579439 Z M4.93457944,12.2018692 C4.93457944,12.6504673 4.57570093,13.0093458 4.1271028,13.0093458 L2.62429907,13.0093458 C2.17570093,13.0093458 1.81682243,12.6504673 1.81682243,12.2018692 L1.81682243,10.6990654 C1.81682243,10.2504673 2.17570093,9.89158879 2.62429907,9.89158879 L4.1271028,9.89158879 C4.57570093,9.89158879 4.93457944,10.2504673 4.93457944,10.6990654 L4.93457944,12.2018692 Z M4.93457944,7.71588785 C4.93457944,8.16448598 4.57570093,8.52336449 4.1271028,8.52336449 L2.62429907,8.52336449 C2.17570093,8.52336449 1.81682243,8.16448598 1.81682243,7.71588785 L1.81682243,6.21308411 C1.81682243,5.76448598 2.17570093,5.40560748 2.62429907,5.40560748 L4.1271028,5.40560748 C4.57570093,5.40560748 4.93457944,5.76448598 4.93457944,6.21308411 L4.93457944,7.71588785 Z M9.64485981,12.2018692 C9.64485981,12.6504673 9.28598131,13.0093458 8.83738318,13.0093458 L7.33457944,13.0093458 C6.88598131,13.0093458 6.5271028,12.6504673 6.5271028,12.2018692 L6.5271028,10.6990654 C6.5271028,10.2504673 6.88598131,9.89158879 7.33457944,9.89158879 L8.83738318,9.89158879 C9.28598131,9.89158879 9.64485981,10.2504673 9.64485981,10.6990654 L9.64485981,12.2018692 Z M9.64485981,7.71588785 C9.64485981,8.16448598 9.28598131,8.52336449 8.83738318,8.52336449 L7.33457944,8.52336449 C6.88598131,8.52336449 6.5271028,8.16448598 6.5271028,7.71588785 L6.5271028,6.21308411 C6.5271028,5.76448598 6.88598131,5.40560748 7.33457944,5.40560748 L8.83738318,5.40560748 C9.28598131,5.40560748 9.64485981,5.76448598 9.64485981,6.21308411 L9.64485981,7.71588785 Z M14.3551402,12.2018692 C14.3551402,12.6504673 13.9962617,13.0093458 13.5476636,13.0093458 L12.0448598,13.0093458 C11.5962617,13.0093458 11.2373832,12.6504673 11.2373832,12.2018692 L11.2373832,10.6990654 C11.2373832,10.2504673 11.5962617,9.89158879 12.0448598,9.89158879 L13.5476636,9.89158879 C13.9962617,9.89158879 14.3551402,10.2504673 14.3551402,10.6990654 L14.3551402,12.2018692 Z M14.3551402,7.71588785 C14.3551402,8.16448598 13.9962617,8.52336449 13.5476636,8.52336449 L12.0448598,8.52336449 C11.5962617,8.52336449 11.2373832,8.16448598 11.2373832,7.71588785 L11.2373832,6.21308411 C11.2373832,5.76448598 11.5962617,5.40560748 12.0448598,5.40560748 L13.5476636,5.40560748 C13.9962617,5.40560748 14.3551402,5.76448598 14.3551402,6.21308411 L14.3551402,7.71588785 Z" id="Shape"></path>
                                <path d="M13.5476636,5.8317757 L12.0448598,5.8317757 C11.8429907,5.8317757 11.6859813,5.98878505 11.6859813,6.19065421 L11.6859813,7.69345794 C11.6859813,7.8953271 11.8429907,8.05233645 12.0448598,8.05233645 L13.5476636,8.05233645 C13.7495327,8.05233645 13.9065421,7.8953271 13.9065421,7.69345794 L13.9065421,6.19065421 C13.9065421,5.98878505 13.7495327,5.8317757 13.5476636,5.8317757 Z" id="Path"></path>
                            </g>
                        </g>
                    </g>
                </g>
            </g>
        </g>
    </g>
</svg>