<?xml version="1.0" encoding="UTF-8"?>
<svg width="16px" height="16px" viewBox="0 0 16 16" version="1.1" xmlns="http://www.w3.org/2000/svg" xmlns:xlink="http://www.w3.org/1999/xlink">
    <!-- Generator: Sketch 61 (89581) - https://sketch.com -->
    <title>Group 4</title>
    <desc>Created with Sketch.</desc>
    <g id="🖥-Ops_analyst-" stroke="none" stroke-width="1" fill="none" fill-rule="evenodd">
        <g id="postal-verification_06" transform="translate(-318.000000, -311.000000)">
            <g id="Group-9" transform="translate(160.000000, 181.000000)">
                <g id="fedex" transform="translate(0.000000, 44.000000)">
                    <g id="logo" transform="translate(24.000000, 24.000000)">
                        <g id="Group-3" transform="translate(128.000000, 22.000000)">
                            <g id="Group-2" transform="translate(2.000000, 36.000000)">
                                <g id="Group-4">
                                    <rect id="Rectangle" fill="#D8D8D8" opacity="0" x="0" y="0" width="24" height="24"></rect>
                                    <g id="noun_calender_2135538" transform="translate(4.000000, 4.000000)" fill="#8697A8" fill-rule="nonzero">
                                        <path d="M13.6980645,0.939016393 L12.0025806,0.939016393 L12.0025806,0.600655738 C12.0025806,0.31093259 11.7715018,0.0760655738 11.4864516,0.0760655738 C11.2014014,0.0760655738 10.9703226,0.31093259 10.9703226,0.600655738 L10.9703226,0.939016393 L5.07354839,0.939016393 L5.07354839,0.600655738 C5.07354839,0.31093259 4.84246955,0.0760655738 4.55741935,0.0760655738 C4.27236916,0.0760655738 4.04129032,0.31093259 4.04129032,0.600655738 L4.04129032,0.939016393 L2.30193548,0.939016393 C1.03161874,0.939015582 0.00142412191,1.98492478 0,3.27606557 L0,13.6629508 C0.00142412191,14.9540916 1.03161874,16 2.30193548,16 L13.6980645,16 C14.9683813,16 15.9985759,14.9540916 16,13.6629508 L16,3.27606557 C15.9985759,1.98492478 14.9683813,0.939015582 13.6980645,0.939016393 Z M1.03225806,3.27606557 C1.03225806,2.56479525 1.59955661,1.98819405 2.29935484,1.98819405 L4.03870968,1.98819405 L4.03870968,2.32918033 C4.03870968,2.61890348 4.26978852,2.85377049 4.55483871,2.85377049 C4.8398889,2.85377049 5.07096774,2.61890348 5.07096774,2.32918033 L5.07096774,1.98819405 L10.9703226,1.98819405 L10.9703226,2.32918033 C10.9703226,2.61890348 11.2014014,2.85377049 11.4864516,2.85377049 C11.7715018,2.85377049 12.0025806,2.61890348 12.0025806,2.32918033 L12.0025806,1.98819405 L13.6980645,1.98819405 C14.0345664,1.98750014 14.3575208,2.12287836 14.595706,2.36447617 C14.8338911,2.60607397 14.9677419,2.93404658 14.9677419,3.27606557 L14.9677419,5.21180328 L1.03225806,5.21180328 L1.03225806,3.27606557 Z M13.6980645,14.9508223 L2.30193548,14.9508223 C1.96543362,14.9515162 1.64247923,14.816138 1.40429405,14.5745402 C1.16610887,14.3329424 1.03225806,14.0049698 1.03225806,13.6629508 L1.03225806,6.26098361 L14.9677419,6.26098361 L14.9677419,13.6629508 C14.9677419,14.0049698 14.8338911,14.3329424 14.595706,14.5745402 C14.3575208,14.816138 14.0345664,14.9515162 13.6980645,14.9508223 Z" id="Shape"></path>
                                    </g>
                                </g>
                            </g>
                        </g>
                    </g>
                </g>
            </g>
        </g>
    </g>
</svg>