<?xml version="1.0" encoding="UTF-8"?>
<svg width="16px" height="16px" viewBox="0 0 16 16" version="1.1" xmlns="http://www.w3.org/2000/svg" xmlns:xlink="http://www.w3.org/1999/xlink">
    <!-- Generator: sketchtool 56.2 (101010) - https://sketch.com -->
    <title>789B321E-D371-4C79-885A-94D604E27D32</title>
    <desc>Created with sketchtool.</desc>
    <g id="👽-GBV-Client" stroke="none" stroke-width="1" fill="none" fill-rule="evenodd">
        <g id="BGV-Client-zomato-employee-profile" transform="translate(-360.000000, -272.000000)" fill="#8697A8" fill-rule="nonzero">
            <g id="section" transform="translate(160.000000, 80.000000)">
                <g id="profile-info" transform="translate(200.000000, 40.000000)">
                    <g id="car-owner" transform="translate(0.000000, 152.000000)">
                        <g id="criminal-front-standing-with-two-suitcases-covered-by-hat-and-coat-with-a-car-behind">
                            <path d="M2.05894737,2.10183178 L5.2237193,2.10183178 C5.11438596,2.80403738 4.59873684,3.38691589 3.90273684,3.50893458 C3.02877193,3.66220561 2.20364912,3.0322243 2.05894737,2.10183178 Z M1.0885614,1.97308411 L6.19382456,1.97308411 C6.26568421,1.97308411 6.32407018,1.91102804 6.32407018,1.83446729 C6.32407018,1.75775701 6.26568421,1.69585047 6.19382456,1.69585047 L5.34315789,1.69585047 L5.34315789,1.01308411 C5.34315789,0.400598131 5.10301754,0.0847850467 4.52785965,0.0847850467 L2.79803509,0.0847850467 C2.22287719,0.0847850467 2.03957895,0.400598131 2.03957895,1.01308411 L2.03957895,1.69585047 L1.08870175,1.69585047 C1.01684211,1.69585047 0.958736588,1.75775701 0.958736588,1.83446729 C0.958596491,1.9108785 1.01670175,1.97308411 1.0885614,1.97308411 Z M6.57431579,10.4511402 L6.85585965,10.4511402 L6.85585965,14.068486 L6.00912281,14.068486 L6.00912281,10.4511402 L6.31592982,10.4511402 L6.31592982,10.2198131 C6.13249123,10.1917009 5.9762807,10.0518879 5.92589474,9.85614953 L5.65585965,8.81181308 C5.88996491,11.037757 5.8877193,13.3073645 5.8877193,13.3073645 L5.01080702,13.3073645 C5.00336842,14.4506916 4.99733333,15.4244486 4.99733333,15.4244486 C4.99564912,15.7262056 4.76435088,15.9691963 4.48084211,15.9669533 C4.216,15.9650093 3.99887719,15.7465421 3.97403509,15.4717009 C3.97403509,15.4717009 3.88575439,14.4696822 3.78357895,13.3070654 L3.70189474,13.3070654 L3.51635088,11.003514 L3.46540351,13.3070654 L3.30119298,13.3070654 C3.19887719,14.4695327 3.11101754,15.4717009 3.11101754,15.4717009 C3.08463158,15.7722617 2.83466667,15.9926729 2.5525614,15.9647103 C2.2885614,15.9380935 2.09010526,15.7006355 2.0874386,15.4244486 C2.0874386,15.4244486 2.08112281,14.4503925 2.07396491,13.3073645 L1.01235088,13.3073645 C0.974736842,12.6234019 1.16336842,10.5260561 1.34708772,8.72149533 L1.07957895,9.75536449 C1.01712281,9.99895327 0.792,10.1592523 0.552140351,10.1203738 C0.535438596,10.1176822 0.519859649,10.1118505 0.503578947,10.107215 L0.503578947,10.4506916 L0.846736842,10.4506916 L0.846736842,13.117757 L0,13.117757 L0,10.4511402 L0.24477193,10.4511402 L0.24477193,9.92508411 L0.245333333,9.92508411 C0.170807018,9.82056075 0.134877193,9.68553271 0.154666667,9.54601869 L0.517614035,6.99813084 C0.520561404,6.97719626 0.526175439,6.95461682 0.532912281,6.93398131 L0.535719298,6.9271028 L0.590596491,6.77143925 L0.633964912,6.65585047 L0.722807018,6.42841121 C0.784,6.27753271 0.847859649,6.1284486 0.915508772,5.97966355 C1.05094737,5.68299065 1.2,5.38915888 1.3765614,5.09771963 C1.55550877,4.80717757 1.75354386,4.51648598 2.04378947,4.23820561 C2.06708772,4.21652336 2.09178947,4.19514019 2.11649123,4.17345794 L1.72589474,3.01099065 L1.99915789,3.11327103 L1.99887719,3.11147664 L3.40954386,3.63798131 L3.40870175,3.72650467 C3.44870175,3.72336449 3.48898246,3.7202243 3.52954386,3.7202243 C3.53178947,3.7202243 3.53389474,3.7202243 3.53614035,3.7202243 C3.65094737,3.7206729 3.76252632,3.73502804 3.87031579,3.76074766 L3.86863158,3.63798131 L5.27985965,3.11147664 L4.88898246,4.27409346 C4.91340351,4.29562617 4.93866667,4.31700935 4.96168421,4.33869159 C5.25192982,4.61697196 5.45010526,4.90796262 5.62919298,5.19850467 C5.80575439,5.48964486 5.95452632,5.78347664 6.09024561,6.0804486 C6.15761404,6.22908411 6.22189474,6.37816822 6.28266667,6.5288972 L6.37178947,6.75648598 L6.41487719,6.87207477 L6.47003509,7.02714019 L6.4722807,7.03416822 C6.4797193,7.05495327 6.48519298,7.07738318 6.48785965,7.09846729 L6.85108772,9.64620561 C6.88336842,9.87573832 6.76449123,10.0907664 6.57473684,10.1809346 L6.57473684,10.4511402 L6.57431579,10.4511402 L6.57431579,10.4511402 Z M3.96140351,7.8473271 C3.96140351,7.65861682 3.81824561,7.50594393 3.64126316,7.50594393 C3.46442105,7.50594393 3.32112281,7.65861682 3.32112281,7.8473271 C3.32112281,8.03573832 3.46442105,8.18826168 3.64126316,8.18826168 C3.81824561,8.18826168 3.96140351,8.03543925 3.96140351,7.8473271 Z M3.96140351,6.50302804 C3.96140351,6.31461682 3.81824561,6.16194393 3.64126316,6.16194393 C3.46442105,6.16194393 3.32112281,6.31461682 3.32112281,6.50302804 C3.32112281,6.69143925 3.46442105,6.84411226 3.64126316,6.84411226 C3.81824561,6.84426168 3.96140351,6.69158879 3.96140351,6.50302804 Z M3.96140351,5.20209346 C3.96140351,5.01338318 3.81824561,4.86071028 3.64126316,4.86071028 C3.46442105,4.86071028 3.32112281,5.01338318 3.32112281,5.20209346 C3.32112281,5.39080374 3.46442105,5.54317757 3.64126316,5.54317757 C3.81824561,5.54317757 3.96140351,5.39065421 3.96140351,5.20209346 Z M15.8401404,10.3739813 L14.5038596,10.3739813 C14.5038596,9.46048598 13.8092632,8.72059813 12.9524211,8.72059813 C12.0951579,8.72059813 11.4005614,9.46003738 11.4005614,10.3739813 L7.21108772,10.3739813 L7.21108772,10.1520748 L7.09207018,10.1520748 C7.18778947,9.99237383 7.23017544,9.79768224 7.20280702,9.60149533 L6.84014035,7.05779439 C6.83466667,7.0148785 6.8237193,6.96986916 6.81305263,6.94071028 L6.61487719,6.41076636 C6.59382456,6.35783178 6.57094737,6.3044486 6.54849123,6.25106542 L7.19761404,6.25106542 L7.19761404,4.41450467 L5.50161404,4.41450467 C5.43719298,4.33749533 5.36814035,4.26048598 5.29221053,4.18362617 L5.46540351,3.66863551 L9.63340351,3.66863551 C10.8405614,3.66863551 13.1421754,6.83214953 13.1421754,6.83214953 C13.1421754,6.83214953 14.4609123,7.06751402 15.322807,7.61839252 C16.1855439,8.16957009 15.8401404,10.3739813 15.8401404,10.3739813 Z M11.7886316,6.25106542 C11.7886316,6.25106542 10.4308772,4.41450467 9.7842807,4.41450467 C9.13740351,4.41450467 7.97445614,4.41450467 7.97445614,4.41450467 L7.97445614,6.25106542 L11.7886316,6.25106542 Z M15.3445614,7.92717757 L14.629614,7.92717757 L14.629614,8.41001869 L15.3445614,8.41001869 L15.3445614,7.92717757 Z M14.3713684,10.3730841 C14.3713684,11.1866916 13.7521404,11.8459813 12.989193,11.8459813 C12.2265263,11.8459813 11.6078596,11.1869907 11.6078596,10.3730841 C11.6078596,9.5602243 12.2265263,8.90138318 12.989193,8.90138318 C13.7521404,8.90138318 14.3713684,9.5606729 14.3713684,10.3730841 Z M13.5950877,10.3730841 C13.5950877,10.0174953 13.3230877,9.72829907 12.9893333,9.72829907 C12.6555789,9.72829907 12.3835789,10.0177944 12.3835789,10.3730841 C12.3835789,10.7294206 12.6555789,11.0193645 12.9893333,11.0193645 C13.3230877,11.0193645 13.5950877,10.7294206 13.5950877,10.3730841 Z M7.21136842,10.9928972 L11.3037193,10.9928972 L11.3037193,10.5106542 L7.21136842,10.5106542 L7.21136842,10.9928972 Z" id="Shape"></path>
                        </g>
                    </g>
                </g>
            </g>
        </g>
    </g>
</svg>