<?xml version="1.0" encoding="UTF-8"?>
<svg width="24px" height="24px" viewBox="0 0 24 24" version="1.1" xmlns="http://www.w3.org/2000/svg" xmlns:xlink="http://www.w3.org/1999/xlink">
    <title>82D5A81E-452E-4917-BB31-FB7692989CC0</title>
    <defs>
        <rect id="path-1" x="0" y="0" width="10" height="10"></rect>
    </defs>
    <g id="profille_view-mode" stroke="none" stroke-width="1" fill="none" fill-rule="evenodd">
        <g id="attendance-_profile_01" transform="translate(-200.000000, -761.000000)">
            <g id="Group-29" transform="translate(160.000000, 412.000000)">
                <g id="Group-5" transform="translate(40.000000, 113.000000)">
                    <g id="Group-12" transform="translate(0.000000, 64.000000)">
                        <g id="annual" transform="translate(0.000000, 172.000000)">
                            <rect id="Rectangle" fill="#FFDBD4" opacity="0.4" x="0" y="0" width="24" height="24" rx="12"></rect>
                            <g id="Shape" transform="translate(7.000000, 7.000000)">
                                <mask id="mask-2" fill="white">
                                    <use xlink:href="#path-1"></use>
                                </mask>
                                <g id="Mask"></g>
                                <path d="M2.58838552,0.00130161158 C2.46506722,0.0149718647 2.36220133,0.133302877 2.36486959,0.258421865 L2.36486959,0.511586422 L0.608112835,0.511586422 C0.600274483,0.511215408 0.592423195,0.511215408 0.584584842,0.511586422 C0.455248499,0.523882823 0.356587427,0.63370426 0.35714521,0.764750979 L0.35714521,9.62551047 C0.35714521,9.76532361 0.469514294,9.87867503 0.608112835,9.87867503 L9.39189662,9.87867503 C9.53049516,9.87867503 9.64286187,9.76532361 9.64286187,9.62551047 L9.64286187,0.764750979 C9.64286187,0.624937845 9.53049516,0.511600401 9.39189662,0.511586422 L7.63513986,0.511586422 L7.63513986,0.258421865 C7.63820666,0.114807941 7.49826843,-0.0144272492 7.35672529,0.00130161158 C7.23340699,0.0149718647 7.1305411,0.133302877 7.13320936,0.258421865 L7.13320936,0.511586422 L2.86680009,0.511586422 L2.86680009,0.258421865 C2.86986689,0.114807941 2.72992866,-0.0144272492 2.58838552,0.00130161158 Z M0.859078086,1.01791554 L2.36486959,1.01791554 L2.36486959,1.44513073 C2.07375655,1.54988427 1.86293909,1.82903667 1.86293909,2.15715604 C1.86293909,2.5736206 2.2029881,2.91664971 2.61583484,2.91664971 C3.02868172,2.91664971 3.36480926,2.5736206 3.36480926,2.15715604 C3.36480926,1.82955984 3.15719123,1.55028035 2.86680009,1.44513073 L2.86680009,1.01791554 L7.13320936,1.01791554 L7.13320936,1.44513073 C6.84281822,1.55028035 6.63520019,1.82955984 6.63520019,2.15715604 C6.63520019,2.5736206 6.97132774,2.91664971 7.38417461,2.91664971 C7.79702136,2.91664971 8.13707036,2.5736206 8.13707036,2.15715604 C8.13707036,1.82903667 7.9262529,1.54988427 7.63513986,1.44513073 L7.63513986,1.01791554 L9.14093137,1.01791554 L9.14093137,3.29639655 L0.859078086,3.29639655 L0.859078086,1.01791554 Z M2.61583484,1.90399149 C2.75740999,1.90399149 2.86680009,2.01434085 2.86680009,2.15715604 C2.86680009,2.2999725 2.75740999,2.4103206 2.61583484,2.4103206 C2.4742597,2.4103206 2.36486959,2.2999725 2.36486959,2.15715604 C2.36486959,2.01434085 2.4742597,1.90399149 2.61583484,1.90399149 Z M7.38417461,1.90399149 C7.52574976,1.90399149 7.63513986,2.01434085 7.63513986,2.15715604 C7.63513986,2.2999725 7.52574976,2.4103206 7.38417461,2.4103206 C7.24259947,2.4103206 7.13320936,2.2999725 7.13320936,2.15715604 C7.13320936,2.01434085 7.24259947,1.90399149 7.38417461,1.90399149 Z M0.859078086,3.80272566 L9.14093137,3.80272566 L9.14093137,9.37234592 L0.859078086,9.37234592 L0.859078086,3.80272566 Z" fill="#EFAA9C" fill-rule="nonzero" mask="url(#mask-2)"></path>
                            </g>
                        </g>
                    </g>
                </g>
            </g>
        </g>
    </g>
</svg>