<?xml version="1.0" encoding="UTF-8"?>
<svg width="12px" height="11px" viewBox="0 0 12 11" version="1.1" xmlns="http://www.w3.org/2000/svg" xmlns:xlink="http://www.w3.org/1999/xlink">
    <!-- Generator: sketchtool 57.1 (101010) - https://sketch.com -->
    <title>0C40AB5D-81EE-4F1C-AFF6-9A0405B9383F</title>
    <desc>Created with sketchtool.</desc>
    <g id="🤖-BGV-OPs" stroke="none" stroke-width="1" fill="none" fill-rule="evenodd">
        <g id="OpsTask_AddComments_6" transform="translate(-212.000000, -693.000000)" fill-rule="nonzero">
            <g id="pan-details" transform="translate(160.000000, 314.000000)">
                <g id="name" transform="translate(40.000000, 296.000000)">
                    <g id="comment" transform="translate(0.000000, 60.000000)">
                        <g id="chat" transform="translate(12.000000, 23.000000)">
                            <path d="M10.9655172,0.0606206897 L1.03448276,0.0606206897 C0.471310345,0.0606206897 0,0.531931034 0,1.09510345 L0,7.92268966 C0,8.48586207 0.471310345,8.95717241 1.03448276,8.95717241 L1.44827586,8.95717241 L2.68965517,8.95717241 L3.10344828,8.95717241 L3.10344828,10.698 L4.80889655,8.82186207 L5.84317241,7.61958621 C5.91765517,7.53310345 6.0482069,7.52317241 6.13510345,7.59765517 C6.22158621,7.67213793 6.23151724,7.80289655 6.15703448,7.88937931 L5.23862069,8.95717241 L10.9655172,8.95717241 C11.5286897,8.95717241 12,8.48586207 12,7.92268966 L12,1.09510345 C12,0.531931034 11.5286897,0.0606206897 10.9655172,0.0606206897 Z" id="Path" fill="#8697A8"></path>
                            <circle id="Oval" fill="#FFFFFF" cx="3.10344828" cy="4.51013793" r="1"></circle>
                            <circle id="Oval" fill="#FFFFFF" cx="6" cy="4.51013793" r="1"></circle>
                            <circle id="Oval" fill="#FFFFFF" cx="8.89655172" cy="4.51013793" r="1"></circle>
                        </g>
                    </g>
                </g>
            </g>
        </g>
    </g>
</svg>