<?xml version="1.0" encoding="UTF-8"?>
<svg width="117px" height="48px" viewBox="0 0 117 48" version="1.1" xmlns="http://www.w3.org/2000/svg" xmlns:xlink="http://www.w3.org/1999/xlink">
    <!-- Generator: sketchtool 57.1 (101010) - https://sketch.com -->
    <title>00949D71-BA00-4149-A9F2-10A3B3BCACA4</title>
    <desc>Created with sketchtool.</desc>
    <g id="🤖-BGV-OPs" stroke="none" stroke-width="1" fill="none" fill-rule="evenodd">
        <g id="OpsTask_DL_PartialNameMatch" transform="translate(-883.000000, -418.000000)">
            <g id="pan-details" transform="translate(160.000000, 314.000000)">
                <g id="DP" transform="translate(723.000000, 104.000000)">
                    <g id="Group-4">
                        <path d="M8,0 L109,0 C113.418278,-8.11624501e-16 117,3.581722 117,8 L117,40 C117,44.418278 113.418278,48 109,48 L8,48 C3.581722,48 5.41083001e-16,44.418278 0,40 L0,8 C-5.41083001e-16,3.581722 3.581722,8.11624501e-16 8,0 Z" id="Rectangle" fill="#F0EDFA"></path>
                        <g id="frame-s-top-right" transform="translate(64.000000, 16.000000)" fill-rule="nonzero">
                            <path d="M2,0 L43,0 C44.1045695,-2.02906125e-16 45,0.8954305 45,2 L45,14 C45,15.1045695 44.1045695,16 43,16 L2,16 C0.8954305,16 1.3527075e-16,15.1045695 0,14 L0,2 C-1.3527075e-16,0.8954305 0.8954305,2.02906125e-16 2,0 Z" id="Rectangle" fill="#0059B2"></path>
                            <path d="M7.35398319,11.6 C6.50990801,11.6 5.80590011,11.316156 5.24193838,10.7484594 C4.67797664,10.1807628 4.396,9.4786223 4.396,8.64201681 C4.396,7.80541132 4.67797664,7.10327081 5.24193838,6.53557423 C5.80590011,5.96787765 6.50990801,5.68403361 7.35398319,5.68403361 C7.8992707,5.68403361 8.396,5.81475126 8.84417927,6.07619048 C9.29236078,6.33762969 9.63222667,6.68869994 9.86378711,7.12941176 L8.62008964,7.85770308 C8.50804426,7.62614263 8.33811132,7.44313793 8.11028571,7.30868347 C7.88246011,7.17422902 7.626627,7.1070028 7.34277871,7.1070028 C6.90953658,7.1070028 6.55099675,7.25079221 6.26714846,7.53837535 C5.98330017,7.82595849 5.84137815,8.19383529 5.84137815,8.64201681 C5.84137815,9.08272863 5.98330017,9.44687064 6.26714846,9.73445378 C6.55099675,10.0220369 6.90953658,10.1658263 7.34277871,10.1658263 C7.63409669,10.1658263 7.89366459,10.1004675 8.1214902,9.9697479 C8.3493158,9.83902829 8.51924874,9.65789098 8.63129412,9.42633053 L9.88619608,10.1434174 C9.63969625,10.5841292 9.29236078,10.9370668 8.84417927,11.2022409 C8.396,11.467415 7.8992707,11.6 7.35398319,11.6 Z M13.7629468,5.68403361 C14.3754615,5.68403361 14.8815255,5.88944706 15.2811541,6.30028011 C15.6807826,6.71111317 15.8805938,7.27880123 15.8805938,8.00336134 L15.8805938,11.4431373 L14.4352157,11.4431373 L14.4352157,8.18263305 C14.4352157,7.80914846 14.3343764,7.52343703 14.1326947,7.3254902 C13.931013,7.12754336 13.6621081,7.02857143 13.325972,7.02857143 C12.9524874,7.02857143 12.6537042,7.14434992 12.4296134,7.37591036 C12.2055227,7.60747081 12.093479,7.95480627 12.093479,8.41792717 L12.093479,11.4431373 L10.6481008,11.4431373 L10.6481008,3.6 L12.093479,3.6 L12.093479,6.46834734 C12.4445545,5.94546891 13.0010382,5.68403361 13.7629468,5.68403361 Z M18.3343754,9.23585434 C18.5285873,9.93800538 19.0551927,10.2890756 19.9142073,10.2890756 C20.4669645,10.2890756 20.885261,10.1023361 21.1691092,9.72885154 L22.3343754,10.4011204 C21.7816182,11.2003775 20.9674339,11.6 19.8917983,11.6 C18.9655565,11.6 18.2223305,11.3198908 17.6621064,10.7596639 C17.1018796,10.199437 16.8217703,9.49356168 16.8217703,8.64201681 C16.8217703,7.79794162 17.0981448,7.09393373 17.650902,6.52997199 C18.2036592,5.96601025 18.9132692,5.68403361 19.7797535,5.68403361 C20.6014196,5.68403361 21.279284,5.96787765 21.8133669,6.53557423 C22.3474499,7.10327081 22.6144874,7.80541132 22.6144874,8.64201681 C22.6144874,8.8287591 22.5958134,9.02670297 22.558465,9.23585434 L18.3343754,9.23585434 Z M18.3119664,8.11540616 L21.1691092,8.11540616 C21.0869426,7.73445188 20.9170097,7.45060691 20.6593053,7.26386555 C20.401601,7.07712325 20.1084199,6.9837535 19.7797535,6.9837535 C19.3913295,6.9837535 19.0701376,7.08272543 18.8161681,7.28067227 C18.5621985,7.4786191 18.394133,7.75686095 18.3119664,8.11540616 Z M26.2447395,11.6 C25.4006643,11.6 24.6966564,11.316156 24.1326947,10.7484594 C23.5687329,10.1807628 23.2867563,9.4786223 23.2867563,8.64201681 C23.2867563,7.80541132 23.5687329,7.10327081 24.1326947,6.53557423 C24.6966564,5.96787765 25.4006643,5.68403361 26.2447395,5.68403361 C26.790027,5.68403361 27.2867563,5.81475126 27.7349356,6.07619048 C28.1831171,6.33762969 28.522983,6.68869994 28.7545434,7.12941176 L27.5108459,7.85770308 C27.3988006,7.62614263 27.2288676,7.44313793 27.001042,7.30868347 C26.7732164,7.17422902 26.5173833,7.1070028 26.233535,7.1070028 C25.8002929,7.1070028 25.4417531,7.25079221 25.1579048,7.53837535 C24.8740565,7.82595849 24.7321345,8.19383529 24.7321345,8.64201681 C24.7321345,9.08272863 24.8740565,9.44687064 25.1579048,9.73445378 C25.4417531,10.0220369 25.8002929,10.1658263 26.233535,10.1658263 C26.524853,10.1658263 26.7844209,10.1004675 27.0122465,9.9697479 C27.2400721,9.83902829 27.410005,9.65789098 27.5220504,9.42633053 L28.7769524,10.1434174 C28.5304525,10.5841292 28.1831171,10.9370668 27.7349356,11.2022409 C27.2867563,11.467415 26.790027,11.6 26.2447395,11.6 Z M34.7041232,11.4431373 L33.023451,11.4431373 L30.9842353,8.89971989 L30.9842353,11.4431373 L29.5388571,11.4431373 L29.5388571,3.6 L30.9842353,3.6 L30.9842353,8.30588235 L32.9114062,5.84089636 L34.6368964,5.84089636 L32.3847955,8.60840336 L34.7041232,11.4431373 Z" id="check" fill="#FFFFFF"></path>
                            <polygon id="Shape" fill="#FFFFFF" points="36.5286667 7.52866667 40.0573333 4 37 4 37 2.66666667 42.3333333 2.66666667 42.3333333 8 41 8 41 4.94266667 37.4713333 8.47133333"></polygon>
                        </g>
                        <g id="scan" transform="translate(10.000000, 10.000000)">
                            <path d="M15.827957,3.09677419 C18.1083585,3.09677419 19.9569892,4.9454049 19.9569892,7.22580645 C19.9569892,9.506208 18.1083585,11.3548387 15.827957,11.3548387 C13.5475554,11.3548387 11.6989247,9.506208 11.6989247,7.22580645 C11.6989247,4.9454049 13.5475554,3.09677419 15.827957,3.09677419 Z M6.19354839,23.7419355 C6.19354839,18.4209985 10.50702,14.1075269 15.827957,14.1075269 C21.1488939,14.1075269 25.4623656,18.4209985 25.4623656,23.7419355 L6.19354839,23.7419355 Z" id="Shape" fill="#010E39" fill-rule="nonzero" opacity="0.5"></path>
                            <polyline id="Path" stroke="#6772E5" stroke-width="2" stroke-linecap="square" points="2.1439206 6.43176179 2.1439206 0 8.57568238 0"></polyline>
                            <polyline id="Path" stroke="#6772E5" stroke-width="2" stroke-linecap="square" points="22.8684864 0 29.3002481 0 29.3002481 6.43176179"></polyline>
                            <polyline id="Path" stroke="#6772E5" stroke-width="2" stroke-linecap="square" points="29.3002481 20.7245658 29.3002481 27.1563275 22.8684864 27.1563275"></polyline>
                            <polyline id="Path" stroke="#6772E5" stroke-width="2" stroke-linecap="square" points="8.57568238 27.1563275 2.1439206 27.1563275 2.1439206 20.7245658"></polyline>
                            <path d="M0,13.5781638 L31.4441687,13.5781638" id="Path" stroke="#EE3942" stroke-width="2" stroke-linecap="square"></path>
                        </g>
                    </g>
                </g>
            </g>
        </g>
    </g>
</svg>