<?xml version="1.0" encoding="UTF-8"?>
<svg width="16px" height="16px" viewBox="0 0 16 16" version="1.1" xmlns="http://www.w3.org/2000/svg" xmlns:xlink="http://www.w3.org/1999/xlink">
    <title>19AA8583-722D-4F41-A144-3F050D3356A3</title>
    <g id="⛑-in-progress-screen" stroke="none" stroke-width="1" fill="none" fill-rule="evenodd">
        <g id="1" transform="translate(-887.000000, -346.000000)">
            <g id="Group" transform="translate(159.000000, 16.000000)">
                <g id="Group-9" transform="translate(41.000000, 254.000000)">
                    <g id="reset" transform="translate(687.000000, 76.000000)">
                        <rect id="Rectangle" fill="#F4F7FB" x="0" y="0" width="16" height="16" rx="4"></rect>
                        <g id="Group" transform="translate(2.000000, 3.000000)" fill="#8697A8">
                            <path d="M3.25,7.875 C2.2625,6.8875 1.925,5.5125 2.2125,4.2375 L3.275,4.5875 L2.5125,1.5 L0.0625,3.5375 L1.1375,3.8875 C0.725,5.55 1.1625,7.375 2.45,8.675 C3.9625,10.1875 6.2125,10.5375 8.0625,9.7 L7.7875,8.575 C6.325,9.3375 4.475,9.1 3.25,7.875 Z" id="Path"></path>
                            <path d="M10.8625,6.3625 C11.275,4.7 10.8375,2.875 9.55,1.575 C8.0375,0.0625 5.8,-0.275 3.9625,0.5375 L4.2375,1.6625 C5.7,0.925 7.5375,1.1625 8.75,2.375 C9.7375,3.3625 10.075,4.7375 9.7875,6.0125 L8.725,5.6625 L9.4875,8.75 L11.9375,6.7125 L10.8625,6.3625 Z" id="Path"></path>
                        </g>
                    </g>
                </g>
            </g>
        </g>
    </g>
</svg>