<?xml version="1.0" encoding="UTF-8"?>
<svg width="40px" height="40px" viewBox="0 0 40 40" version="1.1" xmlns="http://www.w3.org/2000/svg" xmlns:xlink="http://www.w3.org/1999/xlink">
    <!-- Generator: Sketch 61.2 (89653) - https://sketch.com -->
    <title>cross</title>
    <desc>Created with Sketch.</desc>
    <g id="📲-i-pad-" stroke="none" stroke-width="1" fill="none" fill-rule="evenodd">
        <g id="11″-iPad-Pro-2" transform="translate(-711.000000, -26.000000)">
            <g id="cross" transform="translate(711.000000, 26.000000)">
                <path d="M4,0 L40,0 L40,0 L40,40 L4,40 C1.790861,40 2.705415e-16,38.209139 0,36 L0,4 C-2.705415e-16,1.790861 1.790861,4.05812251e-16 4,0 Z" id="Rectangle" fill="#8697A8"></path>
                <g id="e-remove" transform="translate(12.000000, 12.000000)" fill="#FFFFFF" fill-rule="nonzero">
                    <path d="M15.7,0.3 C15.3,-0.1 14.7,-0.1 14.3,0.3 L8,6.6 L1.7,0.3 C1.3,-0.1 0.7,-0.1 0.3,0.3 C-0.1,0.7 -0.1,1.3 0.3,1.7 L6.6,8 L0.3,14.3 C-0.1,14.7 -0.1,15.3 0.3,15.7 C0.5,15.9 0.7,16 1,16 C1.3,16 1.5,15.9 1.7,15.7 L8,9.4 L14.3,15.7 C14.5,15.9 14.8,16 15,16 C15.2,16 15.5,15.9 15.7,15.7 C16.1,15.3 16.1,14.7 15.7,14.3 L9.4,8 L15.7,1.7 C16.1,1.3 16.1,0.7 15.7,0.3 Z" id="Path"></path>
                </g>
            </g>
        </g>
    </g>
</svg>