<?xml version="1.0" encoding="UTF-8"?>
<svg width="12px" height="11px" viewBox="0 0 12 11" version="1.1" xmlns="http://www.w3.org/2000/svg" xmlns:xlink="http://www.w3.org/1999/xlink">
    <!-- Generator: sketchtool 57.1 (101010) - https://sketch.com -->
    <title>A42A96DD-D4F8-409F-9204-5C331CA4DB59</title>
    <desc>Created with sketchtool.</desc>
    <g id="🤖-BGV-OPs" stroke="none" stroke-width="1" fill="none" fill-rule="evenodd">
        <g id="OpsTask_AddComments_1" transform="translate(-212.000000, -641.000000)" fill="#8697A8" fill-rule="nonzero">
            <g id="pan-details" transform="translate(160.000000, 314.000000)">
                <g id="name" transform="translate(40.000000, 296.000000)">
                    <g id="comment" transform="translate(0.000000, 20.000000)">
                        <g id="desktop-monitor" transform="translate(12.000000, 11.000000)">
                            <path d="M11.6885246,0.305245902 C11.4930055,0.109726776 11.2580546,0.0118688525 10.9833661,0.0118688525 L0.998491803,0.0118688525 C0.723912568,0.0118688525 0.488918033,0.109726776 0.29326776,0.305245902 C0.097726776,0.500830601 0,0.735803279 0,1.01040437 L0,7.80019672 C0,8.07486339 0.097726776,8.30981421 0.29326776,8.50544262 C0.488918033,8.70096175 0.723912568,8.79864481 0.998491803,8.79864481 L4.39342077,8.79864481 C4.39342077,8.95669945 4.36010929,9.11910383 4.29353005,9.28539891 C4.22699454,9.45182514 4.1604153,9.59737705 4.09383607,9.72214208 C4.02734426,9.84706011 3.99405464,9.93846995 3.99405464,9.9966776 C3.99405464,10.1048306 4.03355191,10.1986448 4.11261202,10.2774863 C4.19162842,10.3566339 4.2852459,10.3962842 4.39342077,10.3962842 L7.58859016,10.3962842 C7.69676503,10.3962842 7.79040437,10.3566557 7.86942077,10.2774863 C7.94854645,10.1986667 7.98804372,10.1048525 7.98804372,9.9966776 C7.98804372,9.94273224 7.95468852,9.85217486 7.88813115,9.72531148 C7.82155191,9.59851366 7.75497268,9.45064481 7.68848087,9.28231694 C7.62190164,9.11379235 7.58861202,8.95259016 7.58861202,8.79864481 L10.983541,8.79864481 C11.2580765,8.79864481 11.4930273,8.70096175 11.6885464,8.50544262 C11.884153,8.30983607 11.9819235,8.07488525 11.9819235,7.80019672 L11.9819235,1.01040437 C11.9819235,0.735803279 11.8841311,0.500830601 11.6885246,0.305245902 Z M11.1831038,6.20257923 C11.1831038,6.2566776 11.1633661,6.30340984 11.123847,6.34299454 C11.0842842,6.38242623 11.0374645,6.40216393 10.9833661,6.40216393 L0.998491803,6.40216393 C0.944437158,6.40216393 0.897617486,6.38242623 0.858098361,6.34299454 C0.818601093,6.30327869 0.798819672,6.2566776 0.798819672,6.20257923 L0.798819672,1.01040437 C0.798819672,0.956306011 0.818535519,0.909530055 0.858098361,0.870010929 C0.897639344,0.830557377 0.944459016,0.81073224 0.998491803,0.81073224 L10.9835191,0.81073224 C11.0375301,0.81073224 11.0844372,0.830491803 11.123847,0.870010929 C11.1633661,0.909551913 11.1831038,0.956327869 11.1831038,1.01040437 L11.1831038,6.20257923 L11.1831038,6.20257923 Z" id="Shape"></path>
                        </g>
                    </g>
                </g>
            </g>
        </g>
    </g>
</svg>