<?xml version="1.0" encoding="UTF-8"?>
<svg width="24px" height="24px" viewBox="0 0 24 24" version="1.1" xmlns="http://www.w3.org/2000/svg" xmlns:xlink="http://www.w3.org/1999/xlink">
    <title>Group 21</title>
    <g id="profile-view-mode" stroke="none" stroke-width="1" fill="none" fill-rule="evenodd">
        <g id="profile-view_mode_download-documents_03_hover" transform="translate(-479.000000, -3078.000000)">
            <g id="section-copy" transform="translate(160.000000, 1814.000000)">
                <g id="Group-6" transform="translate(40.000000, 1184.000000)">
                    <g id="Group-14-Copy" transform="translate(164.000000, 72.000000)">
                        <g id="Group-21" transform="translate(115.000000, 8.000000)">
                            <circle id="Oval" fill="#FFFFFF" cx="12" cy="12" r="12"></circle>
                            <g id="noun_company_2468405-(1)" transform="translate(6.000000, 6.000000)" fill="#009DF7">
                                <path d="M0.658,1.013 L5.7665,0.00233333333 L5.7665,10.8796667 L6.24433333,10.8796667 L6.24433333,2.1335 L11.3528333,2.94716667 L11.3528333,10.8796667 L11.9953333,10.8796667 L11.9953333,11.9086667 L0.0155,11.9086667 L0.0155,10.8796667 L0.658,10.8796667 L0.658,1.013 Z M6.851,4.35683333 L7.84316667,4.35683333 L7.84316667,5.38583333 L6.851,5.38583333 L6.851,4.35683333 L6.851,4.35683333 Z M8.3025,4.35683333 L9.29466667,4.35683333 L9.29466667,5.38583333 L8.3025,5.38583333 L8.3025,4.35683333 Z M9.754,4.35683333 L10.7461667,4.35683333 L10.7461667,5.38583333 L9.754,5.38583333 L9.754,4.35683333 Z M6.851,6.01966667 L7.84316667,6.01966667 L7.84316667,7.04866667 L6.851,7.04866667 L6.851,6.01966667 L6.851,6.01966667 Z M8.3025,6.01966667 L9.29466667,6.01966667 L9.29466667,7.04866667 L8.3025,7.04866667 L8.3025,6.01966667 Z M9.754,6.01966667 L10.7461667,6.01966667 L10.7461667,7.04866667 L9.754,7.04866667 L9.754,6.01966667 Z M6.851,7.6825 L7.84316667,7.6825 L7.84316667,8.7115 L6.851,8.7115 L6.851,7.6825 L6.851,7.6825 Z M8.3025,7.6825 L9.29466667,7.6825 L9.29466667,8.7115 L8.3025,8.7115 L8.3025,7.6825 Z M9.754,7.6825 L10.7461667,7.6825 L10.7461667,8.7115 L9.754,8.7115 L9.754,7.6825 Z M1.26466667,5.5505 L2.25683333,5.5505 L2.25683333,6.5795 L1.26466667,6.5795 L1.26466667,5.5505 Z M2.71616667,5.5505 L3.70833333,5.5505 L3.70833333,6.5795 L2.71616667,6.5795 L2.71616667,5.5505 Z M4.16766667,5.5505 L5.15983333,5.5505 L5.15983333,6.5795 L4.16766667,6.5795 L4.16766667,5.5505 L4.16766667,5.5505 Z M1.26466667,3.88766667 L2.25683333,3.88766667 L2.25683333,4.91666667 L1.26466667,4.91666667 L1.26466667,3.88766667 Z M2.71616667,3.88766667 L3.70833333,3.88766667 L3.70833333,4.91666667 L2.71616667,4.91666667 L2.71616667,3.88766667 Z M4.16766667,3.88766667 L5.15983333,3.88766667 L5.15983333,4.91666667 L4.16766667,4.91666667 L4.16766667,3.88766667 L4.16766667,3.88766667 Z M1.26466667,2.22483333 L2.25683333,2.22483333 L2.25683333,3.25383333 L1.26466667,3.25383333 L1.26466667,2.22483333 Z M2.71616667,2.22483333 L3.70833333,2.22483333 L3.70833333,3.25383333 L2.71616667,3.25383333 L2.71616667,2.22483333 Z M4.16766667,2.22483333 L5.15983333,2.22483333 L5.15983333,3.25383333 L4.16766667,3.25383333 L4.16766667,2.22483333 L4.16766667,2.22483333 Z" id="Shape"></path>
                            </g>
                        </g>
                    </g>
                </g>
            </g>
        </g>
    </g>
</svg>