<?xml version="1.0" encoding="UTF-8"?>
<svg width="16px" height="16px" viewBox="0 0 16 16" version="1.1" xmlns="http://www.w3.org/2000/svg" xmlns:xlink="http://www.w3.org/1999/xlink">
    <title>A4036E1F-01F8-4253-A86D-B6EF0BA06232</title>
    <g id="profile-view-mode" stroke="none" stroke-width="1" fill="none" fill-rule="evenodd">
        <g id="profile-view_mode_download-documents_02" transform="translate(-425.000000, -3010.000000)">
            <g id="section-copy" transform="translate(160.000000, 1814.000000)">
                <g id="Group-6" transform="translate(40.000000, 1184.000000)">
                    <g id="ivr" transform="translate(217.000000, 0.000000)">
                        <g id="email-copy" transform="translate(4.000000, 8.000000)">
                            <rect id="Rectangle" fill="#F5F5F4" fill-rule="nonzero" opacity="0" x="0" y="0" width="24" height="24" rx="2"></rect>
                            <g id="noun_company_2468405-(1)" transform="translate(4.000000, 4.000000)" fill="#8697A8">
                                <path d="M0.877333333,1.35066667 L7.68866667,0.00311111111 L7.68866667,14.5062222 L8.32577778,14.5062222 L8.32577778,2.84466667 L15.1371111,3.92955556 L15.1371111,14.5062222 L15.9937778,14.5062222 L15.9937778,15.8782222 L0.0206666667,15.8782222 L0.0206666667,14.5062222 L0.877333333,14.5062222 L0.877333333,1.35066667 Z M9.13466667,5.80911111 L10.4575556,5.80911111 L10.4575556,7.18111111 L9.13466667,7.18111111 L9.13466667,5.80911111 L9.13466667,5.80911111 Z M11.07,5.80911111 L12.3928889,5.80911111 L12.3928889,7.18111111 L11.07,7.18111111 L11.07,5.80911111 Z M13.0053333,5.80911111 L14.3282222,5.80911111 L14.3282222,7.18111111 L13.0053333,7.18111111 L13.0053333,5.80911111 Z M9.13466667,8.02622222 L10.4575556,8.02622222 L10.4575556,9.39822222 L9.13466667,9.39822222 L9.13466667,8.02622222 L9.13466667,8.02622222 Z M11.07,8.02622222 L12.3928889,8.02622222 L12.3928889,9.39822222 L11.07,9.39822222 L11.07,8.02622222 Z M13.0053333,8.02622222 L14.3282222,8.02622222 L14.3282222,9.39822222 L13.0053333,9.39822222 L13.0053333,8.02622222 Z M9.13466667,10.2433333 L10.4575556,10.2433333 L10.4575556,11.6153333 L9.13466667,11.6153333 L9.13466667,10.2433333 L9.13466667,10.2433333 Z M11.07,10.2433333 L12.3928889,10.2433333 L12.3928889,11.6153333 L11.07,11.6153333 L11.07,10.2433333 Z M13.0053333,10.2433333 L14.3282222,10.2433333 L14.3282222,11.6153333 L13.0053333,11.6153333 L13.0053333,10.2433333 Z M1.68622222,7.40066667 L3.00911111,7.40066667 L3.00911111,8.77266667 L1.68622222,8.77266667 L1.68622222,7.40066667 Z M3.62155556,7.40066667 L4.94444444,7.40066667 L4.94444444,8.77266667 L3.62155556,8.77266667 L3.62155556,7.40066667 Z M5.55688889,7.40066667 L6.87977778,7.40066667 L6.87977778,8.77266667 L5.55688889,8.77266667 L5.55688889,7.40066667 L5.55688889,7.40066667 Z M1.68622222,5.18355556 L3.00911111,5.18355556 L3.00911111,6.55555556 L1.68622222,6.55555556 L1.68622222,5.18355556 Z M3.62155556,5.18355556 L4.94444444,5.18355556 L4.94444444,6.55555556 L3.62155556,6.55555556 L3.62155556,5.18355556 Z M5.55688889,5.18355556 L6.87977778,5.18355556 L6.87977778,6.55555556 L5.55688889,6.55555556 L5.55688889,5.18355556 L5.55688889,5.18355556 Z M1.68622222,2.96644444 L3.00911111,2.96644444 L3.00911111,4.33844444 L1.68622222,4.33844444 L1.68622222,2.96644444 Z M3.62155556,2.96644444 L4.94444444,2.96644444 L4.94444444,4.33844444 L3.62155556,4.33844444 L3.62155556,2.96644444 Z M5.55688889,2.96644444 L6.87977778,2.96644444 L6.87977778,4.33844444 L5.55688889,4.33844444 L5.55688889,2.96644444 L5.55688889,2.96644444 Z" id="Shape"></path>
                            </g>
                        </g>
                    </g>
                </g>
            </g>
        </g>
    </g>
</svg>