<?xml version="1.0" encoding="UTF-8"?>
<svg width="16px" height="16px" viewBox="0 0 16 16" version="1.1" xmlns="http://www.w3.org/2000/svg" xmlns:xlink="http://www.w3.org/1999/xlink">
    <title>icon / 12 / info / verified / config copy</title>
    <g id="attendance-configuration" stroke="none" stroke-width="1" fill="none" fill-rule="evenodd">
        <g id="leave_config_06" transform="translate(-931.000000, -667.000000)" fill="#0059B2">
            <g id="Mask" transform="translate(931.000000, 667.000000)">
                <path d="M9.77099237,1.77099237 C10.259542,1.95419847 10.7480916,2.13740458 11.1145038,2.38167939 L12.8854962,1.58778626 L14.4732824,3.11450382 L13.6793893,4.88549618 C13.9236641,5.3129771 14.1068702,5.74045802 14.2290076,6.22900763 L16,6.90076336 L16,9.09923664 L14.2290076,9.77099237 C14.1068702,10.259542 13.9236641,10.7480916 13.6793893,11.1145038 L14.4732824,12.8854962 L12.8854962,14.4732824 L11.1145038,13.6793893 C10.7480916,13.9236641 10.259542,14.1068702 9.77099237,14.2290076 L9.09923664,16 L6.90076336,16 L6.22900763,14.2290076 C5.74045802,14.1068702 5.3129771,13.9236641 4.88549618,13.6793893 L3.11450382,14.4732824 L1.58778626,12.8854962 L2.38167939,11.1145038 C2.13740458,10.7480916 1.95419847,10.259542 1.77099237,9.77099237 L0,9.09923664 L0,6.90076336 L1.77099237,6.22900763 C1.95419847,5.74045802 2.13740458,5.3129771 2.38167939,4.88549618 L1.58778626,3.11450382 L3.11450382,1.58778626 L4.88549618,2.38167939 C5.3129771,2.13740458 5.74045802,1.95419847 6.22900763,1.77099237 L6.90076336,0 L9.09923664,0 L9.77099237,1.77099237 Z M8,4.39694656 C10.0152672,4.39694656 11.6030534,5.98473282 11.6030534,8 C11.6030534,10.0152672 10.0152672,11.6030534 8,11.6030534 C5.98473282,11.6030534 4.39694656,10.0152672 4.39694656,8 C4.39694656,5.98473282 5.98473282,4.39694656 8,4.39694656 Z" id="Shape"></path>
            </g>
        </g>
    </g>
</svg>