<?xml version="1.0" encoding="UTF-8"?>
<svg width="16px" height="16px" viewBox="0 0 16 16" version="1.1" xmlns="http://www.w3.org/2000/svg" xmlns:xlink="http://www.w3.org/1999/xlink">
    <title>A11027B3-17F9-4F13-AF86-63D83671CAA2</title>
    <g id="🎭-all-employees_OA" stroke="none" stroke-width="1" fill="none" fill-rule="evenodd" opacity="0.300000012">
        <g id="Enable-Service_01" transform="translate(-420.000000, -514.000000)">
            <g id="orgnisation-/-organisation-details-header" transform="translate(160.000000, 128.000000)">
                <g id="product" transform="translate(32.000000, 216.000000)">
                    <g id="Group-7" transform="translate(212.000000, 72.000000)">
                        <g id="verify_conf" transform="translate(16.000000, 98.000000)">
                            <rect id="Rectangle" fill="#D8D8D8" opacity="0" x="0" y="0" width="16" height="16"></rect>
                            <g id="Group-13" transform="translate(1.000000, 1.000000)" stroke="#0059B2">
                                <path d="M8.44927536,0 L8.69516908,2.13826667 C9.36356342,2.35600866 9.98015362,2.70062773 10.5086957,3.15186667 L10.5086957,3.15186667 L12.5507246,2.28666667 L14,4.71333333 L12.2091787,5.985 C12.2787403,6.31915824 12.3138554,6.65915242 12.3140097,7 C12.3137916,7.34053569 12.2786768,7.68021419 12.2091787,8.01406667 L12.2091787,8.01406667 L14,9.28666667 L12.5507246,11.7133333 L10.5086957,10.8481333 C9.98015362,11.2993723 9.36356342,11.6439913 8.69516908,11.8617333 L8.69516908,11.8617333 L8.44927536,14 L5.55072464,14 L5.30483092,11.8626667 C4.63643658,11.6449247 4.01984638,11.3003056 3.49130435,10.8490667 L3.49130435,10.8490667 L1.44927536,11.7133333 L0,9.28666667 L1.79082126,8.01593333 C1.65105243,7.34600171 1.65105243,6.65586496 1.79082126,5.98593333 L1.79082126,5.98593333 L0,4.71333333 L1.44927536,2.28666667 L3.49130435,3.15186667 C4.01984638,2.70062773 4.63643658,2.35600866 5.30483092,2.13826667 L5.30483092,2.13826667 L5.55072464,0 L8.44927536,0 Z M7,5 C5.8954305,5 5,5.8954305 5,7 C5,8.1045695 5.8954305,9 7,9 C8.1045695,9 9,8.1045695 9,7 C9,5.8954305 8.1045695,5 7,5 Z" id="Combined-Shape"></path>
                            </g>
                        </g>
                    </g>
                </g>
            </g>
        </g>
    </g>
</svg>