<?xml version="1.0" encoding="UTF-8"?>
<svg width="16px" height="16px" viewBox="0 0 16 16" version="1.1" xmlns="http://www.w3.org/2000/svg" xmlns:xlink="http://www.w3.org/1999/xlink">
    <title>A485E27F-0791-49AA-BDE9-6B23A1526CAF</title>
    <g id="🎭-all-employees_OA" stroke="none" stroke-width="1" fill="none" fill-rule="evenodd">
        <g id="Enable-Service_03" transform="translate(-420.000000, -514.000000)">
            <g id="orgnisation-/-organisation-details-header" transform="translate(160.000000, 128.000000)">
                <g id="product" transform="translate(32.000000, 216.000000)">
                    <g id="Group-7" transform="translate(212.000000, 72.000000)">
                        <g id="Group-18" transform="translate(11.000000, 95.000000)">
                            <g id="hover-confg" transform="translate(5.000000, 3.000000)">
                                <rect id="Rectangle" fill="#D8D8D8" opacity="0" x="0" y="0" width="16" height="16"></rect>
                                <path d="M9.44927536,1 L9.69516908,3.13826667 C10.3635634,3.35600866 10.9801536,3.70062773 11.5086957,4.15186667 L11.5086957,4.15186667 L13.5507246,3.28666667 L15,5.71333333 L13.2091787,6.985 C13.2787403,7.31915824 13.3138554,7.65915242 13.3140097,8 C13.3137916,8.34053569 13.2786768,8.68021419 13.2091787,9.01406667 L13.2091787,9.01406667 L15,10.2866667 L13.5507246,12.7133333 L11.5086957,11.8481333 C10.9801536,12.2993723 10.3635634,12.6439913 9.69516908,12.8617333 L9.69516908,12.8617333 L9.44927536,15 L6.55072464,15 L6.30483092,12.8626667 C5.63643658,12.6449247 5.01984638,12.3003056 4.49130435,11.8490667 L4.49130435,11.8490667 L2.44927536,12.7133333 L1,10.2866667 L2.79082126,9.01593333 C2.65105243,8.34600171 2.65105243,7.65586496 2.79082126,6.98593333 L2.79082126,6.98593333 L1,5.71333333 L2.44927536,3.28666667 L4.49130435,4.15186667 C5.01984638,3.70062773 5.63643658,3.35600866 6.30483092,3.13826667 L6.30483092,3.13826667 L6.55072464,1 L9.44927536,1 Z M8,6 C6.8954305,6 6,6.8954305 6,8 C6,9.1045695 6.8954305,10 8,10 C9.1045695,10 10,9.1045695 10,8 C10,6.8954305 9.1045695,6 8,6 Z" id="Combined-Shape" fill="#0059B2"></path>
                            </g>
                        </g>
                    </g>
                </g>
            </g>
        </g>
    </g>
</svg>