<?xml version="1.0" encoding="UTF-8"?>
<svg width="148px" height="92px" viewBox="0 0 148 92" version="1.1" xmlns="http://www.w3.org/2000/svg" xmlns:xlink="http://www.w3.org/1999/xlink">
    <!-- Generator: Sketch 60 (88103) - https://sketch.com -->
    <title>Group 12 Copy 5</title>
    <desc>Created with Sketch.</desc>
    <defs>
        <path d="M2.87547763e-14,8.00345689 C2.87547763e-14,3.5832697 3.58511452,0 8.00959849,0 L139.990402,0 C144.413981,0 148,3.57827291 148,8.00345689 L148,83.9965431 C148,88.4167303 144.414885,92 139.990402,92 L8.00959849,92 C3.58601939,92 2.87547763e-14,88.4217271 2.87547763e-14,83.9965431 L2.87547763e-14,8.00345689 Z" id="path-1"></path>
    </defs>
    <g id="📺-Empty-State" stroke="none" stroke-width="1" fill="none" fill-rule="evenodd">
        <g id="Group-12-Copy-5">
            <mask id="mask-2" fill="white">
                <use xlink:href="#path-1"></use>
            </mask>
            <use id="Rectangle-Copy-13" fill="#72CEDF" xlink:href="#path-1"></use>
            <path d="M19.128,32.336 C21.48,32.336 23.52,31.088 24.552,29.216 L21.864,27.68 C21.384,28.664 20.352,29.264 19.104,29.264 C17.256,29.264 15.888,27.896 15.888,26 C15.888,24.08 17.256,22.712 19.104,22.712 C20.328,22.712 21.36,23.336 21.84,24.32 L24.504,22.76 C23.52,20.912 21.48,19.664 19.128,19.664 C15.48,19.664 12.792,22.424 12.792,26 C12.792,29.576 15.48,32.336 19.128,32.336 Z M31.704,32.336 C35.232,32.336 38.064,29.576 38.064,26 C38.064,22.424 35.232,19.664 31.704,19.664 C28.176,19.664 25.368,22.424 25.368,26 C25.368,29.576 28.176,32.336 31.704,32.336 Z M31.704,29.312 C29.88,29.312 28.464,27.944 28.464,26 C28.464,24.056 29.88,22.688 31.704,22.688 C33.552,22.688 34.968,24.056 34.968,26 C34.968,27.944 33.552,29.312 31.704,29.312 Z M46.92,19.664 C45.312,19.664 44.064,20.264 43.344,21.344 L43.344,20 L40.248,20 L40.248,32 L43.344,32 L43.344,25.52 C43.344,23.432 44.472,22.544 45.984,22.544 C47.376,22.544 48.36,23.384 48.36,25.016 L48.36,32 L51.456,32 L51.456,24.632 C51.456,21.44 49.464,19.664 46.92,19.664 Z M56.952,23.408 C56.952,22.76 57.576,22.424 58.344,22.424 C59.232,22.424 59.904,22.88 60.264,23.648 L62.904,22.208 C61.968,20.552 60.288,19.664 58.344,19.664 C55.872,19.664 53.784,21.032 53.784,23.48 C53.784,27.704 59.976,26.744 59.976,28.496 C59.976,29.192 59.304,29.528 58.32,29.528 C57.12,29.528 56.304,28.952 55.968,27.968 L53.28,29.48 C54.144,31.328 55.92,32.336 58.32,32.336 C60.888,32.336 63.144,31.088 63.144,28.496 C63.144,24.08 56.952,25.184 56.952,23.408 Z M67.584,27.272 L76.632,27.272 C76.704,26.864 76.752,26.456 76.752,26 C76.752,22.472 74.232,19.664 70.68,19.664 C66.912,19.664 64.344,22.424 64.344,26 C64.344,29.576 66.888,32.336 70.92,32.336 C73.224,32.336 75.024,31.4 76.152,29.768 L73.656,28.328 C73.128,29.024 72.168,29.528 70.968,29.528 C69.336,29.528 68.016,28.856 67.584,27.272 Z M67.536,24.872 C67.896,23.336 69.024,22.448 70.68,22.448 C71.976,22.448 73.272,23.144 73.656,24.872 L67.536,24.872 Z M85.584,19.664 C83.976,19.664 82.728,20.264 82.008,21.344 L82.008,20 L78.912,20 L78.912,32 L82.008,32 L82.008,25.52 C82.008,23.432 83.136,22.544 84.648,22.544 C86.04,22.544 87.024,23.384 87.024,25.016 L87.024,32 L90.12,32 L90.12,24.632 C90.12,21.44 88.128,19.664 85.584,19.664 Z M99.624,22.976 L99.624,20 L96.912,20 L96.912,16.64 L93.816,17.576 L93.816,20 L91.728,20 L91.728,22.976 L93.816,22.976 L93.816,27.968 C93.816,31.208 95.28,32.48 99.624,32 L99.624,29.192 L99.0429285,29.2186682 C97.6444615,29.2655266 96.912,29.1144615 96.912,27.968 L96.912,22.976 L99.624,22.976 Z M19.872,41.84 L19.872,38.864 C16.1447442,38.6295814 14.3179145,40.4787626 14.2349616,43.6511601 L14.232,44 L12.504,44 L12.504,46.976 L14.232,46.976 L14.232,56 L17.328,56 L17.328,46.976 L19.872,46.976 L19.872,44 L17.328,44 L17.328,43.88 C17.328,42.248 18.264,41.72 19.872,41.84 Z M26.544,56.336 C30.072,56.336 32.904,53.576 32.904,50 C32.904,46.424 30.072,43.664 26.544,43.664 C23.016,43.664 20.208,46.424 20.208,50 C20.208,53.576 23.016,56.336 26.544,56.336 Z M26.544,53.312 C24.72,53.312 23.304,51.944 23.304,50 C23.304,48.056 24.72,46.688 26.544,46.688 C28.392,46.688 29.808,48.056 29.808,50 C29.808,51.944 28.392,53.312 26.544,53.312 Z M38.184,46.064 L38.184,44 L35.088,44 L35.088,56 L38.184,56 L38.184,50.264 C38.184,47.744 40.224,47.024 41.832,47.216 L41.832,43.76 C40.32,43.76 38.808,44.432 38.184,46.064 Z M56.904,43.664 C59.64,43.664 61.44,45.608 61.44,48.608 L61.44,56 L58.344,56 L58.344,48.824 C58.344,47.408 57.624,46.544 56.328,46.544 C54.96,46.544 54.096,47.456 54.096,49.256 L54.096,56 L51,56 L51,48.824 C51,47.408 50.28,46.544 48.984,46.544 C47.664,46.544 46.728,47.456 46.728,49.256 L46.728,56 L43.632,56 L43.632,44 L46.728,44 L46.728,45.272 C47.4,44.264 48.528,43.664 50.064,43.664 C51.552,43.664 52.656,44.288 53.328,45.392 C54.072,44.312 55.272,43.664 56.904,43.664 Z" id="consentform" fill="#FFFFFF" fill-rule="nonzero" mask="url(#mask-2)"></path>
            <g id="Group-15" mask="url(#mask-2)">
                <g transform="translate(87.000000, 24.000000)">
                    <rect id="Rectangle" fill="#D8D8D8" fill-rule="evenodd" opacity="0" x="0" y="0" width="64" height="64"></rect>
                    <path d="M46.2,25.6 C47.0832,25.6 47.8,26.3168 47.8,27.2 L47.8,27.2 L47.8,46.4 C47.8,47.2832 47.0832,48 46.2,48 L46.2,48 L27,48 C26.1168,48 25.4,47.2832 25.4,46.4 L25.4,46.4 L25.4,41.6 L39.8,41.6 C40.6832,41.6 41.4,40.8832 41.4,40 L41.4,40 L41.4,25.6 Z M37.8,17 C38.6848,17 39.4,17.7152 39.4,18.6 L39.4,37.8 C39.4,38.6848 38.6848,39.4 37.8,39.4 L18.6,39.4 C17.7152,39.4 17,38.6848 17,37.8 L17,18.6 C17,17.7152 17.7152,17 18.6,17 L37.8,17 Z" id="Combined-Shape" fill="#010E39" fill-rule="nonzero" opacity="0.35063244"></path>
                </g>
            </g>
            <path d="M15.536,76 L15.536,76.496 C15.256,76.12 14.824,75.888 14.256,75.888 C13.12,75.888 12.264,76.816 12.264,77.936 C12.264,79.064 13.12,79.984 14.256,79.984 C14.824,79.984 15.256,79.752 15.536,79.376 L15.536,79.808 C15.536,80.44 15.136,80.792 14.488,80.792 C13.872,80.792 13.608,80.544 13.44,80.232 L12.56,80.736 C12.912,81.384 13.6,81.712 14.456,81.712 C15.512,81.712 16.544,81.12 16.544,79.808 L16.544,76 L15.536,76 Z M14.416,79.032 C13.768,79.032 13.296,78.576 13.296,77.936 C13.296,77.304 13.768,76.848 14.416,76.848 C15.064,76.848 15.536,77.304 15.536,77.936 C15.536,78.576 15.064,79.032 14.416,79.032 Z M19.384,80.112 C20.56,80.112 21.504,79.192 21.504,78 C21.504,76.808 20.56,75.888 19.384,75.888 C18.208,75.888 17.272,76.808 17.272,78 C17.272,79.192 18.208,80.112 19.384,80.112 Z M19.384,79.104 C18.776,79.104 18.304,78.648 18.304,78 C18.304,77.352 18.776,76.896 19.384,76.896 C20,76.896 20.472,77.352 20.472,78 C20.472,78.648 20,79.104 19.384,79.104 Z M24.704,76 L23.728,78.8 L22.76,76 L21.624,76 L23.144,80 L24.32,80 L25.84,76 L24.704,76 Z M27.048,78.424 L30.064,78.424 C30.088,78.288 30.104,78.152 30.104,78 C30.104,76.824 29.264,75.888 28.08,75.888 C26.824,75.888 25.968,76.808 25.968,78 C25.968,79.192 26.816,80.112 28.16,80.112 C28.928,80.112 29.528,79.8 29.904,79.256 L29.072,78.776 C28.896,79.008 28.576,79.176 28.176,79.176 C27.632,79.176 27.192,78.952 27.048,78.424 Z M27.032,77.624 C27.152,77.112 27.528,76.816 28.08,76.816 C28.512,76.816 28.944,77.048 29.072,77.624 L27.032,77.624 Z M31.856,76.688 L31.856,76 L30.824,76 L30.824,80 L31.856,80 L31.856,78.088 C31.856,77.248 32.536,77.008 33.072,77.072 L33.072,75.92 C32.568,75.92 32.064,76.144 31.856,76.688 Z M35.896,75.888 C35.36,75.888 34.944,76.088 34.704,76.448 L34.704,76 L33.672,76 L33.672,80 L34.704,80 L34.704,77.84 C34.704,77.144 35.08,76.848 35.584,76.848 C36.048,76.848 36.376,77.128 36.376,77.672 L36.376,80 L37.408,80 L37.408,77.544 C37.408,76.48 36.744,75.888 35.896,75.888 Z M42.712,75.888 C42.168,75.888 41.768,76.104 41.52,76.464 C41.296,76.096 40.928,75.888 40.432,75.888 C39.92,75.888 39.544,76.088 39.32,76.424 L39.32,76 L38.288,76 L38.288,80 L39.32,80 L39.32,77.752 C39.32,77.152 39.632,76.848 40.072,76.848 C40.504,76.848 40.744,77.136 40.744,77.608 L40.744,80 L41.776,80 L41.776,77.752 C41.776,77.152 42.064,76.848 42.52,76.848 C42.952,76.848 43.192,77.136 43.192,77.608 L43.192,80 L44.224,80 L44.224,77.536 C44.224,76.536 43.624,75.888 42.712,75.888 Z M45.976,78.424 L48.992,78.424 C49.016,78.288 49.032,78.152 49.032,78 C49.032,76.824 48.192,75.888 47.008,75.888 C45.752,75.888 44.896,76.808 44.896,78 C44.896,79.192 45.744,80.112 47.088,80.112 C47.856,80.112 48.456,79.8 48.832,79.256 L48,78.776 C47.824,79.008 47.504,79.176 47.104,79.176 C46.56,79.176 46.12,78.952 45.976,78.424 Z M45.96,77.624 C46.08,77.112 46.456,76.816 47.008,76.816 C47.44,76.816 47.872,77.048 48,77.624 L45.96,77.624 Z M51.976,75.888 C51.44,75.888 51.024,76.088 50.784,76.448 L50.784,76 L49.752,76 L49.752,80 L50.784,80 L50.784,77.84 C50.784,77.144 51.16,76.848 51.664,76.848 C52.128,76.848 52.456,77.128 52.456,77.672 L52.456,80 L53.488,80 L53.488,77.544 C53.488,76.48 52.824,75.888 51.976,75.888 Z M56.656,76.992 L56.656,76 L55.752,76 L55.752,74.88 L54.72,75.192 L54.72,76 L54.024,76 L54.024,76.992 L54.72,76.992 L54.72,78.656 C54.72,79.736 55.208,80.16 56.656,80 L56.656,79.064 L56.4027674,79.0745307 C55.9753846,79.083503 55.752,79.0215385 55.752,78.656 L55.752,76.992 L56.656,76.992 Z M61.352,80.112 C62.528,80.112 63.472,79.192 63.472,78 C63.472,76.808 62.528,75.888 61.352,75.888 C60.176,75.888 59.24,76.808 59.24,78 C59.24,79.192 60.176,80.112 61.352,80.112 Z M61.352,79.104 C60.744,79.104 60.272,78.648 60.272,78 C60.272,77.352 60.744,76.896 61.352,76.896 C61.968,76.896 62.44,77.352 62.44,78 C62.44,78.648 61.968,79.104 61.352,79.104 Z M66.224,75.28 L66.224,74.288 C65.0125714,74.2118095 64.4034104,74.7959365 64.3481421,75.8054171 L64.344,76 L63.768,76 L63.768,76.992 L64.344,76.992 L64.344,80 L65.376,80 L65.376,76.992 L66.224,76.992 L66.224,76 L65.376,76 L65.376,75.96 C65.376,75.416 65.688,75.24 66.224,75.28 Z M69.208,75.52 C69.56,75.52 69.848,75.232 69.848,74.888 C69.848,74.544 69.56,74.248 69.208,74.248 C68.864,74.248 68.576,74.544 68.576,74.888 C68.576,75.232 68.864,75.52 69.208,75.52 Z M68.696,80 L69.728,80 L69.728,76 L68.696,76 L68.696,80 Z M72.896,75.888 C72.36,75.888 71.944,76.088 71.704,76.448 L71.704,76 L70.672,76 L70.672,80 L71.704,80 L71.704,77.84 C71.704,77.144 72.08,76.848 72.584,76.848 C73.048,76.848 73.376,77.128 73.376,77.672 L73.376,80 L74.408,80 L74.408,77.544 C74.408,76.48 73.744,75.888 72.896,75.888 Z M78.32,74.4 L78.32,76.472 C78.032,76.104 77.608,75.888 77.024,75.888 C75.952,75.888 75.072,76.808 75.072,78 C75.072,79.192 75.952,80.112 77.024,80.112 C77.608,80.112 78.032,79.896 78.32,79.528 L78.32,80 L79.352,80 L79.352,74.4 L78.32,74.4 Z M77.216,79.128 C76.576,79.128 76.104,78.672 76.104,78 C76.104,77.328 76.576,76.872 77.216,76.872 C77.848,76.872 78.32,77.328 78.32,78 C78.32,78.672 77.848,79.128 77.216,79.128 Z M80.808,75.52 C81.16,75.52 81.448,75.232 81.448,74.888 C81.448,74.544 81.16,74.248 80.808,74.248 C80.464,74.248 80.176,74.544 80.176,74.888 C80.176,75.232 80.464,75.52 80.808,75.52 Z M80.296,80 L81.328,80 L81.328,76 L80.296,76 L80.296,80 Z M85.312,76 L85.312,76.472 C85.024,76.112 84.592,75.888 84.008,75.888 C82.944,75.888 82.064,76.808 82.064,78 C82.064,79.192 82.944,80.112 84.008,80.112 C84.592,80.112 85.024,79.888 85.312,79.528 L85.312,80 L86.344,80 L86.344,76 L85.312,76 Z M84.2,79.128 C83.568,79.128 83.096,78.672 83.096,78 C83.096,77.328 83.568,76.872 84.2,76.872 C84.84,76.872 85.312,77.328 85.312,78 C85.312,78.672 84.84,79.128 84.2,79.128 Z" id="governmentofindia" fill="#FFFFFF" fill-rule="nonzero" mask="url(#mask-2)"></path>
        </g>
    </g>
</svg>