<?xml version="1.0" encoding="UTF-8"?>
<svg width="40px" height="40px" viewBox="0 0 40 40" version="1.1" xmlns="http://www.w3.org/2000/svg" xmlns:xlink="http://www.w3.org/1999/xlink">
    <!-- Generator: sketchtool 55.2 (78181) - https://sketchapp.com -->
    <title>D04A9AA1-64E0-4FAD-886E-CA8DAF8083F2</title>
    <desc>Created with sketchtool.</desc>
    <defs>
        <rect id="path-1" x="0" y="0" width="40" height="40" rx="19.5"></rect>
    </defs>
    <g id="👽-GBV-Client" stroke="none" stroke-width="1" fill="none" fill-rule="evenodd">
        <g id="BGV-Client-zomato-add-contact-details_3" transform="translate(-160.000000, -694.000000)">
            <g id="Group-2" transform="translate(160.000000, 694.000000)">
                <g id="section-title">
                    <g id="emp_details-copy">
                        <g id="icon-/-40-/-info-/-container">
                            <mask id="mask-2" fill="white">
                                <use xlink:href="#path-1"></use>
                            </mask>
                            <use fill="#FEF8E5" xlink:href="#path-1"></use>
                        </g>
                        <g id="Group-Copy" transform="translate(8.000000, 12.000000)" fill="#9A5A1E" fill-rule="nonzero">
                            <path d="M22.8488868,-1.04982689e-12 L1.10854503,-1.04982689e-12 C0.497293303,-1.04982689e-12 -3.25073302e-13,0.497293303 -3.25073302e-13,1.10854503 L-3.25073302e-13,15.8912148 C-3.25073302e-13,16.5024665 0.497293303,16.9997598 1.10854503,16.9997598 L22.8488868,16.9997598 C23.4601386,16.9997598 23.9574319,16.5024665 23.9574319,15.8912148 L23.9574319,1.10854503 C23.9574319,0.497293303 23.4601386,-1.04982689e-12 22.8488868,-1.04982689e-12 Z M10.2327575,12.2930993 L10.2284342,14.0025866 L2.82573672,14.0025866 L2.82135797,12.283067 L2.82135797,10.9185035 C2.82135797,10.2205635 3.5747806,9.95545497 4.18015704,9.74250346 C4.32266051,9.69239723 4.48506236,9.6351963 4.61370901,9.57755196 C4.58815704,9.54933949 4.56216166,9.52090531 4.53583372,9.49202771 C4.01110393,8.91652656 3.41659122,8.2645358 3.41282217,7.11414319 C3.40594919,7.02701155 3.35883603,6.42534873 3.34226328,6.21195381 C3.18451732,4.18287298 4.19739492,3.87081755 5.7305127,3.39846651 C5.9562679,3.32890531 6.18967206,3.25701617 6.43987067,3.174097 C6.76157044,3.06751039 7.0775612,3.01341339 7.37903002,3.01341339 C8.01877136,3.01341339 8.57830947,3.25269284 8.99722864,3.70542263 C9.53825404,4.29012471 9.792,5.18028637 9.71185219,6.21195381 L9.6412933,7.11408776 C9.63752425,8.26442494 9.04301155,8.91647113 8.51828176,9.49197229 C8.49189838,9.52084988 8.46595843,9.54939492 8.44040647,9.57755196 C8.56905312,9.63525173 8.73145497,9.69239723 8.87395843,9.74255889 C9.47933487,9.95556582 10.2327575,10.2206189 10.2327575,10.9185589 L10.2327575,12.2930993 Z M21.0806467,13.2486651 L13.1971178,13.2486651 L13.1971178,11.7728037 L21.0806467,11.7728037 L21.0806467,13.2486651 L21.0806467,13.2486651 Z M21.0806467,9.85191686 L13.1971178,9.85191686 L13.1971178,8.37605543 L21.0806467,8.37605543 L21.0806467,9.85191686 L21.0806467,9.85191686 Z M21.0806467,6.45516859 L13.1971178,6.45516859 L13.1971178,4.97930716 L21.0806467,4.97930716 L21.0806467,6.45516859 L21.0806467,6.45516859 Z" id="Shape"></path>
                            <path d="M6.52750115,9.44884988 C7.87338568,9.4468545 8.96901617,8.34961663 8.96901617,7.00290069 L8.96901617,6.28578291 C8.96901617,6.21012471 8.96535797,6.13369053 8.95804157,6.05703464 L8.62054503,6.05703464 C8.04077598,6.05703464 7.83996305,5.50381524 7.74363048,5.16072055 C7.19589838,5.41984296 5.82723326,6.02898845 4.09618476,6.05609238 C4.08881293,6.13308083 4.08509931,6.20979215 4.08509931,6.28578291 L4.08509931,7.00290069 C4.08515473,8.34961663 5.18078522,9.4468545 6.52750115,9.44884988 Z" id="Path"></path>
                            <polygon id="Path" points="6.52711316 12.4046189 8.42649423 10.39006 4.6277321 10.39006"></polygon>
                        </g>
                    </g>
                </g>
            </g>
        </g>
    </g>
</svg>