<?xml version="1.0" encoding="UTF-8"?>
<svg width="29px" height="32px" viewBox="0 0 29 32" version="1.1" xmlns="http://www.w3.org/2000/svg" xmlns:xlink="http://www.w3.org/1999/xlink">
    <title>copy</title>
    <g id="roster" stroke="none" stroke-width="1" fill="none" fill-rule="evenodd" opacity="0.5">
        <g id="Publish-functionalitv2_03" transform="translate(-886.000000, -12.000000)">
            <g id="copy..." transform="translate(886.000000, 12.000000)">
                <path d="M4,0 L29,0 L29,0 L29,32 L4,32 C1.790861,32 2.705415e-16,30.209139 0,28 L0,4 C-2.705415e-16,1.790861 1.790861,4.05812251e-16 4,0 Z" id="Rectangle" fill="#E6EDF5"></path>
                <g id="Shape-2" transform="translate(8.000000, 8.000000)" fill="#7D97AC">
                    <path d="M3.62666688,0.216014059 C2.80255929,0.216014059 2.30204735,0.681080889 2.30204735,1.50518756 C2.29916843,1.70874656 2.39310337,1.89808697 2.56892647,2.00070662 C2.69802887,2.05479058 2.72981641,2.07310113 2.89569218,2.00070662 C3.07151529,1.89808697 3.12153909,1.70874656 3.11866017,1.50518756 C3.11866017,1.28695467 3.2767231,1.12888889 3.49495621,1.12888889 L11.1525926,1.12888889 C11.3708262,1.12888889 11.5288891,1.28695467 11.5288891,1.50518756 L11.5627954,11.9096378 C11.5627954,12.1278707 11.5126936,12.4473634 11.29446,12.4473634 C11.090901,12.4444845 10.7935994,12.4530611 10.6909798,12.5955806 C10.5883601,12.7381002 10.5544539,12.9984519 10.6570735,13.174275 C10.7596932,13.3500981 10.9490336,13.4098167 11.1525926,13.4070365 C11.9929898,13.333793 12.4444444,13.038832 12.4444444,12.0414791 L12.4444444,1.50518756 C12.4444444,0.681080889 11.9767007,0.216014059 11.1525926,0.216014059 L3.62666688,0.216014059 Z M1.50518542,2.49353404 C0.681077333,2.49353404 0.454953418,2.80256 0.454953418,3.62666667 L0.454953418,14.1629653 C0.454953418,14.987072 0.681077333,15.2694668 1.50518542,15.2694668 L9.03111132,15.2694668 C9.85521941,15.2694668 10.1804905,14.987072 10.1804905,14.1629653 L10.1804905,3.62666667 C10.1804905,2.80256 9.85521941,2.49353404 9.03111132,2.49353404 L1.50518542,2.49353404 Z M1.82322284,3.41221502 L8.84744276,3.41221502 C9.03490121,3.41221502 9.17067527,3.56156851 9.17067527,3.76777282 L9.17067527,14.0397554 C9.17067527,14.2459597 9.03490121,14.3953064 8.84744276,14.3953064 L1.82322284,14.3953064 C1.63576439,14.3953064 1.49999033,14.2459597 1.49999033,14.0397554 L1.49999033,3.76777282 C1.49999033,3.56156851 1.63576439,3.41221502 1.82322284,3.41221502 Z" id="Shape"></path>
                </g>
            </g>
        </g>
    </g>
</svg>