<?xml version="1.0" encoding="UTF-8"?>
<svg width="16px" height="16px" viewBox="0 0 16 16" version="1.1" xmlns="http://www.w3.org/2000/svg" xmlns:xlink="http://www.w3.org/1999/xlink">
    <title>C94AD074-F665-43D3-89D4-CD142B03396D</title>
    <defs>
        <path d="M6.33333333,8.8817842e-16 L8.33333333,2.66666667 L15.3333333,2.66666667 C15.7015232,2.66666667 16,2.9651435 16,3.33333333 L16,3.33333333 L16,12.6666667 C16,13.7712362 15.1045695,14.6666667 14,14.6666667 L14,14.6666667 L2,14.6666667 C0.8954305,14.6666667 0,13.7712362 0,12.6666667 L0,12.6666667 L0,0.666666667 C0,0.298476833 0.298476833,8.8817842e-16 0.666666667,8.8817842e-16 L0.666666667,8.8817842e-16 L6.33333333,8.8817842e-16 Z M6,10 C4.52724067,10 3.33333333,11.1939073 3.33333333,12.6666667 L3.33333333,12.6666667 L8.66666667,12.6666667 C8.66666667,11.1939073 7.47275933,10 6,10 Z M10.8177608,8.12721859 C9.71447887,7.77331559 8.50899439,8.17369475 7.83666667,9.11733333 C8.51342539,9.46936244 9.07600933,10.0067423 9.45866667,10.6666667 L9.45866667,10.6666667 L12.6666708,10.6666667 C12.6686969,9.50801477 11.9210427,8.48112158 10.8177608,8.12721859 Z M6,6.66666667 C5.26362033,6.66666667 4.66666667,7.26362033 4.66666667,8 C4.66666667,8.73637967 5.26362033,9.33333333 6,9.33333333 C6.73637967,9.33333333 7.33333333,8.73637967 7.33333333,8 C7.33333333,7.26362033 6.73637967,6.66666667 6,6.66666667 Z M10,4.66666667 C9.26362033,4.66666667 8.66666667,5.26362033 8.66666667,6 C8.66666667,6.73637967 9.26362033,7.33333333 10,7.33333333 C10.7363797,7.33333333 11.3333333,6.73637967 11.3333333,6 C11.3333333,5.26362033 10.7363797,4.66666667 10,4.66666667 Z" id="path-1"></path>
    </defs>
    <g id="Page-1" stroke="none" stroke-width="1" fill="none" fill-rule="evenodd">
        <g id="site/shift-management_02" transform="translate(-209.000000, -387.000000)">
            <rect fill="#F3F7FD" x="0" y="0" width="1440" height="900"></rect>
            <g id="Group-11" transform="translate(160.000000, 387.000000)">
                <g id="Group-13" transform="translate(49.000000, 0.000000)">
                    <g id="icon-/-16-/-info-/-action_bar-/-assign-copy-2" transform="translate(0.000000, 1.000000)">
                        <mask id="mask-2" fill="white">
                            <use xlink:href="#path-1"></use>
                        </mask>
                        <use id="Combined-Shape" fill="#7892B8" fill-rule="nonzero" xlink:href="#path-1"></use>
                        <rect id="Rectangle" fill="#8697A8" mask="url(#mask-2)" x="0" y="-1" width="16" height="16"></rect>
                    </g>
                    <rect id="Rectangle" fill="#8697A8" x="3" y="5" width="11" height="9"></rect>
                    <text id="+" font-family="Gilroy-Medium, Gilroy" font-size="12" font-weight="400" fill="#FFFFFF">
                        <tspan x="5" y="13">+</tspan>
                    </text>
                </g>
            </g>
        </g>
    </g>
</svg>