<?xml version="1.0" encoding="UTF-8"?>
<svg width="40px" height="40px" viewBox="0 0 40 40" version="1.1" xmlns="http://www.w3.org/2000/svg" xmlns:xlink="http://www.w3.org/1999/xlink">
    <title>6D04749B-B599-4E31-A96E-2665E214F6A0</title>
    <defs>
        <path d="M6.08963108,13.2006229 C6.91475052,14.2227751 7.79181972,15.1601916 8.61193746,15.9520355 C8.92356264,16.2529139 9.41461772,16.2529139 9.72624121,15.9520371 C10.5463603,15.160192 11.4234297,14.2227752 12.2485493,13.2006229 L14.1932448,13.2004831 C14.3225085,13.2004831 14.4430921,13.2650203 14.5148023,13.3725836 L17.6065897,18.0102647 C17.6856583,18.1287729 17.6930168,18.2812483 17.6258361,18.4069295 C17.5584699,18.5326106 17.4275056,18.6111111 17.2850322,18.6111111 L1.05314815,18.6111111 C0.910674721,18.6111111 0.77971047,18.5326106 0.712340422,18.4069295 C0.645159746,18.2812483 0.6525182,18.1287729 0.731586799,18.0102647 L3.82337424,13.3725836 C3.89508825,13.2650203 4.01567182,13.2004831 4.14493559,13.2004831 L6.08963108,13.2006229 Z M9.16909018,0.833333333 C12.3707288,0.833333333 14.9661916,3.42877295 14.9661916,6.63043478 C14.9661916,10.0890357 10.5765607,14.5518454 9.43682738,15.652286 C9.28665926,15.7972754 9.0515211,15.7972754 8.90135298,15.652286 C7.76161965,14.5518454 3.37198873,10.0890357 3.37198873,6.63043478 C3.37198873,3.42877295 5.96745153,0.833333333 9.16909018,0.833333333 Z M9.16909018,4.69806763 C8.10187327,4.69806763 7.23672303,5.56321787 7.23672303,6.63043478 C7.23672303,7.69765169 8.10187327,8.56280193 9.16909018,8.56280193 C10.2363071,8.56280193 11.1014573,7.69765169 11.1014573,6.63043478 C11.1014573,5.56321787 10.2363071,4.69806763 9.16909018,4.69806763 Z" id="path-1"></path>
    </defs>
    <g id="profille_view-mode" stroke="none" stroke-width="1" fill="none" fill-rule="evenodd">
        <g id="attendance-_profile_04" transform="translate(-584.000000, -2871.000000)">
            <g id="Group-29" transform="translate(160.000000, 446.000000)">
                <g id="section-copy" transform="translate(40.000000, 1882.000000)">
                    <g id="mother" transform="translate(384.000000, 543.000000)">
                        <circle id="Oval" fill="#E5EEF7" opacity="0.5" cx="20" cy="20" r="20"></circle>
                        <g id="icon-/-24-/-info-/-current_address" transform="translate(11.000000, 10.000000)">
                            <mask id="mask-2" fill="white">
                                <use xlink:href="#path-1"></use>
                            </mask>
                            <use id="Combined-Shape" fill="#7892B8" fill-rule="nonzero" xlink:href="#path-1"></use>
                            <rect id="Rectangle" fill="#0059B2" mask="url(#mask-2)" x="-1" y="0" width="20" height="20"></rect>
                        </g>
                    </g>
                </g>
            </g>
        </g>
    </g>
</svg>