<?xml version="1.0" encoding="UTF-8"?>
<svg width="27px" height="24px" viewBox="0 0 27 24" version="1.1" xmlns="http://www.w3.org/2000/svg" xmlns:xlink="http://www.w3.org/1999/xlink">
    <!-- Generator: Sketch 59 (86127) - https://sketch.com -->
    <title>Group</title>
    <desc>Created with Sketch.</desc>
    <defs>
        <path d="M0,4 C-1.3527075e-16,2.8954305 0.8954305,2 2,2 L10,2 C11.1045695,2 12,2.8954305 12,4 L12,6.319 L22,6.32 C23.1045695,6.32 24,7.2154305 24,8.32 L24,20.4 C24,21.5045695 23.1045695,22.4 22,22.4 L2,22.4 C0.8954305,22.4 1.3527075e-16,21.5045695 0,20.4 L0,4 Z" id="path-1"></path>
        <path d="M20.9064414,16 C21.9998081,15.9999708 23.0278043,16.4257994 23.8009732,17.1989683 C24.5740983,17.9720933 24.9999123,19.0000749 25,20.0935586 C24.9999708,22.3509269 23.1635758,24.1873219 20.9066169,24.1872634 C19.8132064,24.1871903 18.7852394,23.7613909 18.0120412,22.9881928 C17.6145983,22.5907498 17.309639,22.1255674 17.1064498,21.6191007 L17.1064498,21.6191007 L15.8313624,21.61913 C15.8242258,21.6072258 15.8160801,21.5956581 15.8066767,21.5849385 L15.8066767,21.5849385 L15.0419021,20.707528 C14.9963769,20.6555388 14.9309626,20.6256615 14.8619947,20.6256908 C14.7930414,20.6257054 14.7274225,20.6555535 14.6820873,20.707528 L14.6820873,20.707528 L13.9173712,21.58488 C13.9079532,21.5957019 13.8998221,21.6071966 13.8926563,21.6191007 L13.8926563,21.6191007 L13.3533728,21.6191007 C13.3462362,21.6071966 13.3381344,21.5956727 13.3286871,21.5849092 L13.3286871,21.5849092 L12.563854,20.707528 C12.5179339,20.6555242 12.4529292,20.6257346 12.3839905,20.6257346 C12.315008,20.62572 12.2494182,20.6555973 12.2040831,20.7075719 L12.2040831,20.7075719 L11.439367,21.5849239 C11.4299636,21.5957312 11.4218764,21.607182 11.4146813,21.6190568 L11.4146813,21.6190568 L10.727576,21.6190861 C10.6116789,21.61913 10.4996573,21.5784453 10.4108881,21.5042419 L10.4108881,21.5042419 L9.17696793,20.4721655 C9.06477077,20.3783364 9.00000001,20.2397425 9.00000001,20.0935586 C8.99997076,19.9474039 9.06477077,19.8087808 9.17699718,19.7149809 L9.17699718,19.7149809 L10.4108881,18.6829922 C10.499628,18.6087596 10.6117228,18.568031 10.7275175,18.5680895 L10.7275175,18.5680895 L17.1060842,18.5680895 C17.309288,18.0616375 17.6141742,17.5964405 18.0116756,17.198939 C18.7848738,16.4257409 19.8129139,15.9999269 20.9064414,16 Z M20.9064122,18.4080272 C20.4561611,18.407998 20.0328625,18.5832988 19.7144636,18.9016977 C19.3960939,19.2200674 19.2207639,19.6433952 19.2207931,20.0936463 C19.2207639,20.5438974 19.3960939,20.9671668 19.7144636,21.2855364 C20.0328625,21.6039354 20.4561172,21.77928 20.9063098,21.7793093 C21.8357241,21.7793239 22.5919581,21.0230898 22.5919728,20.0935878 C22.5919581,19.6433806 22.4166281,19.2201113 22.0982292,18.9017123 C21.7798595,18.5833426 21.3565609,18.4079541 20.9064122,18.4080272 Z" id="path-3"></path>
        <filter x="-18.8%" y="-36.6%" width="137.5%" height="173.3%" filterUnits="objectBoundingBox" id="filter-4">
            <feOffset dx="0" dy="0" in="SourceAlpha" result="shadowOffsetOuter1"></feOffset>
            <feGaussianBlur stdDeviation="1" in="shadowOffsetOuter1" result="shadowBlurOuter1"></feGaussianBlur>
            <feColorMatrix values="0 0 0 0 0   0 0 0 0 0   0 0 0 0 0  0 0 0 0.5 0" type="matrix" in="shadowBlurOuter1"></feColorMatrix>
        </filter>
    </defs>
    <g id="📺-Empty-State" stroke="none" stroke-width="1" fill="none" fill-rule="evenodd">
        <g id="icons-copy" transform="translate(-535.000000, -247.000000)">
            <g id="location-&amp;-site-copy-3" transform="translate(527.000000, 237.000000)">
                <g id="Group" transform="translate(8.000000, 8.000000)">
                    <g id="icon-/-24-/-info-/-folder">
                        <rect id="Rectangle" x="0" y="0" width="24" height="24"></rect>
                        <rect id="Rectangle-6" fill="#000000" opacity="0.600000024" style="mix-blend-mode: multiply;" x="1.44" y="4.4" width="19.92" height="5" rx="1"></rect>
                        <mask id="mask-2" fill="white">
                            <use xlink:href="#path-1"></use>
                        </mask>
                        <use id="Combined-Shape" fill="#9A5A1E" xlink:href="#path-1"></use>
                        <g id="pin-3" mask="url(#mask-2)" opacity="0.251013768">
                            <g transform="translate(8.000000, 10.000000)" id="tags-stack">
                                <g>
                                    <path d="M7.74889607,4.20202111 L3.63058967,0.0837147063 C3.57702005,0.0301289014 3.50435898,0 3.42858865,0 L0.285715721,0 C0.127919286,0 0,0.127919286 0,0.285715721 L0,3.42858865 C0,3.50435898 0.0301289014,3.57702005 0.0837147063,3.63058967 L4.20202111,7.74889607 C4.36277156,7.90967375 4.5808123,8 4.80816701,8 C5.03552173,8 5.25356247,7.90967375 5.41431292,7.74889607 L7.74889607,5.41431292 C7.90967375,5.25356247 8,5.03552173 8,4.80816701 C8,4.5808123 7.90967375,4.36277156 7.74889607,4.20202111 L7.74889607,4.20202111 Z M2.28572577,3.14287293 C1.81233646,3.14287293 1.42857861,2.75911508 1.42857861,2.28572577 C1.42857861,1.81233646 1.81233646,1.42857861 2.28572577,1.42857861 C2.75911508,1.42857861 3.14287293,1.81233646 3.14287293,2.28572577 C3.14287293,2.51305533 3.05256662,2.73107407 2.89182034,2.89182034 C2.73107407,3.05256662 2.51305533,3.14287293 2.28572577,3.14287293 Z" id="Shape" fill="#000000"></path>
                                </g>
                            </g>
                        </g>
                    </g>
                    <g id="Combined-Shape" fill-rule="nonzero">
                        <use fill="black" fill-opacity="1" filter="url(#filter-4)" xlink:href="#path-3"></use>
                        <use fill="#FFB803" xlink:href="#path-3"></use>
                    </g>
                </g>
            </g>
        </g>
    </g>
</svg>