<?xml version="1.0" encoding="UTF-8"?>
<svg width="24px" height="21px" viewBox="0 0 24 21" version="1.1" xmlns="http://www.w3.org/2000/svg" xmlns:xlink="http://www.w3.org/1999/xlink">
    <!-- Generator: Sketch 59 (86127) - https://sketch.com -->
    <title>icon / 24 / info / folder</title>
    <desc>Created with Sketch.</desc>
    <defs>
        <path d="M0,4 C-1.3527075e-16,2.8954305 0.8954305,2 2,2 L10,2 C11.1045695,2 12,2.8954305 12,4 L12,6.319 L22,6.32 C23.1045695,6.32 24,7.2154305 24,8.32 L24,20.4 C24,21.5045695 23.1045695,22.4 22,22.4 L2,22.4 C0.8954305,22.4 1.3527075e-16,21.5045695 0,20.4 L0,4 Z" id="path-1"></path>
    </defs>
    <g id="📺-Empty-State" stroke="none" stroke-width="1" fill="none" fill-rule="evenodd">
        <g id="icons-copy" transform="translate(-535.000000, -136.000000)">
            <g id="location-&amp;-site-copy-2" transform="translate(527.000000, 126.000000)">
                <g id="icon-/-24-/-info-/-folder" transform="translate(8.000000, 8.000000)">
                    <rect id="Rectangle" x="0" y="0" width="24" height="24"></rect>
                    <rect id="Rectangle-6" fill="#000000" opacity="0.600000024" style="mix-blend-mode: multiply;" x="1.44" y="4.4" width="19.92" height="5" rx="1"></rect>
                    <mask id="mask-2" fill="white">
                        <use xlink:href="#path-1"></use>
                    </mask>
                    <use id="Combined-Shape" fill="#9A5A1E" xlink:href="#path-1"></use>
                    <g id="pin-3" mask="url(#mask-2)" opacity="0.251013768">
                        <g transform="translate(8.000000, 10.000000)" id="tags-stack">
                            <g>
                                <path d="M7.74889607,4.20202111 L3.63058967,0.0837147063 C3.57702005,0.0301289014 3.50435898,0 3.42858865,0 L0.285715721,0 C0.127919286,0 0,0.127919286 0,0.285715721 L0,3.42858865 C0,3.50435898 0.0301289014,3.57702005 0.0837147063,3.63058967 L4.20202111,7.74889607 C4.36277156,7.90967375 4.5808123,8 4.80816701,8 C5.03552173,8 5.25356247,7.90967375 5.41431292,7.74889607 L7.74889607,5.41431292 C7.90967375,5.25356247 8,5.03552173 8,4.80816701 C8,4.5808123 7.90967375,4.36277156 7.74889607,4.20202111 L7.74889607,4.20202111 Z M2.28572577,3.14287293 C1.81233646,3.14287293 1.42857861,2.75911508 1.42857861,2.28572577 C1.42857861,1.81233646 1.81233646,1.42857861 2.28572577,1.42857861 C2.75911508,1.42857861 3.14287293,1.81233646 3.14287293,2.28572577 C3.14287293,2.51305533 3.05256662,2.73107407 2.89182034,2.89182034 C2.73107407,3.05256662 2.51305533,3.14287293 2.28572577,3.14287293 Z" id="Shape" fill="#000000"></path>
                            </g>
                        </g>
                    </g>
                </g>
            </g>
        </g>
    </g>
</svg>