<?xml version="1.0" encoding="UTF-8"?>
<svg width="16px" height="16px" viewBox="0 0 16 16" version="1.1" xmlns="http://www.w3.org/2000/svg" xmlns:xlink="http://www.w3.org/1999/xlink">
    <title>C5C92796-D908-4E81-B5AE-B488BD0761EB</title>
    <g id="🎭-all-employees_OA" stroke="none" stroke-width="1" fill="none" fill-rule="evenodd">
        <g id="Enable-Service_09" transform="translate(-428.000000, -570.000000)">
            <g id="orgnisation-/-organisation-details-header" transform="translate(160.000000, 128.000000)">
                <g id="product" transform="translate(32.000000, 216.000000)">
                    <g id="Group-7" transform="translate(212.000000, 72.000000)">
                        <g id="Group-16" transform="translate(16.000000, 146.000000)">
                            <g id="Group-19" transform="translate(8.000000, 8.000000)">
                                <rect id="Rectangle" fill="#D8D8D8" opacity="0" x="0" y="0" width="16" height="16"></rect>
                                <g id="Group" transform="translate(2.000000, 2.000000)" stroke="#0059B2">
                                    <path d="M5.14285714,0.428571429 C5.14285714,0.192857143 4.95,0 4.71428571,0 L0.428571429,0 C0.192857143,0 0,0.192857143 0,0.428571429 L0,4.71428571 C0,4.95 0.192857143,5.14285714 0.428571429,5.14285714 L4.71428571,5.14285714 C4.95,5.14285714 5.14285714,4.95 5.14285714,4.71428571 L5.14285714,0.428571429 Z" id="Path"></path>
                                    <path d="M12,0.428571429 C12,0.192857143 11.8071429,0 11.5714286,0 L7.28571429,0 C7.05,0 6.85714286,0.192857143 6.85714286,0.428571429 L6.85714286,4.71428571 C6.85714286,4.95 7.05,5.14285714 7.28571429,5.14285714 L11.5714286,5.14285714 C11.8071429,5.14285714 12,4.95 12,4.71428571 L12,0.428571429 Z" id="Path"></path>
                                    <path d="M7.28571429,12 L11.5714286,12 C11.8071429,12 12,11.8071429 12,11.5714286 L12,7.28571429 C12,7.05 11.8071429,6.85714286 11.5714286,6.85714286 L7.28571429,6.85714286 C7.05,6.85714286 6.85714286,7.05 6.85714286,7.28571429 L6.85714286,11.5714286 C6.85714286,11.8071429 7.05,12 7.28571429,12 Z" id="Path"></path>
                                    <path d="M4.71428571,6.85714286 L0.428571429,6.85714286 C0.192857143,6.85714286 0,7.05 0,7.28571429 L0,11.5714286 C0,11.8071429 0.192857143,12 0.428571429,12 L4.71428571,12 C4.95,12 5.14285714,11.8071429 5.14285714,11.5714286 L5.14285714,7.28571429 C5.14285714,7.05 4.95,6.85714286 4.71428571,6.85714286 Z" id="Path"></path>
                                </g>
                            </g>
                        </g>
                    </g>
                </g>
            </g>
        </g>
    </g>
</svg>