<?xml version="1.0" encoding="UTF-8"?>
<svg width="32px" height="32px" viewBox="0 0 32 32" version="1.1" xmlns="http://www.w3.org/2000/svg" xmlns:xlink="http://www.w3.org/1999/xlink">
    <!-- Generator: Sketch 60.1 (88133) - https://sketch.com -->
    <title>pan card</title>
    <desc>Created with Sketch.</desc>
    <g id="Page-1" stroke="none" stroke-width="1" fill="none" fill-rule="evenodd">
        <g id="pan-card">
            <circle id="Oval" fill="#F3F7FD" cx="16" cy="16" r="16"></circle>
            <g id="Group-25" transform="translate(4.000000, 4.000000)">
                <rect id="Rectangle" fill="#D8D8D8" opacity="0" x="0" y="0" width="24" height="24"></rect>
                <g id="Group-24" transform="translate(4.000000, 3.000000)" fill="#010E39" fill-rule="nonzero" opacity="0.5">
                    <path d="M8,-1.58983937e-13 C4.12631579,-1.58983937e-13 0,1.0326087 0,2.89130435 C0,4.75 4.12631579,5.7826087 8,5.7826087 C11.8736842,5.7826087 16,4.75 16,2.89130435 C16,1.0326087 11.8736842,-1.58983937e-13 8,-1.58983937e-13 Z" id="Path"></path>
                    <path d="M8,6.60869565 C5.51578947,6.60869565 1.68421053,6.15434783 0,4.62608696 L0,9.5 C0,11.3586957 4.12631579,12.3913043 8,12.3913043 C11.8736842,12.3913043 16,11.3586957 16,9.5 L16,4.62608696 C14.3157895,6.15434783 10.4842105,6.60869565 8,6.60869565 Z" id="Path"></path>
                    <path d="M8,13.2173913 C5.51578947,13.2173913 1.68421053,12.7630435 0,11.2347826 L0,16.1086957 C0,17.9673913 4.12631579,19 8,19 C11.8736842,19 16,17.9673913 16,16.1086957 L16,11.2347826 C14.3157895,12.7630435 10.4842105,13.2173913 8,13.2173913 Z" id="Path"></path>
                </g>
            </g>
        </g>
    </g>
</svg>