<?xml version="1.0" encoding="UTF-8"?>
<svg width="88px" height="57px" viewBox="0 0 88 57" version="1.1" xmlns="http://www.w3.org/2000/svg" xmlns:xlink="http://www.w3.org/1999/xlink">
    <!-- Generator: sketchtool 60.1 (101010) - https://sketch.com -->
    <title>A1309DE0-7DD1-4278-9E00-52070ACDA0B8</title>
    <desc>Created with sketchtool.</desc>
    <g id="🖥-Ops_analyst-" stroke="none" stroke-width="1" fill="none" fill-rule="evenodd">
        <g id="task-1" transform="translate(-637.000000, -788.000000)">
            <g id="card-/-🖥-Ops_analyst-/-database" transform="translate(611.000000, 764.000000)">
                <g id="PAN">
                    <g id="pan-cards" transform="translate(26.000000, 24.000000)">
                        <path d="M0.512012012,8.00065503 C0.512012012,3.58201527 4.10135911,0 8.51980537,0 L79.9096241,0 C84.3322062,0 87.9174174,3.58719818 87.9174174,8.00065503 L87.9174174,48.999345 C87.9174174,53.4179847 84.3280703,57 79.9096241,57 L8.51980537,57 C4.09722322,57 0.512012012,53.4128018 0.512012012,48.999345 L0.512012012,8.00065503 Z" id="Rectangle-Copy-13" fill="#6772E5"></path>
                        <g id="Group-25" transform="translate(54.620120, 23.400000)">
                            <rect id="Rectangle" fill="#D8D8D8" opacity="0" x="0" y="0" width="23.7837838" height="24"></rect>
                            <g id="Group-24" transform="translate(2.378378, 0.600000)" fill="#010E39" fill-rule="nonzero" opacity="0.5">
                                <path d="M9.51351351,-1.58983937e-13 C4.90697013,-1.58983937e-13 0,1.23913043 0,3.46956522 C0,5.7 4.90697013,6.93913043 9.51351351,6.93913043 C14.1200569,6.93913043 19.027027,5.7 19.027027,3.46956522 C19.027027,1.23913043 14.1200569,-1.58983937e-13 9.51351351,-1.58983937e-13 Z" id="Path"></path>
                                <path d="M9.51351351,7.93043478 C6.55931721,7.93043478 2.00284495,7.38521739 0,5.55130435 L0,11.4 C0,13.6304348 4.90697013,14.8695652 9.51351351,14.8695652 C14.1200569,14.8695652 19.027027,13.6304348 19.027027,11.4 L19.027027,5.55130435 C17.0241821,7.38521739 12.4677098,7.93043478 9.51351351,7.93043478 Z" id="Path"></path>
                                <path d="M9.51351351,15.8608696 C6.55931721,15.8608696 2.00284495,15.3156522 0,13.4817391 L0,19.3304348 C0,21.5608696 4.90697013,22.8 9.51351351,22.8 C14.1200569,22.8 19.027027,21.5608696 19.027027,19.3304348 L19.027027,13.4817391 C17.0241821,15.3156522 12.4677098,15.8608696 9.51351351,15.8608696 Z" id="Path"></path>
                            </g>
                        </g>
                        <path d="M10.6010931,18.1512 C11.3823904,18.1512 11.9496336,17.8596 12.3349309,17.3628 L12.3349309,18 L13.7155796,18 L13.7155796,10.44 L12.3349309,10.44 L12.3349309,13.2372 C11.9496336,12.7404 11.3823904,12.4488 10.6010931,12.4488 C9.16693093,12.4488 7.98963363,13.6908 7.98963363,15.3 C7.98963363,16.9092 9.16693093,18.1512 10.6010931,18.1512 Z M10.857958,16.8228 C10.0017417,16.8228 9.37028228,16.2072 9.37028228,15.3 C9.37028228,14.3928 10.0017417,13.7772 10.857958,13.7772 C11.7034715,13.7772 12.3349309,14.3928 12.3349309,15.3 C12.3349309,16.2072 11.7034715,16.8228 10.857958,16.8228 Z M17.300985,18.1512 C18.0822823,18.1512 18.6602282,17.8488 19.0455255,17.3628 L19.0455255,18 L20.4261742,18 L20.4261742,12.6 L19.0455255,12.6 L19.0455255,13.2372 C18.6602282,12.7512 18.0822823,12.4488 17.300985,12.4488 C15.8775255,12.4488 14.7002282,13.6908 14.7002282,15.3 C14.7002282,16.9092 15.8775255,18.1512 17.300985,18.1512 Z M17.5578498,16.8228 C16.7123363,16.8228 16.0808769,16.2072 16.0808769,15.3 C16.0808769,14.3928 16.7123363,13.7772 17.5578498,13.7772 C18.4140661,13.7772 19.0455255,14.3928 19.0455255,15.3 C19.0455255,16.2072 18.4140661,16.8228 17.5578498,16.8228 Z M24.7393634,18 L24.7393634,16.7364 C23.9473634,16.7796 23.529958,16.7688 23.529958,16.1856 L23.529958,13.9392 L24.7393634,13.9392 L24.7393634,12.6 L23.529958,12.6 L23.529958,11.088 L22.1493093,11.5092 L22.1493093,12.6 L21.2181742,12.6 L21.2181742,13.9392 L22.1493093,13.9392 L22.1493093,16.1856 C22.1493093,17.6436 22.8021742,18.216 24.7393634,18 Z M27.8752553,18.1512 C28.6565526,18.1512 29.2344985,17.8488 29.6197958,17.3628 L29.6197958,18 L31.0004444,18 L31.0004444,12.6 L29.6197958,12.6 L29.6197958,13.2372 C29.2344985,12.7512 28.6565526,12.4488 27.8752553,12.4488 C26.4517958,12.4488 25.2744985,13.6908 25.2744985,15.3 C25.2744985,16.9092 26.4517958,18.1512 27.8752553,18.1512 Z M28.1321201,16.8228 C27.2866066,16.8228 26.6551471,16.2072 26.6551471,15.3 C26.6551471,14.3928 27.2866066,13.7772 28.1321201,13.7772 C28.9883363,13.7772 29.6197958,14.3928 29.6197958,15.3 C29.6197958,16.2072 28.9883363,16.8228 28.1321201,16.8228 Z M35.3671471,18.1512 C36.8013093,18.1512 37.9786066,16.9092 37.9786066,15.3 C37.9786066,13.6908 36.8013093,12.4488 35.3671471,12.4488 C34.5858498,12.4488 34.0186066,12.7404 33.6333093,13.2372 L33.6333093,10.44 L32.2526607,10.44 L32.2526607,18 L33.6333093,18 L33.6333093,17.3628 C34.0186066,17.8596 34.5858498,18.1512 35.3671471,18.1512 Z M35.1102823,16.8228 C34.2647688,16.8228 33.6333093,16.2072 33.6333093,15.3 C33.6333093,14.3928 34.2647688,13.7772 35.1102823,13.7772 C35.9664985,13.7772 36.597958,14.3928 36.597958,15.3 C36.597958,16.2072 35.9664985,16.8228 35.1102823,16.8228 Z M41.275039,18.1512 C42.0563363,18.1512 42.6342823,17.8488 43.0195796,17.3628 L43.0195796,18 L44.4002282,18 L44.4002282,12.6 L43.0195796,12.6 L43.0195796,13.2372 C42.6342823,12.7512 42.0563363,12.4488 41.275039,12.4488 C39.8515796,12.4488 38.6742823,13.6908 38.6742823,15.3 C38.6742823,16.9092 39.8515796,18.1512 41.275039,18.1512 Z M41.5319039,16.8228 C40.6863904,16.8228 40.0549309,16.2072 40.0549309,15.3 C40.0549309,14.3928 40.6863904,13.7772 41.5319039,13.7772 C42.3881201,13.7772 43.0195796,14.3928 43.0195796,15.3 C43.0195796,16.2072 42.3881201,16.8228 41.5319039,16.8228 Z M47.4933093,18.1512 C48.6384985,18.1512 49.6445526,17.5896 49.6445526,16.4232 C49.6445526,14.436 46.8832553,14.9328 46.8832553,14.1336 C46.8832553,13.842 47.1615255,13.6908 47.504012,13.6908 C47.900012,13.6908 48.1996877,13.896 48.3602282,14.2416 L49.5375255,13.5936 C49.1201201,12.8484 48.3709309,12.4488 47.504012,12.4488 C46.4016336,12.4488 45.4704985,13.0644 45.4704985,14.166 C45.4704985,16.0668 48.2317958,15.6348 48.2317958,16.4232 C48.2317958,16.7364 47.9321201,16.8876 47.4933093,16.8876 C46.9581742,16.8876 46.5942823,16.6284 46.4444444,16.1856 L45.2457417,16.866 C45.631039,17.6976 46.423039,18.1512 47.4933093,18.1512 Z M53.1122282,18.1512 C54.1396877,18.1512 54.9423904,17.73 55.4454174,16.9956 L54.3323363,16.3476 C54.0968769,16.6608 53.6687688,16.8876 53.1336336,16.8876 C52.4058498,16.8876 51.8172012,16.5852 51.6245526,15.8724 L55.6594715,15.8724 C55.6915796,15.6888 55.712985,15.5052 55.712985,15.3 C55.712985,13.7124 54.5892012,12.4488 53.0052012,12.4488 C51.3248769,12.4488 50.1796877,13.6908 50.1796877,15.3 C50.1796877,16.9092 51.3141742,18.1512 53.1122282,18.1512 Z M54.3323363,14.7924 L51.6031471,14.7924 C51.7636877,14.1012 52.2667147,13.7016 53.0052012,13.7016 C53.5831471,13.7016 54.1610931,14.0148 54.3323363,14.7924 Z M10.8258498,32.5512 C11.8747147,32.5512 12.7844444,31.9896 13.2446607,31.1472 L12.045958,30.456 C11.8319039,30.8988 11.3716877,31.1688 10.8151471,31.1688 C9.99103904,31.1688 9.38098498,30.5532 9.38098498,29.7 C9.38098498,28.836 9.99103904,28.2204 10.8151471,28.2204 C11.360985,28.2204 11.8212012,28.5012 12.0352553,28.944 L13.2232553,28.242 C12.7844444,27.4104 11.8747147,26.8488 10.8258498,26.8488 C9.19903904,26.8488 8.00033634,28.0908 8.00033634,29.7 C8.00033634,31.3092 9.19903904,32.5512 10.8258498,32.5512 Z M15.3530931,32.4 L15.3530931,29.484 C15.3530931,28.5444 15.8561201,28.1448 16.5303904,28.1448 C17.1511471,28.1448 17.589958,28.5228 17.589958,29.2572 L17.589958,32.4 L18.9706066,32.4 L18.9706066,29.0844 C18.9706066,27.648 18.0822823,26.8488 16.9477958,26.8488 C16.2307147,26.8488 15.6741742,27.1188 15.3530931,27.6048 L15.3530931,24.84 L13.9724444,24.84 L13.9724444,32.4 L15.3530931,32.4 Z M22.8021742,32.5512 C23.8296336,32.5512 24.6323363,32.13 25.1353634,31.3956 L24.0222823,30.7476 C23.7868228,31.0608 23.3587147,31.2876 22.8235796,31.2876 C22.0957958,31.2876 21.5071471,30.9852 21.3144985,30.2724 L25.3494174,30.2724 C25.3815255,30.0888 25.4029309,29.9052 25.4029309,29.7 C25.4029309,28.1124 24.2791471,26.8488 22.6951471,26.8488 C21.0148228,26.8488 19.8696336,28.0908 19.8696336,29.7 C19.8696336,31.3092 21.0041201,32.5512 22.8021742,32.5512 Z M24.0222823,29.1924 L21.2930931,29.1924 C21.4536336,28.5012 21.9566607,28.1016 22.6951471,28.1016 C23.2730931,28.1016 23.851039,28.4148 24.0222823,29.1924 Z M28.8706066,32.5512 C29.9194715,32.5512 30.8292012,31.9896 31.2894174,31.1472 L30.0907147,30.456 C29.8766607,30.8988 29.4164444,31.1688 28.8599039,31.1688 C28.0357958,31.1688 27.4257417,30.5532 27.4257417,29.7 C27.4257417,28.836 28.0357958,28.2204 28.8599039,28.2204 C29.4057417,28.2204 29.865958,28.5012 30.080012,28.944 L31.268012,28.242 C30.8292012,27.4104 29.9194715,26.8488 28.8706066,26.8488 C27.2437958,26.8488 26.0450931,28.0908 26.0450931,29.7 C26.0450931,31.3092 27.2437958,32.5512 28.8706066,32.5512 Z M33.3978498,32.4 L33.3978498,29.9484 L35.3457417,32.4 L36.9511471,32.4 L34.7356877,29.6676 L36.8869309,27 L35.2387147,27 L33.3978498,29.376 L33.3978498,24.84 L32.0172012,24.84 L32.0172012,32.4 L33.3978498,32.4 Z" id="databasecheck" fill="#FFFFFF" fill-rule="nonzero"></path>
                    </g>
                </g>
            </g>
        </g>
    </g>
</svg>