<?xml version="1.0" encoding="UTF-8"?>
<svg width="10px" height="11px" viewBox="0 0 10 11" version="1.1" xmlns="http://www.w3.org/2000/svg" xmlns:xlink="http://www.w3.org/1999/xlink">
    <!-- Generator: Sketch 63.1 (92452) - https://sketch.com -->
    <title>icon / 12 / info / manager</title>
    <desc>Created with Sketch.</desc>
    <defs>
        <path d="M6.04372088,1.00215911 L6.13045557,1.01943197 L10.6759459,2.38307907 C10.7982196,2.41989755 10.8991295,2.50580731 10.9545845,2.62080822 C11.0100395,2.73580912 11.0150395,2.86853744 10.9677664,2.98717474 L10.9677664,2.98717474 L10.0909413,5.17901018 L10.0909413,7.81857643 C10.0909413,10.0745033 8.25592686,11.9095177 6,11.9095177 C3.74407314,11.9095177 1.90905869,10.0745033 1.90905869,7.81857643 L1.90905869,7.81857643 L1.90905869,5.17901018 L1.0322336,2.98717474 C0.984960505,2.86853744 0.989960544,2.73580912 1.04541553,2.62080822 C1.10087051,2.50580731 1.20132584,2.41989755 1.32405408,2.38307907 L1.32405408,2.38307907 L5.86954443,1.01943197 C5.9545451,0.993522676 6.04500035,0.993522676 6.13045557,1.01943197 Z M9.18184324,6.90947836 L2.81815676,6.90947836 L2.81815676,7.81857643 C2.81815676,9.57268115 4.24589528,11.0004197 6,11.0004197 C7.75410472,11.0004197 9.18184324,9.57268115 9.18184324,7.81857643 L9.18184324,7.81857643 L9.18184324,6.90947836 Z M5.8999596,2.7 C5.85873521,2.7 5.82109208,2.72342854 5.80282417,2.76038438 L5.80282417,2.76038438 L5.39797911,3.58048851 L4.49274036,3.71287675 C4.45194994,3.71875842 4.41804518,3.74730656 4.40530329,3.78649963 C4.39256139,3.82569271 4.40319626,3.86872094 4.43272957,3.89746526 L4.43272957,3.89746526 L5.08790165,4.53532403 L4.93325344,5.43639717 C4.92634233,5.47701449 4.94304698,5.51803954 4.97636539,5.54227614 C5.00968381,5.56651274 5.05385925,5.56977327 5.09037498,5.55069105 L5.09037498,5.55069105 L5.90006509,5.12527831 L6.70962502,5.55030053 C6.74611178,5.56946866 6.79031568,5.56626635 6.82365873,5.54203946 C6.85700177,5.51781258 6.87370429,5.47676059 6.86674656,5.43613682 L6.86674656,5.43613682 L6.71209835,4.53454298 L7.36727043,3.89668421 C7.39680374,3.86793989 7.40743861,3.82491166 7.39469671,3.78571858 C7.38195482,3.74652551 7.34805006,3.71797737 7.30725964,3.7120957 L7.30725964,3.7120957 L6.40202089,3.58035833 L5.99717583,2.7602542 C5.97885844,2.72332287 5.94118398,2.7 5.8999596,2.7 Z" id="path-1"></path>
    </defs>
    <g id="🎭-all-employees_OA" stroke="none" stroke-width="1" fill="none" fill-rule="evenodd">
        <g id="icon-/-12-/-info-/-manager" transform="translate(-1.000000, -1.000000)">
            <mask id="mask-2" fill="white">
                <use xlink:href="#path-1"></use>
            </mask>
            <use id="Combined-Shape" fill="#000000" fill-rule="nonzero" xlink:href="#path-1"></use>
            <rect id="Rectangle" fill="#8697A8" fill-rule="evenodd" mask="url(#mask-2)" x="0" y="0" width="12" height="12"></rect>
        </g>
    </g>
</svg>