<?xml version="1.0" encoding="UTF-8"?>
<svg width="24px" height="24px" viewBox="0 0 24 24" version="1.1" xmlns="http://www.w3.org/2000/svg" xmlns:xlink="http://www.w3.org/1999/xlink">
    <!-- Generator: Sketch 63.1 (92452) - https://sketch.com -->
    <title>default_24</title>
    <desc>Created with Sketch.</desc>
    <g id="🖥-Ops_analyst-" stroke="none" stroke-width="1" fill="none" fill-rule="evenodd">
        <g id="physical-verification_08" transform="translate(-860.000000, -1092.000000)">
            <g id="pan-details-copy" transform="translate(160.000000, 284.000000)">
                <g id="default_24" transform="translate(700.000000, 808.000000)">
                    <rect id="Rectangle" fill="#E5EEF7" x="0" y="0" width="24" height="24" rx="12"></rect>
                    <path d="M12.1387411,14.2826663 C14.3247619,14.4490785 16.2755276,15.1626471 16.2755276,16.3814314 C16.2755276,17.7842309 13.6910518,18.5183309 11.1378358,18.5183309 C8.58461982,18.5183309 6,17.7842309 6,16.3814314 C6,15.165715 7.94137941,14.4525405 10.1211059,14.2838809 L10.1205744,15.1506878 C8.12875926,15.3167804 6.86432499,15.9452096 6.86432499,16.3814314 C6.86432499,16.8880699 8.56877386,17.6540059 11.1378358,17.6540059 C13.7067537,17.6540059 15.4112026,16.8880699 15.4112026,16.3814314 C15.4112026,15.9329533 14.0748449,15.2813154 11.985496,15.1377974 L12.138,15.149 Z M10.7056733,5 L18,8.31353389 L11.5699983,11.2342321 L11.569,13.919 L11.5619313,13.9199779 L11.5619313,15.2164654 L11.569,15.216 L11.5699983,16.3311565 L10.7056733,16.3311565 L10.7056733,15.1164918 C10.7029706,15.1165842 10.700269,15.1166774 10.6975684,15.1167715 L10.697,14.251 L10.7056733,14.2518787 L10.7056733,5 Z" id="Combined-Shape" fill="#0059B2"></path>
                </g>
            </g>
        </g>
    </g>
</svg>