<?xml version="1.0" encoding="UTF-8"?>
<svg width="64px" height="64px" viewBox="0 0 64 64" version="1.1" xmlns="http://www.w3.org/2000/svg" xmlns:xlink="http://www.w3.org/1999/xlink">
    <!-- Generator: sketchtool 61.2 (101010) - https://sketch.com -->
    <title>D299352F-5E5D-4756-8BA5-E8A3B4498A13</title>
    <desc>Created with sketchtool.</desc>
    <defs>
        <path d="M32,0 C49.673112,-3.24649801e-15 64,14.326888 64,32 C64,49.673112 49.673112,64 32,64 C14.326888,64 2.164332e-15,49.673112 0,32 C-2.164332e-15,14.326888 14.326888,3.24649801e-15 32,0 Z M32.2051282,17 C28.1267177,17 24.8205128,20.3062049 24.8205128,24.3846154 C24.8205128,26.8728843 26.0511854,29.0737142 27.937384,30.4106964 C21.1232383,31.8143012 16,37.8471537 16,45.0769231 L16,45.0769231 L16,47.7435897 L19.2882704,47.7435897 L19.2882704,45.0769231 L19.2927604,44.7933903 C19.4837577,38.7555394 25.7314995,33.4358974 30.974359,33.4358974 L30.974359,33.4358974 L33.4358974,33.4358974 L33.6823339,33.4403557 C38.9535276,33.6300088 45.0769231,39.8340636 45.0769231,45.0769231 L45.0769231,45.0769231 L45.0769231,47.7435897 L48.4102564,47.7435897 L48.4102564,45.0769231 L48.4065171,44.7389174 C48.2497425,37.6597575 43.1805522,31.7923845 36.4731997,30.4116312 C38.359071,29.0737142 39.5897436,26.8728843 39.5897436,24.3846154 C39.5897436,20.3062049 36.2835387,17 32.2051282,17 Z" id="path-1"></path>
    </defs>
    <g id="🖥-Ops_analyst-" stroke="none" stroke-width="1" fill="none" fill-rule="evenodd">
        <g id="educationVerification_06A" transform="translate(-936.000000, -364.000000)">
            <g id="icon-/-24-/-info-/-profile" transform="translate(936.000000, 364.000000)">
                <mask id="mask-2" fill="white">
                    <use xlink:href="#path-1"></use>
                </mask>
                <use id="Combined-Shape" fill="#F4F7FB" xlink:href="#path-1"></use>
            </g>
        </g>
    </g>
</svg>