<?xml version="1.0" encoding="UTF-8"?>
<svg width="10px" height="12px" viewBox="0 0 10 12" version="1.1" xmlns="http://www.w3.org/2000/svg" xmlns:xlink="http://www.w3.org/1999/xlink">
    <!-- Generator: Sketch 63.1 (92452) - https://sketch.com -->
    <title>icon / 16 / info / location</title>
    <desc>Created with Sketch.</desc>
    <defs>
        <path d="M6,0.75 C3.8,0.75 1.5,2.41304348 1.5,5.15217391 C1.5,7.74456522 5.5,11.7065217 5.65,11.8532609 C5.75,11.951087 5.85,12 6,12 C6.15,12 6.25,11.951087 6.35,11.8532609 C6.5,11.7065217 10.5,7.74456522 10.5,5.15217391 C10.5,2.41304348 8.2,0.75 6,0.75 Z M6,6.75 C5.15,6.75 4.5,6.1 4.5,5.25 C4.5,4.4 5.15,3.75 6,3.75 C6.85,3.75 7.5,4.4 7.5,5.25 C7.5,6.1 6.85,6.75 6,6.75 Z" id="path-1"></path>
    </defs>
    <g id="🎭-all-employees_OA" stroke="none" stroke-width="1" fill="none" fill-rule="evenodd">
        <g id="icon-/-16-/-info-/-location" transform="translate(-1.000000, 0.000000)">
            <mask id="mask-2" fill="white">
                <use xlink:href="#path-1"></use>
            </mask>
            <use id="Shape" fill="#000000" fill-rule="nonzero" xlink:href="#path-1"></use>
            <rect id="Rectangle" fill="#8697A8" fill-rule="evenodd" mask="url(#mask-2)" x="0" y="0" width="12" height="12"></rect>
        </g>
    </g>
</svg>