<?xml version="1.0" encoding="UTF-8"?>
<svg width="48px" height="48px" viewBox="0 0 48 48" version="1.1" xmlns="http://www.w3.org/2000/svg" xmlns:xlink="http://www.w3.org/1999/xlink">
    <!-- Generator: sketchtool 63.1 (101010) - https://sketch.com -->
    <title>8EEE5CA5-3624-4E85-957B-20CFB7269DC6</title>
    <desc>Created with sketchtool.</desc>
    <g id="🖥-Ops_analyst-" stroke="none" stroke-width="1" fill="none" fill-rule="evenodd">
        <g id="physical-verification_08" transform="translate(-309.000000, -654.000000)">
            <g id="pan-details-copy" transform="translate(160.000000, 284.000000)">
                <g id="Group-5" transform="translate(149.000000, 370.000000)">
                    <path d="M24.0109478,48 C36.8808932,48 48,36.9239171 48,24 C48,11.0760829 37.1946782,0 23.9525896,0 C10.710501,0 0,10.7418252 0,24 C0,37.2581748 11.1410023,48 24.0109478,48 Z" id="Oval" fill="#FFFFFF"></path>
                    <g id="noun_Delete_2025452" transform="translate(17.142857, 16.285714)" fill="#EE3942">
                        <g id="Group">
                            <path d="M12.225784,1.40487805 L8.71358885,1.40487805 C8.71358885,0.63554007 8.07804878,0 7.3087108,0 L6.37212544,0 C5.60278746,0 4.96724739,0.63554007 4.96724739,1.40487805 L1.45505226,1.40487805 C0.685714286,1.40487805 0.050174216,2.04041812 0.050174216,2.8097561 L0.050174216,3.01045296 C0.050174216,3.16097561 0.167247387,3.27804878 0.317770035,3.27804878 L13.3296167,3.27804878 C13.4801394,3.27804878 13.5972125,3.16097561 13.5972125,3.01045296 L13.5972125,2.8097561 C13.630662,2.04041812 13.0118467,1.40487805 12.225784,1.40487805 Z" id="Path"></path>
                            <path d="M1.2543554,14.4836237 C1.2543554,15.2529617 1.88989547,15.8885017 2.65923345,15.8885017 L11.071777,15.8885017 C11.841115,15.8885017 12.4766551,15.2529617 12.4766551,14.4836237 L12.4766551,4.21463415 L1.2543554,4.21463415 L1.2543554,14.4836237 Z M8.09477352,7.37560976 C8.09477352,7.02439024 8.37909408,6.74006969 8.73031359,6.74006969 C9.0815331,6.74006969 9.36585366,7.02439024 9.36585366,7.37560976 L9.36585366,12.7108014 C9.36585366,13.0620209 9.0815331,13.3463415 8.73031359,13.3463415 C8.37909408,13.3463415 8.09477352,13.0620209 8.09477352,12.7108014 L8.09477352,7.37560976 L8.09477352,7.37560976 Z M4.36515679,7.37560976 C4.36515679,7.02439024 4.64947735,6.74006969 5.00069686,6.74006969 C5.35191638,6.74006969 5.63623693,7.02439024 5.63623693,7.37560976 L5.63623693,12.7108014 C5.63623693,13.0620209 5.35191638,13.3463415 5.00069686,13.3463415 C4.64947735,13.3463415 4.36515679,13.0620209 4.36515679,12.7108014 L4.36515679,7.37560976 Z" id="Shape"></path>
                        </g>
                    </g>
                </g>
            </g>
        </g>
    </g>
</svg>