<?xml version="1.0" encoding="UTF-8"?>
<svg width="40px" height="40px" viewBox="0 0 40 40" version="1.1" xmlns="http://www.w3.org/2000/svg" xmlns:xlink="http://www.w3.org/1999/xlink">
    <!-- Generator: sketchtool 55.2 (78181) - https://sketchapp.com -->
    <title>C5DA313A-6DB4-41BD-81AA-6D8D7D989B20</title>
    <desc>Created with sketchtool.</desc>
    <defs>
        <rect id="path-1" x="0" y="0" width="40" height="40" rx="19.5"></rect>
        <path d="M15.9093166,13.9750758 L8.57598327,1.3084091 C8.44736114,1.11571639 8.23099338,1 7.9993166,1 C7.76763982,1 7.55127206,1.11571639 7.42264993,1.3084091 L0.0893165997,13.9750758 C-0.0297110547,14.1812374 -0.0297762607,14.4352239 0.0891455222,14.6414466 C0.208067305,14.8476694 0.427928333,14.9748317 0.665983266,14.9750758 L15.3326499,14.9750758 C15.5707049,14.9748317 15.7905659,14.8476694 15.9094877,14.6414466 C16.0284095,14.4352239 16.0283443,14.1812374 15.9093166,13.9750758 L15.9093166,13.9750758 Z M8.8033166,5.64174243 L8.48798327,10.0417424 L7.51064993,10.0417424 L7.2133166,5.64174243 L8.8033166,5.64174243 Z M7.9993166,12.9750758 C7.45918211,12.9750758 7.0213166,12.5372103 7.0213166,11.9970758 C7.0213166,11.4569413 7.45918211,11.0190758 7.9993166,11.0190758 C8.53945109,11.0190758 8.9773166,11.4569413 8.9773166,11.9970758 C8.9773166,12.5372103 8.53945109,12.9750758 7.9993166,12.9750758 Z" id="path-3"></path>
    </defs>
    <g id="ðŸ‚-on-boarding" stroke="none" stroke-width="1" fill="none" fill-rule="evenodd">
        <g id="03-BGV-Client-onboarding_fun&amp;role_E10" transform="translate(-700.000000, -355.000000)">
            <g id="popup" transform="translate(504.000000, 307.000000)">
                <g id="delet-icon" transform="translate(196.000000, 48.000000)">
                    <g id="icon-/-40-/-info-/-container">
                        <mask id="mask-2" fill="white">
                            <use xlink:href="#path-1"></use>
                        </mask>
                        <use fill="#F3F7FD" xlink:href="#path-1"></use>
                    </g>
                    <g id="icon-/-16-/-info-/-onhold" transform="translate(12.000000, 12.000000)">
                        <mask id="mask-4" fill="white">
                            <use xlink:href="#path-3"></use>
                        </mask>
                        <use id="Shape" fill="#000000" fill-rule="nonzero" xlink:href="#path-3"></use>
                        <rect id="Rectangle" fill="#8697A8" mask="url(#mask-4)" x="0" y="0" width="16" height="16"></rect>
                    </g>
                </g>
            </g>
        </g>
    </g>
</svg>