<?xml version="1.0" encoding="UTF-8"?>
<svg width="16px" height="15px" viewBox="0 0 16 15" version="1.1" xmlns="http://www.w3.org/2000/svg" xmlns:xlink="http://www.w3.org/1999/xlink">
    <!-- Generator: sketchtool 57.1 (101010) - https://sketch.com -->
    <title>8CF79405-8736-4BA4-A80F-6E7363719DED</title>
    <desc>Created with sketchtool.</desc>
    <g id="🚀-Initiate-BGV" stroke="none" stroke-width="1" fill="none" fill-rule="evenodd">
        <g id="BGV-Client-zomato-single-employee-initiateing_B2" transform="translate(-434.000000, -96.000000)" fill="#8697A8" fill-rule="nonzero">
            <g id="action-bar" transform="translate(160.000000, 96.000000)">
                <g id="deploy" transform="translate(274.000000, 0.000000)">
                    <path d="M15.3333333,2.66666667 L8.33333333,2.66666667 L6.33333333,-5.32907052e-15 L0.666666667,-5.32907052e-15 C0.298476833,-5.32907052e-15 0,0.298476833 0,0.666666667 L0,12.6666667 C0,13.7712362 0.8954305,14.6666667 2,14.6666667 L14,14.6666667 C15.1045695,14.6666667 16,13.7712362 16,12.6666667 L16,3.33333333 C16,2.9651435 15.7015232,2.66666667 15.3333333,2.66666667 Z M10.6666667,9.60933333 L8.66666667,7.60933333 L8.66666667,12.6666667 L7.33333333,12.6666667 L7.33333333,7.60933333 L5.33333333,9.60933333 L4.39066667,8.66666667 L7.52866667,5.52866667 C7.7889999,5.26841204 8.2110001,5.26841204 8.47133333,5.52866667 L11.6093333,8.66666667 L10.6666667,9.60933333 Z" id="Shape"></path>
                </g>
            </g>
        </g>
    </g>
</svg>