<?xml version="1.0" encoding="UTF-8"?>
<svg width="16px" height="15px" viewBox="0 0 16 15" version="1.1" xmlns="http://www.w3.org/2000/svg" xmlns:xlink="http://www.w3.org/1999/xlink">
    <!-- Generator: sketchtool 58 (101010) - https://sketch.com -->
    <title>510ECEED-4BA4-4FB6-8C83-6287C74E3873</title>
    <desc>Created with sketchtool.</desc>
    <defs>
        <path d="M6.33333333,1 L8.33333333,3.66666667 L15.3333333,3.66666667 C15.7015232,3.66666667 16,3.9651435 16,4.33333333 L16,4.33333333 L16,13.6666667 C16,14.7712362 15.1045695,15.6666667 14,15.6666667 L14,15.6666667 L2,15.6666667 C0.8954305,15.6666667 0,14.7712362 0,13.6666667 L0,13.6666667 L0,1.66666667 C0,1.29847683 0.298476833,1 0.666666667,1 L0.666666667,1 L6.33333333,1 Z M8.47133333,6.52866667 C8.2110001,6.26841204 7.7889999,6.26841204 7.52866667,6.52866667 L7.52866667,6.52866667 L4.39066667,9.66666667 L5.33333333,10.6093333 L7.33333333,8.60933333 L7.33333333,13.6666667 L8.66666667,13.6666667 L8.66666667,8.60933333 L10.6666667,10.6093333 L11.6093333,9.66666667 Z" id="path-1"></path>
    </defs>
    <g id="🚀-Initiate-BGV" stroke="none" stroke-width="1" fill="none" fill-rule="evenodd">
        <g id="assets" transform="translate(-334.000000, -187.000000)">
            <g id="icon-/-16-/-info-/-action_bar--/-deploy-2" transform="translate(334.000000, 186.000000)">
                <mask id="mask-2" fill="white">
                    <use xlink:href="#path-1"></use>
                </mask>
                <use id="Combined-Shape" fill="#8697A8" fill-rule="nonzero" xlink:href="#path-1"></use>
                <rect id="Rectangle" fill="#0059B2" mask="url(#mask-2)" x="0" y="0" width="16" height="16"></rect>
            </g>
        </g>
    </g>
</svg>