<?xml version="1.0" encoding="UTF-8"?>
<svg width="88px" height="57px" viewBox="0 0 88 57" version="1.1" xmlns="http://www.w3.org/2000/svg" xmlns:xlink="http://www.w3.org/1999/xlink">
    <!-- Generator: Sketch 60.1 (88133) - https://sketch.com -->
    <title>driving license cards copy</title>
    <desc>Created with Sketch.</desc>
    <defs>
        <rect id="path-1" x="2.37837838" y="2.47826087" width="23.7837838" height="24.7826087"></rect>
    </defs>
    <g id="📺-Empty-State" stroke="none" stroke-width="1" fill="none" fill-rule="evenodd">
        <g id="icons-copy" transform="translate(-836.000000, -237.000000)">
            <g id="ids" transform="translate(836.000000, 69.000000)">
                <g id="driving-license-cards-copy" transform="translate(0.000000, 168.000000)">
                    <path d="M1.70974346e-14,8.00065503 C1.70974346e-14,3.58201527 3.58618247,0 8.00361999,0 L79.99638,0 C84.4166573,0 88,3.58719818 88,8.00065503 L88,48.999345 C88,53.4179847 84.4138175,57 79.99638,57 L8.00361999,57 C3.58334272,57 1.70974346e-14,53.4128018 1.70974346e-14,48.999345 L1.70974346e-14,8.00065503 Z" id="Rectangle-Copy-13" fill="#FFCE06"></path>
                    <path d="M13.3855135,6.93913043 L13.3855135,10.7903478 C12.8717838,10.1063478 12.1154595,9.70486957 11.0737297,9.70486957 C9.16151351,9.70486957 7.59178378,11.4148696 7.59178378,13.6304348 C7.59178378,15.846 9.16151351,17.556 11.0737297,17.556 C12.1154595,17.556 12.8717838,17.1545217 13.3855135,16.4705217 L13.3855135,17.3478261 L15.2263784,17.3478261 L15.2263784,6.93913043 L13.3855135,6.93913043 Z M11.4162162,15.7270435 C10.2745946,15.7270435 9.43264865,14.8794783 9.43264865,13.6304348 C9.43264865,12.3813913 10.2745946,11.5338261 11.4162162,11.5338261 C12.5435676,11.5338261 13.3855135,12.3813913 13.3855135,13.6304348 C13.3855135,14.8794783 12.5435676,15.7270435 11.4162162,15.7270435 Z M18.7511351,11.1918261 L18.7511351,9.91304348 L16.9102703,9.91304348 L16.9102703,17.3478261 L18.7511351,17.3478261 L18.7511351,13.794 C18.7511351,12.2326957 19.9641081,11.7866087 20.9202162,11.9055652 L20.9202162,9.76434783 C20.0211892,9.76434783 19.1221622,10.1806957 18.7511351,11.1918261 Z M22.9037838,9.02086957 C23.5316757,9.02086957 24.0454054,8.48556522 24.0454054,7.84617391 C24.0454054,7.20678261 23.5316757,6.6566087 22.9037838,6.6566087 C22.2901622,6.6566087 21.7764324,7.20678261 21.7764324,7.84617391 C21.7764324,8.48556522 22.2901622,9.02086957 22.9037838,9.02086957 Z M21.9904865,17.3478261 L23.8313514,17.3478261 L23.8313514,9.91304348 L21.9904865,9.91304348 L21.9904865,17.3478261 Z M30.2101622,9.91304348 L28.4691892,15.1173913 L26.7424865,9.91304348 L24.7161081,9.91304348 L27.4274595,17.3478261 L29.5251892,17.3478261 L32.2365405,9.91304348 L30.2101622,9.91304348 Z M34.0345946,9.02086957 C34.6624865,9.02086957 35.1762162,8.48556522 35.1762162,7.84617391 C35.1762162,7.20678261 34.6624865,6.6566087 34.0345946,6.6566087 C33.420973,6.6566087 32.9072432,7.20678261 32.9072432,7.84617391 C32.9072432,8.48556522 33.420973,9.02086957 34.0345946,9.02086957 Z M33.1212973,17.3478261 L34.9621622,17.3478261 L34.9621622,9.91304348 L33.1212973,9.91304348 L33.1212973,17.3478261 Z M40.6131892,9.70486957 C39.6570811,9.70486957 38.915027,10.0766087 38.4869189,10.7457391 L38.4869189,9.91304348 L36.6460541,9.91304348 L36.6460541,17.3478261 L38.4869189,17.3478261 L38.4869189,13.3330435 C38.4869189,12.0393913 39.1576216,11.4892174 40.0566486,11.4892174 C40.8843243,11.4892174 41.4694054,12.0096522 41.4694054,13.0207826 L41.4694054,17.3478261 L43.3102703,17.3478261 L43.3102703,12.7828696 C43.3102703,10.8052174 42.1258378,9.70486957 40.6131892,9.70486957 Z M50.3455135,9.91304348 L50.3455135,10.8349565 C49.8460541,10.136087 49.0754595,9.70486957 48.0622703,9.70486957 C46.0358919,9.70486957 44.508973,11.4297391 44.508973,13.5114783 C44.508973,15.608087 46.0358919,17.318087 48.0622703,17.318087 C49.0754595,17.318087 49.8460541,16.8868696 50.3455135,16.188 L50.3455135,16.9909565 C50.3455135,18.1656522 49.632,18.819913 48.4761081,18.819913 C47.3772973,18.819913 46.9063784,18.3589565 46.6067027,17.7790435 L45.036973,18.7158261 C45.6648649,19.9202609 46.8921081,20.529913 48.419027,20.529913 C50.3027027,20.529913 52.1435676,19.4295652 52.1435676,16.9909565 L52.1435676,9.91304348 L50.3455135,9.91304348 Z M48.3476757,15.5486087 C47.1917838,15.5486087 46.3498378,14.7010435 46.3498378,13.5114783 C46.3498378,12.3367826 47.1917838,11.4892174 48.3476757,11.4892174 C49.5035676,11.4892174 50.3455135,12.3367826 50.3455135,13.5114783 C50.3455135,14.7010435 49.5035676,15.5486087 48.3476757,15.5486087 Z M7.97708108,32.2173913 L9.81794595,32.2173913 L9.81794595,21.3626087 L7.97708108,21.3626087 L7.97708108,32.2173913 Z M12.4151351,23.8904348 C13.043027,23.8904348 13.5567568,23.3551304 13.5567568,22.7157391 C13.5567568,22.0763478 13.043027,21.5261739 12.4151351,21.5261739 C11.8015135,21.5261739 11.2877838,22.0763478 11.2877838,22.7157391 C11.2877838,23.3551304 11.8015135,23.8904348 12.4151351,23.8904348 Z M11.5018378,32.2173913 L13.3427027,32.2173913 L13.3427027,24.7826087 L11.5018378,24.7826087 L11.5018378,32.2173913 Z M18.4229189,32.4255652 C19.8214054,32.4255652 21.0343784,31.6523478 21.648,30.4925217 L20.0497297,29.5408696 C19.7643243,30.1505217 19.1507027,30.5222609 18.4086486,30.5222609 C17.3098378,30.5222609 16.4964324,29.6746957 16.4964324,28.5 C16.4964324,27.3104348 17.3098378,26.4628696 18.4086486,26.4628696 C19.1364324,26.4628696 19.7500541,26.8494783 20.0354595,27.4591304 L21.6194595,26.4926087 C21.0343784,25.3476522 19.8214054,24.5744348 18.4229189,24.5744348 C16.2538378,24.5744348 14.6555676,26.2844348 14.6555676,28.5 C14.6555676,30.7155652 16.2538378,32.4255652 18.4229189,32.4255652 Z M24.0596757,29.288087 L29.4395676,29.288087 C29.4823784,29.0353043 29.5109189,28.7825217 29.5109189,28.5 C29.5109189,26.3141739 28.0125405,24.5744348 25.9005405,24.5744348 C23.6601081,24.5744348 22.1331892,26.2844348 22.1331892,28.5 C22.1331892,30.7155652 23.6458378,32.4255652 26.0432432,32.4255652 C27.4131892,32.4255652 28.4834595,31.8456522 29.1541622,30.8345217 L27.6700541,29.9423478 C27.3561081,30.3735652 26.7852973,30.6858261 26.0717838,30.6858261 C25.1014054,30.6858261 24.3165405,30.2694783 24.0596757,29.288087 Z M24.0311351,27.8011304 C24.2451892,26.8494783 24.9158919,26.2993043 25.9005405,26.2993043 C26.6711351,26.2993043 27.4417297,26.7305217 27.6700541,27.8011304 L24.0311351,27.8011304 Z M34.7623784,24.5744348 C33.8062703,24.5744348 33.0642162,24.9461739 32.6361081,25.6153043 L32.6361081,24.7826087 L30.7952432,24.7826087 L30.7952432,32.2173913 L32.6361081,32.2173913 L32.6361081,28.2026087 C32.6361081,26.9089565 33.3068108,26.3587826 34.2058378,26.3587826 C35.0335135,26.3587826 35.6185946,26.8792174 35.6185946,27.8903478 L35.6185946,32.2173913 L37.4594595,32.2173913 L37.4594595,27.6524348 C37.4594595,25.6747826 36.275027,24.5744348 34.7623784,24.5744348 Z M40.7273514,26.894087 C40.7273514,26.4926087 41.0983784,26.2844348 41.555027,26.2844348 C42.083027,26.2844348 42.4825946,26.5669565 42.6966486,27.0427826 L44.2663784,26.1506087 C43.7098378,25.1246087 42.7109189,24.5744348 41.555027,24.5744348 C40.0851892,24.5744348 38.8436757,25.422 38.8436757,26.9386957 C38.8436757,29.5557391 42.5254054,28.9609565 42.5254054,30.0464348 C42.5254054,30.4776522 42.1258378,30.6858261 41.5407568,30.6858261 C40.8272432,30.6858261 40.3420541,30.3289565 40.1422703,29.7193043 L38.544,30.656087 C39.0577297,31.8010435 40.1137297,32.4255652 41.5407568,32.4255652 C43.0676757,32.4255652 44.4090811,31.6523478 44.4090811,30.0464348 C44.4090811,27.3104348 40.7273514,27.9944348 40.7273514,26.894087 Z M47.0490811,29.288087 L52.428973,29.288087 C52.4717838,29.0353043 52.5003243,28.7825217 52.5003243,28.5 C52.5003243,26.3141739 51.0019459,24.5744348 48.8899459,24.5744348 C46.6495135,24.5744348 45.1225946,26.2844348 45.1225946,28.5 C45.1225946,30.7155652 46.6352432,32.4255652 49.0326486,32.4255652 C50.4025946,32.4255652 51.4728649,31.8456522 52.1435676,30.8345217 L50.6594595,29.9423478 C50.3455135,30.3735652 49.7747027,30.6858261 49.0611892,30.6858261 C48.0908108,30.6858261 47.3059459,30.2694783 47.0490811,29.288087 Z M47.0205405,27.8011304 C47.2345946,26.8494783 47.9052973,26.2993043 48.8899459,26.2993043 C49.6605405,26.2993043 50.4311351,26.7305217 50.6594595,27.8011304 L47.0205405,27.8011304 Z" id="drivinglicense" fill="#FFFFFF" fill-rule="nonzero"></path>
                    <g id="icon-/-48-/-info-/-verification-/-dl" transform="translate(58.270270, 13.630435)">
                        <mask id="mask-2" fill="white">
                            <use xlink:href="#path-1"></use>
                        </mask>
                        <g id="container"></g>
                        <g id="driving-license_icon" stroke-width="1" fill-rule="evenodd" mask="url(#mask-2)">
                            <g transform="translate(5.945946, 4.336957)" id="Combined-Shape">
                                <path d="M2.32785116,1.65287023 C3.1691629,2.31417715 3.91215463,3.02994887 4.95039018,3.12244596 L5.17785583,3.13247986 C6.18363111,3.13247986 7.07790569,2.8100291 7.78450902,2.22063719 C8.49078821,2.8100291 9.38506279,3.13247986 10.3911622,3.13247986 C11.5512234,3.13247986 12.7304082,2.69618135 13.6321377,1.98728466 L14.5533879,2.59236164 C13.0763276,4.73107289 13.5892331,6.93683316 14.1421988,9.02180262 C14.48448,10.3119592 15.3365702,12.4927143 14.8697952,13.3532986 C14.6746689,15.6323749 12.7595976,16.6494122 10.2539039,17.5070678 L10.0787009,17.5965887 C9.24633517,17.9855096 8.72816241,18.2689218 8.07277162,18.758255 C7.41705669,18.2689218 6.32235874,17.8138894 5.49031711,17.4249685 C2.99224746,16.2560845 1.33399855,15.3159567 1.13919644,13.0368803 C1.14989273,11.6452507 1.50319439,10.3119592 1.84515151,9.02180262 C2.39811723,6.93683316 3.06128714,4.43607192 1.58455102,2.29736067 L2.32785116,1.65287023 Z M9.73515698,13.3129191 L9.26500295,13.4935548 L9.6572693,14.63139 L8.65721601,13.7270699 L8.19146623,13.9060135 L8.77726841,15.6052321 L9.24632138,15.4250194 L8.92464965,14.491956 L9.85080513,15.1927735 L10.3209592,15.0121378 L9.73515698,13.3129191 Z M6.47643362,13.8832715 L6.44801056,15.5116275 L8.01565625,15.5389908 L8.02209312,15.1702226 L6.92738881,15.1511145 L7.03586869,14.8319042 L7.93003553,14.8475119 L7.93583259,14.5153984 L7.04166575,14.4997906 L6.94468845,14.1600188 L8.01010773,14.2578118 L8.01617623,13.9101478 L6.47643362,13.8832715 Z M4.96449849,13.5670631 C4.77352407,13.6709992 4.63399482,13.8653882 4.54590655,14.150236 C4.47984034,14.3638719 4.4664669,14.5531025 4.50578582,14.7179336 C4.54510473,14.8827646 4.61259393,15.0115745 4.70825543,15.1043669 C4.80391693,15.1971593 4.94046791,15.2738476 5.11791248,15.3344341 C5.26417432,15.3843736 5.39153127,15.4032011 5.49998716,15.3909171 C5.60844306,15.3786331 5.70814672,15.3395694 5.79910115,15.2737249 C5.85973744,15.2298286 5.91574152,15.1737771 5.96711413,15.1055696 L6.04069952,14.9941411 L5.64213513,14.7023245 C5.58622365,14.8034938 5.52474948,14.8742115 5.45771077,14.9144798 C5.39067207,14.9547481 5.30889496,14.9584047 5.212377,14.9254497 C5.11288925,14.8914807 5.0466264,14.8297073 5.01358648,14.7401276 C4.98054655,14.6505479 4.99355048,14.5102892 5.05259866,14.3193473 C5.10027281,14.1651851 5.15825687,14.0599669 5.22655258,14.0036894 C5.31744123,13.9274403 5.42005235,13.9088356 5.53438902,13.9478746 C5.58487534,13.9651126 5.62714712,13.9916582 5.66120562,14.027512 C5.69526412,14.0633659 5.72010745,14.106455 5.73573636,14.1567805 C5.74211918,14.1768402 5.74623599,14.2030473 5.74808683,14.2354023 L5.74916361,14.2885456 L6.22693585,14.3361751 C6.22591169,14.1351043 6.1801135,13.9706587 6.08953991,13.8428334 C5.99896632,13.7150082 5.850853,13.6159873 5.64519549,13.5457677 C5.38236965,13.4560287 5.15547292,13.4631271 4.96449849,13.5670631 Z M10.5436562,12.8476647 C10.3815162,12.9274251 10.2633638,13.0116294 10.1891954,13.1002801 C10.115027,13.1889308 10.0713055,13.2821081 10.0580298,13.379815 C10.0447541,13.4775218 10.0567248,13.5684781 10.0939424,13.6526864 C10.1505921,13.780862 10.2425092,13.8640164 10.3696964,13.902152 C10.4961757,13.940636 10.6759433,13.932946 10.9090046,13.8790818 C11.0510413,13.8454997 11.1471696,13.8367685 11.1973925,13.8528878 C11.2476153,13.8690072 11.282113,13.8983048 11.3008864,13.9407816 C11.320648,13.985494 11.3194357,14.0339458 11.2972497,14.0861384 C11.2750638,14.138331 11.2296318,14.1813191 11.1609524,14.2151041 C11.0689079,14.260383 10.9834492,14.2620511 10.9045739,14.2201086 C10.8722004,14.202769 10.8407306,14.1749049 10.810164,14.1365161 L10.7649915,14.0710393 L10.3205884,14.3263941 C10.4071587,14.4852123 10.5251344,14.5931972 10.674519,14.6503519 C10.8239037,14.7075066 11.0309954,14.6709527 11.2958003,14.5406889 C11.4466117,14.4665013 11.5614503,14.3821127 11.6403196,14.2875206 C11.7191889,14.1929286 11.7666393,14.0877107 11.7826724,13.9718638 C11.7987056,13.8560173 11.7835023,13.745558 11.7370627,13.6404838 C11.6975397,13.551059 11.6410951,13.4803929 11.5677273,13.4284833 C11.4943594,13.3765738 11.4013992,13.3485921 11.2888437,13.3445374 C11.1762883,13.3404828 11.0043305,13.3663309 10.7729653,13.4220824 C10.6797672,13.4452481 10.6170648,13.4515981 10.5848563,13.4411327 C10.5522691,13.4317608 10.530212,13.4140339 10.5186845,13.3879517 C10.5028753,13.3521818 10.5036146,13.3148492 10.5209024,13.2759528 C10.5381903,13.2370564 10.5748011,13.2038509 10.6307358,13.1763353 C10.6987071,13.1428987 10.7593964,13.1334565 10.8128054,13.1480085 C10.8484114,13.1577098 10.8820692,13.1792559 10.913779,13.212647 L10.9598829,13.2716175 L11.4010259,13.020588 C11.3061072,12.8604333 11.189223,12.7671073 11.0503699,12.7406073 C10.9115168,12.7141072 10.7426139,12.7497927 10.5436562,12.8476647 Z M4.76217292,12.71838 L3.61197275,14.0636912 L4.0068333,14.4381544 L5.15703347,13.0928432 L4.76217292,12.71838 Z M3.94163569,11.6592001 L2.53409478,12.6980271 L3.31239978,13.869744 L3.65900433,13.6139346 L3.07486499,12.9808128 L4.24557721,12.1167757 L3.94163569,11.6592001 Z M12.1486619,11.4571926 L11.1077771,12.4797399 L12.2777129,13.8015597 L13.3374606,12.7604819 L13.0725092,12.4611339 L12.3324757,13.18813 L12.1713863,12.8592323 L12.775854,12.2654137 L12.5372381,11.9958201 L11.9327704,12.5896388 L11.6203965,12.3836069 L12.3984504,11.7394093 L12.1486619,11.4571926 Z M7.97437509,3.97456932 C5.87730431,3.97456932 4.17705362,5.75418273 4.17705362,7.94913864 C4.17705362,10.1440945 5.87730431,11.923708 7.97437509,11.923708 C10.0714459,11.923708 11.7716966,10.1440945 11.7716966,7.94913864 C11.7716966,5.75418273 10.0714459,3.97456932 7.97437509,3.97456932 Z M5.12638399,7.94913864 C6.4234066,7.94913864 7.47384065,9.25726877 7.49591259,10.8796383 C6.15355944,10.6389284 5.12638399,9.42121975 5.12638399,7.94913864 Z M10.8223662,7.94913864 C10.8223662,9.42121975 9.79519074,10.6389284 8.4528376,10.8796383 C8.47490953,9.25726877 9.52534358,7.94913864 10.8223662,7.94913864 Z M7.97437509,7.45231747 C8.2366276,7.45231747 8.44904027,7.67464494 8.44904027,7.94913864 C8.44904027,8.22363233 8.2366276,8.4459598 7.97437509,8.4459598 C7.71212258,8.4459598 7.49970991,8.22363233 7.49970991,7.94913864 C7.49970991,7.67464494 7.71212258,7.45231747 7.97437509,7.45231747 Z M7.97437509,4.96821165 C9.2101659,4.96821165 10.2539546,5.80138074 10.6481641,6.95549631 L5.30058611,6.95549631 C5.69479554,5.80138074 6.73858428,4.96821165 7.97437509,4.96821165 Z" fill="#252525"></path>
                                <path d="M8.12216392,7.10542736e-15 C9.08209028,2.90389202 12.6825206,1.9863464 13.6854663,0.232062723 L13.6854663,0.232062723 L16.2308254,2.49191162 C12.8118925,5.09674661 15.946647,8.58217676 15.946647,13.1405517 C15.5572755,18.4931889 9.05602751,18.4949155 8.16675324,20.7299006 L8.16675324,20.7299006 L8.11556973,20.8922063 L8.06438621,20.7299006 C7.17511195,18.4949155 0.673549896,18.4931889 0.284178394,13.1405517 C0.284178394,8.58217676 3.419247,5.09674661 -1.27897692e-13,2.49191162 L-1.27897692e-13,2.49191162 L2.54535919,0.232062723 C3.54861882,1.9863464 7.14904918,2.90389202 8.10866152,7.10542736e-15 L8.10866152,7.10542736e-15 Z M13.7806111,2.28540342 C12.9070373,2.97779294 11.7646715,3.40393193 10.6408323,3.40393193 C9.66614753,3.40393193 8.79979594,3.08898967 8.11556973,2.51332217 C7.43102951,3.08898967 6.56467791,3.40393193 5.59030713,3.40393193 L5.59030713,3.40393193 C4.46646794,3.40393193 3.32378818,2.97779294 2.45052839,2.28574875 L2.45052839,2.28574875 L2.1092003,2.58825909 C3.53982656,4.67716892 2.89736359,7.11969815 2.36166376,9.15611761 C2.03038398,10.416232 1.68811387,11.7184768 1.67775156,13.0777014 C1.86647113,15.3037078 3.47294259,16.221944 5.89301207,17.3636098 C6.69907388,17.7434743 7.48032896,18.111943 8.11556973,18.5898817 C8.75049648,18.111943 9.53175156,17.7434743 10.3381274,17.3636098 C12.7581969,16.221944 14.3643543,15.3037078 14.5533879,13.0777014 C14.5427116,11.7184768 14.2007555,10.416232 13.8691617,9.15611761 C13.3334619,7.11969815 12.6909989,4.67716892 14.1219391,2.58825909 L14.1219391,2.58825909 Z" fill="#636363"></path>
                            </g>
                        </g>
                    </g>
                    <path d="M9.23762162,47.0869565 L9.23762162,47.3942609 C9.07113514,47.1613043 8.81427027,47.0175652 8.47654054,47.0175652 C7.80108108,47.0175652 7.29210811,47.5925217 7.29210811,48.2864348 C7.29210811,48.9853043 7.80108108,49.5553043 8.47654054,49.5553043 C8.81427027,49.5553043 9.07113514,49.4115652 9.23762162,49.1786087 L9.23762162,49.4462609 C9.23762162,49.8378261 8.99978378,50.055913 8.61448649,50.055913 C8.24821622,50.055913 8.09124324,49.9022609 7.99135135,49.7089565 L7.46810811,50.0212174 C7.67740541,50.4226957 8.08648649,50.625913 8.59545946,50.625913 C9.22335135,50.625913 9.83697297,50.2591304 9.83697297,49.4462609 L9.83697297,47.0869565 L9.23762162,47.0869565 Z M8.57167568,48.9654783 C8.18637838,48.9654783 7.90572973,48.6829565 7.90572973,48.2864348 C7.90572973,47.8948696 8.18637838,47.6123478 8.57167568,47.6123478 C8.95697297,47.6123478 9.23762162,47.8948696 9.23762162,48.2864348 C9.23762162,48.6829565 8.95697297,48.9654783 8.57167568,48.9654783 Z M11.5256216,49.6346087 C12.2248649,49.6346087 12.7861622,49.0646087 12.7861622,48.326087 C12.7861622,47.5875652 12.2248649,47.0175652 11.5256216,47.0175652 C10.8263784,47.0175652 10.2698378,47.5875652 10.2698378,48.326087 C10.2698378,49.0646087 10.8263784,49.6346087 11.5256216,49.6346087 Z M11.5256216,49.010087 C11.1641081,49.010087 10.8834595,48.7275652 10.8834595,48.326087 C10.8834595,47.9246087 11.1641081,47.642087 11.5256216,47.642087 C11.8918919,47.642087 12.1725405,47.9246087 12.1725405,48.326087 C12.1725405,48.7275652 11.8918919,49.010087 11.5256216,49.010087 Z M14.6888649,47.0869565 L14.1085405,48.8217391 L13.532973,47.0869565 L12.8575135,47.0869565 L13.7612973,49.5652174 L14.4605405,49.5652174 L15.3643243,47.0869565 L14.6888649,47.0869565 Z M16.0825946,48.5887826 L17.8758919,48.5887826 C17.8901622,48.5045217 17.8996757,48.4202609 17.8996757,48.326087 C17.8996757,47.5974783 17.4002162,47.0175652 16.6962162,47.0175652 C15.9494054,47.0175652 15.4404324,47.5875652 15.4404324,48.326087 C15.4404324,49.0646087 15.9446486,49.6346087 16.7437838,49.6346087 C17.2004324,49.6346087 17.5571892,49.4413043 17.7807568,49.1042609 L17.2860541,48.8068696 C17.1814054,48.9506087 16.9911351,49.0546957 16.7532973,49.0546957 C16.4298378,49.0546957 16.1682162,48.915913 16.0825946,48.5887826 Z M16.0730811,48.0931304 C16.1444324,47.775913 16.368,47.5925217 16.6962162,47.5925217 C16.9530811,47.5925217 17.2099459,47.7362609 17.2860541,48.0931304 L16.0730811,48.0931304 Z M18.9414054,47.5132174 L18.9414054,47.0869565 L18.3277838,47.0869565 L18.3277838,49.5652174 L18.9414054,49.5652174 L18.9414054,48.3806087 C18.9414054,47.8601739 19.3457297,47.7114783 19.6644324,47.7511304 L19.6644324,47.0373913 C19.3647568,47.0373913 19.0650811,47.1761739 18.9414054,47.5132174 Z M21.3435676,47.0175652 C21.0248649,47.0175652 20.7775135,47.1414783 20.6348108,47.3645217 L20.6348108,47.0869565 L20.0211892,47.0869565 L20.0211892,49.5652174 L20.6348108,49.5652174 L20.6348108,48.2269565 C20.6348108,47.7957391 20.8583784,47.6123478 21.1580541,47.6123478 C21.4339459,47.6123478 21.628973,47.7858261 21.628973,48.1228696 L21.628973,49.5652174 L22.2425946,49.5652174 L22.2425946,48.0435652 C22.2425946,47.3843478 21.8477838,47.0175652 21.3435676,47.0175652 Z M25.3963243,47.0175652 C25.0728649,47.0175652 24.835027,47.1513913 24.6875676,47.3744348 C24.5543784,47.1464348 24.3355676,47.0175652 24.0406486,47.0175652 C23.7362162,47.0175652 23.5126486,47.1414783 23.3794595,47.3496522 L23.3794595,47.0869565 L22.7658378,47.0869565 L22.7658378,49.5652174 L23.3794595,49.5652174 L23.3794595,48.1724348 C23.3794595,47.8006957 23.564973,47.6123478 23.8265946,47.6123478 C24.0834595,47.6123478 24.2261622,47.7907826 24.2261622,48.0832174 L24.2261622,49.5652174 L24.8397838,49.5652174 L24.8397838,48.1724348 C24.8397838,47.8006957 25.011027,47.6123478 25.2821622,47.6123478 C25.539027,47.6123478 25.6817297,47.7907826 25.6817297,48.0832174 L25.6817297,49.5652174 L26.2953514,49.5652174 L26.2953514,48.0386087 C26.2953514,47.4190435 25.9385946,47.0175652 25.3963243,47.0175652 Z M27.3370811,48.5887826 L29.1303784,48.5887826 C29.1446486,48.5045217 29.1541622,48.4202609 29.1541622,48.326087 C29.1541622,47.5974783 28.6547027,47.0175652 27.9507027,47.0175652 C27.2038919,47.0175652 26.6949189,47.5875652 26.6949189,48.326087 C26.6949189,49.0646087 27.1991351,49.6346087 27.9982703,49.6346087 C28.4549189,49.6346087 28.8116757,49.4413043 29.0352432,49.1042609 L28.5405405,48.8068696 C28.4358919,48.9506087 28.2456216,49.0546957 28.0077838,49.0546957 C27.6843243,49.0546957 27.4227027,48.915913 27.3370811,48.5887826 Z M27.3275676,48.0931304 C27.3989189,47.775913 27.6224865,47.5925217 27.9507027,47.5925217 C28.2075676,47.5925217 28.4644324,47.7362609 28.5405405,48.0931304 L27.3275676,48.0931304 Z M30.9046486,47.0175652 C30.5859459,47.0175652 30.3385946,47.1414783 30.1958919,47.3645217 L30.1958919,47.0869565 L29.5822703,47.0869565 L29.5822703,49.5652174 L30.1958919,49.5652174 L30.1958919,48.2269565 C30.1958919,47.7957391 30.4194595,47.6123478 30.7191351,47.6123478 C30.995027,47.6123478 31.1900541,47.7858261 31.1900541,48.1228696 L31.1900541,49.5652174 L31.8036757,49.5652174 L31.8036757,48.0435652 C31.8036757,47.3843478 31.4088649,47.0175652 30.9046486,47.0175652 Z M33.6873514,47.7015652 L33.6873514,47.0869565 L33.1498378,47.0869565 L33.1498378,46.3930435 L32.5362162,46.5863478 L32.5362162,47.0869565 L32.1223784,47.0869565 L32.1223784,47.7015652 L32.5362162,47.7015652 L32.5362162,48.7325217 C32.5362162,49.4016522 32.8263784,49.6643478 33.6873514,49.5652174 L33.6873514,48.9853043 L33.5367806,48.9918288 C33.2826611,48.9973877 33.1498378,48.9589967 33.1498378,48.7325217 L33.1498378,47.7015652 L33.6873514,47.7015652 Z M36.4795676,49.6346087 C37.1788108,49.6346087 37.7401081,49.0646087 37.7401081,48.326087 C37.7401081,47.5875652 37.1788108,47.0175652 36.4795676,47.0175652 C35.7803243,47.0175652 35.2237838,47.5875652 35.2237838,48.326087 C35.2237838,49.0646087 35.7803243,49.6346087 36.4795676,49.6346087 Z M36.4795676,49.010087 C36.1180541,49.010087 35.8374054,48.7275652 35.8374054,48.326087 C35.8374054,47.9246087 36.1180541,47.642087 36.4795676,47.642087 C36.8458378,47.642087 37.1264865,47.9246087 37.1264865,48.326087 C37.1264865,48.7275652 36.8458378,49.010087 36.4795676,49.010087 Z M39.3764324,46.6408696 L39.3764324,46.0262609 C38.6561236,45.9790559 38.2939197,46.3409607 38.2610575,46.9663997 L38.2585946,47.0869565 L37.9161081,47.0869565 L37.9161081,47.7015652 L38.2585946,47.7015652 L38.2585946,49.5652174 L38.8722162,49.5652174 L38.8722162,47.7015652 L39.3764324,47.7015652 L39.3764324,47.0869565 L38.8722162,47.0869565 L38.8722162,47.0621739 C38.8722162,46.7251304 39.0577297,46.616087 39.3764324,46.6408696 Z M41.1507027,46.7895652 C41.36,46.7895652 41.5312432,46.6111304 41.5312432,46.398 C41.5312432,46.1848696 41.36,46.0014783 41.1507027,46.0014783 C40.9461622,46.0014783 40.7749189,46.1848696 40.7749189,46.398 C40.7749189,46.6111304 40.9461622,46.7895652 41.1507027,46.7895652 Z M40.8462703,49.5652174 L41.4598919,49.5652174 L41.4598919,47.0869565 L40.8462703,47.0869565 L40.8462703,49.5652174 Z M43.3435676,47.0175652 C43.0248649,47.0175652 42.7775135,47.1414783 42.6348108,47.3645217 L42.6348108,47.0869565 L42.0211892,47.0869565 L42.0211892,49.5652174 L42.6348108,49.5652174 L42.6348108,48.2269565 C42.6348108,47.7957391 42.8583784,47.6123478 43.1580541,47.6123478 C43.4339459,47.6123478 43.628973,47.7858261 43.628973,48.1228696 L43.628973,49.5652174 L44.2425946,49.5652174 L44.2425946,48.0435652 C44.2425946,47.3843478 43.8477838,47.0175652 43.3435676,47.0175652 Z M46.5686486,46.0956522 L46.5686486,47.3793913 C46.3974054,47.1513913 46.1452973,47.0175652 45.7980541,47.0175652 C45.1606486,47.0175652 44.6374054,47.5875652 44.6374054,48.326087 C44.6374054,49.0646087 45.1606486,49.6346087 45.7980541,49.6346087 C46.1452973,49.6346087 46.3974054,49.5007826 46.5686486,49.2727826 L46.5686486,49.5652174 L47.1822703,49.5652174 L47.1822703,46.0956522 L46.5686486,46.0956522 Z M45.9122162,49.0249565 C45.5316757,49.0249565 45.251027,48.7424348 45.251027,48.326087 C45.251027,47.9097391 45.5316757,47.6272174 45.9122162,47.6272174 C46.288,47.6272174 46.5686486,47.9097391 46.5686486,48.326087 C46.5686486,48.7424348 46.288,49.0249565 45.9122162,49.0249565 Z M48.048,46.7895652 C48.2572973,46.7895652 48.4285405,46.6111304 48.4285405,46.398 C48.4285405,46.1848696 48.2572973,46.0014783 48.048,46.0014783 C47.8434595,46.0014783 47.6722162,46.1848696 47.6722162,46.398 C47.6722162,46.6111304 47.8434595,46.7895652 48.048,46.7895652 Z M47.7435676,49.5652174 L48.3571892,49.5652174 L48.3571892,47.0869565 L47.7435676,47.0869565 L47.7435676,49.5652174 Z M50.7260541,47.0869565 L50.7260541,47.3793913 C50.5548108,47.1563478 50.2979459,47.0175652 49.9507027,47.0175652 C49.3180541,47.0175652 48.7948108,47.5875652 48.7948108,48.326087 C48.7948108,49.0646087 49.3180541,49.6346087 49.9507027,49.6346087 C50.2979459,49.6346087 50.5548108,49.4958261 50.7260541,49.2727826 L50.7260541,49.5652174 L51.3396757,49.5652174 L51.3396757,47.0869565 L50.7260541,47.0869565 Z M50.0648649,49.0249565 C49.6890811,49.0249565 49.4084324,48.7424348 49.4084324,48.326087 C49.4084324,47.9097391 49.6890811,47.6272174 50.0648649,47.6272174 C50.4454054,47.6272174 50.7260541,47.9097391 50.7260541,48.326087 C50.7260541,48.7424348 50.4454054,49.0249565 50.0648649,49.0249565 Z" id="governmentofindia" fill="#FFFFFF" fill-rule="nonzero"></path>
                </g>
            </g>
        </g>
    </g>
</svg>