<?xml version="1.0" encoding="UTF-8"?>
<svg width="14px" height="18px" viewBox="0 0 14 18" version="1.1" xmlns="http://www.w3.org/2000/svg" xmlns:xlink="http://www.w3.org/1999/xlink">
    <!-- Generator: sketchtool 57.1 (101010) - https://sketch.com -->
    <title>B59F03DD-02ED-4BD6-949A-2BB5B8F9C669</title>
    <desc>Created with sketchtool.</desc>
    <defs>
        <rect id="path-1" x="2" y="2" width="20" height="20"></rect>
    </defs>
    <g id="BGV-configuration" stroke="none" stroke-width="1" fill="none" fill-rule="evenodd">
        <g id="bgv-configuration-1_select-services" transform="translate(-589.000000, -201.000000)">
            <g id="section" transform="translate(160.000000, 120.000000)">
                <g id="Security-Guard-Copy-2" transform="translate(416.000000, 70.000000)">
                    <g id="icon-/-48-/-info-/-verification-/-dl" transform="translate(8.000000, 8.000000)">
                        <mask id="mask-2" fill="white">
                            <use xlink:href="#path-1"></use>
                        </mask>
                        <g id="container"></g>
                        <g id="driving-license_icon" mask="url(#mask-2)">
                            <g transform="translate(5.000000, 3.500000)" id="Combined-Shape">
                                <path d="M1.95751121,1.33389533 C2.71551123,1.90570204 3.37860006,2.52796621 4.35383345,2.52796621 L4.35410601,2.52796621 C5.19987159,2.52796621 5.9518752,2.2677428 6.54606435,1.7920932 C7.13998094,2.2677428 7.89198456,2.52796621 8.73802269,2.52796621 C9.71352865,2.52796621 10.7051159,2.17586567 11.4633884,1.60377362 L12.2380761,2.09208135 C10.9960027,3.81805879 11.4273095,5.59814597 11.8923034,7.28075284 C12.1801308,8.32193183 12.8966612,10.0818394 12.5041458,10.776346 C12.3400624,12.6156005 10.7296615,13.4363674 8.6226009,14.1285105 L8.47527116,14.2007555 C7.77532724,14.5146214 7.33959106,14.74334 6.78846699,15.1382405 C6.23707036,14.74334 5.31652891,14.3761209 4.61685755,14.0622549 C2.51620809,13.118945 1.12177153,12.3602454 0.957960665,10.5209909 C0.966955272,9.39792141 1.26404985,8.32193183 1.55160469,7.28075284 C2.01659859,5.59814597 2.57426419,3.57998784 1.33246337,1.85401039 L1.95751121,1.33389533 Z M8.18622591,10.7448696 L7.79098081,10.8903696 L8.12151002,11.8088663 L7.28003163,11.0784633 L6.88848905,11.2226003 L7.3820943,12.5942636 L7.77641378,12.4491043 L7.5053686,11.6959059 L8.28458606,12.2620329 L8.67983117,12.1165329 L8.18622591,10.7448696 Z M5.44630674,11.2032328 L5.42336883,12.5173446 L6.74161633,12.5403547 L6.746811,12.2427523 L5.8262642,12.226684 L5.91729602,11.9691366 L6.66920903,11.9822613 L6.67388736,11.7142398 L5.92197435,11.7011151 L5.84022531,11.4268524 L6.7361929,11.5064042 L6.74109028,11.2258333 L5.44630674,11.2032328 Z M4.17473528,10.9471496 C4.01420659,11.0309159 3.89699158,11.1877108 3.82308071,11.4175368 C3.76765807,11.5899098 3.75652427,11.7426163 3.78968498,11.8756628 C3.82284569,12.0087093 3.87967345,12.1127023 3.96016997,12.187645 C4.04066648,12.2625876 4.15553739,12.324558 4.30478421,12.3735639 C4.42780706,12.413947 4.5349125,12.4292166 4.62610566,12.4193672 C4.71729882,12.4095178 4.80111641,12.3780513 4.87756093,12.3249668 C4.92852395,12.2895771 4.97558457,12.2443751 5.0187434,12.1893601 L5.08055536,12.0994777 L4.74523048,11.8637379 C4.69827441,11.9453512 4.64662268,12.0023861 4.59027373,12.0348441 C4.53392478,12.0673021 4.46516068,12.0702047 4.38397935,12.043552 C4.30030014,12.0160792 4.24454326,11.9661872 4.21670705,11.8938743 C4.18887084,11.8215615 4.19972288,11.7083765 4.2492635,11.5543159 C4.28926146,11.429931 4.33795796,11.3450512 4.39535445,11.2996741 C4.47173752,11.2381928 4.55801208,11.2232389 4.65418073,11.2548121 C4.6966448,11.2687535 4.73220679,11.2902015 4.76086774,11.3191567 C4.7895287,11.3481119 4.81044491,11.3829007 4.823617,11.4235241 C4.82899617,11.4397166 4.83247349,11.4608689 4.83404899,11.4869813 L4.83498588,11.5298701 L5.23677213,11.568591 C5.23579201,11.4063206 5.19718311,11.2735813 5.1209443,11.1703693 C5.04470548,11.0671572 4.92009861,10.9871569 4.74712175,10.9303606 C4.52605694,10.8577889 4.33526396,10.8633833 4.17473528,10.9471496 Z M8.86581091,10.369862 C8.7295206,10.4341474 8.63021619,10.5020328 8.56790047,10.5735325 C8.50558476,10.6450322 8.46887458,10.7202031 8.45776883,10.7990474 C8.44666309,10.8778917 8.45678305,10.951303 8.48812903,11.0192835 C8.5358415,11.1227582 8.61318365,11.1899205 8.72015781,11.2207723 C8.82653679,11.2519047 8.97769859,11.245805 9.17364774,11.2024729 C9.29306633,11.1754552 9.37389536,11.1684657 9.41613724,11.1815042 C9.45837913,11.1945426 9.48740548,11.2182071 9.50321717,11.2524981 C9.51986106,11.2885939 9.51887036,11.3276952 9.50024505,11.3698029 C9.48161974,11.4119107 9.44344145,11.4465764 9.38570904,11.4738012 C9.30833571,11.5102881 9.23647463,11.5115838 9.17012364,11.4776884 C9.14289056,11.4636757 9.11641115,11.44117 9.09068505,11.4101711 L9.05266084,11.3573028 L8.6791138,11.5631184 C8.75200459,11.6913403 8.85127407,11.7785569 8.97692524,11.8247707 C9.1025764,11.8709845 9.27669794,11.8416069 9.49929506,11.736637 C9.62606829,11.6768547 9.72258602,11.6088187 9.78885117,11.5325269 C9.85511631,11.4562351 9.8949551,11.3713494 9.90836873,11.2778672 C9.92178252,11.1843854 9.9089328,11.0952326 9.86982376,11.0104055 C9.8365319,10.9382157 9.78902593,10.8811528 9.72730031,10.8392169 C9.6655747,10.7972811 9.587388,10.7746441 9.49273786,10.7713053 C9.39808773,10.7679666 9.25350394,10.788725 9.05898216,10.8335812 C8.98062567,10.8522214 8.92790307,10.857309 8.90081279,10.848844 C8.87340472,10.8412614 8.8548465,10.8269423 8.84513756,10.8058864 C8.83182246,10.7770097 8.83242206,10.7468817 8.84693641,10.7155015 C8.86145075,10.6841212 8.89221705,10.6573451 8.93923623,10.6351723 C8.99637346,10.6082282 9.0474014,10.600644 9.0923216,10.6124194 C9.1222684,10.6202697 9.15058386,10.6376779 9.17726837,10.6646442 L9.21607196,10.7122623 L9.58688013,10.5099355 C9.50696835,10.38063 9.40862539,10.3052442 9.29184832,10.2837758 C9.17507125,10.2623074 9.03306213,10.2910067 8.86581091,10.369862 Z M4.00409812,10.262119 L3.03769185,11.3471423 L3.36995106,11.6495781 L4.33635732,10.5645547 L4.00409812,10.262119 Z M3.31348298,9.40684601 L2.13049792,10.2443759 L2.78566661,11.1904444 L3.07697467,10.9842041 L2.58539817,10.4729117 L3.56933765,9.77630208 L3.31348298,9.40684601 Z M10.2146419,9.248674 L9.33996785,10.0732825 L10.3245471,11.1407198 L11.2150719,10.3011678 L10.9920976,10.059429 L10.3702343,10.6456974 L10.2345799,10.3801725 L10.7425248,9.90130183 L10.5417137,9.68359122 L10.0337687,10.1624619 L9.77097203,9.99600374 L10.4248556,9.47657842 L10.2146419,9.248674 Z M6.70572454,3.20754719 C4.94227859,3.20754719 3.51252228,4.64372644 3.51252228,6.41509438 C3.51252228,8.18646231 4.94227859,9.62264156 6.70572454,9.62264156 C8.46917048,9.62264156 9.89892679,8.18646231 9.89892679,6.41509438 C9.89892679,4.64372644 8.46917048,3.20754719 6.70572454,3.20754719 Z M4.31082284,6.41509438 C5.40150094,6.41509438 6.28482048,7.47077838 6.30338097,8.7800591 C5.17458402,8.58580202 4.31082284,7.60308971 4.31082284,6.41509438 Z M9.10062593,6.41509438 C9.10062593,7.60308971 8.23686476,8.58580202 7.10806781,8.7800591 C7.1266283,7.47077838 8.00994783,6.41509438 9.10062593,6.41509438 Z M6.70572445,6.01415086 C6.92625498,6.01415086 7.10487473,6.19357303 7.10487473,6.41509426 C7.10487473,6.63661548 6.92625498,6.81603765 6.70572445,6.81603765 C6.48519392,6.81603765 6.30657417,6.63661548 6.30657417,6.41509426 C6.30657417,6.19357303 6.48519392,6.01415086 6.70572445,6.01415086 Z M6.70572454,4.00943398 C7.74491231,4.00943398 8.62264379,4.68181606 8.9541381,5.61320758 L4.45731097,5.61320758 C4.78880529,4.68181606 5.66653677,4.00943398 6.70572454,4.00943398 Z" fill="#252525"></path>
                                <path d="M6.83000128,3.55271368e-15 C7.63721205,2.34349171 10.6648466,1.60301633 11.5082326,0.187278681 L11.5082326,0.187278681 L13.6486483,2.01101631 C10.7736365,4.11316377 13.4096801,6.92596693 13.4096801,10.6046553 C13.082254,14.9243273 7.61529563,14.9257207 6.86749684,16.7293928 L6.86749684,16.7293928 L6.82445616,16.8603764 L6.78141548,16.7293928 C6.03361668,14.9257207 0.566394214,14.9243273 0.238968188,10.6046553 C0.238968188,6.92596693 2.8752758,4.11316377 -6.39488462e-14,2.01101631 L-6.39488462e-14,2.01101631 L2.14041562,0.187278681 C2.98406574,1.60301633 6.01170026,2.34349171 6.81864699,3.55271368e-15 L6.81864699,3.55271368e-15 Z M11.5882415,1.84436071 C10.8536453,2.4031312 9.89301954,2.74703284 8.94797291,2.74703284 C8.12835158,2.74703284 7.39982863,2.49286891 6.82445657,2.02829514 C6.24882046,2.49286891 5.52029751,2.74703284 4.70094023,2.74703284 L4.70094023,2.74703284 L4.4642854,2.73994306 C3.59731862,2.68822569 2.73380944,2.35659022 2.06067166,1.8446394 L2.06067166,1.8446394 L1.77364576,2.08877055 C2.97667243,3.77455743 2.43641945,5.74572136 1.98594458,7.38914759 C1.70736839,8.40608202 1.41955034,9.45701644 1.41083658,10.5539345 C1.56953259,12.3503607 2.92042908,13.0913935 4.95548758,14.0127378 C5.6333123,14.3192951 6.29027682,14.6166558 6.82445657,15.0023607 C7.35837227,14.6166558 8.01533679,14.3192951 8.69342557,14.0127378 C10.7284841,13.0913935 12.0791165,12.3503607 12.2380766,10.5539345 C12.2290988,9.45701644 11.9415448,8.40608202 11.6627045,7.38914759 C11.2122296,5.74572136 10.6719767,3.77455743 11.8752674,2.08877055 L11.8752674,2.08877055 Z" fill="#636363"></path>
                            </g>
                        </g>
                    </g>
                </g>
            </g>
        </g>
    </g>
</svg>