<?xml version="1.0" encoding="UTF-8"?>
<svg width="48px" height="48px" viewBox="0 0 48 48" version="1.1" xmlns="http://www.w3.org/2000/svg" xmlns:xlink="http://www.w3.org/1999/xlink">
    <title>file-json</title>
    <g id="⚙️-configuration" stroke="none" stroke-width="1" fill="none" fill-rule="evenodd">
        <g id="document-Conf_02" transform="translate(-242.000000, -222.000000)">
            <g id="form" transform="translate(135.000000, 128.000000)">
                <g id="Group-11" transform="translate(40.000000, 40.000000)">
                    <g id="Group-3" transform="translate(13.000000, 0.000000)">
                        <g id="Group" transform="translate(54.000000, 54.000000)">
                            <polygon id="Path" fill="#0059B2" opacity="0.497442336" points="44.2285714 26.7428571 3.08571429 26.7428571 0 22.6285714 4.11428571 18.5142857 43.2 18.5142857 47.3142857 22.6285714"></polygon>
                            <path d="M41.1428571,47.3142857 L6.17142857,47.3142857 C5.03529994,47.3142857 4.11428571,46.3932715 4.11428571,45.2571429 L4.11428571,2.05714286 C4.11428571,0.921014229 5.03529994,0 6.17142857,0 L30.8571429,0 L43.2,12.3428571 L43.2,45.2571429 C43.2,46.3932715 42.2789858,47.3142857 41.1428571,47.3142857 Z" id="Path" fill="#FFFFFF"></path>
                            <path d="M30.8571429,0 L30.8571429,10.2857143 C30.8571429,11.4218429 31.7781571,12.3428571 32.9142857,12.3428571 L43.2,12.3428571 L30.8571429,0 Z" id="Path" fill="#72A3D4"></path>
                            <path d="M47.3142857,22.6285714 L47.3142857,39.0857143 C47.3142857,40.2218429 46.3932715,41.1428571 45.2571429,41.1428571 L2.05714286,41.1428571 C0.921014229,41.1428571 -2.90120646e-12,40.2218429 -2.90120646e-12,39.0857143 L-2.90120646e-12,22.6285714 L47.3142857,22.6285714 Z M23.8039149,28.0156596 C21.3283404,28.0156596 19.355234,29.9642553 19.355234,32.4765957 C19.355234,34.9766809 21.3283404,36.9375319 23.8039149,36.9375319 C26.2794894,36.9375319 28.2648511,34.9766809 28.2648511,32.4765957 C28.2648511,29.9642553 26.2794894,28.0156596 23.8039149,28.0156596 Z M33.522383,28.0156596 C30.9242553,28.0156596 29.0614468,29.9642553 29.0614468,32.4765957 C29.0614468,34.9766809 30.9242553,36.9375319 33.522383,36.9375319 C35.1033191,36.9375319 36.4881702,36.1409362 37.211234,34.9154043 L35.7528511,34.0697872 C35.3484255,34.8173617 34.5028085,35.2830638 33.522383,35.2830638 C31.8434043,35.2830638 30.7404255,34.1188085 30.7404255,32.4765957 C30.7404255,30.8221277 31.8434043,29.6578723 33.522383,29.6578723 C34.5028085,29.6578723 35.3361702,30.1235745 35.7528511,30.8834043 L37.211234,30.0377872 C36.4759149,28.8122553 35.0910638,28.0156596 33.522383,28.0156596 Z M14.4163404,28.187234 L11.0093617,28.187234 L11.0093617,36.7659574 L14.4163404,36.7659574 C16.781617,36.7659574 18.546383,34.8908936 18.546383,32.4765957 C18.546383,30.0622979 16.781617,28.187234 14.4163404,28.187234 Z M23.8039149,29.6578723 C25.3603404,29.6578723 26.573617,30.8221277 26.573617,32.4765957 C26.573617,34.1188085 25.3603404,35.2830638 23.8039149,35.2830638 C22.2474894,35.2830638 21.0342128,34.1188085 21.0342128,32.4765957 C21.0342128,30.8221277 22.2474894,29.6578723 23.8039149,29.6578723 Z M14.4163404,29.8049362 C15.899234,29.8049362 16.9286809,30.8956596 16.9286809,32.4765957 C16.9286809,34.0575319 15.899234,35.1482553 14.4163404,35.1482553 L12.7005957,35.1482553 L12.7005957,29.8049362 L14.4163404,29.8049362 Z" id="Combined-Shape" fill="#0059B2" fill-rule="nonzero"></path>
                        </g>
                    </g>
                </g>
            </g>
        </g>
    </g>
</svg>