<?xml version="1.0" encoding="UTF-8"?>
<svg width="62px" height="62px" viewBox="0 0 62 62" version="1.1" xmlns="http://www.w3.org/2000/svg" xmlns:xlink="http://www.w3.org/1999/xlink">
    <title>py</title>
    <g id="⚙️-configuration" stroke="none" stroke-width="1" fill="none" fill-rule="evenodd">
        <g id="document-Conf_03_v5" transform="translate(-544.000000, -522.000000)">
            <g id="Group-7" transform="translate(135.000000, 217.000000)">
                <g id="popup-copy" transform="translate(40.000000, 282.000000)">
                    <g id="Group-3" transform="translate(270.000000, 23.000000)">
                        <g id="py" transform="translate(99.000000, 0.000000)">
                            <g id="Group" transform="translate(0.441379, 0.441379)">
                                <polygon id="Path" fill="#0C4680" fill-rule="nonzero" points="56.937931 34.4275862 3.97241379 34.4275862 0 29.1310345 5.29655172 23.8344828 55.6137931 23.8344828 60.9103448 29.1310345"></polygon>
                                <path d="M52.9655172,60.9103448 L7.94482759,60.9103448 C6.48165517,60.9103448 5.29655172,59.7252414 5.29655172,58.262069 L5.29655172,2.64827586 C5.29655172,1.18510345 6.48165517,0 7.94482759,0 L39.7241379,0 L55.6137931,15.8896552 L55.6137931,58.262069 C55.6137931,59.7252414 54.4286897,60.9103448 52.9655172,60.9103448 Z" id="Path" fill="#E5EEF7"></path>
                                <path d="M39.7241379,0 L39.7241379,13.2413793 C39.7241379,14.7045517 40.9092414,15.8896552 42.3724138,15.8896552 L55.6137931,15.8896552 L39.7241379,0 Z" id="Path" fill="#0059B2"></path>
                                <path d="M58.262069,52.9655172 L2.64827586,52.9655172 C1.18510345,52.9655172 0,51.7804138 0,50.3172414 L0,29.1310345 L60.9103448,29.1310345 L60.9103448,50.3172414 C60.9103448,51.7804138 59.7252414,52.9655172 58.262069,52.9655172 Z" id="Path" fill="#0059B2"></path>
                                <path d="M16.6488276,48.1103448 C20.0562759,48.1103448 22.5986207,45.4091034 22.5986207,41.9310345 C22.5986207,38.4529655 20.0562759,35.7517241 16.6488276,35.7517241 L11.7406897,35.7517241 L11.7406897,48.1103448 L16.6488276,48.1103448 Z M16.6488276,45.7798621 L14.1771034,45.7798621 L14.1771034,38.0822069 L16.6488276,38.0822069 C18.7851034,38.0822069 20.2681379,39.6535172 20.2681379,41.9310345 C20.2681379,44.2085517 18.7851034,45.7798621 16.6488276,45.7798621 Z M30.1726897,48.3575172 C33.7390345,48.3575172 36.5991724,45.5326897 36.5991724,41.9310345 C36.5991724,38.3117241 33.7390345,35.5045517 30.1726897,35.5045517 C26.6063448,35.5045517 23.7638621,38.3117241 23.7638621,41.9310345 C23.7638621,45.5326897 26.6063448,48.3575172 30.1726897,48.3575172 Z M30.1726897,45.974069 C27.9304828,45.974069 26.1826207,44.2968276 26.1826207,41.9310345 C26.1826207,39.5475862 27.9304828,37.8703448 30.1726897,37.8703448 C32.4148966,37.8703448 34.1627586,39.5475862 34.1627586,41.9310345 C34.1627586,44.2968276 32.4148966,45.974069 30.1726897,45.974069 Z M44.1732414,48.3575172 C46.4507586,48.3575172 48.4457931,47.209931 49.4874483,45.4444138 L47.3864828,44.2262069 C46.8038621,45.3031724 45.5856552,45.974069 44.1732414,45.974069 C41.7544828,45.974069 40.1655172,44.2968276 40.1655172,41.9310345 C40.1655172,39.5475862 41.7544828,37.8703448 44.1732414,37.8703448 C45.5856552,37.8703448 46.7862069,38.5412414 47.3864828,39.6358621 L49.4874483,38.4176552 C48.4281379,36.6521379 46.4331034,35.5045517 44.1732414,35.5045517 C40.4303448,35.5045517 37.7467586,38.3117241 37.7467586,41.9310345 C37.7467586,45.5326897 40.4303448,48.3575172 44.1732414,48.3575172 Z" id="DOC" fill="#FFFFFF" fill-rule="nonzero"></path>
                            </g>
                        </g>
                    </g>
                </g>
            </g>
        </g>
    </g>
</svg>