<?xml version="1.0" encoding="UTF-8"?>
<svg width="32px" height="32px" viewBox="0 0 32 32" version="1.1" xmlns="http://www.w3.org/2000/svg" xmlns:xlink="http://www.w3.org/1999/xlink">
    <title>Group 2</title>
    <g id="⚙️-configuration" stroke="none" stroke-width="1" fill="none" fill-rule="evenodd">
        <g id="configuration_01" transform="translate(-191.000000, -501.000000)">
            <g id="form" transform="translate(135.000000, 136.000000)">
                <g id="Group-4" transform="translate(40.000000, 304.000000)">
                    <g id="loi" transform="translate(0.000000, 45.000000)">
                        <g id="Group-2" transform="translate(16.000000, 16.000000)">
                            <rect id="Rectangle" fill="#CDB8FF" x="0" y="0" width="32" height="32" rx="6"></rect>
                            <g id="noun_company_2468405" transform="translate(8.800000, 8.800000)" fill="#FFFFFF">
                                <path d="M0.7896,1.2156 L6.9198,0.0028 L6.9198,13.0556 L7.4932,13.0556 L7.4932,2.5602 L13.6234,3.5366 L13.6234,13.0556 L14.3944,13.0556 L14.3944,14.2904 L0.0186,14.2904 L0.0186,13.0556 L0.7896,13.0556 L0.7896,1.2156 Z M8.2212,5.2282 L9.4118,5.2282 L9.4118,6.463 L8.2212,6.463 L8.2212,5.2282 L8.2212,5.2282 Z M9.963,5.2282 L11.1536,5.2282 L11.1536,6.463 L9.963,6.463 L9.963,5.2282 Z M11.7048,5.2282 L12.8954,5.2282 L12.8954,6.463 L11.7048,6.463 L11.7048,5.2282 Z M8.2212,7.2236 L9.4118,7.2236 L9.4118,8.4584 L8.2212,8.4584 L8.2212,7.2236 L8.2212,7.2236 Z M9.963,7.2236 L11.1536,7.2236 L11.1536,8.4584 L9.963,8.4584 L9.963,7.2236 Z M11.7048,7.2236 L12.8954,7.2236 L12.8954,8.4584 L11.7048,8.4584 L11.7048,7.2236 Z M8.2212,9.219 L9.4118,9.219 L9.4118,10.4538 L8.2212,10.4538 L8.2212,9.219 L8.2212,9.219 Z M9.963,9.219 L11.1536,9.219 L11.1536,10.4538 L9.963,10.4538 L9.963,9.219 Z M11.7048,9.219 L12.8954,9.219 L12.8954,10.4538 L11.7048,10.4538 L11.7048,9.219 Z M1.5176,6.6606 L2.7082,6.6606 L2.7082,7.8954 L1.5176,7.8954 L1.5176,6.6606 Z M3.2594,6.6606 L4.45,6.6606 L4.45,7.8954 L3.2594,7.8954 L3.2594,6.6606 Z M5.0012,6.6606 L6.1918,6.6606 L6.1918,7.8954 L5.0012,7.8954 L5.0012,6.6606 L5.0012,6.6606 Z M1.5176,4.6652 L2.7082,4.6652 L2.7082,5.9 L1.5176,5.9 L1.5176,4.6652 Z M3.2594,4.6652 L4.45,4.6652 L4.45,5.9 L3.2594,5.9 L3.2594,4.6652 Z M5.0012,4.6652 L6.1918,4.6652 L6.1918,5.9 L5.0012,5.9 L5.0012,4.6652 L5.0012,4.6652 Z M1.5176,2.6698 L2.7082,2.6698 L2.7082,3.9046 L1.5176,3.9046 L1.5176,2.6698 Z M3.2594,2.6698 L4.45,2.6698 L4.45,3.9046 L3.2594,3.9046 L3.2594,2.6698 Z M5.0012,2.6698 L6.1918,2.6698 L6.1918,3.9046 L5.0012,3.9046 L5.0012,2.6698 L5.0012,2.6698 Z" id="Shape"></path>
                            </g>
                        </g>
                    </g>
                </g>
            </g>
        </g>
    </g>
</svg>