<?xml version="1.0" encoding="UTF-8"?>
<svg width="24px" height="24px" viewBox="0 0 24 24" version="1.1" xmlns="http://www.w3.org/2000/svg" xmlns:xlink="http://www.w3.org/1999/xlink">
    <!-- Generator: sketchtool 63.1 (101010) - https://sketch.com -->
    <title>16FAB257-AF46-4805-9CA3-977124BE8D49</title>
    <desc>Created with sketchtool.</desc>
    <g id="🖥-Ops_analyst-" stroke="none" stroke-width="1" fill="none" fill-rule="evenodd">
        <g id="physical-verification_01" transform="translate(-266.000000, -761.000000)">
            <g id="pan-details-copy" transform="translate(160.000000, 284.000000)">
                <g id="door-number" transform="translate(40.000000, 274.000000)">
                    <g id="Group-6" transform="translate(66.000000, 203.000000)">
                        <g id="thumbnail">
                            <rect id="Rectangle" fill="#FFF7E5" x="0" y="0" width="24" height="24" rx="12"></rect>
                            <g id="noun_Door_1043070" transform="translate(8.000000, 6.000000)" fill="#FFB803">
                                <g id="Group">
                                    <path d="M5.05914286,0.00528571429 L0.177428571,1.70371429 C0.0938571429,1.72357143 0.0351428571,1.79642857 0.0351428571,1.88 L0.0351428571,10.9771429 C0.0351428571,11.0607143 0.0938571429,11.1335714 0.177428571,11.1534286 L5.05914286,12.8518571 C5.17685714,12.8798571 5.29042857,12.7932857 5.29042857,12.6755714 L5.29042857,0.181571429 C5.29042857,0.0638571429 5.17671429,-0.0227142857 5.05914286,0.00528571429 Z M4.21114286,6.97557143 C3.98657143,6.97557143 3.80442857,6.73071429 3.80442857,6.42857143 C3.80442857,6.12642857 3.98642857,5.88157143 4.21114286,5.88157143 C4.43571429,5.88157143 4.61785714,6.12642857 4.61785714,6.42857143 C4.61785714,6.73071429 4.43571429,6.97557143 4.21114286,6.97557143 Z" id="Shape"></path>
                                    <path d="M7.65442857,0.718571429 L5.84314286,0.718571429 L5.84314286,1.19828571 L7.49571429,1.19828571 L7.49571429,11.75 L5.82214286,11.75 L5.82214286,12.2297143 L7.65442857,12.2297143 C7.82557143,12.2297143 7.96485725,12.0808571 7.96485725,11.898 L7.96485725,1.05028571 C7.965,0.867428571 7.82557143,0.718571429 7.65442857,0.718571429 Z" id="Path"></path>
                                </g>
                            </g>
                        </g>
                    </g>
                </g>
            </g>
        </g>
    </g>
</svg>