<?xml version="1.0" encoding="UTF-8"?>
<svg width="24px" height="24px" viewBox="0 0 24 24" version="1.1" xmlns="http://www.w3.org/2000/svg" xmlns:xlink="http://www.w3.org/1999/xlink">
    <title>B46A57CD-FA74-4F13-B1DC-3A43B1296AC9</title>
    <g id="⚙️-configuration" stroke="none" stroke-width="1" fill="none" fill-rule="evenodd">
        <g id="government-document-generation_ESIC_05" transform="translate(-151.000000, -280.000000)">
            <g id="form" transform="translate(135.000000, 255.000000)">
                <g id="Group-6" transform="translate(8.000000, 9.000000)">
                    <g id="check-double" transform="translate(8.000000, 16.000000)">
                        <rect id="Rectangle" fill="#F5F5F4" fill-rule="nonzero" opacity="0" x="0" y="0" width="24" height="24" rx="2"></rect>
                        <g id="Group" transform="translate(0.000000, 4.500000)" fill="#4BB752">
                            <path d="M5.52,13.9200001 C5.32901102,13.9200001 5.14581287,13.8442864 5.01072,13.70928 L0.18192,8.88 L1.2,7.86192 L5.472,12.13392 L15.51168,0.18576 L16.61568,1.11168 L6.07104,13.6632 C5.94140732,13.8178709 5.75281199,13.9110367 5.5512,13.9200001 L5.52,13.9200001 Z" id="Path"></path>
                            <path d="M21.27168,0.18576 L11.232,12.13536 L9.80544,10.70832 L8.87568,11.8152 L10.76928,13.70928 C10.9047255,13.8446399 11.0885122,13.9204692 11.28,13.9200022 L11.3112,13.9200022 C11.5127365,13.9111574 11.7013195,13.8181719 11.83104,13.66368 L22.37424,1.11168 L21.27168,0.18576 Z" id="Path"></path>
                        </g>
                    </g>
                </g>
            </g>
        </g>
    </g>
</svg>