<?xml version="1.0" encoding="UTF-8"?>
<svg width="16px" height="16px" viewBox="0 0 16 16" version="1.1" xmlns="http://www.w3.org/2000/svg" xmlns:xlink="http://www.w3.org/1999/xlink">
    <title>647784FC-CE25-43D2-ABC1-29243FFD7849</title>
    <g id="🎭-all-employees_OA" stroke="none" stroke-width="1" fill="none" fill-rule="evenodd">
        <g id="initiate-BGV-update-flow_multiple-employee_03" transform="translate(-846.000000, -484.000000)">
            <g id="Group-6" transform="translate(356.000000, 172.000000)">
                <g id="Group-44" transform="translate(64.000000, 136.000000)">
                    <g id="Group-26" transform="translate(0.000000, 101.000000)">
                        <g id="Group-45" transform="translate(0.000000, 33.000000)">
                            <g id="check-double-copy" transform="translate(426.000000, 42.000000)">
                                <rect id="Rectangle" fill="#F5F5F4" fill-rule="nonzero" opacity="0" x="0" y="0" width="16" height="16" rx="2"></rect>
                                <g id="Group" transform="translate(0.000000, 3.000000)" fill="#00C025">
                                    <path d="M3.68,9.28000005 C3.55267401,9.28000005 3.43054191,9.22952424 3.34048,9.13952 L0.12128,5.92 L0.8,5.24128 L3.648,8.08928 L10.34112,0.12384 L11.07712,0.74112 L4.04736,9.1088 C3.96093821,9.21191397 3.83520799,9.27402446 3.7008,9.28000005 L3.68,9.28000005 Z" id="Path" fill-rule="nonzero"></path>
                                    <path d="M14.18112,0.12384 L7.488,8.09024 L6.53696,7.13888 L5.91712,7.8768 L7.17952,9.13952 C7.26981701,9.22975993 7.39234148,9.28031279 7.52,9.28000144 L7.5408,9.28000144 C7.67515765,9.27410496 7.80087969,9.21211459 7.88736,9.10912 L14.91616,0.74112 L14.18112,0.12384 Z" id="Path"></path>
                                </g>
                            </g>
                        </g>
                    </g>
                </g>
            </g>
        </g>
    </g>
</svg>