<?xml version="1.0" encoding="UTF-8"?>
<svg width="24px" height="24px" viewBox="0 0 24 24" version="1.1" xmlns="http://www.w3.org/2000/svg" xmlns:xlink="http://www.w3.org/1999/xlink">
    <title>E2D96A1E-1493-4D49-843E-1ECBE62CDB4B</title>
    <g id="⛑-in-progress-screen" stroke="none" stroke-width="1" fill="none" fill-rule="evenodd">
        <g id="profile-view_mode_download-documents_03_hover" transform="translate(-262.000000, -3104.000000)">
            <g id="section-copy" transform="translate(160.000000, 1814.000000)">
                <g id="Group-6" transform="translate(40.000000, 1184.000000)">
                    <g id="download" transform="translate(62.000000, 106.000000)">
                        <rect id="Rectangle" fill="#FFFFFF" fill-rule="nonzero" x="0" y="0" width="24" height="24" rx="12"></rect>
                        <g id="Group" transform="translate(6.000000, 6.000000)" fill="#0059B2">
                            <path d="M12,11.6 C12,11.8208 11.8208,12 11.6,12 L0.4,12 C0.1792,12 0,11.8208 0,11.6 C0,11.3792 0.1792,11.2 0.4,11.2 L11.6,11.2 C11.8208,11.2 12,11.3792 12,11.6 Z" id="Path"></path>
                            <polygon id="Path" points="6 9.6 2.8 6 5.6 6 5.6 0 6.4 0 6.4 6 9.2 6"></polygon>
                        </g>
                    </g>
                </g>
            </g>
        </g>
    </g>
</svg>