<?xml version="1.0" encoding="UTF-8"?>
<svg width="159px" height="30px" viewBox="0 0 159 30" version="1.1" xmlns="http://www.w3.org/2000/svg" xmlns:xlink="http://www.w3.org/1999/xlink">
    <!-- Generator: Sketch 61 (89581) - https://sketch.com -->
    <title>attachment</title>
    <desc>Created with Sketch.</desc>
    <defs>
        <path d="M12,8.5 L12,12 L8.5,12 L8.5,11 L11,11 L11,8.5 L12,8.5 Z M1,8.5 L1,11 L3.5,11 L3.5,12 L0,12 L0,8.5 L1,8.5 Z M7.5,2.5 L7.5,6.5 L9.5,6.5 L6,10.5 L2.5,6.5 L4.5,6.5 L4.5,2.5 L7.5,2.5 Z M12,0 L12,3.5 L11,3.5 L11,1 L8.5,1 L8.5,0 L12,0 Z M3.5,0 L3.5,1 L1,1 L1,3.5 L0,3.5 L0,0 L3.5,0 Z" id="path-1"></path>
    </defs>
    <g id="📮-email-template-notification-for-web-and-mobile" stroke="none" stroke-width="1" fill="none" fill-rule="evenodd">
        <g id="education-verification-website" transform="translate(-369.000000, -500.000000)">
            <g id="profile/-header" transform="translate(265.000000, 380.000000)">
                <g id="Group-2" transform="translate(16.000000, 24.000000)">
                    <g id="name" transform="translate(88.000000, 2.000000)">
                        <g id="attachment" transform="translate(0.000000, 94.000000)">
                            <rect id="Rectangle" fill="#E5EEF7" x="0" y="0" width="159" height="30" rx="6"></rect>
                            <g id="icon-/-12-/-info-/-download" transform="translate(12.000000, 9.000000)">
                                <mask id="mask-2" fill="white">
                                    <use xlink:href="#path-1"></use>
                                </mask>
                                <use id="Combined-Shape" fill="#FFFFFF" fill-rule="evenodd" xlink:href="#path-1"></use>
                                <rect id="Rectangle" fill="#0059B2" fill-rule="evenodd" mask="url(#mask-2)" x="0" y="0" width="12" height="12"></rect>
                            </g>
                            <path d="M35.492,19.156 C36.512,19.156 37.28,18.7 37.76,17.968 L37.76,19 L38.804,19 L38.804,10.6 L37.76,10.6 L37.76,14.032 C37.28,13.3 36.512,12.844 35.492,12.844 C33.824,12.844 32.456,14.224 32.456,16 C32.456,17.776 33.824,19.156 35.492,19.156 Z M35.624,18.148 C34.424,18.148 33.5,17.224 33.5,16 C33.5,14.776 34.424,13.852 35.624,13.852 C36.836,13.852 37.76,14.776 37.76,16 C37.76,17.224 36.836,18.148 35.624,18.148 Z M43.208,19.156 C44.96,19.156 46.376,17.776 46.376,16 C46.376,14.224 44.96,12.844 43.208,12.844 C41.456,12.844 40.052,14.224 40.052,16 C40.052,17.776 41.456,19.156 43.208,19.156 Z M43.208,18.136 C42.02,18.136 41.096,17.212 41.096,16 C41.096,14.788 42.02,13.864 43.208,13.864 C44.408,13.864 45.332,14.788 45.332,16 C45.332,17.212 44.408,18.136 43.208,18.136 Z M49.796,19 L51.2,14.56 L52.604,19 L53.672,19 L55.532,13 L54.44,13 L53.12,17.572 L51.704,13 L50.696,13 L49.28,17.56 L47.96,13 L46.868,13 L48.728,19 L49.796,19 Z M57.656,19 L57.656,15.82 C57.656,14.404 58.436,13.84 59.396,13.84 C60.32,13.84 60.884,14.392 60.884,15.376 L60.884,19 L61.928,19 L61.928,15.316 C61.928,13.78 61.004,12.844 59.6,12.844 C58.76,12.844 58.1,13.156 57.656,13.864 L57.656,13 L56.612,13 L56.612,19 L57.656,19 Z M64.424,19 L64.424,10.24 L63.38,10.24 L63.38,19 L64.424,19 Z M68.84,19.156 C70.592,19.156 72.008,17.776 72.008,16 C72.008,14.224 70.592,12.844 68.84,12.844 C67.088,12.844 65.684,14.224 65.684,16 C65.684,17.776 67.088,19.156 68.84,19.156 Z M68.84,18.136 C67.652,18.136 66.728,17.212 66.728,16 C66.728,14.788 67.652,13.864 68.84,13.864 C70.04,13.864 70.964,14.788 70.964,16 C70.964,17.212 70.04,18.136 68.84,18.136 Z M75.944,19.156 C76.964,19.156 77.732,18.7 78.212,17.968 L78.212,19 L79.256,19 L79.256,13 L78.212,13 L78.212,14.032 C77.732,13.3 76.964,12.844 75.944,12.844 C74.276,12.844 72.908,14.224 72.908,16 C72.908,17.776 74.276,19.156 75.944,19.156 Z M76.076,18.148 C74.876,18.148 73.952,17.224 73.952,16 C73.952,14.776 74.876,13.852 76.076,13.852 C77.288,13.852 78.212,14.776 78.212,16 C78.212,17.224 77.288,18.148 76.076,18.148 Z M83.54,19.156 C84.56,19.156 85.328,18.7 85.808,17.968 L85.808,19 L86.852,19 L86.852,10.6 L85.808,10.6 L85.808,14.032 C85.328,13.3 84.56,12.844 83.54,12.844 C81.872,12.844 80.504,14.224 80.504,16 C80.504,17.776 81.872,19.156 83.54,19.156 Z M83.672,18.148 C82.472,18.148 81.548,17.224 81.548,16 C81.548,14.776 82.472,13.852 83.672,13.852 C84.884,13.852 85.808,14.776 85.808,16 C85.808,17.224 84.884,18.148 83.672,18.148 Z M94.256,19.156 C95.432,19.156 96.452,18.532 96.956,17.596 L96.068,17.08 C95.732,17.704 95.072,18.124 94.256,18.124 C93.056,18.124 92.144,17.2 92.144,16 C92.144,14.788 93.056,13.864 94.256,13.864 C95.06,13.864 95.732,14.284 96.032,14.92 L96.908,14.416 C96.452,13.468 95.444,12.844 94.256,12.844 C92.444,12.844 91.1,14.224 91.1,16 C91.1,17.776 92.444,19.156 94.256,19.156 Z M100.784,19.156 C101.984,19.156 102.896,18.616 103.424,17.8 L102.536,17.296 C102.236,17.788 101.636,18.172 100.808,18.172 C99.692,18.172 98.84,17.56 98.636,16.48 L103.664,16.48 C103.688,16.324 103.7,16.168 103.7,16.012 C103.7,14.332 102.524,12.844 100.712,12.844 C98.84,12.844 97.568,14.224 97.568,16 C97.568,17.8 98.852,19.156 100.784,19.156 Z M102.644,15.568 L98.636,15.568 C98.804,14.524 99.584,13.828 100.712,13.828 C101.612,13.828 102.464,14.38 102.644,15.568 Z M105.944,19 L105.944,15.82 C105.944,14.404 106.916,13.948 107.816,13.984 L107.816,12.892 C107.06,12.892 106.328,13.168 105.944,14.008 L105.944,13 L104.9,13 L104.9,19 L105.944,19 Z M112.244,19 L112.244,18.064 C111.176,18.112 110.648,18.172 110.648,17.26 L110.648,14.008 L112.244,14.008 L112.244,13 L110.648,13 L110.648,11.32 L109.604,11.632 L109.604,13 L108.416,13 L108.416,14.008 L109.604,14.008 L109.604,17.26 C109.604,18.76 110.444,19.24 112.244,19 Z M114.008,11.908 C114.392,11.908 114.704,11.596 114.704,11.212 C114.704,10.828 114.392,10.504 114.008,10.504 C113.612,10.504 113.3,10.828 113.3,11.212 C113.3,11.596 113.612,11.908 114.008,11.908 Z M114.524,19 L114.524,13 L113.48,13 L113.48,19 L114.524,19 Z M117.62,19 L117.62,14.008 L119.84,14.008 L119.84,19 L120.884,19 L120.884,13 L117.62,13 L117.62,12.82 C117.62,11.776 118.16,11.452 119.204,11.452 C119.588,11.452 119.984,11.488 120.44,11.548 L120.44,10.6 C119.984,10.504 119.588,10.444 119.204,10.444 C117.488,10.444 116.576,11.224 116.576,12.82 L116.576,13 L115.616,13 L115.616,14.008 L116.576,14.008 L116.576,19 L117.62,19 Z M125.3,19.156 C126.476,19.156 127.496,18.532 128,17.596 L127.112,17.08 C126.776,17.704 126.116,18.124 125.3,18.124 C124.1,18.124 123.188,17.2 123.188,16 C123.188,14.788 124.1,13.864 125.3,13.864 C126.104,13.864 126.776,14.284 127.076,14.92 L127.952,14.416 C127.496,13.468 126.488,12.844 125.3,12.844 C123.488,12.844 122.144,14.224 122.144,16 C122.144,17.776 123.488,19.156 125.3,19.156 Z M131.648,19.156 C132.668,19.156 133.436,18.7 133.916,17.968 L133.916,19 L134.96,19 L134.96,13 L133.916,13 L133.916,14.032 C133.436,13.3 132.668,12.844 131.648,12.844 C129.98,12.844 128.612,14.224 128.612,16 C128.612,17.776 129.98,19.156 131.648,19.156 Z M131.78,18.148 C130.58,18.148 129.656,17.224 129.656,16 C129.656,14.776 130.58,13.852 131.78,13.852 C132.992,13.852 133.916,14.776 133.916,16 C133.916,17.224 132.992,18.148 131.78,18.148 Z M139.808,19 L139.808,18.064 C138.74,18.112 138.212,18.172 138.212,17.26 L138.212,14.008 L139.808,14.008 L139.808,13 L138.212,13 L138.212,11.32 L137.168,11.632 L137.168,13 L135.98,13 L135.98,14.008 L137.168,14.008 L137.168,17.26 C137.168,18.76 138.008,19.24 139.808,19 Z M143.624,19.156 C144.824,19.156 145.736,18.616 146.264,17.8 L145.376,17.296 C145.076,17.788 144.476,18.172 143.648,18.172 C142.532,18.172 141.68,17.56 141.476,16.48 L146.504,16.48 C146.528,16.324 146.54,16.168 146.54,16.012 C146.54,14.332 145.364,12.844 143.552,12.844 C141.68,12.844 140.408,14.224 140.408,16 C140.408,17.8 141.692,19.156 143.624,19.156 Z M145.484,15.568 L141.476,15.568 C141.644,14.524 142.424,13.828 143.552,13.828 C144.452,13.828 145.304,14.38 145.484,15.568 Z" id="downloadcertifcate" fill="#0059B2" fill-rule="nonzero"></path>
                        </g>
                    </g>
                </g>
            </g>
        </g>
    </g>
</svg>