<?xml version="1.0" encoding="UTF-8"?>
<svg width="40px" height="40px" viewBox="0 0 40 40" version="1.1" xmlns="http://www.w3.org/2000/svg" xmlns:xlink="http://www.w3.org/1999/xlink">
    <!-- Generator: sketchtool 55.2 (78181) - https://sketchapp.com -->
    <title>3CE9019F-BE8E-4833-888F-2EAC89795F1B</title>
    <desc>Created with sketchtool.</desc>
    <defs>
        <rect id="path-1" x="0" y="0" width="40" height="40" rx="19.5"></rect>
        <rect id="path-3" x="2.66666667" y="2.66666667" width="26.6666667" height="26.6666667"></rect>
    </defs>
    <g id="👽-GBV-Client" stroke="none" stroke-width="1" fill="none" fill-rule="evenodd">
        <g id="BGV-Client-zomato-add-Documents_2" transform="translate(-160.000000, -65.000000)">
            <g id="Group-6" transform="translate(160.000000, 65.000000)">
                <g id="Group-4">
                    <g id="section-title">
                        <g id="driving_license_icon">
                            <g id="icon-/-40-/-info-/-container">
                                <mask id="mask-2" fill="white">
                                    <use xlink:href="#path-1"></use>
                                </mask>
                                <use fill="#FEF8E5" xlink:href="#path-1"></use>
                            </g>
                            <g id="icon-/-24-/-info-/-form" transform="translate(4.000000, 4.000000)">
                                <mask id="mask-4" fill="white">
                                    <use xlink:href="#path-3"></use>
                                </mask>
                                <g id="container"></g>
                                <g id="driving-license_icon" mask="url(#mask-4)">
                                    <g transform="translate(6.666667, 4.666667)" id="Combined-Shape">
                                        <path d="M11.3003615,18.9343406 C10.367103,19.3528286 9.78612141,19.6577867 9.05128932,20.1843206 C8.31609381,19.6577867 7.08870521,19.1681612 6.15581006,18.7496732 C3.35494413,17.4919267 1.49569537,16.4803272 1.27728089,14.0279878 C1.2892737,12.5305619 1.6853998,11.0959091 2.06880626,9.70767046 C2.68879812,7.46419462 3.43235225,4.77331712 1.77661783,2.47201386 L2.61001495,1.7785271 C3.62068164,2.54093605 4.50480008,3.37062161 5.80511127,3.37062161 L5.80547469,3.37062161 C6.93316211,3.37062161 7.9358336,3.02365706 8.7280858,2.3894576 C9.51997459,3.02365706 10.5226461,3.37062161 11.6506969,3.37062161 C12.9513715,3.37062161 14.2734878,2.90115423 15.2845179,2.13836483 L16.3174348,2.78944179 C14.6613369,5.09074506 15.2364127,7.46419462 15.8564046,9.70767046 C16.2401744,11.0959091 17.1955483,13.4424525 16.6721944,14.3684613 C16.4534165,16.8208006 14.3062154,17.9151566 11.4968012,18.838014 L11.3003615,18.9343406 Z M4.4179773,12.5424614 L2.8406639,13.6591679 L3.71422215,14.9205926 L4.10263289,14.6456055 L3.44719756,13.9638822 L4.75911686,13.0350694 L4.4179773,12.5424614 Z M5.33879749,13.6828253 L4.05025581,15.1295231 L4.49326808,15.5327707 L5.78180976,14.0860729 L5.33879749,13.6828253 Z M6.32697397,15.8183172 C6.26436589,15.927135 6.19549691,16.0031814 6.12036498,16.0464588 C6.04523305,16.0897361 5.95354757,16.0936063 5.8453058,16.0580693 C5.73373352,16.021439 5.65939102,15.9549162 5.62227607,15.8584991 C5.58516112,15.762082 5.59963051,15.6111686 5.66568467,15.4057546 C5.71901528,15.239908 5.78394394,15.126735 5.86047261,15.0662322 C5.96231669,14.984257 6.07734944,14.9643185 6.2055743,15.0064161 C6.26219307,15.0250047 6.30960905,15.053602 6.34782366,15.092209 C6.38603827,15.1308159 6.41392655,15.1772009 6.43148933,15.2313654 C6.44224767,15.2637504 6.44730046,15.3110148 6.44664785,15.3731601 L6.98236285,15.424788 C6.98105601,15.2084275 6.92957748,15.0314418 6.82792573,14.8938257 C6.72627398,14.7562095 6.56013148,14.6495426 6.32949567,14.5738141 C6.03474259,14.4770518 5.78035195,14.484511 5.5663137,14.5961995 C5.35227545,14.7078879 5.19598877,14.9169477 5.09744094,15.2233825 C5.0235441,15.4532131 5.00869903,15.6568217 5.05291331,15.8342171 C5.09712759,16.0116124 5.17289794,16.1502698 5.28022662,16.2501933 C5.38755531,16.3501168 5.54071651,16.432744 5.73971228,16.4980851 C5.90374275,16.5519294 6.04655,16.5722888 6.16814088,16.5591563 C6.28973176,16.5460238 6.40148855,16.5040684 6.50341458,16.433289 C6.60534061,16.3625097 6.69555946,16.2622933 6.77407382,16.132637 L6.32697397,15.8183172 Z M9.18465206,14.9634671 L9.8427924,16.7923515 L10.3685517,16.5988058 L10.0071581,15.5945412 L11.0461147,16.3493772 L11.5731082,16.1553771 L10.9149679,14.3264928 L10.3879744,14.5204928 L10.82868,15.745155 L9.70670883,14.7712844 L9.18465206,14.9634671 Z M11.5721517,15.4174912 C11.6693394,15.5884538 11.8016988,15.7047425 11.9692337,15.7663609 C12.1367685,15.8279793 12.3689306,15.7888092 12.6657267,15.6488494 C12.8347577,15.5691396 12.963448,15.4784249 13.0518016,15.3767025 C13.1401551,15.2749802 13.1932735,15.1617992 13.2111583,15.0371563 C13.2290434,14.9125138 13.2119104,14.7936435 13.159765,14.6805406 C13.1153759,14.5842876 13.0520346,14.5082037 12.9697338,14.4522892 C12.8874329,14.3963748 12.783184,14.3661921 12.6569838,14.3617404 C12.5307836,14.3572887 12.3380053,14.3849666 12.0786429,14.4447749 C11.9741676,14.4696285 11.9038708,14.476412 11.8677504,14.4651254 C11.8312063,14.4550151 11.806462,14.435923 11.7935168,14.4078485 C11.7757633,14.3693463 11.7765628,14.3291756 11.7959152,14.2873353 C11.8152677,14.245495 11.8562894,14.2097935 11.9189816,14.1802298 C11.9951646,14.1443042 12.0632019,14.1341919 12.1230955,14.1498926 C12.1829891,14.1655932 12.2379887,14.2099674 12.288096,14.2830164 L12.7825068,14.0132473 C12.6759578,13.84084 12.5448339,13.7403256 12.3891311,13.7117011 C12.2334283,13.6830766 12.0440828,13.7213422 11.8210812,13.8264827 C11.6393608,13.9121966 11.5069549,14.0027104 11.4238673,14.0980433 C11.3407797,14.1933762 11.2918328,14.2936041 11.2770251,14.3987298 C11.2622174,14.5038555 11.2757107,14.6017373 11.3175054,14.6923779 C11.381122,14.8303443 11.4842449,14.919894 11.6268771,14.9610297 C11.7687157,15.0025396 11.9702648,14.9944067 12.2315303,14.9366305 C12.3907551,14.9006069 12.4985271,14.8912876 12.5548497,14.9086722 C12.6111722,14.9260569 12.649874,14.9576094 12.6709562,15.0033308 C12.6931481,15.0514586 12.6918271,15.1035935 12.6669934,15.1597372 C12.6421597,15.2158809 12.5912553,15.2621019 12.5142787,15.2984017 C12.4111143,15.3470508 12.3152995,15.3487784 12.2268315,15.3035846 C12.1723654,15.2755591 12.1201602,15.2220549 12.0702145,15.1430704 L11.5721517,15.4174912 Z M12.4532905,13.4310434 L13.7660629,14.8542931 L14.9534292,13.7348904 L14.6561302,13.4125719 L13.8269791,14.1942632 L13.6461065,13.84023 L14.3233665,13.2017358 L14.0556182,12.911455 L13.3783583,13.5499492 L13.0279627,13.328005 L13.8998074,12.6354379 L13.6195225,12.3315653 L12.4532905,13.4310434 Z M7.26174232,14.9376437 L7.23115844,16.6897927 L8.98882177,16.7204729 L8.995748,16.3236697 L7.76835227,16.3022454 L7.88972802,15.9588488 L8.89227871,15.9763484 L8.89851648,15.6189864 L7.8959658,15.6014868 L7.78696709,15.2358032 L8.98159053,15.3418723 L8.98812038,14.9677777 L7.26174232,14.9376437 Z M8.94096605,4.27672958 C6.58970479,4.27672958 4.68336304,6.19163525 4.68336304,8.55345917 C4.68336304,10.9152831 6.58970479,12.8301888 8.94096605,12.8301888 C11.2922273,12.8301888 13.1985691,10.9152831 13.1985691,8.55345917 C13.1985691,6.19163525 11.2922273,4.27672958 8.94096605,4.27672958 Z M8.94096605,5.34591198 C10.3265497,5.34591198 11.4968584,6.24242142 11.9388508,7.48427677 L5.9430813,7.48427677 C6.38507372,6.24242142 7.55538236,5.34591198 8.94096605,5.34591198 Z M8.94096593,9.08805021 C8.64692522,9.08805021 8.40876555,8.84882065 8.40876555,8.55345901 C8.40876555,8.25809737 8.64692522,8.01886781 8.94096593,8.01886781 C9.23500664,8.01886781 9.47316631,8.25809737 9.47316631,8.55345901 C9.47316631,8.84882065 9.23500664,9.08805021 8.94096593,9.08805021 Z M5.74776379,8.55345917 C7.20200126,8.55345917 8.37976064,9.96103784 8.40450795,11.7067455 C6.89944536,11.447736 5.74776379,10.1374529 5.74776379,8.55345917 Z M9.47742375,11.7067455 C9.50217106,9.96103784 10.6799304,8.55345917 12.1341679,8.55345917 C12.1341679,10.1374529 10.9824863,11.447736 9.47742375,11.7067455 Z" fill="#252525"></path>
                                        <path d="M15.3443102,0.249704908 L18.1981977,2.68135508 C14.3648487,5.48421835 17.8795734,9.23462257 17.8795734,14.1395404 C17.4430054,19.899103 10.1537275,19.9009609 9.15666245,22.305857 L9.09927488,22.4805018 L9.0418873,22.305857 C8.04482225,19.9009609 0.755192285,19.899103 0.318624251,14.1395404 C0.318624251,9.23462257 3.83370107,5.48421835 -8.58572472e-14,2.68135508 L2.85388749,0.249704908 C3.97875432,2.1373551 8.01560035,3.12465561 9.09152931,5.32907052e-15 L9.10666837,5.32907052e-15 C10.1829494,3.12465561 14.2197954,2.1373551 15.3443102,0.249704908 Z M11.5912341,18.6836503 C14.3046454,17.4551913 16.1054887,16.4671476 16.3174354,14.0719126 C16.305465,12.6093553 15.9220597,11.2081094 15.5502727,9.85219679 C14.9496395,7.66096182 14.2293022,5.03274324 15.8336898,2.78502739 L15.4509887,2.45914761 C14.4715271,3.20417493 13.1906927,3.66271045 11.9306305,3.66271045 C10.8378021,3.66271045 9.86643818,3.32382521 9.09927543,2.70439351 C8.33176061,3.32382521 7.36039668,3.66271045 6.26792031,3.66271045 L6.26756824,3.66271045 C5.00785814,3.66271045 3.72667171,3.20417493 2.74756221,2.4595192 L2.36486101,2.78502739 C3.96889657,5.03274324 3.24855927,7.66096182 2.64792611,9.85219679 C2.27649119,11.2081094 1.89273378,12.6093553 1.88111544,14.0719126 C2.09271012,16.4671476 3.89390544,17.4551913 6.60731677,18.6836503 C7.51108307,19.0923935 8.38703576,19.4888744 9.09927543,20.0031476 C9.81116303,19.4888744 10.6871157,19.0923935 11.5912341,18.6836503 Z" fill="#636363"></path>
                                    </g>
                                </g>
                            </g>
                        </g>
                    </g>
                </g>
            </g>
        </g>
    </g>
</svg>