<?xml version="1.0" encoding="UTF-8"?>
<svg width="148px" height="92px" viewBox="0 0 148 92" version="1.1" xmlns="http://www.w3.org/2000/svg" xmlns:xlink="http://www.w3.org/1999/xlink">
    <!-- Generator: Sketch 60 (88103) - https://sketch.com -->
    <title>driving license cards</title>
    <desc>Created with Sketch.</desc>
    <defs>
        <rect id="path-1" x="4" y="4" width="40" height="40"></rect>
    </defs>
    <g id="📺-Empty-State" stroke="none" stroke-width="1" fill="none" fill-rule="evenodd">
        <g id="driving-license-cards">
            <path d="M2.87547763e-14,8.00345689 C2.87547763e-14,3.5832697 3.58511452,0 8.00959849,0 L139.990402,0 C144.413981,0 148,3.57827291 148,8.00345689 L148,83.9965431 C148,88.4167303 144.414885,92 139.990402,92 L8.00959849,92 C3.58601939,92 2.87547763e-14,88.4217271 2.87547763e-14,83.9965431 L2.87547763e-14,8.00345689 Z" id="Rectangle-Copy-13" fill="#FFCE06"></path>
            <path d="M22.512,11.2 L22.512,17.416 C21.648,16.312 20.376,15.664 18.624,15.664 C15.408,15.664 12.768,18.424 12.768,22 C12.768,25.576 15.408,28.336 18.624,28.336 C20.376,28.336 21.648,27.688 22.512,26.584 L22.512,28 L25.608,28 L25.608,11.2 L22.512,11.2 Z M19.2,25.384 C17.28,25.384 15.864,24.016 15.864,22 C15.864,19.984 17.28,18.616 19.2,18.616 C21.096,18.616 22.512,19.984 22.512,22 C22.512,24.016 21.096,25.384 19.2,25.384 Z M31.536,18.064 L31.536,16 L28.44,16 L28.44,28 L31.536,28 L31.536,22.264 C31.536,19.744 33.576,19.024 35.184,19.216 L35.184,15.76 C33.672,15.76 32.16,16.432 31.536,18.064 Z M38.52,14.56 C39.576,14.56 40.44,13.696 40.44,12.664 C40.44,11.632 39.576,10.744 38.52,10.744 C37.488,10.744 36.624,11.632 36.624,12.664 C36.624,13.696 37.488,14.56 38.52,14.56 Z M36.984,28 L40.08,28 L40.08,16 L36.984,16 L36.984,28 Z M50.808,16 L47.88,24.4 L44.976,16 L41.568,16 L46.128,28 L49.656,28 L54.216,16 L50.808,16 Z M57.24,14.56 C58.296,14.56 59.16,13.696 59.16,12.664 C59.16,11.632 58.296,10.744 57.24,10.744 C56.208,10.744 55.344,11.632 55.344,12.664 C55.344,13.696 56.208,14.56 57.24,14.56 Z M55.704,28 L58.8,28 L58.8,16 L55.704,16 L55.704,28 Z M68.304,15.664 C66.696,15.664 65.448,16.264 64.728,17.344 L64.728,16 L61.632,16 L61.632,28 L64.728,28 L64.728,21.52 C64.728,19.432 65.856,18.544 67.368,18.544 C68.76,18.544 69.744,19.384 69.744,21.016 L69.744,28 L72.84,28 L72.84,20.632 C72.84,17.44 70.848,15.664 68.304,15.664 Z M84.672,16 L84.672,17.488 C83.832,16.36 82.536,15.664 80.832,15.664 C77.424,15.664 74.856,18.448 74.856,21.808 C74.856,25.192 77.424,27.952 80.832,27.952 C82.536,27.952 83.832,27.256 84.672,26.128 L84.672,27.424 C84.672,29.32 83.472,30.376 81.528,30.376 C79.68,30.376 78.888,29.632 78.384,28.696 L75.744,30.208 C76.8,32.152 78.864,33.136 81.432,33.136 C84.6,33.136 87.696,31.36 87.696,27.424 L87.696,16 L84.672,16 Z M81.312,25.096 C79.368,25.096 77.952,23.728 77.952,21.808 C77.952,19.912 79.368,18.544 81.312,18.544 C83.256,18.544 84.672,19.912 84.672,21.808 C84.672,23.728 83.256,25.096 81.312,25.096 Z M13.416,52 L16.512,52 L16.512,34.48 L13.416,34.48 L13.416,52 Z M20.88,38.56 C21.936,38.56 22.8,37.696 22.8,36.664 C22.8,35.632 21.936,34.744 20.88,34.744 C19.848,34.744 18.984,35.632 18.984,36.664 C18.984,37.696 19.848,38.56 20.88,38.56 Z M19.344,52 L22.44,52 L22.44,40 L19.344,40 L19.344,52 Z M30.984,52.336 C33.336,52.336 35.376,51.088 36.408,49.216 L33.72,47.68 C33.24,48.664 32.208,49.264 30.96,49.264 C29.112,49.264 27.744,47.896 27.744,46 C27.744,44.08 29.112,42.712 30.96,42.712 C32.184,42.712 33.216,43.336 33.696,44.32 L36.36,42.76 C35.376,40.912 33.336,39.664 30.984,39.664 C27.336,39.664 24.648,42.424 24.648,46 C24.648,49.576 27.336,52.336 30.984,52.336 Z M40.464,47.272 L49.512,47.272 C49.584,46.864 49.632,46.456 49.632,46 C49.632,42.472 47.112,39.664 43.56,39.664 C39.792,39.664 37.224,42.424 37.224,46 C37.224,49.576 39.768,52.336 43.8,52.336 C46.104,52.336 47.904,51.4 49.032,49.768 L46.536,48.328 C46.008,49.024 45.048,49.528 43.848,49.528 C42.216,49.528 40.896,48.856 40.464,47.272 Z M40.416,44.872 C40.776,43.336 41.904,42.448 43.56,42.448 C44.856,42.448 46.152,43.144 46.536,44.872 L40.416,44.872 Z M58.464,39.664 C56.856,39.664 55.608,40.264 54.888,41.344 L54.888,40 L51.792,40 L51.792,52 L54.888,52 L54.888,45.52 C54.888,43.432 56.016,42.544 57.528,42.544 C58.92,42.544 59.904,43.384 59.904,45.016 L59.904,52 L63,52 L63,44.632 C63,41.44 61.008,39.664 58.464,39.664 Z M68.496,43.408 C68.496,42.76 69.12,42.424 69.888,42.424 C70.776,42.424 71.448,42.88 71.808,43.648 L74.448,42.208 C73.512,40.552 71.832,39.664 69.888,39.664 C67.416,39.664 65.328,41.032 65.328,43.48 C65.328,47.704 71.52,46.744 71.52,48.496 C71.52,49.192 70.848,49.528 69.864,49.528 C68.664,49.528 67.848,48.952 67.512,47.968 L64.824,49.48 C65.688,51.328 67.464,52.336 69.864,52.336 C72.432,52.336 74.688,51.088 74.688,48.496 C74.688,44.08 68.496,45.184 68.496,43.408 Z M79.128,47.272 L88.176,47.272 C88.248,46.864 88.296,46.456 88.296,46 C88.296,42.472 85.776,39.664 82.224,39.664 C78.456,39.664 75.888,42.424 75.888,46 C75.888,49.576 78.432,52.336 82.464,52.336 C84.768,52.336 86.568,51.4 87.696,49.768 L85.2,48.328 C84.672,49.024 83.712,49.528 82.512,49.528 C80.88,49.528 79.56,48.856 79.128,47.272 Z M79.08,44.872 C79.44,43.336 80.568,42.448 82.224,42.448 C83.52,42.448 84.816,43.144 85.2,44.872 L79.08,44.872 Z" id="drivinglicense" fill="#FFFFFF" fill-rule="nonzero"></path>
            <g id="icon-/-48-/-info-/-verification-/-dl" transform="translate(98.000000, 22.000000)">
                <mask id="mask-2" fill="white">
                    <use xlink:href="#path-1"></use>
                </mask>
                <g id="container"></g>
                <g id="driving-license_icon" stroke-width="1" fill-rule="evenodd" mask="url(#mask-2)">
                    <g transform="translate(10.000000, 7.000000)" id="Combined-Shape">
                        <path d="M3.9150224,2.66779055 C5.43102246,3.81140402 6.75720014,5.0559324 8.70766694,5.0559324 L8.70821207,5.0559324 C10.3997432,5.0559324 11.9037505,4.53548556 13.0921288,3.58418633 C14.279962,4.53548556 15.7839692,5.0559324 17.4760455,5.0559324 C19.4270575,5.0559324 21.4102319,4.3517313 22.9267771,3.20754717 L24.4761524,4.18416264 C21.9920056,7.63611765 22.8546193,11.1962921 23.7846071,14.561506 C24.3602619,16.643864 25.7933226,20.1636792 25.0082919,21.5526924 C24.680125,25.2312016 21.4593233,26.8727355 17.245202,28.2570217 L16.9505425,28.4015117 C15.5506546,29.0292436 14.6791822,29.4866808 13.5769341,30.2764817 C12.4741408,29.4866808 10.6330579,28.7522425 9.23371515,28.1245106 C5.03241618,26.2378907 2.24354302,24.7204914 1.91592129,21.0419823 C1.9339105,18.7958433 2.52809966,16.643864 3.10320936,14.561506 C4.03319716,11.1962921 5.14852838,7.15997573 2.66492671,3.70802073 L3.9150224,2.66779055 Z M16.3724516,21.4897388 L15.5819614,21.7807388 L16.2430198,23.6177321 L14.560063,22.1569262 L13.7769778,22.4452003 L14.7641883,25.1885268 L15.5528273,24.8982082 L15.010737,23.3918113 L16.5691719,24.5240653 L17.3596621,24.2330652 L16.3724516,21.4897388 Z M10.8926133,22.4064649 L10.8467375,25.0346886 L13.4832325,25.0807088 L13.4936219,24.485504 L11.6525283,24.4533676 L11.8345919,23.9382726 L13.3384179,23.964522 L13.3477746,23.4284791 L11.8439486,23.4022297 L11.6804505,22.8537043 L13.4723857,23.0128079 L13.4821805,22.451666 L10.8926133,22.4064649 Z M8.34947055,21.8942987 C8.02841317,22.0618314 7.79398314,22.375421 7.6461614,22.8350732 C7.53531613,23.1798191 7.51304853,23.4852321 7.57936995,23.7513251 C7.64569137,24.0174182 7.75934689,24.2254042 7.92033992,24.3752895 C8.08133295,24.5251748 8.31107476,24.6491155 8.60956841,24.7471272 C8.85561413,24.8278936 9.06982501,24.8584328 9.25221133,24.838734 C9.43459765,24.8190352 9.60223283,24.7561022 9.75512188,24.6499331 C9.86978867,24.5703063 9.97457752,24.4658421 10.0694901,24.3365385 L10.1611107,24.198955 L9.49046096,23.7274752 C9.39654884,23.890702 9.29324537,24.0047717 9.18054747,24.0696877 C9.06784957,24.1346037 8.93032136,24.1404089 8.7679587,24.0871035 C8.60060028,24.032158 8.48908652,23.9323738 8.4334141,23.7877481 C8.37774167,23.6431225 8.39944576,23.4167525 8.498527,23.1086314 C8.57852292,22.8598615 8.67591591,22.690102 8.79070891,22.5993477 C8.94347504,22.476385 9.11602416,22.4464773 9.30836146,22.5096237 C9.39328962,22.5375065 9.46441359,22.5804025 9.5217355,22.6383129 C9.57905741,22.6962234 9.62088983,22.7658009 9.64723401,22.8470476 C9.65799235,22.8794326 9.66494699,22.9217372 9.66809799,22.9739621 L9.66997178,23.0597396 L10.4735443,23.1371815 C10.471584,22.8126407 10.3943662,22.5471622 10.2418886,22.340738 C10.089411,22.1343138 9.84019724,21.9743133 9.49424352,21.8607207 C9.0521139,21.7155772 8.67052793,21.726766 8.34947055,21.8942987 Z M17.7316217,20.7397236 C17.4590411,20.8682945 17.2604322,21.0040651 17.1358008,21.1470646 C17.0111694,21.290064 16.937749,21.4404057 16.9155375,21.5980943 C16.893326,21.7557829 16.913566,21.9026055 16.9762579,22.0385665 C17.0716829,22.245516 17.2263672,22.3798405 17.4403155,22.4415441 C17.6530734,22.503809 17.955397,22.4916096 18.3472954,22.4049454 C18.5861325,22.35091 18.7477906,22.336931 18.8322744,22.3630079 C18.9167581,22.3890849 18.9748108,22.4364137 19.0064342,22.5049958 C19.039722,22.5771875 19.0377406,22.6553899 19.00049,22.7396054 C18.9632393,22.8238209 18.8868828,22.8931524 18.771418,22.9476021 C18.6166713,23.0205758 18.4729491,23.0231672 18.3402471,22.9553764 C18.2789727,22.9238477 18.219606,22.8708214 18.162146,22.7962964 L18.1053215,22.7146051 L17.3582275,23.1262364 C17.504009,23.3826802 17.702548,23.5571133 17.9538503,23.6495409 C18.2051527,23.7419685 18.5533957,23.6832134 18.99859,23.4732736 C19.2521364,23.353709 19.4451719,23.2176369 19.5777022,23.0650534 C19.7102325,22.9124698 19.7899101,22.7426984 19.8167373,22.555734 C19.8435649,22.3687703 19.8178655,22.1904648 19.7396474,22.0208105 C19.6730637,21.876431 19.5780517,21.7623052 19.4546005,21.6784334 C19.3311493,21.5945617 19.1747759,21.5492878 18.9854756,21.5426102 C18.7961753,21.5359327 18.5070078,21.5774495 18.1179642,21.6671619 C17.9612512,21.7044424 17.855806,21.7146175 17.8016254,21.6976877 C17.7468093,21.6825223 17.7096929,21.6538841 17.690275,21.6117723 C17.6636448,21.554019 17.664844,21.493763 17.6938727,21.4310025 C17.7229014,21.368242 17.784434,21.3146898 17.8784723,21.2703442 C17.9927468,21.216456 18.0948027,21.2012875 18.1846431,21.2248385 C18.2520234,21.2425017 18.3152744,21.2843582 18.3743971,21.3504088 L18.4321438,21.4245242 L19.1737602,21.0198705 C19.0139366,20.7612596 18.8172507,20.6104879 18.5836965,20.5675512 C18.3501424,20.5246145 18.0661242,20.582013 17.7316217,20.7397236 Z M8.00819608,20.5242375 L6.07538351,22.6942843 L6.73990192,23.2991557 L8.67271449,21.1291089 L8.00819608,20.5242375 Z M6.6269658,18.8136915 L4.26099568,20.4887514 L5.57133302,22.3808883 L6.15394912,21.9684077 L5.17079616,20.9458228 L7.13867512,19.5526036 L6.6269658,18.8136915 Z M20.4292833,18.4973475 L18.6799353,20.1465646 L20.649094,22.2814393 L22.4301435,20.6023352 L21.9841949,20.1188574 L20.7404683,21.2913944 L20.4691594,20.7603446 L21.4850493,19.8026032 L21.0834269,19.3671819 L20.067537,20.3249233 L19.5419437,19.992007 L20.8497108,18.9531563 L20.4292833,18.4973475 Z M13.411449,6.41509434 C9.88455725,6.41509434 7.02504472,9.28745283 7.02504472,12.8301887 C7.02504472,16.3729245 9.88455725,19.245283 13.411449,19.245283 C16.9383408,19.245283 19.7978533,16.3729245 19.7978533,12.8301887 C19.7978533,9.28745283 16.9383408,6.41509434 13.411449,6.41509434 Z M8.6216458,12.8301887 C10.803002,12.8301887 12.5696411,14.9415566 12.6067621,17.5601179 C10.3491682,17.1716038 8.6216458,15.2061792 8.6216458,12.8301887 Z M18.2012522,12.8301887 C18.2012522,15.2061792 16.4737299,17.1716038 14.216136,17.5601179 C14.2532569,14.9415566 16.019896,12.8301887 18.2012522,12.8301887 Z M13.411449,12.0283019 C13.8525101,12.0283019 14.2097496,12.3871462 14.2097496,12.8301887 C14.2097496,13.2732311 13.8525101,13.6320755 13.411449,13.6320755 C12.970388,13.6320755 12.6131485,13.2732311 12.6131485,12.8301887 C12.6131485,12.3871462 12.970388,12.0283019 13.411449,12.0283019 Z M13.411449,8.01886792 C15.4898245,8.01886792 17.2452873,9.36363208 17.9082759,11.2264151 L8.91462209,11.2264151 C9.57761069,9.36363208 11.3330736,8.01886792 13.411449,8.01886792 Z" fill="#252525"></path>
                        <path d="M13.660003,7.10542736e-15 C15.2744246,4.68698361 21.3296938,3.20603279 23.016466,0.374557377 L23.016466,0.374557377 L27.2972973,4.02203279 C21.5472737,8.22632787 26.8193609,13.8519344 26.8193609,21.2093115 C26.1645089,29.8486557 15.2305917,29.8514426 13.7349941,33.4587869 L13.7349941,33.4587869 L13.6489127,33.7207541 L13.5628314,33.4587869 C12.0672337,29.8514426 1.13278846,29.8486557 0.477936391,21.2093115 C0.477936391,13.8519344 5.75055178,8.22632787 -1.27897692e-13,4.02203279 L-1.27897692e-13,4.02203279 L4.28083136,0.374557377 C5.96813166,3.20603279 12.0234009,4.68698361 13.6372944,7.10542736e-15 L13.6372944,7.10542736e-15 Z M23.1764822,3.68872131 C21.7072899,4.8062623 19.7860385,5.49406557 17.8959453,5.49406557 C16.2567027,5.49406557 14.7996568,4.9857377 13.6489127,4.05659016 C12.4976405,4.9857377 11.0405947,5.49406557 9.40188018,5.49406557 L9.40188018,5.49406557 L9.06766379,5.48697839 C7.28726314,5.41166249 5.50361538,4.74055738 4.1213432,3.68927869 L4.1213432,3.68927869 L3.54729142,4.17754098 C5.95334467,7.54911475 4.87283876,11.4914426 3.97188905,14.7782951 C3.41473669,16.8121639 2.83910059,18.9140328 2.82167308,21.1078689 C3.13906509,24.7007213 5.84085799,26.1827869 9.91097485,28.0254754 C11.2666243,28.6385902 12.5805533,29.2333115 13.6489127,30.0047213 C14.7167441,29.2333115 16.0306731,28.6385902 17.3868506,28.0254754 C21.4569675,26.1827869 24.1582322,24.7007213 24.4761524,21.1078689 C24.4581967,18.9140328 23.8830888,16.8121639 23.3254083,14.7782951 C22.4244586,11.4914426 21.3439527,7.54911475 23.750534,4.17754098 L23.750534,4.17754098 Z" fill="#636363"></path>
                    </g>
                </g>
            </g>
            <path d="M15.536,76 L15.536,76.496 C15.256,76.12 14.824,75.888 14.256,75.888 C13.12,75.888 12.264,76.816 12.264,77.936 C12.264,79.064 13.12,79.984 14.256,79.984 C14.824,79.984 15.256,79.752 15.536,79.376 L15.536,79.808 C15.536,80.44 15.136,80.792 14.488,80.792 C13.872,80.792 13.608,80.544 13.44,80.232 L12.56,80.736 C12.912,81.384 13.6,81.712 14.456,81.712 C15.512,81.712 16.544,81.12 16.544,79.808 L16.544,76 L15.536,76 Z M14.416,79.032 C13.768,79.032 13.296,78.576 13.296,77.936 C13.296,77.304 13.768,76.848 14.416,76.848 C15.064,76.848 15.536,77.304 15.536,77.936 C15.536,78.576 15.064,79.032 14.416,79.032 Z M19.384,80.112 C20.56,80.112 21.504,79.192 21.504,78 C21.504,76.808 20.56,75.888 19.384,75.888 C18.208,75.888 17.272,76.808 17.272,78 C17.272,79.192 18.208,80.112 19.384,80.112 Z M19.384,79.104 C18.776,79.104 18.304,78.648 18.304,78 C18.304,77.352 18.776,76.896 19.384,76.896 C20,76.896 20.472,77.352 20.472,78 C20.472,78.648 20,79.104 19.384,79.104 Z M24.704,76 L23.728,78.8 L22.76,76 L21.624,76 L23.144,80 L24.32,80 L25.84,76 L24.704,76 Z M27.048,78.424 L30.064,78.424 C30.088,78.288 30.104,78.152 30.104,78 C30.104,76.824 29.264,75.888 28.08,75.888 C26.824,75.888 25.968,76.808 25.968,78 C25.968,79.192 26.816,80.112 28.16,80.112 C28.928,80.112 29.528,79.8 29.904,79.256 L29.072,78.776 C28.896,79.008 28.576,79.176 28.176,79.176 C27.632,79.176 27.192,78.952 27.048,78.424 Z M27.032,77.624 C27.152,77.112 27.528,76.816 28.08,76.816 C28.512,76.816 28.944,77.048 29.072,77.624 L27.032,77.624 Z M31.856,76.688 L31.856,76 L30.824,76 L30.824,80 L31.856,80 L31.856,78.088 C31.856,77.248 32.536,77.008 33.072,77.072 L33.072,75.92 C32.568,75.92 32.064,76.144 31.856,76.688 Z M35.896,75.888 C35.36,75.888 34.944,76.088 34.704,76.448 L34.704,76 L33.672,76 L33.672,80 L34.704,80 L34.704,77.84 C34.704,77.144 35.08,76.848 35.584,76.848 C36.048,76.848 36.376,77.128 36.376,77.672 L36.376,80 L37.408,80 L37.408,77.544 C37.408,76.48 36.744,75.888 35.896,75.888 Z M42.712,75.888 C42.168,75.888 41.768,76.104 41.52,76.464 C41.296,76.096 40.928,75.888 40.432,75.888 C39.92,75.888 39.544,76.088 39.32,76.424 L39.32,76 L38.288,76 L38.288,80 L39.32,80 L39.32,77.752 C39.32,77.152 39.632,76.848 40.072,76.848 C40.504,76.848 40.744,77.136 40.744,77.608 L40.744,80 L41.776,80 L41.776,77.752 C41.776,77.152 42.064,76.848 42.52,76.848 C42.952,76.848 43.192,77.136 43.192,77.608 L43.192,80 L44.224,80 L44.224,77.536 C44.224,76.536 43.624,75.888 42.712,75.888 Z M45.976,78.424 L48.992,78.424 C49.016,78.288 49.032,78.152 49.032,78 C49.032,76.824 48.192,75.888 47.008,75.888 C45.752,75.888 44.896,76.808 44.896,78 C44.896,79.192 45.744,80.112 47.088,80.112 C47.856,80.112 48.456,79.8 48.832,79.256 L48,78.776 C47.824,79.008 47.504,79.176 47.104,79.176 C46.56,79.176 46.12,78.952 45.976,78.424 Z M45.96,77.624 C46.08,77.112 46.456,76.816 47.008,76.816 C47.44,76.816 47.872,77.048 48,77.624 L45.96,77.624 Z M51.976,75.888 C51.44,75.888 51.024,76.088 50.784,76.448 L50.784,76 L49.752,76 L49.752,80 L50.784,80 L50.784,77.84 C50.784,77.144 51.16,76.848 51.664,76.848 C52.128,76.848 52.456,77.128 52.456,77.672 L52.456,80 L53.488,80 L53.488,77.544 C53.488,76.48 52.824,75.888 51.976,75.888 Z M56.656,76.992 L56.656,76 L55.752,76 L55.752,74.88 L54.72,75.192 L54.72,76 L54.024,76 L54.024,76.992 L54.72,76.992 L54.72,78.656 C54.72,79.736 55.208,80.16 56.656,80 L56.656,79.064 L56.4027674,79.0745307 C55.9753846,79.083503 55.752,79.0215385 55.752,78.656 L55.752,76.992 L56.656,76.992 Z M61.352,80.112 C62.528,80.112 63.472,79.192 63.472,78 C63.472,76.808 62.528,75.888 61.352,75.888 C60.176,75.888 59.24,76.808 59.24,78 C59.24,79.192 60.176,80.112 61.352,80.112 Z M61.352,79.104 C60.744,79.104 60.272,78.648 60.272,78 C60.272,77.352 60.744,76.896 61.352,76.896 C61.968,76.896 62.44,77.352 62.44,78 C62.44,78.648 61.968,79.104 61.352,79.104 Z M66.224,75.28 L66.224,74.288 C65.0125714,74.2118095 64.4034104,74.7959365 64.3481421,75.8054171 L64.344,76 L63.768,76 L63.768,76.992 L64.344,76.992 L64.344,80 L65.376,80 L65.376,76.992 L66.224,76.992 L66.224,76 L65.376,76 L65.376,75.96 C65.376,75.416 65.688,75.24 66.224,75.28 Z M69.208,75.52 C69.56,75.52 69.848,75.232 69.848,74.888 C69.848,74.544 69.56,74.248 69.208,74.248 C68.864,74.248 68.576,74.544 68.576,74.888 C68.576,75.232 68.864,75.52 69.208,75.52 Z M68.696,80 L69.728,80 L69.728,76 L68.696,76 L68.696,80 Z M72.896,75.888 C72.36,75.888 71.944,76.088 71.704,76.448 L71.704,76 L70.672,76 L70.672,80 L71.704,80 L71.704,77.84 C71.704,77.144 72.08,76.848 72.584,76.848 C73.048,76.848 73.376,77.128 73.376,77.672 L73.376,80 L74.408,80 L74.408,77.544 C74.408,76.48 73.744,75.888 72.896,75.888 Z M78.32,74.4 L78.32,76.472 C78.032,76.104 77.608,75.888 77.024,75.888 C75.952,75.888 75.072,76.808 75.072,78 C75.072,79.192 75.952,80.112 77.024,80.112 C77.608,80.112 78.032,79.896 78.32,79.528 L78.32,80 L79.352,80 L79.352,74.4 L78.32,74.4 Z M77.216,79.128 C76.576,79.128 76.104,78.672 76.104,78 C76.104,77.328 76.576,76.872 77.216,76.872 C77.848,76.872 78.32,77.328 78.32,78 C78.32,78.672 77.848,79.128 77.216,79.128 Z M80.808,75.52 C81.16,75.52 81.448,75.232 81.448,74.888 C81.448,74.544 81.16,74.248 80.808,74.248 C80.464,74.248 80.176,74.544 80.176,74.888 C80.176,75.232 80.464,75.52 80.808,75.52 Z M80.296,80 L81.328,80 L81.328,76 L80.296,76 L80.296,80 Z M85.312,76 L85.312,76.472 C85.024,76.112 84.592,75.888 84.008,75.888 C82.944,75.888 82.064,76.808 82.064,78 C82.064,79.192 82.944,80.112 84.008,80.112 C84.592,80.112 85.024,79.888 85.312,79.528 L85.312,80 L86.344,80 L86.344,76 L85.312,76 Z M84.2,79.128 C83.568,79.128 83.096,78.672 83.096,78 C83.096,77.328 83.568,76.872 84.2,76.872 C84.84,76.872 85.312,77.328 85.312,78 C85.312,78.672 84.84,79.128 84.2,79.128 Z" id="governmentofindia" fill="#FFFFFF" fill-rule="nonzero"></path>
        </g>
    </g>
</svg>