<?xml version="1.0" encoding="UTF-8"?>
<svg width="24px" height="24px" viewBox="0 0 24 24" version="1.1" xmlns="http://www.w3.org/2000/svg" xmlns:xlink="http://www.w3.org/1999/xlink">
    <title>F6170274-1BF7-4882-8DCB-341832A6CA5A</title>
    <g id="⚙️-configuration" stroke="none" stroke-width="1" fill="none" fill-rule="evenodd">
        <g id="government-document-generation_EPF_01" transform="translate(-480.000000, -1395.000000)">
            <g id="form" transform="translate(135.000000, 255.000000)">
                <g id="address" transform="translate(40.000000, 96.000000)">
                    <g id="type-of-employees" transform="translate(0.000000, 1036.000000)">
                        <g id="male" transform="translate(293.000000, 0.000000)">
                            <g id="eyes" transform="translate(12.000000, 8.000000)">
                                <rect id="Rectangle" fill="#D8D8D8" opacity="0" x="0" y="0" width="24" height="24"></rect>
                                <g id="noun_hearing_1190329" transform="translate(4.000000, 4.000000)" fill="#7A94B9" fill-rule="nonzero">
                                    <g id="Group">
                                        <path d="M7.401,0.352 C5.833625,-0.216 4.044625,0.00325 2.732,0.92375 C1.544625,1.756375 0.89075,3.049875 0.89075,4.566 C0.89075,4.842125 1.114625,5.066 1.39075,5.066 C1.666875,5.066 1.89075,4.842125 1.89075,4.566 C1.89075,3.385375 2.393375,2.382625 3.306125,1.7425 C4.35625,1.006125 5.795,0.833625 7.06025,1.292125 C9.27175,2.0935 10.227375,4.5545 9.38425,7.27625 C9.02375,8.43775 8.335,9.436 7.44525,10.08725 C6.42475,10.83425 5.622125,11.96425 5.1245,13.355 C5.099875,13.424125 5.072125,13.4925 5.041375,13.56025 C4.765125,14.166875 4.27225,14.634125 3.689125,14.841625 C3.181875,15.02175 2.6445,14.994 2.17575,14.7615 C1.29675,14.328 0.828625,13.239875 1.062375,12.174625 C1.121625,11.904875 0.950875,11.63825 0.68125,11.57925 C0.411875,11.519375 0.145,11.690625 0.08575,11.960375 C-0.2505,13.492875 0.427,15.01375 1.73275,15.658 C2.137875,15.858625 2.575375,15.95975 3.018,15.95975 C3.3545,15.95975 3.69425,15.901125 4.0245,15.78375 C4.861375,15.485875 5.56375,14.826375 5.951625,13.974125 C5.994,13.881125 6.032,13.786875 6.066,13.692125 C6.496,12.490125 7.177375,11.522625 8.036125,10.894125 C9.0975,10.11725 9.915625,8.93775 10.339375,7.572625 C11.348625,4.314 10.14025,1.34475 7.401,0.352 Z" id="Path"></path>
                                        <path d="M4.7175,3.661875 C5.378375,3.160375 6.45525,3.108375 7.005625,3.830375 C7.172625,4.04975 7.486,4.092625 7.70625,3.925125 C7.926,3.75775 7.968375,3.444125 7.801,3.2245 C6.96025,2.120875 5.306,1.959875 4.112875,2.8655 C2.848375,3.8255 2.689375,5.551375 3.725875,7.0625 C3.82275,7.20375 3.979375,7.279625 4.138625,7.279625 C4.236,7.279625 4.3345,7.251125 4.421,7.192 C4.648625,7.03575 4.706625,6.724625 4.5505,6.496875 C3.942375,5.6105 3.75825,4.390125 4.7175,3.661875 Z" id="Path"></path>
                                        <path d="M2.521625,8.895625 C2.260875,8.803375 1.9755,8.939625 1.883375,9.199625 C1.762,9.5415 1.754125,9.917125 1.861,10.2575 C1.972375,10.611375 2.2035,10.913 2.511375,11.10625 C2.758875,11.262375 3.039,11.342125 3.3265,11.342125 C3.4615,11.342125 3.598125,11.3245 3.7335,11.288875 C4.145875,11.180625 4.5005,10.917375 4.731,10.5485 C4.744875,10.5265 4.758,10.504375 4.7705,10.482125 C4.7825,10.460875 4.794,10.439375 4.805125,10.41775 C4.90625,10.22 5.026125,10.0445 5.161125,9.896375 C5.30075,9.743625 5.457,9.61975 5.625375,9.5285 C5.887375,9.3865 6.1265,9.19975 6.33575,8.973375 C6.549875,8.74175 6.726625,8.475125 6.861125,8.18075 C7.15575,7.535 7.231,6.848125 7.073,6.246875 C6.902125,5.596375 6.46675,5.072 5.847,4.77025 C5.59875,4.649375 5.2995,4.752375 5.178625,5.001 C5.05775,5.24925 5.161,5.548375 5.409375,5.669375 C5.768,5.843875 6.00875,6.1315 6.106,6.50125 C6.205625,6.880125 6.15075,7.329125 5.95175,7.765375 C5.861375,7.963 5.743625,8.141125 5.6015,8.29475 C5.466875,8.4405 5.31475,8.559875 5.14925,8.6495 C4.882125,8.79425 4.637875,8.987 4.42275,9.2225 C4.227375,9.43675 4.0565,9.68575 3.915,9.962625 L3.883875,10.017375 C3.788125,10.170375 3.64475,10.278625 3.479625,10.321875 C3.325625,10.362125 3.171375,10.340375 3.043875,10.26 C2.906125,10.173375 2.84325,10.0475 2.814875,9.9575 C2.772625,9.823 2.776375,9.6725 2.825625,9.53375 C2.918125,9.273625 2.781875,8.987875 2.521625,8.895625 Z" id="Path"></path>
                                        <path d="M12.103875,5.895125 C11.905125,6.087 11.89975,6.4035 12.091625,6.602 C12.36575,6.885625 12.518375,7.2615 12.52125,7.660625 C12.524375,8.05675 12.379375,8.426625 12.112875,8.702125 C11.921,8.90075 11.926375,9.21725 12.125125,9.409125 C12.222,9.503 12.34725,9.549625 12.4725,9.549625 C12.603375,9.549625 12.734,9.498625 12.832125,9.397125 C13.2815,8.932 13.526375,8.3125 13.52125,7.653 C13.516375,6.996375 13.26425,6.37625 12.810875,5.90725 C12.6185,5.70825 12.302125,5.703125 12.103875,5.895125 Z" id="Path"></path>
                                        <path d="M15.999875,7.64125 C15.999875,7.64 16,7.63875 16,7.6375 C16,7.636125 15.999625,7.634875 15.9995,7.6335 C16.002875,6.98425 15.8885,6.352375 15.658125,5.75525 C15.417625,5.131125 15.06125,4.572 14.598625,4.093375 C14.4065,3.8945 14.089625,3.889125 13.891625,4.08125 C13.692875,4.273125 13.6875,4.589625 13.879375,4.788125 C14.2485,5.17 14.532875,5.61625 14.725,6.114875 C14.9115,6.598 15.00375,7.11025 14.999875,7.637375 C14.999875,7.638625 15.00025,7.639875 15.00025,7.641125 C15.00025,7.642375 14.999875,7.643625 14.999875,7.644875 C15.00375,8.172 14.9115,8.684375 14.725,9.1675 C14.532875,9.666 14.2485,10.11225 13.879375,10.494125 C13.6875,10.692625 13.692875,11.009125 13.891625,11.201 C13.9885,11.294875 14.11375,11.3415 14.239,11.3415 C14.369875,11.3415 14.5005,11.2905 14.598625,11.188875 C15.06125,10.71025 15.417625,10.151125 15.658125,9.527125 C15.888375,8.93 16.002875,8.298125 15.999375,7.648875 C15.999375,7.6475 15.999875,7.646125 15.999875,7.64475 C16,7.64375 15.999875,7.6425 15.999875,7.64125 Z" id="Path"></path>
                                    </g>
                                </g>
                            </g>
                        </g>
                    </g>
                </g>
            </g>
        </g>
    </g>
</svg>