<?xml version="1.0" encoding="UTF-8"?>
<svg width="4px" height="8px" viewBox="0 0 4 8" version="1.1" xmlns="http://www.w3.org/2000/svg" xmlns:xlink="http://www.w3.org/1999/xlink">
    <!-- Generator: sketchtool 56.2 (101010) - https://sketch.com -->
    <title>4C9A5E09-ABF8-4590-A3A7-500EFD32A30E</title>
    <desc>Created with sketchtool.</desc>
    <defs>
        <path d="M6.5,4 C6.5,3.4485 6.9485,3 7.5,3 L8,3 L8,2 L7.5,2 C6.9,2 6.367,2.271 6,2.691 C5.633,2.271 5.1,2 4.5,2 L4,2 L4,3 L4.5,3 C5.0515,3 5.5,3.4485 5.5,4 L5.5,4.5 L5.5,6.5 L4,6.5 L4,7.5 L5.5,7.5 L5.5,8 C5.5,8.5515 5.0515,9 4.5,9 L4,9 L4,10 L4.5,10 C5.1,10 5.633,9.729 6,9.309 C6.367,9.729 6.9,10 7.5,10 L8,10 L8,9 L7.5,9 C6.9485,9 6.5,8.5515 6.5,8 L6.5,7.5 L8,7.5 L8,6.5 L6.5,6.5 L6.5,4.5 L6.5,4 Z" id="path-1"></path>
    </defs>
    <g id="ðŸ‚-on-boarding" stroke="none" stroke-width="1" fill="none" fill-rule="evenodd">
        <g id="03-BGV-Client-onboarding_fun&amp;role_E5" transform="translate(-828.000000, -401.000000)">
            <g id="menu" transform="translate(804.000000, 387.000000)">
                <g id="icon-/-12-/-info-/-rename" transform="translate(20.000000, 12.000000)">
                    <mask id="mask-2" fill="white">
                        <use xlink:href="#path-1"></use>
                    </mask>
                    <use id="Path" fill="#8697A8" fill-rule="nonzero" xlink:href="#path-1"></use>
                    <rect id="Rectangle" fill="#8697A8" mask="url(#mask-2)" x="0" y="0" width="12" height="12"></rect>
                </g>
            </g>
        </g>
    </g>
</svg>