<?xml version="1.0" encoding="UTF-8"?>
<svg width="61px" height="20px" viewBox="0 0 61 20" version="1.1" xmlns="http://www.w3.org/2000/svg" xmlns:xlink="http://www.w3.org/1999/xlink">
    <!-- Generator: sketchtool 56.2 (101010) - https://sketch.com -->
    <title>C6786C8A-ED23-45E7-A4CE-620EED73B740</title>
    <desc>Created with sketchtool.</desc>
    <g id="👽-GBV-Client" stroke="none" stroke-width="1" fill="none" fill-rule="evenodd">
        <g id="BGV-Client-zomato-add-employee-PAN_3" transform="translate(-386.000000, -192.000000)">
            <g id="employee-basic-information" transform="translate(160.000000, 120.000000)">
                <g id="Group-4" transform="translate(40.000000, 41.000000)">
                    <g id="edit" transform="translate(186.000000, 31.000000)">
                        <path d="M10,0 L51,0 C56.5228475,-1.01453063e-15 61,4.4771525 61,10 C61,15.5228475 56.5228475,20 51,20 L10,20 C4.4771525,20 -2.87635993e-15,15.5228475 0,10 C-6.76353751e-16,4.4771525 4.4771525,1.01453063e-15 10,0 Z" id="Rectangle" fill="#FFFFFF"></path>
                        <path d="M21.646,10.48 C21.7500005,11.0160027 21.9959981,11.4319985 22.384,11.728 C22.7720019,12.0240015 23.2499972,12.172 23.818,12.172 C24.610004,12.172 25.1859982,11.8800029 25.546,11.296 L26.434,11.8 C25.8499971,12.7040045 24.9700059,13.156 23.794,13.156 C22.8419952,13.156 22.068003,12.858003 21.472,12.262 C20.875997,11.665997 20.578,10.9120046 20.578,10 C20.578,9.09599548 20.8699971,8.344 21.454,7.744 C22.0380029,7.143997 22.7939954,6.844 23.722,6.844 C24.6020044,6.844 25.3199972,7.1539969 25.876,7.774 C26.4320028,8.3940031 26.71,9.13999564 26.71,10.012 C26.71,10.1640008 26.6980001,10.3199992 26.674,10.48 L21.646,10.48 Z M23.722,7.828 C23.1619972,7.828 22.6980018,7.98599842 22.33,8.302 C21.9619982,8.61800158 21.7340004,9.03999736 21.646,9.568 L25.654,9.568 C25.5659996,8.99999716 25.3420018,8.56800148 24.982,8.272 C24.6219982,7.97599852 24.2020024,7.828 23.722,7.828 Z M32.866,4.6 L33.91,4.6 L33.91,13 L32.866,13 L32.866,11.968 C32.3459974,12.760004 31.590005,13.156 30.598,13.156 C29.7579958,13.156 29.042003,12.8500031 28.45,12.238 C27.857997,11.6259969 27.562,10.8800044 27.562,10 C27.562,9.1199956 27.857997,8.37400306 28.45,7.762 C29.042003,7.14999694 29.7579958,6.844 30.598,6.844 C31.590005,6.844 32.3459974,7.23999604 32.866,8.032 L32.866,4.6 Z M30.73,12.148 C31.338003,12.148 31.845998,11.9420021 32.254,11.53 C32.662002,11.1179979 32.866,10.608003 32.866,10 C32.866,9.39199696 32.662002,8.88200206 32.254,8.47 C31.845998,8.05799794 31.338003,7.852 30.73,7.852 C30.129997,7.852 29.626002,8.05799794 29.218,8.47 C28.809998,8.88200206 28.606,9.39199696 28.606,10 C28.606,10.608003 28.809998,11.1179979 29.218,11.53 C29.626002,11.9420021 30.129997,12.148 30.73,12.148 Z M36.022,5.908 C35.821999,5.908 35.6540007,5.84000068 35.518,5.704 C35.3819993,5.56799932 35.314,5.40400096 35.314,5.212 C35.314,5.01999904 35.3819993,4.8540007 35.518,4.714 C35.6540007,4.5739993 35.821999,4.504 36.022,4.504 C36.214001,4.504 36.3779993,4.5739993 36.514,4.714 C36.6500007,4.8540007 36.718,5.01999904 36.718,5.212 C36.718,5.40400096 36.6500007,5.56799932 36.514,5.704 C36.3779993,5.84000068 36.214001,5.908 36.022,5.908 Z M35.494,13 L35.494,7 L36.538,7 L36.538,13 L35.494,13 Z M41.398,8.008 L39.802,8.008 L39.802,11.26 C39.802,11.5560015 39.8599994,11.7659994 39.976,11.89 C40.0920006,12.0140006 40.2699988,12.078 40.51,12.082 C40.7500012,12.086 41.0459982,12.0800001 41.398,12.064 L41.398,13 C40.4859954,13.1200006 39.8180021,13.0460013 39.394,12.778 C38.9699979,12.5099987 38.758,12.0040037 38.758,11.26 L38.758,8.008 L37.57,8.008 L37.57,7 L38.758,7 L38.758,5.632 L39.802,5.32 L39.802,7 L41.398,7 L41.398,8.008 Z" fill="#8697A8" fill-rule="nonzero"></path>
                    </g>
                </g>
            </g>
        </g>
    </g>
</svg>