<?xml version="1.0" encoding="UTF-8"?>
<svg width="12px" height="12px" viewBox="0 0 12 12" version="1.1" xmlns="http://www.w3.org/2000/svg" xmlns:xlink="http://www.w3.org/1999/xlink">
    <!-- Generator: Sketch 61 (89581) - https://sketch.com -->
    <title>edit</title>
    <desc>Created with Sketch.</desc>
    <g id="🖥-Ops_analyst-" stroke="none" stroke-width="1" fill="none" fill-rule="evenodd">
        <g id="employment-Verification002_C" transform="translate(-576.000000, -1312.000000)">
            <g id="case-1" transform="translate(160.000000, 332.000000)">
                <g id="name" transform="translate(40.000000, 872.000000)">
                    <g id="comment" transform="translate(0.000000, 60.000000)">
                        <g id="edit" transform="translate(376.000000, 48.000000)">
                            <rect id="Rectangle" fill="#D8D8D8" opacity="0" x="0" y="0" width="12" height="12"></rect>
                            <g id="noun_edit_2964091" fill="#FFB803">
                                <g id="Group">
                                    <path d="M10.9016018,0.159292035 L11.8352403,1.0619469 C12.02746,1.24778761 12.02746,1.56637168 11.8352403,1.75221239 L10.7093822,2.84070796 L9.0617849,1.24778761 L10.187643,0.159292035 C10.3798627,-0.0265486726 10.7093822,-0.0265486726 10.9016018,0.159292035 Z M10.3249428,3.21238938 L4.99771167,8.36283186 L3.35011442,6.7699115 L8.67734554,1.61946903 L10.3249428,3.21238938 Z M4.5583524,8.68141593 L2.63615561,9.26548673 C2.49885584,9.2920354 2.38901602,9.18584071 2.41647597,9.05309735 L3.02059497,7.19469027 L4.5583524,8.68141593 Z" id="Shape"></path>
                                    <path d="M10.0778032,5.65486726 C10.0778032,5.46902655 10.2425629,5.30973451 10.4347826,5.30973451 C10.6270023,5.30973451 10.791762,5.46902655 10.791762,5.65486726 L10.791762,10.1946903 C10.791762,11.1769912 9.94050343,12 8.92448513,12 L1.86727689,12 C0.823798627,12 0,11.1769912 0,10.1946903 L0,3.37168142 C0,2.36283186 0.823798627,1.56637168 1.86727689,1.56637168 L5.76659039,1.56637168 C5.95881007,1.56637168 6.09610984,1.72566372 6.09610984,1.91150442 C6.09610984,2.09734513 5.95881007,2.2300885 5.76659039,2.2300885 L1.86727689,2.2300885 C1.20823799,2.2300885 0.686498856,2.73451327 0.686498856,3.37168142 L0.686498856,10.1946903 C0.686498856,10.8053097 1.20823799,11.3097345 1.86727689,11.3097345 L8.92448513,11.3097345 C9.55606407,11.3097345 10.0778032,10.8053097 10.0778032,10.1946903 L10.0778032,5.65486726 Z" id="Path"></path>
                                </g>
                            </g>
                        </g>
                    </g>
                </g>
            </g>
        </g>
    </g>
</svg>