<?xml version="1.0" encoding="UTF-8"?>
<svg width="40px" height="40px" viewBox="0 0 40 40" version="1.1" xmlns="http://www.w3.org/2000/svg" xmlns:xlink="http://www.w3.org/1999/xlink">
    <!-- Generator: sketchtool 55.2 (78181) - https://sketchapp.com -->
    <title>2403F583-99A2-43C5-9C3D-CF7E56BAF26E</title>
    <desc>Created with sketchtool.</desc>
    <defs>
        <rect id="path-1" x="0" y="0" width="40" height="40" rx="19.5"></rect>
    </defs>
    <g id="👽-GBV-Client" stroke="none" stroke-width="1" fill="none" fill-rule="evenodd">
        <g id="BGV-Client-zomato-add-education-details_1" transform="translate(-160.000000, -65.000000)">
            <g id="section-title" transform="translate(160.000000, 65.000000)">
                <g id="icon-/-40-/-info-/-container-with-icon">
                    <g id="icon-/-40-/-info-/-container">
                        <mask id="mask-2" fill="white">
                            <use xlink:href="#path-1"></use>
                        </mask>
                        <use fill="#F3F7FD" xlink:href="#path-1"></use>
                    </g>
                    <path d="M30.6969444,37.1246764 C31.1180207,36.8586422 31.5299641,36.5729095 31.9327089,36.2669691 C31.9064567,36.1066668 31.8800538,35.941796 31.8536472,35.774004 C31.8800317,35.7529895 31.9063603,35.7319079 31.9326329,35.7107595 C31.6492281,33.9801444 31.3481817,32.2556303 31.2147634,31.5503424 C31.2125908,31.5385847 31.2104627,31.5272355 31.2083797,31.5163038 C30.9614684,30.224557 30.1218481,29.7627089 30.1218481,29.7627089 L25.7481517,28.3762586 L23.7182532,27.7328101 L22.6420506,26.9427848 L22.4792195,25.2488343 C23.2367358,24.4137292 23.9515421,23.4937908 24.2793671,22.4468101 L24.7741772,20.8672911 C25.7037192,21.4325607 26.7730091,17.9802832 25.8568354,17.6256962 C25.8568508,17.6256249 26.1033257,16.4836452 26.0541942,15.2037859 C26.068283,15.2079336 26.0823702,15.2120978 26.0964557,15.2162785 L26.0567175,14.1650386 L30.8015949,12.0110633 L19.762962,7 L12.159794,10.4515445 C12.0931699,10.3353352 11.9357736,10.3790176 11.8933926,10.5724805 L9.37240506,11.7169114 L11.8830633,12.8566498 L11.8830633,16.0670633 L11.8830633,16.2031348 C11.6219843,16.321447 11.4616207,16.5847212 11.4501519,17.0617722 C11.4501519,18.530557 11.1420253,19.7945063 11.1247089,19.8787342 C11.1076962,19.963038 11.4045063,20.2398734 11.4614684,19.963038 C11.5186582,19.6859747 11.4559241,19.968962 11.718481,19.986962 C11.9767848,20.0048101 12.0307089,19.8767595 12.0324557,19.8726582 C12.0340506,19.8767595 12.0881266,20.0048101 12.3462025,19.986962 C12.6086835,19.968962 12.5461013,19.6859747 12.6031392,19.963038 C12.660557,20.2398734 12.9571392,19.963038 12.9398987,19.8787342 C12.9228861,19.7945063 12.6146835,18.530481 12.6146835,17.0617722 C12.6034513,16.5997523 12.4527131,16.3383011 12.2061519,16.2147796 L12.2061519,16.0670633 L12.1963472,12.9988682 L14.251865,13.931991 L14.1923797,15.3349873 C14.2394406,15.3211715 14.2865066,15.307504 14.3335776,15.2939853 C14.3292111,15.3414476 14.3255844,15.3891675 14.3227089,15.4371392 C14.2766076,16.2059747 14.3454937,16.7237215 14.5125063,17.5917468 C14.5410553,17.5914317 14.5688083,17.594373 14.5957822,17.6003012 C14.5958453,17.6024877 14.5959094,17.6046742 14.5959747,17.6068608 C13.2167342,17.3621519 14.3925823,21.4812658 15.3997468,20.8672152 L15.9405823,22.4547089 C16.2813754,23.455669 16.9851798,24.393846 17.69744,25.2202028 L17.5320253,26.9429367 L16.4994937,27.7047089 L16.4981175,27.7052483 L10.0521519,29.7627089 C10.0521519,29.7627089 9.70654543,30.0251453 9.39764742,30.4885543 L8.9656962,30.6578744 C8.9656962,30.6578744 9.17288608,30.4303038 8.9656962,31.5163038 C8.96287674,31.5310842 8.95987215,31.5466245 8.9566877,31.5629048 C8.82044769,32.2488533 8.30495539,34.345346 7.92877807,36.1760855 C8.27736137,36.4409336 8.63277781,36.6928379 8.99531013,36.9315427 C3.58545861,33.4658344 8.45206098e-16,27.4016315 0,20.5 L0,19.5 C-1.31888981e-15,8.73044738 8.73044738,1.97833472e-15 19.5,0 L20.5,0 C31.2695526,-1.97833472e-15 40,8.73044738 40,19.5 L40,20.5 C40,27.5316792 36.2781465,33.6940729 30.6969444,37.1246764 Z M27.1214877,38.8470171 C25.0541899,39.5932417 22.8245967,40 20.5,40 L20.0153163,40 C22.5724562,39.9764184 24.9433672,39.6090425 27.1214877,38.8470171 Z M19.5071206,40 L19.5,40 C18.4489879,40 17.4173963,39.9168511 16.4114445,39.7567726 C17.4013259,39.9073234 18.4322719,39.9892554 19.5071206,40 Z" id="Combined-Shape" fill="#8697A8"></path>
                </g>
            </g>
        </g>
    </g>
</svg>