<?xml version="1.0" encoding="UTF-8"?>
<svg width="147px" height="95px" viewBox="0 0 147 95" version="1.1" xmlns="http://www.w3.org/2000/svg" xmlns:xlink="http://www.w3.org/1999/xlink">
    <!-- Generator: Sketch 60.1 (88133) - https://sketch.com -->
    <title>pan cards</title>
    <desc>Created with Sketch.</desc>
    <defs>
        <path d="M34.9590849,31.7997037 L34.9590849,18.8464266 C34.9590849,18.1703517 34.312393,17.6222681 33.5144736,17.6222681 L26.6540926,17.6222681 L26.6540926,14.0979212 C26.6540926,13.7650436 26.4412069,13.4582515 26.0983232,13.2961483 L20.5279428,10.6640139 C20.4972406,10.6494662 20.4655234,10.6367101 20.4336371,10.6249572 L20.4336371,9.12288705 L23.4332354,9.12288705 C23.6725097,9.12288705 23.8666187,8.95841896 23.8666187,8.75561082 L23.8666187,6.90052548 C23.8666187,6.69771734 23.6725097,6.53324925 23.4332354,6.53324925 L20.4336371,6.53324925 L20.4336371,6.36727623 C20.4336371,6.16446809 20.2396972,6 20.0002537,6 C19.7608103,6 19.5668704,6.16446809 19.5668704,6.36727623 L19.5668704,10.6249572 C19.534984,10.6367817 19.5032669,10.6495379 19.4724801,10.6640139 L13.9020997,13.2962199 C13.5588776,13.4582515 13.3461612,13.7651152 13.3461612,14.0979929 L13.3461612,17.6222681 L6.48561098,17.6222681 C5.68769162,17.6222681 5.04099973,18.1703517 5.04099973,18.8464266 L5.04099973,31.7996321 C4.4272091,32.0349755 4,32.5580485 4,33.165828 C4,33.9941165 4.79233713,34.6653899 5.76973336,34.6653899 L34.2302666,34.6653899 C35.2076629,34.6653899 36,33.9941165 36,33.165828 C36,32.5580485 35.5727909,32.0349755 34.9590849,31.7997037 Z M29.3748335,21.8889787 C29.3748335,21.4951869 29.7516334,21.1759254 30.216734,21.1759254 L31.7903284,21.1759254 C32.255006,21.1759254 32.6318906,21.4951869 32.6318906,21.8889787 L32.6318906,23.2224243 C32.6318906,23.6162161 32.255006,23.9354777 31.7903284,23.9354777 L30.2168186,23.9354777 C29.751718,23.9354777 29.3749181,23.6162161 29.3749181,23.2224243 L29.3749181,21.8889787 L29.3748335,21.8889787 Z M29.3748335,26.1733186 C29.3748335,25.7795268 29.7516334,25.4602652 30.216734,25.4602652 L31.7903284,25.4602652 C32.255006,25.4602652 32.6318906,25.7795268 32.6318906,26.1733186 L32.6318906,27.5066209 C32.6318906,27.9004127 32.255006,28.2196742 31.7903284,28.2196742 L30.2168186,28.2196742 C29.751718,28.2196742 29.3749181,27.9004127 29.3749181,27.5066209 L29.3749181,26.1733186 L29.3748335,26.1733186 Z M24.3186095,21.8889787 C24.3186095,21.4951869 24.6952403,21.1759254 25.1600025,21.1759254 L26.7337661,21.1759254 C27.1982746,21.1759254 27.5752437,21.4951869 27.5752437,21.8889787 L27.5752437,23.2224243 C27.5752437,23.6162161 27.1982746,23.9354777 26.7337661,23.9354777 L25.1600025,23.9354777 C24.6952403,23.9354777 24.3186095,23.6162161 24.3186095,23.2224243 L24.3186095,21.8889787 L24.3186095,21.8889787 Z M24.3186095,26.1733186 C24.3186095,25.7795268 24.6952403,25.4602652 25.1600025,25.4602652 L26.7337661,25.4602652 C27.1982746,25.4602652 27.5752437,25.7795268 27.5752437,26.1733186 L27.5752437,27.5066209 C27.5752437,27.9004127 27.1982746,28.2196742 26.7337661,28.2196742 L25.1600025,28.2196742 C24.6952403,28.2196742 24.3186095,27.9004127 24.3186095,27.5066209 L24.3186095,26.1733186 L24.3186095,26.1733186 Z M20,14.1007878 C21.3165585,14.1007878 22.3838623,15.0050398 22.3838623,16.1205562 C22.3838623,17.2360726 21.3166431,18.140253 20,18.140253 C18.6834415,18.140253 17.6162223,17.236001 17.6162223,16.1204845 C17.6162223,15.0049681 18.6834415,14.1007878 20,14.1007878 Z M17.6129237,25.695752 C17.6129237,25.3019602 17.9896391,24.9826987 18.4547396,24.9826987 L21.545345,24.9826987 C22.0101918,24.9826987 22.3869072,25.3019602 22.3869072,25.695752 L22.3869072,31.3134659 C22.3869072,31.4420304 22.3463938,31.562497 22.2759394,31.666696 L17.724399,31.666696 C17.6539446,31.562497 17.6131774,31.4420304 17.6131774,31.3134659 L17.6129237,25.695752 L17.6129237,25.695752 Z M12.4245871,21.8889787 C12.4245871,21.4951869 12.8013025,21.1759254 13.2660647,21.1759254 L14.8397437,21.1759254 C15.304506,21.1759254 15.6812213,21.4951869 15.6812213,21.8889787 L15.6812213,23.2224243 C15.6812213,23.6162161 15.304506,23.9354777 14.8397437,23.9354777 L13.2660647,23.9354777 C12.8013025,23.9354777 12.4245871,23.6162161 12.4245871,23.2224243 L12.4245871,21.8889787 L12.4245871,21.8889787 Z M12.4245871,26.1733186 C12.4245871,25.7795268 12.8013025,25.4602652 13.2660647,25.4602652 L14.8397437,25.4602652 C15.304506,25.4602652 15.6812213,25.7795268 15.6812213,26.1733186 L15.6812213,27.5066209 C15.6812213,27.9004127 15.304506,28.2196742 14.8397437,28.2196742 L13.2660647,28.2196742 C12.8013025,28.2196742 12.4245871,27.9004127 12.4245871,27.5066209 L12.4245871,26.1733186 L12.4245871,26.1733186 Z M7.36785571,21.8889787 C7.36785571,21.4951869 7.74457108,21.1759254 8.20958704,21.1759254 L9.78309686,21.1759254 C10.2480282,21.1759254 10.6248282,21.4951869 10.6248282,21.8889787 L10.6248282,23.2224243 C10.6248282,23.6162161 10.2480282,23.9354777 9.78309686,23.9354777 L8.20967162,23.9354777 C7.74465566,23.9354777 7.36794029,23.6162161 7.36794029,23.2224243 L7.36794029,21.8889787 L7.36785571,21.8889787 Z M7.36785571,26.1733186 C7.36785571,25.7795268 7.74457108,25.4602652 8.20958704,25.4602652 L9.78309686,25.4602652 C10.2480282,25.4602652 10.6248282,25.7795268 10.6248282,26.1733186 L10.6248282,27.5066209 C10.6248282,27.9004127 10.2480282,28.2196742 9.78309686,28.2196742 L8.20967162,28.2196742 C7.74465566,28.2196742 7.36794029,27.9004127 7.36794029,27.5066209 L7.36794029,26.1733186 L7.36785571,26.1733186 Z" id="path-1"></path>
    </defs>
    <g id="Symbols" stroke="none" stroke-width="1" fill="none" fill-rule="evenodd">
        <g id="card-/-🖥-Ops_analyst-/--task-card-education-verification" transform="translate(-714.000000, -21.000000)">
            <g id="intro-card">
                <g id="pan-cards" transform="translate(713.138889, 21.000000)">
                    <path d="M0.861111111,7.99735801 C0.861111111,3.58053914 4.44014703,0 8.86886275,0 L139.853359,0 C144.275919,0 147.861111,3.5793661 147.861111,7.99735801 L147.861111,87.002642 C147.861111,91.4194609 144.282075,95 139.853359,95 L8.86886275,95 C4.44630364,95 0.861111111,91.4206339 0.861111111,87.002642 L0.861111111,7.99735801 Z" id="Rectangle-Copy-13" fill="#6772E5"></path>
                    <g id="Group-2" transform="translate(91.861111, 39.000000)">
                        <rect id="Rectangle" fill="#D8D8D8" opacity="0" x="0" y="0" width="40" height="40"></rect>
                        <g id="Group">
                            <rect id="Rectangle" fill="#D8D8D8" opacity="0" x="0" y="0" width="40" height="40"></rect>
                            <mask id="mask-2" fill="white">
                                <use xlink:href="#path-1"></use>
                            </mask>
                            <use id="Shape" fill="#010E39" fill-rule="nonzero" opacity="0.5" xlink:href="#path-1"></use>
                        </g>
                    </g>
                    <path d="M18.3871111,30.252 C20.1151111,30.252 21.4651111,29.55 22.3111111,28.326 L20.4391111,27.246 C20.0431111,27.768 19.3231111,28.146 18.4231111,28.146 C17.1991111,28.146 16.2091111,27.642 15.8851111,26.454 L22.6711111,26.454 C22.7251111,26.148 22.7611111,25.842 22.7611111,25.5 C22.7611111,22.854 20.8711111,20.748 18.2071111,20.748 C15.3811111,20.748 13.4551111,22.818 13.4551111,25.5 C13.4551111,28.182 15.3631111,30.252 18.3871111,30.252 Z M20.4391111,24.654 L15.8491111,24.654 C16.1191111,23.502 16.9651111,22.836 18.2071111,22.836 C19.1791111,22.836 20.1511111,23.358 20.4391111,24.654 Z M28.2151111,30.252 C29.5291111,30.252 30.4831111,29.766 31.1311111,28.938 L31.1311111,30 L33.4531111,30 L33.4531111,17.4 L31.1311111,17.4 L31.1311111,22.062 C30.4831111,21.234 29.5291111,20.748 28.2151111,20.748 C25.8031111,20.748 23.8231111,22.818 23.8231111,25.5 C23.8231111,28.182 25.8031111,30.252 28.2151111,30.252 Z M28.6471111,28.038 C27.2071111,28.038 26.1451111,27.012 26.1451111,25.5 C26.1451111,23.988 27.2071111,22.962 28.6471111,22.962 C30.0691111,22.962 31.1311111,23.988 31.1311111,25.5 C31.1311111,27.012 30.0691111,28.038 28.6471111,28.038 Z M38.8351111,30.252 C40.0411111,30.252 40.9771111,29.802 41.5171111,28.992 L41.5171111,30 L43.8391111,30 L43.8391111,21 L41.5171111,21 L41.5171111,25.86 C41.5171111,27.426 40.6711111,28.092 39.5371111,28.092 C38.4931111,28.092 37.7551111,27.462 37.7551111,26.238 L37.7551111,21 L35.4331111,21 L35.4331111,26.526 C35.4331111,28.92 36.9271111,30.252 38.8351111,30.252 Z M50.2471111,30.252 C52.0111111,30.252 53.5411111,29.316 54.3151111,27.912 L52.2991111,26.76 C51.9391111,27.498 51.1651111,27.948 50.2291111,27.948 C48.8431111,27.948 47.8171111,26.922 47.8171111,25.5 C47.8171111,24.06 48.8431111,23.034 50.2291111,23.034 C51.1471111,23.034 51.9211111,23.502 52.2811111,24.24 L54.2791111,23.07 C53.5411111,21.684 52.0111111,20.748 50.2471111,20.748 C47.5111111,20.748 45.4951111,22.818 45.4951111,25.5 C45.4951111,28.182 47.5111111,30.252 50.2471111,30.252 Z M59.3011111,30.252 C60.6151111,30.252 61.5871111,29.748 62.2351111,28.938 L62.2351111,30 L64.5571111,30 L64.5571111,21 L62.2351111,21 L62.2351111,22.062 C61.5871111,21.252 60.6151111,20.748 59.3011111,20.748 C56.9071111,20.748 54.9271111,22.818 54.9271111,25.5 C54.9271111,28.182 56.9071111,30.252 59.3011111,30.252 Z M59.7331111,28.038 C58.3111111,28.038 57.2491111,27.012 57.2491111,25.5 C57.2491111,23.988 58.3111111,22.962 59.7331111,22.962 C61.1731111,22.962 62.2351111,23.988 62.2351111,25.5 C62.2351111,27.012 61.1731111,28.038 59.7331111,28.038 Z M71.8111111,30 L71.8111111,27.894 C70.4791111,27.966 69.7771111,27.948 69.7771111,26.976 L69.7771111,23.232 L71.8111111,23.232 L71.8111111,21 L69.7771111,21 L69.7771111,18.48 L67.4551111,19.182 L67.4551111,21 L65.8891111,21 L65.8891111,23.232 L67.4551111,23.232 L67.4551111,26.976 C67.4551111,29.406 68.5531111,30.36 71.8111111,30 Z M74.6011111,19.92 C75.3931111,19.92 76.0411111,19.272 76.0411111,18.498 C76.0411111,17.724 75.3931111,17.058 74.6011111,17.058 C73.8271111,17.058 73.1791111,17.724 73.1791111,18.498 C73.1791111,19.272 73.8271111,19.92 74.6011111,19.92 Z M75.7711111,30 L75.7711111,21 L73.4491111,21 L73.4491111,30 L75.7711111,30 Z M82.1791111,30.252 C84.8251111,30.252 86.9491111,28.182 86.9491111,25.5 C86.9491111,22.818 84.8251111,20.748 82.1791111,20.748 C79.5331111,20.748 77.4271111,22.818 77.4271111,25.5 C77.4271111,28.182 79.5331111,30.252 82.1791111,30.252 Z M82.1791111,27.984 C80.8111111,27.984 79.7491111,26.958 79.7491111,25.5 C79.7491111,24.042 80.8111111,23.016 82.1791111,23.016 C83.5651111,23.016 84.6271111,24.042 84.6271111,25.5 C84.6271111,26.958 83.5651111,27.984 82.1791111,27.984 Z M90.9091111,30 L90.9091111,25.14 C90.9091111,23.574 91.7551111,22.908 92.8891111,22.908 C93.9331111,22.908 94.6711111,23.538 94.6711111,24.762 L94.6711111,30 L96.9931111,30 L96.9931111,24.474 C96.9931111,22.08 95.4991111,20.748 93.5911111,20.748 C92.3851111,20.748 91.4491111,21.198 90.9091111,22.008 L90.9091111,21 L88.5871111,21 L88.5871111,30 L90.9091111,30 Z M18.2071111,54.252 C19.9711111,54.252 21.5011111,53.316 22.2751111,51.912 L20.2591111,50.76 C19.8991111,51.498 19.1251111,51.948 18.1891111,51.948 C16.8031111,51.948 15.7771111,50.922 15.7771111,49.5 C15.7771111,48.06 16.8031111,47.034 18.1891111,47.034 C19.1071111,47.034 19.8811111,47.502 20.2411111,48.24 L22.2391111,47.07 C21.5011111,45.684 19.9711111,44.748 18.2071111,44.748 C15.4711111,44.748 13.4551111,46.818 13.4551111,49.5 C13.4551111,52.182 15.4711111,54.252 18.2071111,54.252 Z M25.8211111,54 L25.8211111,49.14 C25.8211111,47.574 26.6671111,46.908 27.8011111,46.908 C28.8451111,46.908 29.5831111,47.538 29.5831111,48.762 L29.5831111,54 L31.9051111,54 L31.9051111,48.474 C31.9051111,46.08 30.4111111,44.748 28.5031111,44.748 C27.2971111,44.748 26.3611111,45.198 25.8211111,46.008 L25.8211111,41.4 L23.4991111,41.4 L23.4991111,54 L25.8211111,54 Z M38.3491111,54.252 C40.0771111,54.252 41.4271111,53.55 42.2731111,52.326 L40.4011111,51.246 C40.0051111,51.768 39.2851111,52.146 38.3851111,52.146 C37.1611111,52.146 36.1711111,51.642 35.8471111,50.454 L42.6331111,50.454 C42.6871111,50.148 42.7231111,49.842 42.7231111,49.5 C42.7231111,46.854 40.8331111,44.748 38.1691111,44.748 C35.3431111,44.748 33.4171111,46.818 33.4171111,49.5 C33.4171111,52.182 35.3251111,54.252 38.3491111,54.252 Z M40.4011111,48.654 L35.8111111,48.654 C36.0811111,47.502 36.9271111,46.836 38.1691111,46.836 C39.1411111,46.836 40.1131111,47.358 40.4011111,48.654 Z M48.5551111,54.252 C50.3191111,54.252 51.8491111,53.316 52.6231111,51.912 L50.6071111,50.76 C50.2471111,51.498 49.4731111,51.948 48.5371111,51.948 C47.1511111,51.948 46.1251111,50.922 46.1251111,49.5 C46.1251111,48.06 47.1511111,47.034 48.5371111,47.034 C49.4551111,47.034 50.2291111,47.502 50.5891111,48.24 L52.5871111,47.07 C51.8491111,45.684 50.3191111,44.748 48.5551111,44.748 C45.8191111,44.748 43.8031111,46.818 43.8031111,49.5 C43.8031111,52.182 45.8191111,54.252 48.5551111,54.252 Z M56.1691111,54 L56.1691111,49.914 L59.4451111,54 L62.1451111,54 L58.4191111,49.446 L62.0371111,45 L59.2651111,45 L56.1691111,48.96 L56.1691111,41.4 L53.8471111,41.4 L53.8471111,54 L56.1691111,54 Z" id="educationcheck" fill="#FFFFFF" fill-rule="nonzero"></path>
                </g>
            </g>
        </g>
    </g>
</svg>