<?xml version="1.0" encoding="UTF-8"?>
<svg width="40px" height="40px" viewBox="0 0 40 40" version="1.1" xmlns="http://www.w3.org/2000/svg" xmlns:xlink="http://www.w3.org/1999/xlink">
    <title>B9E04A0B-36A1-4E48-9308-80B073B5628F</title>
    <defs>
        <path d="M23.1181263,21.60066 L23.1181263,10.7556 C23.1181263,10.18956 22.6352211,9.73068 22.0393895,9.73068 L16.9165263,9.73068 L16.9165263,6.77994 C16.9165263,6.50124 16.7575579,6.24438 16.5015158,6.10866 L12.3419368,3.90492 C12.3190105,3.89274 12.2953263,3.88206 12.2715158,3.87222 L12.2715158,2.61462 L14.5114105,2.61462 C14.6900842,2.61462 14.8350316,2.47692 14.8350316,2.30712 L14.8350316,0.75396 C14.8350316,0.58416 14.6900842,0.44646 14.5114105,0.44646 L12.2715158,0.44646 L12.2715158,0.3075 C12.2715158,0.1377 12.1266947,0 11.9478947,0 C11.7690947,0 11.6242737,0.1377 11.6242737,0.3075 L11.6242737,3.87222 C11.6004632,3.88212 11.5767789,3.8928 11.5537895,3.90492 L7.39421053,6.10872 C7.13791579,6.24438 6.97907368,6.5013 6.97907368,6.78 L6.97907368,9.73068 L1.85608421,9.73068 C1.26025263,9.73068 0.777347368,10.18956 0.777347368,10.7556 L0.777347368,21.6006 C0.319010526,21.79764 0,22.23558 0,22.74444 C0,23.43792 0.591663158,23.99994 1.32151579,23.99994 L22.5738947,23.99994 C23.3037474,23.99994 23.8954105,23.43792 23.8954105,22.74444 C23.8954105,22.23558 23.5764,21.79764 23.1181263,21.60066 Z M18.9481895,13.30296 C18.9481895,12.97326 19.2295579,12.70596 19.5768632,12.70596 L20.7519158,12.70596 C21.0989053,12.70596 21.3803368,12.97326 21.3803368,13.30296 L21.3803368,14.41938 C21.3803368,14.74908 21.0989053,15.01638 20.7519158,15.01638 L19.5769263,15.01638 C19.2296211,15.01638 18.9482526,14.74908 18.9482526,14.41938 L18.9482526,13.30296 L18.9481895,13.30296 Z M18.9481895,16.89 C18.9481895,16.5603 19.2295579,16.293 19.5768632,16.293 L20.7519158,16.293 C21.0989053,16.293 21.3803368,16.5603 21.3803368,16.89 L21.3803368,18.0063 C21.3803368,18.336 21.0989053,18.6033 20.7519158,18.6033 L19.5769263,18.6033 C19.2296211,18.6033 18.9482526,18.336 18.9482526,18.0063 L18.9482526,16.89 L18.9481895,16.89 Z M15.1725474,13.30296 C15.1725474,12.97326 15.4537895,12.70596 15.8008421,12.70596 L16.9760211,12.70596 C17.3228842,12.70596 17.6043789,12.97326 17.6043789,13.30296 L17.6043789,14.41938 C17.6043789,14.74908 17.3228842,15.01638 16.9760211,15.01638 L15.8008421,15.01638 C15.4537895,15.01638 15.1725474,14.74908 15.1725474,14.41938 L15.1725474,13.30296 L15.1725474,13.30296 Z M15.1725474,16.89 C15.1725474,16.5603 15.4537895,16.293 15.8008421,16.293 L16.9760211,16.293 C17.3228842,16.293 17.6043789,16.5603 17.6043789,16.89 L17.6043789,18.0063 C17.6043789,18.336 17.3228842,18.6033 16.9760211,18.6033 L15.8008421,18.6033 C15.4537895,18.6033 15.1725474,18.336 15.1725474,18.0063 L15.1725474,16.89 L15.1725474,16.89 Z M11.9477053,6.78234 C12.9308211,6.78234 13.7278105,7.53942 13.7278105,8.47338 C13.7278105,9.40734 12.9308842,10.16436 11.9477053,10.16436 C10.9645895,10.16436 10.1676632,9.40728 10.1676632,8.47332 C10.1676632,7.53936 10.9645895,6.78234 11.9477053,6.78234 Z M10.1652,16.49016 C10.1652,16.16046 10.4465053,15.89316 10.7938105,15.89316 L13.1016632,15.89316 C13.4487789,15.89316 13.7300842,16.16046 13.7300842,16.49016 L13.7300842,21.19356 C13.7300842,21.3012 13.6998316,21.40206 13.6472211,21.4893 L10.2484421,21.4893 C10.1958316,21.40206 10.1653895,21.3012 10.1653895,21.19356 L10.1652,16.49016 L10.1652,16.49016 Z M6.29090526,13.30296 C6.29090526,12.97326 6.57221053,12.70596 6.91926316,12.70596 L8.09437895,12.70596 C8.44143158,12.70596 8.72273684,12.97326 8.72273684,13.30296 L8.72273684,14.41938 C8.72273684,14.74908 8.44143158,15.01638 8.09437895,15.01638 L6.91926316,15.01638 C6.57221053,15.01638 6.29090526,14.74908 6.29090526,14.41938 L6.29090526,13.30296 L6.29090526,13.30296 Z M6.29090526,16.89 C6.29090526,16.5603 6.57221053,16.293 6.91926316,16.293 L8.09437895,16.293 C8.44143158,16.293 8.72273684,16.5603 8.72273684,16.89 L8.72273684,18.0063 C8.72273684,18.336 8.44143158,18.6033 8.09437895,18.6033 L6.91926316,18.6033 C6.57221053,18.6033 6.29090526,18.336 6.29090526,18.0063 L6.29090526,16.89 L6.29090526,16.89 Z M2.51488421,13.30296 C2.51488421,12.97326 2.79618947,12.70596 3.14343158,12.70596 L4.31842105,12.70596 C4.6656,12.70596 4.94696842,12.97326 4.94696842,13.30296 L4.94696842,14.41938 C4.94696842,14.74908 4.6656,15.01638 4.31842105,15.01638 L3.14349474,15.01638 C2.79625263,15.01638 2.51494737,14.74908 2.51494737,14.41938 L2.51494737,13.30296 L2.51488421,13.30296 Z M2.51488421,16.89 C2.51488421,16.5603 2.79618947,16.293 3.14343158,16.293 L4.31842105,16.293 C4.6656,16.293 4.94696842,16.5603 4.94696842,16.89 L4.94696842,18.0063 C4.94696842,18.336 4.6656,18.6033 4.31842105,18.6033 L3.14349474,18.6033 C2.79625263,18.6033 2.51494737,18.336 2.51494737,18.0063 L2.51494737,16.89 L2.51488421,16.89 Z" id="path-1"></path>
    </defs>
    <g id="profille_view-mode" stroke="none" stroke-width="1" fill="none" fill-rule="evenodd">
        <g id="attendance-_profile_04" transform="translate(-200.000000, -2040.000000)">
            <g id="Group-29" transform="translate(160.000000, 446.000000)">
                <g id="personal-details" transform="translate(32.000000, 1246.000000)">
                    <g id="Group-32" transform="translate(8.000000, 348.000000)">
                        <circle id="Oval" fill="#F3F7FD" cx="20" cy="20" r="20"></circle>
                        <g id="icon-/-32-/-info-/-educational_building" transform="translate(8.000000, 8.000000)">
                            <mask id="mask-2" fill="white">
                                <use xlink:href="#path-1"></use>
                            </mask>
                            <use id="Shape" fill="#7892B8" fill-rule="nonzero" xlink:href="#path-1"></use>
                            <rect id="Rectangle" fill="#0059B2" mask="url(#mask-2)" x="0" y="0" width="24" height="24"></rect>
                        </g>
                    </g>
                </g>
            </g>
        </g>
    </g>
</svg>