<?xml version="1.0" encoding="UTF-8"?>
<svg width="88px" height="57px" viewBox="0 0 88 57" version="1.1" xmlns="http://www.w3.org/2000/svg" xmlns:xlink="http://www.w3.org/1999/xlink">
    <!-- Generator: sketchtool 60.1 (101010) - https://sketch.com -->
    <title>FC1356AB-8D95-4C96-85B8-75238E4FACBD</title>
    <desc>Created with sketchtool.</desc>
    <defs>
        <path d="M20.7864829,19.0798222 L20.7864829,11.307856 C20.7864829,10.902211 20.4019634,10.5733608 19.9275248,10.5733608 L15.8483794,10.5733608 L15.8483794,8.45875274 C15.8483794,8.25902614 15.7217987,8.07495088 15.5179219,7.97768897 L12.2058038,6.39840836 C12.1875485,6.38967973 12.1686896,6.38202605 12.1497302,6.37497434 L12.1497302,5.47373223 L13.9332751,5.47373223 C14.0755463,5.47373223 14.1909625,5.37505138 14.1909625,5.25336649 L14.1909625,4.14031529 C14.1909625,4.0186304 14.0755463,3.91994955 13.9332751,3.91994955 L12.1497302,3.91994955 L12.1497302,3.82036574 C12.1497302,3.69868085 12.0344146,3.6 11.8920428,3.6 C11.749671,3.6 11.6343554,3.69868085 11.6343554,3.82036574 L11.6343554,6.37497434 C11.6153959,6.38206905 11.5965371,6.38972272 11.5782314,6.39840836 L8.26611332,7.97773197 C8.06203535,8.07495088 7.93555529,8.25906914 7.93555529,8.45879574 L7.93555529,10.5733608 L3.85630923,10.5733608 C3.3818707,10.5733608 2.99735119,10.902211 2.99735119,11.307856 L2.99735119,19.0797792 C2.6323946,19.2209853 2.37837838,19.5348291 2.37837838,19.8994968 C2.37837838,20.3964699 2.84949775,20.799234 3.43065227,20.799234 L20.3531315,20.799234 C20.934286,20.799234 21.4054054,20.3964699 21.4054054,19.8994968 C21.4054054,19.5348291 21.1513892,19.2209853 20.7864829,19.0798222 Z M17.4661172,13.1333872 C17.4661172,12.8971122 17.6901604,12.7055552 17.9667067,12.7055552 L18.9023574,12.7055552 C19.1786522,12.7055552 19.4027457,12.8971122 19.4027457,13.1333872 L19.4027457,13.9334546 C19.4027457,14.1697297 19.1786522,14.3612866 18.9023574,14.3612866 L17.966757,14.3612866 C17.6902107,14.3612866 17.4661675,14.1697297 17.4661675,13.9334546 L17.4661675,13.1333872 L17.4661172,13.1333872 Z M17.4661172,15.7039912 C17.4661172,15.4677161 17.6901604,15.2761591 17.9667067,15.2761591 L18.9023574,15.2761591 C19.1786522,15.2761591 19.4027457,15.4677161 19.4027457,15.7039912 L19.4027457,16.5039725 C19.4027457,16.7402476 19.1786522,16.9318045 18.9023574,16.9318045 L17.966757,16.9318045 C17.6902107,16.9318045 17.4661675,16.7402476 17.4661675,16.5039725 L17.4661675,15.7039912 L17.4661172,15.7039912 Z M14.4597138,13.1333872 C14.4597138,12.8971122 14.6836564,12.7055552 14.9600015,12.7055552 L15.8957528,12.7055552 C16.1719471,12.7055552 16.3960908,12.8971122 16.3960908,13.1333872 L16.3960908,13.9334546 C16.3960908,14.1697297 16.1719471,14.3612866 15.8957528,14.3612866 L14.9600015,14.3612866 C14.6836564,14.3612866 14.4597138,14.1697297 14.4597138,13.9334546 L14.4597138,13.1333872 L14.4597138,13.1333872 Z M14.4597138,15.7039912 C14.4597138,15.4677161 14.6836564,15.2761591 14.9600015,15.2761591 L15.8957528,15.2761591 C16.1719471,15.2761591 16.3960908,15.4677161 16.3960908,15.7039912 L16.3960908,16.5039725 C16.3960908,16.7402476 16.1719471,16.9318045 15.8957528,16.9318045 L14.9600015,16.9318045 C14.6836564,16.9318045 14.4597138,16.7402476 14.4597138,16.5039725 L14.4597138,15.7039912 L14.4597138,15.7039912 Z M11.8918919,8.46047267 C12.6747104,8.46047267 13.3093235,9.00302386 13.3093235,9.67233373 C13.3093235,10.3416436 12.6747607,10.8841518 11.8918919,10.8841518 C11.1090733,10.8841518 10.4745105,10.3416006 10.4745105,9.67229073 C10.4745105,9.00298087 11.1090733,8.46047267 11.8918919,8.46047267 Z M10.4725492,15.4174512 C10.4725492,15.1811761 10.6965421,14.9896192 10.9730884,14.9896192 L12.8107457,14.9896192 C13.0871411,14.9896192 13.311134,15.1811761 13.311134,15.4174512 L13.311134,18.7880795 C13.311134,18.8652183 13.2870449,18.9374982 13.2451531,19.0000176 L10.5388318,19.0000176 C10.49694,18.9374982 10.4727001,18.8652183 10.4727001,18.7880795 L10.4725492,15.4174512 L10.4725492,15.4174512 Z M7.38759236,13.1333872 C7.38759236,12.8971122 7.61158528,12.7055552 7.88793039,12.7055552 L8.8236314,12.7055552 C9.09997651,12.7055552 9.32396943,12.8971122 9.32396943,13.1333872 L9.32396943,13.9334546 C9.32396943,14.1697297 9.09997651,14.3612866 8.8236314,14.3612866 L7.88793039,14.3612866 C7.61158528,14.3612866 7.38759236,14.1697297 7.38759236,13.9334546 L7.38759236,13.1333872 L7.38759236,13.1333872 Z M7.38759236,15.7039912 C7.38759236,15.4677161 7.61158528,15.2761591 7.88793039,15.2761591 L8.8236314,15.2761591 C9.09997651,15.2761591 9.32396943,15.4677161 9.32396943,15.7039912 L9.32396943,16.5039725 C9.32396943,16.7402476 9.09997651,16.9318045 8.8236314,16.9318045 L7.88793039,16.9318045 C7.61158528,16.9318045 7.38759236,16.7402476 7.38759236,16.5039725 L7.38759236,15.7039912 L7.38759236,15.7039912 Z M4.38088718,13.1333872 C4.38088718,12.8971122 4.6048801,12.7055552 4.88137608,12.7055552 L5.81697651,12.7055552 C6.0934222,12.7055552 6.31746542,12.8971122 6.31746542,13.1333872 L6.31746542,13.9334546 C6.31746542,14.1697297 6.0934222,14.3612866 5.81697651,14.3612866 L4.88142637,14.3612866 C4.60493039,14.3612866 4.38093747,14.1697297 4.38093747,13.9334546 L4.38093747,13.1333872 L4.38088718,13.1333872 Z M4.38088718,15.7039912 C4.38088718,15.4677161 4.6048801,15.2761591 4.88137608,15.2761591 L5.81697651,15.2761591 C6.0934222,15.2761591 6.31746542,15.4677161 6.31746542,15.7039912 L6.31746542,16.5039725 C6.31746542,16.7402476 6.0934222,16.9318045 5.81697651,16.9318045 L4.88142637,16.9318045 C4.60493039,16.9318045 4.38093747,16.7402476 4.38093747,16.5039725 L4.38093747,15.7039912 L4.38088718,15.7039912 Z" id="path-1"></path>
    </defs>
    <g id="🖥-Ops_analyst-" stroke="none" stroke-width="1" fill="none" fill-rule="evenodd">
        <g id="task-1" transform="translate(-186.000000, -788.000000)">
            <g id="card-/-🖥-Ops_analyst-/-education" transform="translate(160.000000, 764.000000)">
                <g id="PAN">
                    <g id="pan-cards" transform="translate(26.000000, 24.000000)">
                        <path d="M0.512012012,8.00065503 C0.512012012,3.58201527 4.10135911,0 8.51980537,0 L79.9096241,0 C84.3322062,0 87.9174174,3.58719818 87.9174174,8.00065503 L87.9174174,48.999345 C87.9174174,53.4179847 84.3280703,57 79.9096241,57 L8.51980537,57 C4.09722322,57 0.512012012,53.4128018 0.512012012,48.999345 L0.512012012,8.00065503 Z" id="Rectangle-Copy-13" fill="#6772E5"></path>
                        <g id="Group-2" transform="translate(54.620120, 23.400000)">
                            <rect id="Rectangle" fill="#D8D8D8" opacity="0" x="0" y="0" width="23.7837838" height="24"></rect>
                            <g id="Group">
                                <rect id="Rectangle" fill="#D8D8D8" opacity="0" x="0" y="0" width="23.7837838" height="24"></rect>
                                <mask id="mask-2" fill="white">
                                    <use xlink:href="#path-1"></use>
                                </mask>
                                <use id="Shape" fill="#010E39" fill-rule="nonzero" opacity="0.5" xlink:href="#path-1"></use>
                            </g>
                        </g>
                        <path d="M10.9328769,18.1512 C11.9603363,18.1512 12.763039,17.73 13.2660661,16.9956 L12.152985,16.3476 C11.9175255,16.6608 11.4894174,16.8876 10.9542823,16.8876 C10.2264985,16.8876 9.63784985,16.5852 9.4452012,15.8724 L13.4801201,15.8724 C13.5122282,15.6888 13.5336336,15.5052 13.5336336,15.3 C13.5336336,13.7124 12.4098498,12.4488 10.8258498,12.4488 C9.14552553,12.4488 8.00033634,13.6908 8.00033634,15.3 C8.00033634,16.9092 9.13482282,18.1512 10.9328769,18.1512 Z M12.152985,14.7924 L9.4237958,14.7924 C9.58433634,14.1012 10.0873634,13.7016 10.8258498,13.7016 C11.4037958,13.7016 11.9817417,14.0148 12.152985,14.7924 Z M16.7765526,18.1512 C17.5578498,18.1512 18.1250931,17.8596 18.5103904,17.3628 L18.5103904,18 L19.891039,18 L19.891039,10.44 L18.5103904,10.44 L18.5103904,13.2372 C18.1250931,12.7404 17.5578498,12.4488 16.7765526,12.4488 C15.3423904,12.4488 14.1650931,13.6908 14.1650931,15.3 C14.1650931,16.9092 15.3423904,18.1512 16.7765526,18.1512 Z M17.0334174,16.8228 C16.1772012,16.8228 15.5457417,16.2072 15.5457417,15.3 C15.5457417,14.3928 16.1772012,13.7772 17.0334174,13.7772 C17.8789309,13.7772 18.5103904,14.3928 18.5103904,15.3 C18.5103904,16.2072 17.8789309,16.8228 17.0334174,16.8228 Z M23.0911471,18.1512 C23.8082282,18.1512 24.3647688,17.8812 24.6858498,17.3952 L24.6858498,18 L26.0664985,18 L26.0664985,12.6 L24.6858498,12.6 L24.6858498,15.516 C24.6858498,16.4556 24.1828228,16.8552 23.5085526,16.8552 C22.8877958,16.8552 22.448985,16.4772 22.448985,15.7428 L22.448985,12.6 L21.0683363,12.6 L21.0683363,15.9156 C21.0683363,17.352 21.9566607,18.1512 23.0911471,18.1512 Z M29.8766607,18.1512 C30.9255255,18.1512 31.8352553,17.5896 32.2954715,16.7472 L31.0967688,16.056 C30.8827147,16.4988 30.4224985,16.7688 29.865958,16.7688 C29.0418498,16.7688 28.4317958,16.1532 28.4317958,15.3 C28.4317958,14.436 29.0418498,13.8204 29.865958,13.8204 C30.4117958,13.8204 30.872012,14.1012 31.0860661,14.544 L32.2740661,13.842 C31.8352553,13.0104 30.9255255,12.4488 29.8766607,12.4488 C28.2498498,12.4488 27.0511471,13.6908 27.0511471,15.3 C27.0511471,16.9092 28.2498498,18.1512 29.8766607,18.1512 Z M35.2601201,18.1512 C36.0414174,18.1512 36.6193634,17.8488 37.0046607,17.3628 L37.0046607,18 L38.3853093,18 L38.3853093,12.6 L37.0046607,12.6 L37.0046607,13.2372 C36.6193634,12.7512 36.0414174,12.4488 35.2601201,12.4488 C33.8366607,12.4488 32.6593634,13.6908 32.6593634,15.3 C32.6593634,16.9092 33.8366607,18.1512 35.2601201,18.1512 Z M35.516985,16.8228 C34.6714715,16.8228 34.040012,16.2072 34.040012,15.3 C34.040012,14.3928 34.6714715,13.7772 35.516985,13.7772 C36.3732012,13.7772 37.0046607,14.3928 37.0046607,15.3 C37.0046607,16.2072 36.3732012,16.8228 35.516985,16.8228 Z M42.6984985,18 L42.6984985,16.7364 C41.9064985,16.7796 41.4890931,16.7688 41.4890931,16.1856 L41.4890931,13.9392 L42.6984985,13.9392 L42.6984985,12.6 L41.4890931,12.6 L41.4890931,11.088 L40.1084444,11.5092 L40.1084444,12.6 L39.1773093,12.6 L39.1773093,13.9392 L40.1084444,13.9392 L40.1084444,16.1856 C40.1084444,17.6436 40.7613093,18.216 42.6984985,18 Z M44.3574174,11.952 C44.8283363,11.952 45.2136336,11.5632 45.2136336,11.0988 C45.2136336,10.6344 44.8283363,10.2348 44.3574174,10.2348 C43.8972012,10.2348 43.5119039,10.6344 43.5119039,11.0988 C43.5119039,11.5632 43.8972012,11.952 44.3574174,11.952 Z M45.0530931,18 L45.0530931,12.6 L43.6724444,12.6 L43.6724444,18 L45.0530931,18 Z M48.8632553,18.1512 C50.4365526,18.1512 51.6994715,16.9092 51.6994715,15.3 C51.6994715,13.6908 50.4365526,12.4488 48.8632553,12.4488 C47.289958,12.4488 46.0377417,13.6908 46.0377417,15.3 C46.0377417,16.9092 47.289958,18.1512 48.8632553,18.1512 Z M48.8632553,16.7904 C48.0498498,16.7904 47.4183904,16.1748 47.4183904,15.3 C47.4183904,14.4252 48.0498498,13.8096 48.8632553,13.8096 C49.6873634,13.8096 50.3188228,14.4252 50.3188228,15.3 C50.3188228,16.1748 49.6873634,16.7904 48.8632553,16.7904 Z M54.0540661,18 L54.0540661,15.084 C54.0540661,14.1444 54.5570931,13.7448 55.2313634,13.7448 C55.8521201,13.7448 56.2909309,14.1228 56.2909309,14.8572 L56.2909309,18 L57.6715796,18 L57.6715796,14.6844 C57.6715796,13.248 56.7832553,12.4488 55.6487688,12.4488 C54.9316877,12.4488 54.3751471,12.7188 54.0540661,13.2048 L54.0540661,12.6 L52.6734174,12.6 L52.6734174,18 L54.0540661,18 Z M10.8258498,32.5512 C11.8747147,32.5512 12.7844444,31.9896 13.2446607,31.1472 L12.045958,30.456 C11.8319039,30.8988 11.3716877,31.1688 10.8151471,31.1688 C9.99103904,31.1688 9.38098498,30.5532 9.38098498,29.7 C9.38098498,28.836 9.99103904,28.2204 10.8151471,28.2204 C11.360985,28.2204 11.8212012,28.5012 12.0352553,28.944 L13.2232553,28.242 C12.7844444,27.4104 11.8747147,26.8488 10.8258498,26.8488 C9.19903904,26.8488 8.00033634,28.0908 8.00033634,29.7 C8.00033634,31.3092 9.19903904,32.5512 10.8258498,32.5512 Z M15.3530931,32.4 L15.3530931,29.484 C15.3530931,28.5444 15.8561201,28.1448 16.5303904,28.1448 C17.1511471,28.1448 17.589958,28.5228 17.589958,29.2572 L17.589958,32.4 L18.9706066,32.4 L18.9706066,29.0844 C18.9706066,27.648 18.0822823,26.8488 16.9477958,26.8488 C16.2307147,26.8488 15.6741742,27.1188 15.3530931,27.6048 L15.3530931,24.84 L13.9724444,24.84 L13.9724444,32.4 L15.3530931,32.4 Z M22.8021742,32.5512 C23.8296336,32.5512 24.6323363,32.13 25.1353634,31.3956 L24.0222823,30.7476 C23.7868228,31.0608 23.3587147,31.2876 22.8235796,31.2876 C22.0957958,31.2876 21.5071471,30.9852 21.3144985,30.2724 L25.3494174,30.2724 C25.3815255,30.0888 25.4029309,29.9052 25.4029309,29.7 C25.4029309,28.1124 24.2791471,26.8488 22.6951471,26.8488 C21.0148228,26.8488 19.8696336,28.0908 19.8696336,29.7 C19.8696336,31.3092 21.0041201,32.5512 22.8021742,32.5512 Z M24.0222823,29.1924 L21.2930931,29.1924 C21.4536336,28.5012 21.9566607,28.1016 22.6951471,28.1016 C23.2730931,28.1016 23.851039,28.4148 24.0222823,29.1924 Z M28.8706066,32.5512 C29.9194715,32.5512 30.8292012,31.9896 31.2894174,31.1472 L30.0907147,30.456 C29.8766607,30.8988 29.4164444,31.1688 28.8599039,31.1688 C28.0357958,31.1688 27.4257417,30.5532 27.4257417,29.7 C27.4257417,28.836 28.0357958,28.2204 28.8599039,28.2204 C29.4057417,28.2204 29.865958,28.5012 30.080012,28.944 L31.268012,28.242 C30.8292012,27.4104 29.9194715,26.8488 28.8706066,26.8488 C27.2437958,26.8488 26.0450931,28.0908 26.0450931,29.7 C26.0450931,31.3092 27.2437958,32.5512 28.8706066,32.5512 Z M33.3978498,32.4 L33.3978498,29.9484 L35.3457417,32.4 L36.9511471,32.4 L34.7356877,29.6676 L36.8869309,27 L35.2387147,27 L33.3978498,29.376 L33.3978498,24.84 L32.0172012,24.84 L32.0172012,32.4 L33.3978498,32.4 Z" id="educationcheck" fill="#FFFFFF" fill-rule="nonzero"></path>
                    </g>
                </g>
            </g>
        </g>
    </g>
</svg>