<?xml version="1.0" encoding="UTF-8"?>
<svg width="40px" height="40px" viewBox="0 0 40 40" version="1.1" xmlns="http://www.w3.org/2000/svg" xmlns:xlink="http://www.w3.org/1999/xlink">
    <title>B3D81FA5-FD86-40AD-9CA9-ED13CD95E6C2</title>
    <defs>
        <path d="M17.3825859,2.53332813 C17.4931875,2.43882813 17.6495625,2.41724219 17.7824883,2.47911719 C17.9150273,2.54028906 18,2.67321484 18,2.81932422 L18,2.81932422 L18,12.2499883 C18,13.0772852 17.3272852,13.75 16.5000234,13.75 L16.5000234,13.75 L1.50001172,13.75 C0.672714844,13.75 0,13.0772852 0,12.2499883 L0,12.2499883 L0,2.81932422 C0,2.67321484 0.0849726563,2.54064063 0.217511719,2.47908203 C0.349347656,2.41794531 0.506074219,2.43879297 0.617414062,2.53329297 C2.85384375,4.4288125 6.780375,7.76682813 7.95297656,8.82334375 C8.57186719,9.38144922 9.42880078,9.38144922 10.04625,8.82408203 C11.1463594,7.83278125 14.6429297,4.85582031 17.3825859,2.53332813 Z M16.4999883,0.25 C16.9599727,0.25 17.3891602,0.460585938 17.6770195,0.827863281 C17.801543,0.986804688 17.7780938,1.21532031 17.6242852,1.34532813 C15.1538203,3.43751172 10.8189844,7.11865234 9.54383203,8.26745313 C9.37318359,8.42161328 9.19005469,8.499625 9,8.499625 C8.80955859,8.499625 8.62611328,8.420875 8.45507813,8.26597656 C8.01711914,7.87146301 7.21748673,7.17762651 6.25623626,6.35188671 L5.71709203,5.88940815 C3.96666129,4.38984163 1.84256763,2.58756213 0.37575,1.34532813 C0.221941406,1.21532031 0.198492188,0.986804688 0.323015625,0.827898438 C0.610839844,0.460585938 1.0400625,0.25 1.50001172,0.25 L1.50001172,0.25 Z" id="path-1"></path>
    </defs>
    <g id="profille_view-mode" stroke="none" stroke-width="1" fill="none" fill-rule="evenodd">
        <g id="attendance-_profile_04" transform="translate(-200.000000, -3154.000000)">
            <g id="Group-29" transform="translate(160.000000, 446.000000)">
                <g id="section-copy" transform="translate(40.000000, 1882.000000)">
                    <g id="mother" transform="translate(0.000000, 826.000000)">
                        <circle id="Oval" fill="#E5EEF7" opacity="0.5" cx="20" cy="20" r="20"></circle>
                        <g id="icon-/-24-/-info-/-email-address" transform="translate(11.000000, 13.000000)">
                            <mask id="mask-2" fill="white">
                                <use xlink:href="#path-1"></use>
                            </mask>
                            <use id="Combined-Shape" fill="#7892B8" fill-rule="nonzero" xlink:href="#path-1"></use>
                            <rect id="Rectangle" fill="#0059B2" mask="url(#mask-2)" x="0" y="-2" width="18" height="18"></rect>
                        </g>
                    </g>
                </g>
            </g>
        </g>
    </g>
</svg>