<?xml version="1.0" encoding="UTF-8"?>
<svg width="12px" height="12px" viewBox="0 0 12 12" version="1.1" xmlns="http://www.w3.org/2000/svg" xmlns:xlink="http://www.w3.org/1999/xlink">
    <title>emp</title>
    <g id="site/-shift-management" stroke="none" stroke-width="1" fill="none" fill-rule="evenodd">
        <g id="site/shift-management_09" transform="translate(-188.000000, -346.000000)">
            <g id="emp" transform="translate(188.000000, 346.000000)">
                <rect id="Rectangle" fill-opacity="0" fill="#D8D8D8" x="0" y="0" width="12" height="12"></rect>
                <path d="M8.04164129,6.32922833 L7.09396719,6.32922833 L7.09396719,5.96448223 C7.37341278,5.75772329 7.65306975,5.49927696 7.86600703,5.21922888 C7.8693035,5.21692363 7.87177963,5.21384371 7.87425074,5.21076847 C7.88497059,5.19615291 7.8965158,5.18153734 7.90558489,5.16692176 C7.97649688,5.07076792 8.03586869,4.97615403 8.0828699,4.88307542 C8.09523546,4.85922945 8.10678068,4.83461351 8.1183259,4.81076755 C8.1414113,4.76307562 8.16037988,4.71538368 8.17604695,4.66846173 C8.17687233,4.66615178 8.17769267,4.66384653 8.17851805,4.66153658 C8.18429066,4.6430758 8.19006326,4.62538499 8.1950105,4.60768949 C8.19995773,4.59307392 8.20407959,4.57845835 8.20738109,4.56384278 C8.21150295,4.54846192 8.21479942,4.53384635 8.21810093,4.51846079 C8.22139741,4.5 8.22551926,4.48230451 8.22799539,4.46384372 C8.23129187,4.44615291 8.233768,4.42769212 8.23541372,4.40999662 C8.24036096,4.37461502 8.24201171,4.33922871 8.24201171,4.3038471 L8.24201171,2.8884606 C8.24201171,2.68384728 8.20655571,2.48461445 8.14059095,2.29769193 C8.05071038,2.04076678 7.90311379,1.80692232 7.70851095,1.60999944 C7.69119816,1.59230863 7.67305495,1.57461313 7.65491678,1.55769231 C7.56339048,1.47153884 7.46196469,1.3930758 7.35312058,1.32461313 C7.30942087,1.29692195 7.26407041,1.27076604 7.21789458,1.24615478 C7.10245248,1.18461257 6.97876666,1.1338454 6.84848286,1.0938439 C6.77839625,1.07230788 6.70665888,1.05461238 6.63409613,1.04076679 C6.62832353,1.03923152 6.62255092,1.03846154 6.61677831,1.03769155 C6.56565525,1.02769118 6.51288142,1.01923077 6.46011263,1.01384559 C6.46011263,1.01384559 6.46011263,1.01384559 6.45928725,1.01384559 C6.38012653,1.0046152 6.30014544,1 6.21933396,1 L5.77984065,1 C5.22242912,1 4.71614066,1.21230845 4.35085583,1.55461238 C3.98474562,1.89615102 3.7579883,2.36768986 3.7579883,2.88769062 L3.7579883,4.24692007 C3.7579883,4.26538555 3.75881368,4.28307635 3.75963905,4.30153715 C3.76046443,4.31384277 3.76128477,4.32692308 3.76293553,4.3392287 C3.76788276,4.40000094 3.7786026,4.46153846 3.79592042,4.52461595 C3.80086766,4.544612 3.80664026,4.56461275 3.81240784,4.58461351 C3.81405859,4.58999868 3.81570935,4.59615385 3.81900583,4.60307429 C3.82560381,4.62384502 3.8322018,4.64461576 3.84044551,4.6653818 C3.84868922,4.6876925 3.85776334,4.7099985 3.86683242,4.73307448 C3.86683242,4.73384447 3.8676578,4.73461445 3.86848317,4.73615442 C3.87837763,4.76000038 3.88909747,4.78307637 3.89981731,4.80692233 C3.92619919,4.86384465 3.95670795,4.92153696 3.99134361,4.97999925 C4.0004127,4.99538481 4.01030716,5.01153565 4.01937624,5.02692121 C4.03257221,5.04769194 4.04493778,5.06769269 4.05813374,5.08845873 C4.28247533,5.43363602 4.60209263,5.75860127 4.9060328,6.00084511 L4.9060328,6.32922833 L3.95835871,6.32922833 C2.87817128,6.32922833 2,7.14923096 2,8.15615141 L2,10.9230769 C2,10.9653837 2.03710675,11 2.08245721,11 L3.39506888,11 L3.39506888,9.25086388 C3.39506888,9.20838342 3.43198941,9.17394081 3.47752608,9.17394081 C3.52306276,9.17394081 3.55998329,9.20838342 3.55998329,9.25086388 L3.55998329,11 L8.44001671,11 L8.44001671,9.25086388 C8.44001671,9.20838342 8.47693724,9.17394081 8.52247392,9.17394081 C8.56801059,9.17394081 8.60493112,9.20838342 8.60493112,9.25086388 L8.60493112,11 L9.91754279,11 C9.96289325,11 10,10.9653837 10,10.9230769 L10,8.15615141 C10,7.14923095 9.12182872,6.32922833 8.04164129,6.32922833 Z M4.25108079,5.08461351 L4.25108079,3.85845947 C4.25108079,3.32922832 4.59162947,2.84768912 5.09874331,2.65999662 C5.30818281,2.58307354 5.52916752,2.54230675 5.75592485,2.5399968 L6.21933396,2.5399968 C6.41640789,2.5399968 6.61018536,2.56846266 6.79653442,2.62615497 L6.80973039,2.63000018 C7.35642209,2.79999718 7.72417801,3.29153677 7.72417801,3.85153902 L7.72417801,5.14615103 C7.48639385,5.45409218 7.15938841,5.73669434 6.84853822,5.94554255 C6.8349497,5.95468844 6.82143666,5.96314885 6.80786323,5.9720459 C6.77299607,5.99484958 6.73836545,6.01689735 6.70417772,6.03768686 C6.6917115,6.04528808 6.67926038,6.05287053 6.66688978,6.06020883 C6.62156952,6.08700796 6.5767626,6.11257699 6.53349572,6.13538536 C6.45443565,6.17715219 6.37199857,6.20930832 6.28787048,6.23283972 C5.95528367,6.32577279 5.59510209,6.27755502 5.30080474,6.09055738 C5.24179027,6.05306302 5.18011848,6.00936654 5.11758104,5.96303616 C4.82206576,5.74335656 4.49035969,5.42578125 4.25108079,5.08461351 Z M5.20758743,6.21768893 C5.21922827,6.2250601 5.23131703,6.23144532 5.24312898,6.23844088 C5.2589873,6.24786378 5.27471476,6.25757775 5.29087002,6.26631517 C5.30007499,6.27128249 5.30954166,6.27556904 5.31883219,6.28031569 C5.33843994,6.29035363 5.35805774,6.30034931 5.37804798,6.30940129 C5.38738884,6.31362211 5.39692597,6.31726544 5.40634231,6.32127028 C5.42652379,6.32986685 5.44672541,6.33834605 5.46723402,6.34594727 C5.47713352,6.34961408 5.4871689,6.35277382 5.49713885,6.35621057 C5.51736563,6.36319205 5.5376226,6.36999043 5.55811108,6.37601413 C5.56861452,6.37909875 5.57920854,6.38176082 5.58977236,6.38459662 C5.60993875,6.39000996 5.63013029,6.39519325 5.65049296,6.39969108 C5.66149464,6.4021184 5.6725416,6.40420298 5.68358858,6.40636738 C5.7037449,6.41031119 5.72392638,6.41394983 5.74422865,6.41700158 C5.75549706,6.41869179 5.76677051,6.42013785 5.77807919,6.42156044 C5.79832106,6.42410044 5.81857804,6.42625545 5.83891554,6.42791279 C5.8504054,6.42885179 5.86188015,6.42963586 5.87339014,6.43029316 C5.89361692,6.43144344 5.91384872,6.43211482 5.93411577,6.43239653 C5.94069362,6.43249043 5.94724128,6.43307731 5.95382417,6.43307731 C5.95958672,6.43307731 5.96535428,6.43262658 5.97111683,6.43255616 C5.9868292,6.43235897 6.0025164,6.43185191 6.01822374,6.43113357 C6.0317418,6.43051383 6.04524478,6.42969689 6.05875781,6.42868747 C6.07476208,6.42749494 6.09074118,6.42607705 6.10671525,6.42433988 C6.11958912,6.42293608 6.13241267,6.42125995 6.14526138,6.41949463 C6.16187462,6.41722694 6.17844759,6.41480432 6.19500043,6.41194035 C6.20689291,6.40987925 6.21873506,6.4074754 6.23059231,6.40510442 C6.24789504,6.40164888 6.26517763,6.39812763 6.28237971,6.39401949 C6.29327066,6.39141845 6.30407102,6.38840895 6.31491669,6.38554499 C6.33278812,6.38082651 6.35062936,6.37611741 6.36835484,6.37068528 C6.37844558,6.36759126 6.38842057,6.36401836 6.39846098,6.36069898 C6.41659412,6.35469876 6.43473732,6.34878305 6.45268425,6.34202692 C6.4626844,6.33826622 6.47251847,6.33391864 6.48245822,6.32992788 C6.50005285,6.3228431 6.51769781,6.31596961 6.53507099,6.30814772 C6.55532797,6.29905348 6.57527795,6.28902493 6.59520275,6.27894005 C6.60172021,6.27563006 6.60840375,6.27279897 6.61488599,6.269381 C6.71562228,6.21623346 6.8223174,6.15226862 6.92905278,6.0811298 L6.92905278,6.5580679 C6.92905278,6.82260835 6.82470798,7.06246243 6.65628571,7.23612623 C6.48799932,7.40955529 6.25584684,7.51692082 6,7.51692082 C5.74415316,7.51692082 5.51200068,7.40955528 5.3437143,7.23612624 C5.17529203,7.06246244 5.07094723,6.82260836 5.07094723,6.55806791 L5.07094723,6.12530048 C5.11751562,6.15847074 5.16326366,6.18948599 5.20758743,6.21768893 Z" id="Shape" fill="#5697D9"></path>
            </g>
        </g>
    </g>
</svg>