<?xml version="1.0" encoding="UTF-8"?>
<svg width="40px" height="40px" viewBox="0 0 40 40" version="1.1" xmlns="http://www.w3.org/2000/svg" xmlns:xlink="http://www.w3.org/1999/xlink">
    <!-- Generator: sketchtool 56.1 (101010) - https://sketch.com -->
    <title>07970938-01AF-415F-9C50-A09E7C3776A5</title>
    <desc>Created with sketchtool.</desc>
    <defs>
        <rect id="path-1" x="0" y="0" width="40" height="40" rx="19.5"></rect>
        <path d="M2.65554791,10.4032398 C1.06116419,9.41030447 -3.37507799e-14,7.64157632 -3.37507799e-14,5.625 C-3.37507799e-14,2.51839828 2.51839828,-1.50990331e-14 5.625,-1.50990331e-14 C8.73160172,-1.50990331e-14 11.25,2.51839828 11.25,5.625 C11.25,7.61456747 10.2170707,9.36288137 8.65822663,10.3629271 C8.39023538,9.66137646 8.06832463,9.02913349 7.41177658,8.63477823 C7.61130185,8.26795666 7.76231017,7.83801113 7.86480154,7.34494166 C8.30682829,5.21842203 8.02453107,3.68748717 6.95798642,2.92095797 C6.24695665,2.40993851 5.4533524,2.34782516 4.57717367,2.73461792 C2.94295917,3.71573685 2.6700788,5.7349054 3.75853255,8.79212357 C3.29418852,9.15683962 2.92652698,9.69387836 2.65554791,10.4032398 Z" id="path-3"></path>
        <path d="M2.28212731,10.1493658 C0.897617563,9.12471063 -2.30926389e-14,7.47968022 -2.30926389e-14,5.625 C-2.30926389e-14,2.51839828 2.51839828,-3.46389584e-14 5.625,-3.46389584e-14 C8.73160172,-3.46389584e-14 11.25,2.51839828 11.25,5.625 C11.25,7.34555076 10.4775182,8.88567874 9.26045882,9.9174798 C9.20914768,9.32164669 8.98882629,8.8993603 8.59949466,8.65062065 C8.26887746,8.45343019 7.79269954,8.32290875 7.17096091,8.25905631 C7.17112148,8.24382699 7.17120177,8.22853828 7.17120177,8.21319018 L6.76648285,8.2148086 C6.76648285,8.21920947 6.76647609,8.2236035 6.76646257,8.22799069 C6.76588792,8.22796012 6.76531318,8.2279296 6.76473832,8.22789914 L6.78315377,7.59386033 C7.29824093,7.23491682 7.6883467,6.67868573 7.95347108,5.92516707 C8.26753966,5.71927204 8.42457396,5.49904753 8.42457396,5.26449354 C8.44647986,5.08056843 8.4157043,4.94983234 8.33224727,4.87228526 C8.40120728,4.52296437 8.36395746,4.14890873 8.22049782,3.75011834 C7.76499137,2.67644023 7.12608249,2.05100916 6.30377117,1.87382515 C5.2023156,1.80051897 4.37715531,2.11743947 3.82829031,2.82458666 C3.17937062,3.6606424 3.23629574,4.27963492 3.28952086,4.71882818 C2.9905381,4.72613024 2.89993856,4.9297377 3.01772224,5.32965055 C3.09010019,5.49705264 3.21819454,5.64936664 3.4020053,5.78659252 C3.48550967,6.08071222 3.65206886,6.42529418 3.90168286,6.8203384 C4.17922918,7.26434767 4.49277017,7.58707139 4.84230581,7.78850956 L4.86987851,8.26706023 L4.48619632,8.26706023 L4.4874506,8.30611611 C3.08084966,8.49135561 2.34574189,9.10577219 2.28212731,10.1493658 Z" id="path-5"></path>
    </defs>
    <g id="👽-GBV-Client" stroke="none" stroke-width="1" fill="none" fill-rule="evenodd">
        <g id="BGV-Client-zomato-add-family-&amp;-reference_1" transform="translate(-160.000000, -65.000000)">
            <g id="family-&amp;-references" transform="translate(160.000000, 65.000000)">
                <g id="section-title">
                    <g id="Group-10">
                        <g id="icon-/-40-/-info-/-container-with-icon">
                            <g id="icon-/-40-/-info-/-container">
                                <mask id="mask-2" fill="white">
                                    <use xlink:href="#path-1"></use>
                                </mask>
                                <use fill="#F0EDFA" xlink:href="#path-1"></use>
                            </g>
                        </g>
                        <g id="Group-9" transform="translate(6.000000, 7.000000)">
                            <rect id="Rectangle" fill="#0059B2" x="13.4642857" y="1.71428571" width="1" height="24"></rect>
                            <g id="Group-8" transform="translate(7.428571, 12.625000)" fill="#0059B2">
                                <polygon id="Rectangle" transform="translate(9.208533, 2.560416) rotate(60.000000) translate(-9.208533, -2.560416) " points="8.92010645 -0.937940723 9.53133111 -0.9395837 9.49695927 6.05877332 8.88573461 6.0604163"></polygon>
                                <polygon id="Rectangle-Copy" transform="translate(3.763186, 2.641094) rotate(121.000000) translate(-3.763186, -2.641094) " points="3.44001309 -0.358906069 4.05131621 -0.357470109 4.08635967 5.64109393 3.47505656 5.63965797"></polygon>
                            </g>
                            <g id="Group-8-Copy" transform="translate(4.428571, 0.714286)" fill="#0059B2">
                                <polygon id="Rectangle" transform="translate(13.283244, 3.939931) rotate(60.000000) translate(-13.283244, -3.939931) " points="12.994818 -0.798813191 13.6060427 -0.801038705 13.5716708 8.67867579 12.9604462 8.6809013"></polygon>
                                <polygon id="Rectangle-Copy" transform="translate(5.271384, 3.744729) rotate(121.000000) translate(-5.271384, -3.744729) " points="4.94821119 -0.995657007 5.5595143 -0.993388006 5.59455777 8.48511484 4.98325466 8.48284584"></polygon>
                            </g>
                            <g id="Group-7" transform="translate(0.000000, 5.732143)">
                                <mask id="mask-4" fill="white">
                                    <use xlink:href="#path-3"></use>
                                </mask>
                                <use id="Combined-Shape" fill="#0059B2" xlink:href="#path-3"></use>
                                <g mask="url(#mask-4)">
                                    <g transform="translate(2.553681, 2.484663)">
                                        <g id="Group-4" transform="translate(0.000000, 5.728528)"></g>
                                        <g id="Group-5" transform="translate(0.828221, 1.242331)"></g>
                                    </g>
                                </g>
                            </g>
                            <g id="Group-6" transform="translate(15.750000, 6.071429)">
                                <mask id="mask-6" fill="white">
                                    <use xlink:href="#path-5"></use>
                                </mask>
                                <use id="Combined-Shape" fill="#0059B2" xlink:href="#path-5"></use>
                                <g mask="url(#mask-6)" id="Group-5">
                                    <g transform="translate(2.277607, 1.863497)">
                                        <g transform="translate(0.690184, 0.000000)"></g>
                                    </g>
                                </g>
                            </g>
                            <path d="M16.4107143,5.38315723 C16.4998944,3.2139228 17.540215,1.92011065 19.5316761,1.50172078 C20.3699937,1.35563245 21.2939588,1.49903067 22.3035714,1.93191545 C22.1121968,3.65092185 21.4048916,4.8488398 20.1816557,5.5256693 C18.9584199,6.2024988 17.7014394,6.15499477 16.4107143,5.38315723 Z" id="Path-21" fill="#0059B2"></path>
                            <path d="M5.24699461,4.91265147 C5.33825741,2.7399728 6.40095633,1.44402586 8.43509137,1.02481064 C9.29137031,0.878422474 10.2351076,1.02197254 11.2663032,1.45546084 C11.0706936,3.17720648 10.3481481,4.37708013 9.09866676,5.05508178 C7.84918538,5.73308343 6.56529466,5.68560666 5.24699461,4.91265147 Z" id="Path-21-Copy" fill="#0059B2" transform="translate(8.256649, 3.249842) scale(1, -1) rotate(-3.000000) translate(-8.256649, -3.249842) "></path>
                        </g>
                    </g>
                </g>
            </g>
        </g>
    </g>
</svg>