<?xml version="1.0" encoding="UTF-8"?>
<svg width="40px" height="40px" viewBox="0 0 40 40" version="1.1" xmlns="http://www.w3.org/2000/svg" xmlns:xlink="http://www.w3.org/1999/xlink">
    <!-- Generator: sketchtool 55.2 (78181) - https://sketchapp.com -->
    <title>CC643328-5DDB-4D98-B07D-DD54296DDA3A</title>
    <desc>Created with sketchtool.</desc>
    <defs>
        <rect id="path-1" x="0" y="0" width="40" height="40" rx="19.5"></rect>
    </defs>
    <g id="👽-GBV-Client" stroke="none" stroke-width="1" fill="none" fill-rule="evenodd">
        <g id="BGV-Client-zomato-add-employment-history_2" transform="translate(-160.000000, -65.000000)">
            <g id="section-title" transform="translate(160.000000, 65.000000)">
                <g id="employment_history">
                    <g id="icon-/-40-/-info-/-container">
                        <mask id="mask-2" fill="white">
                            <use xlink:href="#path-1"></use>
                        </mask>
                        <use fill="#EBECFD" xlink:href="#path-1"></use>
                    </g>
                    <g id="portfolio-black-symbol" transform="translate(12.000000, 12.000000)" fill="#6A54CD" fill-rule="nonzero">
                        <path d="M14,2.1358885 L11,2.1358885 L11,1.06968641 C11,0.48061324 10.5524967,0.00348432056 10,0.00348432056 L6,0.00348432056 C5.44750327,0.00348432056 5,0.481142857 5,1.06968641 L5,2.1358885 L2,2.1358885 C0.895503268,2.1358885 0,3.09067596 0,4.26829268 L0,6.93379791 L16,6.93379791 L16,4.26829268 C16,3.09067596 15.1044967,2.1358885 14,2.1358885 Z M10,2.1358885 L6,2.1358885 L6,1.60278746 C6,1.30851568 6.224,1.06968641 6.5,1.06968641 L9.5,1.06968641 C9.776,1.06968641 10,1.30851568 10,1.60278746 L10,2.1358885 Z M10,8.53310105 C10,9.71071777 9.10449673,10.6655052 8,10.6655052 C6.89550327,10.6655052 6,9.71071777 6,8.53310105 C6,8.34759582 6.02700654,8.17006272 6.0705098,8 L0,8 L0,13.8641115 C0,15.0417282 0.895503268,15.9965157 2,15.9965157 L14,15.9965157 C15.1044967,15.9965157 16,15.0417282 16,13.8641115 L16,8 L9.92951634,8 C9.97299346,8.17059233 10,8.34759582 10,8.53310105 Z M9,8.53310105 C9,8.33797909 8.94700654,8.15726829 8.8614902,8 L7.13900654,8 C7.05299346,8.15726829 7,8.33797909 7,8.53310105 C7,9.12217422 7.44750327,9.59930314 8,9.59930314 C8.55249673,9.59930314 9,9.12217422 9,8.53310105 Z" id="Shape"></path>
                    </g>
                </g>
            </g>
        </g>
    </g>
</svg>