<?xml version="1.0" encoding="UTF-8"?>
<svg width="36px" height="36px" viewBox="0 0 36 36" version="1.1" xmlns="http://www.w3.org/2000/svg" xmlns:xlink="http://www.w3.org/1999/xlink">
    <title>EB76011B-6FE1-4C22-B834-D82017D5D83B</title>
    <g id="profile-view-mode" stroke="none" stroke-width="1" fill="none" fill-rule="evenodd">
        <g id="profile-view_mode_updated-1" transform="translate(-200.000000, -1224.000000)">
            <g id="Group-29" transform="translate(157.000000, 877.000000)">
                <g id="Group-27" transform="translate(43.000000, 178.000000)">
                    <g id="Group-22" transform="translate(0.000000, 165.000000)">
                        <g id="father-copy" transform="translate(0.000000, 4.000000)">
                            <circle id="Oval" fill="#F3F7FD" cx="18" cy="18" r="18"></circle>
                            <g id="Group" transform="translate(10.000000, 12.000000)" fill="#0059B2" fill-rule="nonzero">
                                <path d="M15.0857143,0 L0.685714286,0 C0.306857143,0 0,0.306857143 0,0.685714286 L0,11.6571429 C0,12.036 0.306857143,12.3428571 0.685714286,12.3428571 L15.0857143,12.3428571 C15.4645714,12.3428571 15.7714286,12.036 15.7714286,11.6571429 L15.7714286,0.685714286 C15.7714286,0.306857143 15.4645714,0 15.0857143,0 Z M5.48571429,4.11428571 C6.24308571,4.11428571 6.85714286,4.72834286 6.85714286,5.48571429 C6.85714286,6.24308571 6.24308571,6.85714286 5.48571429,6.85714286 C4.72834286,6.85714286 4.11428571,6.24308571 4.11428571,5.48571429 C4.11428571,4.72834286 4.72834286,4.11428571 5.48571429,4.11428571 Z M3.08571429,9.6 C3.08571429,8.46377143 4.00662857,7.54285714 5.14285714,7.54285714 L5.82857143,7.54285714 C6.9648,7.54285714 7.88571429,8.46377143 7.88571429,9.6 L3.08571429,9.6 Z M13.0285714,8.91428571 L9.94285714,8.91428571 C9.7536,8.91428571 9.6,8.76068571 9.6,8.57142857 C9.6,8.38217143 9.7536,8.22857143 9.94285714,8.22857143 L13.0285714,8.22857143 C13.2178286,8.22857143 13.3714286,8.38217143 13.3714286,8.57142857 C13.3714286,8.76068571 13.2178286,8.91428571 13.0285714,8.91428571 Z M13.0285714,6.17142857 L9.94285714,6.17142857 C9.7536,6.17142857 9.6,6.01782857 9.6,5.82857143 C9.6,5.63931429 9.7536,5.48571429 9.94285714,5.48571429 L13.0285714,5.48571429 C13.2178286,5.48571429 13.3714286,5.63931429 13.3714286,5.82857143 C13.3714286,6.01782857 13.2178286,6.17142857 13.0285714,6.17142857 Z" id="Shape"></path>
                            </g>
                        </g>
                    </g>
                </g>
            </g>
        </g>
    </g>
</svg>