<?xml version="1.0" encoding="UTF-8"?>
<svg width="40px" height="40px" viewBox="0 0 40 40" version="1.1" xmlns="http://www.w3.org/2000/svg" xmlns:xlink="http://www.w3.org/1999/xlink">
    <title>DD4BC50B-48F5-41C1-A5A8-14B479E94506</title>
    <defs>
        <path d="M20.5555556,11.1111111 C17.3777778,11.1111111 14.0555556,13.7391304 14.0555556,18.0676329 C14.0555556,22.1642512 19.8333333,28.4251208 20.05,28.6570048 C20.1944444,28.8115942 20.3388889,28.8888889 20.5555556,28.8888889 C20.7722222,28.8888889 20.9166667,28.8115942 21.0611111,28.6570048 C21.2777778,28.4251208 27.0555556,22.1642512 27.0555556,18.0676329 C27.0555556,13.7391304 23.7333333,11.1111111 20.5555556,11.1111111 Z M20.5555556,20.3864734 C19.3277778,20.3864734 18.3888889,19.3816425 18.3888889,18.0676329 C18.3888889,16.7536232 19.3277778,15.7487923 20.5555556,15.7487923 C21.7833333,15.7487923 22.7222222,16.7536232 22.7222222,18.0676329 C22.7222222,19.3816425 21.7833333,20.3864734 20.5555556,20.3864734 Z" id="path-1"></path>
    </defs>
    <g id="profille_view-mode" stroke="none" stroke-width="1" fill="none" fill-rule="evenodd">
        <g id="attendance-_profile_04" transform="translate(-200.000000, -1206.000000)">
            <g id="Group-29" transform="translate(160.000000, 446.000000)">
                <g transform="translate(40.000000, 420.000000)" id="Group-28">
                    <g transform="translate(0.000000, 340.000000)" id="father-copy">
                        <circle id="Oval" fill="#E5EEF7" cx="20" cy="20" r="20"></circle>
                        <mask id="mask-2" fill="white">
                            <use xlink:href="#path-1"></use>
                        </mask>
                        <use id="Shape" fill="#0059B2" fill-rule="nonzero" xlink:href="#path-1"></use>
                    </g>
                </g>
            </g>
        </g>
    </g>
</svg>