<?xml version="1.0" encoding="UTF-8"?>
<svg width="16px" height="16px" viewBox="0 0 16 16" version="1.1" xmlns="http://www.w3.org/2000/svg" xmlns:xlink="http://www.w3.org/1999/xlink">
    <title>F96EEA7E-40A3-437A-BEB6-F6B7D89B4EA3</title>
    <defs>
        <path d="M6,1.33333333 C7.1045695,1.33333333 8,2.22876383 8,3.33333333 L8,4.21233333 L14,4.21333333 C15.1045695,4.21333333 16,5.10876383 16,6.21333333 L16,12.9333333 C16,14.0379028 15.1045695,14.9333333 14,14.9333333 L2,14.9333333 C0.8954305,14.9333333 1.3527075e-16,14.0379028 0,12.9333333 L0,6.21333333 C-1.67691013e-17,6.07640323 0.0137607993,5.94268713 0.0399749443,5.8134925 C0.013831458,5.68466524 -1.07846717e-17,5.55061454 0,5.41333333 L0,3.33333333 C-3.57315355e-16,2.22876383 0.8954305,1.33333333 2,1.33333333 L6,1.33333333 Z" id="path-1"></path>
    </defs>
    <g id="ðŸ­-vendor-management" stroke="none" stroke-width="1" fill="none" fill-rule="evenodd">
        <g id="JLL-vendor-list-page---with-awaiting-approval-&amp;-all-vendors-list-with-pagination_01" transform="translate(-419.000000, -414.000000)">
            <g id="Group-16" transform="translate(160.000000, 188.000000)">
                <g id="Group-8" transform="translate(0.000000, 193.000000)">
                    <g id="Group-7" transform="translate(64.000000, 0.000000)">
                        <g id="icon-/-24-/-info-/-folder-copy" transform="translate(195.000000, 33.000000)">
                            <rect id="Rectangle" x="0" y="0" width="16" height="16"></rect>
                            <rect id="Rectangle-6" fill="#000000" opacity="0.600000024" style="mix-blend-mode: multiply;" x="0.96" y="2.93333333" width="13.28" height="7.04" rx="1"></rect>
                            <mask id="mask-2" fill="white">
                                <use xlink:href="#path-1"></use>
                            </mask>
                            <use id="Combined-Shape" fill="#6A54CD" xlink:href="#path-1"></use>
                            <rect id="Rectangle" fill="#BFD554" mask="url(#mask-2)" x="0" y="0" width="16" height="16"></rect>
                            <path d="M10,5.66666667 C10.7363797,5.66666667 11.3333333,6.26362033 11.3333333,7 C11.3333333,7.73637967 10.7363797,8.33333333 10,8.33333333 C9.26362033,8.33333333 8.66666667,7.73637967 8.66666667,7 C8.66666667,6.26362033 9.26362033,5.66666667 10,5.66666667 Z" id="Path" fill="#FFFFFF" mask="url(#mask-2)"></path>
                            <path d="M6,7.66666667 C6.73637967,7.66666667 7.33333333,8.26362033 7.33333333,9 C7.33333333,9.73637967 6.73637967,10.3333333 6,10.3333333 C5.26362033,10.3333333 4.66666667,9.73637967 4.66666667,9 C4.66666667,8.26362033 5.26362033,7.66666667 6,7.66666667 Z" id="Path" fill="#FFFFFF" mask="url(#mask-2)"></path>
                            <path d="M3.33333333,13.6666667 C3.33333333,12.1939073 4.52724067,11 6,11 C7.47275933,11 8.66666667,12.1939073 8.66666667,13.6666667 L3.33333333,13.6666667 Z" id="Path" fill="#FFFFFF" mask="url(#mask-2)"></path>
                            <path d="M9.45866667,11.6666667 C9.07600933,11.0067423 8.51342539,10.4693624 7.83666667,10.1173333 C8.50899439,9.17369475 9.71447887,8.77331559 10.8177608,9.12721859 C11.9210427,9.48112158 12.6686969,10.5080148 12.6666708,11.6666667 L9.45866667,11.6666667 Z" id="Path" fill="#FFFFFF" mask="url(#mask-2)"></path>
                        </g>
                    </g>
                </g>
            </g>
        </g>
    </g>
</svg>