<?xml version="1.0" encoding="UTF-8"?>
<svg width="19px" height="19px" viewBox="0 0 19 19" version="1.1" xmlns="http://www.w3.org/2000/svg" xmlns:xlink="http://www.w3.org/1999/xlink">
    <!-- Generator: Sketch 63.1 (92452) - https://sketch.com -->
    <title>onboard_24_black-18</title>
    <desc>Created with Sketch.</desc>
    <g id="Symbols" stroke="none" stroke-width="1" fill="none" fill-rule="evenodd">
        <g id="left-bar-/-client" transform="translate(-15.000000, -721.000000)">
            <g id="client_nev">
                <g id="Group-6-Copy" transform="translate(8.000000, 714.000000)">
                    <g id="onboard_24_black-18" transform="translate(4.000000, 4.000000)">
                        <rect id="Rectangle" x="0" y="0" width="24" height="24"></rect>
                        <g id="multiple-11" transform="translate(3.130435, 3.130435)" fill="#8697A8">
                            <path d="M11.7391304,6.26086957 C13.035913,6.26086957 14.0869565,7.31191304 14.0869565,8.60869565 L14.0869565,13.3043478 L11.7391304,13.3043478 L11.7391304,18 C11.7391304,18.432 11.3885217,18.7826087 10.9565217,18.7826087 L7.82608696,18.7826087 C7.39408696,18.7826087 7.04347826,18.432 7.04347826,18 L7.04347826,13.3043478 L4.69565217,13.3043478 L4.69565217,8.60869565 C4.69565217,7.31191304 5.74669565,6.26086957 7.04347826,6.26086957 L11.7391304,6.26086957 Z M3.9333913,6.26086957 C3.43643478,6.91669565 3.13043478,7.72434783 3.13043478,8.60869565 L3.13043478,8.60869565 L3.13043478,14.8695652 L4.69565217,14.8695652 L4.69565217,16.4347826 C4.69565217,16.8667826 4.34504348,17.2173913 3.91304348,17.2173913 L3.91304348,17.2173913 L2.34782609,17.2173913 C1.91582609,17.2173913 1.56521739,16.8667826 1.56521739,16.4347826 L1.56521739,16.4347826 L1.56521739,12.5217391 L0,12.5217391 L0,7.82608696 C0,6.96130435 0.700434783,6.26086957 1.56521739,6.26086957 L1.56521739,6.26086957 Z M17.2173913,6.26086957 C18.0821739,6.26086957 18.7826087,6.96130435 18.7826087,7.82608696 L18.7826087,12.5217391 L17.2173913,12.5217391 L17.2173913,16.4347826 C17.2173913,16.8667826 16.8667826,17.2173913 16.4347826,17.2173913 L14.8695652,17.2173913 C14.4375652,17.2173913 14.0869565,16.8667826 14.0869565,16.4347826 L14.0869565,14.8695652 L15.6521739,14.8695652 L15.6521739,8.60869565 C15.6521739,7.72434783 15.3461739,6.91669565 14.8492174,6.26086957 L17.2173913,6.26086957 Z M3.13043478,2.34782609 C3.94717391,2.34782609 4.61731884,2.97259662 4.68925859,3.7705267 L4.69565217,3.91304348 C4.69565217,4.72978261 4.07088164,5.39992754 3.27295156,5.47186728 L3.13043478,5.47826087 C2.31369565,5.47826087 1.64355072,4.85349034 1.57161098,4.05556025 L1.56521739,3.91304348 C1.56521739,3.09630435 2.18998792,2.42615942 2.98791801,2.35421967 L3.13043478,2.34782609 Z M15.6521739,2.34782609 L15.7946907,2.35421967 C16.5926208,2.42615942 17.2173913,3.09630435 17.2173913,3.91304348 L17.2173913,3.91304348 L17.2109977,4.05556025 C17.139058,4.85349034 16.468913,5.47826087 15.6521739,5.47826087 L15.6521739,5.47826087 L15.5096571,5.47186728 C14.7117271,5.39992754 14.0869565,4.72978261 14.0869565,3.91304348 L14.0869565,3.91304348 L14.0933501,3.7705267 C14.1652899,2.97259662 14.8354348,2.34782609 15.6521739,2.34782609 L15.6521739,2.34782609 Z M9.39130435,0 C10.6340543,0 11.6511168,0.96528125 11.7337145,2.18706641 L11.7391304,2.34782609 C11.7391304,3.59057609 10.7738492,4.60763859 9.55206403,4.69023624 L9.39130435,4.69565217 C8.14855435,4.69565217 7.13149185,3.73037092 7.04889419,2.50858577 L7.04347826,2.34782609 C7.04347826,1.10507609 8.00875951,0.088013587 9.23054467,0.00541593071 L9.39130435,0 Z" id="Combined-Shape"></path>
                        </g>
                    </g>
                </g>
            </g>
        </g>
    </g>
</svg>