<?xml version="1.0" encoding="UTF-8"?>
<svg width="88px" height="57px" viewBox="0 0 88 57" version="1.1" xmlns="http://www.w3.org/2000/svg" xmlns:xlink="http://www.w3.org/1999/xlink">
    <!-- Generator: sketchtool 60.1 (101010) - https://sketch.com -->
    <title>8A7C942C-B243-48E1-95CF-0D44843D7472</title>
    <desc>Created with sketchtool.</desc>
    <g id="🖥-Ops_analyst-" stroke="none" stroke-width="1" fill="none" fill-rule="evenodd">
        <g id="normal-login-3" transform="translate(-186.000000, -917.000000)">
            <g id="card-/-🖥-Ops_analyst-/-reference" transform="translate(160.000000, 893.000000)">
                <g id="PAN">
                    <g id="pan-cards" transform="translate(26.000000, 24.000000)">
                        <path d="M0.512012012,8.00065503 C0.512012012,3.58201527 4.10135911,0 8.51980537,0 L79.9096241,0 C84.3322062,0 87.9174174,3.58719818 87.9174174,8.00065503 L87.9174174,48.999345 C87.9174174,53.4179847 84.3280703,57 79.9096241,57 L8.51980537,57 C4.09722322,57 0.512012012,53.4128018 0.512012012,48.999345 L0.512012012,8.00065503 Z" id="Rectangle-Copy-13" fill="#6772E5"></path>
                        <g id="Group-23" opacity="0.5" transform="translate(54.620120, 23.400000)">
                            <rect id="Rectangle" fill="#D8D8D8" opacity="0" x="0" y="0" width="23.7837838" height="24"></rect>
                            <g id="Group-14" transform="translate(2.378378, 3.000000)" fill="#010E39" fill-rule="nonzero">
                                <path d="M18.667058,9.55715411 C18.4672467,7.94413232 17.1285113,6.75452875 15.5300212,6.75452875 L13.3320974,6.75452875 C11.7535885,6.75452875 10.3948719,7.96429509 10.2150418,9.55715411 L9.91532489,12.137989 C9.87536264,12.4807561 10.0751739,12.7831977 10.414853,12.8638488 C10.7145699,12.9243371 11.0142868,12.9848254 11.3339848,13.025151 L13.6717765,11.250827 C13.9515123,11.0491993 14.2712103,10.9282226 14.6308706,10.9282226 C15.3102288,10.9282226 15.9096626,11.3718036 16.1494361,12.0170123 L16.5290775,13.1662904 C17.2084358,13.0856393 17.8678129,13.0049882 18.507209,12.8638488 C18.826907,12.7831977 19.0466994,12.4807561 19.0067371,12.137989 L18.667058,9.55715411 Z" id="Path"></path>
                                <ellipse id="Oval" cx="14.4510404" cy="2.98409031" rx="2.95720662" ry="2.98409031"></ellipse>
                                <path d="M5.63936397,11.7347335 L3.44144013,11.7347335 C1.84295007,11.7347335 0.504214644,12.9444999 0.304403386,14.5373589 L0.00468649947,17.1181938 C-0.0352757521,17.4609609 0.184516632,17.7634025 0.504214644,17.8440536 C1.78300669,18.1263324 3.12174212,18.2674718 4.54040205,18.2674718 C5.93908086,18.2674718 7.29779741,18.1263324 8.57658946,17.8440536 C8.89628747,17.7634025 9.11607986,17.4609609 9.07611761,17.1181938 L8.77640072,14.5373589 C8.57658946,12.9243371 7.23785403,11.7347335 5.63936397,11.7347335 Z" id="Path"></path>
                                <ellipse id="Oval" cx="4.54040205" cy="7.96429509" rx="2.95720662" ry="2.98409031"></ellipse>
                                <path d="M14.9905308,12.4202678 C14.9106063,12.1581517 14.5909083,12.0573379 14.3711159,12.2186401 L11.6936451,14.2550801 C11.4338904,14.4567078 11.4938338,14.880126 11.8135318,14.9809399 L12.5728146,15.2228931 C12.153211,16.4326595 11.3739471,17.4004726 10.3748908,18.0658441 C10.255004,18.1464951 10.2949663,18.3682856 10.4348342,18.3884484 C12.2930789,18.7110528 14.1313424,17.6827514 14.7907196,15.8882646 L15.5699835,16.1302179 C15.8896815,16.2310318 16.1893984,15.9285902 16.0695116,15.6059858 L14.9905308,12.4202678 Z" id="Path"></path>
                            </g>
                        </g>
                        <path d="M9.65925526,18 L9.65925526,15.4188 C9.65925526,14.2848 10.568985,13.9608 11.2860661,14.0472 L11.2860661,12.492 C10.6117958,12.492 9.93752553,12.7944 9.65925526,13.5288 L9.65925526,12.6 L8.27860661,12.6 L8.27860661,18 L9.65925526,18 Z M14.5396877,18.1512 C15.5671471,18.1512 16.3698498,17.73 16.8728769,16.9956 L15.7597958,16.3476 C15.5243363,16.6608 15.0962282,16.8876 14.5610931,16.8876 C13.8333093,16.8876 13.2446607,16.5852 13.052012,15.8724 L17.0869309,15.8724 C17.119039,15.6888 17.1404444,15.5052 17.1404444,15.3 C17.1404444,13.7124 16.0166607,12.4488 14.4326607,12.4488 C12.7523363,12.4488 11.6071471,13.6908 11.6071471,15.3 C11.6071471,16.9092 12.7416336,18.1512 14.5396877,18.1512 Z M15.7597958,14.7924 L13.0306066,14.7924 C13.1911471,14.1012 13.6941742,13.7016 14.4326607,13.7016 C15.0106066,13.7016 15.5885526,14.0148 15.7597958,14.7924 Z M19.6876877,18 L19.6876877,13.9392 L20.8221742,13.9392 L20.8221742,12.6 L19.6876877,12.6 L19.6876877,12.546 C19.6876877,11.8116 20.1050931,11.574 20.8221742,11.628 L20.8221742,10.2888 C19.1204444,10.1808 18.307039,11.0556 18.307039,12.546 L18.307039,12.6 L17.5364444,12.6 L17.5364444,13.9392 L18.307039,13.9392 L18.307039,18 L19.6876877,18 Z M23.9045526,18.1512 C24.932012,18.1512 25.7347147,17.73 26.2377417,16.9956 L25.1246607,16.3476 C24.8892012,16.6608 24.4610931,16.8876 23.925958,16.8876 C23.1981742,16.8876 22.6095255,16.5852 22.4168769,15.8724 L26.4517958,15.8724 C26.4839039,15.6888 26.5053093,15.5052 26.5053093,15.3 C26.5053093,13.7124 25.3815255,12.4488 23.7975255,12.4488 C22.1172012,12.4488 20.972012,13.6908 20.972012,15.3 C20.972012,16.9092 22.1064985,18.1512 23.9045526,18.1512 Z M25.1246607,14.7924 L22.3954715,14.7924 C22.556012,14.1012 23.059039,13.7016 23.7975255,13.7016 C24.3754715,13.7016 24.9534174,14.0148 25.1246607,14.7924 Z M28.8492012,18 L28.8492012,15.4188 C28.8492012,14.2848 29.7589309,13.9608 30.476012,14.0472 L30.476012,12.492 C29.8017417,12.492 29.1274715,12.7944 28.8492012,13.5288 L28.8492012,12.6 L27.4685526,12.6 L27.4685526,18 L28.8492012,18 Z M33.7296336,18.1512 C34.7570931,18.1512 35.5597958,17.73 36.0628228,16.9956 L34.9497417,16.3476 C34.7142823,16.6608 34.2861742,16.8876 33.751039,16.8876 C33.0232553,16.8876 32.4346066,16.5852 32.241958,15.8724 L36.2768769,15.8724 C36.308985,15.6888 36.3303904,15.5052 36.3303904,15.3 C36.3303904,13.7124 35.2066066,12.4488 33.6226066,12.4488 C31.9422823,12.4488 30.7970931,13.6908 30.7970931,15.3 C30.7970931,16.9092 31.9315796,18.1512 33.7296336,18.1512 Z M34.9497417,14.7924 L32.2205526,14.7924 C32.3810931,14.1012 32.8841201,13.7016 33.6226066,13.7016 C34.2005526,13.7016 34.7784985,14.0148 34.9497417,14.7924 Z M38.6742823,18 L38.6742823,15.084 C38.6742823,14.1444 39.1773093,13.7448 39.8515796,13.7448 C40.4723363,13.7448 40.9111471,14.1228 40.9111471,14.8572 L40.9111471,18 L42.2917958,18 L42.2917958,14.6844 C42.2917958,13.248 41.4034715,12.4488 40.268985,12.4488 C39.5519039,12.4488 38.9953634,12.7188 38.6742823,13.2048 L38.6742823,12.6 L37.2936336,12.6 L37.2936336,18 L38.6742823,18 Z M46.0163363,18.1512 C47.0652012,18.1512 47.9749309,17.5896 48.4351471,16.7472 L47.2364444,16.056 C47.0223904,16.4988 46.5621742,16.7688 46.0056336,16.7688 C45.1815255,16.7688 44.5714715,16.1532 44.5714715,15.3 C44.5714715,14.436 45.1815255,13.8204 46.0056336,13.8204 C46.5514715,13.8204 47.0116877,14.1012 47.2257417,14.544 L48.4137417,13.842 C47.9749309,13.0104 47.0652012,12.4488 46.0163363,12.4488 C44.3895255,12.4488 43.1908228,13.6908 43.1908228,15.3 C43.1908228,16.9092 44.3895255,18.1512 46.0163363,18.1512 Z M51.7315796,18.1512 C52.759039,18.1512 53.5617417,17.73 54.0647688,16.9956 L52.9516877,16.3476 C52.7162282,16.6608 52.2881201,16.8876 51.752985,16.8876 C51.0252012,16.8876 50.4365526,16.5852 50.2439039,15.8724 L54.2788228,15.8724 C54.3109309,15.6888 54.3323363,15.5052 54.3323363,15.3 C54.3323363,13.7124 53.2085526,12.4488 51.6245526,12.4488 C49.9442282,12.4488 48.799039,13.6908 48.799039,15.3 C48.799039,16.9092 49.9335255,18.1512 51.7315796,18.1512 Z M52.9516877,14.7924 L50.2224985,14.7924 C50.383039,14.1012 50.8860661,13.7016 51.6245526,13.7016 C52.2024985,13.7016 52.7804444,14.0148 52.9516877,14.7924 Z M10.8258498,32.5512 C11.8747147,32.5512 12.7844444,31.9896 13.2446607,31.1472 L12.045958,30.456 C11.8319039,30.8988 11.3716877,31.1688 10.8151471,31.1688 C9.99103904,31.1688 9.38098498,30.5532 9.38098498,29.7 C9.38098498,28.836 9.99103904,28.2204 10.8151471,28.2204 C11.360985,28.2204 11.8212012,28.5012 12.0352553,28.944 L13.2232553,28.242 C12.7844444,27.4104 11.8747147,26.8488 10.8258498,26.8488 C9.19903904,26.8488 8.00033634,28.0908 8.00033634,29.7 C8.00033634,31.3092 9.19903904,32.5512 10.8258498,32.5512 Z M15.3530931,32.4 L15.3530931,29.484 C15.3530931,28.5444 15.8561201,28.1448 16.5303904,28.1448 C17.1511471,28.1448 17.589958,28.5228 17.589958,29.2572 L17.589958,32.4 L18.9706066,32.4 L18.9706066,29.0844 C18.9706066,27.648 18.0822823,26.8488 16.9477958,26.8488 C16.2307147,26.8488 15.6741742,27.1188 15.3530931,27.6048 L15.3530931,24.84 L13.9724444,24.84 L13.9724444,32.4 L15.3530931,32.4 Z M22.8021742,32.5512 C23.8296336,32.5512 24.6323363,32.13 25.1353634,31.3956 L24.0222823,30.7476 C23.7868228,31.0608 23.3587147,31.2876 22.8235796,31.2876 C22.0957958,31.2876 21.5071471,30.9852 21.3144985,30.2724 L25.3494174,30.2724 C25.3815255,30.0888 25.4029309,29.9052 25.4029309,29.7 C25.4029309,28.1124 24.2791471,26.8488 22.6951471,26.8488 C21.0148228,26.8488 19.8696336,28.0908 19.8696336,29.7 C19.8696336,31.3092 21.0041201,32.5512 22.8021742,32.5512 Z M24.0222823,29.1924 L21.2930931,29.1924 C21.4536336,28.5012 21.9566607,28.1016 22.6951471,28.1016 C23.2730931,28.1016 23.851039,28.4148 24.0222823,29.1924 Z M28.8706066,32.5512 C29.9194715,32.5512 30.8292012,31.9896 31.2894174,31.1472 L30.0907147,30.456 C29.8766607,30.8988 29.4164444,31.1688 28.8599039,31.1688 C28.0357958,31.1688 27.4257417,30.5532 27.4257417,29.7 C27.4257417,28.836 28.0357958,28.2204 28.8599039,28.2204 C29.4057417,28.2204 29.865958,28.5012 30.080012,28.944 L31.268012,28.242 C30.8292012,27.4104 29.9194715,26.8488 28.8706066,26.8488 C27.2437958,26.8488 26.0450931,28.0908 26.0450931,29.7 C26.0450931,31.3092 27.2437958,32.5512 28.8706066,32.5512 Z M33.3978498,32.4 L33.3978498,29.9484 L35.3457417,32.4 L36.9511471,32.4 L34.7356877,29.6676 L36.8869309,27 L35.2387147,27 L33.3978498,29.376 L33.3978498,24.84 L32.0172012,24.84 L32.0172012,32.4 L33.3978498,32.4 Z" id="referencecheck" fill="#FFFFFF" fill-rule="nonzero"></path>
                    </g>
                </g>
            </g>
        </g>
    </g>
</svg>