<?xml version="1.0" encoding="UTF-8"?>
<svg width="147px" height="95px" viewBox="0 0 147 95" version="1.1" xmlns="http://www.w3.org/2000/svg" xmlns:xlink="http://www.w3.org/1999/xlink">
    <!-- Generator: Sketch 60.1 (88133) - https://sketch.com -->
    <title>pan cards</title>
    <desc>Created with Sketch.</desc>
    <g id="Symbols" stroke="none" stroke-width="1" fill="none" fill-rule="evenodd">
        <g id="card-/-🖥-Ops_analyst-/--reference-verify" transform="translate(-714.000000, -21.000000)">
            <g id="intro-card">
                <g id="pan-cards" transform="translate(713.138889, 21.000000)">
                    <path d="M0.861111111,7.99735801 C0.861111111,3.58053914 4.44014703,0 8.86886275,0 L139.853359,0 C144.275919,0 147.861111,3.5793661 147.861111,7.99735801 L147.861111,87.002642 C147.861111,91.4194609 144.282075,95 139.853359,95 L8.86886275,95 C4.44630364,95 0.861111111,91.4206339 0.861111111,87.002642 L0.861111111,7.99735801 Z" id="Rectangle-Copy-13" fill="#6772E5"></path>
                    <g id="Group-23" opacity="0.5" transform="translate(91.861111, 39.000000)">
                        <rect id="Rectangle" fill="#D8D8D8" opacity="0" x="0" y="0" width="40" height="40"></rect>
                        <g id="Group-14" transform="translate(4.000000, 5.000000)" fill="#010E39" fill-rule="nonzero">
                            <path d="M31.3945975,15.9285902 C31.0585513,13.2402205 28.8070417,11.2575479 26.1186721,11.2575479 L22.4221638,11.2575479 C19.7673988,11.2575479 17.4822846,13.2738252 17.179843,15.9285902 L16.6757737,20.2299816 C16.6085644,20.8012602 16.9446106,21.3053295 17.5158892,21.439748 C18.0199585,21.5405618 18.5240278,21.6413757 19.0617017,21.7085849 L22.9934424,18.7513783 C23.463907,18.4153321 24.001581,18.2137044 24.6064641,18.2137044 C25.7490212,18.2137044 26.7571599,18.953006 27.1604153,20.0283539 L27.7989031,21.9438173 C28.9414602,21.8093988 30.0504127,21.6749803 31.1257605,21.439748 C31.6634345,21.3053295 32.0330853,20.8012602 31.9658761,20.2299816 L31.3945975,15.9285902 Z" id="Path"></path>
                            <circle id="Oval" cx="24.3040226" cy="4.97348385" r="4.97348385"></circle>
                            <path d="M9.48438486,19.5578892 L5.78787659,19.5578892 C3.09950694,19.5578892 0.847997356,21.5741664 0.51195115,24.2289315 L0.00788184002,28.5303229 C-0.0593274013,29.1016015 0.310323426,29.6056708 0.847997356,29.7400893 C2.99869308,30.210554 5.25020266,30.4457863 7.63613072,30.4457863 C9.98845417,30.4457863 12.2735684,30.210554 14.4242641,29.7400893 C14.961938,29.6056708 15.3315888,29.1016015 15.2643796,28.5303229 L14.7603103,24.2289315 C14.4242641,21.5405618 12.1727545,19.5578892 9.48438486,19.5578892 Z" id="Path"></path>
                            <circle id="Oval" cx="7.63613072" cy="13.2738252" r="4.97348385"></circle>
                            <path d="M25.2113473,20.7004463 C25.0769288,20.2635862 24.5392549,20.0955631 24.1696041,20.3644001 L19.6665849,23.7584668 C19.2297248,24.094513 19.3305387,24.80021 19.8682126,24.9682331 L21.1451882,25.3714886 C20.4394912,27.3877658 19.128911,29.0007876 17.4486799,30.1097401 C17.2470522,30.2441586 17.3142615,30.6138094 17.5494938,30.647414 C20.6747235,31.1850879 23.7663486,29.4712523 24.8753011,26.4804411 L26.1858813,26.8836965 C26.7235552,27.0517196 27.2276246,26.5476503 27.0259968,26.0099764 L25.2113473,20.7004463 Z" id="Path"></path>
                        </g>
                    </g>
                    <path d="M16.2451111,30 L16.2451111,25.698 C16.2451111,23.808 17.7751111,23.268 18.9811111,23.412 L18.9811111,20.82 C17.8471111,20.82 16.7131111,21.324 16.2451111,22.548 L16.2451111,21 L13.9231111,21 L13.9231111,30 L16.2451111,30 Z M24.4531111,30.252 C26.1811111,30.252 27.5311111,29.55 28.3771111,28.326 L26.5051111,27.246 C26.1091111,27.768 25.3891111,28.146 24.4891111,28.146 C23.2651111,28.146 22.2751111,27.642 21.9511111,26.454 L28.7371111,26.454 C28.7911111,26.148 28.8271111,25.842 28.8271111,25.5 C28.8271111,22.854 26.9371111,20.748 24.2731111,20.748 C21.4471111,20.748 19.5211111,22.818 19.5211111,25.5 C19.5211111,28.182 21.4291111,30.252 24.4531111,30.252 Z M26.5051111,24.654 L21.9151111,24.654 C22.1851111,23.502 23.0311111,22.836 24.2731111,22.836 C25.2451111,22.836 26.2171111,23.358 26.5051111,24.654 Z M33.1111111,30 L33.1111111,23.232 L35.0191111,23.232 L35.0191111,21 L33.1111111,21 L33.1111111,20.91 C33.1111111,19.686 33.8131111,19.29 35.0191111,19.38 L35.0191111,17.148 C32.1571111,16.968 30.7891111,18.426 30.7891111,20.91 L30.7891111,21 L29.4931111,21 L29.4931111,23.232 L30.7891111,23.232 L30.7891111,30 L33.1111111,30 Z M40.2031111,30.252 C41.9311111,30.252 43.2811111,29.55 44.1271111,28.326 L42.2551111,27.246 C41.8591111,27.768 41.1391111,28.146 40.2391111,28.146 C39.0151111,28.146 38.0251111,27.642 37.7011111,26.454 L44.4871111,26.454 C44.5411111,26.148 44.5771111,25.842 44.5771111,25.5 C44.5771111,22.854 42.6871111,20.748 40.0231111,20.748 C37.1971111,20.748 35.2711111,22.818 35.2711111,25.5 C35.2711111,28.182 37.1791111,30.252 40.2031111,30.252 Z M42.2551111,24.654 L37.6651111,24.654 C37.9351111,23.502 38.7811111,22.836 40.0231111,22.836 C40.9951111,22.836 41.9671111,23.358 42.2551111,24.654 Z M48.5191111,30 L48.5191111,25.698 C48.5191111,23.808 50.0491111,23.268 51.2551111,23.412 L51.2551111,20.82 C50.1211111,20.82 48.9871111,21.324 48.5191111,22.548 L48.5191111,21 L46.1971111,21 L46.1971111,30 L48.5191111,30 Z M56.7271111,30.252 C58.4551111,30.252 59.8051111,29.55 60.6511111,28.326 L58.7791111,27.246 C58.3831111,27.768 57.6631111,28.146 56.7631111,28.146 C55.5391111,28.146 54.5491111,27.642 54.2251111,26.454 L61.0111111,26.454 C61.0651111,26.148 61.1011111,25.842 61.1011111,25.5 C61.1011111,22.854 59.2111111,20.748 56.5471111,20.748 C53.7211111,20.748 51.7951111,22.818 51.7951111,25.5 C51.7951111,28.182 53.7031111,30.252 56.7271111,30.252 Z M58.7791111,24.654 L54.1891111,24.654 C54.4591111,23.502 55.3051111,22.836 56.5471111,22.836 C57.5191111,22.836 58.4911111,23.358 58.7791111,24.654 Z M65.0431111,30 L65.0431111,25.14 C65.0431111,23.574 65.8891111,22.908 67.0231111,22.908 C68.0671111,22.908 68.8051111,23.538 68.8051111,24.762 L68.8051111,30 L71.1271111,30 L71.1271111,24.474 C71.1271111,22.08 69.6331111,20.748 67.7251111,20.748 C66.5191111,20.748 65.5831111,21.198 65.0431111,22.008 L65.0431111,21 L62.7211111,21 L62.7211111,30 L65.0431111,30 Z M77.3911111,30.252 C79.1551111,30.252 80.6851111,29.316 81.4591111,27.912 L79.4431111,26.76 C79.0831111,27.498 78.3091111,27.948 77.3731111,27.948 C75.9871111,27.948 74.9611111,26.922 74.9611111,25.5 C74.9611111,24.06 75.9871111,23.034 77.3731111,23.034 C78.2911111,23.034 79.0651111,23.502 79.4251111,24.24 L81.4231111,23.07 C80.6851111,21.684 79.1551111,20.748 77.3911111,20.748 C74.6551111,20.748 72.6391111,22.818 72.6391111,25.5 C72.6391111,28.182 74.6551111,30.252 77.3911111,30.252 Z M87.0031111,30.252 C88.7311111,30.252 90.0811111,29.55 90.9271111,28.326 L89.0551111,27.246 C88.6591111,27.768 87.9391111,28.146 87.0391111,28.146 C85.8151111,28.146 84.8251111,27.642 84.5011111,26.454 L91.2871111,26.454 C91.3411111,26.148 91.3771111,25.842 91.3771111,25.5 C91.3771111,22.854 89.4871111,20.748 86.8231111,20.748 C83.9971111,20.748 82.0711111,22.818 82.0711111,25.5 C82.0711111,28.182 83.9791111,30.252 87.0031111,30.252 Z M89.0551111,24.654 L84.4651111,24.654 C84.7351111,23.502 85.5811111,22.836 86.8231111,22.836 C87.7951111,22.836 88.7671111,23.358 89.0551111,24.654 Z M18.2071111,54.252 C19.9711111,54.252 21.5011111,53.316 22.2751111,51.912 L20.2591111,50.76 C19.8991111,51.498 19.1251111,51.948 18.1891111,51.948 C16.8031111,51.948 15.7771111,50.922 15.7771111,49.5 C15.7771111,48.06 16.8031111,47.034 18.1891111,47.034 C19.1071111,47.034 19.8811111,47.502 20.2411111,48.24 L22.2391111,47.07 C21.5011111,45.684 19.9711111,44.748 18.2071111,44.748 C15.4711111,44.748 13.4551111,46.818 13.4551111,49.5 C13.4551111,52.182 15.4711111,54.252 18.2071111,54.252 Z M25.8211111,54 L25.8211111,49.14 C25.8211111,47.574 26.6671111,46.908 27.8011111,46.908 C28.8451111,46.908 29.5831111,47.538 29.5831111,48.762 L29.5831111,54 L31.9051111,54 L31.9051111,48.474 C31.9051111,46.08 30.4111111,44.748 28.5031111,44.748 C27.2971111,44.748 26.3611111,45.198 25.8211111,46.008 L25.8211111,41.4 L23.4991111,41.4 L23.4991111,54 L25.8211111,54 Z M38.3491111,54.252 C40.0771111,54.252 41.4271111,53.55 42.2731111,52.326 L40.4011111,51.246 C40.0051111,51.768 39.2851111,52.146 38.3851111,52.146 C37.1611111,52.146 36.1711111,51.642 35.8471111,50.454 L42.6331111,50.454 C42.6871111,50.148 42.7231111,49.842 42.7231111,49.5 C42.7231111,46.854 40.8331111,44.748 38.1691111,44.748 C35.3431111,44.748 33.4171111,46.818 33.4171111,49.5 C33.4171111,52.182 35.3251111,54.252 38.3491111,54.252 Z M40.4011111,48.654 L35.8111111,48.654 C36.0811111,47.502 36.9271111,46.836 38.1691111,46.836 C39.1411111,46.836 40.1131111,47.358 40.4011111,48.654 Z M48.5551111,54.252 C50.3191111,54.252 51.8491111,53.316 52.6231111,51.912 L50.6071111,50.76 C50.2471111,51.498 49.4731111,51.948 48.5371111,51.948 C47.1511111,51.948 46.1251111,50.922 46.1251111,49.5 C46.1251111,48.06 47.1511111,47.034 48.5371111,47.034 C49.4551111,47.034 50.2291111,47.502 50.5891111,48.24 L52.5871111,47.07 C51.8491111,45.684 50.3191111,44.748 48.5551111,44.748 C45.8191111,44.748 43.8031111,46.818 43.8031111,49.5 C43.8031111,52.182 45.8191111,54.252 48.5551111,54.252 Z M56.1691111,54 L56.1691111,49.914 L59.4451111,54 L62.1451111,54 L58.4191111,49.446 L62.0371111,45 L59.2651111,45 L56.1691111,48.96 L56.1691111,41.4 L53.8471111,41.4 L53.8471111,54 L56.1691111,54 Z" id="referencecheck" fill="#FFFFFF" fill-rule="nonzero"></path>
                </g>
            </g>
        </g>
    </g>
</svg>