<?xml version="1.0" encoding="UTF-8"?>
<svg width="40px" height="40px" viewBox="0 0 40 40" version="1.1" xmlns="http://www.w3.org/2000/svg" xmlns:xlink="http://www.w3.org/1999/xlink">
    <title>EA5A6997-F1A7-45EC-883A-F5EBDB3BBBFC</title>
    <defs>
        <path d="M13.6061126,2.77156773 C13.5321727,2.60119602 13.3976261,2.47392229 13.2345946,2.41937641 L7.17394076,0.399158476 C7.06000047,0.360774335 6.93939346,0.360774335 6.82605924,0.399158476 L0.765405446,2.41937641 C0.601767793,2.47392229 0.467827344,2.60119602 0.393887368,2.77156773 C0.319947392,2.94193944 0.313280673,3.13857399 0.376311472,3.31433295 L1.54541159,6.56149657 L1.54541159,10.4719651 C1.54541159,13.8140789 3.99209752,16.5326189 7,16.5326189 C10.0079025,16.5326189 12.4545884,13.8140789 12.4545884,10.4719651 L12.4545884,6.56149657 L13.6236885,3.31433295 C13.6867193,3.13857399 13.6800526,2.94193944 13.6061126,2.77156773 Z M7,3.73790531 C7.66970224,3.73790531 8.21213076,4.34060366 8.21213076,5.08471726 C8.21213076,5.82883087 7.66970224,6.43152922 7,6.43152922 C6.33029776,6.43152922 5.78786924,5.82883087 5.78786924,5.08471726 C5.78786924,4.34060366 6.33029776,3.73790531 7,3.73790531 Z M11.2424577,10.4719651 C11.2424577,13.0706387 9.3388063,15.1858069 7,15.1858069 C4.6611937,15.1858069 2.75754235,13.0706387 2.75754235,10.4719651 L2.75754235,9.12515312 L11.2424577,9.12515312 L11.2424577,10.4719651 Z" id="path-1"></path>
    </defs>
    <g id="profille_view-mode" stroke="none" stroke-width="1" fill="none" fill-rule="evenodd">
        <g id="attendance-_profile_04" transform="translate(-473.000000, -1206.000000)">
            <g id="Group-29" transform="translate(160.000000, 446.000000)">
                <g transform="translate(40.000000, 420.000000)" id="Group-28">
                    <g transform="translate(0.000000, 340.000000)">
                        <g id="father-copy" transform="translate(273.000000, 0.000000)">
                            <circle id="Oval" fill="#E5EEF7" cx="20" cy="20" r="20"></circle>
                            <g id="icon-/-12-/-info-/-security" transform="translate(13.000000, 12.222222)">
                                <mask id="mask-2" fill="white">
                                    <use xlink:href="#path-1"></use>
                                </mask>
                                <use id="Shape" fill="#000000" fill-rule="nonzero" xlink:href="#path-1"></use>
                                <rect id="Rectangle" fill="#0059B2" mask="url(#mask-2)" x="-1" y="-1.11111111" width="16" height="17.7777778"></rect>
                            </g>
                        </g>
                    </g>
                </g>
            </g>
        </g>
    </g>
</svg>