<?xml version="1.0" encoding="UTF-8"?>
<svg width="106px" height="106px" viewBox="0 0 106 106" version="1.1" xmlns="http://www.w3.org/2000/svg" xmlns:xlink="http://www.w3.org/1999/xlink">
    <title>2C54DECE-B1DA-4AEF-8EF0-8E8D415C9A78</title>
    <g id="loader" stroke="none" stroke-width="1" fill="none" fill-rule="evenodd">
        <g id="when-no-shift-and-leaves-is-added_01" transform="translate(-654.000000, -734.000000)">
            <g id="assign" transform="translate(0.000000, 656.000000)">
                <g id="fun-&amp;-role" transform="translate(0.000000, 43.000000)">
                    <g id="Group-22" transform="translate(56.000000, 16.000000)">
                        <g id="country" transform="translate(438.000000, 8.000000)">
                            <g id="Group-7" transform="translate(113.000000, 11.000000)">
                                <g id="Group-2" transform="translate(47.000000, 0.000000)">
                                    <rect id="Rectangle" fill="#D8D8D8" opacity="0" x="0" y="0" width="106" height="106"></rect>
                                    <g id="EmptyState" transform="translate(0.000000, 20.560976)">
                                        <path d="M101.556886,10 C104.01075,10 106,12.0256385 106,14.5243902 C106,17.023142 104.01075,19.0487805 101.556886,19.0487805 L76.1676647,19.0487805 C78.6215286,19.0487805 80.6107784,21.074419 80.6107784,23.5731707 C80.6107784,26.0719225 78.6215286,28.097561 76.1676647,28.097561 L90.1317365,28.097561 C92.5856005,28.097561 94.5748503,30.1231995 94.5748503,32.6219512 C94.5748503,35.120703 92.5856005,37.1463415 90.1317365,37.1463415 L83.6740432,37.1463415 C80.5800408,37.1463415 78.0718563,39.17198 78.0718563,41.6707317 C78.0718563,43.3365662 79.3413174,44.8446963 81.8802395,46.195122 C84.3341035,46.195122 86.3233533,48.2207605 86.3233533,50.7195122 C86.3233533,53.2182639 84.3341035,55.2439024 81.8802395,55.2439024 L29.1976048,55.2439024 C26.7437408,55.2439024 24.754491,53.2182639 24.754491,50.7195122 C24.754491,48.2207605 26.7437408,46.195122 29.1976048,46.195122 L4.44311377,46.195122 C1.98924979,46.195122 0,44.1694834 0,41.6707317 C0,39.17198 1.98924979,37.1463415 4.44311377,37.1463415 L29.8323353,37.1463415 C32.2861993,37.1463415 34.2754491,35.120703 34.2754491,32.6219512 C34.2754491,30.1231995 32.2861993,28.097561 29.8323353,28.097561 L13.9640719,28.097561 C11.5102079,28.097561 9.52095808,26.0719225 9.52095808,23.5731707 C9.52095808,21.074419 11.5102079,19.0487805 13.9640719,19.0487805 L39.3532934,19.0487805 C36.8994294,19.0487805 34.9101796,17.023142 34.9101796,14.5243902 C34.9101796,12.0256385 36.8994294,10 39.3532934,10 L101.556886,10 Z M101.556886,28.097561 C104.01075,28.097561 106,30.1231995 106,32.6219512 C106,35.120703 104.01075,37.1463415 101.556886,37.1463415 C99.1030222,37.1463415 97.1137725,35.120703 97.1137725,32.6219512 C97.1137725,30.1231995 99.1030222,28.097561 101.556886,28.097561 Z" id="Background" fill="#E9F1FF"></path>
                                        <g id="Group-10" transform="translate(31.673157, 0.439024)">
                                            <path d="M39.6476656,9.86335479 L40.1860465,48.0795347 L40.1860465,51.906933 C40.1860465,53.1399408 39.1864962,54.1394911 37.9534884,54.1394911 L5.02325581,54.1394911 C3.790248,54.1394911 2.79069767,53.1399408 2.79069767,51.906933 L2.79069767,10.616352 C2.79069767,9.99984814 3.29047284,9.50007297 3.90697674,9.50007297 C3.91087111,9.50007297 3.91476546,9.50007297 3.91865962,9.50007297 L6.64716387,9.52869195 M8.8534637,9.55178414 L11.4295937,9.57874715" id="Shape" stroke="#75A4FE" stroke-width="1.5" fill="#FFFFFF" stroke-linecap="round" transform="translate(21.488372, 31.819782) rotate(-7.000000) translate(-21.488372, -31.819782) "></path>
                                            <path d="M37.9688829,12.0303242 L38.451015,46.6637372 L38.451015,50.1323169 C38.451015,51.2497302 37.5558953,52.1555727 36.4517092,52.1555727 L6.96194873,52.1555727 C5.85776262,52.1555727 4.96264293,51.2497302 4.96264293,50.1323169 L4.96264293,13.6904564 C4.96264293,12.5858869 5.85807343,11.6904564 6.96264293,11.6904564 L9.72710189,11.6904564 L9.72710189,11.6904564" id="Rectangle" fill="#E8F0FE" transform="translate(21.706829, 31.923015) rotate(-7.000000) translate(-21.706829, -31.923015) "></path>
                                            <path d="M37.5317451,0.75 C38.3933503,0.75 39.2196957,1.09213374 39.829131,1.70119207 L39.829131,1.70119207 L46.2966703,8.16473061 C46.9065985,8.77428154 47.2492843,9.60123651 47.2492843,10.4635385 L47.2492843,10.4635385 L47.2492843,42.8837209 C47.2492843,43.7811836 46.8855157,44.5936836 46.2973814,45.181818 C45.7092471,45.7699523 44.8967471,46.1337209 43.9992843,46.1337209 L43.9992843,46.1337209 L14.6039355,46.1337209 C13.7064728,46.1337209 12.8939728,45.7699523 12.3058385,45.181818 C11.7177041,44.5936836 11.3539355,43.7811836 11.3539355,42.8837209 L11.3539355,42.8837209 L11.3539355,4 C11.3539355,3.10253728 11.7177041,2.29003728 12.3058385,1.70190296 C12.8939728,1.11376864 13.7064728,0.75 14.6039355,0.75 L14.6039355,0.75 Z" id="Rectangle" stroke="#75A4FE" stroke-width="1.5" fill="#FFFFFF"></path>
                                            <g id="Group" transform="translate(17.484749, 20.651163)" stroke="#75A4FE" stroke-linecap="round" stroke-width="1.5">
                                                <path d="M7.81395349,3.90697674 C7.81395349,1.74921307 6.06474042,0 3.90697674,0 C1.74921307,0 0,1.74921307 0,3.90697674" id="Oval" transform="translate(3.906977, 1.953488) rotate(-180.000000) translate(-3.906977, -1.953488) "></path>
                                                <path d="M24,3.90697674 C24,1.74921307 22.2507869,0 20.0930233,0 C17.9352596,0 16.1860465,1.74921307 16.1860465,3.90697674" id="Oval" transform="translate(20.093023, 1.953488) rotate(-180.000000) translate(-20.093023, -1.953488) "></path>
                                                <line x1="7.81395349" y1="10.6046512" x2="15.9069767" y2="10.6046512" id="Line"></line>
                                            </g>
                                            <path d="M38.5109123,1.34111555 L38.5109123,7.81395349 C38.5109123,8.73870935 39.260575,9.48837209 40.1853309,9.48837209 L44.6133832,9.48837209" id="Shape" stroke="#75A4FE" stroke-width="1.5" stroke-linecap="round" stroke-linejoin="round"></path>
                                        </g>
                                    </g>
                                </g>
                            </g>
                        </g>
                    </g>
                </g>
            </g>
        </g>
    </g>
</svg>