<?xml version="1.0" encoding="UTF-8"?>
<svg width="36px" height="36px" viewBox="0 0 36 36" version="1.1" xmlns="http://www.w3.org/2000/svg" xmlns:xlink="http://www.w3.org/1999/xlink">
    <title>EC6AE707-3E12-4747-B26D-0B921C42D965</title>
    <g id="profile-view-mode" stroke="none" stroke-width="1" fill="none" fill-rule="evenodd">
        <g id="profile-view_mode_updated-1" transform="translate(-471.000000, -1146.000000)">
            <g id="Group-29" transform="translate(157.000000, 877.000000)">
                <g id="Group-27" transform="translate(43.000000, 178.000000)">
                    <g id="Group-21" transform="translate(271.000000, 87.000000)">
                        <g id="father" transform="translate(0.000000, 4.000000)">
                            <circle id="Oval" fill="#F3F7FD" cx="18" cy="18" r="18"></circle>
                            <g id="icon-/-48-/-info-/-verification-/-pan" transform="translate(8.000000, 9.000000)" fill="#0059B2" fill-rule="nonzero">
                                <g id="Rectangle" transform="translate(0.576087, 0.326087)">
                                    <g transform="translate(0.450408, 0.184783)" id="Mask">
                                        <g transform="translate(0.000000, 0.061344)">
                                            <path d="M8.97350543,0.427786567 C13.3841934,0.427786567 16.9735054,4.0170957 16.9735054,8.42778657 C16.9735054,12.8384134 13.3841934,16.4277866 8.97350543,16.4277866 C4.56281743,16.4277866 0.973505435,12.8384134 0.973505435,8.42778657 C0.973505435,4.0170957 4.56281743,0.427786567 8.97350543,0.427786567 Z M8.97350543,3.62778401 C8.62003343,3.62778401 8.33350543,3.91431178 8.33350543,4.26778349 L8.33350543,8.42779297 C8.33350543,8.78126468 8.62003343,9.06779245 8.97350543,9.06779245 L12.4935054,9.06779245 C12.8469774,9.06779245 13.1335054,8.78126468 13.1335054,8.42779297 C13.1335054,8.07432125 12.8469774,7.78779348 12.4935054,7.78779348 L9.61350543,7.78779348 L9.61350543,4.26778349 C9.61350543,3.91431178 9.32697743,3.62778401 8.97350543,3.62778401 Z" id="Shape"></path>
                                        </g>
                                    </g>
                                </g>
                            </g>
                        </g>
                    </g>
                </g>
            </g>
        </g>
    </g>
</svg>