<?xml version="1.0" encoding="UTF-8"?>
<svg width="106px" height="106px" viewBox="0 0 106 106" version="1.1" xmlns="http://www.w3.org/2000/svg" xmlns:xlink="http://www.w3.org/1999/xlink">
    <title>2C714403-D9E8-46BB-9E08-0A8E1A47E596</title>
    <g id="loader" stroke="none" stroke-width="1" fill="none" fill-rule="evenodd">
        <g id="when-no-shift-and-leaves-is-added_01" transform="translate(-209.000000, -734.000000)">
            <g id="assign" transform="translate(0.000000, 656.000000)">
                <g id="fun-&amp;-role" transform="translate(0.000000, 43.000000)">
                    <g id="Group-22" transform="translate(56.000000, 16.000000)">
                        <g id="country" transform="translate(0.000000, 8.000000)">
                            <g id="Group-7" transform="translate(95.000000, 11.000000)">
                                <g id="Group-2" transform="translate(58.000000, 0.000000)">
                                    <rect id="Rectangle" fill="#D8D8D8" opacity="0" x="0" y="0" width="106" height="106"></rect>
                                    <g id="EmptyState" transform="translate(0.000000, 24.560976)">
                                        <path d="M101.556886,6.46341463 C104.01075,6.46341463 106,8.48905314 106,10.9878049 C106,13.4865566 104.01075,15.5121951 101.556886,15.5121951 L76.1676647,15.5121951 C78.6215286,15.5121951 80.6107784,17.5378336 80.6107784,20.0365854 C80.6107784,22.5353371 78.6215286,24.5609756 76.1676647,24.5609756 L90.1317365,24.5609756 C92.5856005,24.5609756 94.5748503,26.5866141 94.5748503,29.0853659 C94.5748503,31.5841176 92.5856005,33.6097561 90.1317365,33.6097561 L83.6740432,33.6097561 C80.5800408,33.6097561 78.0718563,35.6353946 78.0718563,38.1341463 C78.0718563,39.7999808 79.3413174,41.3081109 81.8802395,42.6585366 C84.3341035,42.6585366 86.3233533,44.6841751 86.3233533,47.1829268 C86.3233533,49.6816786 84.3341035,51.7073171 81.8802395,51.7073171 L29.1976048,51.7073171 C26.7437408,51.7073171 24.754491,49.6816786 24.754491,47.1829268 C24.754491,44.6841751 26.7437408,42.6585366 29.1976048,42.6585366 L4.44311377,42.6585366 C1.98924979,42.6585366 0,40.6328981 0,38.1341463 C0,35.6353946 1.98924979,33.6097561 4.44311377,33.6097561 L29.8323353,33.6097561 C32.2861993,33.6097561 34.2754491,31.5841176 34.2754491,29.0853659 C34.2754491,26.5866141 32.2861993,24.5609756 29.8323353,24.5609756 L13.9640719,24.5609756 C11.5102079,24.5609756 9.52095808,22.5353371 9.52095808,20.0365854 C9.52095808,17.5378336 11.5102079,15.5121951 13.9640719,15.5121951 L39.3532934,15.5121951 C36.8994294,15.5121951 34.9101796,13.4865566 34.9101796,10.9878049 C34.9101796,8.48905314 36.8994294,6.46341463 39.3532934,6.46341463 L101.556886,6.46341463 Z M101.556886,24.5609756 C104.01075,24.5609756 106,26.5866141 106,29.0853659 C106,31.5841176 104.01075,33.6097561 101.556886,33.6097561 C99.1030222,33.6097561 97.1137725,31.5841176 97.1137725,29.0853659 C97.1137725,26.5866141 99.1030222,24.5609756 101.556886,24.5609756 Z" id="Background" fill="#E9F1FF"></path>
                                        <path d="M45.1411163,37.6859911 C45.0915193,38.0435651 45.0658683,38.4089761 45.0658683,38.7804878 C45.0658683,43.0640622 48.4760108,46.5365854 52.6826347,46.5365854 C56.8892587,46.5365854 60.2994012,43.0640622 60.2994012,38.7804878 C60.2994012,38.4089761 60.2737502,38.0435651 60.2241532,37.6859911 L78.7065868,37.6859911 L78.7065868,54.9390244 C78.7065868,56.009918 77.8540512,56.8780488 76.8023952,56.8780488 L28.5628743,56.8780488 C27.5112183,56.8780488 26.6586826,56.009918 26.6586826,54.9390244 L26.6586826,37.6859911 L45.1411163,37.6859911 Z" id="Path" fill="#FFFFFF"></path>
                                        <path d="M60.9341317,37.4878049 C60.9341317,42.1283438 57.2398107,45.8902439 52.6826347,45.8902439 C48.1254588,45.8902439 44.4311377,42.1283438 44.4311377,37.4878049 C44.4311377,37.3374649 44.4350152,37.1880472 44.4426738,37.0396496 L26.6586826,37.0396496 L32.7269857,18.7690149 C32.9885943,17.9813556 33.7142527,17.4512195 34.5308042,17.4512195 L70.8344652,17.4512195 C71.6510167,17.4512195 72.3766751,17.9813556 72.6382838,18.7690149 L78.7065868,37.0396496 L60.9225957,37.0396496 C60.9302543,37.1880472 60.9341317,37.3374649 60.9341317,37.4878049 Z" id="Path" fill="#FFFFFF"></path>
                                        <path d="M59.7265956,38.1047672 C59.7265956,41.6906382 56.5729069,45.2439024 52.6826347,45.2439024 C48.7923626,45.2439024 45.6386739,41.6906382 45.6386739,38.1047672 C45.6386739,37.9885954 45.6419839,37.2267948 45.6485217,37.1121239 L32.3712575,37.1121239 L37.5515162,24.2865891 C37.7748406,23.6779433 38.3943051,23.2682927 39.0913613,23.2682927 L66.2739082,23.2682927 C66.9709643,23.2682927 67.5904288,23.6779433 67.8137533,24.2865891 L72.994012,37.1121239 L59.7167477,37.1121239 C59.7232856,37.2267948 59.7265956,37.9885954 59.7265956,38.1047672 Z" id="Path" fill="#E8F0FE"></path>
                                        <path d="M70.0358595,18.2012195 C70.5205408,18.2012195 70.9779803,18.3564305 71.3524428,18.626635 C71.7269052,18.8968395 72.0183907,19.2820376 72.1711639,19.7420119 L72.1711639,19.7420119 L77.9565868,37.1609424 L77.9565868,53.2317073 C77.9565868,53.8530277 77.704747,54.4155277 77.2975771,54.8226976 C76.8904072,55.2298675 76.3279072,55.4817073 75.7065868,55.4817073 L75.7065868,55.4817073 L29.6586826,55.4817073 C29.0373623,55.4817073 28.4748623,55.2298675 28.0676924,54.8226976 C27.6605225,54.4155277 27.4086826,53.8530277 27.4086826,53.2317073 L27.4086826,53.2317073 L27.4086826,37.1609424 L33.1941056,19.7420119 C33.3468788,19.2820376 33.6383642,18.8968395 34.0128267,18.626635 C34.3872891,18.3564305 34.8447286,18.2012195 35.3294099,18.2012195 L35.3294099,18.2012195 Z" id="Rectangle" stroke="#75A4FE" stroke-width="1.5"></path>
                                        <path d="M30.8312301,36.8414634 L32.3712575,36.8414634 L30.8312301,36.8414634 Z M35.5449102,36.8414634 C38.0435712,36.8414634 40.7400993,36.8414634 43.6344945,36.8414634 C44.8254267,36.8414634 44.8254267,37.6937135 44.8254267,38.1341463 C44.8254267,42.4177207 48.3140267,45.8902439 52.6174328,45.8902439 C56.9208389,45.8902439 60.4094388,42.4177207 60.4094388,38.1341463 C60.4094388,37.6937135 60.4094388,36.8414634 61.600371,36.8414634 L77.4371257,36.8414634" id="Shape" stroke="#75A4FE" stroke-width="1.5" stroke-linecap="round" stroke-linejoin="round"></path>
                                        <path d="M52.1111293,0 L52.1111293,10.8300067 M35.5449102,2.78103563 L42.5901712,10.8300067 M68.6141233,2.78103563 L61.5688623,10.8300067" id="lines" stroke="#A4C3FE" stroke-width="1.5" stroke-linecap="round" stroke-linejoin="round"></path>
                                    </g>
                                </g>
                            </g>
                        </g>
                    </g>
                </g>
            </g>
        </g>
    </g>
</svg>