<?xml version="1.0" encoding="UTF-8"?>
<svg width="164px" height="164px" viewBox="0 0 164 164" version="1.1" xmlns="http://www.w3.org/2000/svg" xmlns:xlink="http://www.w3.org/1999/xlink">
    <title>Group 2</title>
    <g id="loader" stroke="none" stroke-width="1" fill="none" fill-rule="evenodd">
        <g id="0-shifts-in-expanded-view_02" transform="translate(-698.000000, -264.000000)">
            <g id="Group" transform="translate(609.000000, 264.000000)">
                <g id="Group-2" transform="translate(89.000000, 0.000000)">
                    <rect id="Rectangle" fill="#D8D8D8" opacity="0" x="0" y="0" width="164" height="164"></rect>
                    <g id="EmptyState" transform="translate(0.000000, 38.000000)">
                        <path d="M157.125749,10 C160.922293,10 164,13.1340068 164,17 C164,20.8659932 160.922293,24 157.125749,24 L117.844311,24 C121.640856,24 124.718563,27.1340068 124.718563,31 C124.718563,34.8659932 121.640856,38 117.844311,38 L139.449102,38 C143.245646,38 146.323353,41.1340068 146.323353,45 C146.323353,48.8659932 143.245646,52 139.449102,52 L129.457954,52 C124.671007,52 120.790419,55.1340068 120.790419,59 C120.790419,61.5773288 122.754491,63.9106622 126.682635,66 C130.479179,66 133.556886,69.1340068 133.556886,73 C133.556886,76.8659932 130.479179,80 126.682635,80 L45.1736527,80 C41.3771084,80 38.2994012,76.8659932 38.2994012,73 C38.2994012,69.1340068 41.3771084,66 45.1736527,66 L6.8742515,66 C3.07770723,66 0,62.8659932 0,59 C0,55.1340068 3.07770723,52 6.8742515,52 L46.1556886,52 C49.9522329,52 53.0299401,48.8659932 53.0299401,45 C53.0299401,41.1340068 49.9522329,38 46.1556886,38 L21.6047904,38 C17.8082462,38 14.7305389,34.8659932 14.7305389,31 C14.7305389,27.1340068 17.8082462,24 21.6047904,24 L60.8862275,24 C57.0896833,24 54.011976,20.8659932 54.011976,17 C54.011976,13.1340068 57.0896833,10 60.8862275,10 L157.125749,10 Z M157.125749,38 C160.922293,38 164,41.1340068 164,45 C164,48.8659932 160.922293,52 157.125749,52 C153.329204,52 150.251497,48.8659932 150.251497,45 C150.251497,41.1340068 153.329204,38 157.125749,38 Z" id="Background" fill="#F3F7FF"></path>
                        <path d="M69.8409724,58.3066278 C69.7642374,58.8598554 69.7245509,59.4252083 69.7245509,60 C69.7245509,66.627417 75.0006204,72 81.508982,72 C88.0173436,72 93.2934132,66.627417 93.2934132,60 C93.2934132,59.4252083 93.2537267,58.8598554 93.1769917,58.3066278 L121.772455,58.3066278 L121.772455,85 C121.772455,86.6568542 120.453438,88 118.826347,88 L44.1916168,88 C42.5645264,88 41.245509,86.6568542 41.245509,85 L41.245509,58.3066278 L69.8409724,58.3066278 Z" id="Path" fill="#FFFFFF"></path>
                        <path d="M94.2754491,58 C94.2754491,65.1797017 88.5597071,71 81.508982,71 C74.458257,71 68.742515,65.1797017 68.742515,58 C68.742515,57.7673986 68.748514,57.5362239 68.7603632,57.3066278 L41.245509,57.3066278 L50.6342043,29.0388533 C51.0389572,27.8202106 52.161674,27 53.4250179,27 L109.592946,27 C110.85629,27 111.979007,27.8202106 112.38376,29.0388533 L121.772455,57.3066278 L94.2576008,57.3066278 C94.26945,57.5362239 94.2754491,57.7673986 94.2754491,58 Z" id="Path" fill="#FFFFFF"></path>
                        <path d="M92.4071856,58.9545455 C92.4071856,64.5024968 87.5278937,70 81.508982,70 C75.4900704,70 70.6107784,64.5024968 70.6107784,58.9545455 C70.6107784,58.774808 70.6158996,57.596173 70.6260148,57.4187578 L50.0838323,57.4187578 L58.0985722,37.5754775 C58.4440931,36.6337991 59.4025098,36 60.4809741,36 L102.53699,36 C103.615454,36 104.573871,36.6337991 104.919392,37.5754775 L112.934132,57.4187578 L92.3919493,57.4187578 C92.4020645,57.596173 92.4071856,58.774808 92.4071856,58.9545455 Z" id="Path" fill="#E8F0FE"></path>
                        <path d="M109.541848,28.25 C109.918822,28.25 110.274608,28.3707196 110.565857,28.5808787 C110.857105,28.7910378 111.083816,29.0906363 111.20264,29.4483941 L111.20264,29.4483941 L120.522455,57.5087824 L120.522455,84 C120.522455,84.4832492 120.32658,84.9207492 120.009892,85.2374369 C119.693204,85.5541246 119.255704,85.75 118.772455,85.75 L118.772455,85.75 L44.245509,85.75 C43.7622598,85.75 43.3247598,85.5541246 43.0080721,85.2374369 C42.6913844,84.9207492 42.495509,84.4832492 42.495509,84 L42.495509,84 L42.495509,57.5087824 L51.8153243,29.4483941 C51.9341478,29.0906363 52.1608587,28.7910378 52.4521073,28.5808787 C52.7433559,28.3707196 53.0991422,28.25 53.4761165,28.25 L53.4761165,28.25 Z" id="Rectangle" stroke="#75A4FE" stroke-width="2.5"></path>
                        <path d="M47.7011485,57 L50.0838323,57 L47.7011485,57 Z M54.994012,57 C58.8598649,57 63.0318518,57 67.5099727,57 C69.352547,57 69.352547,58.3185756 69.352547,59 C69.352547,65.627417 74.7500035,71 81.4081035,71 C88.0662036,71 93.4636601,65.627417 93.4636601,59 C93.4636601,58.3185756 93.4636601,57 95.3062344,57 L119.808383,57" id="Shape" stroke="#75A4FE" stroke-width="2.5" stroke-linecap="round" stroke-linejoin="round"></path>
                        <path d="M80.6247661,0 L80.6247661,16.7558594 M54.994012,4.30273438 L65.8942272,16.7558594 M106.1577,4.30273438 L95.257485,16.7558594" id="lines" stroke="#A4C3FE" stroke-width="2.5" stroke-linecap="round" stroke-linejoin="round"></path>
                    </g>
                </g>
            </g>
        </g>
    </g>
</svg>