<?xml version="1.0" encoding="UTF-8"?>
<svg width="147px" height="95px" viewBox="0 0 147 95" version="1.1" xmlns="http://www.w3.org/2000/svg" xmlns:xlink="http://www.w3.org/1999/xlink">
    <!-- Generator: Sketch 60.1 (88133) - https://sketch.com -->
    <title>pan cards</title>
    <desc>Created with Sketch.</desc>
    <g id="Symbols" stroke="none" stroke-width="1" fill="none" fill-rule="evenodd">
        <g id="card-/-🖥-Ops_analyst-/--employment-verify" transform="translate(-714.000000, -21.000000)">
            <g id="intro-card">
                <g id="pan-cards" transform="translate(713.138889, 21.000000)">
                    <path d="M0.861111111,7.99735801 C0.861111111,3.58053914 4.44014703,0 8.86886275,0 L139.853359,0 C144.275919,0 147.861111,3.5793661 147.861111,7.99735801 L147.861111,87.002642 C147.861111,91.4194609 144.282075,95 139.853359,95 L8.86886275,95 C4.44630364,95 0.861111111,91.4206339 0.861111111,87.002642 L0.861111111,7.99735801 Z" id="Rectangle-Copy-13" fill="#6772E5"></path>
                    <g id="Group-23" transform="translate(91.861111, 39.000000)">
                        <rect id="Rectangle" fill="#D8D8D8" opacity="0" x="0" y="0" width="40" height="40"></rect>
                        <g id="noun_Briefcase_836241" transform="translate(4.000000, 8.000000)" fill="#010E39" fill-rule="nonzero" opacity="0.5">
                            <g id="Group">
                                <path d="M32,7.63636364 C32,5.83636364 30.56,4.36363636 28.8,4.36363636 L22.5066667,4.36363636 L22.5066667,3.3 C22.5066667,1.5 21.0666667,0.0272727273 19.3066667,0.0272727273 L12.6933333,0.0272727273 C10.9333333,0.0272727273 9.49333333,1.5 9.49333333,3.3 L9.49333333,4.36363636 L3.2,4.36363636 C1.44,4.36363636 0,5.83636364 0,7.63636364 L0,11.9454545 L32,11.9454545 L32,7.63636364 Z M21.44,4.36363636 L10.56,4.36363636 L10.56,3.3 C10.56,2.1 11.52,1.11818182 12.6933333,1.11818182 L19.3066667,1.11818182 C20.48,1.11818182 21.44,2.1 21.44,3.3 L21.44,4.36363636 Z" id="Shape"></path>
                                <path d="M17.6533333,14.2636364 C17.6533333,15.1909091 16.9066667,15.9545455 16,15.9545455 C15.0933333,15.9545455 14.3466667,15.1909091 14.3466667,14.2636364 L14.3466667,13.0090909 L0,13.0090909 L0,22.0363636 C0,23.1 0.826666667,23.9454545 1.86666667,23.9454545 L30.1333333,23.9454545 C31.1733333,23.9454545 32,23.1 32,22.0363636 L32,13.0363636 L17.6533333,13.0363636 L17.6533333,14.2636364 Z" id="Path"></path>
                            </g>
                        </g>
                    </g>
                    <path d="M18.3871111,30.252 C20.1151111,30.252 21.4651111,29.55 22.3111111,28.326 L20.4391111,27.246 C20.0431111,27.768 19.3231111,28.146 18.4231111,28.146 C17.1991111,28.146 16.2091111,27.642 15.8851111,26.454 L22.6711111,26.454 C22.7251111,26.148 22.7611111,25.842 22.7611111,25.5 C22.7611111,22.854 20.8711111,20.748 18.2071111,20.748 C15.3811111,20.748 13.4551111,22.818 13.4551111,25.5 C13.4551111,28.182 15.3631111,30.252 18.3871111,30.252 Z M20.4391111,24.654 L15.8491111,24.654 C16.1191111,23.502 16.9651111,22.836 18.2071111,22.836 C19.1791111,22.836 20.1511111,23.358 20.4391111,24.654 Z M26.7031111,30 L26.7031111,24.942 C26.7031111,23.592 27.4051111,22.908 28.3951111,22.908 C29.3671111,22.908 29.9071111,23.556 29.9071111,24.618 L29.9071111,30 L32.2291111,30 L32.2291111,24.942 C32.2291111,23.592 32.8771111,22.908 33.9031111,22.908 C34.8751111,22.908 35.4151111,23.556 35.4151111,24.618 L35.4151111,30 L37.7371111,30 L37.7371111,24.456 C37.7371111,22.206 36.3871111,20.748 34.3351111,20.748 C33.1111111,20.748 32.2111111,21.234 31.6531111,22.044 C31.1491111,21.216 30.3211111,20.748 29.2051111,20.748 C28.0531111,20.748 27.2071111,21.198 26.7031111,21.954 L26.7031111,21 L24.3811111,21 L24.3811111,30 L26.7031111,30 Z M42.0391111,33.6 L42.0391111,28.938 C42.6871111,29.766 43.6411111,30.252 44.9551111,30.252 C47.3671111,30.252 49.3471111,28.182 49.3471111,25.5 C49.3471111,22.818 47.3671111,20.748 44.9551111,20.748 C43.6411111,20.748 42.6871111,21.234 42.0391111,22.062 L42.0391111,21 L39.7171111,21 L39.7171111,33.6 L42.0391111,33.6 Z M44.5231111,28.038 C43.1011111,28.038 42.0391111,27.012 42.0391111,25.5 C42.0391111,23.988 43.1011111,22.962 44.5231111,22.962 C45.9631111,22.962 47.0251111,23.988 47.0251111,25.5 C47.0251111,27.012 45.9631111,28.038 44.5231111,28.038 Z M53.3071111,30 L53.3071111,16.86 L50.9851111,16.86 L50.9851111,30 L53.3071111,30 Z M59.7151111,30.252 C62.3611111,30.252 64.4851111,28.182 64.4851111,25.5 C64.4851111,22.818 62.3611111,20.748 59.7151111,20.748 C57.0691111,20.748 54.9631111,22.818 54.9631111,25.5 C54.9631111,28.182 57.0691111,30.252 59.7151111,30.252 Z M59.7151111,27.984 C58.3471111,27.984 57.2851111,26.958 57.2851111,25.5 C57.2851111,24.042 58.3471111,23.016 59.7151111,23.016 C61.1011111,23.016 62.1631111,24.042 62.1631111,25.5 C62.1631111,26.958 61.1011111,27.984 59.7151111,27.984 Z M70.8391111,30 L74.1151111,21 L71.6311111,21 L69.6331111,27.048 L67.2931111,21 L64.7551111,21 L68.4451111,29.712 C68.0131111,30.918 67.3651111,31.458 66.0871111,31.44 L66.0871111,33.6 C68.3731111,33.726 69.9031111,32.592 70.8391111,30 Z M77.5351111,30 L77.5351111,24.942 C77.5351111,23.592 78.2371111,22.908 79.2271111,22.908 C80.1991111,22.908 80.7391111,23.556 80.7391111,24.618 L80.7391111,30 L83.0611111,30 L83.0611111,24.942 C83.0611111,23.592 83.7091111,22.908 84.7351111,22.908 C85.7071111,22.908 86.2471111,23.556 86.2471111,24.618 L86.2471111,30 L88.5691111,30 L88.5691111,24.456 C88.5691111,22.206 87.2191111,20.748 85.1671111,20.748 C83.9431111,20.748 83.0431111,21.234 82.4851111,22.044 C81.9811111,21.216 81.1531111,20.748 80.0371111,20.748 C78.8851111,20.748 78.0391111,21.198 77.5351111,21.954 L77.5351111,21 L75.2131111,21 L75.2131111,30 L77.5351111,30 Z M95.0131111,30.252 C96.7411111,30.252 98.0911111,29.55 98.9371111,28.326 L97.0651111,27.246 C96.6691111,27.768 95.9491111,28.146 95.0491111,28.146 C93.8251111,28.146 92.8351111,27.642 92.5111111,26.454 L99.2971111,26.454 C99.3511111,26.148 99.3871111,25.842 99.3871111,25.5 C99.3871111,22.854 97.4971111,20.748 94.8331111,20.748 C92.0071111,20.748 90.0811111,22.818 90.0811111,25.5 C90.0811111,28.182 91.9891111,30.252 95.0131111,30.252 Z M97.0651111,24.654 L92.4751111,24.654 C92.7451111,23.502 93.5911111,22.836 94.8331111,22.836 C95.8051111,22.836 96.7771111,23.358 97.0651111,24.654 Z M103.329111,30 L103.329111,25.14 C103.329111,23.574 104.175111,22.908 105.309111,22.908 C106.353111,22.908 107.091111,23.538 107.091111,24.762 L107.091111,30 L109.413111,30 L109.413111,24.474 C109.413111,22.08 107.919111,20.748 106.011111,20.748 C104.805111,20.748 103.869111,21.198 103.329111,22.008 L103.329111,21 L101.007111,21 L101.007111,30 L103.329111,30 Z M116.541111,30 L116.541111,27.894 C115.209111,27.966 114.507111,27.948 114.507111,26.976 L114.507111,23.232 L116.541111,23.232 L116.541111,21 L114.507111,21 L114.507111,18.48 L112.185111,19.182 L112.185111,21 L110.619111,21 L110.619111,23.232 L112.185111,23.232 L112.185111,26.976 C112.185111,29.406 113.283111,30.36 116.541111,30 Z M18.2071111,54.252 C19.9711111,54.252 21.5011111,53.316 22.2751111,51.912 L20.2591111,50.76 C19.8991111,51.498 19.1251111,51.948 18.1891111,51.948 C16.8031111,51.948 15.7771111,50.922 15.7771111,49.5 C15.7771111,48.06 16.8031111,47.034 18.1891111,47.034 C19.1071111,47.034 19.8811111,47.502 20.2411111,48.24 L22.2391111,47.07 C21.5011111,45.684 19.9711111,44.748 18.2071111,44.748 C15.4711111,44.748 13.4551111,46.818 13.4551111,49.5 C13.4551111,52.182 15.4711111,54.252 18.2071111,54.252 Z M25.8211111,54 L25.8211111,49.14 C25.8211111,47.574 26.6671111,46.908 27.8011111,46.908 C28.8451111,46.908 29.5831111,47.538 29.5831111,48.762 L29.5831111,54 L31.9051111,54 L31.9051111,48.474 C31.9051111,46.08 30.4111111,44.748 28.5031111,44.748 C27.2971111,44.748 26.3611111,45.198 25.8211111,46.008 L25.8211111,41.4 L23.4991111,41.4 L23.4991111,54 L25.8211111,54 Z M38.3491111,54.252 C40.0771111,54.252 41.4271111,53.55 42.2731111,52.326 L40.4011111,51.246 C40.0051111,51.768 39.2851111,52.146 38.3851111,52.146 C37.1611111,52.146 36.1711111,51.642 35.8471111,50.454 L42.6331111,50.454 C42.6871111,50.148 42.7231111,49.842 42.7231111,49.5 C42.7231111,46.854 40.8331111,44.748 38.1691111,44.748 C35.3431111,44.748 33.4171111,46.818 33.4171111,49.5 C33.4171111,52.182 35.3251111,54.252 38.3491111,54.252 Z M40.4011111,48.654 L35.8111111,48.654 C36.0811111,47.502 36.9271111,46.836 38.1691111,46.836 C39.1411111,46.836 40.1131111,47.358 40.4011111,48.654 Z M48.5551111,54.252 C50.3191111,54.252 51.8491111,53.316 52.6231111,51.912 L50.6071111,50.76 C50.2471111,51.498 49.4731111,51.948 48.5371111,51.948 C47.1511111,51.948 46.1251111,50.922 46.1251111,49.5 C46.1251111,48.06 47.1511111,47.034 48.5371111,47.034 C49.4551111,47.034 50.2291111,47.502 50.5891111,48.24 L52.5871111,47.07 C51.8491111,45.684 50.3191111,44.748 48.5551111,44.748 C45.8191111,44.748 43.8031111,46.818 43.8031111,49.5 C43.8031111,52.182 45.8191111,54.252 48.5551111,54.252 Z M56.1691111,54 L56.1691111,49.914 L59.4451111,54 L62.1451111,54 L58.4191111,49.446 L62.0371111,45 L59.2651111,45 L56.1691111,48.96 L56.1691111,41.4 L53.8471111,41.4 L53.8471111,54 L56.1691111,54 Z" id="employmentcheck" fill="#FFFFFF" fill-rule="nonzero"></path>
                </g>
            </g>
        </g>
    </g>
</svg>