<?xml version="1.0" encoding="UTF-8"?>
<svg width="88px" height="57px" viewBox="0 0 88 57" version="1.1" xmlns="http://www.w3.org/2000/svg" xmlns:xlink="http://www.w3.org/1999/xlink">
    <!-- Generator: sketchtool 60.1 (101010) - https://sketch.com -->
    <title>8ECA1A71-F57A-499F-9F2E-E13369051ECC</title>
    <desc>Created with sketchtool.</desc>
    <g id="🖥-Ops_analyst-" stroke="none" stroke-width="1" fill="none" fill-rule="evenodd">
        <g id="normal-login-3" transform="translate(-637.000000, -659.000000)">
            <g id="card-/-🖥-Ops_analyst-/-employment" transform="translate(611.000000, 635.000000)">
                <g id="PAN">
                    <g id="pan-cards" transform="translate(26.000000, 24.000000)">
                        <path d="M0.512012012,8.00065503 C0.512012012,3.58201527 4.10135911,0 8.51980537,0 L79.9096241,0 C84.3322062,0 87.9174174,3.58719818 87.9174174,8.00065503 L87.9174174,48.999345 C87.9174174,53.4179847 84.3280703,57 79.9096241,57 L8.51980537,57 C4.09722322,57 0.512012012,53.4128018 0.512012012,48.999345 L0.512012012,8.00065503 Z" id="Rectangle-Copy-13" fill="#6772E5"></path>
                        <g id="Group-23" transform="translate(54.620120, 23.400000)">
                            <rect id="Rectangle" fill="#D8D8D8" opacity="0" x="0" y="0" width="23.7837838" height="24"></rect>
                            <g id="noun_Briefcase_836241" transform="translate(2.378378, 4.800000)" fill="#010E39" fill-rule="nonzero" opacity="0.5">
                                <g id="Group">
                                    <path d="M19.027027,4.58181818 C19.027027,3.50181818 18.1708108,2.61818182 17.1243243,2.61818182 L13.3823423,2.61818182 L13.3823423,1.98 C13.3823423,0.9 12.5261261,0.0163636364 11.4796396,0.0163636364 L7.54738739,0.0163636364 C6.5009009,0.0163636364 5.64468468,0.9 5.64468468,1.98 L5.64468468,2.61818182 L1.9027027,2.61818182 C0.856216216,2.61818182 0,3.50181818 0,4.58181818 L0,7.16727273 L19.027027,7.16727273 L19.027027,4.58181818 Z M12.7481081,2.61818182 L6.27891892,2.61818182 L6.27891892,1.98 C6.27891892,1.26 6.84972973,0.670909091 7.54738739,0.670909091 L11.4796396,0.670909091 C12.1772973,0.670909091 12.7481081,1.26 12.7481081,1.98 L12.7481081,2.61818182 Z" id="Shape"></path>
                                    <path d="M10.4965766,8.55818182 C10.4965766,9.11454545 10.0526126,9.57272727 9.51351351,9.57272727 C8.97441441,9.57272727 8.53045045,9.11454545 8.53045045,8.55818182 L8.53045045,7.80545455 L0,7.80545455 L0,13.2218182 C0,13.86 0.491531532,14.3672727 1.10990991,14.3672727 L17.9171171,14.3672727 C18.5354955,14.3672727 19.027027,13.86 19.027027,13.2218182 L19.027027,7.82181818 L10.4965766,7.82181818 L10.4965766,8.55818182 Z" id="Path"></path>
                                </g>
                            </g>
                        </g>
                        <path d="M10.9328769,18.1512 C11.9603363,18.1512 12.763039,17.73 13.2660661,16.9956 L12.152985,16.3476 C11.9175255,16.6608 11.4894174,16.8876 10.9542823,16.8876 C10.2264985,16.8876 9.63784985,16.5852 9.4452012,15.8724 L13.4801201,15.8724 C13.5122282,15.6888 13.5336336,15.5052 13.5336336,15.3 C13.5336336,13.7124 12.4098498,12.4488 10.8258498,12.4488 C9.14552553,12.4488 8.00033634,13.6908 8.00033634,15.3 C8.00033634,16.9092 9.13482282,18.1512 10.9328769,18.1512 Z M12.152985,14.7924 L9.4237958,14.7924 C9.58433634,14.1012 10.0873634,13.7016 10.8258498,13.7016 C11.4037958,13.7016 11.9817417,14.0148 12.152985,14.7924 Z M15.8775255,18 L15.8775255,14.9652 C15.8775255,14.1552 16.2949309,13.7448 16.8835796,13.7448 C17.4615255,13.7448 17.7826066,14.1336 17.7826066,14.7708 L17.7826066,18 L19.1632553,18 L19.1632553,14.9652 C19.1632553,14.1552 19.5485526,13.7448 20.1586066,13.7448 C20.7365526,13.7448 21.0576336,14.1336 21.0576336,14.7708 L21.0576336,18 L22.4382823,18 L22.4382823,14.6736 C22.4382823,13.3236 21.6355796,12.4488 20.4154715,12.4488 C19.6876877,12.4488 19.1525526,12.7404 18.8207688,13.2264 C18.5210931,12.7296 18.0287688,12.4488 17.3652012,12.4488 C16.6802282,12.4488 16.1772012,12.7188 15.8775255,13.1724 L15.8775255,12.6 L14.4968769,12.6 L14.4968769,18 L15.8775255,18 Z M24.9962282,20.16 L24.9962282,17.3628 C25.3815255,17.8596 25.9487688,18.1512 26.7300661,18.1512 C28.1642282,18.1512 29.3415255,16.9092 29.3415255,15.3 C29.3415255,13.6908 28.1642282,12.4488 26.7300661,12.4488 C25.9487688,12.4488 25.3815255,12.7404 24.9962282,13.2372 L24.9962282,12.6 L23.6155796,12.6 L23.6155796,20.16 L24.9962282,20.16 Z M26.4732012,16.8228 C25.6276877,16.8228 24.9962282,16.2072 24.9962282,15.3 C24.9962282,14.3928 25.6276877,13.7772 26.4732012,13.7772 C27.3294174,13.7772 27.9608769,14.3928 27.9608769,15.3 C27.9608769,16.2072 27.3294174,16.8228 26.4732012,16.8228 Z M31.6961201,18 L31.6961201,10.116 L30.3154715,10.116 L30.3154715,18 L31.6961201,18 Z M35.5062823,18.1512 C37.0795796,18.1512 38.3424985,16.9092 38.3424985,15.3 C38.3424985,13.6908 37.0795796,12.4488 35.5062823,12.4488 C33.932985,12.4488 32.6807688,13.6908 32.6807688,15.3 C32.6807688,16.9092 33.932985,18.1512 35.5062823,18.1512 Z M35.5062823,16.7904 C34.6928769,16.7904 34.0614174,16.1748 34.0614174,15.3 C34.0614174,14.4252 34.6928769,13.8096 35.5062823,13.8096 C36.3303904,13.8096 36.9618498,14.4252 36.9618498,15.3 C36.9618498,16.1748 36.3303904,16.7904 35.5062823,16.7904 Z M42.1205526,18 L44.0684444,12.6 L42.5914715,12.6 L41.4034715,16.2288 L40.0121201,12.6 L38.503039,12.6 L40.6970931,17.8272 C40.4402282,18.5508 40.0549309,18.8748 39.295039,18.864 L39.295039,20.16 C40.6542823,20.2356 41.564012,19.5552 42.1205526,18 Z M46.101958,18 L46.101958,14.9652 C46.101958,14.1552 46.5193634,13.7448 47.108012,13.7448 C47.685958,13.7448 48.007039,14.1336 48.007039,14.7708 L48.007039,18 L49.3876877,18 L49.3876877,14.9652 C49.3876877,14.1552 49.772985,13.7448 50.383039,13.7448 C50.960985,13.7448 51.2820661,14.1336 51.2820661,14.7708 L51.2820661,18 L52.6627147,18 L52.6627147,14.6736 C52.6627147,13.3236 51.860012,12.4488 50.6399039,12.4488 C49.9121201,12.4488 49.376985,12.7404 49.0452012,13.2264 C48.7455255,12.7296 48.2532012,12.4488 47.5896336,12.4488 C46.9046607,12.4488 46.4016336,12.7188 46.101958,13.1724 L46.101958,12.6 L44.7213093,12.6 L44.7213093,18 L46.101958,18 Z M56.4942823,18.1512 C57.5217417,18.1512 58.3244444,17.73 58.8274715,16.9956 L57.7143904,16.3476 C57.4789309,16.6608 57.0508228,16.8876 56.5156877,16.8876 C55.7879039,16.8876 55.1992553,16.5852 55.0066066,15.8724 L59.0415255,15.8724 C59.0736336,15.6888 59.095039,15.5052 59.095039,15.3 C59.095039,13.7124 57.9712553,12.4488 56.3872553,12.4488 C54.7069309,12.4488 53.5617417,13.6908 53.5617417,15.3 C53.5617417,16.9092 54.6962282,18.1512 56.4942823,18.1512 Z M57.7143904,14.7924 L54.9852012,14.7924 C55.1457417,14.1012 55.6487688,13.7016 56.3872553,13.7016 C56.9652012,13.7016 57.5431471,14.0148 57.7143904,14.7924 Z M61.4389309,18 L61.4389309,15.084 C61.4389309,14.1444 61.941958,13.7448 62.6162282,13.7448 C63.236985,13.7448 63.6757958,14.1228 63.6757958,14.8572 L63.6757958,18 L65.0564444,18 L65.0564444,14.6844 C65.0564444,13.248 64.1681201,12.4488 63.0336336,12.4488 C62.3165526,12.4488 61.760012,12.7188 61.4389309,13.2048 L61.4389309,12.6 L60.0582823,12.6 L60.0582823,18 L61.4389309,18 Z M69.2947147,18 L69.2947147,16.7364 C68.5027147,16.7796 68.0853093,16.7688 68.0853093,16.1856 L68.0853093,13.9392 L69.2947147,13.9392 L69.2947147,12.6 L68.0853093,12.6 L68.0853093,11.088 L66.7046607,11.5092 L66.7046607,12.6 L65.7735255,12.6 L65.7735255,13.9392 L66.7046607,13.9392 L66.7046607,16.1856 C66.7046607,17.6436 67.3575255,18.216 69.2947147,18 Z M10.8258498,32.5512 C11.8747147,32.5512 12.7844444,31.9896 13.2446607,31.1472 L12.045958,30.456 C11.8319039,30.8988 11.3716877,31.1688 10.8151471,31.1688 C9.99103904,31.1688 9.38098498,30.5532 9.38098498,29.7 C9.38098498,28.836 9.99103904,28.2204 10.8151471,28.2204 C11.360985,28.2204 11.8212012,28.5012 12.0352553,28.944 L13.2232553,28.242 C12.7844444,27.4104 11.8747147,26.8488 10.8258498,26.8488 C9.19903904,26.8488 8.00033634,28.0908 8.00033634,29.7 C8.00033634,31.3092 9.19903904,32.5512 10.8258498,32.5512 Z M15.3530931,32.4 L15.3530931,29.484 C15.3530931,28.5444 15.8561201,28.1448 16.5303904,28.1448 C17.1511471,28.1448 17.589958,28.5228 17.589958,29.2572 L17.589958,32.4 L18.9706066,32.4 L18.9706066,29.0844 C18.9706066,27.648 18.0822823,26.8488 16.9477958,26.8488 C16.2307147,26.8488 15.6741742,27.1188 15.3530931,27.6048 L15.3530931,24.84 L13.9724444,24.84 L13.9724444,32.4 L15.3530931,32.4 Z M22.8021742,32.5512 C23.8296336,32.5512 24.6323363,32.13 25.1353634,31.3956 L24.0222823,30.7476 C23.7868228,31.0608 23.3587147,31.2876 22.8235796,31.2876 C22.0957958,31.2876 21.5071471,30.9852 21.3144985,30.2724 L25.3494174,30.2724 C25.3815255,30.0888 25.4029309,29.9052 25.4029309,29.7 C25.4029309,28.1124 24.2791471,26.8488 22.6951471,26.8488 C21.0148228,26.8488 19.8696336,28.0908 19.8696336,29.7 C19.8696336,31.3092 21.0041201,32.5512 22.8021742,32.5512 Z M24.0222823,29.1924 L21.2930931,29.1924 C21.4536336,28.5012 21.9566607,28.1016 22.6951471,28.1016 C23.2730931,28.1016 23.851039,28.4148 24.0222823,29.1924 Z M28.8706066,32.5512 C29.9194715,32.5512 30.8292012,31.9896 31.2894174,31.1472 L30.0907147,30.456 C29.8766607,30.8988 29.4164444,31.1688 28.8599039,31.1688 C28.0357958,31.1688 27.4257417,30.5532 27.4257417,29.7 C27.4257417,28.836 28.0357958,28.2204 28.8599039,28.2204 C29.4057417,28.2204 29.865958,28.5012 30.080012,28.944 L31.268012,28.242 C30.8292012,27.4104 29.9194715,26.8488 28.8706066,26.8488 C27.2437958,26.8488 26.0450931,28.0908 26.0450931,29.7 C26.0450931,31.3092 27.2437958,32.5512 28.8706066,32.5512 Z M33.3978498,32.4 L33.3978498,29.9484 L35.3457417,32.4 L36.9511471,32.4 L34.7356877,29.6676 L36.8869309,27 L35.2387147,27 L33.3978498,29.376 L33.3978498,24.84 L32.0172012,24.84 L32.0172012,32.4 L33.3978498,32.4 Z" id="employmentcheck" fill="#FFFFFF" fill-rule="nonzero"></path>
                    </g>
                </g>
            </g>
        </g>
    </g>
</svg>