<?xml version="1.0" encoding="UTF-8"?>
<svg width="13px" height="18px" viewBox="0 0 13 18" version="1.1" xmlns="http://www.w3.org/2000/svg" xmlns:xlink="http://www.w3.org/1999/xlink">
    <!-- Generator: Sketch 63.1 (92452) - https://sketch.com -->
    <title>icon / 24 / info / ensure</title>
    <desc>Created with Sketch.</desc>
    <defs>
        <path d="M18.6,3 C18.8201686,3.01576588 18.9905638,3.19926836 18.9900014,3.42 L18.9900014,3.42 L18.9900014,16.37 L15.93,19.44 L14.93,20.44 L6.42,20.44 C6.18804041,20.44 6,20.2519596 6,20.02 L6,20.02 L6,3.42 C6,3.18804041 6.18804041,3 6.42,3 L6.42,3 Z M18.24,3.78 L6.79,3.78 L6.79,19.67 L14.37,19.67 L14.37,16.2 C14.37,15.9680404 14.5580404,15.78 14.79,15.78 L14.79,15.78 L18.24,15.78 L18.24,3.78 Z M15.66,8.81 L16.1,9.25 C16.1673089,9.31974188 16.1673089,9.43025812 16.1,9.5 L12.07,13.57 C11.9969008,13.6385812 11.8830992,13.6385812 11.81,13.57 L9.81,11.57 C9.74269112,11.5002581 9.74269112,11.3897419 9.81,11.32 L10.25,10.88 C10.3230992,10.8114188 10.4369008,10.8114188 10.51,10.88 L11.79,12.17 C11.8597419,12.2373089 11.9702581,12.2373089 12.04,12.17 L15.41,8.81 C15.4797419,8.74269112 15.5902581,8.74269112 15.66,8.81 Z" id="path-1"></path>
    </defs>
    <g id="Symbols" stroke="none" stroke-width="1" fill="none" fill-rule="evenodd">
        <g id="left-bar-/-client" transform="translate(-22.000000, -299.000000)">
            <g id="client_nev">
                <g id="ensure" transform="translate(16.000000, 296.000000)">
                    <g id="icon-/-24-/-info-/-ensure">
                        <mask id="mask-2" fill="white">
                            <use xlink:href="#path-1"></use>
                        </mask>
                        <use id="Combined-Shape" fill="#768094" fill-rule="nonzero" xlink:href="#path-1"></use>
                        <rect id="Rectangle" fill="#8697A8" fill-rule="evenodd" mask="url(#mask-2)" x="0" y="0" width="24" height="24"></rect>
                    </g>
                </g>
            </g>
        </g>
    </g>
</svg>