<?xml version="1.0" encoding="UTF-8"?>
<svg width="36px" height="36px" viewBox="0 0 36 36" version="1.1" xmlns="http://www.w3.org/2000/svg" xmlns:xlink="http://www.w3.org/1999/xlink">
    <title>A7E58501-065A-4A9F-A529-C46F09E8B3B2</title>
    <g id="profile-view-mode" stroke="none" stroke-width="1" fill="none" fill-rule="evenodd">
        <g id="profile-view_mode_updated-1" transform="translate(-200.000000, -1146.000000)">
            <g id="Group-29" transform="translate(157.000000, 877.000000)">
                <g id="Group-27" transform="translate(43.000000, 178.000000)">
                    <g id="Group-20" transform="translate(0.000000, 87.000000)">
                        <g id="father" transform="translate(0.000000, 4.000000)">
                            <circle id="Oval" fill="#F3F7FD" cx="18" cy="18" r="18"></circle>
                            <path d="M21.5728723,18.1255338 L19.9144426,18.1255338 L19.9144426,17.4325162 C20.4034724,17.0396743 20.8928721,16.5486262 21.2655123,16.0165349 C21.2712811,16.0121549 21.2756144,16.006303 21.2799388,16.0004601 C21.2986985,15.9726905 21.3189026,15.9449209 21.3347736,15.9171513 C21.4588695,15.734459 21.5627702,15.5546927 21.6450223,15.3778433 C21.6666621,15.332536 21.6868662,15.2857657 21.7070703,15.2404583 C21.7474698,15.1498437 21.7806648,15.059229 21.8080822,14.9700773 C21.8095266,14.9656884 21.8109622,14.9613084 21.8124066,14.9569195 C21.8225087,14.921844 21.8326107,14.8882315 21.8412684,14.85461 C21.849926,14.8268405 21.8571393,14.7990709 21.8629169,14.7713013 C21.8701302,14.7420776 21.875899,14.7143081 21.8816766,14.6850755 C21.8874455,14.65 21.8946587,14.6163786 21.8989919,14.5813031 C21.9047608,14.5476905 21.909094,14.512615 21.911974,14.4789936 C21.9206317,14.4117685 21.9235205,14.3445345 21.9235205,14.2773095 L21.9235205,11.5880751 C21.9235205,11.1993098 21.8614725,10.8207674 21.7460342,10.4656147 C21.5887432,9.97745689 21.3304491,9.53315241 20.9898942,9.15899893 C20.9595968,9.1253864 20.9278462,9.09176495 20.8961044,9.05961538 C20.7359333,8.89592379 20.5584382,8.74684402 20.367961,8.61676495 C20.2914865,8.5641517 20.2121232,8.51445547 20.1313155,8.46769409 C19.9292918,8.35076388 19.7128417,8.25430626 19.484845,8.17830341 C19.3621934,8.13738497 19.236653,8.10376352 19.1096682,8.07745691 C19.0995662,8.07453989 19.0894641,8.07307692 19.079362,8.07161395 C18.9898967,8.05261325 18.8975425,8.03653846 18.8051971,8.02630663 C18.8051971,8.02630663 18.8051971,8.02630663 18.8037527,8.02630663 C18.6652214,8.00876888 18.5252545,8 18.3838344,8 L17.6147211,8 C16.639251,8 15.7532462,8.40338605 15.1139977,9.05376352 C14.4733048,9.70268694 14.0764795,10.5986107 14.0764795,11.5866122 L14.0764795,14.1691481 C14.0764795,14.2042326 14.0779239,14.2378451 14.0793683,14.2729206 C14.0808128,14.2963013 14.0822484,14.3211538 14.0851372,14.3445345 C14.0937948,14.4600018 14.1125546,14.5769231 14.1428607,14.6967703 C14.1515184,14.7347628 14.1616205,14.7727642 14.1717137,14.8107657 C14.1746025,14.8209975 14.1774914,14.8326923 14.1832602,14.8458412 C14.1948067,14.8853055 14.2063531,14.9247699 14.2207796,14.9642254 C14.2352061,15.0066158 14.2510858,15.0489971 14.2669567,15.0928415 C14.2669567,15.0943045 14.2684011,15.0957674 14.2698455,15.0986934 C14.2871609,15.1440007 14.3059206,15.1878451 14.3246803,15.2331524 C14.3708486,15.3413048 14.4242389,15.4509202 14.4848513,15.5619986 C14.5007222,15.5912311 14.5180375,15.6219177 14.5339084,15.6511503 C14.5570014,15.6906147 14.5786411,15.7286161 14.601734,15.7680716 C14.9943318,16.4239084 15.5536621,17.0413424 16.0855574,17.5016057 L16.0855574,18.1255338 L14.4271277,18.1255338 C12.5367997,18.1255338 11,19.6835388 11,21.5966877 L11,26.8538462 C11,26.934229 11.0649368,27 11.1443001,27 L13.4413705,27 L13.4413705,23.6766414 C13.4413705,23.5959285 13.5059815,23.5304875 13.5856706,23.5304875 C13.6653598,23.5304875 13.7299708,23.5959285 13.7299708,23.6766414 L13.7299708,27 L22.2700292,27 L22.2700292,23.6766414 C22.2700292,23.5959285 22.3346402,23.5304875 22.4143294,23.5304875 C22.4940185,23.5304875 22.5586295,23.5959285 22.5586295,23.6766414 L22.5586295,27 L24.8556999,27 C24.9350632,27 25,26.934229 25,26.8538462 L25,21.5966877 C25,19.6835388 23.4632003,18.1255338 21.5728723,18.1255338 Z M14.9393914,15.7607657 L14.9393914,13.431073 C14.9393914,12.4255338 15.5353516,11.5106093 16.4228008,11.1539936 C16.7893199,11.0078397 17.1760432,10.9303828 17.5728685,10.9259939 L18.3838344,10.9259939 C18.7287138,10.9259939 19.0678244,10.9800791 19.3939352,11.0896944 L19.4170282,11.0970004 C20.3737387,11.4199946 21.0173115,12.3539199 21.0173115,13.4179241 L21.0173115,15.877687 C20.6011892,16.4627751 20.0289297,16.9997192 19.4849419,17.3965309 C19.461162,17.413908 19.4375142,17.4299828 19.4137607,17.4468872 C19.3527431,17.4902142 19.2921395,17.532105 19.232311,17.571605 C19.2104951,17.5860474 19.1887057,17.600454 19.1670571,17.6143968 C19.0877467,17.6653151 19.0093346,17.7138963 18.9336175,17.7572322 C18.7952624,17.8365892 18.6509975,17.8976858 18.5037733,17.9423955 C17.9217464,18.1189683 17.2914287,18.0273545 16.7764083,17.672059 C16.673133,17.6008197 16.5652073,17.5177964 16.4557668,17.4297687 C15.9386151,17.0123775 15.3581295,16.4089844 14.9393914,15.7607657 Z M16.613278,17.913609 C16.6336495,17.9276142 16.6548048,17.9397461 16.6754757,17.9530377 C16.7032278,17.9709412 16.7307508,17.9893977 16.7590225,18.0059988 C16.7751312,18.0154367 16.7916979,18.0235812 16.8079563,18.0325998 C16.8422699,18.0516719 16.876601,18.0706637 16.911584,18.0878625 C16.9279305,18.095882 16.9446204,18.1028043 16.961099,18.1104135 C16.9964166,18.126747 17.0317695,18.1428575 17.0676595,18.1572998 C17.0849837,18.1642667 17.1025456,18.1702702 17.119993,18.1768001 C17.1553899,18.1900649 17.1908396,18.2029818 17.2266944,18.2144268 C17.2450754,18.2202876 17.2636149,18.2253456 17.2821016,18.2307336 C17.3173928,18.2410189 17.352728,18.2508672 17.3883627,18.259413 C17.4076156,18.264025 17.4269478,18.2679857 17.44628,18.272098 C17.4815536,18.2795913 17.5168712,18.2865047 17.5524001,18.292303 C17.5721199,18.2955144 17.5918484,18.2982619 17.6116386,18.3009648 C17.6470619,18.3057908 17.6825116,18.3098854 17.7181022,18.3130343 C17.7382094,18.3148184 17.7582903,18.3163081 17.7784327,18.317557 C17.8138296,18.3197425 17.8492353,18.3210182 17.8847026,18.3215534 C17.8962138,18.3217318 17.9076722,18.3228469 17.9191923,18.3228469 C17.9292768,18.3228469 17.93937,18.3219905 17.9494545,18.3218567 C17.9769511,18.321482 18.0044037,18.3205186 18.0318915,18.3191538 C18.0555482,18.3179763 18.0791784,18.3164241 18.1028262,18.3145062 C18.1308336,18.3122404 18.1587971,18.3095464 18.1867517,18.3062458 C18.209281,18.3035785 18.2317222,18.3003939 18.2542074,18.2970398 C18.2832806,18.2927312 18.3122833,18.2881282 18.3412508,18.2826867 C18.3620626,18.2787706 18.3827864,18.2742033 18.4035365,18.2696984 C18.4338163,18.2631329 18.4640609,18.2564425 18.4941645,18.248637 C18.5132237,18.2436951 18.5321243,18.237977 18.5511042,18.2325355 C18.5823792,18.2235704 18.6136014,18.2146231 18.644621,18.204302 C18.6622798,18.1984234 18.679736,18.1916349 18.6973067,18.1853281 C18.7290397,18.1739276 18.7607903,18.1626878 18.7921974,18.1498512 C18.8096977,18.1427058 18.8269073,18.1344454 18.8443019,18.126863 C18.8750925,18.1134019 18.9059712,18.1003423 18.9363742,18.0854807 C18.9718239,18.0682016 19.0067364,18.0491474 19.0416048,18.0299861 C19.0530104,18.0236971 19.0647066,18.018318 19.0760505,18.0118239 C19.252339,17.9108436 19.4390555,17.7893104 19.6258424,17.6541466 L19.6258424,18.560329 C19.6258424,19.0629559 19.443239,19.5186786 19.1485,19.8486398 C18.8539988,20.1781551 18.447732,20.3821496 18,20.3821496 C17.552268,20.3821496 17.1460012,20.178155 16.8515,19.8486399 C16.5567611,19.5186786 16.3741576,19.0629559 16.3741576,18.560329 L16.3741576,17.7380709 C16.4556523,17.8010944 16.5357114,17.8600234 16.613278,17.913609 Z" id="Shape" fill="#0059B2"></path>
                        </g>
                    </g>
                </g>
            </g>
        </g>
    </g>
</svg>