<?xml version="1.0" encoding="UTF-8"?>
<svg width="32px" height="32px" viewBox="0 0 32 32" version="1.1" xmlns="http://www.w3.org/2000/svg" xmlns:xlink="http://www.w3.org/1999/xlink">
    <title>evening shift</title>
    <g id="inprogress" stroke="none" stroke-width="1" fill="none" fill-rule="evenodd">
        <g id="roster_01A" transform="translate(-176.000000, -426.000000)" fill="#FFB9BE">
            <g id="Group-10" transform="translate(176.000000, 246.000000)">
                <g id="evening-shift" transform="translate(0.000000, 180.000000)">
                    <rect id="Rectangle" opacity="0.200000003" x="0" y="0" width="32" height="32" rx="16"></rect>
                    <g id="noun_crescent-moon_3271679" transform="translate(9.000000, 9.000000)">
                        <g id="Group" transform="translate(0.109702, 0.122044)">
                            <path d="M9.099504,0.2938524 L9.10003733,0.2938524 C9.69751467,0.295319067 10.2847027,0.412183067 10.850732,0.5987696 C8.78292933,1.56574467 7.4357084,3.63251573 7.43496013,5.93437067 C7.43718413,8.238136 8.787976,10.3053627 10.858872,11.269972 C10.2901733,11.457312 9.70030533,11.574408 9.10003733,11.5748893 C5.97904467,11.5748893 3.45190467,9.050868 3.45190467,5.93411333 C3.45190467,2.8175392 5.9787616,0.293877733 9.099512,0.293594533 L9.099504,0.2938524 Z" id="Path"></path>
                            <path d="M2.52228854,0.877955867 L2.9767765,1.24958715 C3.03601372,1.29805441 3.11573576,1.31467954 3.18987181,1.29402575 L3.75842713,1.13648192 L3.53985768,1.67644044 C3.51127236,1.74664678 3.51963189,1.8261922 3.56221292,1.88916276 L3.8902976,2.37257721 L3.3007492,2.33486103 C3.22413473,2.32989932 3.14993154,2.36227766 3.10225314,2.42147418 L2.73629659,2.87795587 L2.59073498,2.31466801 C2.57175101,2.24137436 2.51731935,2.18196033 2.44517568,2.15578502 L1.8902976,1.9542435 L2.39041343,1.64410731 C2.45529903,1.60375862 2.49589582,1.53463461 2.49901591,1.45919025 L2.52228854,0.877955867 Z" id="Path"></path>
                            <path d="M11.4151896,2.22139727 L11.8696776,2.59302855 C11.9289148,2.64149581 12.0086368,2.65812094 12.0827729,2.63746715 L12.6513282,2.47992332 L12.4327587,3.01988184 C12.4041734,3.09008818 12.412533,3.1696336 12.455114,3.23260416 L12.7831987,3.71601861 L12.1936503,3.67830243 C12.1170358,3.67334072 12.0428326,3.70571906 11.9951542,3.76491558 L11.6291977,4.22139727 L11.483636,3.65810941 C11.4646521,3.58481576 11.4102204,3.52540173 11.3380767,3.49922642 L10.7831987,3.2976849 L11.2833145,2.98754871 C11.3482001,2.94720002 11.3887969,2.87807601 11.391917,2.80263165 L11.4151896,2.22139727 Z" id="Path"></path>
                            <path d="M11.4151896,8.22139727 L11.8696776,8.59302855 C11.9289148,8.64149581 12.0086368,8.65812094 12.0827729,8.63746715 L12.6513282,8.47992332 L12.4327587,9.01988184 C12.4041734,9.09008818 12.412533,9.1696336 12.455114,9.23260416 L12.7831987,9.71601861 L12.1936503,9.67830243 C12.1170358,9.67334072 12.0428326,9.70571906 11.9951542,9.76491558 L11.6291977,10.2213973 L11.483636,9.65810941 C11.4646521,9.58481576 11.4102204,9.52540173 11.3380767,9.49922642 L10.7831987,9.2976849 L11.2833145,8.98754871 C11.3482001,8.94720002 11.3887969,8.87807601 11.391917,8.80263165 L11.4151896,8.22139727 Z" id="Path"></path>
                            <path d="M1.52228854,10.8779559 L1.9767765,11.2495871 C2.03601372,11.2980544 2.11573576,11.3146795 2.18987181,11.2940257 L2.75842713,11.1364819 L2.53985768,11.6764404 C2.51127236,11.7466468 2.51963189,11.8261922 2.56221292,11.8891628 L2.8902976,12.3725772 L2.3007492,12.334861 C2.22413473,12.3298993 2.14993154,12.3622777 2.10225314,12.4214742 L1.73629659,12.8779559 L1.59073498,12.314668 C1.57175101,12.2413744 1.51731935,12.1819603 1.44517568,12.155785 L0.8902976,11.9542435 L1.39041343,11.6441073 C1.45529903,11.6037586 1.49589582,11.5346346 1.49901591,11.4591902 L1.52228854,10.8779559 Z" id="Path"></path>
                        </g>
                    </g>
                </g>
            </g>
        </g>
    </g>
</svg>