<?xml version="1.0" encoding="UTF-8"?>
<svg width="16px" height="16px" viewBox="0 0 16 16" version="1.1" xmlns="http://www.w3.org/2000/svg" xmlns:xlink="http://www.w3.org/1999/xlink">
    <!-- Generator: sketchtool 61.2 (101010) - https://sketch.com -->
    <title>35EA91EE-A4BF-4CEF-AC0E-0685F8741911</title>
    <desc>Created with sketchtool.</desc>
    <g id="⛑-in-progress-screen" stroke="none" stroke-width="1" fill="none" fill-rule="evenodd">
        <g id="Tasks_Excel-download" transform="translate(-684.000000, -300.000000)" fill="#0059B2">
            <g id="Security-Guard-Copy" transform="translate(668.000000, 292.000000)">
                <g id="Group-25" transform="translate(16.000000, 8.000000)">
                    <g id="Group-24">
                        <g id="xlsx-glyph-32" transform="translate(0.133069, 0.130655)">
                            <path d="M1.45959651,13.8535395 L1.45959651,14.808956 C1.45959651,15.095581 1.65420938,15.2866643 1.94612868,15.2866643 L13.6229008,15.2866643 C13.9148201,15.2866643 14.1094329,15.095581 14.1094329,14.808956 L14.1094329,13.8535395 L1.45959651,13.8535395 Z" id="Path"></path>
                            <polygon id="Path" points="10.7037077 0.764333215 10.7037077 3.34395782 13.3309815 3.34395782"></polygon>
                            <path d="M15.0824973,6.21020737 L14.1094329,6.21020737 L14.1094329,4.29937433 L10.2171756,4.29937433 C9.92525627,4.29937433 9.7306434,4.10829103 9.7306434,3.82166608 L9.7306434,0 L1.94612868,0 C1.65420938,0 1.45959651,0.191083304 1.45959651,0.477708259 L1.45959651,6.21020737 L0.48653217,6.21020737 C0.194612868,6.21020737 0,6.40129068 0,6.68791563 L0,12.4204147 C0,12.7070397 0.194612868,12.898123 0.48653217,12.898123 L15.0824973,12.898123 C15.3744166,12.898123 15.5690294,12.7070397 15.5690294,12.4204147 L15.5690294,6.68791563 C15.5690294,6.40129068 15.3744166,6.21020737 15.0824973,6.21020737 Z M4.67070883,10.98729 L4.13552344,10.1274151 L3.55168484,10.98729 L2.72458015,10.98729 L3.64899127,9.60193601 L2.77323337,8.26435289 L3.60033806,8.26435289 L4.08687023,9.12422775 L4.5734024,8.26435289 L5.4491603,8.26435289 L4.5734024,9.64970684 L5.49781352,10.98729 L4.67070883,10.98729 Z M7.63855507,10.98729 L5.83838604,10.98729 L5.83838604,8.26435289 L6.56818429,8.26435289 L6.56818429,10.4140401 L7.63855507,10.4140401 L7.63855507,10.98729 Z M8.80623228,9.12422775 C8.85488549,9.17199858 9.00084514,9.21976941 9.24411123,9.36308188 C9.48737731,9.45862354 9.63333696,9.60193601 9.7306434,9.69747767 C9.82794983,9.79301932 9.87660305,9.98410262 9.87660305,10.1751859 C9.87660305,10.3662692 9.82794983,10.5095817 9.7306434,10.6051234 C9.63333696,10.700665 9.53603053,10.8439775 9.34141766,10.8917483 C9.14680479,10.9395191 9.00084514,10.98729 8.75757906,10.98729 C8.56296619,10.98729 8.41700654,10.98729 8.27104689,10.9395191 C8.12508724,10.8917483 8.0277808,10.8917483 7.88182115,10.7962067 L7.88182115,10.1274151 C8.0277808,10.2229568 8.17374045,10.2707276 8.31970011,10.3184984 C8.46565976,10.3662692 8.61161941,10.3662692 8.75757906,10.3662692 C8.85488549,10.3662692 8.95219193,10.3662692 9.00084514,10.3184984 C9.04949836,10.2707276 9.09815158,10.2229568 9.09815158,10.1751859 C9.09815158,10.1274151 9.09815158,10.1274151 9.04949836,10.0796443 C9.00084514,10.0318734 9.00084514,10.0318734 8.95219193,9.98410262 C8.90353871,9.9363318 8.80623228,9.88856097 8.56296619,9.79301932 C8.36835332,9.69747767 8.22239367,9.64970684 8.17374045,9.55416519 C8.12508724,9.45862354 8.0277808,9.41085271 7.97912759,9.31531106 C7.93047437,9.21976941 7.93047437,9.12422775 7.93047437,8.98091528 C7.93047437,8.74206115 8.0277808,8.55097784 8.22239367,8.40766537 C8.41700654,8.26435289 8.66027262,8.21658206 9.00084514,8.21658206 C9.29276445,8.21658206 9.58468375,8.26435289 9.87660305,8.40766537 L9.63333696,8.98091528 C9.39007088,8.88537363 9.14680479,8.78983197 8.95219193,8.78983197 C8.85488549,8.78983197 8.80623228,8.78983197 8.75757906,8.8376028 C8.70892584,8.88537363 8.70892584,8.93314445 8.70892584,8.98091528 C8.70892584,9.0286861 8.75757906,9.07645693 8.80623228,9.12422775 Z M11.9686914,10.98729 L11.433506,10.1274151 L10.8983206,10.98729 L10.0712159,10.98729 L10.995627,9.60193601 L10.1198691,8.26435289 L10.9469738,8.26435289 L11.433506,9.12422775 L11.9200382,8.26435289 L12.7957961,8.26435289 L11.9200382,9.64970684 L12.8444493,10.98729 L11.9686914,10.98729 Z" id="Shape"></path>
                        </g>
                    </g>
                </g>
            </g>
        </g>
    </g>
</svg>