<?xml version="1.0" encoding="UTF-8"?>
<svg width="40px" height="40px" viewBox="0 0 40 40" version="1.1" xmlns="http://www.w3.org/2000/svg" xmlns:xlink="http://www.w3.org/1999/xlink">
    <!-- Generator: sketchtool 61.2 (101010) - https://sketch.com -->
    <title>D28C375C-ED58-4A96-A411-DE05188CC528</title>
    <desc>Created with sketchtool.</desc>
    <defs>
        <rect id="path-1" x="0" y="0" width="40" height="40" rx="19.5"></rect>
    </defs>
    <g id="⛑-in-progress-screen" stroke="none" stroke-width="1" fill="none" fill-rule="evenodd">
        <g id="excel-uploade_5" transform="translate(-160.000000, -64.000000)">
            <g id="section-title" transform="translate(160.000000, 64.000000)">
                <g id="icon-/-40-/-info-/-address">
                    <g id="icon-/-40-/-info-/-container">
                        <mask id="mask-2" fill="white">
                            <use xlink:href="#path-1"></use>
                        </mask>
                        <use fill="#4BB752" xlink:href="#path-1"></use>
                    </g>
                    <g id="Group-25" transform="translate(8.000000, 8.000000)" fill="#E5EEF7">
                        <g id="Group-24">
                            <g id="xlsx-glyph-32" transform="translate(0.201219, 0.201219)">
                                <path d="M2.20712266,21.335519 L2.20712266,22.8069341 C2.20712266,23.2483587 2.50140568,23.5426417 2.94283021,23.5426417 L20.5998115,23.5426417 C21.041236,23.5426417 21.335519,23.2483587 21.335519,22.8069341 L21.335519,21.335519 L2.20712266,21.335519 Z" id="Path"></path>
                                <polygon id="Path" points="16.1855662 1.17713208 16.1855662 5.14995287 20.1583869 5.14995287"></polygon>
                                <path d="M22.8069341,9.56419818 L21.335519,9.56419818 L21.335519,6.62136797 L15.4498586,6.62136797 C15.0084341,6.62136797 14.7141511,6.32708495 14.7141511,5.88566042 L14.7141511,0 L2.94283021,0 C2.50140568,0 2.20712266,0.294283021 2.20712266,0.735707553 L2.20712266,9.56419818 L0.735707553,9.56419818 C0.294283021,9.56419818 0,9.8584812 0,10.2999057 L0,19.1283964 C0,19.5698209 0.294283021,19.8641039 0.735707553,19.8641039 L22.8069341,19.8641039 C23.2483587,19.8641039 23.5426417,19.5698209 23.5426417,19.1283964 L23.5426417,10.2999057 C23.5426417,9.8584812 23.2483587,9.56419818 22.8069341,9.56419818 Z M7.0627925,16.9212737 L6.2535142,15.5970001 L5.37066513,16.9212737 L4.11996229,16.9212737 L5.51780664,14.7877218 L4.19353305,12.7277407 L5.44423589,12.7277407 L6.17994344,14.0520143 L6.91565099,12.7277407 L8.23992459,12.7277407 L6.91565099,14.8612926 L8.31349534,16.9212737 L7.0627925,16.9212737 Z M11.5506086,16.9212737 L8.82849063,16.9212737 L8.82849063,12.7277407 L9.93205196,12.7277407 L9.93205196,16.0384246 L11.5506086,16.0384246 L11.5506086,16.9212737 Z M13.3163067,14.0520143 C13.3898775,14.125585 13.6105897,14.1991558 13.9784435,14.419868 C14.3462973,14.5670095 14.5670095,14.7877218 14.7141511,14.9348633 C14.8612926,15.0820048 14.9348633,15.3762878 14.9348633,15.6705709 C14.9348633,15.9648539 14.8612926,16.1855662 14.7141511,16.3327077 C14.5670095,16.4798492 14.419868,16.7005614 14.125585,16.7741322 C13.831302,16.847703 13.6105897,16.9212737 13.2427359,16.9212737 C12.9484529,16.9212737 12.7277407,16.9212737 12.5070284,16.847703 C12.2863161,16.7741322 12.1391746,16.7741322 11.9184624,16.6269907 L11.9184624,15.5970001 C12.1391746,15.7441416 12.3598869,15.8177124 12.5805991,15.8912831 C12.8013114,15.9648539 13.0220237,15.9648539 13.2427359,15.9648539 C13.3898775,15.9648539 13.537019,15.9648539 13.6105897,15.8912831 C13.6841605,15.8177124 13.7577312,15.7441416 13.7577312,15.6705709 C13.7577312,15.5970001 13.7577312,15.5970001 13.6841605,15.5234294 C13.6105897,15.4498586 13.6105897,15.4498586 13.537019,15.3762878 C13.4634482,15.3027171 13.3163067,15.2291463 12.9484529,15.0820048 C12.6541699,14.9348633 12.4334576,14.8612926 12.3598869,14.7141511 C12.2863161,14.5670095 12.1391746,14.4934388 12.0656039,14.3462973 C11.9920331,14.1991558 11.9920331,14.0520143 11.9920331,13.831302 C11.9920331,13.4634482 12.1391746,13.1691652 12.4334576,12.9484529 C12.7277407,12.7277407 13.0955944,12.6541699 13.6105897,12.6541699 C14.0520143,12.6541699 14.4934388,12.7277407 14.9348633,12.9484529 L14.5670095,13.831302 C14.1991558,13.6841605 13.831302,13.537019 13.537019,13.537019 C13.3898775,13.537019 13.3163067,13.537019 13.2427359,13.6105897 C13.1691652,13.6841605 13.1691652,13.7577312 13.1691652,13.831302 C13.1691652,13.9048727 13.2427359,13.9784435 13.3163067,14.0520143 Z M18.0984058,16.9212737 L17.2891275,15.5970001 L16.4798492,16.9212737 L15.2291463,16.9212737 L16.6269907,14.7877218 L15.3027171,12.7277407 L16.5534199,12.7277407 L17.2891275,14.0520143 L18.024835,12.7277407 L19.3491086,12.7277407 L18.024835,14.8612926 L19.4226794,16.9212737 L18.0984058,16.9212737 Z" id="Shape"></path>
                            </g>
                        </g>
                    </g>
                </g>
            </g>
        </g>
    </g>
</svg>