<?xml version="1.0" encoding="UTF-8"?>
<svg width="48px" height="46px" viewBox="0 0 48 46" version="1.1" xmlns="http://www.w3.org/2000/svg" xmlns:xlink="http://www.w3.org/1999/xlink">
    <!-- Generator: Sketch 61.2 (89653) - https://sketch.com -->
    <title>Group 25</title>
    <desc>Created with Sketch.</desc>
    <g id="📤-excel-uploade" stroke="none" stroke-width="1" fill="none" fill-rule="evenodd">
        <g id="excel-uploade_7" transform="translate(-254.000000, -223.000000)" fill="#0059B2">
            <g id="Group-2" transform="translate(160.000000, 128.000000)">
                <g id="Group-3" transform="translate(40.000000, 40.659280)">
                    <g id="Group-25">
                        <g id="Group-24">
                            <g id="Group-25" transform="translate(54.000000, 54.000000)">
                                <g id="Group-24">
                                    <g id="xlsx-glyph-32" transform="translate(0.399206, 0.391966)">
                                        <path d="M4.37878953,41.5606186 L4.37878953,44.4268681 C4.37878953,45.286743 4.96262813,45.8599929 5.83838604,45.8599929 L40.8687023,45.8599929 C41.7444602,45.8599929 42.3282988,45.286743 42.3282988,44.4268681 L42.3282988,41.5606186 L4.37878953,41.5606186 Z" id="Path"></path>
                                        <polygon id="Path" points="32.1111232 2.29299965 32.1111232 10.0318734 39.9929444 10.0318734"></polygon>
                                        <path d="M45.2474918,18.6306221 L42.3282988,18.6306221 L42.3282988,12.898123 L30.6515267,12.898123 C29.7757688,12.898123 29.1919302,12.3248731 29.1919302,11.4649982 L29.1919302,0 L5.83838604,0 C4.96262813,0 4.37878953,0.573249911 4.37878953,1.43312478 L4.37878953,18.6306221 L1.45959651,18.6306221 C0.583838604,18.6306221 0,19.203872 0,20.0637469 L0,37.2612442 C0,38.1211191 0.583838604,38.694369 1.45959651,38.694369 L45.2474918,38.694369 C46.1232497,38.694369 46.7070883,38.1211191 46.7070883,37.2612442 L46.7070883,20.0637469 C46.7070883,19.203872 46.1232497,18.6306221 45.2474918,18.6306221 Z M14.0121265,32.9618699 L12.4065703,30.3822453 L10.6550545,32.9618699 L8.17374045,32.9618699 L10.9469738,28.805808 L8.31970011,24.7930587 L10.8010142,24.7930587 L12.2606107,27.3726833 L13.7202072,24.7930587 L16.3474809,24.7930587 L13.7202072,28.9491205 L16.4934406,32.9618699 L14.0121265,32.9618699 Z M22.9156652,32.9618699 L17.5151581,32.9618699 L17.5151581,24.7930587 L19.7045529,24.7930587 L19.7045529,31.2421202 L22.9156652,31.2421202 L22.9156652,32.9618699 Z M26.4186968,27.3726833 C26.5646565,27.5159957 27.0025354,27.6593082 27.7323337,28.0892457 C28.4621319,28.3758706 28.9000109,28.805808 29.1919302,29.092433 C29.4838495,29.379058 29.6298091,29.9523079 29.6298091,30.5255578 C29.6298091,31.0988077 29.4838495,31.5287451 29.1919302,31.8153701 C28.9000109,32.101995 28.6080916,32.5319325 28.024253,32.6752449 C27.4404144,32.8185574 27.0025354,32.9618699 26.2727372,32.9618699 C25.6888986,32.9618699 25.2510196,32.9618699 24.8131407,32.8185574 C24.3752617,32.6752449 24.0833424,32.6752449 23.6454635,32.38862 L23.6454635,30.3822453 C24.0833424,30.6688703 24.5212214,30.8121827 24.9591003,30.9554952 C25.3969793,31.0988077 25.8348582,31.0988077 26.2727372,31.0988077 C26.5646565,31.0988077 26.8565758,31.0988077 27.0025354,30.9554952 C27.1484951,30.8121827 27.2944547,30.6688703 27.2944547,30.5255578 C27.2944547,30.3822453 27.2944547,30.3822453 27.1484951,30.2389328 C27.0025354,30.0956203 27.0025354,30.0956203 26.8565758,29.9523079 C26.7106161,29.8089954 26.4186968,29.6656829 25.6888986,29.379058 C25.10506,29.092433 24.667181,28.9491205 24.5212214,28.6624956 C24.3752617,28.3758706 24.0833424,28.2325581 23.9373828,27.9459332 C23.7914231,27.6593082 23.7914231,27.3726833 23.7914231,26.9427458 C23.7914231,26.2261834 24.0833424,25.6529335 24.667181,25.2229961 C25.2510196,24.7930587 25.9808179,24.6497462 27.0025354,24.6497462 C27.8782933,24.6497462 28.7540512,24.7930587 29.6298091,25.2229961 L28.9000109,26.9427458 C28.1702126,26.6561209 27.4404144,26.3694959 26.8565758,26.3694959 C26.5646565,26.3694959 26.4186968,26.3694959 26.2727372,26.5128084 C26.1267775,26.6561209 26.1267775,26.7994334 26.1267775,26.9427458 C26.1267775,27.0860583 26.2727372,27.2293708 26.4186968,27.3726833 Z M35.9060741,32.9618699 L34.300518,30.3822453 L32.6949618,32.9618699 L30.2136478,32.9618699 L32.9868811,28.805808 L30.3596074,24.7930587 L32.8409215,24.7930587 L34.300518,27.3726833 L35.7601145,24.7930587 L38.3873882,24.7930587 L35.7601145,28.9491205 L38.5333479,32.9618699 L35.9060741,32.9618699 Z" id="Shape"></path>
                                    </g>
                                </g>
                            </g>
                        </g>
                    </g>
                </g>
            </g>
        </g>
    </g>
</svg>