<?xml version="1.0" encoding="UTF-8"?>
<svg width="158px" height="161px" viewBox="0 0 158 161" version="1.1" xmlns="http://www.w3.org/2000/svg" xmlns:xlink="http://www.w3.org/1999/xlink">
    <!-- Generator: Sketch 61.2 (89653) - https://sketch.com -->
    <title>Group 3</title>
    <desc>Created with Sketch.</desc>
    <g id="📤-excel-uploade" stroke="none" stroke-width="1" fill="none" fill-rule="evenodd">
        <g id="excel-uploade_5" transform="translate(-199.000000, -351.000000)">
            <g id="Group-2" transform="translate(160.000000, 128.000000)">
                <g id="Group-3" transform="translate(40.000000, 224.000000)">
                    <path d="M8,0 L148,0 C152.418278,-8.11624501e-16 156,3.581722 156,8 L156,151 C156,155.418278 152.418278,159 148,159 L8,159 C3.581722,159 5.41083001e-16,155.418278 0,151 L0,8 C-5.41083001e-16,3.581722 3.581722,8.11624501e-16 8,0 Z" id="Rectangle" stroke-opacity="0.249016608" stroke="#0058B8" stroke-width="2" fill-opacity="0.02" fill="#0059B2" stroke-dasharray="5"></path>
                    <g id="Group-10" transform="translate(25.000000, 24.000000)">
                        <g id="Group-9" transform="translate(25.000000, 0.000000)">
                            <rect id="Rectangle" fill="#FFFFFF" opacity="0" x="0" y="0" width="56" height="56"></rect>
                            <g id="noun_Upload_2785157" transform="translate(0.000000, 8.400000)" fill="#0059B2" opacity="0.248976935">
                                <g id="Group">
                                    <path d="M39.1876923,24.5723077 L39.6184615,24.1353846 C39.8495717,23.9045314 39.9794297,23.5912729 39.9794297,23.2646154 C39.9794297,22.9379578 39.8495717,22.6246994 39.6184615,22.3938462 L29.1569231,11.9323077 C28.676877,11.4551094 27.9015846,11.4551094 27.4215385,11.9323077 L16.96,22.3938462 C16.7288898,22.6246994 16.5990318,22.9379578 16.5990318,23.2646154 C16.5990318,23.5912729 16.7288898,23.9045314 16.96,24.1353846 L17.3907692,24.5723077 C17.6216225,24.8034179 17.9348809,24.9332759 18.2615385,24.9332759 C18.588196,24.9332759 18.9014545,24.8034179 19.1323077,24.5723077 L26.7692308,16.9723077 L26.7692308,36.8184615 C26.7692308,37.4981966 27.3202649,38.0492308 28,38.0492308 L28.6153846,38.0492308 C29.2951197,38.0492308 29.8461538,37.4981966 29.8461538,36.8184615 L29.8461538,16.9723077 L37.4461538,24.5723077 C37.6770071,24.8034179 37.9902655,24.9332759 38.3169231,24.9332759 C38.6435806,24.9332759 38.9568391,24.8034179 39.1876923,24.5723077 Z" id="Path"></path>
                                    <path d="M48.4061538,17.7969231 C47.8519494,8.97489414 41.2805941,1.70359149 32.5594652,0.262325658 C23.8383362,-1.17894017 15.2769453,3.59150391 11.9138462,11.7661538 C5.0718756,12.7322424 0.143044002,18.8264541 0.629017867,25.7191834 C1.11499173,32.6119127 6.85016093,37.954256 13.76,37.9507692 L17.2307692,37.9507692 C18.0804381,37.9507692 18.7692308,37.2619765 18.7692308,36.4123077 C18.7692308,35.5626388 18.0804381,34.8738462 17.2307692,34.8738462 L13.7784615,34.8738462 C8.47460062,34.6945427 4.21815248,30.4336089 4.04443561,25.1295621 C3.87071875,19.8255152 7.83923798,15.2951993 13.12,14.7692308 C13.7338403,14.7257149 14.2632886,14.3219803 14.4676923,13.7415385 C17.0257271,6.43228005 24.4788093,2.03013627 32.1148749,3.3182756 C39.7509405,4.60641492 45.3474639,11.2099162 45.3661538,18.9538462 L45.3661538,19.0769231 C45.3628507,19.8495595 45.9353011,20.5037884 46.7015385,20.6030769 C50.3503423,21.0944223 53.0338151,24.2697353 52.9099424,27.9493882 C52.7860698,31.6290411 49.8951255,34.6166957 46.2215385,34.8615385 L46.0246154,34.8923077 L39.3846154,34.8923077 C38.5349465,34.8923077 37.8461538,35.5811004 37.8461538,36.4307692 C37.8461538,37.2804381 38.5349465,37.9692308 39.3846154,37.9692308 L46.3261538,37.9692308 C46.465727,37.9672935 46.6044057,37.9465952 46.7384615,37.9076923 C51.6665569,37.4274583 55.5461721,33.491847 55.9557407,28.5573762 C56.3653093,23.6229055 53.1876371,19.1015285 48.4061538,17.8153846 L48.4061538,17.7969231 Z" id="Path"></path>
                                </g>
                            </g>
                        </g>
                        <g id="drag-files-to-upload" transform="translate(0.208000, 74.240000)" fill-rule="nonzero">
                            <path d="M3.036,8.916 C4.056,8.916 4.824,8.46 5.304,7.728 L5.304,8.76 L6.348,8.76 L6.348,0.36 L5.304,0.36 L5.304,3.792 C4.824,3.06 4.056,2.604 3.036,2.604 C1.368,2.604 -2.13162821e-13,3.984 -2.13162821e-13,5.76 C-2.13162821e-13,7.536 1.368,8.916 3.036,8.916 Z M3.168,7.908 C1.968,7.908 1.044,6.984 1.044,5.76 C1.044,4.536 1.968,3.612 3.168,3.612 C4.38,3.612 5.304,4.536 5.304,5.76 C5.304,6.984 4.38,7.908 3.168,7.908 Z M8.976,8.76 L8.976,5.58 C8.976,4.164 9.948,3.708 10.848,3.744 L10.848,2.652 C10.092,2.652 9.36,2.928 8.976,3.768 L8.976,2.76 L7.932,2.76 L7.932,8.76 L8.976,8.76 Z M14.244,8.916 C15.264,8.916 16.032,8.46 16.512,7.728 L16.512,8.76 L17.556,8.76 L17.556,2.76 L16.512,2.76 L16.512,3.792 C16.032,3.06 15.264,2.604 14.244,2.604 C12.576,2.604 11.208,3.984 11.208,5.76 C11.208,7.536 12.576,8.916 14.244,8.916 Z M14.376,7.908 C13.176,7.908 12.252,6.984 12.252,5.76 C12.252,4.536 13.176,3.612 14.376,3.612 C15.588,3.612 16.512,4.536 16.512,5.76 C16.512,6.984 15.588,7.908 14.376,7.908 Z M22.092,11.316 C23.652,11.316 25.152,10.38 25.152,8.508 L25.152,2.76 L24.12,2.76 L24.12,3.792 C23.64,3.06 22.872,2.604 21.864,2.604 C20.16,2.604 18.804,3.984 18.804,5.724 C18.804,7.476 20.16,8.856 21.864,8.856 C22.872,8.856 23.64,8.388 24.12,7.656 L24.12,8.508 C24.12,9.636 23.364,10.344 22.116,10.344 C20.94,10.344 20.436,9.9 20.16,9.336 L19.248,9.852 C19.74,10.8 20.748,11.316 22.092,11.316 Z M21.984,7.86 C20.772,7.86 19.848,6.936 19.848,5.724 C19.848,4.524 20.772,3.6 21.984,3.6 C23.196,3.6 24.12,4.524 24.12,5.724 C24.12,6.936 23.196,7.86 21.984,7.86 Z M31.236,8.76 L31.236,3.768 L33.456,3.768 L33.456,8.76 L34.5,8.76 L34.5,2.76 L31.236,2.76 L31.236,2.58 C31.236,1.536 31.776,1.212 32.82,1.212 C33.204,1.212 33.6,1.248 34.056,1.308 L34.056,0.36 C33.6,0.264 33.204,0.204 32.82,0.204 C31.104,0.204 30.192,0.984 30.192,2.58 L30.192,2.76 L29.232,2.76 L29.232,3.768 L30.192,3.768 L30.192,8.76 L31.236,8.76 Z M37.14,8.76 L37.14,8.52651283e-14 L36.096,8.52651283e-14 L36.096,8.76 L37.14,8.76 Z M41.616,8.916 C42.816,8.916 43.728,8.376 44.256,7.56 L43.368,7.056 C43.068,7.548 42.468,7.932 41.64,7.932 C40.524,7.932 39.672,7.32 39.468,6.24 L44.496,6.24 C44.52,6.084 44.532,5.928 44.532,5.772 C44.532,4.092 43.356,2.604 41.544,2.604 C39.672,2.604 38.4,3.984 38.4,5.76 C38.4,7.56 39.684,8.916 41.616,8.916 Z M43.476,5.328 L39.468,5.328 C39.636,4.284 40.416,3.588 41.544,3.588 C42.444,3.588 43.296,4.14 43.476,5.328 Z M47.508,8.916 C48.792,8.916 49.752,8.232 49.752,7.116 C49.752,4.908 46.392,5.664 46.392,4.38 C46.392,3.84 46.92,3.576 47.46,3.576 C47.988,3.576 48.516,3.804 48.744,4.344 L49.62,3.852 C49.236,3.072 48.444,2.604 47.46,2.604 C46.248,2.604 45.336,3.336 45.336,4.392 C45.336,6.564 48.696,5.832 48.696,7.116 C48.696,7.704 48.144,7.932 47.508,7.932 C46.764,7.932 46.212,7.572 46.02,6.996 L45.12,7.512 C45.468,8.34 46.308,8.916 47.508,8.916 Z M57.252,8.76 L57.252,7.824 C56.184,7.872 55.656,7.932 55.656,7.02 L55.656,3.768 L57.252,3.768 L57.252,2.76 L55.656,2.76 L55.656,1.08 L54.612,1.392 L54.612,2.76 L53.424,2.76 L53.424,3.768 L54.612,3.768 L54.612,7.02 C54.612,8.52 55.452,9 57.252,8.76 Z M61.008,8.916 C62.76,8.916 64.176,7.536 64.176,5.76 C64.176,3.984 62.76,2.604 61.008,2.604 C59.256,2.604 57.852,3.984 57.852,5.76 C57.852,7.536 59.256,8.916 61.008,8.916 Z M61.008,7.896 C59.82,7.896 58.896,6.972 58.896,5.76 C58.896,4.548 59.82,3.624 61.008,3.624 C62.208,3.624 63.132,4.548 63.132,5.76 C63.132,6.972 62.208,7.896 61.008,7.896 Z M70.608,8.916 C71.448,8.916 72.108,8.604 72.552,7.896 L72.552,8.76 L73.596,8.76 L73.596,2.76 L72.552,2.76 L72.552,5.94 C72.552,7.356 71.772,7.92 70.812,7.92 C69.888,7.92 69.324,7.368 69.324,6.384 L69.324,2.76 L68.28,2.76 L68.28,6.444 C68.28,7.98 69.204,8.916 70.608,8.916 Z M76.224,11.16 L76.224,7.728 C76.704,8.46 77.472,8.916 78.492,8.916 C80.16,8.916 81.528,7.536 81.528,5.76 C81.528,3.984 80.16,2.604 78.492,2.604 C77.472,2.604 76.704,3.06 76.224,3.792 L76.224,2.76 L75.18,2.76 L75.18,11.16 L76.224,11.16 Z M78.36,7.908 C77.148,7.908 76.224,6.984 76.224,5.76 C76.224,4.536 77.148,3.612 78.36,3.612 C79.56,3.612 80.484,4.536 80.484,5.76 C80.484,6.984 79.56,7.908 78.36,7.908 Z M83.82,8.76 L83.82,8.52651283e-14 L82.776,8.52651283e-14 L82.776,8.76 L83.82,8.76 Z M88.236,8.916 C89.988,8.916 91.404,7.536 91.404,5.76 C91.404,3.984 89.988,2.604 88.236,2.604 C86.484,2.604 85.08,3.984 85.08,5.76 C85.08,7.536 86.484,8.916 88.236,8.916 Z M88.236,7.896 C87.048,7.896 86.124,6.972 86.124,5.76 C86.124,4.548 87.048,3.624 88.236,3.624 C89.436,3.624 90.36,4.548 90.36,5.76 C90.36,6.972 89.436,7.896 88.236,7.896 Z M95.34,8.916 C96.36,8.916 97.128,8.46 97.608,7.728 L97.608,8.76 L98.652,8.76 L98.652,2.76 L97.608,2.76 L97.608,3.792 C97.128,3.06 96.36,2.604 95.34,2.604 C93.672,2.604 92.304,3.984 92.304,5.76 C92.304,7.536 93.672,8.916 95.34,8.916 Z M95.472,7.908 C94.272,7.908 93.348,6.984 93.348,5.76 C93.348,4.536 94.272,3.612 95.472,3.612 C96.684,3.612 97.608,4.536 97.608,5.76 C97.608,6.984 96.684,7.908 95.472,7.908 Z M102.936,8.916 C103.956,8.916 104.724,8.46 105.204,7.728 L105.204,8.76 L106.248,8.76 L106.248,0.36 L105.204,0.36 L105.204,3.792 C104.724,3.06 103.956,2.604 102.936,2.604 C101.268,2.604 99.9,3.984 99.9,5.76 C99.9,7.536 101.268,8.916 102.936,8.916 Z M103.068,7.908 C101.868,7.908 100.944,6.984 100.944,5.76 C100.944,4.536 101.868,3.612 103.068,3.612 C104.28,3.612 105.204,4.536 105.204,5.76 C105.204,6.984 104.28,7.908 103.068,7.908 Z M51.324,21.916 C53.076,21.916 54.492,20.536 54.492,18.76 C54.492,16.984 53.076,15.604 51.324,15.604 C49.572,15.604 48.168,16.984 48.168,18.76 C48.168,20.536 49.572,21.916 51.324,21.916 Z M51.324,20.896 C50.136,20.896 49.212,19.972 49.212,18.76 C49.212,17.548 50.136,16.624 51.324,16.624 C52.524,16.624 53.448,17.548 53.448,18.76 C53.448,19.972 52.524,20.896 51.324,20.896 Z M56.772,21.76 L56.772,18.58 C56.772,17.164 57.744,16.708 58.644,16.744 L58.644,15.652 C57.888,15.652 57.156,15.928 56.772,16.768 L56.772,15.76 L55.728,15.76 L55.728,21.76 L56.772,21.76 Z" id="dragflestouploador" fill="#8697A8"></path>
                            <path d="M37.704,34.916 C39.372,34.916 40.74,33.536 40.74,31.76 C40.74,29.984 39.372,28.604 37.704,28.604 C36.684,28.604 35.916,29.06 35.436,29.792 L35.436,26.36 L34.392,26.36 L34.392,34.76 L35.436,34.76 L35.436,33.728 C35.916,34.46 36.684,34.916 37.704,34.916 Z M37.572,33.908 C36.36,33.908 35.436,32.984 35.436,31.76 C35.436,30.536 36.36,29.612 37.572,29.612 C38.772,29.612 39.696,30.536 39.696,31.76 C39.696,32.984 38.772,33.908 37.572,33.908 Z M43.032,34.76 L43.032,31.58 C43.032,30.164 44.004,29.708 44.904,29.744 L44.904,28.652 C44.148,28.652 43.416,28.928 43.032,29.768 L43.032,28.76 L41.988,28.76 L41.988,34.76 L43.032,34.76 Z M48.42,34.916 C50.172,34.916 51.588,33.536 51.588,31.76 C51.588,29.984 50.172,28.604 48.42,28.604 C46.668,28.604 45.264,29.984 45.264,31.76 C45.264,33.536 46.668,34.916 48.42,34.916 Z M48.42,33.896 C47.232,33.896 46.308,32.972 46.308,31.76 C46.308,30.548 47.232,29.624 48.42,29.624 C49.62,29.624 50.544,30.548 50.544,31.76 C50.544,32.972 49.62,33.896 48.42,33.896 Z M55.008,34.76 L56.412,30.32 L57.816,34.76 L58.884,34.76 L60.744,28.76 L59.652,28.76 L58.332,33.332 L56.916,28.76 L55.908,28.76 L54.492,33.32 L53.172,28.76 L52.08,28.76 L53.94,34.76 L55.008,34.76 Z M63.468,34.916 C64.752,34.916 65.712,34.232 65.712,33.116 C65.712,30.908 62.352,31.664 62.352,30.38 C62.352,29.84 62.88,29.576 63.42,29.576 C63.948,29.576 64.476,29.804 64.704,30.344 L65.58,29.852 C65.196,29.072 64.404,28.604 63.42,28.604 C62.208,28.604 61.296,29.336 61.296,30.392 C61.296,32.564 64.656,31.832 64.656,33.116 C64.656,33.704 64.104,33.932 63.468,33.932 C62.724,33.932 62.172,33.572 61.98,32.996 L61.08,33.512 C61.428,34.34 62.268,34.916 63.468,34.916 Z M69.66,34.916 C70.86,34.916 71.772,34.376 72.3,33.56 L71.412,33.056 C71.112,33.548 70.512,33.932 69.684,33.932 C68.568,33.932 67.716,33.32 67.512,32.24 L72.54,32.24 C72.564,32.084 72.576,31.928 72.576,31.772 C72.576,30.092 71.4,28.604 69.588,28.604 C67.716,28.604 66.444,29.984 66.444,31.76 C66.444,33.56 67.728,34.916 69.66,34.916 Z M71.52,31.328 L67.512,31.328 C67.68,30.284 68.46,29.588 69.588,29.588 C70.488,29.588 71.34,30.14 71.52,31.328 Z" id="browse" fill="#0061FF"></path>
                            <polygon id="Decoration" fill="#0061FF" points="33.6 35.06 33.6 35.66 72.14 35.66 72.14 35.06"></polygon>
                        </g>
                    </g>
                </g>
            </g>
        </g>
    </g>
</svg>