<?xml version="1.0" encoding="UTF-8"?>
<svg width="16px" height="16px" viewBox="0 0 16 16" version="1.1" xmlns="http://www.w3.org/2000/svg" xmlns:xlink="http://www.w3.org/1999/xlink">
    <title>expand icon 16</title>
    <defs>
        <filter id="filter-1">
            <feColorMatrix in="SourceGraphic" type="matrix" values="0 0 0 0 0.525490 0 0 0 0 0.592157 0 0 0 0 0.658824 0 0 0 1.000000 0"></feColorMatrix>
        </filter>
    </defs>
    <g id="⛑-in-progress-screen" stroke="none" stroke-width="1" fill="none" fill-rule="evenodd">
        <g id="2" transform="translate(-959.000000, -352.000000)">
            <g id="Group-21" transform="translate(199.000000, 272.000000)">
                <g id="expand-icon-16" transform="translate(760.000000, 80.000000)">
                    <rect id="Rectangle" fill="#FFFFFF" x="0" y="0" width="16" height="16" rx="4"></rect>
                    <g filter="url(#filter-1)" id="expand">
                        <g transform="translate(3.000000, 3.000000)">
                            <path d="M9.49992188,6.57017578 L8.65648437,7.41361328 L6.62486328,5.38171875 C6.51048828,5.26734375 6.32507813,5.26722656 6.21058594,5.38171875 L5.38173828,6.21056641 C5.26712891,6.32517578 5.26759766,6.51099609 5.38173828,6.62513672 L7.41365234,8.65646484 L6.57021484,9.49990234 C6.38644531,9.68365234 6.51630859,10 6.77734375,10 L9.70703125,10 C9.86896484,10 10,9.86896484 10,9.70703125 L10,6.77734375 C10,6.51755859 9.68503906,6.38568359 9.49992188,6.57017578 Z" id="Path" fill="#000000" fill-rule="nonzero"></path>
                            <path d="M4.61824219,3.37515625 L2.58634766,1.34353516 L3.42978516,0.500097656 C3.61355469,0.316347656 3.48369141,0 3.22265625,0 L0.29296875,0 C0.131035156,0 0,0.131035156 0,0.29296875 L0,3.22265625 C0,3.48181641 0.31421875,3.61503906 0.500117187,3.42980469 L1.34382812,2.58666016 L3.37515625,4.61826172 C3.48953125,4.73263672 3.67498047,4.73269531 3.78939453,4.61828125 L4.61824219,3.78943359 C4.73214844,3.67552734 4.73308594,3.49 4.61824219,3.37515625 Z" id="Path" fill="#000000" fill-rule="nonzero"></path>
                        </g>
                    </g>
                </g>
            </g>
        </g>
    </g>
</svg>