<?xml version="1.0" encoding="UTF-8"?>
<svg width="40px" height="40px" viewBox="0 0 40 40" version="1.1" xmlns="http://www.w3.org/2000/svg" xmlns:xlink="http://www.w3.org/1999/xlink">
    <title>ic_confirmation_number_48px</title>
    <g id="inprogress" stroke="none" stroke-width="1" fill="none" fill-rule="evenodd">
        <g id="roster_03-copy" transform="translate(-184.000000, -254.000000)">
            <g id="Group-10" transform="translate(184.000000, 118.000000)">
                <g id="ic_confirmation_number_48px" transform="translate(0.000000, 136.000000)">
                    <rect id="Rectangle" fill="#4DD0E1" fill-rule="nonzero" opacity="0.100000001" x="0" y="0" width="40" height="40" rx="20"></rect>
                    <g id="Group" transform="translate(12.000000, 13.000000)" fill="#73CEDE">
                        <path d="M16,4.8 L16,1.6 C16,0.716 15.284,0 14.4,0 L1.6,0 C0.716,0 0.008,0.716 0.008,1.6 L0.008,4.8 C0.888,4.804 1.6,5.52 1.6,6.4 C1.6,7.284 0.884,8 0.004,8 L0,11.2 C0,12.084 0.716,12.8 1.6,12.8 L14.4,12.8 C15.284,12.8 16,12.084 16,11.2 L16,8 C15.116,8 14.4,7.284 14.4,6.4 C14.4,5.516 15.116,4.8 16,4.8 Z M8.8,10.8 L7.2,10.8 L7.2,9.2 L8.8,9.2 L8.8,10.8 Z M8.8,7.2 L7.2,7.2 L7.2,5.6 L8.8,5.6 L8.8,7.2 Z M8.8,3.6 L7.2,3.6 L7.2,2 L8.8,2 L8.8,3.6 Z" id="Shape"></path>
                    </g>
                </g>
            </g>
        </g>
    </g>
</svg>