<?xml version="1.0" encoding="UTF-8"?>
<svg width="24px" height="24px" viewBox="0 0 24 24" version="1.1" xmlns="http://www.w3.org/2000/svg" xmlns:xlink="http://www.w3.org/1999/xlink">
    <title>4407C125-E11A-42BF-B617-F0B74BDE043D</title>
    <g id="⚙️-configuration" stroke="none" stroke-width="1" fill="none" fill-rule="evenodd">
        <g id="government-document-generation_EPF_01" transform="translate(-348.000000, -1395.000000)">
            <g id="form" transform="translate(135.000000, 255.000000)">
                <g id="address" transform="translate(40.000000, 96.000000)">
                    <g id="type-of-employees" transform="translate(0.000000, 1036.000000)">
                        <g id="male" transform="translate(161.000000, 0.000000)">
                            <g id="eyes" transform="translate(12.000000, 8.000000)">
                                <rect id="Rectangle" fill="#D8D8D8" opacity="0" x="0" y="0" width="24" height="24"></rect>
                                <g id="noun_Eye_44206" transform="translate(2.000000, 6.000000)" fill="#7A94B9" fill-rule="nonzero">
                                    <g id="Group">
                                        <path d="M18.6566667,6.08866667 L19.7857778,5.11488889 C20.0204444,4.91266667 20.0464444,4.55844444 19.8442222,4.32377778 C19.642,4.08933333 19.2877778,4.06311111 19.0533333,4.26533333 L17.7931111,5.35266667 C17.4675556,5.092 17.1,4.81622222 16.6953333,4.53955556 C16.5462222,4.43755556 16.3964444,4.33911111 16.2462222,4.24311111 L17.0784444,2.98888889 C17.2497778,2.73088889 17.1793333,2.38266667 16.9215556,2.21155556 C16.6633333,2.04022222 16.3153333,2.11066667 16.144,2.36866667 L15.2791111,3.672 C14.7464444,3.38244444 14.2117778,3.13311111 13.6795556,2.92666667 C13.61,2.89977778 13.54,2.87355556 13.4706667,2.848 L13.8906667,1.42733333 C13.9786667,1.13022222 13.8086667,0.818444444 13.5117778,0.730666667 C13.2146667,0.642666667 12.9028889,0.812444444 12.8151111,1.10933333 L12.4006667,2.51177778 C11.7548889,2.34333333 11.1142222,2.23911111 10.484,2.20044444 L10.484,0.665555556 C10.484,0.355777778 10.2328889,0.104888889 9.92333333,0.104888889 C9.61355556,0.104888889 9.36244444,0.356 9.36244444,0.665555556 L9.36244444,2.20044444 C8.73355556,2.23933333 8.09422222,2.34311111 7.45,2.51066667 L7.03577778,1.10933333 C6.948,0.812444444 6.63622222,0.642666667 6.33911111,0.730666667 C6.04222222,0.818444444 5.87244444,1.13022222 5.96022222,1.42733333 L6.37977778,2.84644444 C6.30866667,2.87244444 6.23777778,2.89888889 6.16688889,2.92644444 C5.63577778,3.13244444 5.102,3.38133333 4.57044444,3.67 L3.70666667,2.36844444 C3.53533333,2.11044444 3.18755556,2.04 2.92933333,2.21133333 C2.67133333,2.38266667 2.60088889,2.73066667 2.77222222,2.98866667 L3.60333333,4.24088889 C3.45222222,4.33755556 3.30133333,4.43666667 3.15088889,4.53933333 C2.74822222,4.81444444 2.38244444,5.08911111 2.05822222,5.34844444 L0.951333333,4.37288889 C0.719111111,4.168 0.364666667,4.19044444 0.16,4.42266667 C-0.0448888889,4.65511111 -0.0224444444,5.00955556 0.209777778,5.21422222 L1.19555556,6.08311111 C0.688888889,6.54288889 0.399777778,6.86 0.377333333,6.88466667 L0.0368888889,7.26088889 L0.377333333,7.63711111 C0.420888889,7.68533333 1.46333333,8.82888889 3.15066667,9.98222222 C4.14555556,10.6622222 5.16,11.2048889 6.16644444,11.5951111 C7.43933333,12.0886667 8.70333333,12.3388889 9.92311111,12.3388889 C11.1426667,12.3388889 12.4064444,12.0886667 13.6795556,11.5951111 C14.6857778,11.2048889 15.7006667,10.6622222 16.6951111,9.98222222 C18.3831111,8.82911111 19.4251111,7.68533333 19.4686667,7.63711111 L19.8091111,7.26088889 L19.4686667,6.88466667 C19.4466667,6.86022222 19.1597778,6.54555556 18.6566667,6.08866667 Z M16.0397778,9.07244444 C15.1184444,9.7 14.1828889,10.1988889 13.2593333,10.5553333 C12.1215556,10.9948889 10.9988889,11.2175556 9.92333333,11.2175556 C8.84733333,11.2175556 7.72488889,10.9946667 6.58688889,10.5553333 C5.66333333,10.1988889 4.728,9.7 3.80644444,9.07244444 C2.78688889,8.378 2.008,7.676 1.57955556,7.26111111 C2.00355556,6.84977778 2.77177778,6.15733333 3.78355556,5.46577778 C4.70733333,4.83422222 5.64533333,4.33177778 6.57177778,3.97266667 C7.71488889,3.52977778 8.84222222,3.30488889 9.92311111,3.30488889 C10.9986667,3.30488889 12.1213333,3.52755556 13.2591111,3.96688889 C14.1824444,4.32333333 15.1182222,4.82244444 16.0395556,5.45 C17.0591111,6.14422222 17.8377778,6.846 18.2664444,7.26111111 C17.8377778,7.67666667 17.0593333,8.37822222 16.0397778,9.07244444 Z" id="Shape"></path>
                                        <path d="M9.91933333,4.25022222 C9.142,4.25022222 8.43355556,4.54555556 7.90066667,5.03044444 L9.64444444,7.04577778 L7.07888889,6.27888889 C6.97444444,6.58422222 6.91733333,6.91177778 6.91733333,7.25244444 C6.91733333,8.91044444 8.26155556,10.2546667 9.91955556,10.2546667 C11.5775556,10.2546667 12.9217778,8.91044444 12.9217778,7.25244444 C12.9213333,5.59422222 11.5773333,4.25022222 9.91933333,4.25022222 Z" id="Path"></path>
                                    </g>
                                </g>
                            </g>
                        </g>
                    </g>
                </g>
            </g>
        </g>
    </g>
</svg>