<?xml version="1.0" encoding="UTF-8"?>
<svg width="12px" height="12px" viewBox="0 0 12 12" version="1.1" xmlns="http://www.w3.org/2000/svg" xmlns:xlink="http://www.w3.org/1999/xlink">
    <title>Group 29</title>
    <g id="site/-shift-management" stroke="none" stroke-width="1" fill="none" fill-rule="evenodd">
        <g id="button-/-secondary-/-midium-copy-6" transform="translate(-13.000000, -10.000000)">
            <g id="Group-29" transform="translate(13.000000, 10.000000)">
                <rect id="Rectangle" fill-opacity="0" fill="#D8D8D8" x="0" y="0" width="12" height="12"></rect>
                <path d="M11.92,5.36 C11.8172,5.2228 9.36,2 6,2 C2.64,2 0.1828,5.2228 0.08,5.36 C-0.0266666667,5.50222222 -0.0266666667,5.69777778 0.08,5.84 C0.1828,5.9772 2.64,9.2 6,9.2 C9.36,9.2 11.8172,5.9772 11.92,5.84 C12.0266667,5.69777778 12.0266667,5.50222222 11.92,5.36 Z M6,7.6 C4.8954305,7.6 4,6.7045695 4,5.6 C4,4.4954305 4.8954305,3.6 6,3.6 C7.1045695,3.6 8,4.4954305 8,5.6 C7.99867755,6.70402126 7.10402126,7.59867755 6,7.6 Z" id="Shape" fill="#0059B2"></path>
            </g>
        </g>
    </g>
</svg>