<?xml version="1.0" encoding="UTF-8"?>
<svg width="36px" height="36px" viewBox="0 0 36 36" version="1.1" xmlns="http://www.w3.org/2000/svg" xmlns:xlink="http://www.w3.org/1999/xlink">
    <!-- Generator: Sketch 56.2 (81672) - https://sketch.com -->
    <title>father</title>
    <desc>Created with Sketch.</desc>
    <g id="employee-onboarding" stroke="none" stroke-width="1" fill="none" fill-rule="evenodd">
        <g id="BGV-Client-zomato-employee-profile" transform="translate(-200.000000, -653.000000)">
            <g id="Group-7" transform="translate(160.000000, 399.000000)">
                <g id="father" transform="translate(40.000000, 254.000000)">
                    <circle id="Oval" fill="#F3F7FD" cx="18" cy="18" r="18"></circle>
                    <g id="Group-5" transform="translate(10.000000, 6.000000)" fill="#8697A8" fill-rule="nonzero">
                        <ellipse id="Oval" cx="3.18860042" cy="10.019802" rx="1.69312169" ry="1.58415842"></ellipse>
                        <ellipse id="Oval-Copy" cx="10.9769602" cy="2.45544554" rx="2.62433862" ry="2.45544554"></ellipse>
                        <path d="M3.07121674,11.8007307 C1.77209538,12.0239504 0.855290049,12.8513394 0.320800734,14.2828976 C0.106933578,14.8907113 1.11910481e-13,15.7613754 1.11910481e-13,16.8948898 C0.0815273157,17.2218844 0.334680832,17.330913 0.75946055,17.2219755 C0.936541386,17.1350018 1.0250818,16.9295517 1.0250818,16.6056254 C1.05238745,15.7594616 1.18055514,15.219073 1.40958488,14.9844595 C1.25338102,16.4565123 1.25373816,17.3150098 1.41065633,17.5599519 C1.52846159,17.8450849 1.57204997,18.0852728 1.54142147,18.2805157 C1.51079297,18.4757585 1.58050191,19.862235 1.75054829,22.4399451 C1.73941174,23.0452678 1.82140984,23.3991474 1.9965426,23.5015838 C2.17167535,23.6040202 2.35456797,23.644849 2.54522046,23.6240701 C2.82493285,23.5626143 2.96478905,23.3952437 2.96478905,23.1219584 C2.96478905,22.8486731 3.00026495,21.9030652 3.07121674,20.2851346 L3.18803948,18.7986216 L3.44260535,22.8782162 C3.49137239,23.3252364 3.67212212,23.5738544 3.98485454,23.6240701 C4.35141901,23.662985 4.55863021,23.4472822 4.60648814,22.9769617 C4.65434607,22.5066411 4.74248064,20.8751921 4.87089185,18.0826147 C4.87732052,17.8385231 4.92274335,17.6643022 5.00716032,17.5599519 C5.13378578,17.4034265 5.13378578,16.8339656 5.07587898,16.0367113 C5.03727445,15.5052084 5.01436823,14.8384451 5.00716032,14.0364213 C5.9411692,14.3021727 6.56163395,14.3427585 6.86855459,14.1581785 C7.24908033,14.11577 7.49202264,13.995471 7.59738152,13.7972814 C7.71627958,13.6187772 7.74600409,13.3604229 7.68655506,13.0222186 C7.72665313,10.8695347 8.01834624,9.48463791 8.5616344,8.86752829 L8.12925715,12.3125 C7.87821406,13.6565377 7.99703095,14.613249 8.48570782,15.1826339 L8.91740324,23.0570699 C9.0062034,23.68569 9.33244254,24 9.89612065,24 C10.3343746,23.9689865 10.6053206,23.723499 10.7089587,23.2635376 L10.9639629,17.1542162 L11.2523767,21.2098421 L11.344862,23.2635376 C11.4401558,23.7545125 11.7906486,24 12.3963404,24 C12.8001457,23.9284312 13.04489,23.6505298 13.1305732,23.1662959 L13.4388575,16.8946164 L13.5231122,15.1826339 C13.9409437,14.5985127 14.099258,13.9220435 13.998055,13.1532261 C13.8968521,12.3844087 13.7104529,10.9558428 13.4388575,8.86752829 C13.9181187,9.70579731 14.195607,10.6835315 14.2713225,11.8007307 C14.3848958,13.4765297 14.1776197,13.6675499 14.5373821,13.9752237 C14.8971445,14.2828976 15.5261808,14.2214266 15.7633601,13.7972814 C16.0005393,13.3731363 16.0350691,11.0309522 15.8279877,10.019802 C15.6209064,9.00865179 15.1115798,6.00432074 11.6886988,5.10731846 C9.84116844,4.83887773 8.30132167,5.60935339 7.06915854,7.41874545 C6.14803949,8.97439999 5.82999854,10.8944603 6.1150357,13.1789263 C5.49437613,12.9546719 4.90738595,12.6196574 4.35406516,12.1738828 C4.01019586,11.9170322 3.6113419,11.788607 3.15750326,11.788607 C3.09685291,11.8044342 3.06809074,11.8084754 3.07121674,11.8007307 Z" id="Path"></path>
                    </g>
                </g>
            </g>
        </g>
    </g>
</svg>