<?xml version="1.0" encoding="UTF-8"?>
<svg width="40px" height="40px" viewBox="0 0 40 40" version="1.1" xmlns="http://www.w3.org/2000/svg" xmlns:xlink="http://www.w3.org/1999/xlink">
    <title>0C0FC4B9-A19F-4F77-BA37-4CB3EDC8EF99</title>
    <g id="profille_view-mode" stroke="none" stroke-width="1" fill="none" fill-rule="evenodd">
        <g id="attendance-_profile_04" transform="translate(-200.000000, -2407.000000)">
            <g id="Group-29" transform="translate(160.000000, 446.000000)">
                <g id="section-copy" transform="translate(40.000000, 1882.000000)">
                    <g id="references_father_info" transform="translate(0.000000, 46.000000)">
                        <g id="father" transform="translate(0.000000, 33.000000)">
                            <circle id="Oval" fill="#E5EEF7" opacity="0.5" cx="20" cy="20" r="20"></circle>
                            <g id="noun_Family_2595246" transform="translate(10.000000, 11.000000)" fill="#0059B2" fill-rule="nonzero">
                                <circle id="Oval" cx="10" cy="10.7657778" r="2.03066667"></circle>
                                <path d="M11.2466667,13.3373333 L8.75333333,13.3373333 C7.872,13.3373333 7.15733333,14.0515556 7.15733333,14.9333333 L7.15733333,17.9253333 L12.8426667,17.9253333 L12.8426667,14.9333333 C12.8426667,14.052 12.1284444,13.3373333 11.2466667,13.3373333 Z" id="Path"></path>
                                <circle id="Oval" cx="5.25644444" cy="5.41911111" r="3.54666667"></circle>
                                <circle id="Oval" cx="14.256" cy="4.19111111" r="3.89466667"></circle>
                                <path d="M6.708,10.7657778 C6.708,10.4697778 6.75066667,10.1844444 6.82444444,9.912 L3.07866667,9.912 C1.70977778,9.912 0.291111111,11.5488945 0.291111111,12.6995556 L0.291111111,15.9262222 C0.291111111,17.0307917 1.18654161,17.9262222 2.29111111,17.9262222 L5.896,17.9262222 L5.896,17.9262222 L5.896,14.9342222 C5.896,13.9222222 6.42666667,13.0333333 7.22266667,12.5257778 C6.89866667,12.0151111 6.708,11.4128889 6.708,10.7657778 Z" id="Path"></path>
                                <path d="M16.6475556,9.12444444 L12.8493333,9.12444444 C13.1288889,9.60844444 13.2915556,10.1675556 13.2915556,10.7653333 C13.2915556,11.4124444 13.1008889,12.0151111 12.7768889,12.5248889 C13.5728889,13.0324444 14.1035556,13.9213333 14.1035556,14.9333333 L14.1035556,17.9253333 L17.7088889,17.9253333 C18.8134584,17.9253333 19.7088889,17.0299028 19.7088889,15.9253333 L19.7088889,12.1857778 L19.7088889,12.1857778 C19.7088889,10.7657778 18.1506667,9.12444444 16.6475556,9.12444444 Z" id="Path"></path>
                            </g>
                        </g>
                    </g>
                </g>
            </g>
        </g>
    </g>
</svg>