<?xml version="1.0" encoding="UTF-8"?>
<svg width="36px" height="36px" viewBox="0 0 36 36" version="1.1" xmlns="http://www.w3.org/2000/svg" xmlns:xlink="http://www.w3.org/1999/xlink">
    <title>72D1A0F5-1F09-49D1-9B73-12065C799910</title>
    <g id="profille_view-mode" stroke="none" stroke-width="1" fill="none" fill-rule="evenodd">
        <g id="attendance-_profile_04" transform="translate(-200.000000, -689.000000)">
            <g id="Group-29" transform="translate(160.000000, 446.000000)">
                <g id="Group-7" transform="translate(40.000000, 105.000000)">
                    <g id="Group-34" transform="translate(0.000000, 134.000000)">
                        <g id="father" transform="translate(0.000000, 4.000000)">
                            <circle id="Oval" fill="#F3F7FD" cx="18" cy="18" r="18"></circle>
                            <g id="noun_mustache-adult_3485802" transform="translate(9.000000, 7.000000)" fill="#0059B2">
                                <path d="M17.9916747,17.8100716 C17.9908057,17.7864563 17.9902127,17.7627983 17.9891041,17.7392053 C17.9871324,17.6966084 17.9844825,17.6541252 17.9817392,17.6116724 C17.9810732,17.6014608 17.9805981,17.5912085 17.9798874,17.5810111 C17.8832103,16.1528027 17.3410134,14.790887 16.4296379,13.687021 C16.4236193,13.6796947 16.4175297,13.6724294 16.4114847,13.6651336 C16.3849752,13.633231 16.3581929,13.601511 16.3311378,13.5699738 C16.319257,13.5561539 16.3071915,13.5424619 16.295197,13.5287313 C16.2728244,13.5031666 16.2504051,13.4776325 16.2276243,13.452346 C16.2228627,13.4470665 16.2182838,13.4416592 16.2135018,13.4363899 C16.2005855,13.4221253 16.1873442,13.4082464 16.1743122,13.3940996 C16.1562017,13.374456 16.1381683,13.3547556 16.1198121,13.3352806 C16.0967248,13.3107738 16.0733247,13.2866428 16.0499205,13.2625117 C16.0385494,13.2507873 16.0274667,13.2388456 16.0159981,13.2271801 C16.0131127,13.2242439 16.0101359,13.2214275 16.0072444,13.2185015 C15.9799903,13.190886 15.9523708,13.1637152 15.9247004,13.1365992 C15.9130796,13.1252098 15.9016029,13.1136336 15.889913,13.1023356 C15.861664,13.0750409 15.8330352,13.0482316 15.8043719,13.0214608 C15.7923653,13.0102399 15.7805231,12.9987835 15.7684474,12.9876521 C15.7508364,12.9714401 15.7328945,12.9556526 15.7151292,12.9396376 C14.75807,12.0728753 13.5752509,11.4946643 12.3034053,11.2718455 C12.2525238,11.262947 12.205664,11.2552559 12.1586838,11.2480393 C12.1491091,11.2465679 12.1395289,11.245118 12.1299434,11.2436899 C12.0896532,11.2376795 12.0492831,11.232002 12.0088331,11.2266576 C11.9924181,11.224493 11.9759788,11.2224564 11.9595394,11.2204096 C11.9245287,11.2160805 11.8894854,11.2118975 11.854371,11.2080923 C11.8466306,11.2072415 11.8389388,11.2061937 11.8311984,11.2053734 L11.7566954,11.1979192 C11.5778646,11.1812822 11.3995145,11.1713081 11.2198702,11.167997 C11.1807881,11.1678527 11.1491876,11.1361196 11.1492069,11.0970373 L11.1492069,10.2263202 C12.6348971,9.70393427 13.7290033,8.34310077 13.8606034,6.71440493 L13.8885377,6.71440493 C14.2889748,6.71395621 14.6134845,6.38945565 14.6139444,5.98901855 L14.6139444,5.58880887 C14.6135192,5.21360003 14.3094584,4.90953921 13.9342495,4.90911398 L13.8741208,4.90911398 L13.8741208,4.19056651 C13.8741208,1.89032235 12.0027333,0.0189145946 9.70248716,0.0189145946 L8.79829847,0.0189145946 C6.49805432,0.0189145946 4.62666687,1.89032235 4.62666687,4.19056651 L4.62666687,4.90911398 L4.56652394,4.90911398 C4.19132209,4.90954816 3.88727232,5.21360702 3.88684935,5.58880887 L3.88684935,5.98901855 C3.88730702,6.38944866 4.21180562,6.71394726 4.61223573,6.71440493 L4.6401741,6.71440493 C4.77176607,8.34310077 5.86587029,9.70393427 7.35157058,10.2263202 L7.35157058,11.1050621 C7.35134314,11.1433865 7.32113214,11.1748151 7.28284653,11.1765558 C7.18365405,11.181756 7.08489611,11.1893482 6.98650976,11.1987294 L6.97791443,11.1992533 C6.97401984,11.1996289 6.97015366,11.2001325 6.96626516,11.2005183 C6.93887707,11.2032068 6.91159254,11.2063805 6.88427349,11.2093959 C6.85837785,11.2122529 6.8324477,11.2149515 6.80661095,11.2180948 C6.77579732,11.2218513 6.74510349,11.2260931 6.71438327,11.2302537 C6.6925264,11.2332204 6.67063502,11.2360083 6.64883298,11.2391882 C6.61394606,11.2442402 6.57918503,11.2498161 6.54443416,11.2554021 C6.52724351,11.2581698 6.51001833,11.260779 6.49285813,11.2636766 C6.45370096,11.2702698 6.41468187,11.2773971 6.37569527,11.2846522 C6.36333326,11.2869671 6.35093268,11.2891418 6.33858489,11.2915135 C6.29522651,11.2998387 6.25202042,11.3087041 6.2088854,11.3178396 C6.20125458,11.319464 6.19360143,11.320993 6.18597467,11.3226439 C6.13857346,11.3328548 6.09132183,11.3435836 6.04421979,11.3548301 C6.04115569,11.3555632 6.03808143,11.3562515 6.03501733,11.3569866 C4.872694,11.6352796 3.80302811,12.2118525 2.93159024,13.0298002 C2.91612962,13.044274 2.90046594,13.0584879 2.88512308,13.07312 C2.87020055,13.0873339 2.85558058,13.1019762 2.84076161,13.1163586 C2.81644371,13.1399455 2.79204054,13.1634349 2.76803332,13.1874279 C2.75309657,13.2023545 2.73845426,13.2176568 2.72363732,13.2327438 C2.70041999,13.256349 2.67713767,13.2798526 2.65421883,13.3038395 C2.63315794,13.3257857 2.61830445,13.3422007 2.60314638,13.3584086 C2.58548057,13.3772927 2.56760156,13.3959454 2.5501246,13.415061 C2.5479052,13.4174834 2.54577922,13.4199749 2.54356591,13.4224075 C2.52287865,13.4450644 2.50265841,13.4680482 2.48230821,13.4909427 C2.46689632,13.5083019 2.45130777,13.5255332 2.43608472,13.5430203 C2.41256686,13.5700266 2.38953634,13.5973335 2.36647942,13.6246363 C2.35513066,13.6380908 2.34360931,13.6514274 2.33236614,13.6649509 C2.30602988,13.6966275 2.28019922,13.7286229 2.25448227,13.7606914 C2.24710122,13.7699061 2.23958005,13.7790294 2.23224367,13.7882724 C2.20321895,13.8248603 2.17463284,13.8617175 2.14648532,13.8988441 C2.14293795,13.9035144 2.13930935,13.9081359 2.1357701,13.9128123 C2.10443326,13.9541936 2.07361015,13.9958944 2.04330078,14.0379146 C1.32439006,15.0322151 0.886065259,16.200294 0.773470533,17.4210036 C0.77309082,17.4250769 0.772822787,17.4291603 0.772455257,17.4332316 C0.76801647,17.4819384 0.763926938,17.5307143 0.760521702,17.5796181 C0.759638411,17.5922522 0.759080009,17.6049351 0.758263727,17.6175895 C0.755648376,17.6582777 0.753059422,17.6989679 0.751156794,17.7397759 C0.750009532,17.7642319 0.749416611,17.7887589 0.74853129,17.8132555 C0.747475403,17.8426457 0.746145391,17.8719953 0.745457034,17.9014444 C0.744177786,17.9558348 0.743465119,18.0102983 0.743465119,18.0648349 L0.743465119,18.504488 C0.743465119,18.524283 0.936596625,19.0082932 1.83388485,19.2448772 C2.23318849,19.3501598 4.73324968,20.3860388 9.46647607,20.3860388 C10.7892918,20.3860388 13.1804716,20.0056516 16.6400155,19.2448772 C17.9798874,18.8521432 17.9967857,18.524283 17.9967857,18.504488 L17.9967857,18.0648349 C17.9967857,18.0099802 17.996125,17.955204 17.9948038,17.9005063 C17.9940992,17.8703059 17.9927651,17.8402131 17.9916747,17.8100716 Z M13.8734946,6.33602166 L13.8734946,5.06103584 L13.9336375,5.06103584 C14.2692742,5.06141184 14.4957479,5.24845142 14.4961239,5.58408813 L14.4961239,5.9842978 C14.4957099,6.34516104 14.248789,6.59480167 13.8879257,6.59520338 L13.8734946,6.59520338 L13.8734946,6.33602166 Z M4.62667702,6.32989686 L4.62667702,6.58907859 L4.61224385,6.58907859 C4.25138654,6.58867126 4.00287926,6.29328163 4.00247194,5.93242432 L4.00247194,5.66608352 C4.00284456,5.33045334 4.23090392,5.06141968 4.56653409,5.06103584 L4.62667702,5.06103584 L4.62667702,6.32989686 Z M4.88535416,4.16416206 C4.88521062,3.80513029 4.93231795,3.44764022 5.02547275,3.10090397 C5.93779989,2.49891019 7.65098543,2.43011102 9.35453961,2.43011102 C11.0476141,2.43011102 12.5391346,2.50552776 13.4515735,3.10429499 C13.5441198,3.44997665 13.5909125,3.80630648 13.5907696,4.16416206 L13.5907696,6.35712808 C13.5907696,8.56298607 11.7899081,10.2313363 9.58405015,10.2313363 L8.87953267,10.2313363 C6.67366046,10.2313363 4.88535416,8.56298607 4.88535416,6.35712808 L4.88535416,4.16416206 Z M7.42325719,11.1050621 L7.42325719,10.9192137 C7.76388234,11.286364 8.57992476,11.4288356 9.46647607,11.2319553 C10.2070875,11.0674806 10.8108702,10.7095389 11.0775366,10.3183753 L11.0775366,11.0970556 C11.0772349,11.1753619 11.1403548,11.2391466 11.2186599,11.2396653 C11.3691787,11.2422563 11.5188182,11.2501349 11.6675724,11.2623527 C11.1318599,11.7274812 10.2809611,12.0032708 9.37016901,12.0032708 C8.45991099,12.0032708 7.60925781,11.7277248 7.07350675,11.2630045 C7.14434662,11.2570936 7.21533067,11.2518649 7.28659087,11.2481266 C7.36296401,11.2443978 7.4230294,11.1815157 7.42325719,11.1050621 Z M12.0927762,14.8042613 L10.1219485,18.4686427 L8.62676757,18.4686427 L6.65593788,14.8042613 L6.26487788,11.3795318 C6.29099078,11.3741529 6.31706307,11.3686074 6.34324501,11.363527 C6.36027931,11.3602436 6.37738063,11.3572323 6.39444742,11.3540646 C6.42843074,11.3477476 6.46242219,11.341461 6.49654156,11.3356577 C6.5186563,11.3319113 6.54086445,11.3285304 6.56303199,11.3249912 C6.59256028,11.3202762 6.62206015,11.3154476 6.65167778,11.3111123 C6.67867397,11.307169 6.70577576,11.3036886 6.73284708,11.3000601 C6.75806654,11.2966792 6.78324539,11.2931013 6.8085217,11.2899966 C6.83956275,11.2861914 6.87071752,11.2829181 6.90184792,11.2795373 C6.92369869,11.2771554 6.94550479,11.2745259 6.96738805,11.2723511 C6.97006838,11.2720831 6.97276089,11.2719064 6.97544528,11.2716486 C7.52031556,11.774925 8.4139068,12.0749554 9.37016291,12.0749554 C10.3268739,12.0749554 11.2206763,11.774659 11.765512,11.2710455 C11.7921448,11.2736175 11.818745,11.2763364 11.8453128,11.2792022 C11.8812616,11.2831171 11.9171462,11.2873217 11.9529665,11.291816 C11.9680312,11.2936943 11.9830878,11.2955725 11.9981341,11.2975503 C12.0392596,11.3029651 12.0803045,11.308738 12.1212689,11.3148689 C12.1296375,11.3161129 12.1380027,11.3173786 12.1463645,11.318666 C12.193943,11.3260004 12.2414085,11.3337929 12.288761,11.3420438 C12.3544311,11.3536017 12.4192118,11.3663434 12.4838362,11.3796699 L12.0927762,14.8042613 Z" id="Shape"></path>
                                <g id="Group-40" transform="translate(6.533742, 3.569907)" fill-rule="nonzero">
                                    <path d="M2.81591879,3.02529661 C2.95902959,3.0251254 3.07499828,2.90914853 3.0751594,2.76603772 C3.0751594,2.74624089 3.0462969,2.73019238 3.02650006,2.73019238 C3.00670323,2.73019238 2.97416242,2.74624089 2.97416242,2.76603772 C2.97405164,2.86957573 2.91945679,2.92849226 2.81591879,2.92861312 L2.61737545,2.92861312 C2.51383699,2.92849337 2.46636803,2.86957619 2.46625837,2.76603772 C2.46625837,2.74624089 2.43322927,2.73019238 2.41343244,2.73019238 C2.3936356,2.73019238 2.35813484,2.74624089 2.35813484,2.76603772 C2.35829484,2.90914899 2.4742642,3.02512652 2.61737545,3.02529661 L2.81591879,3.02529661 Z" id="Path"></path>
                                    <path d="M0.0101219427,1.26733784 C0.00116540073,1.27656662 -0.00216012016,1.28988664 0.00140758588,1.30224226 C0.00497529192,1.31459789 0.0148892873,1.32409498 0.027386702,1.3271289 C0.0398841167,1.33016281 0.0530490682,1.32626845 0.0618847817,1.31692393 C0.364900983,1.000285 0.867046797,0.988689491 1.18435581,1.29100393 C1.19864917,1.30469675 1.22133644,1.30420992 1.23502926,1.28991657 C1.24872208,1.27562321 1.24932261,1.20078983 1.23502926,1.18709701 C0.889113755,0.857445822 0.33183133,0.887054883 0.00140758588,1.23223251 L0.0101219427,1.26733784 Z" id="Path"></path>
                                    <path d="M5.37103178,1.32578119 C5.38450592,1.34028201 5.4071841,1.3411143 5.42168492,1.32764016 C5.43618574,1.31416602 5.43515905,1.24638928 5.42168492,1.23188846 C5.096568,0.882642548 4.55010404,0.866421767 4.2001199,1.19074386 C4.18561908,1.20421856 4.1866452,1.26804179 4.2001199,1.28254261 C4.21359459,1.29704343 4.23627323,1.29787527 4.25077405,1.28440057 C4.57173152,0.986958004 5.07289526,1.00547027 5.37103178,1.32578119 Z" id="Path"></path>
                                    <path d="M2.83508112,3.78916804 L3.9391858,3.78916804 C3.9391858,3.71142466 3.90830286,3.63686535 3.85332961,3.58189286 C3.79835636,3.52692037 3.72379662,3.49603955 3.64605324,3.49603955 L2.83508112,3.49603955 L2.83508112,3.78916804 Z" id="Path"></path>
                                    <path d="M2.59820704,3.49603955 L1.78723491,3.49603955 C1.70949223,3.49603955 1.63493354,3.52692193 1.57996117,3.5818943 C1.52498879,3.63686667 1.49410641,3.71142537 1.49410641,3.78916804 L2.59820704,3.78916804 L2.59820704,3.49603955 Z" id="Path"></path>
                                    <path d="M3.59502546,3.99163913 C3.59502546,3.96998635 3.57897556,3.95243054 3.55918012,3.95243054 L1.87411615,3.95243054 C1.85432071,3.95243054 1.83827081,3.96998635 1.83827081,3.99163913 C1.83827081,4.52226957 2.23153328,4.95243054 2.71664712,4.95243054 C3.20176096,4.95243054 3.59502546,4.52226957 3.59502546,3.99163913 L3.59502546,3.99163913 Z M1.92359462,4.1529978 C1.91671182,4.11265546 1.91241418,4.07183643 1.9107331,4.03083883 L3.52256317,4.03083883 C3.520956,4.06937549 3.5170333,4.10775479 3.51082049,4.14572823 C3.43086546,4.20582156 3.22388924,4.29600376 2.70131036,4.29600376 C2.19937205,4.29601264 2.0012734,4.21282238 1.92359259,4.1529978 L1.92359462,4.1529978 Z" id="Shape"></path>
                                </g>
                            </g>
                        </g>
                    </g>
                </g>
            </g>
        </g>
    </g>
</svg>