<?xml version="1.0" encoding="UTF-8"?>
<svg width="24px" height="24px" viewBox="0 0 24 24" version="1.1" xmlns="http://www.w3.org/2000/svg" xmlns:xlink="http://www.w3.org/1999/xlink">
    <!-- Generator: sketchtool 56.2 (101010) - https://sketch.com -->
    <title>564AE066-85B6-4A2A-863A-46E96232AE3F</title>
    <desc>Created with sketchtool.</desc>
    <g id="👽-GBV-Client" stroke="none" stroke-width="1" fill="none" fill-rule="evenodd">
        <g id="BGV-Client-zomato-employee-profile" transform="translate(-508.000000, -220.000000)" fill="#8697A8" fill-rule="nonzero">
            <g id="section" transform="translate(160.000000, 80.000000)">
                <g id="facebook-black-social-button-circle" transform="translate(348.000000, 140.000000)">
                    <path d="M24,12 C24,5.37270588 18.6272549,0 12,0 C5.37270588,0 0,5.37270588 0,12 C0,18.6272549 5.37270588,24 12,24 C18.6272549,24 24,18.6272549 24,12 Z M8.77745098,12 L8.77745098,9.70364706 L10.1847059,9.70364706 L10.1847059,8.31490196 C10.1847059,6.44180392 10.7443529,5.09235294 12.7952549,5.09235294 L15.2345098,5.09235294 L15.2345098,7.3832549 L13.517451,7.3832549 C12.6567059,7.3832549 12.4614118,7.95490196 12.4614118,8.55380392 L12.4614118,9.70360784 L15.1079608,9.70360784 L14.746902,12 L12.4614902,12 L12.4614902,18.9261569 L10.1847059,18.9261569 L10.1847059,12 L8.77745098,12 Z" id="Shape"></path>
                </g>
            </g>
        </g>
    </g>
</svg>