<?xml version="1.0" encoding="UTF-8"?>
<svg width="14px" height="20px" viewBox="0 0 14 20" version="1.1" xmlns="http://www.w3.org/2000/svg" xmlns:xlink="http://www.w3.org/1999/xlink">
    <!-- Generator: Sketch 55.2 (78181) - https://sketchapp.com -->
    <title>icon / 16 / info / male</title>
    <desc>Created with Sketch.</desc>
    <defs>
        <path d="M11.6665368,7 C10.2858249,7 9.16653675,5.88071187 9.16653675,4.5 C9.16653675,3.11928813 10.2858249,2 11.6665368,2 C13.0472486,2 14.1665368,3.11928813 14.1665368,4.5 C14.1665368,5.88071187 13.0472486,7 11.6665368,7 Z M18.2457034,13.2941667 C18.4515368,13.7058333 18.2840368,14.2058333 17.8732034,14.4125 C17.4573701,14.6191667 16.9598701,14.4483333 16.7548701,14.04 L14.7157034,9.96083333 C14.6382034,9.80583333 14.5165368,9.6875 14.3715368,9.6075 L16.0165368,17.8333333 L14.1665368,17.8333333 L14.1665368,21.1666667 C14.1665368,21.6275 13.7940368,22 13.3332034,22 C12.8723701,22 12.4998701,21.6275 12.4998701,21.1666667 L12.4998701,17.8333333 L10.8332034,17.8333333 L10.8332034,21.1666667 C10.8332034,21.6275 10.4607034,22 9.99987009,22 C9.53903675,22 9.16653675,21.6275 9.16653675,21.1666667 L9.16653675,17.8333333 L7.31653675,17.8333333 L8.96237009,9.6075 C8.81737009,9.6875 8.69570342,9.80583333 8.61820342,9.96083333 L6.57903675,14.04 C6.37237009,14.4516667 5.87320342,14.6166667 5.46070342,14.4125 C5.04903675,14.2066667 4.88237009,13.7058333 5.08820342,13.2941667 L7.12737009,9.215 C7.55320342,8.36333333 8.41070342,7.83333333 9.36320342,7.83333333 L13.9698701,7.83333333 C14.9223701,7.83333333 15.7798701,8.36333333 16.2065368,9.215 L18.2457034,13.2941667 Z" id="path-1"></path>
    </defs>
    <g id="👽-GBV-Client" stroke="none" stroke-width="1" fill="none" fill-rule="evenodd">
        <g id="BGV-Client-zomato-add-employee-Basic-information_1" transform="translate(-345.000000, -379.000000)">
            <g id="Basic-information" transform="translate(160.000000, 121.000000)">
                <g id="type-of-employees" transform="translate(40.000000, 228.000000)">
                    <g id="female" transform="translate(132.000000, 20.000000)">
                        <g id="icon-/-24-/-info-/-female" transform="translate(8.000000, 8.000000)">
                            <mask id="mask-2" fill="white">
                                <use xlink:href="#path-1"></use>
                            </mask>
                            <use id="Combined-Shape" fill="#000000" fill-rule="nonzero" xlink:href="#path-1"></use>
                            <rect id="Rectangle" fill="#8697A8" fill-rule="evenodd" mask="url(#mask-2)" x="0" y="0" width="24" height="24"></rect>
                        </g>
                    </g>
                </g>
            </g>
        </g>
    </g>
</svg>