<?xml version="1.0" encoding="UTF-8"?>
<svg width="200px" height="200px" viewBox="0 0 200 200" version="1.1" xmlns="http://www.w3.org/2000/svg" xmlns:xlink="http://www.w3.org/1999/xlink">
    <title>33504C19-BEBA-4959-9D7D-2E82A1F5788F</title>
    <g id="📺-Empty-State-/-skeleton-loader-" stroke="none" stroke-width="1" fill="none" fill-rule="evenodd">
        <g id="all-employee-filter-empty-state" transform="translate(-500.000000, -328.000000)">
            <g id="Group-3" transform="translate(500.000000, 328.000000)">
                <rect id="Rectangle" fill="#D8D8D8" opacity="0" x="0" y="0" width="200" height="200"></rect>
                <g id="Group-4" transform="translate(36.000000, 36.000000)">
                    <circle id="Oval" stroke="#9FBAE6" stroke-width="1.75342466" fill="#E9F1FC" cx="16.6575342" cy="6.1369863" r="3.50684932"></circle>
                    <circle id="Oval-Copy" stroke="#9FBAE6" stroke-width="1.75342466" fill="#E9F1FC" cx="30.6849315" cy="28.9315068" r="3.50684932"></circle>
                    <circle id="Oval-Copy-2" stroke="#9FBAE6" stroke-width="1.75342466" fill="#E9F1FC" cx="55.2328767" cy="14.9041096" r="3.50684932"></circle>
                    <circle id="Oval-Copy-3" stroke="#9FBAE6" stroke-width="1.75342466" fill="#E9F1FC" cx="78.0273973" cy="4.38356164" r="3.50684932"></circle>
                    <circle id="Oval-Copy-4" stroke="#9FBAE6" stroke-width="1.75342466" fill="#E9F1FC" cx="71.0136986" cy="28.9315068" r="3.50684932"></circle>
                    <circle id="Oval-Copy-5" stroke="#9FBAE6" stroke-width="1.75342466" fill="#E9F1FC" cx="99.0684932" cy="21.9178082" r="3.50684932"></circle>
                    <circle id="Oval-Copy-6" stroke="#9FBAE6" stroke-width="1.75342466" fill="#E9F1FC" cx="111.342466" cy="6.1369863" r="3.50684932"></circle>
                    <polygon id="Path-4" stroke="#9FBAE6" stroke-width="1.75342466" fill="#E9F1FC" stroke-linejoin="round" points="0.510316372 40.3777342 127.489546 40.3777342 120.860522 53.1734428 7.97610769 53.1734428"></polygon>
                    <polygon id="Path-5" stroke="#9FBAE6" stroke-width="1.75342466" fill="#E9F1FC" stroke-linejoin="round" points="113.972603 53.1734428 79.3998214 92.1129873 47.9228123 92.1129873 13.0108229 53.1734428"></polygon>
                    <polygon id="Path-6" stroke="#9FBAE6" stroke-width="1.75342466" fill="#E9F1FC" stroke-linejoin="round" points="47.9228123 92.1129873 53.4318044 127.174748 73.9396678 127.174748 79.3998214 92.1129873"></polygon>
                    <polygon id="Path-10" fill="#D6E6FC" points="105.205676 41.2637662 125.970345 41.2637662 120.309302 52.2710566 99.7903978 52.2710566"></polygon>
                    <polygon id="Path-11" fill="#D6E6FC" points="89.8070264 54.0578705 69.8247843 91.1780822 79.3998214 91.1780822 112.685645 54.0578705"></polygon>
                    <polygon id="Path-11-Copy" fill="#D6E6FC" points="68.3397436 92.8697337 63.1750421 126.280184 73.2241272 126.280184 78.3686839 92.8697337"></polygon>
                    <line x1="30.2247953" y1="59.1458588" x2="45.7348438" y2="76.4206081" id="Path-7" stroke="#9FBAE6" stroke-width="1.75342466" stroke-linecap="round"></line>
                    <g id="Group" transform="translate(102.698630, 77.150685)" stroke="#9FBAE6" stroke-linecap="round" stroke-width="1.75342466">
                        <line x1="3.38356164" y1="0" x2="3.38356164" y2="6.73690129" id="Path-8"></line>
                        <line x1="3.38356164" y1="0" x2="3.38356164" y2="6.73690129" id="Path-8" transform="translate(3.383562, 3.368451) rotate(90.000000) translate(-3.383562, -3.368451) "></line>
                    </g>
                    <g id="Group-Copy" transform="translate(25.547945, 91.178082)" stroke="#9FBAE6" stroke-linecap="round" stroke-width="1.75342466">
                        <line x1="3.38356164" y1="0" x2="3.38356164" y2="6.73690129" id="Path-8"></line>
                        <line x1="3.38356164" y1="0" x2="3.38356164" y2="6.73690129" id="Path-8" transform="translate(3.383562, 3.368451) rotate(90.000000) translate(-3.383562, -3.368451) "></line>
                    </g>
                    <g id="Group-Copy-2" transform="translate(88.671233, 108.712329)" stroke="#9FBAE6" stroke-linecap="round" stroke-width="1.75342466">
                        <line x1="3.38356164" y1="0" x2="3.38356164" y2="6.73690129" id="Path-8"></line>
                        <line x1="3.38356164" y1="0" x2="3.38356164" y2="6.73690129" id="Path-8" transform="translate(3.383562, 3.368451) rotate(90.000000) translate(-3.383562, -3.368451) "></line>
                    </g>
                    <g id="Group-Copy-3" transform="translate(11.520548, 110.465753)" stroke="#9FBAE6" stroke-linecap="round" stroke-width="1.75342466">
                        <line x1="3.38356164" y1="0" x2="3.38356164" y2="6.73690129" id="Path-8"></line>
                        <line x1="3.38356164" y1="0" x2="3.38356164" y2="6.73690129" id="Path-8" transform="translate(3.383562, 3.368451) rotate(90.000000) translate(-3.383562, -3.368451) "></line>
                    </g>
                    <g id="Group-Copy-4" transform="translate(1.000000, 64.876712)" stroke="#9FBAE6" stroke-linecap="round" stroke-width="1.75342466">
                        <line x1="3.38356164" y1="0" x2="3.38356164" y2="6.73690129" id="Path-8"></line>
                        <line x1="3.38356164" y1="0" x2="3.38356164" y2="6.73690129" id="Path-8" transform="translate(3.383562, 3.368451) rotate(90.000000) translate(-3.383562, -3.368451) "></line>
                    </g>
                    <line x1="47.2008065" y1="78.2772306" x2="51.0689755" y2="82.6886885" id="Path-9" stroke="#9FBAE6" stroke-width="1.75342466" stroke-linecap="round"></line>
                </g>
            </g>
        </g>
    </g>
</svg>