<?xml version="1.0" encoding="UTF-8"?>
<svg width="24px" height="24px" viewBox="0 0 24 24" version="1.1" xmlns="http://www.w3.org/2000/svg" xmlns:xlink="http://www.w3.org/1999/xlink">
    <title>Group 7</title>
    <g id="roster" stroke="none" stroke-width="1" fill="none" fill-rule="evenodd">
        <g id="roster_16A" transform="translate(-1400.000000, -286.000000)">
            <g id="Group-7" transform="translate(1400.000000, 286.000000)">
                <g id="icon-/-24-/-info-/-arrow-/-down" transform="translate(12.000000, 12.000000) scale(1, -1) translate(-12.000000, -12.000000) ">
                    <path d="M0,0 L20,0 C22.209139,-4.05812251e-16 24,1.790861 24,4 L24,20 C24,22.209139 22.209139,24 20,24 L0,24 L0,24 L0,0 Z" id="Rectangle" fill="#E5EEF7"></path>
                    <path d="M18.7862089,5 L5.21566083,5 C5.13084491,5 5.05875137,5.05310345 5.0205842,5.14 C4.98241704,5.22689655 4.99938022,5.32827586 5.05451057,5.40068966 L10.9407358,13.0572414 L10.9407358,17.3103448 C10.9407358,17.4455172 11.0340333,17.5517241 11.1527756,17.5517241 L12.8490941,19 C12.9678364,19 13.061134,18.8937931 13.061134,18.7586207 L13.061134,13.0572414 L18.9473592,5.40068966 C19.0024895,5.32827586 19.0152119,5.22689655 18.9812856,5.14 C18.9473592,5.05310345 18.8710249,5 18.7862089,5 Z" id="Path" fill="#0059B2" transform="translate(12.000000, 12.000000) rotate(-180.000000) translate(-12.000000, -12.000000) "></path>
                </g>
            </g>
        </g>
    </g>
</svg>