<?xml version="1.0" encoding="UTF-8"?>
<svg width="32px" height="32px" viewBox="0 0 32 32" version="1.1" xmlns="http://www.w3.org/2000/svg" xmlns:xlink="http://www.w3.org/1999/xlink">
    <title>Group 9</title>
    <g id="roster" stroke="none" stroke-width="1" fill="none" fill-rule="evenodd">
        <g id="roster_18A" transform="translate(-176.000000, -294.000000)">
            <g id="Group-20" transform="translate(160.000000, 286.000000)">
                <g id="Group-9" transform="translate(16.000000, 8.000000)">
                    <rect id="Rectangle" fill="#E5EEF7" x="0" y="0" width="32" height="32" rx="16"></rect>
                    <g id="noun_filter_1051474" transform="translate(9.600000, 8.800000)" fill="#0059B2">
                        <path d="M0.119035591,1.19035591 L4.93997704,7.53892078 L4.93997704,12.1813088 C4.93997704,12.3201837 5.0193341,12.4392193 5.11853042,12.5185763 L7.55876005,14.0461998 C7.61827784,14.0858783 7.6976349,14.1057176 7.77699196,14.1057176 C7.83650976,14.1057176 7.91586682,14.0858783 7.97538462,14.0461998 C8.09442021,13.9668427 8.17377727,13.8478071 8.17377727,13.7089323 L8.17377727,7.53892078 L12.9947187,1.19035591 C12.9947187,1.19035591 13.014558,1.17051665 13.014558,1.17051665 C13.1335936,0.972123995 13.1534328,0.714213548 13.0343972,0.515820896 C12.9153617,0.317428243 12.6971297,0.178553387 12.4788978,0.178553387 L0.634856487,0.178553387 C0.396785304,0.178553387 0.178553387,0.297588978 0.0793570608,0.515820896 C-0.0198392652,0.734052813 -0.0198392652,0.972123995 0.0991963261,1.17051665 C0.0991963261,1.17051665 0.0991963261,1.17051665 0.119035591,1.19035591 Z M12.1416303,0.972123995 L7.45956372,7.18181401 C7.40004592,7.2413318 7.38020666,7.34052813 7.38020666,7.41988519 L7.38020666,12.9947187 L5.73354765,11.9630769 L5.73354765,7.41988519 C5.73354765,7.34052813 5.71370838,7.2413318 5.65419059,7.18181401 L0.95228473,0.972123995 L12.1416303,0.972123995 Z" id="Shape"></path>
                    </g>
                </g>
            </g>
        </g>
    </g>
</svg>