<?xml version="1.0" encoding="UTF-8"?>
<svg width="16px" height="16px" viewBox="0 0 16 16" version="1.1" xmlns="http://www.w3.org/2000/svg" xmlns:xlink="http://www.w3.org/1999/xlink">
    <!-- Generator: sketchtool 57.1 (101010) - https://sketch.com -->
    <title>00390562-A357-4F6D-A485-E4E965066F8E</title>
    <desc>Created with sketchtool.</desc>
    <g id="location-&amp;-Site" stroke="none" stroke-width="1" fill="none" fill-rule="evenodd">
        <g id="03-BGV-Client-onboarding_location-&amp;-site_D1" transform="translate(-817.000000, -696.000000)">
            <g id="add-section" transform="translate(805.000000, 174.000000)">
                <g id="cta" transform="translate(0.000000, 347.000000)">
                    <g id="Group-2">
                        <g id="text-input-/-small-/--add-fun-role" transform="translate(12.000000, 63.000000)">
                            <g id="add-group-copy" transform="translate(0.000000, 112.000000)">
                                <g id="floor">
                                    <rect id="Rectangle" fill="#0059B2" x="0" y="0" width="16" height="16" rx="2"></rect>
                                    <path d="M8.348,4.012 C8.7213352,4.012 9.1568864,4.0586662 9.65466667,4.152 L9.65466667,10.6666667 L8.84266667,10.6666667 L8.84266667,4.75866667 C8.61866555,4.74622216 8.45377831,4.74 8.348,4.74 C7.93110903,4.74 7.62155657,4.82711024 7.41933333,5.00133333 C7.2171101,5.17555643 7.116,5.46177579 7.116,5.86 L7.116,6 L8.08666667,6 L8.08666667,6.784 L7.116,6.784 L7.116,10.6666667 L6.304,10.6666667 L6.304,6.784 L5.55733333,6.784 L5.55733333,6 L6.304,6 L6.304,5.86 C6.304,4.62799384 6.98532652,4.012 8.348,4.012 Z" id="f" fill="#FFFFFF" fill-rule="nonzero"></path>
                                </g>
                            </g>
                        </g>
                    </g>
                </g>
            </g>
        </g>
    </g>
</svg>