<?xml version="1.0" encoding="UTF-8"?>
<svg width="24px" height="21px" viewBox="0 0 24 21" version="1.1" xmlns="http://www.w3.org/2000/svg" xmlns:xlink="http://www.w3.org/1999/xlink">
    <!-- Generator: sketchtool 55.2 (78181) - https://sketchapp.com -->
    <title>36A1BEF1-1350-452C-A61E-8664DF499494</title>
    <desc>Created with sketchtool.</desc>
    <defs>
        <path d="M12,6.32 L22,6.32 C23.1045695,6.32 24,7.2154305 24,8.32 L24,20.4 C24,21.5045695 23.1045695,22.4 22,22.4 L2,22.4 C0.8954305,22.4 1.3527075e-16,21.5045695 0,20.4 L0,8.72 L0,4 C-1.3527075e-16,2.8954305 0.8954305,2 2,2 L10,2 C11.1045695,2 12,2.8954305 12,4 L12,6.32 Z" id="path-1"></path>
    </defs>
    <g id="ðŸ‚-on-boarding" stroke="none" stroke-width="1" fill="none" fill-rule="evenodd">
        <g id="03-BGV-Client-onboarding_fun&amp;role_E3" transform="translate(-392.000000, -295.000000)">
            <g id="text-input-/-small-/--add-fun-role" transform="translate(384.000000, 285.000000)">
                <g id="Group-2" transform="translate(8.000000, 8.000000)">
                    <g id="icon-/-24-/-info-/-folder">
                        <rect id="Rectangle" x="0" y="0" width="24" height="24"></rect>
                        <rect id="Rectangle-6" fill="#000000" opacity="0.600000024" style="mix-blend-mode: multiply;" x="1.44" y="4.4" width="19.92" height="10.56" rx="1"></rect>
                        <mask id="mask-2" fill="white">
                            <use xlink:href="#path-1"></use>
                        </mask>
                        <use id="Combined-Shape" fill="#6A54CD" xlink:href="#path-1"></use>
                        <rect id="Rectangle" fill="#6A54CD" mask="url(#mask-2)" x="0" y="0" width="24" height="24"></rect>
                        <path d="M15.16,19.0265 C14.3415,18.75 13.921,18.1465 13.7075,17.66 C14.8865,16.953 15.5,15.275 15.5,14 C15.5,12.343 14.157,11 12.5,11 C10.843,11 9.5,12.343 9.5,14 C9.5,15.276 10.114,16.955 11.2945,17.661 C11.082,18.1515 10.6625,18.7595 9.846,19.0245 C8.406,19.491 7,19.6435 7,22 L7,23 L18,23 L18,22 C18,19.6785 16.6565,19.532 15.16,19.0265 Z" id="Path" fill="#000000" opacity="0.200000003" mask="url(#mask-2)"></path>
                    </g>
                </g>
            </g>
        </g>
    </g>
</svg>