<?xml version="1.0" encoding="UTF-8"?>
<svg width="41px" height="40px" viewBox="0 0 41 40" version="1.1" xmlns="http://www.w3.org/2000/svg" xmlns:xlink="http://www.w3.org/1999/xlink">
    <title>Group 20 Copy</title>
    <g id="Page-1" stroke="none" stroke-width="1" fill="none" fill-rule="evenodd">
        <g id="site/shift-management_03" transform="translate(-602.000000, -579.000000)">
            <g id="personal_details-DL" transform="translate(280.000000, 118.000000)">
                <g id="shift-name-copy-3" transform="translate(322.000000, 439.000000)">
                    <g id="Group-20-Copy" transform="translate(0.000000, 22.000000)">
                        <path d="M4,0 L37,0 C39.209139,-4.05812251e-16 41,1.790861 41,4 L41,36 C41,38.209139 39.209139,40 37,40 L4,40 C1.790861,40 2.705415e-16,38.209139 0,36 L0,4 C-2.705415e-16,1.790861 1.790861,4.05812251e-16 4,0 Z" id="input-copy" fill="#F3F7FD"></path>
                        <g id="icon-/-48-/-info-/-verification-/-pan" transform="translate(13.000000, 12.000000)" fill="#0059B2">
                            <g id="noun_Log-Out_2432013" transform="translate(0.500000, 0.500000)">
                                <path d="M1.94108164,0 L12.9281545,0 C13.9955367,0 14.8690123,0.881170376 14.8690123,1.95795561 L14.8690123,2.76322923 L6.77061098,2.76322923 C5.19898195,2.76322923 3.91283904,4.06070235 3.91283904,5.64617655 L3.91283904,9.35382345 C3.91283904,10.9392977 5.19898195,12.2367708 6.77061098,12.2367708 L14.8690123,12.2367708 L14.8690123,13.0420444 C14.8690123,14.1188296 13.9955367,15 12.9281545,15 L1.94108164,15 C0.873251631,15 0,14.1188296 0,13.0420444 L0,1.95795561 C0,0.881170376 0.873251631,0 1.94108164,0 L1.94108164,0 Z M9.93178188,5.78193236 L5.08635488,5.78193236 L5.08635488,9.21806764 L9.93178188,9.21806764 L9.93178188,11.1188748 L15,7.5 L9.93178188,3.8811252 L9.93178188,5.78193236 L9.93178188,5.78193236 Z" id="Shape"></path>
                            </g>
                        </g>
                    </g>
                </g>
            </g>
        </g>
    </g>
</svg>