<?xml version="1.0" encoding="UTF-8"?>
<svg width="24px" height="21px" viewBox="0 0 24 21" version="1.1" xmlns="http://www.w3.org/2000/svg" xmlns:xlink="http://www.w3.org/1999/xlink">
    <!-- Generator: Sketch 59 (86127) - https://sketch.com -->
    <title>Group 11</title>
    <desc>Created with Sketch.</desc>
    <defs>
        <path d="M0,4 C-1.3527075e-16,2.8954305 0.8954305,2 2,2 L10,2 C11.1045695,2 12,2.8954305 12,4 L12,6.319 L22,6.32 C23.1045695,6.32 24,7.2154305 24,8.32 L24,20.4 C24,21.5045695 23.1045695,22.4 22,22.4 L2,22.4 C0.8954305,22.4 1.3527075e-16,21.5045695 0,20.4 L0,4 Z" id="path-1"></path>
    </defs>
    <g id="📺-Empty-State" stroke="none" stroke-width="1" fill="none" fill-rule="evenodd">
        <g id="icons-copy" transform="translate(-302.000000, -136.000000)">
            <g id="text-input-/-small-/--add-fun-role" transform="translate(294.000000, 126.000000)">
                <g id="Group-2" transform="translate(8.000000, 8.000000)">
                    <g id="Group-11">
                        <g id="icon-/-24-/-info-/-folder-copy">
                            <rect id="Rectangle" x="0" y="0" width="24" height="24"></rect>
                            <rect id="Rectangle-6" fill="#000000" opacity="0.600000024" style="mix-blend-mode: multiply;" x="1.44" y="4.4" width="19.92" height="10.56" rx="1"></rect>
                            <mask id="mask-2" fill="white">
                                <use xlink:href="#path-1"></use>
                            </mask>
                            <use id="Combined-Shape" fill="#6A54CD" xlink:href="#path-1"></use>
                            <rect id="Rectangle" fill="#6A54CD" mask="url(#mask-2)" x="0" y="0" width="24" height="24"></rect>
                            <path d="M13.9345455,14.8374545 C13.3392727,14.6363636 13.0334545,14.1974545 12.8781818,13.8436364 C13.7356364,13.3294545 14.1818182,12.1090909 14.1818182,11.1818182 C14.1818182,9.97672727 13.2050909,9 12,9 C10.7949091,9 9.81818182,9.97672727 9.81818182,11.1818182 C9.81818182,12.1098182 10.2647273,13.3309091 11.1232727,13.8443636 C10.9687273,14.2010909 10.6636364,14.6432727 10.0698182,14.836 C9.02254545,15.1752727 8,15.2861818 8,17 L8,17.7272727 L16,17.7272727 L16,17 C16,15.3116364 15.0229091,15.2050909 13.9345455,14.8374545 Z" id="Path" fill="#000000" opacity="0.200000003" mask="url(#mask-2)"></path>
                        </g>
                    </g>
                </g>
            </g>
        </g>
    </g>
</svg>