<?xml version="1.0" encoding="UTF-8"?>
<svg width="40px" height="40px" viewBox="0 0 40 40" version="1.1" xmlns="http://www.w3.org/2000/svg" xmlns:xlink="http://www.w3.org/1999/xlink">
    <!-- Generator: sketchtool 55.2 (78181) - https://sketchapp.com -->
    <title>B833C674-682D-4BD1-944C-B13DAFFC577C</title>
    <desc>Created with sketchtool.</desc>
    <defs>
        <rect id="path-1" x="0" y="0" width="40" height="40" rx="19.5"></rect>
        <path d="M12,6 C11.1715729,6 10.5,5.32842712 10.5,4.5 C10.5,3.67157288 11.1715729,3 12,3 C12.8284271,3 13.5,3.67157288 13.5,4.5 C13.5,5.32842712 12.8284271,6 12,6 Z M19.5,10.5 C18.6715729,10.5 18,9.82842712 18,9 C18,8.17157288 18.6715729,7.5 19.5,7.5 C20.3284271,7.5 21,8.17157288 21,9 C21,9.82842712 20.3284271,10.5 19.5,10.5 Z M4.5,10.5 C3.67157288,10.5 3,9.82842712 3,9 C3,8.17157288 3.67157288,7.5 4.5,7.5 C5.32842712,7.5 6,8.17157288 6,9 C6,9.82842712 5.32842712,10.5 4.5,10.5 Z M17.25,21 L6.75,21 L6.75,19.25775 C6.75,18.3495 7.29075,17.52825 8.13,17.181 C8.97675,16.83 10.2405,16.5 12,16.5 C13.7595,16.5 15.02325,16.83 15.87,17.181 C16.70925,17.52825 17.25,18.3495 17.25,19.25775 L17.25,21 Z M9,12 C9,10.34325 10.34325,9 12,9 C13.65675,9 15,10.34325 15,12 C15,13.65675 13.65675,15.75 12,15.75 C10.34325,15.75 9,13.65675 9,12 Z" id="path-3"></path>
    </defs>
    <g id="ðŸ‚-on-boarding" stroke="none" stroke-width="1" fill="none" fill-rule="evenodd">
        <g id="03-BGV-Client-onboarding_fun&amp;role_E3" transform="translate(-160.000000, -64.000000)">
            <g id="section-title" transform="translate(160.000000, 64.000000)">
                <g id="icon-/-40-/-info-/-container">
                    <g>
                        <mask id="mask-2" fill="white">
                            <use xlink:href="#path-1"></use>
                        </mask>
                        <use fill="#9A5A1E" xlink:href="#path-1"></use>
                    </g>
                    <g id="icon-/-24-/-info-/-form" transform="translate(8.000000, 8.000000)">
                        <mask id="mask-4" fill="white">
                            <use xlink:href="#path-3"></use>
                        </mask>
                        <use id="Combined-Shape" fill="#FFFFFF" fill-rule="nonzero" xlink:href="#path-3"></use>
                        <rect id="Rectangle" fill="#FFFFFF" mask="url(#mask-4)" x="0" y="0" width="24" height="24"></rect>
                    </g>
                </g>
            </g>
        </g>
    </g>
</svg>