<?xml version="1.0" encoding="UTF-8"?>
<svg width="24px" height="24px" viewBox="0 0 24 24" version="1.1" xmlns="http://www.w3.org/2000/svg" xmlns:xlink="http://www.w3.org/1999/xlink">
    <title>3DA44717-8543-4800-885B-C5C008F94C9E</title>
    <g id="profille_view-mode" stroke="none" stroke-width="1" fill="none" fill-rule="evenodd">
        <g id="attendance-_profile_01" transform="translate(-196.000000, -504.000000)">
            <g id="leave" transform="translate(196.000000, 504.000000)">
                <circle id="Oval" fill="#FFFFFF" opacity="0.1" cx="12" cy="12" r="12"></circle>
                <g id="noun_holiday_2185777" opacity="0.800000012" transform="translate(6.000000, 6.000000)" fill="#72CEDF">
                    <g id="Group">
                        <path d="M5.15853659,10.097561 L8.19512195,10.097561 C9.29268293,8.67073171 10.4268293,7.2804878 11.5243902,5.8902439 C11.7073171,5.63414634 12.1097561,5.92682927 11.9268293,6.18292683 L9.1097561,9.69512195 L9.73170732,11.7804878 C9.80487805,12.0731707 9.32926829,12.2195122 9.25609756,11.8902439 L8.74390244,10.1707317 L8.52439024,10.4634146 C8.48780488,10.5365854 8.41463415,10.5731707 8.30487805,10.5731707 L5.26829268,10.5731707 L3.84146341,12 C3.62195122,12.2195122 3.25609756,11.8902439 3.51219512,11.6707317 L4.97560976,10.1707317 C5.04878049,10.097561 5.08536585,10.097561 5.15853659,10.097561 Z" id="Path" fill-rule="nonzero"></path>
                        <path d="M4.57317073,8.37804878 L6.84146341,8.37804878 C6.91463415,8.15853659 7.17073171,7.90243902 7.31707317,7.7195122 L5.70731707,7.7195122 C5.04878049,7.7195122 5.04878049,6.73170732 5.70731707,6.73170732 L8.12195122,6.73170732 L8.59756098,6.18292683 C9.18292683,5.41463415 10.3536585,6.36585366 9.73170732,7.09756098 L8.12195122,9.07317073 C8.01219512,9.2195122 7.75609756,9.36585366 7.57317073,9.36585366 L4.79268293,9.36585366 L2.63414634,11.5243902 C2.19512195,11.9634146 1.5,11.2682927 1.93902439,10.8292683 L4.20731707,8.52439024 C4.31707317,8.45121951 4.46341463,8.37804878 4.57317073,8.37804878 Z" id="Path" fill-rule="nonzero"></path>
                        <path d="M5.85365854,5.7804878 L6,5.52439024 L5.26829268,5.52439024 L5.37804878,5.67073171 L5.85365854,5.7804878 Z M5.70731707,6.25609756 L5.70731707,7.06097561 L5.56097561,7.06097561 L5.56097561,6.25609756 C5.41463415,6 5.23170732,5.70731707 5.08536585,5.41463415 C5.45121951,5.41463415 5.81707317,5.41463415 6.18292683,5.41463415 C6.03658537,5.70731707 5.85365854,6 5.70731707,6.25609756 Z" id="Shape" fill-rule="nonzero"></path>
                        <circle id="Oval" cx="9.95121951" cy="4.97560976" r="1"></circle>
                        <path d="M0,4.2804878 C0.0731707317,2.23170732 1.75609756,0.548780488 3.84146341,0.475609756 C2.85365854,1.5 2.45121951,2.74390244 2.48780488,4.13414634 C1.93902439,3.32926829 0.475609756,3.36585366 0,4.2804878 Z M4.17073171,0.475609756 C6.29268293,0.548780488 7.97560976,2.19512195 8.08536585,4.24390244 C7.57317073,3.32926829 6.07317073,3.29268293 5.56097561,4.17073171 C5.48780488,2.85365854 5.15853659,1.42682927 4.17073171,0.475609756 Z M5.34146341,4.13414634 C4.79268293,3.32926829 3.25609756,3.36585366 2.70731707,4.20731707 C2.67073171,2.81707317 3.03658537,1.6097561 4.02439024,0.62195122 C4.93902439,1.53658537 5.26829268,2.8902439 5.34146341,4.13414634 Z" id="Shape"></path>
                        <path d="M4.19086246,0.175985335 L4.19086246,0.263978002 C4.02419579,0.263978002 4.24839158,0.263978002 4.08172491,0.263978002 C3.91505825,0.263978002 3.96666667,0.263978002 3.8,0.263978002 L3.8,0.175985335 C3.8,-0.0586617781 4.19086246,-0.0586617781 4.19086246,0.175985335 Z M4.19086246,2.99175069 L4.19086246,7.8020165 C4.19086246,8.0659945 3.8,8.0659945 3.8,7.8020165 L3.8,2.99175069 C4.13333333,2.9624198 3.85752912,2.9624198 4.19086246,2.99175069 Z" id="Shape"></path>
                    </g>
                </g>
            </g>
        </g>
    </g>
</svg>