<?xml version="1.0" encoding="UTF-8"?>
<svg width="14px" height="16px" viewBox="0 0 14 16" version="1.1" xmlns="http://www.w3.org/2000/svg" xmlns:xlink="http://www.w3.org/1999/xlink">
    <!-- Generator: Sketch 60.1 (88133) - https://sketch.com -->
    <title>database</title>
    <desc>Created with Sketch.</desc>
    <g id="Page-1" stroke="none" stroke-width="1" fill="none" fill-rule="evenodd" opacity="0.503417969">
        <g id="Security-Guard" transform="translate(-16.000000, -12.000000)" fill="#010E39" fill-rule="nonzero">
            <g id="database" transform="translate(16.000000, 12.000000)">
                <g id="Group">
                    <path d="M6.73684211,-7.99360578e-14 C3.47479224,-7.99360578e-14 0,0.869565221 0,2.43478261 C0,4 3.47479224,4.86956522 6.73684211,4.86956522 C9.99889196,4.86956522 13.4736842,4 13.4736842,2.43478261 C13.4736842,0.869565221 9.99889196,-7.99360578e-14 6.73684211,-7.99360578e-14 Z" id="Path"></path>
                    <path d="M6.73684211,5.56521739 C4.64487534,5.56521739 1.41828255,5.1826087 0,3.89565218 L0,8 C0,9.56521743 3.47479224,10.4347826 6.73684211,10.4347826 C9.99889196,10.4347826 13.4736842,9.56521743 13.4736842,8 L13.4736842,3.89565218 C12.0554017,5.1826087 8.82880884,5.56521739 6.73684211,5.56521739 Z" id="Path"></path>
                    <path d="M6.73684211,11.1304348 C4.64487534,11.1304348 1.41828255,10.7478261 0,9.46086956 L0,13.5652174 C0,15.1304348 3.47479224,16 6.73684211,16 C9.99889196,16 13.4736842,15.1304348 13.4736842,13.5652174 L13.4736842,9.46086956 C12.0554017,10.7478261 8.82880884,11.1304348 6.73684211,11.1304348 Z" id="Path"></path>
                </g>
            </g>
        </g>
    </g>
</svg>