<?xml version="1.0" encoding="UTF-8"?>
<svg width="12px" height="12px" viewBox="0 0 12 12" version="1.1" xmlns="http://www.w3.org/2000/svg" xmlns:xlink="http://www.w3.org/1999/xlink">
    <!-- Generator: Sketch 57.1 (83088) - https://sketch.com -->
    <title>icon / 16 / info / onhold</title>
    <desc>Created with Sketch.</desc>
    <defs>
        <path d="M6.85966937,0.14817747 C7.88594133,-0.264996956 9.04549537,0.214818507 9.48532621,1.22776226 L9.48532621,1.22776226 L9.53863904,1.36104433 C9.73856215,1.854188 10.1250802,2.24070602 10.6182238,2.44062912 L10.6182238,2.44062912 L10.7648341,2.50727016 C11.7777779,2.93377279 12.2709215,4.10665504 11.8444189,5.11959879 L11.8444189,5.11959879 L11.7777779,5.27953728 C11.5778548,5.75935274 11.5778548,6.30580924 11.7777779,6.79895291 L11.7777779,6.79895291 L11.8444189,6.91890678 C12.2709215,7.94517874 11.7911061,9.10473277 10.7648341,9.53123541 L10.7648341,9.53123541 L10.6582084,9.57122003 C10.1650648,9.77114314 9.77854677,10.1576611 9.57862366,10.6508048 L9.57862366,10.6508048 L9.52531083,10.7574305 C9.0988082,11.7703742 7.92592595,12.2635179 6.9129822,11.8370153 L6.9129822,11.8370153 L6.79302833,11.7837024 C6.29988466,11.5837793 5.75342817,11.5837793 5.2602845,11.7837024 L5.2602845,11.7837024 L5.11367421,11.8503435 C4.10073046,12.2635179 2.92784822,11.7837024 2.51467379,10.7574305 L2.51467379,10.7574305 L2.44803276,10.6108202 C2.24810965,10.1176765 1.86159164,9.73115852 1.36844797,9.53123541 L1.36844797,9.53123541 L1.23516589,9.47792258 C0.20889393,9.06474815 -0.270921532,7.89186591 0.155581101,6.87892215 L0.155581101,6.87892215 L0.20889393,6.73231187 C0.40881704,6.25249641 0.40881704,5.70603991 0.20889393,5.21289624 L0.20889393,5.21289624 L0.155581101,5.09294238 C-0.270921532,4.07999862 0.222222138,2.90711638 1.22183768,2.48061375 L1.22183768,2.48061375 L1.34179155,2.42730092 C1.83493522,2.22737781 2.22145323,1.8408598 2.42137634,1.34771613 L2.42137634,1.34771613 L2.47468917,1.24109047 C2.9011918,0.228146714 4.07407405,-0.264996956 5.07368959,0.14817747 L5.07368959,0.14817747 L5.19364346,0.201490299 C5.68678713,0.401413409 6.23324363,0.401413409 6.7263873,0.201490299 L6.7263873,0.201490299 Z M8.4,4 L5.1,6.4 L3.6,5.5 L3,6.1 L5.1,8.5 L9,4.6 L8.4,4 Z" id="path-1"></path>
    </defs>
    <g id="🤖-BGV-OPs" stroke="none" stroke-width="1" fill="none" fill-rule="evenodd">
        <g id="OpsTask_AddComments_2" transform="translate(-208.000000, -585.000000)">
            <g id="comment-box" transform="translate(200.000000, 434.000000)">
                <g id="icon-/-12-/-info-/-verified-/-green" transform="translate(8.000000, 151.000000)">
                    <mask id="mask-2" fill="white">
                        <use xlink:href="#path-1"></use>
                    </mask>
                    <path d="M6.85966937,0.14817747 C7.88594133,-0.264996956 9.04549537,0.214818507 9.48532621,1.22776226 L9.48532621,1.22776226 L9.53863904,1.36104433 C9.73856215,1.854188 10.1250802,2.24070602 10.6182238,2.44062912 L10.6182238,2.44062912 L10.7648341,2.50727016 C11.7777779,2.93377279 12.2709215,4.10665504 11.8444189,5.11959879 L11.8444189,5.11959879 L11.7777779,5.27953728 C11.5778548,5.75935274 11.5778548,6.30580924 11.7777779,6.79895291 L11.7777779,6.79895291 L11.8444189,6.91890678 C12.2709215,7.94517874 11.7911061,9.10473277 10.7648341,9.53123541 L10.7648341,9.53123541 L10.6582084,9.57122003 C10.1650648,9.77114314 9.77854677,10.1576611 9.57862366,10.6508048 L9.57862366,10.6508048 L9.52531083,10.7574305 C9.0988082,11.7703742 7.92592595,12.2635179 6.9129822,11.8370153 L6.9129822,11.8370153 L6.79302833,11.7837024 C6.29988466,11.5837793 5.75342817,11.5837793 5.2602845,11.7837024 L5.2602845,11.7837024 L5.11367421,11.8503435 C4.10073046,12.2635179 2.92784822,11.7837024 2.51467379,10.7574305 L2.51467379,10.7574305 L2.44803276,10.6108202 C2.24810965,10.1176765 1.86159164,9.73115852 1.36844797,9.53123541 L1.36844797,9.53123541 L1.23516589,9.47792258 C0.20889393,9.06474815 -0.270921532,7.89186591 0.155581101,6.87892215 L0.155581101,6.87892215 L0.20889393,6.73231187 C0.40881704,6.25249641 0.40881704,5.70603991 0.20889393,5.21289624 L0.20889393,5.21289624 L0.155581101,5.09294238 C-0.270921532,4.07999862 0.222222138,2.90711638 1.22183768,2.48061375 L1.22183768,2.48061375 L1.34179155,2.42730092 C1.83493522,2.22737781 2.22145323,1.8408598 2.42137634,1.34771613 L2.42137634,1.34771613 L2.47468917,1.24109047 C2.9011918,0.228146714 4.07407405,-0.264996956 5.07368959,0.14817747 L5.07368959,0.14817747 L5.19364346,0.201490299 C5.68678713,0.401413409 6.23324363,0.401413409 6.7263873,0.201490299 L6.7263873,0.201490299 Z M8.4,4 L5.1,6.4 L3.6,5.5 L3,6.1 L5.1,8.5 L9,4.6 L8.4,4 Z"></path>
                    <rect id="Rectangle" fill="#4BB752" fill-rule="evenodd" mask="url(#mask-2)" x="0" y="0" width="12" height="12"></rect>
                </g>
            </g>
        </g>
    </g>
</svg>