<?xml version="1.0" encoding="UTF-8"?>
<svg width="12px" height="12px" viewBox="0 0 12 12" version="1.1" xmlns="http://www.w3.org/2000/svg" xmlns:xlink="http://www.w3.org/1999/xlink">
    <title>6555D7D2-1B9C-4518-980B-C3BC6764BCE2</title>
    <g id="⛑-in-progress-screen" stroke="none" stroke-width="1" fill="none" fill-rule="evenodd">
        <g id="vendor_management_filter_06" transform="translate(-1367.000000, -548.000000)">
            <g id="Group-19" transform="translate(1080.000000, 135.000000)">
                <g id="Group-9" transform="translate(16.000000, 283.000000)">
                    <g id="Group-2" transform="translate(277.000000, 136.000000) scale(-1, 1) translate(-277.000000, -136.000000) translate(271.000000, 130.000000)">
                        <rect id="Rectangle" x="0" y="0" width="12" height="12"></rect>
                        <g id="noun_Tag_2146578" transform="translate(1.000000, 1.000000)" fill-rule="nonzero">
                            <g id="Group">
                                <path d="M9.9375,0.0625 C9.89945652,0.027173913 9.85326087,0.00815217391 9.80163043,0.00815217391 L5.87228261,0.027173913 C5.86684783,0.027173913 5.86413043,0.027173913 5.85869565,0.027173913 C5.39673913,0.0597826087 4.96467391,0.258152174 4.63858696,0.58423913 L0.380434783,4.8423913 C-0.116847826,5.33967391 -0.116847826,6.14945652 0.380434783,6.64945652 L3.35054348,9.61956522 C3.60054348,9.86956522 3.92663043,9.99184783 4.25271739,9.99184783 C4.57880435,9.99184783 4.9076087,9.86684783 5.1548913,9.61956522 L9.41576087,5.36141304 C9.74184783,5.03532609 9.94021739,4.60054348 9.97282609,4.14130435 C9.97282609,4.13586957 9.97282609,4.13315217 9.97282609,4.12771739 L9.99184783,0.198369565 C9.99184783,0.14673913 9.97282609,0.097826087 9.9375,0.0625 Z M6.61413043,4.35597826 C6.07880435,4.35597826 5.64673913,3.92119565 5.64673913,3.38858696 C5.64673913,2.85326087 6.08152174,2.42119565 6.61413043,2.42119565 C7.14945652,2.42119565 7.58152174,2.85597826 7.58152174,3.38858696 C7.58152174,3.92119565 7.14673913,4.35597826 6.61413043,4.35597826 Z" id="Shape" stroke="#8697A8" stroke-width="0.5"></path>
                                <circle id="Oval" transform="translate(6.613969, 3.385285) rotate(-13.285796) translate(-6.613969, -3.385285) " cx="6.61396902" cy="3.38528533" r="1"></circle>
                            </g>
                        </g>
                    </g>
                </g>
            </g>
        </g>
    </g>
</svg>