<?xml version="1.0" encoding="UTF-8"?>
<svg width="16px" height="16px" viewBox="0 0 16 16" version="1.1" xmlns="http://www.w3.org/2000/svg" xmlns:xlink="http://www.w3.org/1999/xlink">
    <!-- Generator: Sketch 63.1 (92452) - https://sketch.com -->
    <title>downloade</title>
    <desc>Created with Sketch.</desc>
    <g id="📤-excel-uploade" stroke="none" stroke-width="1" fill="none" fill-rule="evenodd">
        <g id="downloade" fill="#8697A8">
            <polygon id="Path" points="10 8.66666667 10 3.33333333 6 3.33333333 6 8.66666667 3.33333333 8.66666667 8 14 12.6666667 8.66666667"></polygon>
            <polygon id="Path" fill-rule="nonzero" points="14.6666667 1.33333333 14.6666667 4.66666667 16 4.66666667 16 1.5187851e-13 11.3333333 1.5187851e-13 11.3333333 1.33333333"></polygon>
            <polygon id="Path" fill-rule="nonzero" points="1.33333333 1.33333333 4.66666667 1.33333333 4.66666667 1.5187851e-13 -3.02868841e-13 1.5187851e-13 -3.02868841e-13 4.66666667 1.33333333 4.66666667"></polygon>
            <polygon id="Path" fill-rule="nonzero" points="14.6666667 14.6666667 11.3333333 14.6666667 11.3333333 16 16 16 16 11.3333333 14.6666667 11.3333333"></polygon>
            <polygon id="Path" fill-rule="nonzero" points="1.33333333 14.6666667 1.33333333 11.3333333 -3.02868841e-13 11.3333333 -3.02868841e-13 16 4.66666667 16 4.66666667 14.6666667"></polygon>
        </g>
    </g>
</svg>