<?xml version="1.0" encoding="UTF-8"?>
<svg width="40px" height="40px" viewBox="0 0 40 40" version="1.1" xmlns="http://www.w3.org/2000/svg" xmlns:xlink="http://www.w3.org/1999/xlink">
    <!-- Generator: sketchtool 55.2 (78181) - https://sketchapp.com -->
    <title>2546025A-F892-47A4-9F87-ADBEC0D142A2</title>
    <desc>Created with sketchtool.</desc>
    <defs>
        <rect id="path-1" x="0" y="0" width="40" height="40" rx="19.5"></rect>
    </defs>
    <g id="👽-GBV-Client" stroke="none" stroke-width="1" fill="none" fill-rule="evenodd">
        <g id="BGV-Client-zomato-add-employee-health-details_1" transform="translate(-160.000000, -65.000000)">
            <g id="section-title" transform="translate(160.000000, 65.000000)">
                <g id="icon-/-40-/-info-/-container-with-icon">
                    <g id="icon-/-40-/-info-/-container">
                        <mask id="mask-2" fill="white">
                            <use xlink:href="#path-1"></use>
                        </mask>
                        <use fill="#F4EEE8" xlink:href="#path-1"></use>
                    </g>
                    <g id="Group-12" transform="translate(8.000000, 10.000000)">
                        <path d="M14.8645717,19.8529891 C13.4195376,19.3235867 12.8963554,17.9785796 13.2950252,15.8179678 C13.8395287,14.1157112 14.9476279,12.5200253 16.6193227,11.0309103 C18.5076109,9.37474808 19.5806179,8.93566482 19.8383438,9.71366053 C19.822164,10.3884652 19.4722493,11.2579306 18.7885997,12.3220567 L20.7560609,11.1726452 L22.3876299,7.53748017 C22.7803311,6.61753386 23.3498234,5.91036962 24.0961068,5.41598747 C24.6789384,5.39506162 24.9703542,5.98069773 24.9703542,7.1728958 C25.0640531,9.9032516 24.4124754,12.061814 23.0156211,13.6485829 C21.1063352,15.3504081 19.3700291,16.6585613 17.8067028,17.5730424 C17.0517903,18.9750743 16.2104417,19.7305262 15.2826572,19.8393981 C15.1317429,19.8589697 14.992381,19.8635001 14.8645717,19.8529891 Z" id="Path-22" fill="#F0B9A0"></path>
                        <path d="M1.85381356,19.8209475 C0.408779461,19.2915451 -0.114402703,17.946538 0.284267068,15.7859262 C0.828770585,14.0836695 1.93686976,12.4879837 3.60856459,10.9988687 C5.49685274,9.34270646 6.56985977,8.9036232 6.82758569,9.68161891 C6.81140591,10.3564236 6.4614912,11.225889 5.77784158,12.2900151 L7.74530279,11.1406036 L9.37687177,7.50543855 C9.769573,6.58549224 10.3390653,5.878328 11.0853486,5.38394585 C11.6681802,5.36302 11.9595961,5.94865611 11.9595961,7.14085418 C12.053295,9.87120998 11.4017173,12.0297724 10.0048629,13.6165413 C8.09557704,15.3183665 6.35927095,16.6265197 4.79594469,17.5410008 C4.04103213,18.9430326 3.19968358,19.6984845 2.27189906,19.8073565 C2.12098473,19.8269281 1.9816229,19.8314584 1.85381356,19.8209475 Z" id="Path-22-Copy" fill="#F0B9A0" transform="translate(6.061695, 12.604930) scale(1, -1) rotate(-181.000000) translate(-6.061695, -12.604930) "></path>
                        <g id="Group-11" transform="translate(6.248322, 0.000000)">
                            <g id="Group-10" fill="#F83700">
                                <path d="M6.33210331,1.6520254 C7.34468703,0.183558378 8.77170861,-0.30593063 10.613168,0.183558378 C12.1682135,0.943708256 12.8424519,2.08885591 12.6358832,3.61900135 C12.3260302,5.9142195 9.29067113,8.72490654 9.29067113,8.72490654 C9.29067113,8.72490654 8.30448186,9.6358541 6.33210331,11.4577492 L6.33210331,1.6520254 Z" id="Path-23"></path>
                                <path d="M1.13686838e-13,1.65470181 C1.01258372,0.186234782 2.43960529,-0.303254226 4.28106472,0.186234782 C5.83611019,0.94638466 6.51034859,2.09153232 6.30377991,3.62167775 C5.99392689,5.9168959 2.95856782,8.72758295 2.95856782,8.72758295 C2.95856782,8.72758295 1.97237854,9.6385305 1.13686838e-13,11.4604256 L1.13686838e-13,1.65470181 Z" id="Path-23-Copy" transform="translate(3.170057, 5.731551) scale(1, -1) rotate(-180.000000) translate(-3.170057, -5.731551) "></path>
                            </g>
                            <g id="Group-10-Copy" transform="translate(3.770661, 3.409091)" fill="#FFFFFF">
                                <path d="M2.57402574,0.671555041 C2.98564514,0.0746172268 3.56573521,-0.124362045 4.31429595,0.0746172268 C4.94642825,0.383621242 5.2205089,0.849128419 5.1365379,1.47113876 C5.01058138,2.40415427 3.77669558,3.54670998 3.77669558,3.54670998 C3.77669558,3.54670998 3.37580563,3.91701386 2.57402574,4.65762163 L2.57402574,0.671555041 Z" id="Path-23"></path>
                                <path d="M1.13686838e-13,0.672643011 C0.411619399,0.0757051961 0.991709469,-0.123274075 1.74027021,0.0757051961 C2.37240252,0.384709211 2.64648317,0.850216389 2.56251216,1.47222673 C2.43655565,2.40524224 1.20266984,3.54779795 1.20266984,3.54779795 C1.20266984,3.54779795 0.801779896,3.91810183 1.13686838e-13,4.6587096 L1.13686838e-13,0.672643011 Z" id="Path-23-Copy" transform="translate(1.288641, 2.329899) scale(1, -1) rotate(-180.000000) translate(-1.288641, -2.329899) "></path>
                            </g>
                        </g>
                    </g>
                </g>
            </g>
        </g>
    </g>
</svg>