<?xml version="1.0" encoding="UTF-8"?>
<svg width="147px" height="95px" viewBox="0 0 147 95" version="1.1" xmlns="http://www.w3.org/2000/svg" xmlns:xlink="http://www.w3.org/1999/xlink">
    <!-- Generator: Sketch 60.1 (88133) - https://sketch.com -->
    <title>pan cards</title>
    <desc>Created with Sketch.</desc>
    <g id="Symbols" stroke="none" stroke-width="1" fill="none" fill-rule="evenodd">
        <g id="card-/-🖥-Ops_analyst-/--health-verify" transform="translate(-713.000000, -21.000000)">
            <g id="intro-card">
                <g id="pan-cards" transform="translate(712.138889, 21.000000)">
                    <path d="M0.861111111,7.99735801 C0.861111111,3.58053914 4.44014703,0 8.86886275,0 L139.853359,0 C144.275919,0 147.861111,3.5793661 147.861111,7.99735801 L147.861111,87.002642 C147.861111,91.4194609 144.282075,95 139.853359,95 L8.86886275,95 C4.44630364,95 0.861111111,91.4206339 0.861111111,87.002642 L0.861111111,7.99735801 Z" id="Rectangle-Copy-13" fill="#6772E5"></path>
                    <g id="health" opacity="0.5" transform="translate(91.861111, 39.000000)">
                        <rect id="Rectangle" fill="#D8D8D8" opacity="0" x="0" y="0" width="40" height="40"></rect>
                        <g id="noun_Health_2797931" transform="translate(4.000000, 5.000000)" fill="#262D33">
                            <g id="Group">
                                <path d="M21.2776867,19.4182169 C21.2776867,19.7019759 21.0486747,19.931759 20.7649157,19.931759 L18.020241,19.931759 L18.020241,22.6760482 C18.020241,22.9594217 17.7896867,23.1892048 17.5066988,23.1892048 L14.4925301,23.1892048 C14.2095422,23.1892048 13.978988,22.9594217 13.978988,22.6760482 L13.978988,19.931759 L11.2350843,19.931759 C10.9520964,19.931759 10.7223133,19.7019759 10.7223133,19.4182169 L10.7223133,16.4044337 C10.7223133,16.1206747 10.9520964,15.8908916 11.2350843,15.8908916 L13.978988,15.8908916 L13.978988,13.1466024 C13.978988,12.8628434 14.2095422,12.6330602 14.4925301,12.6330602 L17.5066988,12.6330602 C17.7896867,12.6330602 18.020241,12.8628434 18.020241,13.1466024 L18.020241,15.8908916 L20.7649157,15.8908916 C21.0486747,15.8908916 21.2776867,16.1206747 21.2776867,16.4044337 L21.2776867,19.4182169 Z" id="Path"></path>
                                <g>
                                    <path d="M19.7424578,0.0555180723 L12.1777349,0.0555180723 C9.67980723,0.0555180723 7.64915663,2.08693976 7.64915663,4.58371084 L10.3124819,4.58371084 C10.3124819,3.55585542 11.1491084,2.71884337 12.1777349,2.71884337 L19.7424578,2.71884337 C20.7703133,2.71884337 21.6077108,3.55585542 21.6077108,4.58371084 L24.2710361,4.58371084 C24.2710361,2.08655422 22.2396145,0.0555180723 19.7424578,0.0555180723 Z" id="Path"></path>
                                    <path d="M30.3653012,5.36481928 L1.6346988,5.36481928 C0.888289157,5.36481928 0.283759036,5.9693494 0.283759036,6.71537349 L0.283759036,29.0513735 C0.283759036,29.7977831 0.888289157,30.4026988 1.6346988,30.4026988 L30.3653012,30.4026988 C31.1109398,30.4026988 31.716241,29.7977831 31.716241,29.0513735 L31.716241,6.71537349 C31.716241,5.9693494 31.1105542,5.36481928 30.3653012,5.36481928 Z M16,26.6513735 C11.1564337,26.6513735 7.232,22.7253976 7.232,17.883759 C7.232,13.0409639 11.1568193,9.11575904 16,9.11575904 C20.8420241,9.11575904 24.768,13.0413494 24.768,17.883759 C24.768,22.7253976 20.8420241,26.6513735 16,26.6513735 Z" id="Shape"></path>
                                </g>
                            </g>
                        </g>
                    </g>
                    <path d="M16.2451111,30 L16.2451111,25.14 C16.2451111,23.574 17.0911111,22.908 18.2251111,22.908 C19.2691111,22.908 20.0071111,23.538 20.0071111,24.762 L20.0071111,30 L22.3291111,30 L22.3291111,24.474 C22.3291111,22.08 20.8351111,20.748 18.9271111,20.748 C17.7211111,20.748 16.7851111,21.198 16.2451111,22.008 L16.2451111,17.4 L13.9231111,17.4 L13.9231111,30 L16.2451111,30 Z M28.7731111,30.252 C30.5011111,30.252 31.8511111,29.55 32.6971111,28.326 L30.8251111,27.246 C30.4291111,27.768 29.7091111,28.146 28.8091111,28.146 C27.5851111,28.146 26.5951111,27.642 26.2711111,26.454 L33.0571111,26.454 C33.1111111,26.148 33.1471111,25.842 33.1471111,25.5 C33.1471111,22.854 31.2571111,20.748 28.5931111,20.748 C25.7671111,20.748 23.8411111,22.818 23.8411111,25.5 C23.8411111,28.182 25.7491111,30.252 28.7731111,30.252 Z M30.8251111,24.654 L26.2351111,24.654 C26.5051111,23.502 27.3511111,22.836 28.5931111,22.836 C29.5651111,22.836 30.5371111,23.358 30.8251111,24.654 Z M38.6011111,30.252 C39.9151111,30.252 40.8871111,29.748 41.5351111,28.938 L41.5351111,30 L43.8571111,30 L43.8571111,21 L41.5351111,21 L41.5351111,22.062 C40.8871111,21.252 39.9151111,20.748 38.6011111,20.748 C36.2071111,20.748 34.2271111,22.818 34.2271111,25.5 C34.2271111,28.182 36.2071111,30.252 38.6011111,30.252 Z M39.0331111,28.038 C37.6111111,28.038 36.5491111,27.012 36.5491111,25.5 C36.5491111,23.988 37.6111111,22.962 39.0331111,22.962 C40.4731111,22.962 41.5351111,23.988 41.5351111,25.5 C41.5351111,27.012 40.4731111,28.038 39.0331111,28.038 Z M48.2851111,30 L48.2851111,16.86 L45.9631111,16.86 L45.9631111,30 L48.2851111,30 Z M55.5571111,30 L55.5571111,27.894 C54.2251111,27.966 53.5231111,27.948 53.5231111,26.976 L53.5231111,23.232 L55.5571111,23.232 L55.5571111,21 L53.5231111,21 L53.5231111,18.48 L51.2011111,19.182 L51.2011111,21 L49.6351111,21 L49.6351111,23.232 L51.2011111,23.232 L51.2011111,26.976 C51.2011111,29.406 52.2991111,30.36 55.5571111,30 Z M59.5171111,30 L59.5171111,25.14 C59.5171111,23.574 60.3631111,22.908 61.4971111,22.908 C62.5411111,22.908 63.2791111,23.538 63.2791111,24.762 L63.2791111,30 L65.6011111,30 L65.6011111,24.474 C65.6011111,22.08 64.1071111,20.748 62.1991111,20.748 C60.9931111,20.748 60.0571111,21.198 59.5171111,22.008 L59.5171111,17.4 L57.1951111,17.4 L57.1951111,30 L59.5171111,30 Z M18.2071111,54.252 C19.9711111,54.252 21.5011111,53.316 22.2751111,51.912 L20.2591111,50.76 C19.8991111,51.498 19.1251111,51.948 18.1891111,51.948 C16.8031111,51.948 15.7771111,50.922 15.7771111,49.5 C15.7771111,48.06 16.8031111,47.034 18.1891111,47.034 C19.1071111,47.034 19.8811111,47.502 20.2411111,48.24 L22.2391111,47.07 C21.5011111,45.684 19.9711111,44.748 18.2071111,44.748 C15.4711111,44.748 13.4551111,46.818 13.4551111,49.5 C13.4551111,52.182 15.4711111,54.252 18.2071111,54.252 Z M25.8211111,54 L25.8211111,49.14 C25.8211111,47.574 26.6671111,46.908 27.8011111,46.908 C28.8451111,46.908 29.5831111,47.538 29.5831111,48.762 L29.5831111,54 L31.9051111,54 L31.9051111,48.474 C31.9051111,46.08 30.4111111,44.748 28.5031111,44.748 C27.2971111,44.748 26.3611111,45.198 25.8211111,46.008 L25.8211111,41.4 L23.4991111,41.4 L23.4991111,54 L25.8211111,54 Z M38.3491111,54.252 C40.0771111,54.252 41.4271111,53.55 42.2731111,52.326 L40.4011111,51.246 C40.0051111,51.768 39.2851111,52.146 38.3851111,52.146 C37.1611111,52.146 36.1711111,51.642 35.8471111,50.454 L42.6331111,50.454 C42.6871111,50.148 42.7231111,49.842 42.7231111,49.5 C42.7231111,46.854 40.8331111,44.748 38.1691111,44.748 C35.3431111,44.748 33.4171111,46.818 33.4171111,49.5 C33.4171111,52.182 35.3251111,54.252 38.3491111,54.252 Z M40.4011111,48.654 L35.8111111,48.654 C36.0811111,47.502 36.9271111,46.836 38.1691111,46.836 C39.1411111,46.836 40.1131111,47.358 40.4011111,48.654 Z M48.5551111,54.252 C50.3191111,54.252 51.8491111,53.316 52.6231111,51.912 L50.6071111,50.76 C50.2471111,51.498 49.4731111,51.948 48.5371111,51.948 C47.1511111,51.948 46.1251111,50.922 46.1251111,49.5 C46.1251111,48.06 47.1511111,47.034 48.5371111,47.034 C49.4551111,47.034 50.2291111,47.502 50.5891111,48.24 L52.5871111,47.07 C51.8491111,45.684 50.3191111,44.748 48.5551111,44.748 C45.8191111,44.748 43.8031111,46.818 43.8031111,49.5 C43.8031111,52.182 45.8191111,54.252 48.5551111,54.252 Z M56.1691111,54 L56.1691111,49.914 L59.4451111,54 L62.1451111,54 L58.4191111,49.446 L62.0371111,45 L59.2651111,45 L56.1691111,48.96 L56.1691111,41.4 L53.8471111,41.4 L53.8471111,54 L56.1691111,54 Z" id="healthcheck" fill="#FFFFFF" fill-rule="nonzero"></path>
                </g>
            </g>
        </g>
    </g>
</svg>