<?xml version="1.0" encoding="UTF-8"?>
<svg width="88px" height="57px" viewBox="0 0 88 57" version="1.1" xmlns="http://www.w3.org/2000/svg" xmlns:xlink="http://www.w3.org/1999/xlink">
    <!-- Generator: sketchtool 60.1 (101010) - https://sketch.com -->
    <title>C8D9F144-A2E3-46C8-84AB-571AD29A2B8A</title>
    <desc>Created with sketchtool.</desc>
    <g id="🖥-Ops_analyst-" stroke="none" stroke-width="1" fill="none" fill-rule="evenodd">
        <g id="task-1" transform="translate(-186.000000, -659.000000)">
            <g id="card-/-🖥-Ops_analyst-/-health-check" transform="translate(160.000000, 635.000000)">
                <g id="PAN">
                    <g id="pan-cards" transform="translate(26.000000, 24.000000)">
                        <path d="M0.512012012,8.00065503 C0.512012012,3.58201527 4.10135911,0 8.51980537,0 L79.9096241,0 C84.3322062,0 87.9174174,3.58719818 87.9174174,8.00065503 L87.9174174,48.999345 C87.9174174,53.4179847 84.3280703,57 79.9096241,57 L8.51980537,57 C4.09722322,57 0.512012012,53.4128018 0.512012012,48.999345 L0.512012012,8.00065503 Z" id="Rectangle-Copy-13" fill="#6772E5"></path>
                        <g id="health" opacity="0.5" transform="translate(54.000000, 24.000000)">
                            <rect id="Rectangle" fill="#D8D8D8" opacity="0" x="0" y="0" width="23" height="24"></rect>
                            <g id="noun_Health_2797931" transform="translate(2.300000, 3.000000)" fill="#262D33">
                                <g id="Group">
                                    <path d="M12.2346699,11.6509301 C12.2346699,11.8211855 12.102988,11.9590554 11.9398265,11.9590554 L10.3616386,11.9590554 L10.3616386,13.6056289 C10.3616386,13.775653 10.2290699,13.9135229 10.0663518,13.9135229 L8.33320482,13.9135229 C8.17048675,13.9135229 8.03791807,13.775653 8.03791807,13.6056289 L8.03791807,11.9590554 L6.46017349,11.9590554 C6.29745542,11.9590554 6.16533012,11.8211855 6.16533012,11.6509301 L6.16533012,9.84266024 C6.16533012,9.67240482 6.29745542,9.53453494 6.46017349,9.53453494 L8.03791807,9.53453494 L8.03791807,7.88796145 C8.03791807,7.71770602 8.17048675,7.57983614 8.33320482,7.57983614 L10.0663518,7.57983614 C10.2290699,7.57983614 10.3616386,7.71770602 10.3616386,7.88796145 L10.3616386,9.53453494 L11.9398265,9.53453494 C12.102988,9.53453494 12.2346699,9.67240482 12.2346699,9.84266024 L12.2346699,11.6509301 Z" id="Path"></path>
                                    <g>
                                        <path d="M11.3519133,0.0333108434 L7.00219759,0.0333108434 C5.56588916,0.0333108434 4.39826506,1.25216386 4.39826506,2.75022651 L5.92967711,2.75022651 C5.92967711,2.13351325 6.41073735,1.63130602 7.00219759,1.63130602 L11.3519133,1.63130602 C11.9429301,1.63130602 12.4244337,2.13351325 12.4244337,2.75022651 L13.9558458,2.75022651 C13.9558458,1.25193253 12.7877783,0.0333108434 11.3519133,0.0333108434 Z" id="Path"></path>
                                        <path d="M17.4600482,3.21889157 L0.939951807,3.21889157 C0.510766265,3.21889157 0.163161446,3.58160964 0.163161446,4.0292241 L0.163161446,17.4308241 C0.163161446,17.8786699 0.510766265,18.2416193 0.939951807,18.2416193 L17.4600482,18.2416193 C17.8887904,18.2416193 18.2368386,17.8786699 18.2368386,17.4308241 L18.2368386,4.0292241 C18.2368386,3.58160964 17.8885687,3.21889157 17.4600482,3.21889157 Z M9.2,15.9908241 C6.4149494,15.9908241 4.1584,13.6352386 4.1584,10.7302554 C4.1584,7.82457831 6.41517108,5.46945542 9.2,5.46945542 C11.9841639,5.46945542 14.2416,7.82480964 14.2416,10.7302554 C14.2416,13.6352386 11.9841639,15.9908241 9.2,15.9908241 Z" id="Shape"></path>
                                    </g>
                                </g>
                            </g>
                        </g>
                        <path d="M9.65925526,18 L9.65925526,15.084 C9.65925526,14.1444 10.1622823,13.7448 10.8365526,13.7448 C11.4573093,13.7448 11.8961201,14.1228 11.8961201,14.8572 L11.8961201,18 L13.2767688,18 L13.2767688,14.6844 C13.2767688,13.248 12.3884444,12.4488 11.253958,12.4488 C10.5368769,12.4488 9.98033634,12.7188 9.65925526,13.2048 L9.65925526,10.44 L8.27860661,10.44 L8.27860661,18 L9.65925526,18 Z M17.1083363,18.1512 C18.1357958,18.1512 18.9384985,17.73 19.4415255,16.9956 L18.3284444,16.3476 C18.092985,16.6608 17.6648769,16.8876 17.1297417,16.8876 C16.401958,16.8876 15.8133093,16.5852 15.6206607,15.8724 L19.6555796,15.8724 C19.6876877,15.6888 19.7090931,15.5052 19.7090931,15.3 C19.7090931,13.7124 18.5853093,12.4488 17.0013093,12.4488 C15.320985,12.4488 14.1757958,13.6908 14.1757958,15.3 C14.1757958,16.9092 15.3102823,18.1512 17.1083363,18.1512 Z M18.3284444,14.7924 L15.5992553,14.7924 C15.7597958,14.1012 16.2628228,13.7016 17.0013093,13.7016 C17.5792553,13.7016 18.1572012,14.0148 18.3284444,14.7924 Z M22.952012,18.1512 C23.7333093,18.1512 24.3112553,17.8488 24.6965526,17.3628 L24.6965526,18 L26.0772012,18 L26.0772012,12.6 L24.6965526,12.6 L24.6965526,13.2372 C24.3112553,12.7512 23.7333093,12.4488 22.952012,12.4488 C21.5285526,12.4488 20.3512553,13.6908 20.3512553,15.3 C20.3512553,16.9092 21.5285526,18.1512 22.952012,18.1512 Z M23.2088769,16.8228 C22.3633634,16.8228 21.7319039,16.2072 21.7319039,15.3 C21.7319039,14.3928 22.3633634,13.7772 23.2088769,13.7772 C24.0650931,13.7772 24.6965526,14.3928 24.6965526,15.3 C24.6965526,16.2072 24.0650931,16.8228 23.2088769,16.8228 Z M28.7100661,18 L28.7100661,10.116 L27.3294174,10.116 L27.3294174,18 L28.7100661,18 Z M33.033958,18 L33.033958,16.7364 C32.241958,16.7796 31.8245526,16.7688 31.8245526,16.1856 L31.8245526,13.9392 L33.033958,13.9392 L33.033958,12.6 L31.8245526,12.6 L31.8245526,11.088 L30.4439039,11.5092 L30.4439039,12.6 L29.5127688,12.6 L29.5127688,13.9392 L30.4439039,13.9392 L30.4439039,16.1856 C30.4439039,17.6436 31.0967688,18.216 33.033958,18 Z M35.3885526,18 L35.3885526,15.084 C35.3885526,14.1444 35.8915796,13.7448 36.5658498,13.7448 C37.1866066,13.7448 37.6254174,14.1228 37.6254174,14.8572 L37.6254174,18 L39.0060661,18 L39.0060661,14.6844 C39.0060661,13.248 38.1177417,12.4488 36.9832553,12.4488 C36.2661742,12.4488 35.7096336,12.7188 35.3885526,13.2048 L35.3885526,10.44 L34.0079039,10.44 L34.0079039,18 L35.3885526,18 Z M10.8258498,32.5512 C11.8747147,32.5512 12.7844444,31.9896 13.2446607,31.1472 L12.045958,30.456 C11.8319039,30.8988 11.3716877,31.1688 10.8151471,31.1688 C9.99103904,31.1688 9.38098498,30.5532 9.38098498,29.7 C9.38098498,28.836 9.99103904,28.2204 10.8151471,28.2204 C11.360985,28.2204 11.8212012,28.5012 12.0352553,28.944 L13.2232553,28.242 C12.7844444,27.4104 11.8747147,26.8488 10.8258498,26.8488 C9.19903904,26.8488 8.00033634,28.0908 8.00033634,29.7 C8.00033634,31.3092 9.19903904,32.5512 10.8258498,32.5512 Z M15.3530931,32.4 L15.3530931,29.484 C15.3530931,28.5444 15.8561201,28.1448 16.5303904,28.1448 C17.1511471,28.1448 17.589958,28.5228 17.589958,29.2572 L17.589958,32.4 L18.9706066,32.4 L18.9706066,29.0844 C18.9706066,27.648 18.0822823,26.8488 16.9477958,26.8488 C16.2307147,26.8488 15.6741742,27.1188 15.3530931,27.6048 L15.3530931,24.84 L13.9724444,24.84 L13.9724444,32.4 L15.3530931,32.4 Z M22.8021742,32.5512 C23.8296336,32.5512 24.6323363,32.13 25.1353634,31.3956 L24.0222823,30.7476 C23.7868228,31.0608 23.3587147,31.2876 22.8235796,31.2876 C22.0957958,31.2876 21.5071471,30.9852 21.3144985,30.2724 L25.3494174,30.2724 C25.3815255,30.0888 25.4029309,29.9052 25.4029309,29.7 C25.4029309,28.1124 24.2791471,26.8488 22.6951471,26.8488 C21.0148228,26.8488 19.8696336,28.0908 19.8696336,29.7 C19.8696336,31.3092 21.0041201,32.5512 22.8021742,32.5512 Z M24.0222823,29.1924 L21.2930931,29.1924 C21.4536336,28.5012 21.9566607,28.1016 22.6951471,28.1016 C23.2730931,28.1016 23.851039,28.4148 24.0222823,29.1924 Z M28.8706066,32.5512 C29.9194715,32.5512 30.8292012,31.9896 31.2894174,31.1472 L30.0907147,30.456 C29.8766607,30.8988 29.4164444,31.1688 28.8599039,31.1688 C28.0357958,31.1688 27.4257417,30.5532 27.4257417,29.7 C27.4257417,28.836 28.0357958,28.2204 28.8599039,28.2204 C29.4057417,28.2204 29.865958,28.5012 30.080012,28.944 L31.268012,28.242 C30.8292012,27.4104 29.9194715,26.8488 28.8706066,26.8488 C27.2437958,26.8488 26.0450931,28.0908 26.0450931,29.7 C26.0450931,31.3092 27.2437958,32.5512 28.8706066,32.5512 Z M33.3978498,32.4 L33.3978498,29.9484 L35.3457417,32.4 L36.9511471,32.4 L34.7356877,29.6676 L36.8869309,27 L35.2387147,27 L33.3978498,29.376 L33.3978498,24.84 L32.0172012,24.84 L32.0172012,32.4 L33.3978498,32.4 Z" id="healthcheck" fill="#FFFFFF" fill-rule="nonzero"></path>
                    </g>
                </g>
            </g>
        </g>
    </g>
</svg>