<?xml version="1.0" encoding="UTF-8"?>
<svg width="40px" height="40px" viewBox="0 0 40 40" version="1.1" xmlns="http://www.w3.org/2000/svg" xmlns:xlink="http://www.w3.org/1999/xlink">
    <title>7BE66CEF-D47A-4BD5-9B2F-76AFC851CDE2</title>
    <defs>
        <path d="M9.75572567,-1.125026e-14 C9.96995784,-1.125026e-14 10.1436782,0.151801675 10.1436782,0.339003741 L10.1436782,19.3220132 C10.1436782,19.5092153 9.96995784,19.6610169 9.75572567,19.6610169 L1.22128583,19.6610169 C1.00705365,19.6610169 0.833333333,19.5092153 0.833333333,19.3220132 L0.833333333,0.339003741 C0.833333333,0.151801675 1.00705365,-1.125026e-14 1.22128583,-1.125026e-14 L9.75572567,-1.125026e-14 Z M18.3812036,10.9380511 C19.2175316,11.3293 20.0751104,12.2553643 19.8680235,14.287754 C19.8485316,14.4792219 19.7090167,14.6289403 19.5306361,14.6764883 C19.4264892,14.6919097 19.322121,14.6778952 19.2175316,14.6344448 C19.0606475,14.5692692 18.9344497,14.4144307 18.9521396,14.1970647 C19.0013174,13.5927904 18.9739887,13.1547152 18.8718948,12.8165656 L18.8301084,12.6943141 L18.8301084,14.3347222 C18.8301084,14.6166184 18.81419,14.6669497 18.7643884,14.7312212 L18.7409181,14.7603353 L18.7405637,19.0719006 C18.7405637,19.3666986 18.5089052,19.6058305 18.2084933,19.6058305 C17.9381227,19.6058305 17.704209,19.4122276 17.66013,19.1585147 L17.6526783,19.0719006 L17.6529146,15.3610644 L17.6401562,15.3617603 L17.6401562,15.3617603 L17.5754194,15.3590929 L17.5756557,19.0722485 C17.5756557,19.3670465 17.3438791,19.6061784 17.0434672,19.6061784 C16.7730966,19.6061784 16.5392786,19.4125755 16.4952187,19.1588626 L16.4877703,19.0722485 L16.4875341,14.7633505 C16.4133466,14.6770682 16.4033053,14.6876215 16.4033053,14.335186 L16.4033053,12.722611 C16.2745405,13.076902 16.2243341,13.5551659 16.2940325,14.2385823 C16.316504,14.4593909 16.1732978,14.6587577 15.9634783,14.7178472 L15.881867,14.7331981 L15.8354408,14.7356335 C15.6020103,14.7356335 15.4017751,14.5617931 15.3780304,14.3286917 C15.1679902,12.268469 16.0699345,11.3587935 16.8227951,10.9707549 C17.5756557,10.5827164 18.3783684,10.9361956 18.3812036,10.9380511 Z M9.9736026,17.779521 L4.33888174,17.779521 C4.13143199,17.779521 3.96321152,17.8945153 3.96321152,18.0363264 C3.96321152,18.1604111 4.09200531,18.2639641 4.26317889,18.2879136 L4.33888174,18.2931317 L9.9736026,18.2931317 L9.9736026,17.779521 Z M9.9736026,16.4117324 L6.96840708,16.4117324 C6.76095733,16.4117324 6.59273681,16.5267267 6.59273681,16.6685377 C6.59273681,16.7926224 6.72153065,16.8961755 6.89270423,16.920125 L6.96840708,16.9253431 L9.9736026,16.9253431 L9.9736026,16.4117324 Z M9.9736026,15.0440951 L4.33888174,15.0440951 C4.13143199,15.0440951 3.96321152,15.1590893 3.96321152,15.3009004 C3.96321152,15.4249851 4.09200531,15.5285382 4.26317889,15.5524876 L4.33888174,15.5577057 L9.9736026,15.5577057 L9.9736026,15.0440951 Z M9.9736026,13.6763064 L6.96840708,13.6763064 C6.76095733,13.6763064 6.59273681,13.7913007 6.59273681,13.9331118 C6.59273681,14.0571965 6.72153065,14.1607495 6.89270423,14.184699 L6.96840708,14.1899171 L9.9736026,14.1899171 L9.9736026,13.6763064 Z M9.9736026,12.3086691 L4.33888174,12.3086691 C4.13143199,12.3086691 3.96321152,12.4236634 3.96321152,12.5654745 C3.96321152,12.6895592 4.09200531,12.7931122 4.26317889,12.8170617 L4.33888174,12.8222798 L9.9736026,12.8222798 L9.9736026,12.3086691 Z M9.9736026,10.9408805 L6.96840708,10.9408805 C6.76095733,10.9408805 6.59273681,11.0557866 6.59273681,11.197629 C6.59273681,11.3218406 6.72153065,11.425342 6.89270423,11.4492766 L6.96840708,11.4544912 L9.9736026,11.4544912 L9.9736026,10.9408805 Z M17.6222,8.25518084 C18.2769132,8.25518084 18.8076631,8.77621741 18.8076631,9.4189486 C18.8076631,10.0616798 18.2769132,10.5827164 17.6222,10.5827164 C16.9674868,10.5827164 16.4367369,10.0616798 16.4367369,9.4189486 C16.4367369,8.77621741 16.9674868,8.25518084 17.6222,8.25518084 Z M9.9736026,9.57324317 L4.33888174,9.57324317 C4.13143199,9.57324317 3.96321152,9.68823742 3.96321152,9.83004851 C3.96321152,9.95413322 4.09200531,10.0576863 4.26317889,10.0816357 L4.33888174,10.0868539 L9.9736026,10.0868539 L9.9736026,9.57324317 Z M13.1803338,6.97347407 C13.3339663,7.11476596 13.3360806,7.343069 13.1850908,7.48679137 L12.7991609,7.84066102 L14.7151989,7.84114609 C14.9240791,7.84114609 15.0934595,8.01577449 15.0934595,8.23112655 C15.0934595,8.44647861 14.9240791,8.6211071 14.7151989,8.6211071 L12.5921609,8.62066102 L13.1850908,9.16609077 C13.2990819,9.27076345 13.3330854,9.42825849 13.271421,9.56501352 C13.2097565,9.70176846 13.064757,9.7910486 12.9037248,9.7910486 C12.7980144,9.79121011 12.6967085,9.7524845 12.6221826,9.68378294 L11.4276547,8.58520615 C11.3529526,8.51666661 11.3110208,8.42349822 11.3110208,8.32644105 L11.3135304,8.29276707 C11.3118728,8.27329576 11.3110208,8.25276501 11.3110208,8.23112655 C11.3110208,8.12659743 11.4809211,7.97068672 11.6772254,7.83733035 L12.6221826,6.96893718 C12.7784579,6.83023781 13.0267013,6.83218219 13.1803338,6.97347407 Z M9.9736026,8.20545454 L6.96840708,8.20545454 C6.76095733,8.20545454 6.59273681,8.32036058 6.59273681,8.4623167 C6.59273681,8.58642887 6.72153065,8.68991783 6.89270423,8.71385082 L6.96840708,8.71906522 L9.9736026,8.71906522 L9.9736026,8.20545454 Z M9.9736026,6.8378172 L4.33888174,6.8378172 C4.13143199,6.8378172 3.96321152,6.95281145 3.96321152,7.09462254 C3.96321152,7.21870725 4.09200531,7.32226031 4.26317889,7.34620975 L4.33888174,7.35142788 L9.9736026,7.35142788 L9.9736026,6.8378172 Z M9.9736026,5.4701799 L6.96840708,5.4701799 C6.76095733,5.4701799 6.59273681,5.58517412 6.59273681,5.72698522 C6.59273681,5.85106992 6.72153065,5.954623 6.89270423,5.97857245 L6.96840708,5.98379059 L9.9736026,5.98379059 L9.9736026,5.4701799 Z M9.9736026,4.10239127 L4.33888174,4.10239127 C4.13143199,4.10239127 3.96321152,4.21738549 3.96321152,4.35919658 C3.96321152,4.48328129 4.09200531,4.58683437 4.26317889,4.61078382 L4.33888174,4.61600196 L9.9736026,4.61600196 L9.9736026,4.10239127 Z M9.9736026,2.73475394 L6.96840708,2.73475394 C6.76095733,2.73475394 6.59273681,2.84974819 6.59273681,2.99155928 C6.59273681,3.11564398 6.72153065,3.21919704 6.89270423,3.24314648 L6.96840708,3.24836462 L9.9736026,3.24836462 L9.9736026,2.73475394 Z M9.9736026,1.3669653 L4.33888174,1.3669653 C4.13143199,1.3669653 3.96321152,1.48195955 3.96321152,1.62377065 C3.96321152,1.74785535 4.09200531,1.85140841 4.26317889,1.87535785 L4.33888174,1.88057599 L9.9736026,1.88057599 L9.9736026,1.3669653 Z" id="path-1"></path>
    </defs>
    <g id="profille_view-mode" stroke="none" stroke-width="1" fill="none" fill-rule="evenodd">
        <g id="attendance-_profile_04" transform="translate(-473.000000, -2656.000000)">
            <g id="Group-29" transform="translate(160.000000, 446.000000)">
                <g id="section-copy" transform="translate(40.000000, 1882.000000)">
                    <g id="10th_class" transform="translate(0.000000, 325.000000)">
                        <g id="mother" transform="translate(273.000000, 3.000000)">
                            <circle id="Oval" fill="#E5EEF7" opacity="0.5" cx="20" cy="20" r="20"></circle>
                            <g id="icon-/-24-/-info-/-height" transform="translate(10.000000, 10.000000)">
                                <mask id="mask-2" fill="white">
                                    <use xlink:href="#path-1"></use>
                                </mask>
                                <use id="Combined-Shape" fill="#36A852" fill-rule="nonzero" xlink:href="#path-1"></use>
                                <rect id="Rectangle" fill="#0059B2" mask="url(#mask-2)" x="0" y="0" width="20" height="20"></rect>
                            </g>
                        </g>
                    </g>
                </g>
            </g>
        </g>
    </g>
</svg>