<?xml version="1.0" encoding="UTF-8"?>
<svg width="80px" height="80px" viewBox="0 0 80 80" version="1.1" xmlns="http://www.w3.org/2000/svg" xmlns:xlink="http://www.w3.org/1999/xlink">
    <!-- Generator: sketchtool 55.2 (78181) - https://sketchapp.com -->
    <title>F56A3C86-C61F-426D-99E7-651C1532180B</title>
    <desc>Created with sketchtool.</desc>
    <g id="👽-GBV-Client" stroke="none" stroke-width="1" fill="none" fill-rule="evenodd">
        <g id="BGV-Client-zomato-add-employee-health-details_1" transform="translate(-472.000000, -194.000000)">
            <g id="personal_details-DL" transform="translate(160.000000, 116.000000)">
                <g id="hight" transform="translate(312.000000, 78.000000)">
                    <rect id="Rectangle" fill="#F3F7FD" x="0" y="0" width="80" height="80" rx="8"></rect>
                    <g id="height" transform="translate(11.000000, 11.000000)">
                        <rect id="Rectangle" fill-opacity="0" fill="#D8D8D8" x="0" y="0" width="58" height="58"></rect>
                        <g id="Group-14" transform="translate(1.000000, 0.000000)" fill-rule="nonzero">
                            <g id="Group-2">
                                <path d="M1.12506223,0 L25.8749378,0 C26.4962111,0 27,0.447814941 27,1.00006104 L27,56.999939 C27,57.5521851 26.4962111,58 25.8749378,58 L1.12506223,58 C0.503788927,58 0,57.5521851 0,56.999939 L0,1.00006104 C0,0.447814941 0.503788927,0 1.12506223,0 Z" id="Path" fill="#8697A8"></path>
                                <g id="Group" transform="translate(9.000000, 4.000000)" fill="#EBECFD">
                                    <path d="M17.5067809,48.449587 L17.5067809,49.9647386 L1.16609037,49.9647386 C0.564486096,49.9647386 0.0766467297,49.6255055 0.0766467297,49.2071628 C0.0766467297,48.7888201 0.564486096,48.449587 1.16609037,48.449587 L17.5067809,48.449587 Z" id="Path"></path>
                                    <path d="M17.5067809,44.4146106 L17.5067809,45.9297621 L8.79171386,45.9297621 C8.19010958,45.9297621 7.70227009,45.5905291 7.70227009,45.1721863 C7.70227009,44.7538436 8.19010958,44.4146106 8.79171386,44.4146106 L17.5067809,44.4146106 Z" id="Path"></path>
                                    <path d="M17.5067809,40.3800804 L17.5067809,41.895232 L1.16609037,41.895232 C0.564486096,41.895232 0.0766467297,41.555999 0.0766467297,41.1376563 C0.0766467297,40.7193136 0.564486096,40.3800804 1.16609037,40.3800804 L17.5067809,40.3800804 Z" id="Path"></path>
                                    <path d="M17.5067809,36.345104 L17.5067809,37.8602555 L8.79171386,37.8602555 C8.19010958,37.8602555 7.70227009,37.5210225 7.70227009,37.1026798 C7.70227009,36.6843371 8.19010958,36.345104 8.79171386,36.345104 L17.5067809,36.345104 Z" id="Path"></path>
                                    <path d="M17.5067809,32.310574 L17.5067809,33.8257255 L1.16609037,33.8257255 C0.564486096,33.8257255 0.0766467297,33.4864924 0.0766467297,33.0681497 C0.0766467297,32.649807 0.564486096,32.310574 1.16609037,32.310574 L17.5067809,32.310574 Z" id="Path"></path>
                                    <path d="M17.5067809,28.2755975 L17.5067809,29.790749 L8.79171386,29.790749 C8.19010958,29.790749 7.70227009,29.4517762 7.70227009,29.0330056 C7.70227009,28.6145703 8.19010958,28.2755975 8.79171386,28.2755975 L17.5067809,28.2755975 Z" id="Path"></path>
                                    <path d="M17.5067809,24.2410673 L17.5067809,25.7562189 L1.16609037,25.7562189 C0.564486096,25.7562189 0.0766467297,25.4169858 0.0766467297,24.9986431 C0.0766467297,24.5803004 0.564486096,24.2410673 1.16609037,24.2410673 L17.5067809,24.2410673 Z" id="Path"></path>
                                    <path d="M17.5067809,20.2060909 L17.5067809,21.7212424 L8.79171386,21.7212424 C8.19010958,21.7212424 7.70227009,21.3822696 7.70227009,20.9638343 C7.70227009,20.5450637 8.19010958,20.2060909 8.79171386,20.2060909 L17.5067809,20.2060909 Z" id="Path"></path>
                                    <path d="M17.5067809,16.1715607 L17.5067809,17.6867123 L1.16609037,17.6867123 C0.564486096,17.6867123 0.0766467297,17.3474792 0.0766467297,16.9291365 C0.0766467297,16.5107938 0.564486096,16.1715607 1.16609037,16.1715607 L17.5067809,16.1715607 Z" id="Path"></path>
                                    <path d="M17.5067809,12.1370307 L17.5067809,13.6521822 L8.79171386,13.6521822 C8.19010958,13.6521822 7.70227009,13.3129491 7.70227009,12.8946064 C7.70227009,12.4762637 8.19010958,12.1370307 8.79171386,12.1370307 L17.5067809,12.1370307 Z" id="Path"></path>
                                    <path d="M17.5067809,8.10205425 L17.5067809,9.61720577 L1.16609037,9.61720577 C0.564486096,9.61720577 0.0766467297,9.27797264 0.0766467297,8.85962992 C0.0766467297,8.44128721 0.564486096,8.10205425 1.16609037,8.10205425 L17.5067809,8.10205425 Z" id="Path"></path>
                                    <path d="M17.5067809,4.06752411 L17.5067809,5.58267563 L8.79171386,5.58267563 C8.19010958,5.58267563 7.70227009,5.24344259 7.70227009,4.82509987 C7.70227009,4.40675715 8.19010958,4.06752411 8.79171386,4.06752411 L17.5067809,4.06752411 Z" id="Path"></path>
                                    <path d="M17.5067809,0.0325476484 L17.5067809,1.54769916 L1.16609037,1.54769916 C0.564486096,1.54769916 0.0766467297,1.20846613 0.0766467297,0.790123406 C0.0766467297,0.371780687 0.564486096,0.0325476484 1.16609037,0.0325476484 L17.5067809,0.0325476484 Z" id="Path"></path>
                                </g>
                            </g>
                            <g id="Group-2" transform="translate(42.000000, 24.000000)" fill="#8697A8">
                                <g id="Group-3" transform="translate(0.089972, 0.352783)">
                                    <ellipse id="Oval" cx="6.59774155" cy="3.43311489" rx="3.43784298" ry="3.43311489"></ellipse>
                                    <path d="M13.1106297,17.7960907 C13.7111817,11.8005413 11.2242032,9.06865148 8.79885178,7.91446735 C8.79062974,7.90899352 6.46276297,6.86622978 4.27946717,8.01094352 C2.09617137,9.15565727 -0.519467011,11.8392002 0.0896495634,17.916857 C0.158509199,18.6045063 0.739191197,19.1173353 1.41613965,19.1173353 C1.46067573,19.1173353 1.5055544,19.1149405 1.55077565,19.1101509 C2.28459326,19.0365964 2.81936883,18.3838427 2.74605559,17.6510343 C2.54393029,15.634956 2.68952902,14.2240775 3.06294695,13.178919 C3.06294695,13.178919 3.06294695,17.7348523 3.06294695,17.9360154 C3.06294695,18.9757001 3.09206669,18.9445677 3.30721023,19.1991006 L3.3078954,31.9103496 C3.3078954,32.7803457 4.04822212,33.4854429 4.91941642,33.4854429 C5.79061071,33.4854429 6.46276297,32.7800036 6.46276297,31.9103496 L6.46207779,20.9565407 C6.5247709,20.9599618 6.58677883,20.9644093 6.64981451,20.9644093 C6.66214758,20.9644093 6.67448065,20.9623566 6.68681372,20.9623566 L6.68612855,31.9093233 C6.68612855,32.7793194 7.42679786,33.4844165 8.29799215,33.4844165 C9.16918644,33.4844165 9.84099611,32.7789773 9.84099611,31.9093233 L9.84202387,19.1902056 C10.0403807,18.9431993 10.1006757,18.8850399 10.1006757,17.9346469 C10.1006757,17.8224335 10.1006757,13.0954431 10.1006757,13.0954431 C10.4946488,14.1382069 10.6150089,15.5231219 10.4545663,17.5285575 C10.4032654,18.1697872 10.7692393,18.6265606 11.2242032,18.8188287 C11.5275124,18.9470075 11.8301801,18.9883503 12.1322063,18.9428571 C12.64951,18.8025904 13.0541032,18.3609211 13.1106297,17.7960907 Z" id="Path"></path>
                                </g>
                            </g>
                            <g id="Group-4" transform="translate(30.000000, 20.000000)" fill="#8697A8">
                                <path d="M5.00413532,8.88359336 C4.69757503,8.88406983 4.40378805,8.76982928 4.18766302,8.56715969 L0.723531885,5.32635814 C0.506895948,5.12416651 0.385293635,4.84931974 0.385293635,4.5630011 C0.385293635,4.27620451 0.506895948,4.00183582 0.723531885,3.79916623 L4.18766302,0.558364677 C4.64086134,0.149201532 5.36076705,0.154937463 5.80630134,0.571748518 C6.25183563,0.988559573 6.25796696,1.66205355 5.82009659,2.08603455 L3.17294853,4.5630011 L5.82009659,7.03996778 C6.1506708,7.34875217 6.24928099,7.81336254 6.07045422,8.21678987 C5.89162732,8.62021697 5.47112876,8.88359336 5.00413532,8.88359336 Z" id="Path"></path>
                                <path d="M10.25741,5.43226593 L1.48224939,5.43226593 C0.87649683,5.43226593 0.385293635,5.18187499 0.385293635,4.28182332 C0.385293635,3.38177166 4.58296465,1.19036423 2.63014856,3.13138098 L10.25741,3.13138098 C10.8631626,3.13138098 11.3543658,3.64653473 11.3543658,4.28182332 C11.3543658,4.91711191 10.8631626,5.43226593 10.25741,5.43226593 Z" id="Path"></path>
                            </g>
                        </g>
                    </g>
                </g>
            </g>
        </g>
    </g>
</svg>