<?xml version="1.0" encoding="UTF-8"?>
<svg width="24px" height="24px" viewBox="0 0 24 24" version="1.1" xmlns="http://www.w3.org/2000/svg" xmlns:xlink="http://www.w3.org/1999/xlink">
    <!-- Generator: sketchtool 55.2 (78181) - https://sketchapp.com -->
    <title>29512F76-9E7C-4730-AED0-4B7B187E9069</title>
    <desc>Created with sketchtool.</desc>
    <g id="👽-GBV-Client" stroke="none" stroke-width="1" fill="none" fill-rule="evenodd">
        <g id="BGV-Client-zomato-all-employee-B2" transform="translate(-13.000000, -120.000000)" fill-rule="nonzero">
            <g id="left-bar">
                <g id="side-bar">
                    <g id="hire" transform="translate(13.000000, 120.000000)">
                        <path d="M12,3.19744231e-14 C5.372583,3.19744231e-14 3.19744231e-14,5.372583 3.19744231e-14,12 C3.19744231e-14,18.627417 5.372583,24 12,24 C18.627417,24 24,18.627417 24,12 C24,8.81740212 22.7357179,5.76515517 20.4852814,3.51471863 C18.2348448,1.26428208 15.1825979,3.19744231e-14 12,3.19744231e-14 Z" id="Path" fill="#F3F7FD"></path>
                        <g id="geometry" transform="translate(6.000000, 6.000000)" fill="#8697A8">
                            <circle id="Oval" cx="9.75" cy="3.75" r="2.25"></circle>
                            <rect id="Rectangle" x="2.25" y="6" width="5.25" height="5.25" rx="1"></rect>
                            <polygon id="Path" points="3 0 0 4.5 6 4.5"></polygon>
                        </g>
                    </g>
                </g>
            </g>
        </g>
    </g>
</svg>