<?xml version="1.0" encoding="UTF-8"?>
<svg width="40px" height="40px" viewBox="0 0 40 40" version="1.1" xmlns="http://www.w3.org/2000/svg" xmlns:xlink="http://www.w3.org/1999/xlink">
    <title>50FF6858-850D-46F9-B0F6-7495AB819124</title>
    <g id="📟--dashboard" stroke="none" stroke-width="1" fill="none" fill-rule="evenodd">
        <g id="onboarding_vs_time_monthly-a" transform="translate(-493.000000, -1013.000000)">
            <g id="Group-8" transform="translate(160.000000, 744.000000)">
                <g id="checks-level" transform="translate(24.000000, 84.000000)">
                    <g id="popular-job-roles" transform="translate(0.000000, 107.000000)">
                        <g id="details" transform="translate(24.000000, 60.000000)">
                            <g id="distributor-sales-representative" transform="translate(285.000000, 7.000000)">
                                <g id="Group-4" transform="translate(0.000000, 11.000000)">
                                    <circle id="Oval" fill="#F4F0F6" cx="20" cy="20" r="20"></circle>
                                    <g id="noun_Candidate_2526159" transform="translate(10.000000, 8.333333)" fill="#976CA7" fill-rule="nonzero">
                                        <g id="Group" transform="translate(0.703597, 0.000000)">
                                            <g transform="translate(0.834865, 0.000000)">
                                                <circle id="Oval" cx="8.86321869" cy="5.08269887" r="4.87266999"></circle>
                                                <path d="M2.64636388,22.47309 C5.79679706,22.5991074 11.9716461,22.5991074 15.0800735,22.47309 C16.0882121,22.4310843 16.8443161,21.548963 16.7182988,20.5408244 L16.2562352,15.8361775 C15.9621948,13.5258598 14.239958,11.6776057 12.0556577,11.1315306 L9.87135731,16.5922814 L9.40929378,12.6437385 L9.74533998,12.6437385 C9.95536886,12.6437385 10.0813862,12.4757154 10.0813862,12.3076923 L10.0813862,11.2575479 C10.0813862,11.047519 9.91336309,10.9215017 9.74533998,10.9215017 L8.02310318,10.9215017 C7.8130743,10.9215017 7.68705697,11.0895248 7.68705697,11.2575479 L7.68705697,12.3076923 C7.68705697,12.5177212 7.85508007,12.6437385 8.02310318,12.6437385 L8.35914938,12.6437385 L7.85508007,16.5922814 L5.67077973,11.1315306 C3.48647939,11.6776057 1.76424258,13.483854 1.47020215,15.7941717 L1.00813862,20.4988186 C0.882121292,21.548963 1.63822526,22.4310843 2.64636388,22.47309 Z" id="Path"></path>
                                            </g>
                                        </g>
                                    </g>
                                </g>
                            </g>
                        </g>
                    </g>
                </g>
            </g>
        </g>
    </g>
</svg>