<?xml version="1.0" encoding="UTF-8"?>
<svg width="24px" height="24px" viewBox="0 0 24 24" version="1.1" xmlns="http://www.w3.org/2000/svg" xmlns:xlink="http://www.w3.org/1999/xlink">
    <!-- Generator: sketchtool 63.1 (101010) - https://sketch.com -->
    <title>F36FCD8B-7A6D-473A-9A8A-1506C19B93A8</title>
    <desc>Created with sketchtool.</desc>
    <g id="🖥-Ops_analyst-" stroke="none" stroke-width="1" fill="none" fill-rule="evenodd">
        <g id="physical-verification_01" transform="translate(-557.000000, -761.000000)">
            <g id="pan-details-copy" transform="translate(160.000000, 284.000000)">
                <g id="ID-card" transform="translate(312.000000, 274.000000)">
                    <g id="Group-7" transform="translate(85.000000, 203.000000)">
                        <g id="thumbnail">
                            <rect id="Rectangle" fill="#EDF7ED" x="0" y="0" width="24" height="24" rx="12"></rect>
                            <g id="noun_id_1946984" transform="translate(6.000000, 8.000000)" fill="#4BB752">
                                <g id="Group">
                                    <path d="M10.725,0.075 L1.275,0.075 C0.6125,0.075 0.0625,0.625 0.0625,1.2875 L0.0625,6.4875 C0.0625,7.15 0.6125,7.7 1.275,7.7 L10.725,7.7 C11.3875,7.7 11.9375,7.15 11.9375,6.4875 L11.9375,1.2875 C11.9375,0.6125 11.3875,0.075 10.725,0.075 Z M3.5,1.6625 C4.0875,1.6625 4.575,2.1375 4.575,2.7375 C4.575,3.325 4.1,3.8125 3.5,3.8125 C2.9,3.8125 2.425,3.3375 2.425,2.7375 C2.425,2.15 2.9,1.6625 3.5,1.6625 Z M1.825,5.625 C1.825,4.8875 2.1,4.2375 2.525,3.8375 C2.7875,4.0625 3.125,4.2125 3.5,4.2125 C3.875,4.2125 4.2125,4.075 4.475,3.8375 C4.9,4.2375 5.175,4.8875 5.175,5.625 C5.1625,6.275 1.825,6.275 1.825,5.625 Z M9.9625,6.025 L6.6875,6.025 C6.525,6.025 6.3875,5.8875 6.3875,5.725 C6.3875,5.5625 6.525,5.425 6.6875,5.425 L9.9625,5.425 C10.125,5.425 10.2625,5.5625 10.2625,5.725 C10.2625,5.8875 10.1375,6.025 9.9625,6.025 Z M9.9625,4.1875 L6.6875,4.1875 C6.525,4.1875 6.3875,4.05 6.3875,3.8875 C6.3875,3.725 6.525,3.5875 6.6875,3.5875 L9.9625,3.5875 C10.125,3.5875 10.2625,3.725 10.2625,3.8875 C10.2625,4.05 10.1375,4.1875 9.9625,4.1875 Z M9.9625,2.3625 L6.6875,2.3625 C6.525,2.3625 6.3875,2.225 6.3875,2.0625 C6.3875,1.9 6.525,1.7625 6.6875,1.7625 L9.9625,1.7625 C10.125,1.7625 10.2625,1.9 10.2625,2.0625 C10.2625,2.225 10.1375,2.3625 9.9625,2.3625 Z" id="Shape"></path>
                                </g>
                            </g>
                        </g>
                    </g>
                </g>
            </g>
        </g>
    </g>
</svg>