<?xml version="1.0" encoding="UTF-8"?>
<svg width="16px" height="13px" viewBox="0 0 16 13" version="1.1" xmlns="http://www.w3.org/2000/svg" xmlns:xlink="http://www.w3.org/1999/xlink">
    <!-- Generator: sketchtool 60.1 (101010) - https://sketch.com -->
    <title>A217FB83-BE91-4B1D-A72F-AEE10D8EE2EE</title>
    <desc>Created with sketchtool.</desc>
    <g id="📮-email-template-notification-for-web-and-mobile" stroke="none" stroke-width="1" fill="none" fill-rule="evenodd">
        <g id="employment-verification_app" transform="translate(-120.000000, -415.000000)">
            <g id="profile/-header" transform="translate(16.000000, 323.000000)">
                <g id="Group-2" transform="translate(16.000000, 24.000000)">
                    <g id="name" transform="translate(88.000000, 0.000000)">
                        <g id="company" transform="translate(0.000000, 66.000000)">
                            <g id="Group">
                                <g id="id-card">
                                    <rect id="Rectangle" fill="#D8D8D8" opacity="0" x="0" y="0" width="16" height="16"></rect>
                                    <g id="noun_ID-badge_1614238" transform="translate(0.000000, 2.000000)" fill="#8697A8">
                                        <g id="Group" transform="translate(0.000000, 0.113390)">
                                            <path d="M14.9333337,0.064384 C15.524267,0.064384 15.9999996,0.681921987 15.9999996,1.44899832 L15.9999996,1.44899832 L15.9999996,10.6797697 C15.9999996,11.446846 15.524267,12.064384 14.9333337,12.064384 L14.9333337,12.064384 L1.06666631,12.064384 C0.475732978,12.064384 -3.55555585e-07,11.446846 -3.55555585e-07,10.6797697 L-3.55555585e-07,10.6797697 L-3.55555585e-07,1.44899832 C-3.55555585e-07,0.681921987 0.475732978,0.064384 1.06666631,0.064384 L1.06666631,0.064384 Z M4.94181818,7.15933705 C3.84936143,7.13304172 2.83278005,7.7159471 2.30363636,8.67206432 L2.30363636,9.42842796 L7.59454545,9.42842796 L7.59454545,8.67206432 C7.06297235,7.71122167 6.03944204,7.12754983 4.94181818,7.15933705 Z M13.3945455,7.97751887 L9.43272727,7.97751887 C9.13148105,7.97751887 8.88727273,8.22172719 8.88727273,8.52297341 C8.88727273,8.82421964 9.13148105,9.06842796 9.43272727,9.06842796 L13.3945455,9.06842796 C13.6957917,9.06842796 13.94,8.82421964 13.94,8.52297341 C13.94,8.22172719 13.6957917,7.97751887 13.3945455,7.97751887 Z M13.3945455,5.79570069 L9.43272727,5.79570069 C9.13148105,5.79570069 8.88727273,6.03990901 8.88727273,6.34115523 C8.88727273,6.64240146 9.13148105,6.88660978 9.43272727,6.88660978 L13.3945455,6.88660978 C13.6957917,6.88660978 13.94,6.64240146 13.94,6.34115523 C13.94,6.03990901 13.6957917,5.79570069 13.3945455,5.79570069 Z M4.94181818,3.43570069 C4.10736613,3.43570069 3.43090909,4.11215773 3.43090909,4.94660978 C3.43090909,5.78106183 4.10736613,6.45751887 4.94181818,6.45751887 C5.77627023,6.45751887 6.45272727,5.78106183 6.45272727,4.94660978 C6.45272727,4.11215773 5.77627023,3.43570069 4.94181818,3.43570069 Z M11.3945455,3.61388251 L9.43272727,3.61388251 C9.13148105,3.61388251 8.88727273,3.85809082 8.88727273,4.15933705 C8.88727273,4.46058328 9.13148105,4.7047916 9.43272727,4.7047916 L11.3945455,4.7047916 C11.6957917,4.7047916 11.94,4.46058328 11.94,4.15933705 C11.94,3.85809082 11.6957917,3.61388251 11.3945455,3.61388251 Z" id="Combined-Shape"></path>
                                        </g>
                                    </g>
                                </g>
                            </g>
                        </g>
                    </g>
                </g>
            </g>
        </g>
    </g>
</svg>