<?xml version="1.0" encoding="UTF-8"?>
<svg width="40px" height="40px" viewBox="0 0 40 40" version="1.1" xmlns="http://www.w3.org/2000/svg" xmlns:xlink="http://www.w3.org/1999/xlink">
    <title>E3E9C838-F2D0-4555-84B9-FEEEDB235427</title>
    <defs>
        <path d="M10,0.707573595 C14.7172991,0.707573595 18.0491107,1.59169039 19.9954347,3.35992399 C19.9923912,7.33524607 18.7668186,10.9284545 16.3187169,14.1395493 C14.1503184,16.8652989 11.9793268,18.2550177 9.80574226,18.3087056 C8.43966941,18.2058593 6.88455181,17.3612301 5.14038948,15.774818 C1.77082257,12.3676687 0.0573594087,8.2270038 -2.84217094e-13,3.35282322 C1.94936756,1.58932347 5.2827009,0.707573595 10,0.707573595 Z M8.6159659,13.1637408 L7.95251637,13.1637408 C7.97072868,13.2138449 7.99924131,13.2717295 8.03805427,13.3373947 C8.61294262,14.0994756 9.2605964,14.4635369 9.98101563,14.4295786 C10.8910488,14.3503759 11.5494262,13.92843 11.9561478,13.1637408 L11.9561478,13.1637408 L11.3846222,13.1637408 C10.4239622,13.6946844 9.50107673,13.6946844 8.6159659,13.1637408 L8.6159659,13.1637408 Z M6.18181818,11.0734115 C5.78015655,11.0734115 5.45454545,11.3894458 5.45454545,11.7792938 C5.45454545,12.1691419 5.78015655,12.4851762 6.18181818,12.4851762 C6.58347982,12.4851762 6.90909091,12.1691419 6.90909091,11.7792938 C6.90909091,11.3894458 6.58347982,11.0734115 6.18181818,11.0734115 Z M17.1749019,6.05842819 C15.2264924,6.85529027 13.3520526,7.09623939 11.5515826,6.78127557 L11.5515826,6.78127557 L11.5515826,7.0395053 C11.5719009,7.32781469 11.7064067,7.53370082 11.9551,7.65716368 C13.1522722,8.14104715 14.6930368,7.88093792 16.5773938,6.876836 C16.5773938,6.59920211 16.7765631,6.32639951 17.1749019,6.05842819 Z M2.78161692,6.05874204 C3.17995566,6.32671336 3.37912503,6.59951596 3.37912503,6.87714985 C5.263482,7.88125177 6.8042466,8.141361 8.00141884,7.65747752 C8.25011214,7.53401467 8.38461794,7.32812854 8.40493623,7.03981915 L8.40493623,6.78158942 L8.40493623,6.78158942 C6.60446615,7.09655324 4.73002638,6.85560412 2.78161692,6.05874204 Z M17.7776031,4.40313572 C15.5689286,3.82956821 13.437935,3.91775471 11.3846222,4.66769521 L11.3846222,4.66769521 L11.3846222,5.26348697 C11.3863297,5.30200993 11.4990561,5.27599044 11.7228013,5.1854285 C13.5409831,4.58067597 15.5707603,4.51890372 17.8121327,5.00011172 L17.8121327,5.00011172 Z M2.17891569,4.40344956 L2.14438609,5.00042557 C4.38575854,4.51921756 6.41553567,4.58098982 8.23371749,5.18574234 C8.45746266,5.27630429 8.57018905,5.30232378 8.57189664,5.26380082 L8.57189664,4.66800906 C6.51858384,3.91806856 4.38759019,3.82988206 2.17891569,4.40344956 Z" id="path-1"></path>
    </defs>
    <g id="profille_view-mode" stroke="none" stroke-width="1" fill="none" fill-rule="evenodd">
        <g id="attendance-_profile_04" transform="translate(-200.000000, -2729.000000)">
            <g id="Group-29" transform="translate(160.000000, 446.000000)">
                <g id="section-copy" transform="translate(40.000000, 1882.000000)">
                    <g id="10th_class" transform="translate(0.000000, 325.000000)">
                        <g id="mother" transform="translate(0.000000, 76.000000)">
                            <circle id="Oval" fill="#E5EEF7" opacity="0.5" cx="20" cy="20" r="20"></circle>
                            <g id="icon-/-24-/-info-/-identification-mark" transform="translate(10.000000, 10.000000)">
                                <mask id="mask-2" fill="white">
                                    <use xlink:href="#path-1"></use>
                                </mask>
                                <use id="Combined-Shape" fill="#7892B8" xlink:href="#path-1"></use>
                                <rect id="Rectangle" fill="#0059B2" mask="url(#mask-2)" x="0" y="0" width="20" height="20"></rect>
                            </g>
                        </g>
                    </g>
                </g>
            </g>
        </g>
    </g>
</svg>