<?xml version="1.0" encoding="UTF-8"?>
<svg width="25px" height="25px" viewBox="0 0 25 25" version="1.1" xmlns="http://www.w3.org/2000/svg" xmlns:xlink="http://www.w3.org/1999/xlink">
    <title>A595EB0F-436C-4E9E-B666-606ABF94F630</title>
    <g id="⚙️-configuration" stroke="none" stroke-width="1" fill="none" fill-rule="evenodd">
        <g id="government-document-generation_ESIC_05" transform="translate(-143.000000, -672.000000)" fill="#8697A8">
            <g id="form" transform="translate(135.000000, 255.000000)">
                <g id="Group-13" transform="translate(8.000000, 397.000000)">
                    <g id="Group-4" transform="translate(0.000000, 18.000000)">
                        <g id="c-info" transform="translate(0.000000, 2.000000)">
                            <g id="Group" transform="translate(0.171429, 0.171429)">
                                <path d="M11.8285714,0 C5.29583182,0 -3.65421978e-15,5.29583182 -3.65421978e-15,11.8285714 C-3.65421978e-15,18.361311 5.29583182,23.6571429 11.8285714,23.6571429 C18.361311,23.6571429 23.6571429,18.361311 23.6571429,11.8285714 C23.649774,5.29888655 18.3582563,0.00736889487 11.8285714,0 Z M13.7221714,18.5981143 C13.2405126,18.7992231 12.7474986,18.9719755 12.2456571,19.1154857 C11.9382309,19.2032576 11.6210159,19.252153 11.3014286,19.2610286 C10.8591476,19.2951849 10.422546,19.1441252 10.0959429,18.8439429 C9.82956872,18.5688038 9.68485302,18.198213 9.69428571,17.8153714 C9.69464411,17.653583 9.70805909,17.4920873 9.7344,17.3324571 C9.76045714,17.1648 9.804,16.9536 9.86502857,16.6988571 L10.926,12.4251429 C10.9774286,12.1906286 11.0288571,11.9396571 11.0802857,11.6706857 C11.126177,11.4456237 11.1514815,11.2168508 11.1558857,10.9872 C11.1872781,10.7233179 11.1212603,10.4570519 10.9702286,10.2384 C10.7490137,10.086143 10.4797998,10.0199369 10.2132,10.0522286 C10.0160502,10.0580341 9.81982616,10.0816154 9.62691429,10.1226857 C9.38245714,10.1696571 9.19697143,10.2097714 9.07045714,10.2430286 L9.22114286,9.60017143 C9.67572206,9.39059265 10.1455934,9.21591673 10.6266857,9.07765714 C10.9461349,8.97956083 11.2766921,8.92219283 11.6105143,8.90691429 C12.0458697,8.86689659 12.4783601,9.00895004 12.8052,9.29931429 C13.0633084,9.588582 13.1969177,9.96797343 13.1770286,10.3551429 C13.1733995,10.5200387 13.1598321,10.6845658 13.1364,10.8478286 C13.1091689,11.058051 13.0689781,11.2663906 13.0160571,11.4716571 L11.9484,15.7448571 C11.8822286,16.0061143 11.8241143,16.2632571 11.7740571,16.5162857 C11.7297549,16.7191943 11.7046159,16.9258166 11.6989714,17.1334286 C11.6651528,17.419954 11.7592122,17.706835 11.9561143,17.9177143 C12.1997761,18.0791224 12.4908429,18.1534296 12.7820571,18.1285714 C12.9648793,18.1235031 13.1471646,18.1063226 13.3277143,18.0771429 C13.5131775,18.0554407 13.6959849,18.0151231 13.8733714,17.9568 L13.7221714,18.5981143 Z M13.1142857,6.68571429 C12.4042053,6.68571429 11.8285714,6.11008039 11.8285714,5.4 C11.8285714,4.68991961 12.4042053,4.11428571 13.1142857,4.11428571 C13.8243661,4.11428571 14.4,4.68991961 14.4,5.4 C14.4,6.11008039 13.8243661,6.68571429 13.1142857,6.68571429 L13.1142857,6.68571429 Z" id="Shape"></path>
                            </g>
                        </g>
                    </g>
                </g>
            </g>
        </g>
    </g>
</svg>