<?xml version="1.0" encoding="UTF-8"?>
<svg width="16px" height="16px" viewBox="0 0 16 16" version="1.1" xmlns="http://www.w3.org/2000/svg" xmlns:xlink="http://www.w3.org/1999/xlink">
    <!-- Generator: Sketch 59 (86127) - https://sketch.com -->
    <title>noun_Info_2746478</title>
    <desc>Created with Sketch.</desc>
    <g id="👽-GBV-Client" stroke="none" stroke-width="1" fill="none" fill-rule="evenodd">
        <g id="BGV-Client-zomato-employee-profile-red-case" transform="translate(-204.000000, -285.000000)" fill="#8697A8" fill-rule="nonzero">
            <g id="section" transform="translate(160.000000, 80.000000)">
                <g id="Group-15" transform="translate(0.000000, 192.000000)">
                    <g id="noun_Info_2746478" transform="translate(44.000000, 13.000000)">
                        <path d="M8,0 C3.58186667,0 0,3.53153741 0,7.88759099 C0,12.2436446 3.58186667,15.775182 8,15.775182 C12.4181333,15.775182 16,12.2436446 16,7.88759099 C16,3.53153741 12.4181333,0 8,0 Z M7.07555556,11.2922258 L7.07555556,7.68146195 C7.07555556,7.17807927 7.48944343,6.77000699 8,6.77000699 C8.51055657,6.77000699 8.92444444,7.17807927 8.92444444,7.68146195 L8.92444444,11.2922258 C8.92444444,11.7956085 8.51055657,12.2036808 8,12.2036808 C7.48944343,12.2036808 7.07555556,11.7956085 7.07555556,11.2922258 L7.07555556,11.2922258 Z M8,5.77546941 C7.55059751,5.77546941 7.14544608,5.5085597 6.97346719,5.09919988 C6.8014883,4.68984005 6.89655025,4.21864651 7.2143258,3.90533606 C7.53210135,3.59202562 8.01001005,3.49829939 8.42520381,3.66786178 C8.84039758,3.83742418 9.11111111,4.23688277 9.11111111,4.67997066 C9.11111111,5.28499791 8.61364972,5.77546941 8,5.77546941 Z" id="Shape"></path>
                    </g>
                </g>
            </g>
        </g>
    </g>
</svg>