<?xml version="1.0" encoding="UTF-8"?>
<svg width="40px" height="40px" viewBox="0 0 40 40" version="1.1" xmlns="http://www.w3.org/2000/svg" xmlns:xlink="http://www.w3.org/1999/xlink">
    <title>6CA19ECA-7336-459F-BCB7-9F59FDCB26AF</title>
    <g id="onboarding-changes" stroke="none" stroke-width="1" fill="none" fill-rule="evenodd">
        <g id="updated-screen" transform="translate(-184.000000, -1304.000000)" fill="#0E6170">
            <g id="Group-26" transform="translate(160.000000, 1165.000000)">
                <g id="Group-27" transform="translate(0.000000, 52.000000)">
                    <g id="Group-10" transform="translate(24.000000, 24.000000)">
                        <g id="distributor-sales-representative" transform="translate(0.000000, 51.000000)">
                            <g id="Group-4" transform="translate(0.000000, 12.000000)">
                                <circle id="Oval" opacity="0.192359561" cx="20" cy="20" r="20"></circle>
                                <g id="noun_Male_1901025" transform="translate(11.666667, 8.333333)">
                                    <path d="M12.5442194,11.7823075 L10.5896411,11.7823075 L10.5896411,10.9758961 C11.1659978,10.518776 11.7427904,9.94738104 12.1819736,9.32822713 C12.1887726,9.32313048 12.1938796,9.31632112 12.1989763,9.30952213 C12.221086,9.27720881 12.244898,9.24489548 12.263603,9.21258213 C12.409859,9 12.5323134,8.79081673 12.6292534,8.5850307 C12.6547573,8.53231002 12.6785694,8.47788701 12.7023814,8.42516634 C12.749995,8.319725 12.7891177,8.21428366 12.8214311,8.11054464 C12.8231334,8.10543762 12.8248254,8.10034097 12.8265277,8.09523395 C12.8384337,8.05441929 12.8503397,8.01530696 12.8605434,7.97618425 C12.8707471,7.94387092 12.8792484,7.91155757 12.8860578,7.87924423 C12.8945591,7.84523893 12.9013581,7.8129256 12.9081674,7.77890991 C12.9149664,7.73809526 12.9234677,7.69897255 12.9285748,7.65815787 C12.9353737,7.61904554 12.9404808,7.57823088 12.9438751,7.53910818 C12.9540787,7.46088354 12.9574834,7.3826485 12.9574834,7.30442386 L12.9574834,4.17516799 C12.9574834,3.72279162 12.8843554,3.28231085 12.7483031,2.86904679 C12.5629243,2.301015 12.2585063,1.78401194 11.8571379,1.34863821 C11.8214302,1.30952588 11.7840099,1.27040318 11.7465999,1.2329932 C11.5578269,1.04251784 11.3486361,0.869045136 11.1241451,0.717682092 C11.0340144,0.656460085 10.9404791,0.598632398 10.8452414,0.544219762 C10.607142,0.408157041 10.35204,0.295916701 10.0833317,0.20747801 C9.93877592,0.159864354 9.79081757,0.12074165 9.64115687,0.0901306633 C9.62925087,0.0867363605 9.61734486,0.0850340136 9.60543886,0.0833316667 C9.49999752,0.0612220068 9.39115148,0.0425170068 9.28231583,0.0306110034 C9.28231583,0.0306110034 9.28231583,0.0306110034 9.28061349,0.0306110034 C9.11734446,0.0102036735 8.95238344,0 8.78570971,0 L7.87925459,0 C6.72959308,0 5.68537291,0.469389422 4.93197279,1.22618383 C4.17687034,1.98128628 3.70918327,3.02380412 3.70918327,4.17346565 L3.70918327,7.17856478 C3.70918327,7.21938983 3.71088561,7.25850214 3.71258794,7.29931682 C3.71429029,7.32652313 3.71598224,7.35544218 3.71938692,7.38264849 C3.7295906,7.51700888 3.75170027,7.65306122 3.78741828,7.79251825 C3.79762196,7.83672721 3.80952796,7.88094656 3.82142359,7.92516592 C3.82482827,7.93707192 3.82823296,7.95068027 3.83503194,7.96598058 C3.84864029,8.01190226 3.86224864,8.05782396 3.87925129,8.10373527 C3.89625395,8.15306165 3.91496932,8.20237764 3.9336743,8.25339597 C3.9336743,8.25509832 3.93537665,8.25680065 3.93707898,8.26020534 C3.95748631,8.31292602 3.97959599,8.36394435 4.00170566,8.41666502 C4.0561183,8.54251369 4.11904264,8.67006471 4.19047869,8.79931808 C4.20918369,8.83333376 4.22959102,8.86904139 4.248296,8.90305709 C4.2755127,8.94897878 4.30101668,8.99319813 4.32823337,9.03910944 C4.79093798,9.8022565 5.45014881,10.5207171 6.07702553,11.0562902 L6.07702553,11.7823075 L4.12244731,11.7823075 C1.89456031,11.7823075 0.0833316667,13.5952385 0.0833316667,15.8214232 L0.0833316667,21.9387755 C0.0833316667,22.0323109 0.159864354,22.1088435 0.253399694,22.1088435 L2.9606618,22.1088435 L2.9606618,18.2417059 C2.9606618,18.1477865 3.03681043,18.0716378 3.13072983,18.0716378 C3.22464923,18.0716378 3.30079786,18.1477865 3.30079786,18.2417059 L3.30079786,22.1088435 L13.3658688,22.1088435 L13.3658688,18.2417059 C13.3658688,18.1477865 13.4420174,18.0716378 13.5359368,18.0716378 C13.6298562,18.0716378 13.7060049,18.1477865 13.7060049,18.2417059 L13.7060049,22.1088435 L16.413267,22.1088435 C16.5068023,22.1088435 16.5833317,22.0323109 16.5833317,21.9387755 L16.5833317,15.8214232 C16.5833317,13.5952385 14.7721064,11.7823075 12.5442194,11.7823075 Z M4.72618673,9.0306081 L4.72618673,6.31972332 C4.72618673,5.14965446 5.42856852,4.08502696 6.47449104,3.67006054 C6.90646009,3.49999252 7.36224116,3.40986185 7.82992823,3.40475483 L8.78570971,3.40475483 C9.19217478,3.40475483 9.59184088,3.46768956 9.9761859,3.59524058 L10.0034026,3.6037419 C11.1309545,3.9795856 11.8894512,5.06632279 11.8894512,6.30442301 L11.8894512,9.16666044 C11.3990213,9.8474827 10.7245724,10.4722834 10.0834438,10.9340227 C10.0554174,10.9542431 10.0275468,10.9729481 9.99955158,10.9926185 C9.92763804,11.0430348 9.85621238,11.0917798 9.78570017,11.1377431 C9.75998859,11.1545485 9.73430815,11.1713124 9.70879379,11.1875365 C9.61532073,11.2467863 9.52290645,11.3033165 9.43366849,11.3537431 C9.27060704,11.4460848 9.10058054,11.5171783 8.92706631,11.5692035 C8.24110588,11.7746677 7.49823122,11.6680638 6.89124282,11.2546337 C6.76952544,11.171738 6.64232735,11.0751301 6.51334386,10.972699 C5.90384347,10.4870128 5.21969957,9.78489053 4.72618673,9.0306081 Z M6.69898207,11.5357068 C6.72299131,11.5520036 6.74792439,11.5661206 6.77228655,11.581587 C6.80499434,11.6024199 6.83743223,11.6238964 6.87075245,11.6432138 C6.8897377,11.654196 6.90926272,11.663673 6.92842444,11.6741673 C6.96886543,11.6963601 7.00932716,11.7184594 7.05055702,11.7384722 C7.06982255,11.747804 7.08949289,11.755859 7.1089141,11.7647132 C7.15053842,11.7837192 7.19220425,11.8024657 7.23450328,11.8192712 C7.254921,11.8273781 7.27561898,11.8343639 7.29618201,11.8419621 C7.33789974,11.8573974 7.37967976,11.8724278 7.42193726,11.8857455 C7.4436006,11.8925653 7.46545077,11.8984508 7.48723866,11.9047204 C7.52883184,11.9166887 7.5704769,11.9281484 7.61247491,11.9380925 C7.63516588,11.943459 7.65795026,11.9480678 7.68073464,11.9528531 C7.72230706,11.9615724 7.76393138,11.969617 7.80580481,11.976364 C7.82904592,11.9801009 7.85229741,11.983298 7.87562156,11.9864431 C7.91737044,11.9920588 7.95915046,11.9968233 8.00109656,12.0004875 C8.0247944,12.0025635 8.04846109,12.004297 8.07220044,12.0057502 C8.11391818,12.0082933 8.15564629,12.0097777 8.19744707,12.0104005 C8.21101389,12.0106081 8.22451845,12.0119056 8.23809566,12.0119056 C8.24998092,12.0119056 8.26187653,12.0109091 8.27376179,12.0107534 C8.30616855,12.0103174 8.3385234,12.0091964 8.3709198,12.0076082 C8.39880082,12.0062381 8.42665071,12.0044319 8.45452134,12.0022002 C8.48753015,11.9995636 8.52048706,11.9964288 8.55343359,11.9925882 C8.57998595,11.9894845 8.60643452,11.9857788 8.632935,11.9818759 C8.66719981,11.9768623 8.70138156,11.9715061 8.7355218,11.9651743 C8.76005005,11.9606174 8.78447449,11.9553028 8.80893007,11.9500608 C8.84461696,11.942421 8.88026231,11.9346359 8.9157416,11.9255533 C8.9382042,11.9198027 8.96047995,11.913149 8.98284913,11.9068172 C9.01970896,11.8963851 9.05650653,11.8859739 9.09306534,11.873964 C9.1138775,11.8671235 9.13445092,11.8592243 9.15515927,11.8518855 C9.19255888,11.8386197 9.22997923,11.8255407 9.26699478,11.8106037 C9.2876201,11.8022893 9.30790287,11.7926773 9.32840362,11.7838541 C9.36469255,11.7681905 9.40108529,11.752994 9.43691748,11.7357007 C9.4786975,11.7155944 9.51984434,11.6934225 9.56093925,11.671126 C9.57438151,11.663808 9.58816633,11.6575487 9.60153594,11.649992 C9.80930459,11.5324889 10.0293633,11.3910701 10.2495051,11.2337904 L10.2495051,12.2882454 C10.2495051,12.8731137 10.0342939,13.4034033 9.68692287,13.7873539 C9.33983213,14.1707855 8.86101755,14.4081583 8.33333333,14.4081583 C7.80564912,14.4081583 7.32683454,14.1707855 6.97974381,13.7873539 C6.63237281,13.4034034 6.4171616,12.8731137 6.4171616,12.2882454 L6.4171616,11.3314466 C6.51320893,11.4047822 6.60756429,11.4733534 6.69898207,11.5357068 Z" id="Shape"></path>
                                </g>
                            </g>
                        </g>
                    </g>
                </g>
            </g>
        </g>
    </g>
</svg>