<?xml version="1.0" encoding="UTF-8"?>
<svg width="16px" height="16px" viewBox="0 0 16 16" version="1.1" xmlns="http://www.w3.org/2000/svg" xmlns:xlink="http://www.w3.org/1999/xlink">
    <!-- Generator: sketchtool 57.1 (101010) - https://sketch.com -->
    <title>58E04DB6-54C1-4655-8DFA-99B91E845BD6</title>
    <desc>Created with sketchtool.</desc>
    <defs>
        <path d="M1.45454545,11.6363636 L1.45454545,14.5454545 L4.36363636,14.5454545 L4.36363636,16 L0.727272727,16 C0.325611091,16 5.32907052e-15,15.6743889 5.32907052e-15,15.2727273 L5.32907052e-15,11.6363636 L1.45454545,11.6363636 Z M16,11.6363636 L16,15.2727273 C16,15.6743889 15.6743889,16 15.2727273,16 L11.6363636,16 L11.6363636,14.5454545 L14.5454545,14.5454545 L14.5454545,11.6363636 L16,11.6363636 Z M8,2.18181818 C10.0083082,2.18181818 11.6363636,3.80987364 11.6363636,5.81818182 L11.6363636,5.81818182 L11.6363636,6.54545455 C11.5950742,7.97313194 10.937845,9.31305199 9.83418182,10.2196364 L9.83418182,10.2196364 L10.0152727,11.304 C10.0628219,11.5897068 10.2753675,11.8199646 10.5563636,11.8901818 L10.5563636,11.8901818 L12.5396364,12.3854545 C12.8956885,12.4746887 13.1294359,12.8152578 13.0846812,13.1795831 C13.0399266,13.5439083 12.7307,13.8177771 12.3636364,13.8181818 L12.3636364,13.8181818 L3.63636364,13.8181818 C3.2693,13.8177771 2.96007345,13.5439083 2.91531877,13.1795831 C2.8705641,12.8152578 3.10431147,12.4746887 3.46036364,12.3854545 L3.46036364,12.3854545 L5.44436364,11.8901818 C5.72507643,11.8197145 5.93728892,11.5895082 5.98472727,11.304 L5.98472727,11.304 L6.16581818,10.2196364 C5.06215503,9.31305199 4.40492584,7.97313194 4.36363636,6.54545455 L4.36363636,6.54545455 L4.36363636,5.81818182 C4.36363636,3.80987364 5.99169182,2.18181818 8,2.18181818 Z M4.36363636,0 L4.36363636,1.45454545 L1.45454545,1.45454545 L1.45454545,4.36363636 L5.32907052e-15,4.36363636 L5.32907052e-15,0.727272727 C5.32907052e-15,0.325611091 0.325611091,0 0.727272727,0 L4.36363636,0 Z M15.2727273,0 C15.6743889,0 16,0.325611091 16,0.727272727 L16,4.36363636 L14.5454545,4.36363636 L14.5454545,1.45454545 L11.6363636,1.45454545 L11.6363636,0 L15.2727273,0 Z" id="path-1"></path>
    </defs>
    <g id="🚀-Initiate-BGV" stroke="none" stroke-width="1" fill="none" fill-rule="evenodd">
        <g id="multi-employee-initiate-BGV_2" transform="translate(-317.000000, -96.000000)">
            <g id="action-bar-/-with_label" transform="translate(160.000000, 80.000000)">
                <g id="action-bar/-label-/-initiate-BGV" transform="translate(149.000000, 8.000000)">
                    <g id="icon-/-16-/-info-/-action_bar-/-initiate" transform="translate(8.000000, 8.000000)">
                        <mask id="mask-2" fill="white">
                            <use xlink:href="#path-1"></use>
                        </mask>
                        <use id="Combined-Shape" fill="#8697A8" fill-rule="nonzero" xlink:href="#path-1"></use>
                        <rect id="Rectangle" fill="#0059B2" mask="url(#mask-2)" x="0" y="0" width="16" height="16"></rect>
                    </g>
                </g>
            </g>
        </g>
    </g>
</svg>