<?xml version="1.0" encoding="UTF-8"?>
<svg width="16px" height="16px" viewBox="0 0 16 16" version="1.1" xmlns="http://www.w3.org/2000/svg" xmlns:xlink="http://www.w3.org/1999/xlink">
    <!-- Generator: sketchtool 57.1 (101010) - https://sketch.com -->
    <title>5BCBFF8D-88C3-4D29-99C4-CF895ACA98F6</title>
    <desc>Created with sketchtool.</desc>
    <g id="🚀-Initiate-BGV" stroke="none" stroke-width="1" fill="none" fill-rule="evenodd">
        <g id="BGV-Client-zomato-single-employee-initiateing_B2" transform="translate(-321.000000, -96.000000)" fill="#8697A8" fill-rule="nonzero">
            <g id="action-bar" transform="translate(160.000000, 96.000000)">
                <g id="initiate" transform="translate(161.000000, 0.000000)">
                    <g transform="translate(-0.000000, -0.000000)" id="Path">
                        <path d="M1.45454545,4.36363636 L-1.65201186e-13,4.36363636 L-1.65201186e-13,0.727272727 C-1.65201186e-13,0.325611091 0.325611091,-1.65201186e-13 0.727272727,-1.65201186e-13 L4.36363636,-1.65201186e-13 L4.36363636,1.45454545 L1.45454545,1.45454545 L1.45454545,4.36363636 Z"></path>
                        <path d="M16,4.36363636 L14.5454545,4.36363636 L14.5454545,1.45454545 L11.6363636,1.45454545 L11.6363636,-1.65201186e-13 L15.2727273,-1.65201186e-13 C15.6743889,-1.65201186e-13 16,0.325611091 16,0.727272727 L16,4.36363636 Z"></path>
                        <path d="M4.36363636,16 L0.727272727,16 C0.325611091,16 -1.65201186e-13,15.6743889 -1.65201186e-13,15.2727273 L-1.65201186e-13,11.6363636 L1.45454545,11.6363636 L1.45454545,14.5454545 L4.36363636,14.5454545 L4.36363636,16 Z"></path>
                        <path d="M15.2727273,16 L11.6363636,16 L11.6363636,14.5454545 L14.5454545,14.5454545 L14.5454545,11.6363636 L16,11.6363636 L16,15.2727273 C16,15.6743889 15.6743889,16 15.2727273,16 Z"></path>
                        <path d="M12.5396364,12.3854545 L10.5563636,11.8901818 C10.2753675,11.8199646 10.0628219,11.5897068 10.0152727,11.304 L9.83418182,10.2196364 C10.937845,9.31305199 11.5950742,7.97313194 11.6363636,6.54545455 L11.6363636,5.81818182 C11.6363636,3.80987364 10.0083082,2.18181818 8,2.18181818 C5.99169182,2.18181818 4.36363636,3.80987364 4.36363636,5.81818182 L4.36363636,6.54545455 C4.40492584,7.97313194 5.06215503,9.31305199 6.16581818,10.2196364 L5.98472727,11.304 C5.93728892,11.5895082 5.72507643,11.8197145 5.44436364,11.8901818 L3.46036364,12.3854545 C3.10431147,12.4746887 2.8705641,12.8152578 2.91531877,13.1795831 C2.96007345,13.5439083 3.2693,13.8177771 3.63636364,13.8181818 L12.3636364,13.8181818 C12.7307,13.8177771 13.0399266,13.5439083 13.0846812,13.1795831 C13.1294359,12.8152578 12.8956885,12.4746887 12.5396364,12.3854545 Z"></path>
                    </g>
                </g>
            </g>
        </g>
    </g>
</svg>