<?xml version="1.0" encoding="UTF-8"?>
<svg width="24px" height="24px" viewBox="0 0 24 24" version="1.1" xmlns="http://www.w3.org/2000/svg" xmlns:xlink="http://www.w3.org/1999/xlink">
    <!-- Generator: sketchtool 56.2 (101010) - https://sketch.com -->
    <title>E4110384-9B8A-418C-956B-FC636806AB98</title>
    <desc>Created with sketchtool.</desc>
    <g id="employee-onboarding" stroke="none" stroke-width="1" fill="none" fill-rule="evenodd">
        <g id="BGV-Client-zomato-employee-profile" transform="translate(-636.000000, -295.000000)" fill="#8697A8">
            <g id="section" transform="translate(160.000000, 81.000000)">
                <g id="profile-info" transform="translate(207.000000, 39.000000)">
                    <g id="social-icon" transform="translate(149.000000, 175.000000)">
                        <g id="logo-instagram" transform="translate(120.000000, 0.000000)">
                            <path d="M12,24 C5.372583,24 0,18.627417 0,12 C0,5.372583 5.372583,0 12,0 C18.627417,0 24,5.372583 24,12 C24,18.627417 18.627417,24 12,24 Z M12.2790698,5.87309302 C14.3653953,5.87309302 14.6125116,5.88090698 15.4363953,5.91851163 C16.3257209,5.95904651 17.1510698,6.13730233 17.7859535,6.77218605 C18.4208372,7.40706977 18.599093,8.2324186 18.6396279,9.12174419 C18.6772326,9.94562791 18.6850465,10.1927442 18.6850465,12.2790698 C18.6850465,14.3653953 18.6772326,14.6125116 18.6396279,15.4363953 C18.599093,16.3257209 18.4208372,17.1510698 17.7859535,17.7859535 C17.1510698,18.4208372 16.3257209,18.599093 15.4363953,18.6396279 C14.6125116,18.6772326 14.3653953,18.6850465 12.2790698,18.6850465 C10.1927442,18.6850465 9.94562791,18.6772326 9.12174419,18.6396279 C8.2324186,18.599093 7.40706977,18.4208372 6.77218605,17.7859535 C6.13730233,17.1510698 5.95904651,16.3257209 5.91851163,15.4363953 C5.88090698,14.6125116 5.87309302,14.3653953 5.87309302,12.2790698 C5.87309302,10.1927442 5.88090698,9.94562791 5.91851163,9.12174419 C5.95904651,8.2324186 6.13730233,7.40706977 6.77218605,6.77218605 C7.40706977,6.13730233 8.2324186,5.95904651 9.12174419,5.91851163 C9.94562791,5.88090698 10.1927442,5.87309302 12.2790698,5.87309302 Z M12.2790698,4.46511628 C10.157093,4.46511628 9.89093023,4.47390698 9.05727907,4.512 C7.78751163,4.57011628 6.67206977,4.8812093 5.77639535,5.77639535 C4.8812093,6.6715814 4.57011628,7.78702326 4.512,9.05727907 C4.47390698,9.89093023 4.46511628,10.157093 4.46511628,12.2790698 C4.46511628,14.4010465 4.47390698,14.6672093 4.512,15.5008605 C4.57011628,16.7706279 4.8812093,17.8860698 5.77639535,18.7817442 C6.6715814,19.6769302 7.78702326,19.9880233 9.05727907,20.0461395 C9.89093023,20.0842326 10.157093,20.0930233 12.2790698,20.0930233 C14.4010465,20.0930233 14.6672093,20.0842326 15.5008605,20.0461395 C16.7706279,19.9880233 17.8860698,19.6769302 18.7817442,18.7817442 C19.6769302,17.8865581 19.9880233,16.7711163 20.0461395,15.5008605 C20.0842326,14.6672093 20.0930233,14.4010465 20.0930233,12.2790698 C20.0930233,10.157093 20.0842326,9.89093023 20.0461395,9.05727907 C19.9880233,7.78751163 19.6769302,6.67206977 18.7817442,5.77639535 C17.8865581,4.8812093 16.7711163,4.57011628 15.5008605,4.512 C14.6672093,4.47390698 14.4010465,4.46511628 12.2790698,4.46511628 Z M12.2790698,8.26660465 C10.0628372,8.26660465 8.26660465,10.0633256 8.26660465,12.2790698 C8.26660465,14.494814 10.0633256,16.2915349 12.2790698,16.2915349 C14.494814,16.2915349 16.2915349,14.494814 16.2915349,12.2790698 C16.2915349,10.0633256 14.4953023,8.26660465 12.2790698,8.26660465 Z M12.2790698,14.8835581 C10.8403256,14.8835581 9.6745814,13.7173256 9.6745814,12.2790698 C9.6745814,10.8403256 10.840814,9.6745814 12.2790698,9.6745814 C13.717814,9.6745814 14.8835581,10.840814 14.8835581,12.2790698 C14.8835581,13.717814 13.717814,14.8835581 12.2790698,14.8835581 Z M16.4502558,9.04555814 C16.9681191,9.04555814 17.3879302,8.625747 17.3879302,8.10788372 C17.3879302,7.59002044 16.9681191,7.1702093 16.4502558,7.1702093 C15.9323925,7.1702093 15.5125814,7.59002044 15.5125814,8.10788372 C15.5125814,8.625747 15.9323925,9.04555814 16.4502558,9.04555814 Z" id="Combined-Shape"></path>
                        </g>
                    </g>
                </g>
            </g>
        </g>
    </g>
</svg>