<?xml version="1.0" encoding="UTF-8"?>
<svg width="44px" height="56px" viewBox="0 0 44 56" version="1.1" xmlns="http://www.w3.org/2000/svg" xmlns:xlink="http://www.w3.org/1999/xlink">
    <!-- Generator: Sketch 56.2 (81672) - https://sketch.com -->
    <title>jpg</title>
    <desc>Created with Sketch.</desc>
    <g id="ðŸ‚-on-boarding" stroke="none" stroke-width="1" fill="none" fill-rule="evenodd">
        <g id="05_OPs-clients-verify_configuration_B" transform="translate(-698.000000, -422.000000)" fill-rule="nonzero">
            <g id="jpg" transform="translate(698.000000, 422.000000)">
                <path d="M30.985,0 L1.963,0 C1.155,0 0.5,0.655 0.5,1.926 L0.5,55 C0.5,55.345 1.155,56 1.963,56 L42.037,56 C42.845,56 43.5,55.345 43.5,55 L43.5,12.978 C43.5,12.282 43.407,12.058 43.243,11.893 L31.607,0.257 C31.442,0.093 31.218,0 30.985,0 Z" id="Path" fill="#FFFFFF"></path>
                <polygon id="Path" fill="#EFEFEF" points="31.5 0.151 31.5 12 43.349 12"></polygon>
                <circle id="Oval" fill="#FFB803" cx="12.931" cy="14.431" r="4.569"></circle>
                <polygon id="Path" fill-opacity="0.705474213" fill="#4BB752" points="0.5 39 11.5 39 43.5 39 43.5 28 33.5 18.5 23 30 17.517 24.517"></polygon>
                <path d="M42.037,56 L1.963,56 C1.155,56 0.5,55.345 0.5,54.537 L0.5,39 L43.5,39 L43.5,54.537 C43.5,55.345 42.845,56 42.037,56 Z" id="Path" fill="#4BB752"></path>
                <g id="Group" transform="translate(9.000000, 42.000000)" fill="#FFFFFF">
                    <path d="M6.426,0.65 L6.426,8.498 C6.426,8.972 6.339,9.371 6.166,9.694 C5.993,10.017 5.76,10.277 5.469,10.473 C5.177,10.669 4.842,10.806 4.464,10.883 C4.085,10.961 3.696,11 3.295,11 C3.094,11 2.859,10.979 2.591,10.938 C2.322,10.897 2.044,10.834 1.757,10.747 C1.47,10.66 1.194,10.562 0.93,10.453 C0.665,10.344 0.442,10.221 0.26,10.084 L0.957,8.977 C1.048,9.04 1.178,9.107 1.347,9.175 C1.515,9.243 1.7,9.307 1.901,9.366 C2.101,9.426 2.311,9.477 2.53,9.523 C2.749,9.569 2.954,9.591 3.145,9.591 C3.628,9.591 4.013,9.497 4.3,9.311 C4.587,9.125 4.739,8.807 4.758,8.361 L4.758,0.65 L6.426,0.65 Z" id="Path"></path>
                    <path d="M10.514,10.932 L8.873,10.932 L8.873,0.855 L11.771,0.855 C12.199,0.855 12.623,0.923 13.042,1.06 C13.461,1.197 13.837,1.402 14.17,1.675 C14.503,1.948 14.772,2.279 14.977,2.666 C15.182,3.053 15.285,3.488 15.285,3.972 C15.285,4.483 15.198,4.945 15.025,5.36 C14.852,5.775 14.61,6.124 14.3,6.406 C13.99,6.688 13.616,6.907 13.179,7.062 C12.742,7.217 12.258,7.294 11.73,7.294 L10.513,7.294 L10.513,10.932 L10.514,10.932 Z M10.514,2.1 L10.514,6.092 L12.018,6.092 C12.218,6.092 12.416,6.058 12.613,5.989 C12.809,5.921 12.989,5.809 13.153,5.654 C13.317,5.499 13.449,5.283 13.549,5.005 C13.649,4.727 13.699,4.383 13.699,3.973 C13.699,3.809 13.676,3.619 13.631,3.406 C13.585,3.192 13.492,2.987 13.351,2.791 C13.209,2.595 13.011,2.431 12.756,2.299 C12.5,2.166 12.163,2.1 11.744,2.1 L10.514,2.1 Z" id="Shape"></path>
                    <path d="M24.5,5.736 L24.5,9.632 C24.29,9.897 24.056,10.112 23.796,10.281 C23.536,10.45 23.263,10.589 22.976,10.698 C22.689,10.807 22.393,10.885 22.087,10.93 C21.781,10.978 21.479,11 21.178,11 C20.576,11 20.023,10.891 19.517,10.672 C19.011,10.453 18.569,10.13 18.191,9.701 C17.813,9.272 17.516,8.735 17.302,8.088 C17.088,7.441 16.981,6.693 16.981,5.846 C16.981,4.999 17.088,4.253 17.302,3.611 C17.516,2.968 17.812,2.433 18.191,2.005 C18.569,1.576 19.013,1.251 19.524,1.027 C20.034,0.803 20.586,0.692 21.178,0.692 C21.725,0.692 22.235,0.783 22.709,0.965 C23.183,1.148 23.606,1.421 23.98,1.785 L22.845,2.797 C22.626,2.532 22.375,2.341 22.093,2.223 C21.81,2.105 21.519,2.045 21.218,2.045 C20.881,2.045 20.559,2.108 20.254,2.236 C19.948,2.364 19.675,2.58 19.434,2.885 C19.192,3.191 19.003,3.584 18.867,4.068 C18.731,4.552 18.657,5.143 18.648,5.845 C18.657,6.529 18.728,7.121 18.86,7.622 C18.992,8.123 19.174,8.533 19.407,8.852 C19.64,9.171 19.904,9.408 20.2,9.563 C20.496,9.718 20.808,9.795 21.137,9.795 C21.237,9.795 21.371,9.788 21.54,9.774 C21.708,9.76 21.877,9.738 22.046,9.706 C22.214,9.674 22.376,9.631 22.531,9.576 C22.686,9.521 22.8,9.444 22.873,9.344 L22.873,6.856 L21.164,6.856 L21.164,5.735 L24.5,5.735 L24.5,5.736 Z" id="Path"></path>
                </g>
            </g>
        </g>
    </g>
</svg>