<?xml version="1.0" encoding="UTF-8"?>
<svg width="40px" height="40px" viewBox="0 0 40 40" version="1.1" xmlns="http://www.w3.org/2000/svg" xmlns:xlink="http://www.w3.org/1999/xlink">
    <title>1DFC3878-A631-4B36-8D71-AFB756F543CC</title>
    <defs>
        <rect id="path-1" x="0" y="0" width="40" height="40" rx="19.5"></rect>
        <path d="M5.33333333,0 L5.33333333,2.66666667 L10.6666667,2.66666667 L10.6666667,0 L13.3333333,0 L13.3333333,2.66666667 L14.6666667,2.66666667 C15.4030463,2.66666667 16,3.26362033 16,4 L16,4 L16,14.6666667 C16,15.4030463 15.4030463,16 14.6666667,16 L14.6666667,16 L1.33333333,16 C0.596953667,16 0,15.4030463 0,14.6666667 L0,14.6666667 L0,4 C0,3.26362033 0.596953667,2.66666667 1.33333333,2.66666667 L1.33333333,2.66666667 L2.66666667,2.66666667 L2.66666667,0 L5.33333333,0 Z M14.6666667,4.33333333 L1.66666667,4.33333333 L1.66666667,14.3333333 L14.6666667,14.3333333 L14.6666667,4.33333333 Z M3.5,9 L6.5,9 C6.77614237,9 7,9.22385763 7,9.5 L7,12.5 C7,12.7761424 6.77614237,13 6.5,13 L3.5,13 C3.22385763,13 3,12.7761424 3,12.5 L3,9.5 C3,9.22385763 3.22385763,9 3.5,9 Z" id="path-3"></path>
    </defs>
    <g id="Page-1" stroke="none" stroke-width="1" fill="none" fill-rule="evenodd">
        <g id="leave_config_23" transform="translate(-159.000000, -64.000000)">
            <g id="icon-/-40-/-info-/-address" transform="translate(159.000000, 64.000000)">
                <g id="icon-/-40-/-info-/-container">
                    <mask id="mask-2" fill="white">
                        <use xlink:href="#path-1"></use>
                    </mask>
                    <use fill="#4BB752" xlink:href="#path-1"></use>
                </g>
                <g id="icon-/-24-/-info-/-form" transform="translate(12.000000, 12.000000)">
                    <mask id="mask-4" fill="white">
                        <use xlink:href="#path-3"></use>
                    </mask>
                    <use id="Combined-Shape" fill="#7892B8" fill-rule="nonzero" xlink:href="#path-3"></use>
                    <rect id="Rectangle" fill="#FFFFFF" mask="url(#mask-4)" x="-4" y="-4" width="24" height="24"></rect>
                </g>
            </g>
        </g>
    </g>
</svg>