<?xml version="1.0" encoding="UTF-8"?>
<svg width="14px" height="14px" viewBox="0 0 14 14" version="1.1" xmlns="http://www.w3.org/2000/svg" xmlns:xlink="http://www.w3.org/1999/xlink">
    <title>icon / 16 / info / leaves</title>
    <defs>
        <path d="M7.77777778,3.33333333 L7.77777778,5.55555556 L12.2222222,5.55555556 L12.2222222,3.33333333 L14.4444444,3.33333333 L14.4444444,5.55555556 L15.5555556,5.55555556 C16.1692053,5.55555556 16.6666667,6.05301694 16.6666667,6.66666667 L16.6666667,6.66666667 L16.6666667,15.5555556 C16.6666667,16.1692053 16.1692053,16.6666667 15.5555556,16.6666667 L15.5555556,16.6666667 L4.44444444,16.6666667 C3.83079472,16.6666667 3.33333333,16.1692053 3.33333333,15.5555556 L3.33333333,15.5555556 L3.33333333,6.66666667 C3.33333333,6.05301694 3.83079472,5.55555556 4.44444444,5.55555556 L4.44444444,5.55555556 L5.55555556,5.55555556 L5.55555556,3.33333333 L7.77777778,3.33333333 Z M15.5555556,6.94444444 L4.72222222,6.94444444 L4.72222222,15.2777778 L15.5555556,15.2777778 L15.5555556,6.94444444 Z M6.33333333,10.8333333 L8.66666667,10.8333333 C8.94280904,10.8333333 9.16666667,11.057191 9.16666667,11.3333333 L9.16666667,13.6666667 C9.16666667,13.942809 8.94280904,14.1666667 8.66666667,14.1666667 L6.33333333,14.1666667 C6.05719096,14.1666667 5.83333333,13.942809 5.83333333,13.6666667 L5.83333333,11.3333333 C5.83333333,11.057191 6.05719096,10.8333333 6.33333333,10.8333333 Z" id="path-1"></path>
    </defs>
    <g id="Symbols" stroke="none" stroke-width="1" fill="none" fill-rule="evenodd">
        <g id="nav_bar/-dashboard" transform="translate(-326.000000, -4.000000)">
            <g id="icon-/-24-/-info-/-form" transform="translate(323.000000, 1.000000)">
                <mask id="mask-2" fill="white">
                    <use xlink:href="#path-1"></use>
                </mask>
                <use id="Combined-Shape" fill="#7892B8" fill-rule="nonzero" xlink:href="#path-1"></use>
                <rect id="Rectangle" fill="#8697A8" mask="url(#mask-2)" x="0" y="0" width="20" height="20"></rect>
            </g>
        </g>
    </g>
</svg>