<?xml version="1.0" encoding="UTF-8"?>
<svg width="16px" height="16px" viewBox="0 0 16 16" version="1.1" xmlns="http://www.w3.org/2000/svg" xmlns:xlink="http://www.w3.org/1999/xlink">
    <!-- Generator: Sketch 54.1 (76490) - https://sketchapp.com -->
    <title>icon / 16 / info / users</title>
    <desc>Created with Sketch.</desc>
    <defs>
        <path d="M11.2489988,16 L0,16 L0,12.8724706 C0.00092145885,12.4883789 0.214307509,12.1434384 0.539142857,12.0009412 L3.74657143,10.5891765 C4.07198613,10.4464237 4.28549249,10.1005432 4.28571429,9.71576471 L4.28571429,8.88941176 C3.22764557,8.22268361 2.57409362,6.9865734 2.57142857,5.64705882 L2.57142857,3.76470588 C2.57142857,1.68551624 4.10645229,0 6,0 C6.62987667,0 7.22008201,0.186505431 7.72731186,0.511966626 C8.94487129,-0.178612148 10.4340896,-0.170557665 11.6453007,0.536098906 C12.8703296,1.25081722 13.6248171,2.57156009 13.6244994,4.00053904 L13.6244975,5.60221478 C13.6217667,6.86508601 13.0277354,8.0415281 12.0408307,8.7862413 L12.0416835,9.05694971 L15.0038733,10.2565517 C15.6051132,10.4992205 15.99959,11.0871908 16,11.7417913 L16,16 L11.2489988,16 Z M12,14.4000719 L14.416333,14.4000719 L14.4163331,11.7422976 L14.4154818,11.7419535 L11.4532946,10.5423526 C10.8531251,10.3001182 10.4588706,9.71374569 10.4571653,9.05871182 L10.4571653,7.89309059 L10.8548736,7.66251233 C11.5868565,7.23813264 12.0389905,6.4513351 12.0408324,5.60046717 L12.0408324,4.00035936 C12.041023,3.14286418 11.5883305,2.35041846 10.8533132,1.92158747 C10.2498241,1.56949399 9.53130688,1.50645372 8.88662383,1.73247736 C9.22962418,2.31868074 9.42857143,3.01618223 9.42857143,3.76470588 L9.42857143,5.64705882 C9.42590638,6.9865734 8.77235443,8.22268361 7.71428571,8.88941176 L7.71428571,9.71576471 C7.71520717,10.0998564 7.92859322,10.4447969 8.25342857,10.5872941 L11.4608571,11.9990588 C11.7862718,12.1418116 11.9997782,12.487692 12,12.8724706 L12,14.4000719 Z" id="path-1"></path>
    </defs>
    <g id="Symbols" stroke="none" stroke-width="1" fill="none" fill-rule="evenodd">
        <g id="left-bar" transform="translate(-16.000000, -239.000000)">
            <g id="Left-Bar">
                <g id="user" transform="translate(16.000000, 239.000000)">
                    <g id="icon-/-16-/-info-/-users">
                        <mask id="mask-2" fill="white">
                            <use xlink:href="#path-1"></use>
                        </mask>
                        <use id="Combined-Shape" fill="#000000" fill-rule="nonzero" xlink:href="#path-1"></use>
                        <rect id="Rectangle" fill="#8697A8" fill-rule="evenodd" mask="url(#mask-2)" x="0" y="0" width="16" height="16"></rect>
                    </g>
                </g>
            </g>
        </g>
    </g>
</svg>