<?xml version="1.0" encoding="UTF-8"?>
<svg width="16px" height="15px" viewBox="0 0 16 15" version="1.1" xmlns="http://www.w3.org/2000/svg" xmlns:xlink="http://www.w3.org/1999/xlink">
    <!-- Generator: Sketch 54.1 (76490) - https://sketchapp.com -->
    <title>icon / 16 / info / insight copy</title>
    <desc>Created with Sketch.</desc>
    <defs>
        <path d="M0,0 L6,0 L6,6 L0,6 L0,0 Z M0,9 L6,9 L6,15 L0,15 L0,9 Z M8,5.4 L8,3.4 L15.4,3.4 L15.4,5.4 L8,5.4 Z M9,2.4 C8.44771525,2.4 8,1.95228475 8,1.4 C8,0.84771525 8.44771525,0.4 9,0.4 L14.4,0.4 C14.9522847,0.4 15.4,0.84771525 15.4,1.4 C15.4,1.95228475 14.9522847,2.4 14.4,2.4 L9,2.4 Z M8,14.4 L8,12.4 L15.4,12.4 L15.4,14.4 L8,14.4 Z M9,11.4 C8.44771525,11.4 8,10.9522847 8,10.4 C8,9.84771525 8.44771525,9.4 9,9.4 L14.4,9.4 C14.9522847,9.4 15.4,9.84771525 15.4,10.4 C15.4,10.9522847 14.9522847,11.4 14.4,11.4 L9,11.4 Z" id="path-1"></path>
    </defs>
    <g id="Symbols" stroke="none" stroke-width="1" fill="none" fill-rule="evenodd">
        <g id="left-bar" transform="translate(-16.000000, -183.000000)">
            <g id="Left-Bar">
                <g id="client" transform="translate(16.000000, 183.000000)">
                    <g id="icon-/-16-/-info-/-customer">
                        <mask id="mask-2" fill="white">
                            <use xlink:href="#path-1"></use>
                        </mask>
                        <use id="Combined-Shape" fill="#000000" fill-rule="evenodd" xlink:href="#path-1"></use>
                        <rect id="Rectangle" fill="#8697A8" fill-rule="evenodd" mask="url(#mask-2)" x="0" y="0" width="16" height="16"></rect>
                    </g>
                </g>
            </g>
        </g>
    </g>
</svg>