<?xml version="1.0" encoding="UTF-8"?>
<svg width="24px" height="24px" viewBox="0 0 24 24" version="1.1" xmlns="http://www.w3.org/2000/svg" xmlns:xlink="http://www.w3.org/1999/xlink">
    <!-- Generator: sketchtool 56.2 (101010) - https://sketch.com -->
    <title>0822C602-CBD2-434B-BE36-75E64D95E68F</title>
    <desc>Created with sketchtool.</desc>
    <g id="employee-onboarding" stroke="none" stroke-width="1" fill="none" fill-rule="evenodd">
        <g id="BGV-Client-zomato-employee-profile" transform="translate(-588.000000, -295.000000)" fill="#8697A8">
            <g id="section" transform="translate(152.000000, 81.000000)">
                <g id="profile-info" transform="translate(207.000000, 39.000000)">
                    <g id="social-icon" transform="translate(149.000000, 175.000000)">
                        <path d="M92,24 C85.372583,24 80,18.627417 80,12 C80,5.372583 85.372583,0 92,0 C98.627417,0 104,5.372583 104,12 C104,18.627417 98.627417,24 92,24 Z M86.3895118,17.9965375 L87.9488825,17.9965375 C88.1640145,17.9965375 88.3383942,17.8059368 88.3383942,17.5708221 L88.3383942,10.1217391 C88.3383942,9.88660079 88.1640145,9.69604743 87.9488825,9.69604743 L86.3895118,9.69604743 C86.174358,9.69604743 86,9.88660079 86,10.1217391 L86,17.5708221 C86,17.805913 86.174358,17.9965375 86.3895118,17.9965375 Z M86.3895118,8.3864585 L87.9488825,8.3864585 C88.1640145,8.3864585 88.3383942,8.19588142 88.3383942,7.9607668 L88.3383942,6.44741502 C88.3383942,6.2123004 88.1640145,6.02172332 87.9488825,6.02172332 L86.3895118,6.02172332 C86.174358,6.02172332 86,6.2123004 86,6.44741502 L86,7.9607668 C86,8.19588142 86.174358,8.3864585 86.3895118,8.3864585 Z M97.4082893,10.5600474 C97.1891646,10.2448221 96.8660542,9.98558893 96.4388282,9.78239526 C96.0116022,9.57934387 95.5400217,9.47774704 95.0240651,9.47774704 C93.9766582,9.47774704 93.0891356,9.9146087 92.361519,10.788498 C92.2167378,10.9623794 92.111472,10.9243636 92.111472,10.6892253 L92.111472,10.1217391 C92.111472,9.88660079 91.9370705,9.69604743 91.7219385,9.69604743 L90.3289837,9.69604743 C90.11383,9.69604743 89.939472,9.88660079 89.939472,10.1217391 L89.939472,17.5708221 C89.939472,17.8059368 90.1138517,17.9965375 90.3289837,17.9965375 L91.8883544,17.9965375 C92.1035081,17.9965375 92.2778662,17.8059368 92.2778662,17.5708221 L92.2778662,14.9802213 C92.2778662,13.9009802 92.3374973,13.1612253 92.4567595,12.7610751 C92.5759783,12.3609249 92.7965787,12.0396047 93.1183436,11.7970672 C93.4401519,11.5545296 93.8034937,11.4332016 94.2085425,11.4332016 C94.5247523,11.4332016 94.7952405,11.5181028 95.0199638,11.6879289 C95.2446655,11.8577312 95.4069584,12.0955968 95.506821,12.4018577 C95.6067269,12.7080711 95.6566365,13.382585 95.6566365,14.4254941 L95.6566365,17.5707984 C95.6566365,17.805913 95.8309946,17.9965375 96.0461266,17.9965375 L97.6054973,17.9965375 C97.8206293,17.9965375 97.9949873,17.805913 97.9949873,17.5707984 L97.9949873,13.352253 C97.9949873,12.6065217 97.9519783,12.0335099 97.8660687,11.6333597 C97.7801591,11.2332095 97.6275443,10.8754387 97.4082893,10.5600474 Z" id="Combined-Shape"></path>
                    </g>
                </g>
            </g>
        </g>
    </g>
</svg>