<?xml version="1.0" encoding="UTF-8"?>
<svg width="32px" height="32px" viewBox="0 0 32 32" version="1.1" xmlns="http://www.w3.org/2000/svg" xmlns:xlink="http://www.w3.org/1999/xlink">
    <title>94B9BE86-AD38-44C7-9B67-82729634F4B1</title>
    <g id="attendance-configuration" stroke="none" stroke-width="1" fill="none" fill-rule="evenodd">
        <g id="orglevel_configuration_01-copy" transform="translate(-200.000000, -682.000000)">
            <g id="ID-verification" transform="translate(200.000000, 152.000000)">
                <g id="icon-/-32-/-info-/-edit-log" transform="translate(0.000000, 530.000000)">
                    <circle id="Oval" fill="#F3F7FD" cx="16" cy="16" r="16"></circle>
                    <g id="icon-/-48-/-info-/-verification-/-pan" transform="translate(8.000000, 8.000000)" fill="#0059B2" fill-rule="nonzero">
                        <g id="noun_Scanner-Face_459388" transform="translate(0.500000, 0.500000)">
                            <path d="M7.5,3.9 C5.625,3.9 4.3625,5.1625 4.3625,6.4 C6.575,6.0875 8.425,6.0875 10.6375,6.4 C10.6375,5.1625 9.375,3.9 7.5,3.9 Z M4.85,8.275 C4.0625,8.275 3.4375,8.9125 3.4375,9.6875 C3.4375,10.4625 4.0625,11.1 4.85,11.1 C5.625,11.1 6.25,10.4625 6.25,9.6875 C6.25,8.9125 5.625,8.275 4.85,8.275 Z M10.1625,8.275 C9.375,8.275 8.75,8.9125 8.75,9.6875 C8.75,10.4625 9.375,11.1 10.1625,11.1 C10.9375,11.1 11.5625,10.4625 11.5625,9.6875 C11.5625,8.9125 10.9375,8.275 10.1625,8.275 Z M2.5,-8.8817842e-16 L3.1125,-8.8817842e-16 C3.75,-8.8817842e-16 3.75,-8.8817842e-16 3.75,0.625 C3.75,1.25 3.75,1.25 3.1125,1.25 L2.5,1.25 C1.7125,1.25 1.25,1.7125 1.25,2.5 L1.25,3.1125 C1.25,3.75 1.25,3.75 0.625,3.75 C0,3.75 0,3.75 0,3.1125 L0,2.5 C0,0.8375 0.8375,-8.8817842e-16 2.5,-8.8817842e-16 Z M11.725,-8.8817842e-16 L12.5,-8.8817842e-16 C14.1625,-8.8817842e-16 15,0.8375 15,2.5 L15,3.1125 C15,3.75 15,3.75 14.375,3.75 C13.75,3.75 13.75,3.75 13.75,3.1125 L13.75,2.5 C13.75,1.7125 13.2875,1.25 12.5,1.25 L11.8875,1.25 C11.25,1.25 11.25,1.25 11.25,0.625 C11.25,-8.8817842e-16 11.25,-8.8817842e-16 11.725,-8.8817842e-16 Z M0.625,11.25 C1.25,11.25 1.25,11.25 1.25,11.8875 L1.25,12.5 C1.25,13.2875 1.7125,13.75 2.5,13.75 L3.1125,13.75 C3.75,13.75 3.75,13.75 3.75,14.375 C3.75,15 3.75,15 3.1125,15 L2.5,15 C0.8375,15 0,14.1625 0,12.5 L0,11.8875 C0,11.25 0,11.25 0.625,11.25 Z M14.375,11.25 C15,11.25 15,11.25 15,11.8875 L15,12.5 C15,14.1625 14.1625,15 12.5,15 L11.8875,15 C11.25,15 11.25,15 11.25,14.375 C11.25,13.75 11.25,13.75 11.8875,13.75 L12.5,13.75 C13.2875,13.75 13.75,13.2875 13.75,12.5 L13.75,11.8875 C13.75,11.25 13.75,11.25 14.375,11.25 Z" id="Shape" transform="translate(7.500000, 7.500000) scale(-1, 1) rotate(-180.000000) translate(-7.500000, -7.500000) "></path>
                        </g>
                    </g>
                </g>
            </g>
        </g>
    </g>
</svg>