<?xml version="1.0" encoding="UTF-8"?>
<svg width="8px" height="12px" viewBox="0 0 8 12" version="1.1" xmlns="http://www.w3.org/2000/svg" xmlns:xlink="http://www.w3.org/1999/xlink">
    <!-- Generator: Sketch 57.1 (83088) - https://sketch.com -->
    <title>prehired</title>
    <desc>Created with Sketch.</desc>
    <g id="Page-1" stroke="none" stroke-width="1" fill="none" fill-rule="evenodd">
        <g id="BGV-Client-zomato-employee-profile-red-case-Copy" transform="translate(-276.000000, -247.000000)">
            <g id="prehired" transform="translate(274.000000, 247.000000)">
                <rect id="Rectangle" x="0" y="0" width="12" height="12"></rect>
                <g id="sandglass-clock-" transform="translate(2.000000, 0.000000)" fill="#8697A8" fill-rule="nonzero">
                    <path d="M6.5968488,4.11230058 C7.48980314,3.32337175 8,2.196843 8,1.01474978 L8,0.436209996 C8,0.19512567 7.80172572,0 7.55773338,0 L0.442388664,0 C0.197956967,0 0,0.19512567 0,0.436209996 L0,1.01474978 C0,2.19686708 0.510318904,3.32339582 1.40283388,4.11230058 L1.98938209,4.63046095 C2.38485666,4.98009822 2.61168947,5.47866177 2.61334928,6.00272044 C2.61488705,6.52677912 2.39083686,7.02649825 1.99736383,7.37847077 L1.38503973,7.92566526 C0.503118249,8.71428113 0,9.83325041 0,11.0075434 L0,11.56379 C0,11.8047299 0.197956967,12 0.442388664,12 L7.55773338,12 C7.80172572,12 8,11.8047299 8,11.56379 L8,11.0075434 C8,9.83325041 7.49688175,8.71428113 6.61510673,7.92564119 L6.00266058,7.3784467 C5.60884582,7.02649825 5.38511295,6.52675505 5.38679717,6.00269637 C5.38833494,5.47863769 5.61526539,4.98007415 6.01064232,4.63043688 L6.5968488,4.11230058 Z M5.59456656,8.16316246 C6.35197774,8.58649247 6.82058167,9.37903252 6.82058167,10.2381392 L6.82058167,10.7089205 C6.82058167,10.8797548 6.68027875,11.0181363 6.50699928,11.0181363 L1.49300072,11.0181363 C1.31984329,11.0181363 1.17954038,10.8797548 1.17954038,10.7089205 L1.17954038,10.2381392 C1.17954038,9.37934549 1.6475829,8.58649247 2.4058484,8.16316246 L3.73157426,7.422359 C3.89809244,7.32950278 4.10234693,7.32950278 4.26888951,7.422359 L5.59456656,8.16316246 Z" id="Shape"></path>
                </g>
            </g>
        </g>
    </g>
</svg>