<?xml version="1.0" encoding="UTF-8"?>
<svg width="15px" height="24px" viewBox="0 0 15 24" version="1.1" xmlns="http://www.w3.org/2000/svg" xmlns:xlink="http://www.w3.org/1999/xlink">
    <title>icon / 24 / info / companyicon location</title>
    <defs>
        <path d="M7.48447205,0 C11.6459627,0 15,3.23091306 15,7.20972266 C15,11.457775 7.73291925,20.103459 7.73291925,21.7488314 C7.73291925,22.04799 7.23602484,22.04799 7.23602484,21.7488314 C7.23602484,20.103459 0,11.457775 0,7.20972266 C0,3.23091306 3.35403727,0 7.48447205,0 Z M8.35403727,21.1505142 C10.9006211,21.2701776 12.8571429,21.838579 12.8571429,22.5864755 C12.8571429,24.4711748 2.11180124,24.4711748 2.11180124,22.5864755 C2.11180124,21.838579 4.09937888,21.2701776 6.64596273,21.1505142 C6.77018634,21.4197569 6.86335404,21.629168 6.86335404,21.7488314 C6.86335404,22.5565597 8.13664596,22.5565597 8.13664596,21.7488314 C8.13664596,21.629168 8.19875776,21.4197569 8.35403727,21.1505142 Z M7.48597151,3.22468059 C10.0672135,3.22468059 12.1714868,5.25170761 12.1714868,7.71116707 C12.1714868,10.1976536 10.0672135,12.2246806 7.48597151,12.2246806 C4.93278653,12.2246806 2.8285132,10.1976536 2.8285132,7.71116707 C2.8285132,5.25170761 4.93278653,3.22468059 7.48597151,3.22468059 Z" id="path-1"></path>
    </defs>
    <g id="attendance-configuration" stroke="none" stroke-width="1" fill="none" fill-rule="evenodd">
        <g id="site_configuration_0001-location-pop-up-3" transform="translate(-426.000000, -660.000000)">
            <g id="employee-termination_alert" transform="translate(356.000000, 50.000000)">
                <g id="geofencing-slider" transform="translate(65.000000, 610.000000)">
                    <g id="Rectangle" transform="translate(5.000000, 0.000000)">
                        <mask id="mask-2" fill="white">
                            <use xlink:href="#path-1"></use>
                        </mask>
                        <use id="Mask" fill="#000000" xlink:href="#path-1"></use>
                        <rect fill="#8697A8" mask="url(#mask-2)" x="-5" y="0" width="24" height="24" rx="4"></rect>
                    </g>
                </g>
            </g>
        </g>
    </g>
</svg>