<?xml version="1.0" encoding="UTF-8"?>
<svg width="40px" height="40px" viewBox="0 0 40 40" version="1.1" xmlns="http://www.w3.org/2000/svg" xmlns:xlink="http://www.w3.org/1999/xlink">
    <!-- Generator: Sketch 55.2 (78181) - https://sketchapp.com -->
    <title>location</title>
    <desc>Created with Sketch.</desc>
    <g id="👽-GBV-Client" stroke="none" stroke-width="1" fill="none" fill-rule="evenodd">
        <g id="BGV-Client-zomato-add-employee-Basic-information_2" transform="translate(-744.000000, -903.000000)" fill-rule="nonzero">
            <g id="Basic-information" transform="translate(160.000000, 121.000000)">
                <g id="Group-3" transform="translate(584.000000, 782.000000)">
                    <g id="location">
                        <circle id="Oval" fill="#71B84F" cx="19.9914062" cy="20" r="19.9914062"></circle>
                        <path d="M0.924453125,14.0074219 C6.586875,12.8848437 13.3717969,14.1064844 20.3053906,21.3207031 C25.7201563,13.8589062 32.4225781,11.3660937 37.6888281,10.6892187 C38.1510938,11.5641406 38.5472656,12.4886719 38.8774219,13.4296094 C37.2760938,13.5946875 35.4932031,13.9248437 33.6442188,14.5686719 L39.8349219,17.4741406 C39.9339844,18.2996094 40,19.1415625 40,20 C40,20.2310937 40,20.4622656 39.9835156,20.676875 L30.3095313,16.1205469 L30.3590625,16.0214844 C26.5951563,18.0850781 22.7982031,21.6508594 19.7771094,27.6599219 C17.2513281,32.695 14.6925,36.12875 12.2657813,38.4234375 C11.3413281,38.0272656 10.4498438,37.5814844 9.59140625,37.0532031 C11.9521094,35.0226562 14.5604688,31.7044531 17.2348438,26.3722656 C17.6971094,25.43125 18.1923438,24.5563281 18.7040625,23.714375 C12.0346875,16.5332031 5.48078125,15.7573437 0.214609375,17.1605469 C0.363203125,16.0710156 0.61078125,14.9979687 0.941015625,13.974375 L0.924453125,14.0074219 Z" id="Path" fill="#FFD630"></path>
                        <path d="M20.2724219,22.0140625 L20.4870312,22.0140625 C20.5530469,21.716875 20.8502344,21.2051562 20.9988281,20.9245312 L22.6332031,17.5732812 C23.3760937,16.0710156 24.0859375,14.6017969 24.8288281,13.1160156 C25.6872656,11.3991406 25.8358594,9.73179687 24.8288281,7.981875 C24.0364062,6.59515625 22.3690625,5.45609375 20.7017187,5.45609375 C19.4635937,5.45609375 18.6051562,5.57164062 17.598125,6.24851562 C16.9047656,6.71078125 16.4095313,7.20601562 15.96375,7.94890625 C14.9071875,9.68226562 15.0557813,11.3826562 15.9307031,13.1325781 C16.0627344,13.3802344 20.1899219,21.6839844 20.2724219,22.030625 L20.2724219,22.0140625 L20.2724219,22.0140625 Z" id="Path" fill="#006775"></path>
                        <path d="M20.3219531,22.0140625 L20.4870313,22.0140625 C20.5530469,21.716875 20.8502344,21.2051562 20.9988281,20.9245312 L22.6332031,17.5732812 C23.3760937,16.0710156 24.0859375,14.6017969 24.8288281,13.1160156 C25.6872656,11.3991406 25.8358594,9.73179687 24.8288281,7.981875 C24.0364062,6.59515625 22.3690625,5.45609375 20.7017187,5.45609375 C20.5696875,5.45609375 20.4540625,5.45609375 20.3220312,5.45609375 C20.3219531,11.8117969 20.3219531,11.0854687 20.3219531,22.0140625 Z" id="Path" fill="#004F59"></path>
                        <circle id="Oval" fill="#E6E6E6" cx="20.3710937" cy="10.2765625" r="3.0703125"></circle>
                        <path d="M20.3219531,7.2059375 L20.3219531,13.3635937 L20.3714844,13.3635937 C22.071875,13.3635937 23.4420312,11.9933594 23.4420312,10.2930469 C23.4420312,8.59273438 22.0717969,7.2225 20.3714844,7.2225 L20.3219531,7.2225 L20.3219531,7.2059375 Z" id="Path" fill="#CCCCCC"></path>
                        <path d="M20.3714062,9.15390625 C20.99875,9.15390625 21.4939844,9.64914062 21.4939844,10.2764844 C21.4939844,10.9038281 20.99875,11.3990625 20.3714062,11.3990625 C19.760625,11.3990625 19.2488281,10.9038281 19.2488281,10.2764844 C19.2488281,9.64914062 19.7441406,9.15390625 20.3714062,9.15390625 Z" id="Path" fill="#FF873D"></path>
                        <path d="M20.3219531,9.15390625 L20.3219531,11.3990625 L20.3714844,11.3990625 C20.9988281,11.3990625 21.4940625,10.9038281 21.4940625,10.2764844 C21.4940625,9.64914063 20.9988281,9.15390625 20.3714844,9.15390625 L20.3219531,9.15390625 L20.3219531,9.15390625 Z" id="Path" fill="#E37936"></path>
                    </g>
                </g>
            </g>
        </g>
    </g>
</svg>