<?xml version="1.0" encoding="UTF-8"?>
<svg width="12px" height="12px" viewBox="0 0 12 12" version="1.1" xmlns="http://www.w3.org/2000/svg" xmlns:xlink="http://www.w3.org/1999/xlink">
    <!-- Generator: sketchtool 62 (101010) - https://sketch.com -->
    <title>03E39D70-C669-459C-AB0E-FE34C2C9ABC4</title>
    <desc>Created with sketchtool.</desc>
    <g id="🎭-all-employees_OA" stroke="none" stroke-width="1" fill="none" fill-rule="evenodd">
        <g id="re-initation-after-changing-info_01" transform="translate(-218.000000, -174.000000)">
            <g id="Driving_license" transform="translate(160.000000, 64.000000)">
                <g id="edit--copy" transform="translate(40.000000, 96.000000)">
                    <g id="lock" transform="translate(16.000000, 12.000000)">
                        <rect id="Rectangle" fill="#D8D8D8" opacity="0" x="0" y="0" width="16" height="16"></rect>
                        <g transform="translate(2.000000, 2.000000)" fill="#8697A8">
                            <rect id="Rectangle" opacity="0" x="0" y="0" width="12" height="12"></rect>
                            <path d="M1.93454039,3.6025641 L1.93454039,4.85897436 L1.8321727,4.85897436 C1.23259053,4.85897436 0.75,5.28205128 0.75,5.80769231 L0.75,11.0512821 C0.75,11.5769231 1.23259053,12 1.8321727,12 L10.1678273,12 C10.7674095,12 11.25,11.5769231 11.25,11.0512821 L11.25,5.80769231 C11.25,5.28205128 10.7674095,4.85897436 10.1678273,4.85897436 L10.1385794,4.85897436 L10.1385794,3.6025641 C10.1385794,1.61538462 8.295961,0 6.02924791,0 C3.77715877,0 1.93454039,1.61538462 1.93454039,3.6025641 Z M6.65807799,8.65384615 C6.57033426,8.70512821 6.55571031,8.75641026 6.55571031,8.84615385 C6.55571031,9.23076923 6.55571031,9.61538462 6.55571031,10 L6.55571031,10 C6.57033426,10.1538462 6.46796657,10.3205128 6.30710306,10.3846154 C5.92688022,10.5512821 5.54665738,10.3205128 5.54665738,10 C5.54665738,10 5.54665738,10 5.54665738,10 C5.54665738,9.61538462 5.54665738,9.23076923 5.54665738,8.84615385 C5.54665738,8.76923077 5.53203343,8.71794872 5.44428969,8.66666667 C5.0494429,8.41025641 4.9178273,7.97435897 5.10793872,7.58974359 C5.29805014,7.21794872 5.76601671,7 6.21935933,7.07692308 C6.71657382,7.16666667 7.05292479,7.51282051 7.06754875,7.94871795 C7.06754875,8.24358974 6.93593315,8.48717949 6.65807799,8.65384615 Z M3.73328691,3.6025641 C3.73328691,2.48717949 4.77158774,1.57692308 6.04387187,1.57692308 C7.31615599,1.57692308 8.35445682,2.48717949 8.35445682,3.6025641 L8.35445682,4.85897436 L3.73328691,4.85897436 L3.73328691,3.6025641 Z" id="Shape"></path>
                        </g>
                    </g>
                </g>
            </g>
        </g>
    </g>
</svg>