<?xml version="1.0" encoding="UTF-8"?>
<svg width="24px" height="24px" viewBox="0 0 24 24" version="1.1" xmlns="http://www.w3.org/2000/svg" xmlns:xlink="http://www.w3.org/1999/xlink">
    <!-- Generator: sketchtool 61.2 (101010) - https://sketch.com -->
    <title>F10C3D4A-8723-4352-B4CE-0001AB1BAD73</title>
    <desc>Created with sketchtool.</desc>
    <g id="🖥-Ops_analyst-" stroke="none" stroke-width="1" fill="none" fill-rule="evenodd">
        <g id="educationVerification_07A" transform="translate(-984.000000, -370.000000)">
            <g id="Group-5" transform="translate(984.000000, 370.000000)">
                <rect id="Rectangle" fill="#FFFFFF" x="0" y="0" width="24" height="24" rx="12"></rect>
                <path d="M8.18454039,9.10933148 L8.18454039,10.5424791 L8.0821727,10.5424791 C7.48259053,10.5424791 7,11.0250696 7,11.6246518 L7,17.6058496 C7,18.2054318 7.48259053,18.6880223 8.0821727,18.6880223 L16.4178273,18.6880223 C17.0174095,18.6880223 17.5,18.2054318 17.5,17.6058496 L17.5,11.6246518 C17.5,11.0250696 17.0174095,10.5424791 16.4178273,10.5424791 L16.3885794,10.5424791 L16.3885794,9.10933148 C16.3885794,6.84261838 14.545961,5 12.2792479,5 C10.0271588,5 8.18454039,6.84261838 8.18454039,9.10933148 Z M12.908078,14.8711699 C12.8203343,14.9296657 12.8057103,14.9881616 12.8057103,15.0905292 C12.8057103,15.5292479 12.8057103,15.9679666 12.8057103,16.4066852 L12.8057103,16.4066852 C12.8203343,16.5821727 12.7179666,16.7722841 12.5571031,16.8454039 C12.1768802,17.0355153 11.7966574,16.7722841 11.7966574,16.4066852 C11.7966574,16.4066852 11.7966574,16.4066852 11.7966574,16.4066852 C11.7966574,15.9679666 11.7966574,15.5292479 11.7966574,15.0905292 C11.7966574,15.0027855 11.7820334,14.9442897 11.6942897,14.8857939 C11.2994429,14.5933148 11.1678273,14.0961003 11.3579387,13.6573816 C11.5480501,13.2332869 12.0160167,12.9846797 12.4693593,13.0724234 C12.9665738,13.1747911 13.3029248,13.5696379 13.3175487,14.0668524 C13.3175487,14.4032033 13.1859331,14.6810585 12.908078,14.8711699 Z M9.98328691,9.10933148 C9.98328691,7.83704735 11.0215877,6.79874652 12.2938719,6.79874652 C13.566156,6.79874652 14.6044568,7.83704735 14.6044568,9.10933148 L14.6044568,10.5424791 L9.98328691,10.5424791 L9.98328691,9.10933148 Z" id="Shape" fill="#8697A8"></path>
            </g>
        </g>
    </g>
</svg>