<?xml version="1.0" encoding="UTF-8"?>
<svg width="24px" height="24px" viewBox="0 0 24 24" version="1.1" xmlns="http://www.w3.org/2000/svg" xmlns:xlink="http://www.w3.org/1999/xlink">
    <title>6E79DC7A-5E43-4586-9FCD-320583846956</title>
    <g id="⚙️-configuration" stroke="none" stroke-width="1" fill="none" fill-rule="evenodd">
        <g id="government-document-generation_EPF_01" transform="translate(-187.000000, -1395.000000)">
            <g id="form" transform="translate(135.000000, 255.000000)">
                <g id="address" transform="translate(40.000000, 96.000000)">
                    <g id="type-of-employees" transform="translate(0.000000, 1036.000000)">
                        <g id="locomotive" transform="translate(12.000000, 8.000000)">
                            <rect id="Rectangle" fill="#D8D8D8" opacity="0" x="0" y="0" width="24" height="24"></rect>
                            <g id="noun_wheelchair_2307146" transform="translate(3.555556, 1.777778)" fill="#7A94B9" fill-rule="nonzero">
                                <g id="Group" transform="translate(0.228571, 0.000000)">
                                    <path d="M11.8400508,14.5038222 C11.839746,14.507073 11.8392889,14.5103238 11.8389841,14.5135746 C11.8374603,14.5286603 11.8356825,14.5435937 11.8339556,14.5586286 C11.8311619,14.584127 11.828419,14.6095746 11.825219,14.6349714 C11.8232381,14.6509206 11.8209524,14.666819 11.818819,14.6827175 C11.8155175,14.7070476 11.8122159,14.7312254 11.8086095,14.755454 C11.8061206,14.7718095 11.8034286,14.7880635 11.8008889,14.8043683 C11.7970794,14.8280381 11.793219,14.8517079 11.7891048,14.8752762 C11.7862095,14.8916825 11.7831619,14.9080381 11.7801143,14.9243429 C11.7757968,14.9476571 11.771327,14.9709206 11.7667048,14.9940825 C11.763454,15.0104381 11.7599492,15.0267937 11.756546,15.0431492 C11.751619,15.0661079 11.7467429,15.0890667 11.7415111,15.1119238 C11.737854,15.1281778 11.7340444,15.1444825 11.7301841,15.1606857 C11.7248,15.1835429 11.7191619,15.2062984 11.713473,15.2291048 C11.7094603,15.2450032 11.7053968,15.2609016 11.7012317,15.2767492 C11.6951873,15.2997587 11.6889397,15.3226667 11.6825397,15.3455238 C11.6782222,15.3609143 11.6739556,15.3763556 11.6694857,15.391746 C11.662781,15.4149079 11.6558222,15.4379175 11.6489143,15.460927 C11.6442921,15.4758603 11.6397714,15.4908444 11.6351492,15.5056762 C11.6277333,15.5291429 11.6201143,15.5524571 11.6123937,15.5756698 C11.607619,15.5899429 11.602946,15.6042667 11.5981206,15.6184889 C11.5899429,15.6426159 11.5813587,15.6665397 11.5727746,15.6904127 C11.568,15.703619 11.5633778,15.7168762 11.5586032,15.7299302 C11.5491556,15.7555302 11.5393524,15.7808762 11.5295492,15.8062222 C11.5251302,15.8174984 11.5209143,15.8288762 11.5164952,15.8401016 C11.5049143,15.8692063 11.492927,15.8982095 11.4808889,15.9270095 C11.4778413,15.9343238 11.474946,15.9416889 11.4717968,15.9489524 C11.4407111,16.0222984 11.4078984,16.094781 11.3733587,16.1662984 C11.3723937,16.1683302 11.3713778,16.1703111 11.3704127,16.1722921 C11.3543111,16.2054603 11.337854,16.238527 11.3210921,16.2712889 C11.3168254,16.2795683 11.3124063,16.287746 11.3080889,16.2960254 C11.2943746,16.3223873 11.2806603,16.3486984 11.2665397,16.3747556 C11.2607492,16.3854222 11.2548063,16.3959873 11.2489143,16.4065524 C11.2359619,16.4301206 11.2229079,16.4536381 11.2095492,16.4769524 C11.2028952,16.4885841 11.1960889,16.5000127 11.1893841,16.5115429 C11.1764317,16.5337397 11.1634286,16.5558857 11.1502222,16.5778286 C11.1429587,16.5898159 11.1355429,16.6017016 11.1281778,16.6136381 C11.115073,16.634819 11.1019175,16.656 11.0886095,16.6770286 C11.0808381,16.6891683 11.0729651,16.7013587 11.0650921,16.7134476 C11.0516825,16.734019 11.0382222,16.7545905 11.0245079,16.7749587 C11.016381,16.7870984 11.0082032,16.7992381 10.9999238,16.8112762 C10.9861587,16.8313397 10.9723937,16.8513524 10.9583238,16.8712635 C10.9498921,16.8832508 10.9413079,16.8952381 10.9327238,16.9072254 C10.9185524,16.9269841 10.904127,16.9466413 10.8896,16.9662476 C10.8809651,16.9778794 10.8723302,16.9895111 10.8635937,17.0011429 C10.8487619,17.0208 10.8337778,17.0403048 10.8186921,17.0596571 C10.8099048,17.0709841 10.8011175,17.0822603 10.7922286,17.0934857 C10.7766857,17.1130921 10.7610413,17.1324952 10.7451937,17.1517968 C10.7364571,17.1625143 10.7277714,17.1732317 10.7189333,17.1838476 C10.702527,17.2036571 10.6858159,17.2232127 10.6691048,17.242819 C10.6606222,17.252673 10.6522413,17.2626794 10.6436571,17.2724825 C10.6258794,17.2929016 10.6078984,17.3130667 10.5898159,17.333181 C10.5819937,17.3418667 10.5742222,17.350654 10.5664,17.3592381 C10.5463873,17.381181 10.5262222,17.4027175 10.5059048,17.424254 C10.4996063,17.4309079 10.4935111,17.4376127 10.4872127,17.4442159 C10.4622222,17.4704254 10.4369778,17.4962286 10.4114286,17.5218286 C10.4096508,17.5236063 10.4079238,17.5254349 10.406146,17.5272127 C10.3504254,17.5829333 10.2933841,17.6372825 10.2351746,17.6903111 C10.2309079,17.6941206 10.2265397,17.6978794 10.2223238,17.7017397 C10.1979429,17.7238857 10.1732571,17.745727 10.1483683,17.7673651 C10.1404444,17.774273 10.132419,17.7809778 10.1244444,17.7877333 C10.1030095,17.8060698 10.0815238,17.8244063 10.0598857,17.8423873 C10.0500825,17.8504635 10.0401778,17.8583365 10.0303746,17.8664635 C10.0102603,17.882819 9.98999365,17.8992762 9.9696254,17.9154286 C9.95870476,17.9240635 9.94763175,17.9324952 9.93666032,17.9410794 C9.91700317,17.9562667 9.89739683,17.9715048 9.87748571,17.9864889 C9.86585397,17.9952254 9.85412063,18.0038603 9.8424381,18.012546 C9.82293333,18.0269206 9.80342857,18.0411937 9.78382222,18.0553651 C9.77153016,18.0642032 9.75913651,18.0728889 9.74679365,18.0815746 C9.72739048,18.0952381 9.70793651,18.1087492 9.68843175,18.1221079 C9.67563175,18.1308444 9.66283175,18.1394286 9.65003175,18.1480127 C9.63047619,18.1610667 9.61086984,18.1740698 9.59111111,18.1868698 C9.57810794,18.1953016 9.56505397,18.2036317 9.552,18.2119619 C9.53208889,18.2246095 9.51207619,18.237054 9.49191111,18.2494476 C9.47880635,18.2575238 9.4656,18.2656 9.45244444,18.2736254 C9.43217778,18.2858159 9.41175873,18.2979048 9.39133968,18.3097905 C9.37803175,18.3175619 9.3648254,18.3253333 9.35141587,18.3329524 C9.33069206,18.3447873 9.30981587,18.3564698 9.2888381,18.368 C9.27558095,18.3753143 9.2623746,18.3826286 9.24911746,18.3898413 C9.22753016,18.401473 9.20573968,18.4129016 9.184,18.4242794 C9.17114921,18.4309841 9.15834921,18.4377905 9.14539683,18.4443937 C9.12248889,18.4560762 9.09942857,18.467454 9.07631746,18.4788317 C9.06433016,18.484673 9.05239365,18.4907175 9.04030476,18.4965079 C9.01490794,18.5087492 8.98920635,18.5206349 8.96350476,18.5324698 C8.95365079,18.5369905 8.94379683,18.5417143 8.93389206,18.5461841 C8.90092698,18.5611175 8.86775873,18.5755937 8.8343873,18.5897651 C8.83159365,18.5909333 8.82890159,18.592254 8.82615873,18.5933714 C8.78948571,18.6089143 8.75266032,18.6240508 8.71553016,18.6386794 C8.70999365,18.6408635 8.70425397,18.642946 8.69866667,18.6451302 C8.66778413,18.657219 8.63664762,18.6691556 8.60546032,18.6806349 C8.59347302,18.685054 8.58133333,18.689219 8.56929524,18.6935365 C8.54430476,18.7024762 8.51936508,18.7114667 8.49417143,18.72 C8.47989841,18.7248762 8.46552381,18.7294984 8.45114921,18.7342222 C8.4279873,18.7418413 8.4047746,18.7495619 8.38140952,18.7568762 C8.36612063,18.7617016 8.35073016,18.7662222 8.33539048,18.7708952 C8.3128381,18.7777016 8.29028571,18.7845587 8.26763175,18.7910603 C8.25153016,18.7956825 8.23537778,18.8001016 8.2192254,18.8046222 C8.19713016,18.8107175 8.17498413,18.8168127 8.1527873,18.8226032 C8.13607619,18.8269714 8.11931429,18.8311873 8.10260317,18.8354032 C8.08071111,18.8408381 8.05881905,18.8463238 8.0368254,18.851454 C8.01970794,18.8555175 8.0024381,18.8593778 7.98521905,18.8632381 C7.96342857,18.8681651 7.9415873,18.8729397 7.91964444,18.8775111 C7.90222222,18.881219 7.88474921,18.8848254 7.86727619,18.8882794 C7.84533333,18.8926476 7.82333968,18.8968635 7.80134603,18.9009778 C7.78372063,18.9041778 7.76614603,18.9073778 7.74841905,18.910527 C7.72632381,18.9143365 7.70417778,18.9179937 7.68198095,18.9216 C7.66420317,18.9244444 7.64647619,18.9271873 7.62864762,18.9298286 C7.60634921,18.933181 7.58389841,18.9362794 7.56149841,18.939327 C7.54372063,18.9417143 7.52594286,18.9441524 7.50806349,18.9463873 C7.48540952,18.949181 7.46265397,18.9516698 7.43989841,18.9542095 C7.42217143,18.9561397 7.40449524,18.9581714 7.38671746,18.9598984 C7.36335238,18.9622349 7.33988571,18.9641651 7.31636825,18.966146 C7.29914921,18.967619 7.28193016,18.9692444 7.26466032,18.9705143 C7.23992381,18.9723429 7.21503492,18.9737651 7.19019683,18.9752381 C7.17404444,18.9762032 7.15794286,18.9773206 7.14179048,18.9781333 C7.11415873,18.979454 7.0864254,18.980419 7.05864127,18.9813333 C7.04507937,18.9817905 7.03161905,18.9824508 7.01805714,18.9828063 C6.97671111,18.9838222 6.93526349,18.9843302 6.89366349,18.9843302 C4.15293968,18.9843302 1.92325079,16.7546413 1.92325079,14.0139175 C1.92325079,13.5417397 1.98836825,13.079619 2.11545397,12.6369524 C2.27890794,12.0678095 2.54486349,11.5307175 2.90681905,11.0453841 C2.94471111,10.9945905 2.98366984,10.9446095 3.02344127,10.8953397 C3.03578413,10.8800508 3.04873651,10.8653206 3.06123175,10.8501841 C3.08901587,10.8166603 3.1168,10.7830857 3.14549841,10.7502222 C3.16154921,10.7318857 3.17820952,10.7141079 3.19451429,10.6960254 C3.22046984,10.6672254 3.2463746,10.6382222 3.27299048,10.6100825 C3.29107302,10.5908825 3.30976508,10.5721905 3.32815238,10.553346 C3.35385397,10.5269333 3.37940317,10.5006222 3.40566349,10.474819 C3.42521905,10.455619 3.44523175,10.4368762 3.46514286,10.417981 C3.49109841,10.3933968 3.51700317,10.3687111 3.54346667,10.3446349 C3.56419048,10.3257905 3.58526984,10.3073524 3.60629841,10.2888127 C3.63266032,10.2656 3.65902222,10.2424889 3.68584127,10.2198857 C3.70758095,10.2015492 3.7296254,10.1835683 3.75166984,10.1655873 C3.77859048,10.1435937 3.8056127,10.1218032 3.83299048,10.1003683 C3.85554286,10.0827429 3.87834921,10.0654222 3.90115556,10.0482032 C3.92868571,10.0273778 3.95641905,10.0068571 3.98440635,9.98659048 C4.00772063,9.96972698 4.0312381,9.95311746 4.05480635,9.93666032 C4.08304762,9.91695238 4.11149206,9.89754921 4.14013968,9.87845079 C4.16406349,9.86250159 4.1880381,9.84670476 4.21221587,9.83111111 C4.24121905,9.81246984 4.2704254,9.79423492 4.29983492,9.77620317 C4.32426667,9.76116825 4.34874921,9.74623492 4.37343492,9.73160635 C4.40325079,9.71398095 4.43337143,9.69686349 4.46354286,9.67984762 C4.48833016,9.66593016 4.51306667,9.65191111 4.53805714,9.6384 C4.5687873,9.62173968 4.59982222,9.60568889 4.63090794,9.58973968 C4.65589841,9.57688889 4.6807873,9.56388571 4.70603175,9.55144127 C4.73793016,9.53569524 4.77018413,9.52071111 4.8023873,9.50567619 C4.8272254,9.49404444 4.8519619,9.48226032 4.87700317,9.47108571 C4.91052698,9.45610159 4.94440635,9.44198095 4.97828571,9.42770794 C5.00246349,9.4176 5.02648889,9.40708571 5.05081905,9.39728254 C5.08703492,9.38275556 5.12360635,9.36919365 5.16012698,9.35558095 C5.18252698,9.3472 5.2047746,9.3383619 5.22732698,9.33033651 C5.23052698,9.32921905 5.23367619,9.32784762 5.23687619,9.32673016 L5.23687619,7.35146667 C2.2024127,8.10311111 0.0296126984,10.8595302 0.0296126984,14.0137651 C0.0296126984,17.7986032 3.1087746,20.8777143 6.8935619,20.8777143 C9.86626032,20.8777143 12.5358222,18.9194667 13.4346667,16.0984889 L12.8352508,15.4990222 L11.8400508,14.5038222 Z" id="Path"></path>
                                    <path d="M7.16388571,2.88949841 C7.94697143,2.88949841 8.5840254,2.25244444 8.5840254,1.46940952 C8.5840254,0.68632381 7.94697143,0.0492698413 7.16388571,0.0492698413 C6.3808,0.0492698413 5.74379683,0.68632381 5.74379683,1.46940952 C5.74379683,2.25244444 6.38085079,2.88949841 7.16388571,2.88949841 Z" id="Path"></path>
                                    <path d="M11.8976508,9.22311111 C11.8976508,8.86298413 11.6046222,8.57000635 11.2444952,8.57000635 L9.05737143,8.57000635 L9.05737143,9.68904127 L9.05737143,9.99014603 L11.8976508,9.99014603 L11.8976508,9.22311111 Z" id="Path"></path>
                                    <path d="M16.2154159,14.1930159 L12.8682159,10.8458159 C12.6731175,10.6507683 12.430527,10.5188571 12.1631492,10.4617651 C12.1537016,10.4628825 12.1441016,10.4634921 12.1343492,10.4634921 L8.82072381,10.4634921 L8.78709841,10.4634921 C8.65635556,10.4634921 8.5504,10.3575365 8.5504,10.2268444 L8.5504,9.6743619 L8.5504,6.20312381 C8.5504,5.42008889 7.91334603,4.78298413 7.13031111,4.78298413 C6.3472254,4.78298413 5.71017143,5.42008889 5.71017143,6.20312381 L5.71017143,7.05533968 L5.71017143,9.49688889 L5.71017143,11.883581 C5.71017143,12.6666159 6.3472254,13.3036698 7.13026032,13.3036698 L11.2114286,13.3036698 C11.2741587,13.3036698 11.3344,13.3286095 11.3787937,13.3730032 L14.2070857,16.2013968 C14.4753778,16.4696381 14.832,16.6172952 15.211327,16.6172952 C15.5907048,16.6172952 15.9472762,16.4696381 16.2155683,16.201346 C16.7691683,15.6476952 16.7691683,14.7467175 16.2154159,14.1930159 Z" id="Path"></path>
                                </g>
                            </g>
                        </g>
                    </g>
                </g>
            </g>
        </g>
    </g>
</svg>