<?xml version="1.0" encoding="UTF-8"?>
<svg width="32px" height="32px" viewBox="0 0 32 32" version="1.1" xmlns="http://www.w3.org/2000/svg" xmlns:xlink="http://www.w3.org/1999/xlink">
    <title>214FBC21-6F76-4FB2-B0CD-750DC023ABA6</title>
    <g id="attendance-configuration" stroke="none" stroke-width="1" fill="none" fill-rule="evenodd">
        <g id="orglevel_configuration_01-copy" transform="translate(-200.000000, -617.000000)">
            <g id="ID-verification" transform="translate(200.000000, 152.000000)">
                <g id="icon-/-32-/-info-/-edit-log" transform="translate(0.000000, 465.000000)">
                    <circle id="Oval" fill="#E5EEF7" cx="16" cy="16" r="16"></circle>
                    <g id="icon-/-48-/-info-/-verification-/-pan" transform="translate(8.000000, 8.000000)" fill="#0059B2">
                        <g id="noun_Log-Out_2432013" transform="translate(0.500000, 0.500000)">
                            <path d="M1.94108164,0 L12.9281545,0 C13.9955367,0 14.8690123,0.881170376 14.8690123,1.95795561 L14.8690123,2.76322923 L6.77061098,2.76322923 C5.19898195,2.76322923 3.91283904,4.06070235 3.91283904,5.64617655 L3.91283904,9.35382345 C3.91283904,10.9392977 5.19898195,12.2367708 6.77061098,12.2367708 L14.8690123,12.2367708 L14.8690123,13.0420444 C14.8690123,14.1188296 13.9955367,15 12.9281545,15 L1.94108164,15 C0.873251631,15 0,14.1188296 0,13.0420444 L0,1.95795561 C0,0.881170376 0.873251631,0 1.94108164,0 L1.94108164,0 Z M9.93178188,5.78193236 L5.08635488,5.78193236 L5.08635488,9.21806764 L9.93178188,9.21806764 L9.93178188,11.1188748 L15,7.5 L9.93178188,3.8811252 L9.93178188,5.78193236 L9.93178188,5.78193236 Z" id="Shape"></path>
                        </g>
                    </g>
                </g>
            </g>
        </g>
    </g>
</svg>