<?xml version="1.0" encoding="UTF-8"?>
<svg width="88px" height="57px" viewBox="0 0 88 57" version="1.1" xmlns="http://www.w3.org/2000/svg" xmlns:xlink="http://www.w3.org/1999/xlink">
    <!-- Generator: sketchtool 63.1 (101010) - https://sketch.com -->
    <title>CDE45832-B4B0-4DE0-9D21-9F9163617C8C</title>
    <desc>Created with sketchtool.</desc>
    <g id="🖥-Ops_analyst-" stroke="none" stroke-width="1" fill="none" fill-rule="evenodd">
        <g id="task-1" transform="translate(-186.000000, -787.000000)">
            <g id="address-verification" transform="translate(160.000000, 722.000000)">
                <g id="🖥-Ops_analyst-/-dashboard-/-task-card-/-menual-address-review" transform="translate(0.000000, 41.000000)">
                    <g id="PAN">
                        <g id="pan-cards" transform="translate(26.000000, 24.000000)">
                            <path d="M0.512012012,8.00065503 C0.512012012,3.58201527 4.10135911,0 8.51980537,0 L79.9096241,0 C84.3322062,0 87.9174174,3.58719818 87.9174174,8.00065503 L87.9174174,48.999345 C87.9174174,53.4179847 84.3280703,57 79.9096241,57 L8.51980537,57 C4.09722322,57 0.512012012,53.4128018 0.512012012,48.999345 L0.512012012,8.00065503 Z" id="Rectangle-Copy-13" fill="#0E6170"></path>
                            <path d="M11.312,19.168 C12.188,19.168 12.836,18.832 13.268,18.292 L13.268,19 L14.816,19 L14.816,13 L13.268,13 L13.268,13.708 C12.836,13.168 12.188,12.832 11.312,12.832 C9.716,12.832 8.396,14.212 8.396,16 C8.396,17.788 9.716,19.168 11.312,19.168 Z M11.6,17.692 C10.652,17.692 9.944,17.008 9.944,16 C9.944,14.992 10.652,14.308 11.6,14.308 C12.56,14.308 13.268,14.992 13.268,16 C13.268,17.008 12.56,17.692 11.6,17.692 Z M18.824,19.168 C19.7,19.168 20.336,18.844 20.768,18.292 L20.768,19 L22.316,19 L22.316,10.6 L20.768,10.6 L20.768,13.708 C20.336,13.156 19.7,12.832 18.824,12.832 C17.216,12.832 15.896,14.212 15.896,16 C15.896,17.788 17.216,19.168 18.824,19.168 Z M19.112,17.692 C18.152,17.692 17.444,17.008 17.444,16 C17.444,14.992 18.152,14.308 19.112,14.308 C20.06,14.308 20.768,14.992 20.768,16 C20.768,17.008 20.06,17.692 19.112,17.692 Z M26.336,19.168 C27.212,19.168 27.848,18.844 28.28,18.292 L28.28,19 L29.828,19 L29.828,10.6 L28.28,10.6 L28.28,13.708 C27.848,13.156 27.212,12.832 26.336,12.832 C24.728,12.832 23.408,14.212 23.408,16 C23.408,17.788 24.728,19.168 26.336,19.168 Z M26.624,17.692 C25.664,17.692 24.956,17.008 24.956,16 C24.956,14.992 25.664,14.308 26.624,14.308 C27.572,14.308 28.28,14.992 28.28,16 C28.28,17.008 27.572,17.692 26.624,17.692 Z M32.792,19 L32.792,16.132 C32.792,14.872 33.812,14.512 34.616,14.608 L34.616,12.88 C33.86,12.88 33.104,13.216 32.792,14.032 L32.792,13 L31.244,13 L31.244,19 L32.792,19 Z M38.264,19.168 C39.416,19.168 40.316,18.7 40.88,17.884 L39.632,17.164 C39.368,17.512 38.888,17.764 38.288,17.764 C37.472,17.764 36.812,17.428 36.596,16.636 L41.12,16.636 C41.156,16.432 41.18,16.228 41.18,16 C41.18,14.236 39.92,12.832 38.144,12.832 C36.26,12.832 34.976,14.212 34.976,16 C34.976,17.788 36.248,19.168 38.264,19.168 Z M39.632,15.436 L36.572,15.436 C36.752,14.668 37.316,14.224 38.144,14.224 C38.792,14.224 39.44,14.572 39.632,15.436 Z M44.132,19.168 C45.416,19.168 46.544,18.544 46.544,17.248 C46.544,15.04 43.448,15.592 43.448,14.704 C43.448,14.38 43.76,14.212 44.144,14.212 C44.588,14.212 44.924,14.44 45.104,14.824 L46.424,14.104 C45.956,13.276 45.116,12.832 44.144,12.832 C42.908,12.832 41.864,13.516 41.864,14.74 C41.864,16.852 44.96,16.372 44.96,17.248 C44.96,17.596 44.624,17.764 44.132,17.764 C43.532,17.764 43.124,17.476 42.956,16.984 L41.612,17.74 C42.044,18.664 42.932,19.168 44.132,19.168 Z M49.34,19.168 C50.624,19.168 51.752,18.544 51.752,17.248 C51.752,15.04 48.656,15.592 48.656,14.704 C48.656,14.38 48.968,14.212 49.352,14.212 C49.796,14.212 50.132,14.44 50.312,14.824 L51.632,14.104 C51.164,13.276 50.324,12.832 49.352,12.832 C48.116,12.832 47.072,13.516 47.072,14.74 C47.072,16.852 50.168,16.372 50.168,17.248 C50.168,17.596 49.832,17.764 49.34,17.764 C48.74,17.764 48.332,17.476 48.164,16.984 L46.82,17.74 C47.252,18.664 48.14,19.168 49.34,19.168 Z M10.256,33 L10.256,30.132 C10.256,28.872 11.276,28.512 12.08,28.608 L12.08,26.88 C11.324,26.88 10.568,27.216 10.256,28.032 L10.256,27 L8.708,27 L8.708,33 L10.256,33 Z M15.728,33.168 C16.88,33.168 17.78,32.7 18.344,31.884 L17.096,31.164 C16.832,31.512 16.352,31.764 15.752,31.764 C14.936,31.764 14.276,31.428 14.06,30.636 L18.584,30.636 C18.62,30.432 18.644,30.228 18.644,30 C18.644,28.236 17.384,26.832 15.608,26.832 C13.724,26.832 12.44,28.212 12.44,30 C12.44,31.788 13.712,33.168 15.728,33.168 Z M17.096,29.436 L14.036,29.436 C14.216,28.668 14.78,28.224 15.608,28.224 C16.256,28.224 16.904,28.572 17.096,29.436 Z M22.856,33 L25.136,27 L23.432,27 L21.968,31.2 L20.516,27 L18.812,27 L21.092,33 L22.856,33 Z M26.648,26.28 C27.176,26.28 27.608,25.848 27.608,25.332 C27.608,24.816 27.176,24.372 26.648,24.372 C26.132,24.372 25.7,24.816 25.7,25.332 C25.7,25.848 26.132,26.28 26.648,26.28 Z M27.428,33 L27.428,27 L25.88,27 L25.88,33 L27.428,33 Z M31.82,33.168 C32.972,33.168 33.872,32.7 34.436,31.884 L33.188,31.164 C32.924,31.512 32.444,31.764 31.844,31.764 C31.028,31.764 30.368,31.428 30.152,30.636 L34.676,30.636 C34.712,30.432 34.736,30.228 34.736,30 C34.736,28.236 33.476,26.832 31.7,26.832 C29.816,26.832 28.532,28.212 28.532,30 C28.532,31.788 29.804,33.168 31.82,33.168 Z M33.188,29.436 L30.128,29.436 C30.308,28.668 30.872,28.224 31.7,28.224 C32.348,28.224 32.996,28.572 33.188,29.436 Z M38.384,33 L39.488,29.364 L40.592,33 L42.068,33 L43.976,27 L42.332,27 L41.312,30.696 L40.22,27 L38.756,27 L37.664,30.684 L36.644,27 L35,27 L36.908,33 L38.384,33 Z" id="addressreview" fill="#FFFFFF" fill-rule="nonzero"></path>
                            <g id="Group-25" transform="translate(54.620120, 23.400000)">
                                <rect id="Rectangle" fill="#D8D8D8" opacity="0" x="0" y="0" width="24" height="24"></rect>
                                <g id="noun_Star_2801184" transform="translate(5.000000, 2.000000)" fill="#262D33" opacity="0.50155785">
                                    <g id="Group">
                                        <path d="M11.3069167,1.7117585 C9.10857871,-0.545083601 5.36785849,-0.574557285 3.12963134,1.64860061 L3.02769228,1.74965324 C1.45428508,3.3117585 1.03323245,5.62754798 1.95954824,7.60228482 L6.79092178,17.9111018 C6.90810837,18.1611456 7.20580745,18.2688477 7.45585127,18.1516611 C7.5648659,18.1005698 7.65178539,18.0118595 7.7006431,17.9018258 L12.3617643,7.40439008 L12.3617643,7.40439008 C12.6587172,6.7349164 12.8049776,6.0317585 12.8049776,5.33281114 C12.8005455,4.01912693 12.286418,2.71807429 11.3069167,1.7117585 Z M9.45871721,8.72649535 L7.13627954,7.56860061 L4.81384187,8.72649535 L5.25705516,6.2717585 L3.38226292,4.53281114 L5.9750607,4.1749164 L7.13627954,1.94333745 L8.29749837,4.1749164 L10.8902962,4.53281114 L9.01107178,6.2717585 L9.45871721,8.72649535 Z" id="Shape"></path>
                                        <path d="M4.80691814,15.3977999 L5.16794631,16.0636227 C2.5954913,16.345358 0.736842105,17.1924007 0.736842105,18.0654505 C0.736842105,19.1349649 3.52612625,20.1654505 7,20.1654505 C10.4738738,20.1654505 13.2631579,19.1349649 13.2631579,18.0654505 C13.2631579,17.2461218 11.6262067,16.4496981 9.29854907,16.1219261 L9.57997513,15.4511898 C12.163393,15.8416197 14,16.8154872 14,18.0654505 C14,19.7021313 10.8511661,20.8654505 7,20.8654505 C3.14883391,20.8654505 0,19.7021313 0,18.0654505 C0,16.753944 2.02191393,15.7463901 4.80691814,15.3977999 Z" id="Combined-Shape"></path>
                                    </g>
                                </g>
                            </g>
                        </g>
                    </g>
                </g>
            </g>
        </g>
    </g>
</svg>