<?xml version="1.0" encoding="UTF-8"?>
<svg width="40px" height="40px" viewBox="0 0 40 40" version="1.1" xmlns="http://www.w3.org/2000/svg" xmlns:xlink="http://www.w3.org/1999/xlink">
    <title>EFA09AD8-FB14-4530-A1D7-9FC85D3D1E35</title>
    <g id="profille_view-mode" stroke="none" stroke-width="1" fill="none" fill-rule="evenodd">
        <g id="attendance-_profile_04" transform="translate(-744.000000, -685.000000)">
            <g id="Group-29" transform="translate(160.000000, 446.000000)">
                <g id="Group-7" transform="translate(40.000000, 105.000000)">
                    <g id="Group-34" transform="translate(0.000000, 134.000000)">
                        <g id="father" transform="translate(544.000000, 0.000000)">
                            <circle id="Oval" fill="#E5EEF7" opacity="0.5" cx="20" cy="20" r="20"></circle>
                            <g id="noun_get-love_1316340" transform="translate(12.000000, 9.000000)" fill="#0059B2" fill-rule="nonzero">
                                <g id="Group">
                                    <path d="M0.498064516,10.0258065 C0.443870968,10.0258065 0.387096774,10.0464516 0.345806452,10.0877419 C0.32,10.1135484 0.286451613,10.16 0.283870968,10.2270968 L0.203870968,12.7587097 L0.387096774,14.5083871 C0.433548387,14.9496774 0.632258065,15.3651613 0.947096774,15.68 L2.52129032,17.2516129 C2.84645161,17.5793548 3.05548387,17.9922581 3.12516129,18.4516129 L3.13548387,18.5264516 L6.13935484,18.4929032 L6.10580645,17.0012903 C6.10064516,16.7509677 6,16.516129 5.82451613,16.3406452 L4.89548387,15.4116129 C4.75354839,15.2696774 4.57290323,15.1767742 4.37419355,15.1406452 L4.07483871,15.0890323 C3.85548387,15.0529032 3.65677419,14.9496774 3.49935484,14.7896774 L2.2683871,13.5587097 C2.18580645,13.4787097 2.08,13.4348387 1.96387097,13.4348387 C1.85032258,13.4348387 1.74193548,13.4787097 1.66193548,13.5587097 C1.49677419,13.7264516 1.49677419,13.9974194 1.66193548,14.1651613 L3.28774194,15.7883871 C3.3883871,15.8890323 3.3883871,16.0516129 3.28774194,16.1522581 C3.18709677,16.2529032 3.02193548,16.2529032 2.92129032,16.1522581 L1.29806452,14.5290323 C0.929032258,14.16 0.929032258,13.5612903 1.29806452,13.1948387 C1.34451613,13.1483871 1.39612903,13.1070968 1.45032258,13.0709677 L1.22580645,12.16 C1.22064516,12.1470968 1.22322581,12.1367742 1.22322581,12.123871 C1.22322581,12.1109677 1.21806452,12.1006452 1.21806452,12.0903226 L1.25935484,10.836129 C1.27225806,10.4025806 0.931612903,10.0387097 0.498064516,10.0258065 Z" id="Path"></path>
                                    <path d="M3.00645161,22.1935484 L6.35870968,22.1574194 C6.67096774,22.1548387 6.92129032,21.8993548 6.91872945,21.5870968 L6.89548387,19.5664516 C6.89290323,19.2593548 6.64,19.0090323 6.33032258,19.0090323 L2.97290323,19.0451613 C2.66322581,19.0477419 2.41290323,19.3032258 2.4154641,19.6154839 L2.43612903,21.6335484 C2.44129032,21.9432258 2.69419355,22.1935484 3.00129032,22.1935484 L3.00129032,22.3948387 L3.00645161,22.1935484 Z" id="Path"></path>
                                    <path d="M13.0270968,19.0451613 L9.67483871,19.0090323 C9.36,19.0090323 9.10709677,19.2593548 9.10451613,19.5664516 L9.08127055,21.5870968 C9.07870968,21.8993548 9.32903226,22.1548387 9.64129032,22.1574194 L12.9935484,22.1935484 L12.9987097,22.3948387 L12.9987097,22.1935484 C13.3058065,22.1935484 13.5587097,21.9432258 13.563871,21.6335484 L13.5845359,19.6154839 C13.5870968,19.3032258 13.3367742,19.0477419 13.0270968,19.0451613 Z" id="Path"></path>
                                    <path d="M15.6129032,14.5083871 L15.796129,12.7612903 L15.716129,10.2270968 C15.7135484,10.16 15.68,10.1135484 15.6541935,10.0877419 C15.6129032,10.0464516 15.556129,10.0180645 15.4993548,10.0258065 C15.0683871,10.0387097 14.7277419,10.4025806 14.7432258,10.836129 L14.7819355,12.0903226 C14.7819355,12.1006452 14.7767742,12.1109677 14.7767742,12.123871 C14.7767742,12.1367742 14.7793548,12.1470968 14.7741935,12.16 L14.5496774,13.0709677 C14.603871,13.1070968 14.6554839,13.1483871 14.7019355,13.1948387 C15.0709677,13.5612903 15.0709677,14.16 14.7019355,14.5290323 L13.0787097,16.1522581 C12.9780645,16.2529032 12.8129032,16.2529032 12.7122581,16.1522581 C12.6116129,16.0516129 12.6116129,15.8890323 12.7122581,15.7883871 L14.3380645,14.1651613 C14.5032258,13.9974194 14.5032258,13.7264516 14.3380645,13.5587097 C14.2580645,13.4787097 14.1496774,13.4348387 14.036129,13.4348387 C13.92,13.4348387 13.8141935,13.4787097 13.7316129,13.5587097 L12.5006452,14.7896774 C12.3432258,14.9496774 12.1445161,15.0529032 11.9251613,15.0890323 L11.6206452,15.1432258 C11.4245161,15.1767742 11.2490323,15.2670968 11.1070968,15.4090323 L10.1754839,16.3406452 C10,16.516129 9.89935484,16.7509677 9.89419355,16.9987097 L9.86064516,18.4929032 L12.8645161,18.5264516 L12.8748387,18.4516129 C12.9445161,17.9922581 13.1535484,17.5793548 13.4787097,17.2516129 L15.0529032,15.68 C15.3677419,15.3651613 15.5664516,14.9496774 15.6129032,14.5083871 Z" id="Path"></path>
                                    <path d="M14.4877419,1.31096774 C13.6412903,0.464516129 12.516129,0 11.3212903,0 C10.1393548,0 9.02193548,0.456774194 8.18064516,1.28774194 C8.08,1.3883871 7.91741935,1.3883871 7.81935484,1.28774194 C6.97548387,0.456774194 5.85806452,0 4.67612903,0 C3.48129032,0 2.35870968,0.467096774 1.51225806,1.31096774 C-0.219354839,3.04258065 -0.229677419,5.87096774 1.48903226,7.61548387 L1.50967742,7.63870968 L7.61290323,13.7419355 C7.71612903,13.8451613 7.85290323,13.9019355 8,13.9019355 C8.14451613,13.9019355 8.28129032,13.8451613 8.38451613,13.7419355 L14.4877419,7.64129032 L14.6941935,7.79870968 L14.5109677,7.61806452 C15.3393548,6.77677419 15.796129,5.65935484 15.796129,4.47483871 C15.796129,3.28 15.3316129,2.15483871 14.4877419,1.31096774 Z" id="Path"></path>
                                </g>
                            </g>
                        </g>
                    </g>
                </g>
            </g>
        </g>
    </g>
</svg>