<?xml version="1.0" encoding="UTF-8"?>
<svg width="32px" height="32px" viewBox="0 0 32 32" version="1.1" xmlns="http://www.w3.org/2000/svg" xmlns:xlink="http://www.w3.org/1999/xlink">
    <title>morning shift</title>
    <g id="inprogress" stroke="none" stroke-width="1" fill="none" fill-rule="evenodd">
        <g id="roster_01A" transform="translate(-176.000000, -298.000000)">
            <g id="Group-10" transform="translate(176.000000, 246.000000)">
                <g id="morning-shift" transform="translate(0.000000, 52.000000)">
                    <rect id="Rectangle" fill="#3E97DF" opacity="0.100000001" x="0" y="0" width="32" height="32" rx="16"></rect>
                    <g id="Group" transform="translate(7.000000, 10.000000)" fill="#5697D9">
                        <path d="M5.67312439,2.89061185 L5.67608047,2.89061185 C6.57145596,2.89274547 7.39999021,3.33645129 7.94885845,4.06542802 C6.77269113,4.72575841 5.95837095,5.97047004 5.86761198,7.44015453 C5.86479693,7.44014095 5.86233445,7.44015453 5.85956208,7.44015453 C5.09732759,7.44015453 4.43233299,7.81862974 3.98739656,8.39187543 C3.22642169,7.8234847 2.75950967,6.91714591 2.75816561,5.93371746 L2.75816561,5.93371746 C2.75816561,4.25118103 4.06096515,2.89127328 5.67315334,2.89139159 L5.67312439,2.89061185 Z" id="Path" stroke="#E9F4FC" stroke-width="0.5"></path>
                        <path d="M5.85917425,7.43976659 C4.51578006,7.43976659 3.44163062,8.58222737 3.42251441,9.98161099 C3.41154872,10.7997692 4.1079832,11.1942621 4.1079832,11.1942621 L4.15002043,11.217953 L17.524607,11.1870019 L17.5765101,11.0796323 C17.7422437,10.7349401 17.8283524,10.3542963 17.8283524,9.96862112 C17.8283524,8.60337349 16.7642926,7.49295 15.4568858,7.49287629 C15.3694689,7.49287629 15.2833676,7.5051931 15.1969992,7.51541315 C14.8022406,6.82825733 14.1869394,6.31306746 13.4556885,6.06626379 C12.8286278,4.54718211 11.4043045,3.54910345 9.81404981,3.54812586 C7.70814687,3.55010431 5.99197751,5.26895884 5.85917425,7.43976659 Z" id="Path"></path>
                        <path d="M5.65521588,1.30467103 C5.55186334,1.30467103 5.46808061,1.39225126 5.46806839,1.50028138 L5.46806839,2.21894593 C5.46806839,2.32697893 5.55186059,2.41456364 5.65521588,2.41456364 L5.69103272,2.41456364 C5.79438801,2.41456364 5.87817189,2.32697893 5.87818021,2.21894593 L5.87818021,1.50028138 C5.87816799,1.39225126 5.79438525,1.30467103 5.69103272,1.30467103 L5.65521588,1.30467103 Z" id="Path"></path>
                        <path d="M5.65521588,0.0649086207 C5.55186342,0.0649086207 5.46808071,0.152488723 5.46806839,0.260518772 L5.46806839,1.04563726 C5.46808061,1.15366739 5.55186334,1.24124761 5.65521588,1.24124761 L5.69103272,1.24124761 C5.79438525,1.24124761 5.87816799,1.15366739 5.87818021,1.04563726 L5.87818021,0.260518772 C5.87816789,0.152488723 5.79438518,0.0649086207 5.69103272,0.0649086207 L5.65521588,0.0649086207 Z" id="Path"></path>
                        <path d="M3.14193118,8.35097392 C3.09336566,8.35168164 3.04696532,8.37209562 3.01253363,8.4079028 L2.52566573,8.91604784 C2.49047245,8.95274914 2.47069423,9.0025777 2.47069423,9.05454116 C2.47069423,9.10650463 2.49047245,9.15633318 2.52566573,9.19303448 L2.55089208,9.21940409 C2.62397688,9.29576222 2.74243586,9.29576222 2.81552066,9.21940409 L3.30238874,8.71125905 C3.3375826,8.67455768 3.35736117,8.6247287 3.35736117,8.57276476 C3.35736117,8.52080083 3.3375826,8.47097185 3.30238874,8.43427047 L3.27680332,8.4079028 C3.2410276,8.37069582 3.19239283,8.35016732 3.14193118,8.35097392 L3.14193118,8.35097392 Z" id="Path"></path>
                        <path d="M2.3469339,9.18081078 C2.29836943,9.18151643 2.25196924,9.20192756 2.21753635,9.2377319 L1.68571095,9.79286315 C1.65051539,9.82956476 1.63073573,9.87939498 1.63073573,9.93136034 C1.63073573,9.98332571 1.65051539,10.0331559 1.68571095,10.0698575 L1.71093043,10.0962252 C1.78401604,10.1725882 1.90248045,10.1725882 1.97556606,10.0962252 L2.50739146,9.54108815 C2.58044781,9.46469483 2.58044781,9.34086918 2.50739146,9.26447586 L2.48217198,9.2377319 C2.44630599,9.20043185 2.39752071,9.17989834 2.3469339,9.18081078 L2.3469339,9.18081078 Z" id="Path"></path>
                        <path d="M1.42656402,5.71896853 C1.32320859,5.71896853 1.23941654,5.80655348 1.23941654,5.91458664 L1.23941654,5.9520472 C1.23942977,6.06007656 1.32321221,6.1476468 1.42656402,6.1476556 L2.11519485,6.1476556 C2.21854397,6.14764284 2.30232223,6.06007376 2.30233546,5.9520472 L2.30233546,5.91458664 C2.30233546,5.80655629 2.21854759,5.7189813 2.11519485,5.71896853 L1.42656402,5.71896853 Z" id="Path"></path>
                        <path d="M0.239004371,5.71896853 C0.135648869,5.71896853 0.051856701,5.80655341 0.051856701,5.91458664 L0.051856701,5.9520472 C0.0518699399,6.06007664 0.135652492,6.14764691 0.239004371,6.1476556 L0.991232722,6.1476556 C1.09458453,6.1476468 1.17836697,6.06007656 1.17838021,5.9520472 L1.17838021,5.91458664 C1.17838021,5.80655348 1.09458815,5.71896853 0.991232722,5.71896853 L0.239004371,5.71896853 Z" id="Path"></path>
                        <path d="M2.68028276,2.58993233 C2.63172068,2.59063983 2.58532327,2.61105083 2.55089208,2.64685345 L2.52566573,2.67359741 C2.45260939,2.74999073 2.45260939,2.87381638 2.52566573,2.9502097 L3.01253363,3.45873103 C3.08557713,3.53483952 3.20375982,3.53483952 3.27680332,3.45873103 L3.30238874,3.43197155 C3.3754352,3.35558001 3.3754352,3.23176633 3.30238874,3.15537478 L2.81552066,2.64685345 C2.77965471,2.60955345 2.73086952,2.58901995 2.68028276,2.58993233 Z" id="Path"></path>
                        <path d="M1.84032798,1.71308793 C1.79170978,1.7138995 1.74530215,1.73445651 1.71093043,1.77040668 L1.68571095,1.79677494 C1.65051738,1.83347627 1.63073898,1.88330504 1.63073898,1.93526874 C1.63073898,1.98723244 1.65051738,2.03706121 1.68571095,2.07376254 L2.21753635,2.62889224 C2.29057985,2.70500073 2.40876254,2.70500073 2.48180604,2.62889224 L2.50739146,2.60215603 C2.58045226,2.52576192 2.58045226,2.40193089 2.50739146,2.32553677 L1.97556606,1.77040668 C1.93976329,1.73296093 1.89097014,1.71228064 1.84032798,1.71308793 L1.84032798,1.71308793 Z" id="Path"></path>
                    </g>
                </g>
            </g>
        </g>
    </g>
</svg>