<?xml version="1.0" encoding="UTF-8"?>
<svg width="36px" height="36px" viewBox="0 0 36 36" version="1.1" xmlns="http://www.w3.org/2000/svg" xmlns:xlink="http://www.w3.org/1999/xlink">
    <title>609F1430-9551-4EDE-B103-85FA468120DA</title>
    <g id="profille_view-mode" stroke="none" stroke-width="1" fill="none" fill-rule="evenodd">
        <g id="attendance-_profile_04" transform="translate(-471.000000, -685.000000)">
            <g id="Group-29" transform="translate(160.000000, 446.000000)">
                <g id="Group-7" transform="translate(40.000000, 105.000000)">
                    <g id="Group-34" transform="translate(0.000000, 134.000000)">
                        <g id="mother" transform="translate(271.000000, 0.000000)">
                            <circle id="Oval" fill="#F3F7FD" cx="18" cy="18" r="18"></circle>
                            <path d="M15.0101219,13.6253528 C15.0011654,13.6345815 14.9978399,13.6479016 15.0014076,13.6602572 C15.0049753,13.6726128 15.0148893,13.6821099 15.0273867,13.6851438 C15.0398841,13.6881777 15.0530491,13.6842834 15.0618848,13.6749389 C15.364901,13.3582999 15.8670468,13.3467044 16.1843558,13.6490189 C16.1986492,13.6627117 16.2213364,13.6622248 16.2350293,13.6479315 C16.2487221,13.6336381 16.2493226,13.5588048 16.2350293,13.5451119 C15.8891138,13.2154607 15.3318313,13.2450698 15.0014076,13.5902474 L15.0101219,13.6253528 Z" id="Path" fill="#0059B2" fill-rule="nonzero"></path>
                            <path d="M20.3710318,13.6837961 C20.3845059,13.6982969 20.4071841,13.6991292 20.4216849,13.6856551 C20.4361857,13.672181 20.4351591,13.6044042 20.4216849,13.5899034 C20.096568,13.2406575 19.550104,13.2244367 19.2001199,13.5487588 C19.1856191,13.5622335 19.1866452,13.6260567 19.2001199,13.6405575 C19.2135946,13.6550584 19.2362732,13.6558902 19.2507741,13.6424155 C19.5717315,13.3449729 20.0728953,13.3634852 20.3710318,13.6837961 Z" id="Path" fill="#0059B2" fill-rule="nonzero"></path>
                            <circle id="Oval" fill="#0059B2" transform="translate(15.816258, 14.138108) scale(1, -1) translate(-15.816258, -14.138108) " cx="15.8162584" cy="14.1381081" r="1"></circle>
                            <circle id="Oval-Copy" fill="#0059B2" transform="translate(19.816258, 14.138108) scale(1, -1) translate(-19.816258, -14.138108) " cx="19.8162584" cy="14.1381081" r="1"></circle>
                            <g id="Group-41" transform="translate(9.000000, 6.000000)" fill="#0059B2" fill-rule="nonzero">
                                <path d="M11.5267914,14.9445417 C11.4519499,14.9249991 11.3997647,14.8573581 11.3998526,14.7800072 L11.3998526,13.1339124 C12.5915259,12.3552 13.335605,11.0505612 13.3991431,9.62843563 L13.4123897,9.62843563 C13.901415,9.62788693 14.2977152,9.2315972 14.2982767,8.74257184 L14.2982767,8.25488046 C14.2977227,7.87010102 14.033238,7.53596251 13.6588655,7.44707615 C14.3111069,-0.485079024 7.81623621,2.01614511 7.19909741,2.27109598 C7.22516743,1.84398037 7.12339945,1.41878145 6.90677845,1.04975201 C6.36664655,0.114212355 5.27537845,-0.266942817 4.46936638,0.198406321 C3.66335431,0.663755459 3.44781466,1.79940546 3.98793103,2.73493994 C4.15640112,3.02945235 4.39096832,3.28081418 4.67314655,3.4692158 C4.68868448,3.45387442 5.86943534,2.29287701 7.19802931,2.27110115 L4.67307155,3.46943563 C4.13232155,4.21805201 3.84836379,5.44163305 4.33048966,7.4398477 C3.9401836,7.51570216 3.65820463,7.8572721 3.65764914,8.25488046 L3.65764914,8.74257184 C3.65821069,9.23159821 4.05451241,9.62788836 4.54353879,9.62843563 L4.56368276,9.62843563 C4.62722084,11.0505612 5.37129992,12.3552 6.56297328,13.1339124 L6.56297328,14.7800072 C6.5630612,14.8573581 6.51087601,14.9249991 6.43603448,14.9445417 C4.65947328,15.2119037 3.03132672,16.0660296 1.8513,17.3497606 C0.657465517,18.6484761 -5.73763259e-13,20.308521 -5.73763259e-13,22.024071 C0.0207987041,23.1383821 0.297351832,23.8784683 0.829659383,24.2443296 L16.9358819,24.2443296 C17.6205112,23.7240804 17.9628259,22.9839925 17.9628259,22.0240658 C17.9628259,20.308521 17.3053603,18.6484761 16.1115259,17.3497555 C14.9314991,16.0660296 13.3033526,15.2119037 11.5267914,14.9445417 Z M13.4431132,7.67183005 L13.5075253,7.67183005 C13.9154039,7.67229609 14.1254392,7.85586601 14.1259052,8.26374459 L14.1259052,8.75143597 C14.1254078,9.19005955 13.8488577,9.44181092 13.4102341,9.4422955 L13.4001971,9.4422955 C13.401004,9.40780068 13.4015212,9.37325154 13.4015212,9.33858343 L13.4431132,7.67183005 Z M4.55914914,9.32520497 L4.55914914,9.42891187 L4.54353879,9.42891187 C4.10491419,9.42842871 3.81780086,9.17505213 3.81730343,8.73642754 L3.81730343,8.2487284 C3.81776947,7.84084982 4.07995849,7.64744865 4.48783707,7.64698261 L4.55914914,7.64698261 L4.55914914,9.32520497 Z M4.87339455,7.44694538 C6.56362042,6.97816435 7.11207155,5.11237011 7.11207155,5.11237011 C7.11207155,5.11237011 7.2414931,6.11828563 9.88526121,6.79408477 L9.414675,6.02031753 C9.414675,6.02031753 11.3768102,7.39037135 13.0926214,7.49874635 L13.0923447,9.61397394 C13.0923532,9.61984878 13.093503,9.62566601 13.09573,9.63110239 C13.0078972,11.9423153 11.2054103,13.3946611 8.87309388,13.3946611 C6.48499044,13.3946611 4.87339455,11.8106678 4.87339455,9.42257211 L4.87339455,7.44694538 Z M10.5924672,13.5518175 C10.5421552,13.5859791 10.4891483,13.6193124 10.4334466,13.6518175 C10.4869069,13.620073 10.5399138,13.5867397 10.5924672,13.5518175 Z M4.02820862,15.8131606 C4.78858938,15.4240382 5.60714149,15.1610429 6.45187241,15.0344537 C6.45331371,15.034252 6.45474331,15.0339741 6.45615517,15.033621 C6.57265031,15.0046788 6.65439873,14.9000307 6.6542819,14.7799943 L6.6542819,14.2641494 C7.08955862,14.729858 8.12933017,14.9075977 9.25662155,14.6572529 C10.2022422,14.4472529 10.9703922,13.9903813 11.308544,13.4907934 L11.308544,14.7800175 C11.3084271,14.900054 11.3901756,15.0047021 11.5066707,15.0336443 C13.2678466,15.2983787 14.877856,16.1425658 16.0443414,17.4115425 C16.383309,17.779991 16.6821669,18.1834143 16.9358819,18.6150184 C15.5745931,19.1859753 13.9458724,19.518246 12.1955276,19.518246 C8.41684138,19.518246 5.20460431,17.9702279 4.02820862,15.8131606 Z" id="Shape"></path>
                                <path d="M8.9484,9.91152701 L9.20127414,9.91152701 C9.38354242,9.91132035 9.53124851,9.76361426 9.53145517,9.58134598 C9.53145517,9.5561318 9.51101504,9.53569167 9.48580086,9.53569167 C9.46058668,9.53569167 9.44014655,9.5561318 9.44014655,9.58134598 C9.44000401,9.71321248 9.33314064,9.82007585 9.20127414,9.82021839 L8.9484,9.82021839 C8.81653349,9.82007585 8.70967012,9.71321248 8.70952759,9.58134598 C8.70952759,9.5561318 8.68908746,9.53569167 8.66387328,9.53569167 C8.6386591,9.53569167 8.61821897,9.5561318 8.61821897,9.58134598 C8.61842562,9.76361426 8.76613172,9.91132035 8.9484,9.91152701 Z" id="Path"></path>
                                <path d="M10.1935862,10.7783253 C10.1935624,10.7531135 10.1731256,10.732671 10.1479138,10.732671 L8.00175776,10.732671 C7.97654595,10.732671 7.95610345,10.7531135 7.95610345,10.7783253 C7.95610345,11.3961891 8.45698102,11.8970667 9.07484483,11.8970667 C9.69270863,11.8970667 10.1935862,11.3961891 10.1935862,10.7783253 L10.1935862,10.7783253 Z M8.06475517,10.9661925 C8.05599175,10.9192272 8.05051809,10.8717074 8.04837414,10.8239796 L10.1012767,10.8239796 C10.0992326,10.8688483 10.0942365,10.9135338 10.0863207,10.957746 C9.98448621,11.0277106 9.72088966,11.1327184 9.05528534,11.1327184 C8.41599828,11.1327184 8.16369052,11.0358572 8.06476552,10.9661925 L8.06475517,10.9661925 Z" id="Shape"></path>
                            </g>
                        </g>
                    </g>
                </g>
            </g>
        </g>
    </g>
</svg>