<?xml version="1.0" encoding="UTF-8"?>
<svg width="40px" height="40px" viewBox="0 0 40 40" version="1.1" xmlns="http://www.w3.org/2000/svg" xmlns:xlink="http://www.w3.org/1999/xlink">
    <title>BB61D15C-15EA-415F-96CB-EA84AECFF840</title>
    <g id="profille_view-mode" stroke="none" stroke-width="1" fill="none" fill-rule="evenodd">
        <g id="attendance-_profile_04" transform="translate(-471.000000, -759.000000)">
            <g id="Group-29" transform="translate(160.000000, 446.000000)">
                <g id="Group-7" transform="translate(40.000000, 105.000000)">
                    <g id="Group-34" transform="translate(0.000000, 134.000000)">
                        <g id="Group-39" transform="translate(271.000000, 74.000000)">
                            <circle id="Oval" fill="#F3F7FD" cx="20" cy="20" r="20"></circle>
                            <g id="Group" transform="translate(12.000000, 10.000000)" fill="#0059B2">
                                <path d="M1.72,14.2 L1.72,0.88 C1.68,0.48 1.36,0.2 0.96,0.2 C0.52,0.2 0.16,0.56 0.16,1 L0.16,2.12 L0.16,10.92 L0.16,18.24 C0.16,18.68 0.52,19.04 0.96,19.04 C1.4,19.04 1.76,18.68 1.76,18.24 L1.72,14.2 L1.72,14.2 Z" id="Path"></path>
                                <path d="M15.72,10.52 C15.08,9.08 14.44,7.64 13.76,6.16 C14.44,4.8 15.08,3.6 15.72,2.52 C15.84,2.32 15.84,2.08 15.76,1.84 C15.68,1.6 15.48,1.44 15.24,1.36 C14.24,1.08 13.2,0.92 12.04,0.92 C10.64,0.92 9.2,1.12 7.84,1.32 C6.48,1.52 5.2,1.72 3.88,1.72 C3.68,1.72 3.44,1.72 3.24,1.72 L3.24,12.08 C3.44,12.08 3.68,12.08 3.88,12.08 C5.28,12.08 6.72,11.88 8.08,11.68 C9.44,11.48 10.72,11.28 12.04,11.28 C13.04,11.28 13.96,11.4 14.8,11.64 C14.88,11.68 14.96,11.68 15.04,11.68 C15.04,11.68 15.04,11.68 15.04,11.68 C15.48,11.68 15.84,11.32 15.84,10.88 C15.84,10.76 15.8,10.64 15.72,10.52 Z" id="Path"></path>
                            </g>
                        </g>
                    </g>
                </g>
            </g>
        </g>
    </g>
</svg>