<?xml version="1.0" encoding="UTF-8"?>
<svg width="12px" height="12px" viewBox="0 0 12 12" version="1.1" xmlns="http://www.w3.org/2000/svg" xmlns:xlink="http://www.w3.org/1999/xlink">
    <title>F9365DA9-60CE-4E38-BC71-BFEF377A7220</title>
    <g id="roster" stroke="none" stroke-width="1" fill="none" fill-rule="evenodd">
        <g id="can’t-copy-leave_01" transform="translate(-734.000000, -545.000000)" fill="#EE3942">
            <g id="Group-27" transform="translate(730.000000, 541.000000)">
                <g id="Group-28" transform="translate(4.000000, 3.000000)">
                    <g id="noun_not-allowed_621455" transform="translate(0.000000, 1.000000)">
                        <path d="M6,0.0965217391 C2.73959899,0.0965217391 0.0965217391,2.73959899 0.0965217391,6 C0.0965217391,9.26040101 2.73959899,11.9034783 6,11.9034783 C9.26040101,11.9034783 11.9034783,9.26040101 11.9034783,6 C11.899884,2.74108894 9.25891106,0.100115997 6,0.0965217391 Z M1.40086706,6 C1.39938559,4.25779103 2.38301041,2.66448318 3.94117953,1.88512235 C5.49934865,1.10576152 7.36421771,1.27431737 8.7573913,2.32043478 L2.32043478,8.75608696 C1.72263077,7.96169022 1.39982896,6.99420054 1.40086706,6 Z M6,10.5991345 C5.00535328,10.6004546 4.03736187,10.2776382 3.2426087,9.67956522 L9.67956522,3.24391304 C10.7249056,4.63708168 10.8930131,6.50141827 10.1137522,8.0591114 C9.33449124,9.61680452 7.74173885,10.6002428 6,10.5991345 L6,10.5991345 Z" id="Shape"></path>
                    </g>
                </g>
            </g>
        </g>
    </g>
</svg>