<?xml version="1.0" encoding="UTF-8"?>
<svg width="56px" height="56px" viewBox="0 0 56 56" version="1.1" xmlns="http://www.w3.org/2000/svg" xmlns:xlink="http://www.w3.org/1999/xlink">
    <title>077DD60E-61A1-4FA3-9B41-1D79562EF175</title>
    <defs>
        <path d="M8.27910934,0.000672182277 L8.40058354,0.0109390457 C9.05227953,0.0993046036 9.50894909,0.699243014 9.42058355,1.35093901 L9.42058355,1.35093901 L9.68091508,1.36962895 C14.2609022,1.76494288 17.8074,5.59527826 17.8205835,10.220939 L17.8205835,10.220939 L17.8205835,11.690939 L21.6905835,14.170939 C21.8914567,14.3233352 21.9732864,14.5865379 21.8942306,14.825964 C21.8151748,15.06539 21.5927079,15.2281174 21.3405835,15.230939 L21.3405835,15.230939 L9.48058355,15.230939 C7.94777667,15.2287781 6.45682875,14.7306261 5.23058355,13.810939 L5.23058355,13.810939 L2.40058355,11.690939 L0.000583549686,11.690939 L0.000583549686,10.450939 C-0.022615506,8.39172435 0.64649551,6.3843913 1.90058355,4.75093901 C3.19346206,3.11369151 5.01930248,1.98138737 7.06058355,1.55093901 C7.02500435,1.37943146 7.02500435,1.20244655 7.06058355,1.03093901 C7.14894913,0.37924302 7.74888755,-0.0774265121 8.40058354,0.0109390457 Z M8.92058355,2.18093901 C7.62469666,2.16393494 6.34538254,2.47344642 5.20058355,3.08093901 C3.09105722,4.19132443 1.57691301,6.17360985 1.06058355,8.50093901 L1.06058355,8.50093901 L4.49058355,8.50093901 C4.62865474,8.50093901 4.74058355,8.61286782 4.74058355,8.75093901 L4.74058355,8.75093901 L4.74058355,9.11093901 C4.74058355,9.24901019 4.62865474,9.36093901 4.49058355,9.36093901 L4.49058355,9.36093901 L0.87058355,9.36093901 C0.85537351,9.64740392 0.85537351,9.93447409 0.87058355,10.220939 L0.87058355,10.220939 L0.87058355,10.840939 L17.0005835,10.840939 L16.9205835,10.180939 C16.9205835,8.05920709 16.0777288,6.02437578 14.5774378,4.52408476 C13.0771468,3.02379373 11.0423155,2.18093901 8.92058355,2.18093901 Z M12.0005835,4.73091072 C12.471747,4.72827702 12.9245267,4.91358281 13.258632,5.24581116 C13.5927374,5.57803951 13.7806118,6.02976806 13.7806118,6.50093901 C13.7846333,7.22177799 13.3535272,7.87389337 12.6887177,8.15255713 C12.0239081,8.43122089 11.256664,8.2814099 10.745512,7.77312956 C10.2343601,7.26484923 10.080229,6.49846128 10.3551429,5.83209235 C10.6300569,5.16572342 11.2797332,4.73095038 12.0005835,4.73091072 Z" id="path-1"></path>
    </defs>
    <g id="📟--dashboard" stroke="none" stroke-width="1" fill="none" fill-rule="evenodd">
        <g id="onboard_dashboard_01" transform="translate(-459.000000, -834.000000)">
            <g id="Group-8" transform="translate(160.000000, 744.000000)">
                <g id="checks-level" transform="translate(24.000000, 84.000000)">
                    <g id="Group-8" transform="translate(275.000000, 0.000000)">
                        <g id="warning" transform="translate(0.000000, 6.000000)">
                            <circle id="Oval" fill="#E5EEF7" cx="28" cy="28" r="28"></circle>
                            <g id="icon-/-24-/-info-/-onboarding" transform="translate(17.000000, 20.000000)">
                                <mask id="mask-2" fill="white">
                                    <use xlink:href="#path-1"></use>
                                </mask>
                                <use id="Combined-Shape" fill="#768094" fill-rule="nonzero" xlink:href="#path-1"></use>
                                <rect id="Rectangle" fill="#0059B2" mask="url(#mask-2)" x="-1" y="-4" width="24" height="24"></rect>
                            </g>
                        </g>
                    </g>
                </g>
            </g>
        </g>
    </g>
</svg>