<svg width="32" height="32" viewBox="0 0 32 32" fill="none" xmlns="http://www.w3.org/2000/svg">
<path d="M26 32H6C2.7 32 0 29.3 0 26V6C0 2.7 2.7 0 6 0H26C29.3 0 32 2.7 32 6V26C32 29.3 29.3 32 26 32Z" fill="white"/>
<path d="M17.1 13C16.1 13 15.2 13.8 15.2 14.9C15.2 16 16 16.8 17.1 16.8C18.2 16.8 19 16 19 14.9C19 13.8 18.1 13 17.1 13Z" fill="#245DA9"/>
<path d="M27.3 22.9L23.2 20.3V18.8C23.2 13.9 19.3 9.80005 14.4 9.50005C14.5 8.70005 14 8.10005 13.3 8.00005C12.6 7.90005 12 8.40005 11.9 9.10005C11.9 9.30005 11.9 9.50005 11.9 9.60005C9.8 10.1 7.8 11.2 6.5 13C5.2 14.7 4.5 16.8 4.5 19V20.3H7L10 22.5C11.3 23.5 12.9 24 14.5 24H26.9C27.2 24 27.5 23.7 27.5 23.4C27.5 23.2 27.4 23 27.3 22.9ZM22.3 19.4H5.4V18.7C5.4 18.4 5.4 18.1 5.4 17.8H9.2C9.3 17.8 9.5 17.7 9.5 17.5V17.1C9.5 17 9.4 16.8 9.2 16.8H5.6C6.1 14.4 7.7 12.3 9.9 11.1C11.1 10.5 12.4 10.1 13.8 10.2C18.4 10.2 22.2 14 22.2 18.6L22.3 19.4Z" fill="#245DA9"/>
</svg>
