<?xml version="1.0" encoding="UTF-8"?>
<svg width="22px" height="16px" viewBox="0 0 22 16" version="1.1" xmlns="http://www.w3.org/2000/svg" xmlns:xlink="http://www.w3.org/1999/xlink">
    <!-- Generator: Sketch 63.1 (92452) - https://sketch.com -->
    <title>icon / 24 / info / onboarding</title>
    <desc>Created with Sketch.</desc>
    <defs>
        <path d="M9.27910934,4.00067218 L9.40058354,4.01093905 C10.0522795,4.0993046 10.5089491,4.69924301 10.4205835,5.35093901 L10.4205835,5.35093901 L10.6809151,5.36962895 C15.2609022,5.76494288 18.8074,9.59527826 18.8205835,14.220939 L18.8205835,14.220939 L18.8205835,15.690939 L22.6905835,18.170939 C22.8914567,18.3233352 22.9732864,18.5865379 22.8942306,18.825964 C22.8151748,19.06539 22.5927079,19.2281174 22.3405835,19.230939 L22.3405835,19.230939 L10.4805835,19.230939 C8.94777667,19.2287781 7.45682875,18.7306261 6.23058355,17.810939 L6.23058355,17.810939 L3.40058355,15.690939 L1.00058355,15.690939 L1.00058355,14.450939 C0.977384494,12.3917243 1.64649551,10.3843913 2.90058355,8.75093901 C4.19346206,7.11369151 6.01930248,5.98138737 8.06058355,5.55093901 C8.02500435,5.37943146 8.02500435,5.20244655 8.06058355,5.03093901 C8.14894913,4.37924302 8.74888755,3.92257349 9.40058354,4.01093905 Z M9.92058355,6.18093901 C8.62469666,6.16393494 7.34538254,6.47344642 6.20058355,7.08093901 C4.09105722,8.19132443 2.57691301,10.1736098 2.06058355,12.500939 L2.06058355,12.500939 L5.49058355,12.500939 C5.62865474,12.500939 5.74058355,12.6128678 5.74058355,12.750939 L5.74058355,12.750939 L5.74058355,13.110939 C5.74058355,13.2490102 5.62865474,13.360939 5.49058355,13.360939 L5.49058355,13.360939 L1.87058355,13.360939 C1.85537351,13.6474039 1.85537351,13.9344741 1.87058355,14.220939 L1.87058355,14.220939 L1.87058355,14.840939 L18.0005835,14.840939 L17.9205835,14.180939 C17.9205835,12.0592071 17.0777288,10.0243758 15.5774378,8.52408476 C14.0771468,7.02379373 12.0423155,6.18093901 9.92058355,6.18093901 Z M13.0005835,8.73091072 C13.471747,8.72827702 13.9245267,8.91358281 14.258632,9.24581116 C14.5927374,9.57803951 14.7806118,10.0297681 14.7806118,10.500939 C14.7846333,11.221778 14.3535272,11.8738934 13.6887177,12.1525571 C13.0239081,12.4312209 12.256664,12.2814099 11.745512,11.7731296 C11.2343601,11.2648492 11.080229,10.4984613 11.3551429,9.83209235 C11.6300569,9.16572342 12.2797332,8.73095038 13.0005835,8.73091072 Z" id="path-1"></path>
    </defs>
    <g id="Symbols" stroke="none" stroke-width="1" fill="none" fill-rule="evenodd">
        <g id="left-bar-/-client" transform="translate(-17.000000, -356.000000)">
            <g id="client_nev">
                <g id="onboard" transform="translate(16.000000, 352.000000)">
                    <g id="icon-/-24-/-info-/-onboarding">
                        <mask id="mask-2" fill="white">
                            <use xlink:href="#path-1"></use>
                        </mask>
                        <use id="Combined-Shape" fill="#768094" fill-rule="nonzero" xlink:href="#path-1"></use>
                        <rect id="Rectangle" fill="#8697A8" fill-rule="evenodd" mask="url(#mask-2)" x="0" y="0" width="24" height="24"></rect>
                    </g>
                </g>
            </g>
        </g>
    </g>
</svg>