<?xml version="1.0" encoding="UTF-8"?>
<svg width="32px" height="32px" viewBox="0 0 32 32" version="1.1" xmlns="http://www.w3.org/2000/svg" xmlns:xlink="http://www.w3.org/1999/xlink">
    <title>operations</title>
    <g id="🎭-all-employees_OA" stroke="none" stroke-width="1" fill="none" fill-rule="evenodd">
        <g id="product-&amp;-opration" transform="translate(-208.000000, -706.000000)">
            <g id="orgnisation-/-organisation-details-header" transform="translate(160.000000, 128.000000)">
                <g id="product" transform="translate(32.000000, 498.000000)">
                    <g id="Group-7" transform="translate(0.000000, 64.000000)">
                        <g id="operations" transform="translate(16.000000, 16.000000)">
                            <rect id="Rectangle" fill="#FFFFFF" x="0" y="0" width="32" height="32" rx="6"></rect>
                            <g id="Group" transform="translate(7.000000, 5.000000)" fill="#0059B2" fill-rule="nonzero">
                                <path d="M11.845679,18.2761905 L6.43051146,18.2761905 C6.24368818,18.2761905 6.09206349,18.4278152 6.09206349,18.6146384 L6.09206349,19.2915344 L5.07671958,19.2915344 C3.4711224,19.2915344 2.15455979,18.041646 2.04185661,16.46414 C1.80088166,16.3500831 1.57039859,16.2184268 1.35379189,16.0671406 L1.35379189,16.2455026 C1.35379189,18.2981896 3.02403263,19.9684303 5.07671958,19.9684303 L6.09206349,19.9684303 L6.09206349,20.6453263 C6.09206349,20.8321496 6.24368818,20.9837743 6.43051146,20.9837743 L11.845679,20.9837743 C12.0325023,20.9837743 12.184127,20.8321496 12.184127,20.6453263 L12.184127,18.6146384 C12.184127,18.4278152 12.0325023,18.2761905 11.845679,18.2761905 Z" id="Path"></path>
                                <path d="M17.5992945,9.94393986 L17.5992945,6.43051146 C17.5992945,2.88459206 14.7147025,0 11.1687831,0 L7.10740741,0 C3.56148801,0 0.676895944,2.88459206 0.676895944,6.43051146 L0.676895944,9.94393986 C0.250113051,10.5866526 0,11.3566217 0,12.184127 C0,14.4236372 1.82186543,16.2455026 4.06137566,16.2455026 C4.42960705,16.2455026 4.80223827,16.1927048 5.16877743,16.0888012 C5.3146485,16.047849 5.41516755,15.9145005 5.41516755,15.7632143 L5.41516755,8.60503968 C5.41516755,8.45375344 5.3146485,8.32074339 5.16877743,8.27945273 C4.80223827,8.17554921 4.42960705,8.12275132 4.06137566,8.12275132 C3.02064815,8.12275132 2.07333228,8.51975079 1.35379189,9.16550952 L1.35379189,6.43051146 C1.35379189,3.25790018 3.93479612,0.676895944 7.10740741,0.676895944 L11.1687831,0.676895944 C14.3413944,0.676895944 16.9223986,3.25790018 16.9223986,6.43051146 L16.9223986,9.16550952 C16.2028582,8.51975079 15.2555423,8.12275132 14.2148148,8.12275132 C13.8465834,8.12275132 13.4739522,8.17554921 13.1074131,8.27945273 C12.961542,8.32040494 12.8610229,8.45375344 12.8610229,8.60503968 L12.8610229,15.7632143 C12.8610229,15.9145005 12.961542,16.0475106 13.1074131,16.0888012 C13.4742907,16.1927048 13.8469219,16.2455026 14.2148148,16.2455026 C16.454325,16.2455026 18.2761905,14.4236372 18.2761905,12.184127 C18.2761905,11.3566217 18.0260774,10.5866526 17.5992945,9.94393986 Z" id="Path"></path>
                            </g>
                        </g>
                    </g>
                </g>
            </g>
        </g>
    </g>
</svg>