<?xml version="1.0" encoding="UTF-8"?>
<svg width="180px" height="139px" viewBox="0 0 180 139" version="1.1" xmlns="http://www.w3.org/2000/svg" xmlns:xlink="http://www.w3.org/1999/xlink">
    <!-- Generator: sketchtool 63.1 (101010) - https://sketch.com -->
    <title>EFCFDAFC-52C0-4599-9873-5288E7033C9A</title>
    <desc>Created with sketchtool.</desc>
    <defs>
        <linearGradient x1="50.0040125%" y1="99.9934854%" x2="50.0040125%" y2="0.001584447%" id="linearGradient-1">
            <stop stop-color="#808080" stop-opacity="0.25" offset="0%"></stop>
            <stop stop-color="#808080" stop-opacity="0.12" offset="54%"></stop>
            <stop stop-color="#808080" stop-opacity="0.1" offset="100%"></stop>
        </linearGradient>
        <path d="M2.89079755,5.98840764 C2.89079755,5.98840764 9.09570552,7.85647558 17.7840491,5.05375796 C26.4723926,2.25104034 44.4674847,9.10144374 44.4674847,9.10144374 C44.4674847,9.10144374 58.7398773,9.10144374 79.8392638,0.0714225053 C79.8392638,0.0714225053 70.2208589,9.41299363 77.0466258,15.0184289 C83.8723926,20.6238641 77.6674847,28.7192357 69.6,31.8335032 C61.5325153,34.9477707 60.9128834,41.1750743 61.5325153,47.0920594 C62.1521472,53.0090446 61.5325153,47.4036093 61.5325153,47.4036093 C61.5325153,47.4036093 37.3312883,43.0443737 31.1251534,57.9938429 L0.408588957,9.41422505 C0.408588957,9.41422505 -1.45276074,5.67808917 2.89079755,5.98840764 Z" id="path-2"></path>
    </defs>
    <g id="🖥-Ops_analyst-" stroke="none" stroke-width="1" fill="none" fill-rule="evenodd">
        <g id="if-no-task-left-" transform="translate(-510.000000, -320.000000)">
            <g id="pan-details" transform="translate(160.000000, 284.000000)">
                <g id="illustration" transform="translate(350.000000, 32.000000)">
                    <rect id="Rectangle" fill="#D8D8D8" opacity="0" x="0" y="0" width="180" height="148"></rect>
                    <g id="Group-2" transform="translate(0.000000, 4.250000)">
                        <g id="undraw_empty_xct9" fill-rule="nonzero">
                            <path d="M104.533663,19.538331 C92.9994059,19.1454597 82.0140594,15.4798303 71.5241584,11.4704385 C61.0342574,7.46104668 50.6441584,3.02019802 39.3861386,0.896237624 C32.1451485,-0.470042433 23.8633663,-0.664724187 18.030297,3.15173975 C12.4146535,6.83490806 10.600396,13.1752192 9.62554455,19.0630269 C8.89128713,23.4933522 8.46,28.1569448 10.470297,32.3048939 C11.8675248,35.1847808 14.3447525,37.6051485 16.0592079,40.364017 C22.0241584,49.9613013 17.8075248,61.7965488 11.3453465,71.1675813 C8.31564356,75.5628289 4.79584158,79.7616407 2.45584158,84.4357567 C0.115841584,89.1098727 -0.965940594,94.4837907 1.08178218,99.2648939 C3.10990099,104.000396 7.9449505,107.550269 13.1827723,110.049562 C23.8205941,115.127072 36.3510891,116.579293 48.5786139,117.403621 C75.6374257,119.224158 102.838812,118.436662 129.968911,117.645658 C140.009703,117.354512 150.093267,117.058105 159.970099,115.530467 C165.455644,114.681584 171.117624,113.334597 175.100792,110.082885 C180.15505,105.955983 181.407921,98.9684866 178.02,93.794512 C172.338416,85.1127581 156.633861,82.9572277 152.657822,73.6423197 C150.472871,68.5139463 152.716634,62.8032815 155.894257,58.0484866 C162.709307,47.8461103 174.131287,38.8960113 174.731881,27.2361528 C175.145347,19.2278925 169.654455,11.207355 161.164158,7.41719943 C152.265743,3.44463932 139.924158,3.94449788 133.362178,10.5198303 C126.598812,17.2828289 114.718812,19.887355 104.533663,19.538331 Z" id="Path" fill="#6C63FF" opacity="0.1"></path>
                            <g id="Group" opacity="0.1" transform="translate(49.544554, 24.313296)" fill="#000000">
                                <path d="M0.621980198,3.59810467 C0.64192467,3.3687276 0.606506761,3.1379587 0.518613861,2.92461103 C0.518613861,2.94214993 0.502574257,2.95968883 0.497227723,2.97722772 C0.420594059,3.21224894 0.523960396,3.4560396 0.58990099,3.69983027 C0.604062912,3.66707689 0.614811036,3.63299377 0.621980198,3.59810467 L0.621980198,3.59810467 Z" id="Path"></path>
                                <path d="M1.04613861,0.72698727 C1.02780348,0.969515005 1.03257678,1.21319935 1.06039604,1.45485149 C1.07866869,1.21232206 1.07389551,0.96864346 1.04613861,0.72698727 L1.04613861,0.72698727 Z" id="Path"></path>
                            </g>
                            <polygon id="Path" fill="#FFFFFF" opacity="0.1" points="84.010099 77.9533805 81.5043564 78.4269307 81.5043564 74.7841018 83.8514851 74.2018105"></polygon>
                            <polygon id="Path" fill="#FFFFFF" opacity="0.1" points="69.2857426 76.4625743 69.2857426 78.8724187 66.489505 78.5917963 66.489505 76.4625743"></polygon>
                            <polygon id="Path" fill="#FFFFFF" opacity="0.1" points="65.6376238 77.2220085 65.6376238 78.5041018 62.8431683 78.2217256 62.8431683 77.2220085"></polygon>
                            <path d="M116.513465,19.7119661 C116.513465,19.7119661 109.741188,19.3103253 110.532475,23.9861952 C110.532475,23.9861952 110.373861,24.8122772 111.134851,25.1876096 C111.134851,25.1876096 111.147327,24.8368317 111.829901,24.9578501 C112.072979,24.9981101 112.320047,25.0098848 112.565941,24.9929279 C112.899174,24.9710558 113.215937,24.8422955 113.467723,24.6263649 L113.467723,24.6263649 C113.467723,24.6263649 115.372871,23.8528996 116.114257,20.7871004 C116.114257,20.7871004 116.663168,20.1171146 116.648911,19.9452334 L115.504752,20.427553 C115.504752,20.427553 115.89505,21.239604 115.586733,21.9148515 C115.586733,21.9148515 115.551089,20.4573692 115.330099,20.4906931 C115.285545,20.4906931 114.736634,20.7730693 114.736634,20.7730693 C114.736634,20.7730693 115.408515,22.1867044 114.900594,23.2162376 C114.900594,23.2162376 115.093069,21.4728713 114.526337,20.8747949 L113.720792,21.3378218 C113.720792,21.3378218 114.506733,22.7988119 113.973861,23.9914569 C113.973861,23.9914569 114.111089,22.1621499 113.551485,21.4500707 L112.820792,22.0095615 C112.820792,22.0095615 113.560396,23.4512588 113.109505,24.4404526 C113.109505,24.4404526 113.050693,22.3112306 112.662178,22.1498727 C112.662178,22.1498727 112.024158,22.7041018 111.927921,22.9321075 C111.927921,22.9321075 112.432277,23.9844413 112.118614,24.529901 C112.118614,24.529901 111.926139,23.1110042 111.762178,23.1039887 C111.762178,23.1039887 111.125941,24.0440736 111.06,24.6824894 C111.090814,24.0873089 111.279445,23.510442 111.607129,23.0092786 C111.240441,23.0775535 110.902135,23.2501193 110.634059,23.5056294 C110.634059,23.5056294 110.732079,22.8409052 111.76396,22.7830269 C111.76396,22.7830269 112.298614,22.0691938 112.430495,22.0253465 C112.430495,22.0253465 111.40396,21.9411598 110.78198,22.2130127 C110.78198,22.2130127 111.329109,21.5868741 112.619406,21.8622348 L113.332277,21.2834512 C113.332277,21.2834512 111.981386,21.1080622 111.407525,21.302744 C111.407525,21.302744 112.066931,20.7485149 113.526535,21.1519095 L114.310693,20.6906365 C114.310693,20.6906365 113.159406,20.4450919 112.473267,20.5345403 C112.473267,20.5345403 113.196832,20.1504385 114.540594,20.5661103 L115.10198,20.3188119 C115.10198,20.3188119 114.257228,20.1557001 114.011287,20.1293918 C113.765347,20.1030835 113.751089,20.0364356 113.751089,20.0364356 C114.285509,19.9489009 114.834141,20.0096348 115.335446,20.2118246 C115.335446,20.2118246 116.538416,19.7856294 116.513465,19.7119661 Z" id="Path" fill="#6C63FF"></path>
                            <path d="M137.090495,43.098331 C137.090495,43.098331 130.318218,42.6966902 131.109505,47.3725601 C131.109505,47.3725601 130.950891,48.1986421 131.711881,48.5739745 C131.711881,48.5739745 131.724356,48.2231966 132.408713,48.344215 C132.651791,48.3844751 132.898859,48.3962497 133.144752,48.3792928 C133.474071,48.3557953 133.786754,48.2277838 134.035842,48.0144837 L134.035842,48.0144837 C134.035842,48.0144837 135.942772,47.2392645 136.684158,44.1734653 C136.684158,44.1734653 137.231287,43.5052334 137.209901,43.3333522 L136.065743,43.813918 C136.065743,43.813918 136.45604,44.6259689 136.149505,45.3012164 C136.149505,45.3012164 136.112079,43.8437341 135.892871,43.877058 C135.848317,43.877058 135.297624,44.1594342 135.297624,44.1594342 C135.297624,44.1594342 135.971287,45.5748232 135.463366,46.6026025 C135.463366,46.6026025 135.655842,44.8592362 135.087327,44.2611598 L134.290693,44.718925 C134.290693,44.718925 135.076634,46.1799151 134.543762,47.3725601 C134.543762,47.3725601 134.68099,45.5432532 134.121386,44.831174 L133.392475,45.3924187 C133.392475,45.3924187 134.130297,46.8323621 133.681188,47.8215559 C133.681188,47.8215559 133.622376,45.6923338 133.233861,45.530976 C133.233861,45.530976 132.595842,46.0852051 132.497822,46.3132107 C132.497822,46.3132107 133.00396,47.3655446 132.690297,47.9110042 C132.690297,47.9110042 132.497822,46.4921075 132.333861,46.4850919 C132.333861,46.4850919 131.697624,47.4251768 131.631683,48.0635926 C131.663524,47.4683394 131.852734,46.8915819 132.180594,46.3903819 C131.813443,46.4588233 131.474611,46.6313415 131.205743,46.8867327 C131.205743,46.8867327 131.305545,46.2220085 132.337426,46.1641301 C132.337426,46.1641301 132.863168,45.450297 133.00396,45.4064498 C133.00396,45.4064498 131.977426,45.3222631 131.355446,45.594116 C131.355446,45.594116 131.902574,44.9679774 133.191089,45.2521075 L133.90396,44.6733239 C133.90396,44.6733239 132.551287,44.4979349 131.979208,44.6926167 C131.979208,44.6926167 132.638614,44.1383876 134.098218,44.5417822 L134.882376,44.0805092 C134.882376,44.0805092 133.729307,43.8367185 133.043168,43.924413 C133.043168,43.924413 133.768515,43.5403112 135.112277,43.955983 L135.673663,43.7086846 C135.673663,43.7086846 134.828911,43.5455728 134.581188,43.5192645 C134.333465,43.4929562 134.32099,43.4263083 134.32099,43.4263083 C134.855995,43.3387211 135.405214,43.3994516 135.907129,43.6016973 C135.907129,43.6016973 137.111881,43.1719943 137.090495,43.098331 Z" id="Path" fill="#6C63FF" opacity="0.1"></path>
                            <path d="M95.9489109,38.9468741 C95.9489109,38.9468741 97.5083168,32.4416973 92.6893069,32.4188967 C92.6893069,32.4188967 91.8891089,32.1242433 91.3847525,32.7977369 C91.3847525,32.7977369 91.7287129,32.8696464 91.4952475,33.51157 C91.4145025,33.7385613 91.3606802,33.9739745 91.3348515,34.2131259 C91.30033,34.5391411 91.3747875,34.8673423 91.5469307,35.1479491 L91.5469307,35.1479491 C91.5469307,35.1479491 91.9978218,37.1298444 94.9330693,38.3715983 C94.9330693,38.3715983 95.510495,39.0170297 95.6851485,39.0240453 L95.4,37.8331542 C95.4,37.8331542 94.519604,38.0734371 93.8958416,37.6577652 C93.8958416,37.6577652 95.3625743,37.8699859 95.3643564,37.6577652 C95.3643564,37.613918 95.1861386,37.0333805 95.1861386,37.0333805 C95.1861386,37.0333805 93.6552475,37.4437907 92.7106931,36.7755587 C92.7106931,36.7755587 94.4233663,37.2596322 95.120198,36.8123904 L94.7994059,35.9494767 C94.7994059,35.9494767 93.1954455,36.4633663 92.0976238,35.7425177 C92.0976238,35.7425177 93.9065347,36.1880057 94.7156436,35.7670721 L94.2790099,34.9637907 C94.2790099,34.9637907 92.7106931,35.4338331 91.7964356,34.8287412 C91.7964356,34.8287412 93.9350495,35.133918 94.1667327,34.7866478 C94.1667327,34.7866478 93.7211881,34.0728147 93.5091089,33.9395191 C93.5091089,33.9395191 92.3756436,34.2517115 91.8766337,33.8535785 C91.8766337,33.8535785 93.3291089,33.9079491 93.3629703,33.7571146 C93.3629703,33.7571146 92.5306931,32.9801414 91.8962376,32.8047525 C92.4874896,32.9372355 93.033513,33.2189094 93.4805941,33.6220651 C93.4740586,33.2544855 93.3588723,32.8967377 93.1491089,32.5925318 C93.1491089,32.5925318 93.7978218,32.8029986 93.6837624,33.8202546 C93.6837624,33.8202546 94.3075248,34.4516549 94.3271287,34.5954738 C94.3271287,34.5954738 94.5855446,33.6150495 94.419802,32.9643564 C94.419802,32.9643564 94.9544554,33.6027723 94.450099,34.8041867 L94.9063366,35.6022065 C94.9063366,35.6022065 95.319802,34.321867 95.2146535,33.7325601 C95.2146535,33.7325601 95.6584158,34.465686 95.0043564,35.8126733 L95.3340594,36.6527864 C95.3340594,36.6527864 95.7742574,35.5758982 95.8027723,34.8988967 C95.8027723,34.8988967 96.0647525,35.6671004 95.4178218,36.9000849 L95.5710891,37.485884 C95.5710891,37.485884 95.8776238,36.6948798 95.9453465,36.4598586 C96.0130693,36.2248373 96.0825743,36.2230835 96.0825743,36.2230835 C96.0798583,36.7566656 95.9261968,37.2789598 95.6388119,37.7314286 C95.6388119,37.7314286 95.8722772,38.9556436 95.9489109,38.9468741 Z" id="Path" fill="#6C63FF" opacity="0.1"></path>
                            <path d="M81.1176238,41.1637907 C81.1176238,41.1637907 75.6784158,37.1596605 73.7340594,41.4970297 C73.7340594,41.4970297 73.1405941,42.1021216 73.5665347,42.8264781 C73.5665347,42.8264781 73.769703,42.5441018 74.2794059,43.0123904 C74.4599442,43.1776836 74.6597538,43.3213353 74.8746535,43.4403395 C75.1657302,43.5998442 75.5017767,43.6614294 75.8316832,43.6157284 L75.8316832,43.6157284 C75.8316832,43.6157284 77.8562376,43.9998303 80.1873267,41.8407921 C80.1873267,41.8407921 81.019604,41.5777086 81.0980198,41.4233663 L79.870099,41.2111457 C79.870099,41.2111457 79.7417822,42.1003678 79.1091089,42.4985007 C79.1091089,42.4985007 79.8914851,41.2602546 79.6883168,41.1708062 C79.6473267,41.1515134 79.0342574,41.0831117 79.0342574,41.0831117 C79.0342574,41.0831117 78.8061386,42.6300424 77.8081188,43.2140877 C77.8081188,43.2140877 78.9433663,41.8618388 78.8025743,41.0550495 L77.870495,41.0059406 C77.870495,41.0059406 77.7118812,42.652843 76.599802,43.3614144 C76.599802,43.3614144 77.7350495,41.9074399 77.6691089,41.0094484 L76.7459406,41.0831117 C76.7459406,41.0831117 76.5588119,42.684413 75.630297,43.2667044 C75.630297,43.2667044 76.7691089,41.4566902 76.5356436,41.1129279 C76.5356436,41.1129279 75.6926733,41.2304385 75.4841584,41.3672419 C75.4841584,41.3672419 75.3219802,42.5142857 74.7516832,42.8054314 C74.7516832,42.8054314 75.3843564,41.5163225 75.2560396,41.4268741 C75.2560396,41.4268741 74.1992079,41.8671004 73.7839604,42.3687129 C74.1431675,41.8884326 74.623563,41.5087655 75.1776238,41.2672702 C74.8328882,41.1262635 74.4538508,41.0872547 74.0869307,41.1550212 C74.0869307,41.1550212 74.539604,40.6534088 75.4342574,41.1637907 C75.4342574,41.1637907 76.2718812,40.8533522 76.4144554,40.8919378 C76.4144554,40.8919378 75.6035644,40.2657992 74.9316832,40.157058 C74.9316832,40.157058 75.7407921,39.9290523 76.6586139,40.8586139 L77.5835644,40.7656577 C77.5835644,40.7656577 76.5552475,39.8887129 75.9653465,39.7413861 C75.9653465,39.7413861 76.8261386,39.6343989 77.8188119,40.760396 L78.7312871,40.8007355 C78.7312871,40.8007355 77.9061386,39.9728996 77.2841584,39.6747383 C77.2841584,39.6747383 78.1021782,39.7448939 78.9932673,40.8200283 L79.6009901,40.9164922 C79.6009901,40.9164922 78.9861386,40.3236775 78.7936634,40.1693352 C78.6011881,40.0149929 78.6279208,39.950099 78.6279208,39.950099 C79.1237205,40.1661666 79.5488181,40.5134761 79.8558416,40.9533239 C79.8558416,40.9533239 81.0944554,41.2357001 81.1176238,41.1637907 Z" id="Path" fill="#6C63FF" opacity="0.1"></path>
                            <path d="M99.2263366,3.96203678 C99.2263366,3.96203678 93.7871287,-0.0438472419 91.8427723,4.29527581 C91.8427723,4.29527581 91.2493069,4.90036775 91.6752475,5.62472419 C91.6752475,5.62472419 91.8784158,5.34234795 92.3881188,5.81063649 C92.5696028,5.97507596 92.7699682,6.11810861 92.9851485,6.23683168 C93.2761804,6.39645888 93.6122688,6.45805175 93.9421782,6.41222065 L93.9421782,6.41222065 C93.9421782,6.41222065 95.9667327,6.79632249 98.2978218,4.63553041 C98.2978218,4.63553041 99.130099,4.37420085 99.2067327,4.21810467 L97.9788119,4.0093918 C97.9788119,4.0093918 97.8522772,4.89861386 97.2178218,5.29674682 C97.2178218,5.29674682 98.0019802,4.05850071 97.7988119,3.96905233 C97.7578218,3.94975955 97.1447525,3.88135785 97.1447525,3.88135785 C97.1447525,3.88135785 96.909505,5.43179632 95.9114851,6.0123338 C95.9114851,6.0123338 97.0449505,4.66008487 96.9059406,3.85329562 L95.9738614,3.8041867 C95.9738614,3.8041867 95.8134653,5.45108911 94.7031683,6.15790665 C94.7031683,6.15790665 95.8384158,4.70393211 95.7724752,3.80594059 L94.8510891,3.87960396 C94.8510891,3.87960396 94.6621782,5.48265912 93.7336634,6.0649505 C93.7336634,6.0649505 94.8742574,4.25493635 94.6407921,3.91117397 C94.6407921,3.91117397 93.7978218,4.02868458 93.5893069,4.16548798 C93.5893069,4.16548798 93.4271287,5.31253182 92.8568317,5.60367751 C92.8568317,5.60367751 93.489505,4.3145686 93.3611881,4.22336634 C93.3611881,4.22336634 92.3043564,4.66534653 91.8891089,5.16695898 C92.2477731,4.68616681 92.7283208,4.30637942 93.2827723,4.06551627 C92.9376827,3.92346091 92.5577605,3.8844249 92.190297,3.95326733 C92.190297,3.95326733 92.6447525,3.45165488 93.5394059,3.96203678 C93.5394059,3.96203678 94.3770297,3.64984441 94.519604,3.69018388 C94.519604,3.69018388 93.7087129,3.06404526 93.0368317,2.95355021 C93.0368317,2.95355021 93.8441584,2.72729844 94.7619802,3.65510608 L95.6869307,3.56214993 C95.6869307,3.56214993 94.660396,2.68520509 94.0687129,2.53612447 C94.0687129,2.53612447 94.929505,2.43089109 95.9239604,3.55688826 L96.8364356,3.59547383 C96.8364356,3.59547383 96.0112871,2.76763791 95.3875248,2.47123055 C95.3875248,2.47123055 96.2073267,2.54138614 97.0984158,3.61652051 L97.7043564,3.71298444 C97.7043564,3.71298444 97.0877228,3.12718529 96.8952475,2.97635078 C96.7027723,2.82551627 96.729505,2.75886846 96.729505,2.75886846 C97.2254541,2.97469873 97.6506118,3.32205734 97.9574257,3.76209335 C97.9574257,3.76209335 99.1960396,4.02868458 99.2263366,3.96203678 Z" id="Path" fill="#6C63FF" opacity="0.1"></path>
                            <path d="M120.010099,9.0360396 C120.010099,9.0360396 117.835842,2.70274399 113.73505,5.19151344 C113.73505,5.19151344 112.897426,5.3669024 112.831485,6.19298444 C112.831485,6.19298444 113.161188,6.07371994 113.307327,6.74019802 C113.361621,6.97727475 113.44355,7.20738894 113.551485,7.42596888 C113.69878,7.7201339 113.938862,7.95948204 114.235842,8.10823197 L114.235842,8.10823197 C114.235842,8.10823197 115.68297,9.55519095 118.848119,9.07637907 C118.848119,9.07637907 119.68396,9.3254314 119.837228,9.23949081 L118.946139,8.37833098 C118.946139,8.37833098 118.329505,9.03954738 117.577426,9.01323904 C117.577426,9.01323904 118.937228,8.43094767 118.82495,8.24328147 C118.801782,8.20644979 118.336634,7.80831683 118.336634,7.80831683 C118.336634,7.80831683 117.256634,8.95360679 116.098218,8.87818953 C116.098218,8.87818953 117.810891,8.39762376 118.160198,7.65046676 L117.422376,7.09097595 C117.422376,7.09097595 116.342376,8.3572843 115.018218,8.31869873 C115.018218,8.31869873 116.800396,7.75570014 117.251287,6.97697313 L116.449307,6.5227157 C116.449307,6.5227157 115.38,7.73816124 114.271485,7.69957567 C114.271485,7.69957567 116.253267,6.8454314 116.258614,6.43151344 C116.258614,6.43151344 115.497624,6.05793494 115.246337,6.05442716 C115.246337,6.05442716 114.451485,6.90857143 113.820594,6.83140028 C113.820594,6.83140028 115.082376,6.12107496 115.028911,5.97550212 C115.028911,5.97550212 113.906139,5.74925035 113.273465,5.93165488 C113.845698,5.73558044 114.460094,5.69023211 115.055644,5.80011315 C114.852276,5.49125021 114.561807,5.24744805 114.219802,5.09855728 C114.219802,5.09855728 114.882772,4.93895332 115.326535,5.85799151 C115.326535,5.85799151 116.196238,6.07021216 116.288911,6.18070721 C116.288911,6.18070721 115.982376,5.214314 115.492277,4.74777935 C115.492277,4.74777935 116.288911,5.01261669 116.506337,6.29471004 L117.322574,6.73318246 C117.322574,6.73318246 116.985743,5.43355021 116.579406,4.97929279 C116.579406,4.97929279 117.351089,5.37216407 117.518614,6.85420085 L118.249307,7.39615276 C118.249307,7.39615276 118.046139,6.25261669 117.70396,5.65980198 C117.70396,5.65980198 118.338416,6.17544554 118.452475,7.5592645 L118.896238,7.97669024 C118.896238,7.97669024 118.732277,7.14534653 118.664554,6.91032532 C118.596832,6.6753041 118.652079,6.65951909 118.652079,6.65951909 C118.935393,7.11450251 119.085278,7.63775346 119.085149,8.17137199 C119.085149,8.17137199 119.947723,9.08164074 120.010099,9.0360396 Z" id="Path" fill="#6C63FF" opacity="0.1"></path>
                            <path d="M105.820396,9.34823197 C105.820396,9.34823197 99.0659406,8.60809052 99.6237624,13.3242999 C99.6237624,13.3242999 99.4223762,14.1416124 100.158416,14.5520226 C100.158416,14.5520226 100.188713,14.2012447 100.871287,14.3590948 C101.112511,14.4101744 101.358823,14.434297 101.605545,14.4310042 C101.93881,14.4250811 102.261029,14.3124013 102.523366,14.1100424 L102.523366,14.1100424 C102.523366,14.1100424 104.467723,13.4312871 105.374851,10.4058274 C105.374851,10.4058274 105.955842,9.76565771 105.943366,9.59202263 L104.77604,10.0164639 C104.77604,10.0164639 105.132475,10.8460537 104.77604,11.5055163 C104.77604,11.5055163 104.813465,10.0480339 104.597822,10.0708345 C104.553267,10.0708345 103.990099,10.3233946 103.990099,10.3233946 C103.990099,10.3233946 104.588911,11.7703536 104.029307,12.7788402 C104.029307,12.7788402 104.310891,11.0459972 103.774455,10.4216124 L102.945743,10.842546 C102.945743,10.842546 103.658614,12.3421216 103.061584,13.5067044 C103.061584,13.5067044 103.293267,11.6861669 102.771089,10.9477793 L102.013663,11.4739463 C102.013663,11.4739463 102.676634,12.9489675 102.175842,13.9153607 C102.175842,13.9153607 102.227525,11.7861386 101.847921,11.605488 C101.847921,11.605488 101.181386,12.1316549 101.072673,12.3491372 C101.072673,12.3491372 101.523564,13.4190099 101.183168,13.9539463 C101.183168,13.9539463 101.063762,12.5280339 100.906931,12.5140028 C100.906931,12.5140028 100.222574,13.4207638 100.122772,14.0609335 C100.184592,13.467422 100.40334,12.9002071 100.757228,12.415785 C100.387409,12.4660794 100.040551,12.6215169 99.7592079,12.8630269 C99.7592079,12.8630269 99.8910891,12.2053182 100.924752,12.1983027 C100.924752,12.1983027 101.486139,11.5125318 101.637624,11.4757001 C101.637624,11.4757001 100.616436,11.3406506 99.980198,11.5809335 C99.980198,11.5809335 100.559406,10.9811033 101.831881,11.3301273 L102.582178,10.7881754 C102.582178,10.7881754 101.225941,10.5180764 100.652079,10.6934653 C100.652079,10.6934653 101.34,10.1672984 102.776436,10.6496181 L103.583762,10.2269307 C103.583762,10.2269307 102.44495,9.92526167 101.755248,9.97963225 C101.755248,9.97963225 102.498416,9.62885431 103.81901,10.1146818 L104.392871,9.89544554 C104.392871,9.89544554 103.55703,9.69024045 103.311089,9.65165488 C103.065149,9.61306931 103.056238,9.5464215 103.056238,9.5464215 C103.595015,9.48558537 104.140379,9.57301293 104.631683,9.79898161 C104.631683,9.79898161 105.832871,9.42189533 105.820396,9.34823197 Z" id="Path" fill="#6C63FF" opacity="0.1"></path>
                            <path d="M164.917426,60.9424045 C164.917426,60.9424045 158.166535,60.2022631 158.724356,64.9132107 C158.724356,64.9132107 158.52297,65.7305233 159.25901,66.1409335 C159.25901,66.1409335 159.289307,65.7901556 159.971881,65.9462518 C160.212826,65.9990621 160.459344,66.0232048 160.706139,66.0181612 C161.039569,66.0131383 161.362071,65.9003594 161.62396,65.6971994 L161.62396,65.6971994 C161.62396,65.6971994 163.568317,65.0184441 164.466535,61.9947383 C164.466535,61.9947383 165.047525,61.3528147 165.03505,61.1809335 L163.867723,61.6036209 C163.867723,61.6036209 164.224158,62.4349646 163.867723,63.0944272 C163.867723,63.0944272 163.905149,61.6351909 163.689505,61.6597454 C163.64495,61.6597454 163.081782,61.9105516 163.081782,61.9105516 C163.081782,61.9105516 163.680594,63.3575106 163.12099,64.3659972 C163.12099,64.3659972 163.402574,62.6349081 162.866139,62.0087694 L162.037426,62.4314569 C162.037426,62.4314569 162.750297,63.9310325 162.15505,65.0956153 C162.15505,65.0956153 162.38495,63.2750778 161.862772,62.5349364 L161.105347,63.0611033 C161.105347,63.0611033 161.768317,64.5361245 161.267525,65.5007638 C161.267525,65.5007638 161.319208,63.3715417 160.939604,63.192645 C160.939604,63.192645 160.274851,63.7188119 160.164356,63.9362942 C160.164356,63.9362942 160.61703,65.0061669 160.274851,65.5411033 C160.274851,65.5411033 160.155446,64.1151909 159.998614,64.1011598 C159.998614,64.1011598 159.314257,65.0079208 159.214455,65.6480905 C159.276275,65.054579 159.495023,64.4873641 159.848911,64.002942 C159.478828,64.0523382 159.131719,64.2078881 158.850891,64.4501839 C158.850891,64.4501839 158.982772,63.7907214 160.016436,63.7837058 C160.016436,63.7837058 160.579604,63.0979349 160.729307,63.0628571 C160.729307,63.0628571 159.708119,62.9260537 159.071881,63.1663366 C159.071881,63.1663366 159.651089,62.5682603 160.925347,62.9172843 L161.673861,62.3753324 C161.673861,62.3753324 160.333663,62.1262801 159.750891,62.2981612 C159.750891,62.2981612 160.438812,61.7719943 161.875248,62.2525601 L162.682574,61.8316266 C162.682574,61.8316266 161.543762,61.5299576 160.854059,61.5843281 C160.854059,61.5843281 161.597228,61.2335502 162.917822,61.7193777 L163.491683,61.4983876 C163.491683,61.4983876 162.655842,61.2931825 162.409901,61.2563508 C162.16396,61.2195191 162.15505,61.1511174 162.15505,61.1511174 C162.693674,61.0891773 163.239185,61.1760211 163.730495,61.4019236 C163.730495,61.4019236 164.935248,61.0178218 164.917426,60.9424045 Z" id="Path" fill="#6C63FF" opacity="0.1"></path>
                            <path d="M175.23802,67.1476662 C175.23802,67.1476662 168.487129,66.4092786 169.04495,71.1184724 C169.04495,71.1184724 168.845347,71.935785 169.579604,72.3461952 C169.579604,72.3461952 169.609901,71.9954173 170.292475,72.1532673 C170.533003,72.2047773 170.778844,72.2283236 171.02495,72.2234229 C171.35669,72.2167418 171.677363,72.1047807 171.939208,71.904215 L171.939208,71.904215 C171.939208,71.904215 173.881782,71.2254597 174.78,68.2 C174.78,68.2 175.362772,67.5598303 175.348515,67.3861952 L174.181188,67.8088826 C174.181188,67.8088826 174.537624,68.6402263 174.181188,69.2996888 C174.181188,69.2996888 174.218614,67.8422065 174.00297,67.8650071 C173.958416,67.8650071 173.395248,68.1158133 173.395248,68.1158133 C173.395248,68.1158133 173.994059,69.5627723 173.434455,70.5712588 C173.434455,70.5712588 173.71604,68.8401697 173.179604,68.215785 L172.350891,68.6367185 C172.350891,68.6367185 173.063762,70.1362942 172.468515,71.3008769 C172.468515,71.3008769 172.698416,69.4803395 172.176238,68.7419519 L171.418812,69.2681188 C171.418812,69.2681188 172.081782,70.74314 171.582772,71.7095332 C171.582772,71.7095332 171.632673,69.5785573 171.253069,69.3996605 C171.253069,69.3996605 170.588317,69.9258274 170.477822,70.1433098 C170.477822,70.1433098 170.930495,71.2131825 170.588317,71.7481188 C170.588317,71.7481188 170.468911,70.3222065 170.312079,70.3081754 C170.312079,70.3081754 169.627723,71.2149364 169.529703,71.8551061 C169.591401,71.261855 169.809491,70.6947535 170.162376,70.2099576 C169.792558,70.260252 169.445699,70.4156894 169.164356,70.6571994 C169.164356,70.6571994 169.29802,69.9977369 170.331683,69.9924752 C170.331683,69.9924752 170.893069,69.3067044 171.044554,69.2698727 C171.044554,69.2698727 170.023366,69.1348232 169.387129,69.3751061 C169.387129,69.3751061 169.966337,68.7752758 171.240594,69.1242999 L171.989109,68.5823479 C171.989109,68.5823479 170.648911,68.3332956 170.066139,68.5051768 C170.066139,68.5051768 170.754059,67.9790099 172.190495,68.4613296 L172.997822,68.0386421 C172.997822,68.0386421 171.85901,67.7369731 171.169307,67.7913437 C171.169307,67.7913437 171.912475,67.4405658 173.233069,67.9263932 L173.806931,67.707157 C173.806931,67.707157 172.971089,67.5019519 172.726931,67.4633663 C172.482772,67.4247808 172.470297,67.358133 172.470297,67.358133 C173.009074,67.2972968 173.554439,67.3847244 174.045743,67.6106931 C174.045743,67.6106931 175.255842,67.2230835 175.23802,67.1476662 Z" id="Path" fill="#6C63FF" opacity="0.1"></path>
                            <path d="M152.324554,14.88 C152.324554,14.88 146.885347,10.8758699 144.94099,15.213239 C144.94099,15.213239 144.347525,15.818331 144.773465,16.5426874 C144.773465,16.5426874 144.976634,16.2603112 145.486337,16.7285997 C145.666875,16.8938929 145.866684,17.0375447 146.081584,17.1565488 C146.372706,17.3159314 146.70871,17.3775089 147.038614,17.3319378 L147.038614,17.3319378 C147.038614,17.3319378 149.063168,17.7160396 151.39604,15.5570014 C151.39604,15.5570014 152.226535,15.293918 152.30495,15.1395757 L151.080594,14.9220934 C151.080594,14.9220934 150.952277,15.8113154 150.319604,16.2094484 C150.319604,16.2094484 151.10198,14.9712023 150.898812,14.8817539 C150.857822,14.8624611 150.246535,14.7940594 150.246535,14.7940594 C150.246535,14.7940594 150.016634,16.3409901 149.018614,16.9250354 C149.018614,16.9250354 150.153861,15.5727864 150.013069,14.7659972 L149.08099,14.7168883 C149.08099,14.7168883 148.922376,16.3637907 147.810297,17.0723621 C147.810297,17.0723621 148.947327,15.6183876 148.879604,14.720396 L147.956436,14.7940594 C147.956436,14.7940594 147.778218,16.3953607 146.840792,16.9776521 C146.840792,16.9776521 147.981386,15.1676379 147.746139,14.8238755 C147.746139,14.8238755 146.903168,14.9413861 146.694653,15.0781895 C146.694653,15.0781895 146.534257,16.2252334 145.96396,16.5163791 C145.96396,16.5163791 146.594851,15.2272702 146.466535,15.1378218 C146.466535,15.1378218 145.409703,15.5780481 144.994455,16.0796605 C145.353663,15.5993803 145.834058,15.2197132 146.388119,14.9782178 C146.043383,14.8372111 145.664346,14.7982024 145.297426,14.8659689 C145.297426,14.8659689 145.751881,14.3643564 146.646535,14.8747383 C146.646535,14.8747383 147.482376,14.5642999 147.62495,14.6028854 C147.62495,14.6028854 146.814059,13.9767468 146.142178,13.8680057 C146.142178,13.8680057 146.951287,13.64 147.869109,14.5695615 L148.794059,14.4766054 C148.794059,14.4766054 147.767525,13.5996605 147.175842,13.4523338 C147.175842,13.4523338 148.036634,13.3453465 149.029307,14.4713437 L149.943564,14.5116832 C149.943564,14.5116832 149.116634,13.6838472 148.494653,13.385686 C148.494653,13.385686 149.314455,13.4558416 150.203762,14.530976 L150.811485,14.6274399 C150.811485,14.6274399 150.196634,14.0346252 150.004158,13.8802829 C149.811683,13.7259406 149.840198,13.6750778 149.840198,13.6750778 C150.335295,13.8914977 150.759728,14.2387679 151.066337,14.6783027 C151.066337,14.6783027 152.301386,14.9519095 152.324554,14.88 Z" id="Path" fill="#6C63FF" opacity="0.1"></path>
                            <path d="M156.526931,43.7876096 C156.526931,43.7876096 154.652079,37.3631117 150.435446,39.6694767 C150.435446,39.6694767 149.590693,39.7975106 149.485545,40.6288543 C149.485545,40.6288543 149.820594,40.5253748 149.936436,41.1971146 C149.979391,41.4384411 150.051176,41.6739261 150.150297,41.8986704 C150.282488,42.2008971 150.51158,42.4522255 150.802574,42.6142574 L150.802574,42.6142574 C150.802574,42.6142574 152.18198,44.1226025 155.36495,43.7858557 C155.36495,43.7858557 156.188317,44.0699859 156.345149,43.9928147 L155.502178,43.0913154 C155.502178,43.0913154 154.855248,43.7262235 154.106733,43.6665912 C154.106733,43.6665912 155.489703,43.1404243 155.382772,42.9527581 C155.361386,42.9141726 154.915842,42.4949929 154.915842,42.4949929 C154.915842,42.4949929 153.785941,43.5929279 152.631089,43.4648939 C152.631089,43.4648939 154.365149,43.0614993 154.746535,42.335389 L154.033663,41.7425743 C154.033663,41.7425743 152.896634,42.9597737 151.57604,42.8650636 C151.57604,42.8650636 153.372475,42.3792362 153.867921,41.6233098 L153.087327,41.1339745 C153.087327,41.1339745 151.955644,42.3003112 150.857822,42.2126167 C150.857822,42.2126167 152.87703,41.4461669 152.90198,41.0340028 C152.90198,41.0340028 152.15703,40.6271004 151.905743,40.6130693 C151.905743,40.6130693 151.073465,41.4303819 150.440792,41.3251485 C150.440792,41.3251485 151.734653,40.6709477 151.688317,40.5236209 C151.688317,40.5236209 150.576238,40.2482603 149.936436,40.4008487 C150.515906,40.2317436 151.13016,40.214213 151.718614,40.3499859 C151.530127,40.0326298 151.251326,39.776546 150.916634,39.6133522 C150.916634,39.6133522 151.586733,39.4818105 151.985941,40.4201414 C151.985941,40.4201414 152.843168,40.6691938 152.932277,40.7849505 C152.932277,40.7849505 152.670297,39.8045262 152.201584,39.3186987 C152.201584,39.3186987 152.985743,39.61686 153.144356,40.9077228 L153.939208,41.3830269 C153.939208,41.3830269 153.661188,40.0676096 153.276238,39.6045827 C153.276238,39.6045827 154.028317,40.0307779 154.129901,41.5180764 L154.842772,42.0915983 C154.842772,42.0915983 154.691287,40.9410467 154.377624,40.3377086 C154.377624,40.3377086 154.988911,40.8814144 155.038812,42.2669873 L155.46297,42.7054597 C155.46297,42.7054597 155.338218,41.8671004 155.284752,41.6285714 C155.231287,41.3900424 155.284752,41.3567185 155.284752,41.3567185 C155.548477,41.8232393 155.674984,42.3528169 155.650099,42.8861103 C155.650099,42.8861103 156.462772,43.829703 156.526931,43.7876096 Z" id="Path" fill="#6C63FF" opacity="0.1"></path>
                            <path d="M114.749109,58.264215 C114.749109,58.264215 111.108119,52.620198 107.727327,55.9981895 C107.727327,55.9981895 106.953861,56.3489675 107.089307,57.1820651 C107.089307,57.1820651 107.383366,56.9891372 107.686337,57.6029986 C107.795202,57.8205443 107.930444,58.0243105 108.089109,58.2098444 C108.301606,58.4630759 108.592784,58.640556 108.917822,58.7149646 L108.917822,58.7149646 C108.917822,58.7149646 110.673267,59.7813296 113.631683,58.5746535 C113.631683,58.5746535 114.503168,58.6202546 114.631485,58.502744 L113.562178,57.8713437 C113.562178,57.8713437 113.12198,58.6605941 112.385941,58.8096747 C112.385941,58.8096747 113.565743,57.9327298 113.407129,57.771372 C113.376832,57.739802 112.827921,57.4626874 112.827921,57.4626874 C112.827921,57.4626874 112.056238,58.8272136 110.912079,59.0254031 C110.912079,59.0254031 112.460792,58.1572277 112.621188,57.3539463 L111.767525,56.9838755 C111.767525,56.9838755 111.024356,58.4659123 109.730495,58.7377652 C109.730495,58.7377652 111.316634,57.7748798 111.57505,56.9119661 L110.68396,56.6594059 C110.68396,56.6594059 109.931881,58.0923338 108.853663,58.31157 C108.853663,58.31157 110.571683,57.0171994 110.477228,56.6138048 C110.477228,56.6138048 109.646733,56.4296464 109.407921,56.4857709 C109.407921,56.4857709 108.84297,57.501273 108.20495,57.5749364 C108.20495,57.5749364 109.26,56.5892504 109.172673,56.4594625 C109.172673,56.4594625 108.026733,56.5033098 107.456436,56.8277793 C107.965151,56.5034401 108.551359,56.3159767 109.156634,56.2840736 C108.885641,56.03166 108.545534,55.8627814 108.178218,55.7982461 C108.178218,55.7982461 108.782376,55.4878076 109.425743,56.277058 C109.425743,56.277058 110.316832,56.277058 110.439802,56.3647525 C110.439802,56.3647525 109.905149,55.4878076 109.318812,55.1598303 C109.318812,55.1598303 110.156436,55.2299859 110.676832,56.4243847 L111.576832,56.6594059 C111.576832,56.6594059 110.933465,55.4755304 110.432673,55.1370297 C110.432673,55.1370297 111.275644,55.3369731 111.797822,56.738331 L112.63901,57.0891089 C112.63901,57.0891089 112.16495,56.0280057 111.689109,55.5316549 C111.689109,55.5316549 112.430495,55.8824328 112.874257,57.199604 L113.408911,57.5030269 C113.408911,57.5030269 113.052475,56.7330693 112.925941,56.5208487 C112.799406,56.308628 112.849307,56.2595191 112.849307,56.2595191 C113.23496,56.6344088 113.507078,57.107459 113.635248,57.6257992 C113.635248,57.6257992 114.70099,58.3238472 114.749109,58.264215 Z" id="Path" fill="#6C63FF" opacity="0.1"></path>
                            <path d="M138.678416,29.426761 C138.678416,29.426761 135.215644,23.6757567 131.727921,26.9485149 C131.727921,26.9485149 130.943762,27.2817539 131.054257,28.1130976 C131.054257,28.1130976 131.351881,27.9271853 131.63703,28.5498161 C131.738997,28.7711447 131.867644,28.9796007 132.020198,29.1706931 C132.224853,29.4293347 132.510514,29.6142864 132.832871,29.69686 L132.832871,29.69686 C132.832871,29.69686 134.552673,30.8158416 137.548515,29.69686 C137.548515,29.69686 138.418218,29.7687694 138.550099,29.6547666 L137.50396,28.9917963 C137.50396,28.9917963 137.040594,29.7652617 136.299208,29.8932956 C136.299208,29.8932956 137.505743,29.0461669 137.354257,28.8865629 C137.322178,28.853239 136.78396,28.5585856 136.78396,28.5585856 C136.78396,28.5585856 135.969505,29.9003112 134.823564,30.0634229 C134.823564,30.0634229 136.39901,29.2426025 136.582574,28.4463366 L135.741386,28.0569731 C135.741386,28.0569731 134.951881,29.5179632 133.649109,29.7512306 C133.649109,29.7512306 135.265545,28.837454 135.550693,27.9833098 L134.670297,27.7026874 C134.670297,27.7026874 133.871881,29.1057992 132.788317,29.298727 C132.788317,29.298727 134.545545,28.0569731 134.463564,27.6518246 C134.463564,27.6518246 133.640198,27.4413579 133.394257,27.4904668 C133.394257,27.4904668 132.797228,28.48843 132.157426,28.5428006 C132.157426,28.5428006 133.242772,27.5921924 133.160792,27.4588967 C133.160792,27.4588967 132.013069,27.4676662 131.433861,27.7745969 C131.952719,27.4665999 132.544324,27.2973164 133.150099,27.2835078 C132.886675,27.0227869 132.55154,26.8435525 132.185941,26.7678642 C132.185941,26.7678642 132.800792,26.4749646 133.433465,27.2835078 C133.433465,27.2835078 134.324554,27.3133239 134.44396,27.4027723 C134.44396,27.4027723 133.939604,26.5258274 133.362178,26.1645262 C133.362178,26.1645262 134.196238,26.2592362 134.679208,27.4694201 L135.570297,27.7325035 C135.570297,27.7325035 134.966139,26.5293352 134.474257,26.1750495 C134.474257,26.1750495 135.311881,26.4013013 135.789505,27.8166902 L136.618218,28.1972843 C136.618218,28.1972843 136.17802,27.1221499 135.727129,26.6187836 C135.727129,26.6187836 136.45604,26.9923621 136.860594,28.3218105 L137.382772,28.6410184 C137.382772,28.6410184 137.047723,27.8605375 136.930099,27.6448091 C136.812475,27.4290806 136.862376,27.3817256 136.862376,27.3817256 C137.235953,27.7681439 137.493223,28.2490166 137.605545,28.7708062 C137.605545,28.7708062 138.626733,29.4846393 138.678416,29.426761 Z" id="Path" fill="#6C63FF"></path>
                            <path d="M116.770099,41.5198303 C116.770099,41.5198303 116.948317,34.8375106 112.230891,35.7793494 C112.230891,35.7793494 111.386139,35.6513154 111.029703,36.4125035 C111.029703,36.4125035 111.386139,36.4125035 111.286337,37.0877511 C111.253688,37.3285259 111.250099,37.5722565 111.275644,37.8138614 C111.307861,38.1415712 111.448773,38.4497385 111.676634,38.6908062 L111.676634,38.6908062 C111.676634,38.6908062 112.526733,40.5394059 115.665149,41.1672984 C115.665149,41.1672984 116.36198,41.6846959 116.536634,41.6566337 L116.00198,40.5481754 C116.00198,40.5481754 115.191089,40.9585856 114.494257,40.6797171 C114.494257,40.6797171 115.973465,40.5937765 115.932475,40.379802 C115.932475,40.3359547 115.625941,39.8027723 115.625941,39.8027723 C115.625941,39.8027723 114.210891,40.5130976 113.150495,40.0465629 C113.150495,40.0465629 114.932673,40.1781047 115.515446,39.601075 L115.018218,38.8241018 C115.018218,38.8241018 113.560396,39.6449222 112.330693,39.1608487 C112.330693,39.1608487 114.193069,39.234512 114.898812,38.6609901 L114.305347,37.9594342 C114.305347,37.9594342 112.867129,38.7346535 111.847723,38.3242433 C111.847723,38.3242433 114.007723,38.1962093 114.164554,37.8085997 C114.164554,37.8085997 113.58,37.2 113.344752,37.1070438 C113.344752,37.1070438 112.300396,37.6332107 111.730099,37.3490806 C111.730099,37.3490806 113.155842,37.1140594 113.164752,36.9579632 C113.164752,36.9579632 112.189901,36.3633946 111.532277,36.3195474 C112.138681,36.3302168 112.731651,36.4971206 113.252079,36.8036209 C113.170883,36.4451262 112.985057,36.1177767 112.717426,35.8617822 C112.717426,35.8617822 113.396436,35.9371994 113.489109,36.9491938 C113.489109,36.9491938 114.232277,37.4437907 114.280396,37.5805941 C114.280396,37.5805941 114.332079,36.5685997 114.034455,35.9652617 C114.034455,35.9652617 114.690297,36.4826591 114.444356,37.7594908 L115.055644,38.4505233 C115.055644,38.4505233 115.194653,37.1140594 114.971881,36.5580764 C114.971881,36.5580764 115.556436,37.1877228 115.196436,38.6364356 L115.690099,39.3923621 C115.690099,39.3923621 115.900396,38.2505799 115.788119,37.5788402 C115.788119,37.5788402 116.201584,38.280396 115.823762,39.6151061 L116.094653,40.1588119 C116.094653,40.1588119 116.231881,39.3222065 116.249703,39.0784158 C116.267525,38.8346252 116.335248,38.8188402 116.335248,38.8188402 C116.44253,39.3420419 116.399955,39.8842911 116.212277,40.3850636 C116.212277,40.3850636 116.691683,41.5426308 116.770099,41.5198303 Z" id="Path" fill="#6C63FF"></path>
                            <ellipse id="Oval" fill="#6C63FF" opacity="0.1" cx="124.568911" cy="125.631117" rx="4.79940594" ry="1"></ellipse>
                            <ellipse id="Oval" fill="#6C63FF" opacity="0.1" cx="107.073267" cy="137.746987" rx="4.79940594" ry="1"></ellipse>
                            <ellipse id="Oval" fill="#6C63FF" opacity="0.1" cx="143.47604" cy="136.948967" rx="4.79940594" ry="1"></ellipse>
                            <ellipse id="Oval" fill="#6C63FF" cx="148.473267" cy="126.823762" rx="7.16613861" ry="1.19264498"></ellipse>
                            <path d="M151.444158,124.871683 C151.771299,124.61008 152.009447,124.256386 152.126733,123.857935 C152.215842,123.45454 152.041188,122.972221 151.650891,122.824894 C151.212475,122.660028 150.743762,122.95819 150.387327,123.259859 C150.030891,123.561528 149.626337,123.907044 149.161188,123.843904 C149.646882,123.409683 149.865983,122.756825 149.738614,122.123338 C149.718421,121.994273 149.662981,121.87303 149.578218,121.77256 C149.334059,121.516492 148.893861,121.626987 148.601584,121.828685 C147.674851,122.470608 147.416436,123.708854 147.411089,124.824328 C147.318416,124.422687 147.396832,124.003508 147.39505,123.596605 C147.393267,123.189703 147.277426,122.719661 146.922772,122.505686 C146.705082,122.386231 146.459101,122.325712 146.209901,122.330297 C145.792871,122.316266 145.327723,122.356605 145.044356,122.656521 C144.687921,123.028345 144.782376,123.654484 145.088911,124.059632 C145.395446,124.464781 145.864158,124.72611 146.295446,125.01024 C146.640625,125.2131 146.93534,125.489355 147.15802,125.818784 C147.183396,125.86467 147.204282,125.912826 147.220396,125.962603 L149.833069,125.962603 C150.417969,125.672688 150.959987,125.30567 151.444158,124.871683 Z" id="Path" fill="#6C63FF"></path>
                        </g>
                        <g id="undraw_superhero_kguv" transform="translate(27.000000, 23.750000)">
                            <path d="M109.962741,28.8168638 C109.632123,28.5491436 109.323257,28.2558772 109.039023,27.9397966 C109.039023,28.0151503 109.039023,28.0905039 109.039023,28.1658576 C106.783113,25.8756005 106.862572,23.1011036 107.786291,20.5699618 L108.091714,20.457549 C109.541853,16.6429245 112.865503,13.4434823 112.865503,13.4434823 L112.36888,13.6510137 C112.522833,13.4928945 112.610983,13.4039525 112.610983,13.4039525 C92.0011302,22.1511533 77.6611421,22.6613347 76.0620162,22.690982 C75.0762196,22.3203902 66.953951,19.3778917 59.0961341,18.2809401 C56.6241933,17.9239367 54.1696343,17.7448173 51.9646283,17.8831716 L49.4889629,7.30771809 L49.4417837,7.33613012 C49.3263188,6.42941562 48.8979815,4.45539685 47.3311361,3.23120874 C45.2391118,1.60554622 46.7972664,9.08532322 46.7972664,9.08532322 L46.9686013,9.00502834 L47.8451409,18.4230002 L47.4180451,18.7787683 C44.9414257,19.5132948 42.3856707,19.9516233 39.8048151,20.0844866 C40.2807188,19.6465299 40.6727828,19.1262706 40.9619466,18.5490014 C41.2995024,18.6183017 41.6495153,18.5148931 41.8943562,18.2735282 C41.9756889,18.1883857 42.0446435,18.0923353 42.0992132,17.9881726 C42.2132288,17.8048735 42.3049208,17.6087284 42.3723558,17.4038729 C42.8863606,16.0302128 43.4475445,14.6528468 43.6139132,13.1976564 C43.7802819,11.7424661 43.5071393,10.1637452 42.5225842,9.07297017 C41.5380292,7.98219509 39.7427372,7.56713232 38.5371849,8.40961092 C38.225554,8.62702475 37.9611023,8.91608632 37.6184325,9.08161731 C36.5742827,9.58438679 35.4159096,8.76908492 34.4437702,8.13907893 C33.3139529,7.40654256 31.8216009,6.88153756 30.6508123,7.54613212 C30.2853622,7.75754591 29.9848608,8.06422248 29.7817221,8.43308173 C29.4606207,8.93944122 29.3097388,9.5343058 29.3509017,10.1316273 C29.4179458,11.0914599 29.9381583,11.9845861 30.634672,12.64671 C30.8686149,12.8909692 31.1563413,13.0778742 31.4752064,13.1927152 C31.556352,13.2175277 31.6393984,13.2357059 31.7235179,13.2470687 C30.9392079,14.4278074 30.6595503,15.8706154 30.9463029,17.2568715 L30.5129994,19.8658375 C30.1281166,20.0449568 29.9133272,20.4365488 29.7928961,20.8194936 C27.9814638,20.8726118 26.1278186,22.1079176 26.1278186,22.1079176 L19.0087284,29.1911615 C17.1625325,30.4375851 18.415264,32.7327834 18.415264,32.7327834 L22.5682735,45.1290777 L22.7979616,44.9586055 C23.64967,46.5027378 26.1501666,50.7645431 26.6306494,48.639817 C27.217906,46.0654396 25.389092,43.7282409 25.389092,43.7282409 L25.3667439,43.7282409 L24.8937105,43.122941 L23.1555302,33.9075592 L25.3543283,31.7346562 L28.309235,31.3060051 L28.4408401,50.3877748 C23.0350991,64.5554977 23.6943661,71.0482653 23.6943661,71.0482653 L28.4408401,88.7576102 L29.0467201,88.6575504 L29.1932239,89.2406148 L29.2466108,89.2220852 L29.509821,90.5290388 L29.0355461,90.5290388 L28.4420816,92.3004674 C28.4420816,92.3004674 25.4101984,92.2349962 25.476001,92.8909436 C25.5418035,93.546891 27.1905918,94.6623722 31.4094038,93.4814198 L32.5963327,92.3004674 C32.5963327,92.3004674 33.1897972,91.7099912 32.0028683,90.5290388 L31.9184424,90.5290388 L31.5894297,88.2363111 L32.0028683,88.167134 L28.4408401,70.4540832 C31.4069207,68.0267072 36.7468592,58.6482651 36.7468592,58.6482651 C36.7468592,58.6482651 42.085556,68.0279425 45.0528782,70.4540832 L41.4933331,88.1621928 L41.9067718,88.2313699 L41.5827253,90.5240976 L41.4982994,90.5240976 C40.3113705,91.70505 40.9048349,92.2955262 40.9048349,92.2955262 L42.0917638,93.4764786 C46.313059,94.657431 47.9593641,93.5419498 48.0251667,92.8860024 C48.0909692,92.230055 45.059086,92.2955262 45.059086,92.2955262 L44.4656216,90.5240976 L43.9913467,90.5240976 L44.3327749,88.8243167 L44.3936113,88.6427267 L45.059086,88.752669 L49.80556,71.0433241 C49.80556,71.0433241 49.7174094,60.8112856 45.1087483,48.0209287 L54.5768651,61.2312896 L62.0684226,72.9839896 C62.4647819,72.0335513 62.9524961,71.1234332 63.5247694,70.2663167 L68.9454091,65.2275041 C75.2463129,61.4981157 83.6578644,61.2745253 88.8525406,61.5821165 L93.6424691,62.097239 L95.8946542,50.2926562 C97.2069804,48.6114049 99.154984,47.1611559 101.986976,46.0765573 C107.862026,43.8283006 112.788526,39.0550788 112.748796,34.4140346 C112.834464,34.5091532 112.917648,34.6042718 112.997108,34.7006256 C113.057944,32.6475473 112.162781,30.6092926 109.962741,28.8168638 Z M44.9349303,46.3273244 L44.9287225,46.1099106 L45.2018651,46.5373264 L44.9349303,46.3273244 Z" id="Shape" fill="url(#linearGradient-1)" fill-rule="nonzero"></path>
                            <path d="M26.0398917,44.210486 L26.0236591,44.210486 L25.2580234,43 L24.018938,44.5189112 L24.1560129,44.7709576 L24,44.8173872 C24,44.8173872 26.500716,50.7382666 26.9173518,48.4908529 C27.3339875,46.2434392 26.0398917,44.210486 26.0398917,44.210486 Z" id="Path" fill="#FDB797" fill-rule="nonzero"></path>
                            <path d="M32.8800745,20.9249102 C32.8800745,20.9249102 39.0880123,22.7954802 47.7805983,19.9890087 C56.4731843,17.1825372 74.4770631,24.0421158 74.4770631,24.0421158 C74.4770631,24.0421158 88.7564248,24.0421158 109.866114,15 C109.866114,15 100.243012,24.354083 107.072112,29.967026 C113.901212,35.579969 107.693274,43.6861832 99.6218504,46.8046219 C91.5504265,49.9230606 90.930492,56.1587048 91.5504265,62.083615 C92.170361,68.0085252 91.5504265,62.3955822 91.5504265,62.3955822 C91.5504265,62.3955822 67.3373823,58.0305079 61.1282169,73 L30.3966539,24.355316 C30.3966539,24.355316 28.5343953,20.6141761 32.8800745,20.9249102 Z" id="83eae6ee-46c5-4585-a2a2-a187faac01c1" fill="#6C63FF" fill-rule="nonzero"></path>
                            <g id="Clipped" transform="translate(49.000000, 23.000000)">
                                <mask id="mask-3" fill="white">
                                    <use xlink:href="#path-2"></use>
                                </mask>
                                <g id="c8ed4358-d450-436c-89b2-67b880a93208"></g>
                                <g id="Group" mask="url(#mask-3)" fill="#000000" fill-rule="nonzero" opacity="0.1">
                                    <g transform="translate(-30.552147, -12.067941)" id="Path">
                                        <polygon points="0.0564417178 0.0221656051 77.3141104 55.7612739 81.9680982 42.0604671"></polygon>
                                        <polygon points="4.71042945 17.4603397 47.5276074 61.0551592 53.7337423 56.3843737"></polygon>
                                    </g>
                                </g>
                            </g>
                            <g id="Group" opacity="0.1" transform="translate(30.000000, 14.000000)" fill="#000000" fill-rule="nonzero">
                                <path d="M4.47202648,10.4776331 C4.47202648,10.4776331 10.6883645,12.3626627 19.3927129,9.53449704 C28.0970613,6.70633136 46.1228437,13.6201775 46.1228437,13.6201775 C46.1228437,13.6201775 57.690125,13.6201775 75.3963013,6.98964497 C76.7964217,3.24692308 80.0047749,0.108106509 80.0047749,0.108106509 C58.8616041,9.22011834 44.5678373,9.22011834 44.5678373,9.22011834 C44.5678373,9.22011834 26.5383671,2.30751479 17.835248,5.13568047 C9.13212883,7.96384615 2.91456151,6.07881657 2.91456151,6.07881657 C-1.43699806,5.76443787 0.427780433,9.53573964 0.427780433,9.53573964 L1.70743397,11.5748521 C1.97418211,10.8876923 2.71788085,10.3508876 4.47202648,10.4776331 Z" id="Path"></path>
                                <path d="M77.2106803,15.1908284 C76.8912385,14.9279838 76.5928313,14.6400472 76.3182418,14.3297041 C76.2469451,16.1849112 76.880011,18.0301775 78.7644575,19.589645 C79.2666715,20.0003678 79.7270575,20.4607583 80.1387636,20.9639645 C80.1989971,18.9484615 79.3348314,16.9478698 77.2106803,15.1908284 Z" id="Path"></path>
                            </g>
                            <polygon id="Path" fill="#FDB797" fill-rule="nonzero" points="44 86.8568802 43.4002574 89 41 89 41.6010296 86"></polygon>
                            <polygon id="Path" fill="#000000" fill-rule="nonzero" opacity="0.1" points="44 86.5 43.8005076 87 41 86.3337563 41.1994924 86"></polygon>
                            <polygon id="Path" fill="#FDB797" fill-rule="nonzero" points="29 86.8568802 29.6 89 32 89 31.4 86"></polygon>
                            <polygon id="Path" fill="#000000" fill-rule="nonzero" opacity="0.1" points="29 86.4287269 29.1993912 87 32 86.2861806 32 86"></polygon>
                            <path d="M50,7.75432702 C50,7.75432702 49.9387584,4.83567899 48.0061156,3.22892327 C46.0734727,1.62216755 47.5197161,9 47.5197161,9 L50,7.75432702 Z" id="Path" fill="#FDB797" fill-rule="nonzero"></path>
                            <path d="M33.1837935,89 L29.9189673,89 L29.266002,90.5316081 C29.266002,90.5316081 25.9283128,90.4747198 26.0011758,91.0414148 C26.0740389,91.6081098 27.8872085,92.5730229 32.5308282,91.5512215 L33.8367587,90.5316081 C33.8367587,90.5316081 34.4897239,90.0196134 33.1837935,89 Z" id="Path" fill="#333333" fill-rule="nonzero"></path>
                            <path d="M40.8162065,89 L44.0810327,89 L44.733998,90.5316081 C44.733998,90.5316081 48.0716872,90.4747198 47.9988242,91.0414148 C47.9259611,91.6081098 46.1127915,92.5730229 41.4691718,91.5512215 L40.1632413,90.5316081 C40.1632413,90.5316081 39.5102761,90.0196134 40.8162065,89 Z" id="Path" fill="#333333" fill-rule="nonzero"></path>
                            <path d="M44.4383917,50 L28.5612684,50 C23.3938404,63.6600541 24.024252,69.9215738 24.024252,69.9215738 L28.5612684,86.9963361 L31.9688987,86.4272181 L28.5612684,69.3561196 C31.3969036,67.0161407 36.5022641,57.9725376 36.5022641,57.9725376 C36.5022641,57.9725376 41.6051905,67.0112556 44.4383917,69.3561196 L41.0307614,86.430882 L44.4383917,87 L48.9754081,69.9252377 C48.9754081,69.9252377 49.6094707,63.6600541 44.4383917,50 Z" id="Path" fill="#333333" fill-rule="nonzero"></path>
                            <path d="M29,51 C29,51 38.0734922,53.25 45,51 L29,51 Z" id="Path" fill="#000000" fill-rule="nonzero" opacity="0.1"></path>
                            <path d="M28.0764122,29.2678945 L23.2481556,33.9281479 L25.061342,43.2499048 L22.6472137,45 L18.4224892,32.7655847 C18.4224892,32.7655847 17.1480781,30.5004615 19.0260213,29.2653944 L26.2697013,22.2737642 C26.2697013,22.2737642 29.378021,20.2636549 31.5149909,21.2937109 C33.6519607,22.3237669 28.0349679,29.1941405 28.0349679,29.1941405" id="Path" fill="#3AD29F" fill-rule="nonzero"></path>
                            <path d="M29,29.5035446 L29.5719523,50.4466264 C29.5719523,50.4466264 38.6544564,53.941717 45.5878437,50.4466264 L45.0158914,30.7318193 L44.8698349,30.0802345 L44.9753883,29.7594351 L51.8486347,23.9625778 C53.7326406,22.9078094 52.7372472,20.5411338 52.7372472,20.5411338 L49.8652122,8 L47.4264371,9.52036439 L48.2855929,18.9496194 L43.3908596,23.0788192 L43.268123,23.072578 L43.268123,23.1037841 L30.7207663,22.5233495" id="Path" fill="#3AD29F" fill-rule="nonzero"></path>
                            <rect id="Rectangle" fill="#FDB797" fill-rule="nonzero" x="34" y="19" width="5" height="5" rx="2.5"></rect>
                            <path d="M35,20.6225621 C36.6648193,21.2964596 38.503405,21.0596613 40,19.9785935 C39.6264789,18.793383 38.6552392,18.003648 37.5666667,18 L37.5666667,18 C36.2650435,18.0051692 35.1677426,19.1263665 35,20.6225621 L35,20.6225621 Z" id="Path" fill="#000000" fill-rule="nonzero" opacity="0.1"></path>
                            <circle id="Oval" fill="#FDB797" fill-rule="nonzero" cx="36" cy="17" r="5"></circle>
                            <path d="M33.0727609,13.773991 C32.7465899,13.8148948 32.4156495,13.7963373 32.0961754,13.7192289 C31.7825882,13.6059798 31.4997202,13.4219299 31.2698338,13.1815644 C30.5837199,12.5269082 30.0728905,11.6532035 30.0065328,10.7098016 C29.9401751,9.76639966 30.3821426,8.76699102 31.2047281,8.29902383 C32.3565982,7.6468568 33.8252325,8.16211854 34.9357855,8.88149363 C35.8910865,9.50379041 37.0316883,10.3015749 38.0583551,9.80747125 C38.3951519,9.64567408 38.6555747,9.36066215 38.9623227,9.14783665 C40.1479977,8.32018192 41.9133638,8.72840862 42.8811851,9.80000369 C43.8490063,10.8715988 44.1206974,12.4223624 43.9541771,13.853645 C43.7876567,15.2849276 43.2367624,16.6378008 42.7309411,17.9869402 C42.6522273,18.2531561 42.5187841,18.5002332 42.3390549,18.7125383 C41.7230548,19.3410581 40.5699327,18.8531774 40.1642741,18.0740618 C39.4593797,16.7186994 40.1642741,14.3689067 38.4990706,13.5785898 C37.173168,12.9513146 34.4963221,13.6818911 33.0727609,13.773991 Z" id="Path" fill="#000000" fill-rule="nonzero" opacity="0.1"></path>
                            <path d="M33.0727609,13.773991 C32.7465899,13.8148948 32.4156495,13.7963373 32.0961754,13.7192289 C31.7825882,13.6059798 31.4997202,13.4219299 31.2698338,13.1815644 C30.5837199,12.5269082 30.0728905,11.6532035 30.0065328,10.7098016 C29.9401751,9.76639966 30.3821426,8.76699102 31.2047281,8.29902383 C32.3565982,7.6468568 33.8252325,8.16211854 34.9357855,8.88149363 C35.8910865,9.50379041 37.0316883,10.3015749 38.0583551,9.80747125 C38.3951519,9.64567408 38.6555747,9.36066215 38.9623227,9.14783665 C40.1479977,8.32018192 41.9133638,8.72840862 42.8811851,9.80000369 C43.8490063,10.8715988 44.1206974,12.4223624 43.9541771,13.853645 C43.7876567,15.2849276 43.2292502,16.6378008 42.7284371,17.9869402 C42.6497233,18.2531561 42.51628,18.5002332 42.3365508,18.7125383 C41.7205508,19.3410581 40.5674286,18.8531774 40.16177,18.0740618 C39.4568756,16.7186994 40.16177,14.3689067 38.4965665,13.5785898 C37.1769241,12.9513146 34.49507,13.6831356 33.0727609,13.773991 Z" id="Path" fill="#333333" fill-rule="nonzero"></path>
                            <ellipse id="Oval" fill="#FDB797" fill-rule="nonzero" cx="39.5" cy="16.5" rx="1" ry="1.5"></ellipse>
                            <polygon id="Path" fill="#000000" fill-rule="nonzero" opacity="0.1" points="29 29 30 29.831 29 32"></polygon>
                            <polygon id="Path" fill="#000000" fill-rule="nonzero" opacity="0.1" points="44.9471154 29 44 30.5793269 44.6310096 32 45 30.4206731"></polygon>
                            <path d="M38,24.0996441 L38,25 C38,25 30.1987315,23.8007117 30,22 L35.1486963,22.3001186 L38,24.0996441 Z" id="Path" fill="#6C63FF" fill-rule="nonzero"></path>
                            <path d="M36,24.0996441 L36,25 C36,25 43.8012685,23.8007117 44,22 L38.8513037,22.3001186 L36,24.0996441 Z" id="Path" fill="#6C63FF" fill-rule="nonzero"></path>
                            <polygon id="Path" fill="#000000" fill-rule="nonzero" opacity="0.1" points="79 34 102 38.8569411 93.6941286 42"></polygon>
                            <path d="M31,22.4995282 C31,22.4995282 31,21 32.0003146,21 C33.0006291,21 34,24 34,24 L31,22.4995282 Z" id="Path" fill="#6C63FF" fill-rule="nonzero"></path>
                            <circle id="Oval" fill="#F55F44" fill-rule="nonzero" opacity="0.5" cx="2.5" cy="35.5" r="1"></circle>
                            <circle id="Oval" fill="#F55F44" fill-rule="nonzero" opacity="0.5" cx="12.5" cy="57.5" r="1"></circle>
                            <circle id="Oval" fill="#F55F44" fill-rule="nonzero" opacity="0.5" cx="103.5" cy="2.5" r="1"></circle>
                            <path d="M62.757537,2.52521893 C62.3736645,2.35817501 62.1758499,1.93036834 62.2973742,1.53004104 C62.3068303,1.50045728 62.3126972,1.46984617 62.3148488,1.4388649 L62.3148488,1.4388649 C62.3261861,1.25662307 62.2164593,1.08855324 62.0449587,1.02547115 C61.8734582,0.962389059 61.6808505,1.01925286 61.5712103,1.16533647 L61.5712103,1.16533647 C61.5524352,1.19051156 61.5367878,1.21787048 61.5246115,1.24681302 C61.3568166,1.62865235 60.930072,1.825183 60.5305047,1.70463365 C60.5008951,1.69518582 60.4702572,1.68932412 60.4392488,1.68717439 L60.4392488,1.68717439 C60.2568476,1.67584701 60.0886307,1.78547792 60.0254934,1.95682856 C59.9623562,2.1281792 60.0192697,2.32061857 60.1654811,2.43016295 L60.1654811,2.43016295 C60.1906782,2.44892166 60.2180611,2.46455533 60.2470289,2.47672098 C60.6276835,2.64576542 60.822547,3.07176084 60.7013668,3.46995896 C60.6919107,3.49954272 60.6860439,3.53015383 60.6838923,3.5611351 L60.6838923,3.5611351 C60.672555,3.74337693 60.7822818,3.91144676 60.9537823,3.97452885 C61.1252829,4.03761094 61.3178906,3.98074714 61.4275308,3.83466353 L61.4275308,3.83466353 C61.4463059,3.80948844 61.4619532,3.78212952 61.4741295,3.75318698 C61.6413196,3.36964996 62.0695005,3.17200829 62.470178,3.29342643 C62.4997876,3.30287426 62.5304255,3.30873596 62.5614339,3.31088569 L62.5614339,3.31088569 C62.7431206,3.32186784 62.9106342,3.21287399 62.9740556,3.04241065 C63.037477,2.8719473 62.9818941,2.68009478 62.8371432,2.56983705 L62.8371432,2.56983705 C62.8124556,2.55188933 62.7857357,2.5369132 62.757537,2.52521893 L62.757537,2.52521893 Z" id="Path" fill="#4D8AF0" fill-rule="nonzero" opacity="0.5"></path>
                            <path d="M104.753506,55.5232489 C104.370464,55.3564208 104.173078,54.9291667 104.294339,54.5293564 C104.303775,54.4998109 104.309629,54.4692393 104.311776,54.4382981 L104.311776,54.4382981 C104.323089,54.2562916 104.213599,54.0884389 104.04247,54.0254382 C103.871341,53.9624376 103.67915,54.019228 103.569747,54.1651229 L103.569747,54.1651229 C103.551012,54.1902655 103.535399,54.2175891 103.523249,54.2464942 C103.356421,54.6295359 102.929167,54.8269223 102.529356,54.705661 C102.499811,54.6962253 102.469239,54.6903712 102.438298,54.6882242 L102.438298,54.6882242 C102.256292,54.6769115 102.088439,54.7864008 102.025438,54.9575301 C101.962438,55.1286594 102.019228,55.3208503 102.165123,55.4302532 L102.165123,55.4302532 C102.190265,55.4489876 102.217589,55.4646011 102.246494,55.4767511 C102.629536,55.6435792 102.826922,56.0708333 102.705661,56.4706436 C102.696225,56.5001891 102.690371,56.5307607 102.688224,56.5617019 L102.688224,56.5617019 C102.676911,56.7437084 102.786401,56.9115611 102.95753,56.9745618 C103.128659,57.0375624 103.32085,56.980772 103.430253,56.8348771 L103.430253,56.8348771 C103.448988,56.8097345 103.464601,56.7824109 103.476751,56.7535058 C103.643579,56.3704641 104.070833,56.1730777 104.470644,56.294339 C104.500189,56.3037747 104.530761,56.3096288 104.561702,56.3117758 L104.561702,56.3117758 C104.743708,56.3230885 104.911561,56.2135992 104.974562,56.0424699 C105.037562,55.8713406 104.980772,55.6791497 104.834877,55.5697468 L104.834877,55.5697468 C104.809735,55.5510124 104.782411,55.5353989 104.753506,55.5232489 Z" id="Path" fill="#4D8AF0" fill-rule="nonzero" opacity="0.5"></path>
                            <circle id="Oval" fill="#47E6B1" fill-rule="nonzero" opacity="0.5" cx="73.5" cy="79.5" r="1"></circle>
                            <circle id="Oval" fill="#47E6B1" fill-rule="nonzero" opacity="0.5" cx="2.5" cy="73.5" r="1"></circle>
                            <circle id="Oval" fill="#47E6B1" fill-rule="nonzero" opacity="0.5" cx="69.5" cy="10.5" r="1"></circle>
                            <g id="Group" opacity="0.5" fill="#47E6B1" fill-rule="nonzero">
                                <rect id="Rectangle" x="1.2135" y="0" width="1" height="2.9475"></rect>
                                <polygon id="Rectangle" transform="translate(1.473750, 1.473750) rotate(90.000000) translate(-1.473750, -1.473750) " points="1.2135 1.39221967e-12 1.734 1.39221967e-12 1.734 2.9475 1.2135 2.9475"></polygon>
                            </g>
                            <g id="Group" opacity="0.5" transform="translate(7.000000, 23.000000)" fill="#47E6B1" fill-rule="nonzero">
                                <rect id="Rectangle" x="1.24" y="0.0642857143" width="1" height="2.80714286"></rect>
                                <polygon id="Rectangle" transform="translate(1.487857, 1.467857) rotate(90.000000) translate(-1.487857, -1.467857) " points="1.24 0.0642857143 1.73571429 0.0642857143 1.73571429 2.87142857 1.24 2.87142857"></polygon>
                            </g>
                            <g id="Group" opacity="0.5" transform="translate(86.000000, 12.000000)" fill="#47E6B1" fill-rule="nonzero">
                                <rect id="Rectangle" x="1.22285714" y="0.0075" width="1" height="2.9475"></rect>
                                <polygon id="Rectangle" transform="translate(1.472143, 1.481250) rotate(90.000000) translate(-1.472143, -1.481250) " points="1.21189286 0.0776785714 1.73239286 0.0776785714 1.73239286 2.88482143 1.21189286 2.88482143"></polygon>
                            </g>
                        </g>
                    </g>
                </g>
            </g>
        </g>
    </g>
</svg>