<?xml version="1.0" encoding="UTF-8"?>
<svg width="40px" height="40px" viewBox="0 0 40 40" version="1.1" xmlns="http://www.w3.org/2000/svg" xmlns:xlink="http://www.w3.org/1999/xlink">
    <!-- Generator: Sketch 57.1 (83088) - https://sketch.com -->
    <title>icon / 40 / info / container</title>
    <desc>Created with Sketch.</desc>
    <defs>
        <rect id="path-1" x="0" y="0" width="40" height="40" rx="19.5"></rect>
    </defs>
    <g id="ðŸ‚-Client-Onboarding" stroke="none" stroke-width="1" fill="none" fill-rule="evenodd">
        <g id="02-BGV-Client-onboarding_documents_A-(2)" transform="translate(-169.000000, -84.000000)">
            <g id="section-1" transform="translate(160.000000, 84.000000)">
                <g id="section-title" transform="translate(9.000000, 0.000000)">
                    <g id="icon-/-40-/-info-/-container">
                        <g>
                            <mask id="mask-2" fill="white">
                                <use xlink:href="#path-1"></use>
                            </mask>
                            <use fill="#8697A8" fill-rule="evenodd" xlink:href="#path-1"></use>
                        </g>
                        <g id="Group-7" transform="translate(12.000000, 11.000000)" fill-rule="nonzero">
                            <path d="M15.2,8.8817842e-16 C15.642,8.8817842e-16 16,0.358 16,0.8 L16,15.2 C16,15.642 15.642,16 15.2,16 L3.2,16 C2.758,16 2.4,15.642 2.4,15.2 L2.4,0.8 C2.4,0.358 2.758,8.8817842e-16 3.2,8.8817842e-16 L15.2,8.8817842e-16 Z M6.8,12.8 L3.6,12.8 C3.3792,12.8 3.2,12.9792 3.2,13.2 C3.2,13.4208 3.3792,13.6 3.6,13.6 L3.6,13.6 L6.8,13.6 C7.0208,13.6 7.2,13.4208 7.2,13.2 C7.2,12.9792 7.0208,12.8 6.8,12.8 L6.8,12.8 Z M10,9.6 L3.6,9.6 C3.3792,9.6 3.2,9.7792 3.2,10 C3.2,10.1932 3.3372,10.35455 3.51941875,10.3918688 L3.6,10.4 L10,10.4 C10.2208,10.4 10.4,10.2208 10.4,10 C10.4,9.7792 10.2208,9.6 10,9.6 Z M10,6.4 L3.6,6.4 C3.3792,6.4 3.2,6.5792 3.2,6.8 C3.2,6.9932 3.3372,7.15455 3.51941875,7.19186875 L3.6,7.2 L10,7.2 C10.2208,7.2 10.4,7.0208 10.4,6.8 C10.4,6.5792 10.2208,6.4 10,6.4 Z" id="Combined-Shape" fill="#FFFFFF"></path>
                            <path d="M12.8,2.4 C13.242,2.4 13.6,2.758 13.6,3.2 L13.6,17.6 C13.6,18.042 13.242,18.4 12.8,18.4 L0.8,18.4 C0.358,18.4 1.82076576e-13,18.042 1.82076576e-13,17.6 L1.82076576e-13,3.2 C1.82076576e-13,2.758 0.358,2.4 0.8,2.4 L12.8,2.4 Z M6.8,12.8 L3.6,12.8 C3.3792,12.8 3.2,12.9792 3.2,13.2 C3.2,13.4208 3.3792,13.6 3.6,13.6 L3.6,13.6 L6.8,13.6 C7.0208,13.6 7.2,13.4208 7.2,13.2 C7.2,12.9792 7.0208,12.8 6.8,12.8 L6.8,12.8 Z M10,9.6 L3.6,9.6 C3.3792,9.6 3.2,9.7792 3.2,10 C3.2,10.1932 3.3372,10.35455 3.51941875,10.3918687 L3.6,10.4 L10,10.4 C10.2208,10.4 10.4,10.2208 10.4,10 C10.4,9.7792 10.2208,9.6 10,9.6 Z M10,6.4 L3.6,6.4 C3.3792,6.4 3.2,6.5792 3.2,6.8 C3.2,6.9932 3.3372,7.15455 3.51941875,7.19186875 L3.6,7.2 L10,7.2 C10.2208,7.2 10.4,7.0208 10.4,6.8 C10.4,6.5792 10.2208,6.4 10,6.4 Z" id="Combined-Shape" fill="#F3F7FD"></path>
                            <path d="M12.8,2.4 C13.242,2.4 13.6,2.758 13.6,3.2 L13.6,17.6 C13.6,18.042 13.242,18.4 12.8,18.4 L0.8,18.4 C0.358,18.4 3.63264974e-13,18.042 3.63264974e-13,17.6 L3.63264974e-13,3.2 C3.63264974e-13,2.758 0.358,2.4 0.8,2.4 L12.8,2.4 Z M6.8,12.8 L3.6,12.8 C3.3792,12.8 3.2,12.9792 3.2,13.2 C3.2,13.4208 3.3792,13.6 3.6,13.6 L3.6,13.6 L6.8,13.6 C7.0208,13.6 7.2,13.4208 7.2,13.2 C7.2,12.9792 7.0208,12.8 6.8,12.8 L6.8,12.8 Z M10,9.6 L3.6,9.6 C3.3792,9.6 3.2,9.7792 3.2,10 C3.2,10.1932 3.3372,10.35455 3.51941875,10.3918687 L3.6,10.4 L10,10.4 C10.2208,10.4 10.4,10.2208 10.4,10 C10.4,9.7792 10.2208,9.6 10,9.6 Z M10,6.4 L3.6,6.4 C3.3792,6.4 3.2,6.5792 3.2,6.8 C3.2,6.9932 3.3372,7.15455 3.51941875,7.19186875 L3.6,7.2 L10,7.2 C10.2208,7.2 10.4,7.0208 10.4,6.8 C10.4,6.5792 10.2208,6.4 10,6.4 Z" id="Combined-Shape" fill="#F3F7FD"></path>
                        </g>
                    </g>
                </g>
            </g>
        </g>
    </g>
</svg>