<?xml version="1.0" encoding="UTF-8"?>
<svg width="40px" height="40px" viewBox="0 0 40 40" version="1.1" xmlns="http://www.w3.org/2000/svg" xmlns:xlink="http://www.w3.org/1999/xlink">
    <title>261C4CAB-BE67-4B40-859C-DE3DE1F67C9B</title>
    <g id="🎭-all-employees_OA" stroke="none" stroke-width="1" fill="none" fill-rule="evenodd">
        <g id="Enable-Service_01" transform="translate(-192.000000, -344.000000)">
            <g id="orgnisation-/-organisation-details-header" transform="translate(160.000000, 128.000000)">
                <g id="box-ribbon" transform="translate(32.000000, 216.000000)">
                    <rect id="Rectangle" fill="#E5EEF7" x="0" y="0" width="40" height="40" rx="20"></rect>
                    <g id="Group" transform="translate(12.500000, 13.750000)" fill="#0059B2">
                        <path d="M14.2105263,0 L0.315789474,0 C0.141473684,0 0,0.141157895 0,0.315789474 L0,2.52631579 C0,2.70094737 0.141473684,2.84210526 0.315789474,2.84210526 L14.2105263,2.84210526 C14.3848421,2.84210526 14.5263158,2.70094737 14.5263158,2.52631579 L14.5263158,0.315789474 C14.5263158,0.141157895 14.3848421,0 14.2105263,0 Z" id="Path"></path>
                        <path d="M13.2631579,3.47368421 L9.15789474,3.47368421 L9.15789474,9.15789474 L7.26315789,8.21052632 L5.36842105,9.15789474 L5.36842105,3.47368421 L1.26315789,3.47368421 L1.26315789,12.6315789 C1.26315789,12.9805263 1.54578947,13.2631579 1.89473684,13.2631579 L12.6315789,13.2631579 C12.9805263,13.2631579 13.2631579,12.9805263 13.2631579,12.6315789 L13.2631579,3.47368421 Z" id="Path"></path>
                    </g>
                </g>
            </g>
        </g>
    </g>
</svg>