<?xml version="1.0" encoding="UTF-8"?>
<svg width="40px" height="40px" viewBox="0 0 40 40" version="1.1" xmlns="http://www.w3.org/2000/svg" xmlns:xlink="http://www.w3.org/1999/xlink">
    <title>3ED72D65-2A6F-4A85-AA79-820B720A6CCF</title>
    <g id="ðŸ­-vendor-management" stroke="none" stroke-width="1" fill="none" fill-rule="evenodd">
        <g id="g4s-perspective---g4s-org-info-page" transform="translate(-189.000000, -867.000000)">
            <g id="orgnisation-/-organisation-details-header" transform="translate(156.000000, 129.000000)">
                <g id="services" transform="translate(33.000000, 738.000000)">
                    <rect id="Rectangle" fill="#F4F0F6" x="0" y="0" width="40" height="40" rx="20"></rect>
                    <g id="noun_service_2474068" transform="translate(11.000000, 11.000000)" fill="#976CA7" fill-rule="nonzero">
                        <g id="Group">
                            <path d="M10.6875,9.6375 L10.2375,9.43125 C9.9,9.75 9.45,9.9375 8.9625,9.9375 C8.475,9.9375 8.025,9.75 7.6875,9.43125 L7.2375,9.6375 C6.7125,9.8625 6.35625,10.36875 6.28125,10.93125 C6.88125,11.775 7.875,12.3375 9,12.3375 C10.06875,12.3375 11.04375,11.83125 11.64375,11.025 C11.60625,10.425 11.25,9.88125 10.6875,9.6375 Z" id="Path"></path>
                            <ellipse id="Oval" cx="8.9625" cy="7.725" rx="1.35" ry="1.575"></ellipse>
                            <path d="M17.325,7.55625 L15.6,7.36875 C15.39375,7.35 15.225,7.2 15.16875,7.0125 C15.05625,6.675 14.925,6.35625 14.775,6.05625 C14.68125,5.86875 14.7,5.6625 14.83125,5.49375 L15.91875,4.14375 C16.125,3.88125 16.10625,3.50625 15.88125,3.28125 L14.75625,2.15625 C14.5125,1.9125 14.1375,1.89375 13.89375,2.11875 L12.525,3.1875 C12.35625,3.31875 12.15,3.3375 11.9625,3.24375 C11.6625,3.09375 11.325,2.94375 11.00625,2.85 C10.8,2.79375 10.66875,2.625 10.65,2.41875 L10.4625,0.69375 C10.425,0.35625 10.14375,0.1125 9.80625,0.1125 L8.19375,0.1125 C7.85625,0.1125 7.575,0.35625 7.5375,0.69375 L7.35,2.41875 C7.33125,2.625 7.18125,2.79375 6.99375,2.85 C6.65625,2.9625 6.3375,3.09375 6.0375,3.24375 C5.85,3.3375 5.64375,3.31875 5.475,3.1875 L4.125,2.1 C3.8625,1.89375 3.4875,1.9125 3.2625,2.1375 L2.1375,3.2625 C1.89375,3.50625 1.875,3.88125 2.1,4.125 L3.1875,5.475 C3.31875,5.625 3.3375,5.85 3.24375,6.0375 C3.09375,6.35625 2.9625,6.675 2.85,6.99375 C2.79375,7.18125 2.625,7.33125 2.41875,7.35 L0.69375,7.5375 C0.35625,7.575 0.1125,7.85625 0.1125,8.19375 L0.1125,9.80625 C0.1125,10.14375 0.35625,10.425 0.69375,10.4625 L2.41875,10.65 C2.625,10.66875 2.79375,10.81875 2.85,11.00625 C2.9625,11.34375 3.09375,11.6625 3.24375,11.9625 C3.3375,12.15 3.31875,12.35625 3.1875,12.525 L2.1,13.875 C1.89375,14.1375 1.9125,14.5125 2.1375,14.7375 L3.2625,15.8625 C3.50625,16.10625 3.88125,16.125 4.125,15.9 L5.475,14.8125 C5.625,14.68125 5.85,14.6625 6.0375,14.75625 C6.35625,14.90625 6.675,15.0375 6.99375,15.15 C7.18125,15.20625 7.33125,15.375 7.35,15.58125 L7.5375,17.30625 C7.575,17.64375 7.85625,17.8875 8.19375,17.8875 L9.80625,17.8875 C10.14375,17.8875 10.425,17.64375 10.4625,17.30625 L10.65,15.58125 C10.66875,15.375 10.81875,15.20625 11.00625,15.15 C11.34375,15.0375 11.6625,14.90625 11.9625,14.75625 C12.15,14.6625 12.35625,14.68125 12.525,14.8125 L13.875,15.9 C14.1375,16.10625 14.5125,16.0875 14.7375,15.8625 L15.8625,14.7375 C16.10625,14.49375 16.125,14.11875 15.9,13.875 L14.8125,12.525 C14.68125,12.375 14.6625,12.15 14.75625,11.9625 C14.90625,11.64375 15.0375,11.325 15.15,11.00625 C15.20625,10.81875 15.375,10.66875 15.58125,10.65 L17.30625,10.4625 C17.64375,10.425 17.8875,10.14375 17.8875,9.80625 L17.8875,8.19375 C17.90625,7.85625 17.6625,7.59375 17.325,7.55625 Z M9,13.14375 C6.7125,13.14375 4.85625,11.2875 4.85625,9 C4.85625,6.7125 6.7125,4.85625 9,4.85625 C11.2875,4.85625 13.14375,6.7125 13.14375,9 C13.14375,11.2875 11.2875,13.14375 9,13.14375 Z" id="Shape"></path>
                        </g>
                    </g>
                </g>
            </g>
        </g>
    </g>
</svg>