<?xml version="1.0" encoding="UTF-8"?>
<svg width="40px" height="40px" viewBox="0 0 40 40" version="1.1" xmlns="http://www.w3.org/2000/svg" xmlns:xlink="http://www.w3.org/1999/xlink">
    <title>CC18D1E7-DE95-4302-AE23-D003597DEB00</title>
    <g id="🎭-all-employees_OA" stroke="none" stroke-width="1" fill="none" fill-rule="evenodd">
        <g id="product-&amp;-opration" transform="translate(-192.000000, -626.000000)">
            <g id="orgnisation-/-organisation-details-header" transform="translate(160.000000, 128.000000)">
                <g id="services" transform="translate(32.000000, 498.000000)">
                    <rect id="Rectangle" fill="#F1FBFC" x="0" y="0" width="40" height="40" rx="20"></rect>
                    <g id="Group" transform="translate(10.000000, 9.000000)" fill="#73CEDE">
                        <path d="M18.987013,10.0695264 C18.987013,9.67073331 18.8311688,9.29686475 18.5194805,8.99776991 C18.2337662,8.72359963 17.8961039,8.57405221 17.5064935,8.54912764 C17.5324675,8.15033451 17.4545455,7.72661682 17.1428571,7.4025974 C16.8571429,7.12842713 16.4675325,6.97887971 16.0779221,6.95395514 C16.0519481,6.58008658 15.8961039,6.20621802 15.6103896,5.93204775 C15.3246753,5.65787748 14.9350649,5.50833005 14.5454545,5.48340548 C14.5194805,5.10953693 14.3636364,4.73566837 14.0779221,4.4614981 C13.7922078,4.18732782 13.3766234,4.01285583 12.961039,4.01285583 C12.5454545,4.01285583 12.1558442,4.16240325 11.8441558,4.4614981 L9.37662338,6.97887971 C9.22077922,7.02872885 8.5974026,7.17827627 7.68831169,6.40561459 C7.53246753,6.25606717 7.27272727,6.25606717 7.11688312,6.40561459 C7.06493506,6.45546373 5.84415584,7.45244654 5.66233766,9.29686475 C5.55844156,10.2938476 5.11688312,10.6926407 5.09090909,10.7175653 C5.09090909,10.7175653 5.06493506,10.7424898 5.06493506,10.7424898 L4.5974026,11.1911321 C4.41558442,11.3656041 4.41558442,11.6148498 4.5974026,11.7893218 L9.71428571,16.6994622 C9.79220779,16.7742359 9.8961039,16.824085 10.025974,16.824085 C10.1558442,16.824085 10.2597403,16.7742359 10.3376623,16.6994622 L10.8051948,16.2508199 C10.8051948,16.2508199 10.8311688,16.2258953 10.8311688,16.2258953 C10.8311688,16.2258953 11.2727273,15.777253 12.3116883,15.6775548 C14.1298701,15.5030828 15.1688312,14.4313262 15.2987013,14.2817788 L18.5454545,11.1662075 C18.8311688,10.8671127 18.987013,10.4932441 18.987013,10.0695264 Z" id="Path"></path>
                        <path d="M4.20779221,1.86934278 C3.74025974,2.41768333 3.79220779,3.24019415 4.33766234,3.76361013 L5.45454545,4.83536665 C5.97402597,5.33385806 6.80519481,5.3837072 7.4025974,4.95998951 C7.42857143,4.98491408 7.45454545,5.00983865 7.48051948,5.03476322 L9.01298701,6.50531287 L10.5974026,4.98491408 L9.03896104,3.48943985 C9.01298701,3.46451528 8.98701299,3.43959071 8.96103896,3.41466614 C9.4025974,2.86632559 9.35064935,2.06873934 8.83116883,1.54532336 L7.71428571,0.498491408 C7.16883117,-0.0249245704 6.33766234,-0.0498491408 5.74025974,0.373868556 L7.24675325,1.81949364 L5.71428571,3.31496786 L4.20779221,1.86934278 Z" id="Path"></path>
                        <path d="M18.2337662,12.3376623 L16.6233766,13.8580611 L17.8701299,15.0544405 C18.3116883,15.4781582 19.038961,15.4781582 19.4545455,15.0544405 C19.8961039,14.6307228 19.8961039,13.9328348 19.4545455,13.5340417 L18.2337662,12.3376623 Z" id="Path"></path>
                        <path d="M3.19480519,11.6148498 C3.01298701,11.4403778 2.75324675,11.4403778 2.57142857,11.6148498 L0.25974026,13.8331366 C0.181818182,13.9079103 0.12987013,14.0076086 0.12987013,14.1322314 C0.12987013,14.2568543 0.181818182,14.3565525 0.25974026,14.4313262 L6.77922078,20.6873934 C6.85714286,20.7621671 6.98701299,20.8120163 7.09090909,20.8120163 C7.19480519,20.8120163 7.32467532,20.7621671 7.4025974,20.6873934 L9.71428571,18.4691067 C9.79220779,18.3943329 9.84415584,18.2946347 9.84415584,18.1700118 C9.84415584,18.045389 9.79220779,17.9456907 9.71428571,17.870917 L3.19480519,11.6148498 Z" id="Path"></path>
                    </g>
                </g>
            </g>
        </g>
    </g>
</svg>