<?xml version="1.0" encoding="UTF-8"?>
<svg width="12px" height="16px" viewBox="0 0 12 16" version="1.1" xmlns="http://www.w3.org/2000/svg" xmlns:xlink="http://www.w3.org/1999/xlink">
    <title>E09A0F6E-1424-4ED8-830A-CCF7387D2EED</title>
    <g id="profile-view-mode" stroke="none" stroke-width="1" fill="none" fill-rule="evenodd">
        <g id="profile-view_mode_download-documents_04" transform="translate(-548.000000, -3010.000000)" fill-rule="nonzero">
            <g id="section-copy" transform="translate(160.000000, 1814.000000)">
                <g id="Group-6" transform="translate(40.000000, 1184.000000)">
                    <g id="ivr" transform="translate(338.000000, 0.000000)">
                        <g id="email-copy" transform="translate(4.000000, 8.000000)">
                            <rect id="Rectangle" fill="#F5F5F4" opacity="0" x="0" y="0" width="24" height="24" rx="2"></rect>
                            <g id="Shape-2" transform="translate(6.000000, 4.000000)" fill="#8697A8">
                                <path d="M0.445524469,0.000663161528 C0.192412577,0.0260248469 -0.00024048841,0.239154797 3.55956199e-06,0.49353401 L3.55956199e-06,15.3376899 C-0.00049634346,15.469587 0.0516766673,15.5962273 0.144942484,15.6894934 C0.2382083,15.7827596 0.364848384,15.8349331 0.496745456,15.8344337 L11.4143504,15.8344337 C11.6876135,15.8333366 11.9082647,15.6109532 11.907225,15.3376899 L11.907225,5.94315422 L6.45759927,5.94315422 C6.1856693,5.94216492 5.96568966,5.72221334 5.96473029,5.45028336 L5.96473029,0.000663161528 L0.496745456,0.000663161528 C0.479683242,-0.000221053842 0.462586684,-0.000221053842 0.445524469,0.000663161528 Z M6.95433943,0.288653802 L6.95433943,4.95354508 L11.6192288,4.95354508 L6.95433943,0.288653802 Z M2.850936,7.83829895 C3.17170315,7.83832006 3.43173131,8.09834738 3.43175346,8.41911453 C3.43173235,8.73988241 3.17170388,8.99991088 2.850936,8.99993199 C2.53016812,8.99991088 2.27013966,8.73988241 2.27011855,8.41911453 C2.27014069,8.09834738 2.53016885,7.83832006 2.850936,7.83829895 L2.850936,7.83829895 Z M4.59531647,7.92335246 L9.13843979,7.92335246 C9.31784113,7.9193603 9.48534995,8.01278666 9.57622287,8.16752155 C9.6670958,8.32225644 9.6670958,8.51405761 9.57622287,8.6687925 C9.48534995,8.8235274 9.31784113,8.91695375 9.13843979,8.9129616 L4.59531647,8.9129616 C4.41591514,8.91695375 4.24840631,8.8235274 4.15753339,8.6687925 C4.06666046,8.51405761 4.06666046,8.32225644 4.15753339,8.16752155 C4.24840631,8.01278666 4.41591514,7.9193603 4.59531647,7.92335246 L4.59531647,7.92335246 Z M2.850936,9.9905136 C3.17170388,9.99053471 3.43173235,10.2505632 3.43175346,10.5713311 C3.43173235,10.8920989 3.17170388,11.1521274 2.850936,11.1521485 C2.53016812,11.1521274 2.27013966,10.8920989 2.27011855,10.5713311 C2.27013966,10.2505632 2.53016812,9.99053471 2.850936,9.9905136 L2.850936,9.9905136 Z M4.54409361,10.0784471 C4.56115645,10.0775628 4.57825363,10.0775628 4.59531647,10.0784471 L9.13843979,10.0784471 C9.31783142,10.0744704 9.48532443,10.1679004 9.57618788,10.3226292 C9.66705133,10.477358 9.66705133,10.6691472 9.57618788,10.823876 C9.48532443,10.9786048 9.31783142,11.0720348 9.13843979,11.0680581 L4.59531647,11.0680581 C4.32596603,11.0760822 4.09956397,10.8674181 4.08563469,10.5983084 C4.07170541,10.3291987 4.27535414,10.0982749 4.54409361,10.0784471 Z M2.850936,12.1436801 C3.17170388,12.1437013 3.43173235,12.4037297 3.43175346,12.7244976 C3.43173235,13.0452655 3.17170388,13.3052939 2.850936,13.3053151 C2.53016812,13.3052939 2.27013966,13.0452655 2.27011855,12.7244976 C2.27013966,12.4037297 2.53016812,12.1437013 2.850936,12.1436801 L2.850936,12.1436801 Z M4.54409361,12.2296874 C4.56115645,12.2288031 4.57825363,12.2288031 4.59531647,12.2296874 L9.13843979,12.2296874 C9.31783142,12.2257108 9.48532443,12.3191407 9.57618788,12.4738695 C9.66705133,12.6285984 9.66705133,12.8203875 9.57618788,12.9751163 C9.48532443,13.1298451 9.31783142,13.2232751 9.13843979,13.2192984 L4.59531647,13.2192984 C4.32596603,13.2273225 4.09956397,13.0186584 4.08563469,12.7495487 C4.07170541,12.480439 4.27535414,12.2495152 4.54409361,12.2296874 L4.54409361,12.2296874 Z" id="Shape"></path>
                            </g>
                        </g>
                    </g>
                </g>
            </g>
        </g>
    </g>
</svg>