<?xml version="1.0" encoding="UTF-8"?>
<svg width="13px" height="20px" viewBox="0 0 13 20" version="1.1" xmlns="http://www.w3.org/2000/svg" xmlns:xlink="http://www.w3.org/1999/xlink">
    <!-- Generator: Sketch 55.2 (78181) - https://sketchapp.com -->
    <title>other</title>
    <desc>Created with Sketch.</desc>
    <defs>
        <rect id="path-1" x="0" y="0" width="6" height="21"></rect>
        <path d="M5.83333333,5 C4.45262146,5 3.33333333,3.88071187 3.33333333,2.5 C3.33333333,1.11928813 4.45262146,0 5.83333333,0 C7.21404521,0 8.33333333,1.11928813 8.33333333,2.5 C8.33333333,3.88071187 7.21404521,5 5.83333333,5 Z M9.16666667,5.83333333 C10.545,5.83333333 11.6666667,6.955 11.6666667,8.33333333 L11.6666667,12.5 C11.6666667,12.9608333 11.2941667,13.3333333 10.8333333,13.3333333 C10.3725,13.3333333 10,12.9608333 10,12.5 L10,8.33333333 C10,7.87333333 9.62666667,7.5 9.16666667,7.5 L9.16666667,19.1666667 C9.16666667,19.6275 8.79416667,20 8.33333333,20 C7.8725,20 7.5,19.6275 7.5,19.1666667 L7.5,15 L4.16666667,15 L4.16666667,19.1666667 C4.16666667,19.6275 3.79416667,20 3.33333333,20 C2.8725,20 2.5,19.6275 2.5,19.1666667 L2.5,7.5 C2.04,7.5 1.66666667,7.87333333 1.66666667,8.33333333 L1.66666667,12.5 C1.66666667,12.9608333 1.29416667,13.3333333 0.833333333,13.3333333 C0.3725,13.3333333 0,12.9608333 0,12.5 L0,8.33333333 C0,6.955 1.12166667,5.83333333 2.5,5.83333333 L9.16666667,5.83333333 Z" id="path-3"></path>
        <rect id="path-5" x="0" y="0" width="7" height="23"></rect>
    </defs>
    <g id="👽-GBV-Client" stroke="none" stroke-width="1" fill="none" fill-rule="evenodd">
        <g id="BGV-Client-zomato-add-employee-Basic-information_1" transform="translate(-477.000000, -379.000000)">
            <g id="Basic-information" transform="translate(160.000000, 121.000000)">
                <g id="type-of-employees" transform="translate(40.000000, 228.000000)">
                    <g id="other" transform="translate(264.000000, 20.000000)">
                        <g transform="translate(13.000000, 8.000000)">
                            <g id="icon-/-16-/-info-/-male" transform="translate(0.000000, 2.000000)">
                                <mask id="mask-2" fill="white">
                                    <use xlink:href="#path-1"></use>
                                </mask>
                                <use id="Mask" fill-opacity="0" fill="#D8D8D8" xlink:href="#path-1"></use>
                                <g mask="url(#mask-2)">
                                    <mask id="mask-4" fill="white">
                                        <use xlink:href="#path-3"></use>
                                    </mask>
                                    <use id="Combined-Shape" fill="#000000" fill-rule="nonzero" xlink:href="#path-3"></use>
                                    <rect id="Rectangle" fill="#8697A8" mask="url(#mask-4)" x="-6" y="-2" width="24" height="24"></rect>
                                </g>
                            </g>
                            <g id="Group-13" transform="translate(6.000000, 0.000000)">
                                <mask id="mask-6" fill="white">
                                    <use xlink:href="#path-5"></use>
                                </mask>
                                <use id="Mask" fill-opacity="0" fill="#D8D8D8" xlink:href="#path-5"></use>
                                <circle id="Oval" fill="#8697A8" fill-rule="nonzero" mask="url(#mask-6)" cx="-0.333463247" cy="4.5" r="2.5"></circle>
                                <path d="M6.24570342,13.2941667 L4.20653675,9.215 C3.77987009,8.36333333 2.92237009,7.83333333 1.96987009,7.83333333 L-2.63679658,7.83333333 C-3.58929658,7.83333333 -4.44679658,8.36333333 -4.87262991,9.215 L-6.91179658,13.2941667 C-7.11762991,13.7058333 -6.95096325,14.2066667 -6.53929658,14.4125 C-6.12679658,14.6166667 -5.62762991,14.4516667 -5.42096325,14.04 L-3.38179658,9.96083333 C-3.30429658,9.80583333 -3.18262991,9.6875 -3.03762991,9.6075 L-4.6598741,16.9825331 L-2.83346325,16.9825331 L-2.83346325,21.1666667 C-2.83346325,21.6275 -2.46096325,22 -2.00012991,22 C-1.53929658,22 -1.16679658,21.6275 -1.16679658,21.1666667 L-1.16679658,16.9825331 L0.499870087,16.9825331 L0.499870087,21.1666667 C0.499870087,21.6275 0.872370087,22 1.33320342,22 C1.79403675,22 2.16653675,21.6275 2.16653675,21.1666667 L2.16653675,16.9825331 L3.88735921,16.9825331 L2.37153675,9.6075 C2.51653675,9.6875 2.63820342,9.80583333 2.71570342,9.96083333 L4.75487009,14.04 C4.95987009,14.4483333 5.45737009,14.6191667 5.87320342,14.4125 C6.28403675,14.2058333 6.45153675,13.7058333 6.24570342,13.2941667 Z" id="Path" fill="#8697A8" fill-rule="nonzero" mask="url(#mask-6)"></path>
                            </g>
                        </g>
                    </g>
                </g>
            </g>
        </g>
    </g>
</svg>