<?xml version="1.0" encoding="UTF-8"?>
<svg width="24px" height="24px" viewBox="0 0 24 24" version="1.1" xmlns="http://www.w3.org/2000/svg" xmlns:xlink="http://www.w3.org/1999/xlink">
    <title>00965177-A51B-4C92-BB8F-FD1669778861</title>
    <g id="🎭-all-employees_OA" stroke="none" stroke-width="1" fill="none" fill-rule="evenodd">
        <g id="bgv-summary-report-pdf-zipfile-generation_01" transform="translate(-451.000000, -644.000000)">
            <g id="Group-23" transform="translate(403.000000, 172.000000)">
                <g id="profiles" transform="translate(32.000000, 456.000000)">
                    <g id="BGV-report-icon" transform="translate(16.000000, 16.000000)">
                        <circle id="Oval" fill="#73CEDE" cx="12" cy="12" r="12"></circle>
                        <g id="noun_verified_2677409" transform="translate(6.000000, 5.000000)" fill="#F6ECEF" fill-rule="nonzero">
                            <g id="Group">
                                <path d="M6.00292254,-1.24792029e-11 C8.80703365,-1.24792029e-11 11.7654781,1.74633333 11.8900336,1.82066667 C11.9561448,1.86011111 11.9971448,1.93088889 11.998367,2.00777778 C11.9987321,2.02939683 11.9990223,2.05487075 11.99925,2.08271461 L11.9992559,2.51911111 C11.9549225,6.87 10.3592559,9.69088889 9.02847809,11.2904444 C7.58092254,13.0303333 6.15792254,13.7271111 6.09803365,13.7558889 C6.06770031,13.7705556 6.03470031,13.7778889 6.00170031,13.7778889 C5.97625587,13.7778889 5.95081143,13.7735556 5.92636698,13.7647778 C5.86314476,13.7418889 4.36014476,13.1867778 2.87036698,11.4502222 C1.50503365,9.85866667 -0.100410796,6.92855556 0.00492253721,2.00677778 C0.00658920388,1.93022222 0.0474780928,1.85988889 0.113255871,1.82066667 C0.237922537,1.74633333 3.19892254,-1.24792029e-11 6.00292254,-1.24792029e-11 Z M5.84743502,5.25 C5.04757979,5.25 4.44290454,5.86998348 4.44290454,6.64687637 C4.44290454,7.41228807 5.03992567,8.03609861 5.87805149,8.03609861 C6.64729026,8.03609861 7.19455963,7.52327277 7.19455963,6.75020695 L7.19455963,6.54354578 L5.85126208,6.54354578 L5.85126208,7.01044693 L6.66259849,7.01044693 C6.57074909,7.31661161 6.30285499,7.51944571 5.88187855,7.51944571 C5.323128,7.51944571 4.96721156,7.14439397 4.96721156,6.64687637 C4.96721156,6.13787758 5.33460918,5.76282584 5.84360796,5.76282584 C6.16890794,5.76282584 6.4406291,5.91973524 6.56309497,6.13405052 L7.01468788,5.87381054 C6.78889142,5.50641292 6.35643381,5.25 5.84743502,5.25 Z M3.30626816,5.30357882 L2.25,5.30357882 L2.25,7.98251979 L3.38663638,7.98251979 C3.84971047,7.98251979 4.22093515,7.66487394 4.22093515,7.20562691 C4.22093515,6.92625164 4.08316104,6.71576342 3.86884576,6.59329755 C4.02575516,6.46700461 4.12143162,6.28713286 4.12143162,6.05750935 C4.12143162,5.6097435 3.75786106,5.30357882 3.30626816,5.30357882 Z M7.7877537,5.30357882 L7.21369492,5.30357882 L8.11305368,7.98251979 L8.76748069,7.98251979 L9.6706665,5.30357882 L9.09278066,5.30357882 L8.44218071,7.36253631 L7.7877537,5.30357882 Z M3.38663638,6.85736458 C3.56650814,6.85736458 3.69662813,6.99131163 3.69662813,7.17118338 C3.69662813,7.35488219 3.56650814,7.48882924 3.38663638,7.48882924 L2.77813408,7.48882924 L2.77813408,6.85736458 L3.38663638,6.85736458 Z M3.30626816,5.79726937 C3.47465873,5.79726937 3.59329755,5.9235623 3.59329755,6.09195288 C3.59329755,6.26034345 3.47083167,6.38663638 3.30626816,6.38663638 L2.77813408,6.38663638 L2.77813408,5.79726937 L3.30626816,5.79726937 Z" id="Combined-Shape"></path>
                            </g>
                        </g>
                    </g>
                </g>
            </g>
        </g>
    </g>
</svg>