<?xml version="1.0" encoding="UTF-8"?>
<svg width="48px" height="48px" viewBox="0 0 48 48" version="1.1" xmlns="http://www.w3.org/2000/svg" xmlns:xlink="http://www.w3.org/1999/xlink">
    <!-- Generator: sketchtool 56.2 (101010) - https://sketch.com -->
    <title>68B4C543-893F-49AB-BD7D-1C6213BCE211</title>
    <desc>Created with sketchtool.</desc>
    <g id="employee-onboarding" stroke="none" stroke-width="1" fill="none" fill-rule="evenodd">
        <g id="BGV-Client-zomato-employee-profile" transform="translate(-835.000000, -1519.000000)" fill-rule="nonzero">
            <g id="personal-details" transform="translate(160.000000, 1085.000000)">
                <g id="section-copy">
                    <g id="attachment" transform="translate(671.000000, 434.000000)">
                        <g id="Group-3">
                            <g id="pdf-copy" transform="translate(4.000000, 0.000000)">
                                <polygon id="Path" fill="#870000" points="44.8695652 27.1304348 3.13043478 27.1304348 0 22.9565217 4.17391304 18.7826087 43.826087 18.7826087 48 22.9565217"></polygon>
                                <path d="M41.7391304,48 L6.26086957,48 C5.10782609,48 4.17391304,47.066087 4.17391304,45.9130435 L4.17391304,2.08695652 C4.17391304,0.933913043 5.10782609,0 6.26086957,0 L31.3043478,0 L43.826087,12.5217391 L43.826087,45.9130435 C43.826087,47.066087 42.8921739,48 41.7391304,48 Z" id="Path" fill="#E6E6E6"></path>
                                <path d="M31.3043478,0 L31.3043478,10.4347826 C31.3043478,11.5878261 32.2382609,12.5217391 33.3913043,12.5217391 L43.826087,12.5217391 L31.3043478,0 Z" id="Path" fill="#B3B3B3"></path>
                                <path d="M45.9130435,41.7391304 L2.08695652,41.7391304 C0.933913043,41.7391304 0,40.8052174 0,39.6521739 L0,22.9565217 L48,22.9565217 L48,39.6521739 C48,40.8052174 47.066087,41.7391304 45.9130435,41.7391304 Z" id="Path" fill="#BD0100"></path>
                                <path d="M19.9001739,30.933913 C19.9001739,31.850087 19.629913,32.5575652 19.0904348,33.0553043 C18.549913,33.5551304 17.784,33.8034783 16.7895652,33.8034783 L16.1676522,33.8034783 L16.1676522,36.5217391 L13.9533913,36.5217391 L13.9533913,28.3273043 L16.7895652,28.3273043 C17.8246957,28.3273043 18.602087,28.5537391 19.1206957,29.0045217 C19.6403478,29.4573913 19.9001739,30.1012174 19.9001739,30.933913 Z M16.1676522,31.9993043 L16.5714783,31.9993043 C16.9043478,31.9993043 17.1683478,31.9053913 17.3645217,31.7175652 C17.5606957,31.5307826 17.6587826,31.2730435 17.6587826,30.9453913 C17.6587826,30.3923478 17.3530435,30.1158261 16.7394783,30.1158261 L16.1676522,30.1158261 L16.1676522,31.9993043 Z" id="Shape" fill="#FFFFFF"></path>
                                <path d="M28.1613913,32.2507826 C28.1613913,33.6187826 27.7846957,34.6716522 27.0313043,35.4114783 C26.2789565,36.1523478 25.2208696,36.5217391 23.8570435,36.5217391 L21.2055652,36.5217391 L21.2055652,28.3273043 L24.0417391,28.3273043 C25.3565217,28.3273043 26.3718261,28.6633043 27.0876522,29.3363478 C27.8034783,30.0093913 28.1613913,30.9798261 28.1613913,32.2507826 Z M25.8636522,32.3290435 C25.8636522,31.5777391 25.7154783,31.0215652 25.418087,30.6584348 C25.1217391,30.2953043 24.669913,30.1147826 24.0646957,30.1147826 L23.4198261,30.1147826 L23.4198261,34.704 L23.9133913,34.704 C24.5864348,34.704 25.0789565,34.5078261 25.3930435,34.1175652 C25.7071304,33.7273043 25.8636522,33.1325217 25.8636522,32.3290435 Z" id="Shape" fill="#FFFFFF"></path>
                                <polygon id="Path" fill="#FFFFFF" points="31.8093913 36.5217391 29.6295652 36.5217391 29.6295652 28.3273043 34.4723478 28.3273043 34.4723478 30.1033043 31.8104348 30.1033043 31.8104348 31.6674783 34.2657391 31.6674783 34.2657391 33.4434783 31.8104348 33.4434783 31.8104348 36.5217391"></polygon>
                            </g>
                        </g>
                    </g>
                </g>
            </g>
        </g>
    </g>
</svg>