<?xml version="1.0" encoding="UTF-8"?>
<svg width="12px" height="14px" viewBox="0 0 12 14" version="1.1" xmlns="http://www.w3.org/2000/svg" xmlns:xlink="http://www.w3.org/1999/xlink">
    <!-- Generator: sketchtool 55.2 (78181) - https://sketchapp.com -->
    <title>75F1A035-F958-416C-BE77-5AFE03FBE8D8</title>
    <desc>Created with sketchtool.</desc>
    <g id="👽-GBV-Client" stroke="none" stroke-width="1" fill="none" fill-rule="evenodd">
        <g id="BGV-Client-zomato-add-education-details_4" transform="translate(-838.000000, -223.000000)" fill-rule="nonzero">
            <g id="personal_details-DL" transform="translate(160.000000, 65.000000)">
                <g id="Group-2" transform="translate(662.000000, 96.000000)">
                    <g id="pdf-copy" transform="translate(16.000000, 62.000000)">
                        <path d="M2.57142857,0 C2.1,0 1.71428571,0.385714286 1.71428571,0.857142857 L1.71428571,12.8571429 C1.71428571,13.3285714 2.1,13.7142857 2.57142857,13.7142857 L11.1428571,13.7142857 C11.6142857,13.7142857 12,13.3285714 12,12.8571429 L12,3.42857143 L8.57142857,0 L2.57142857,0 Z" id="Path" fill="#E2E5E7"></path>
                        <path d="M9.42857143,3.42857143 L12,3.42857143 L8.57142857,0 L8.57142857,2.57142857 C8.57142857,3.04285714 8.95714286,3.42857143 9.42857143,3.42857143 Z" id="Path" fill="#B0B7BD"></path>
                        <polygon id="Path" fill="#CAD1D8" points="12 6 9.42857143 3.42857143 12 3.42857143"></polygon>
                        <path d="M10.2857143,11.1428571 C10.2857143,11.3785714 10.0928571,11.5714286 9.85714286,11.5714286 L0.428571429,11.5714286 C0.192857143,11.5714286 0,11.3785714 0,11.1428571 L0,6.85714286 C0,6.62142857 0.192857143,6.42857143 0.428571429,6.42857143 L9.85714286,6.42857143 C10.0928571,6.42857143 10.2857143,6.62142857 10.2857143,6.85714286 L10.2857143,11.1428571 Z" id="Path" fill="#F15642"></path>
                        <g id="Group" transform="translate(1.848214, 7.875000)" fill="#FFFFFF">
                            <path d="M0.0199285714,0.245142857 C0.0199285714,0.132 0.109071429,0.00857142857 0.252642857,0.00857142857 L1.04421429,0.00857142857 C1.48992857,0.00857142857 1.89107143,0.306857143 1.89107143,0.878571429 C1.89107143,1.42028571 1.48992857,1.722 1.04421429,1.722 L0.472071429,1.722 L0.472071429,2.17457143 C0.472071429,2.32542857 0.376071429,2.41071429 0.252642857,2.41071429 C0.1395,2.41071429 0.0199285714,2.32542857 0.0199285714,2.17457143 L0.0199285714,0.245142857 L0.0199285714,0.245142857 Z M0.472071429,0.440142857 L0.472071429,1.29385714 L1.04421429,1.29385714 C1.27392857,1.29385714 1.45564286,1.09114286 1.45564286,0.878571429 C1.45564286,0.639 1.27392857,0.440142857 1.04421429,0.440142857 L0.472071429,0.440142857 Z" id="Shape"></path>
                            <path d="M2.56221429,2.41071429 C2.44907143,2.41071429 2.32564286,2.349 2.32564286,2.19857143 L2.32564286,0.252 C2.32564286,0.129 2.44907143,0.0394285714 2.56221429,0.0394285714 L3.34692857,0.0394285714 C4.91292857,0.0394285714 4.87864286,2.41071429 3.37778571,2.41071429 L2.56221429,2.41071429 L2.56221429,2.41071429 Z M2.77821429,0.457714286 L2.77821429,1.99285714 L3.34692857,1.99285714 C4.27221429,1.99285714 4.31335714,0.457714286 3.34692857,0.457714286 L2.77821429,0.457714286 L2.77821429,0.457714286 Z" id="Shape"></path>
                            <path d="M5.43407143,0.485142857 L5.43407143,1.02985714 L6.30792857,1.02985714 C6.43135714,1.02985714 6.55478571,1.15328571 6.55478571,1.27285714 C6.55478571,1.386 6.43135714,1.47857143 6.30792857,1.47857143 L5.43407143,1.47857143 L5.43407143,2.19814286 C5.43407143,2.31814286 5.34878571,2.41028571 5.22878571,2.41028571 C5.07792857,2.41028571 4.98578571,2.31814286 4.98578571,2.19814286 L4.98578571,0.251571429 C4.98578571,0.128571429 5.07835714,0.039 5.22878571,0.039 L6.43178571,0.039 C6.58264286,0.039 6.67178571,0.128571429 6.67178571,0.251571429 C6.67178571,0.361285714 6.58264286,0.484714286 6.43178571,0.484714286 L5.43407143,0.484714286 L5.43407143,0.485142857 Z" id="Path"></path>
                        </g>
                        <path d="M9.85714286,11.5714286 L1.71428571,11.5714286 L1.71428571,12 L9.85714286,12 C10.0928571,12 10.2857143,11.8071429 10.2857143,11.5714286 L10.2857143,11.1428571 C10.2857143,11.3785714 10.0928571,11.5714286 9.85714286,11.5714286 Z" id="Path" fill="#CAD1D8"></path>
                    </g>
                </g>
            </g>
        </g>
    </g>
</svg>