<?xml version="1.0" encoding="UTF-8"?>
<svg width="40px" height="40px" viewBox="0 0 40 40" version="1.1" xmlns="http://www.w3.org/2000/svg" xmlns:xlink="http://www.w3.org/1999/xlink">
    <title>D553D5C1-3CF7-4021-B8CC-93388CEA6727</title>
    <defs>
        <path d="M15.4459391,9.91969312 C17.1936922,9.91969312 19.0014946,11.1953474 19.0014946,13.3306561 C19.0014946,15.3118906 16.0547292,18.181224 15.7185317,18.5020141 C15.56592,18.6474972 15.3259582,18.6474972 15.1733465,18.5020141 C14.837149,18.181224 11.8903835,15.3118906 11.8903835,13.3306561 C11.8903835,11.1953474 13.698186,9.91969312 15.4459391,9.91969312 Z M10.165149,0.922557316 L18.856507,8.03366843 C18.9857441,8.13939331 19.0345579,8.31495206 18.9784437,8.47221355 C18.9223296,8.62947504 18.7734059,8.73450793 18.6064329,8.73450793 C18.5154059,8.73439993 18.4272088,8.70286109 18.3567539,8.64522398 L17.0253333,7.55533333 L17.0270547,9.81094498 C16.5387782,9.61138837 16.002795,9.50302645 15.4459391,9.50302645 C13.3056555,9.50302645 11.4737169,11.1038137 11.4737169,13.3306561 C11.4737169,14.3238904 12.0711763,15.4967346 13.0764155,16.7941937 C13.4310273,17.2518901 13.8175607,17.6988062 14.2145921,18.1222595 L14.3029638,18.2153474 L3.59408722,18.2159894 C3.19407852,18.2159894 2.86349592,17.9187409 2.81117666,17.533081 L2.80396377,17.425866 L2.80333333,7.55633333 L1.47379093,8.64522398 C1.30464773,8.77928018 1.05922454,8.75278393 0.922591177,8.58571565 C0.785957816,8.41864737 0.808688682,8.17284684 0.97364278,8.03366843 L9.6650008,0.922557316 C9.81049402,0.803592006 10.0196557,0.803592006 10.165149,0.922557316 Z M15.4459391,12.2900635 C14.923117,12.2900635 14.4793629,12.6285937 14.3219192,13.0984115 C14.2230701,13.2715455 14.1666667,13.4717785 14.1666667,13.6851852 C14.1666667,14.3397449 14.6972921,14.8703704 15.3518519,14.8703704 C15.8754246,14.8703704 16.3197021,14.5308674 16.4765481,14.0599979 C16.5749889,13.8879353 16.6311243,13.6881476 16.6311243,13.4752487 C16.6311243,12.820689 16.1004988,12.2900635 15.4459391,12.2900635 Z" id="path-1"></path>
    </defs>
    <g id="profille_view-mode" stroke="none" stroke-width="1" fill="none" fill-rule="evenodd">
        <g id="attendance-_profile_04" transform="translate(-200.000000, -2871.000000)">
            <g id="Group-29" transform="translate(160.000000, 446.000000)">
                <g id="section-copy" transform="translate(40.000000, 1882.000000)">
                    <g id="mother" transform="translate(0.000000, 543.000000)">
                        <circle id="Oval" fill="#E5EEF7" opacity="0.5" cx="20" cy="20" r="20"></circle>
                        <g id="icon-/-24-/-info-/-permanent-address" transform="translate(10.000000, 10.000000)">
                            <mask id="mask-2" fill="white">
                                <use xlink:href="#path-1"></use>
                            </mask>
                            <use id="Combined-Shape" fill="#7892B8" fill-rule="nonzero" xlink:href="#path-1"></use>
                            <rect id="Rectangle" fill="#0059B2" mask="url(#mask-2)" x="0" y="0" width="20" height="20"></rect>
                        </g>
                    </g>
                </g>
            </g>
        </g>
    </g>
</svg>