<?xml version="1.0" encoding="UTF-8"?>
<svg width="40px" height="40px" viewBox="0 0 40 40" version="1.1" xmlns="http://www.w3.org/2000/svg" xmlns:xlink="http://www.w3.org/1999/xlink">
    <title>95EEB870-8DFC-4CE0-980B-6745D1E024F9</title>
    <defs>
        <path d="M13.3081026,12.1861346 L11.1669188,14.2961271 L5.70020334,8.82941162 L7.81019589,6.68822787 C8.07117912,6.4227438 8.14584362,6.02586215 7.99917784,5.68368794 L5.80203342,0.55548865 C5.62251691,0.137514848 5.16381814,-0.085783616 4.72410244,0.0307426759 L0.687594947,1.09674761 C0.27220009,1.20422714 -0.0132081359,1.58527951 0.000471285749,2.01413568 C0.257191445,6.70555592 2.20783412,11.1443763 5.49012147,14.506209 C8.85302806,17.788971 13.2932811,19.7393443 17.9858643,19.9949418 C18.4147205,20.0086212 18.7957729,19.723213 18.9032524,19.3078181 L19.9692573,15.2713106 C20.0857836,14.8315949 19.8624852,14.3728962 19.4445114,14.1933796 L14.3163121,11.9962352 C13.9729481,11.8481389 13.5740609,11.9232705 13.3081026,12.1861346 Z" id="path-1"></path>
    </defs>
    <g id="profille_view-mode" stroke="none" stroke-width="1" fill="none" fill-rule="evenodd">
        <g id="attendance-_profile_04" transform="translate(-584.000000, -3154.000000)">
            <g id="Group-29" transform="translate(160.000000, 446.000000)">
                <g id="section-copy" transform="translate(40.000000, 1882.000000)">
                    <g id="mother" transform="translate(384.000000, 826.000000)">
                        <circle id="Oval" fill="#E5EEF7" opacity="0.5" cx="20" cy="20" r="20"></circle>
                        <g id="icon-/-16-/-info-/-call" transform="translate(10.000000, 10.000000)">
                            <mask id="mask-2" fill="white">
                                <use xlink:href="#path-1"></use>
                            </mask>
                            <use id="Path" fill="#000000" fill-rule="nonzero" xlink:href="#path-1"></use>
                            <rect id="Rectangle" fill="#0059B2" mask="url(#mask-2)" x="0" y="0" width="20" height="20"></rect>
                        </g>
                    </g>
                </g>
            </g>
        </g>
    </g>
</svg>