<?xml version="1.0" encoding="UTF-8"?>
<svg width="148px" height="92px" viewBox="0 0 148 92" version="1.1" xmlns="http://www.w3.org/2000/svg" xmlns:xlink="http://www.w3.org/1999/xlink">
    <!-- Generator: sketchtool 63.1 (101010) - https://sketch.com -->
    <title>D67FC155-5D92-4F63-A42D-0B14CA439C27</title>
    <desc>Created with sketchtool.</desc>
    <g id="🖥-Ops_analyst-" stroke="none" stroke-width="1" fill="none" fill-rule="evenodd">
        <g id="physical-verification_04" transform="translate(-868.000000, -88.000000)">
            <g id="card-/-🖥-Ops_analyst-/--task-card-registration-certificate" transform="translate(160.000000, 64.000000)">
                <g id="pan-cards" transform="translate(708.000000, 24.000000)">
                    <path d="M2.87547763e-14,8.00345689 C2.87547763e-14,3.5832697 3.58511452,0 8.00959849,0 L139.990402,0 C144.413981,0 148,3.57827291 148,8.00345689 L148,83.9965431 C148,88.4167303 144.414885,92 139.990402,92 L8.00959849,92 C3.58601939,92 2.87547763e-14,88.4217271 2.87547763e-14,83.9965431 L2.87547763e-14,8.00345689 Z" id="Rectangle-Copy-13" fill="#6A54CD"></path>
                    <path d="M14.8812549,33.6 L14.8812549,28.938 C15.5080784,29.766 16.430902,30.252 17.7019608,30.252 C20.0351373,30.252 21.9504314,28.182 21.9504314,25.5 C21.9504314,22.818 20.0351373,20.748 17.7019608,20.748 C16.430902,20.748 15.5080784,21.234 14.8812549,22.062 L14.8812549,21 L12.6351373,21 L12.6351373,33.6 L14.8812549,33.6 Z M17.2840784,28.038 C15.908549,28.038 14.8812549,27.012 14.8812549,25.5 C14.8812549,23.988 15.908549,22.962 17.2840784,22.962 C18.6770196,22.962 19.7043137,23.988 19.7043137,25.5 C19.7043137,27.012 18.6770196,28.038 17.2840784,28.038 Z M25.7810196,30 L25.7810196,25.14 C25.7810196,23.574 26.5993725,22.908 27.6963137,22.908 C28.7061961,22.908 29.4200784,23.538 29.4200784,24.762 L29.4200784,30 L31.6661961,30 L31.6661961,24.474 C31.6661961,22.08 30.2210196,20.748 28.3753725,20.748 C27.2087843,20.748 26.3033725,21.198 25.7810196,22.008 L25.7810196,17.4 L23.534902,17.4 L23.534902,30 L25.7810196,30 Z M38.3000784,30 L41.4690196,21 L39.0661961,21 L37.1334902,27.048 L34.8699608,21 L32.414902,21 L35.9843137,29.712 C35.5664314,30.918 34.9396078,31.458 33.7033725,31.44 L33.7033725,33.6 C35.9146667,33.726 37.3946667,32.592 38.3000784,30 Z M45.0558431,30.252 C46.918902,30.252 48.5556078,29.316 48.5556078,27.372 C48.5556078,24.06 44.0633725,24.888 44.0633725,23.556 C44.0633725,23.07 44.5160784,22.818 45.0732549,22.818 C45.7174902,22.818 46.2050196,23.16 46.4661961,23.736 L48.3814902,22.656 C47.7024314,21.414 46.4836078,20.748 45.0732549,20.748 C43.2798431,20.748 41.7650196,21.774 41.7650196,23.61 C41.7650196,26.778 46.2572549,26.058 46.2572549,27.372 C46.2572549,27.894 45.7697255,28.146 45.0558431,28.146 C44.1852549,28.146 43.5932549,27.714 43.3494902,26.976 L41.3993725,28.11 C42.0261961,29.496 43.3146667,30.252 45.0558431,30.252 Z M51.1151373,19.92 C51.8812549,19.92 52.5080784,19.272 52.5080784,18.498 C52.5080784,17.724 51.8812549,17.058 51.1151373,17.058 C50.3664314,17.058 49.7396078,17.724 49.7396078,18.498 C49.7396078,19.272 50.3664314,19.92 51.1151373,19.92 Z M52.246902,30 L52.246902,21 L50.0007843,21 L50.0007843,30 L52.246902,30 Z M58.4454902,30.252 C60.1518431,30.252 61.6318431,29.316 62.380549,27.912 L60.4304314,26.76 C60.0821961,27.498 59.3334902,27.948 58.4280784,27.948 C57.0873725,27.948 56.094902,26.922 56.094902,25.5 C56.094902,24.06 57.0873725,23.034 58.4280784,23.034 C59.3160784,23.034 60.0647843,23.502 60.4130196,24.24 L62.3457255,23.07 C61.6318431,21.684 60.1518431,20.748 58.4454902,20.748 C55.798902,20.748 53.8487843,22.818 53.8487843,25.5 C53.8487843,28.182 55.798902,30.252 58.4454902,30.252 Z M67.2036078,30.252 C68.4746667,30.252 69.414902,29.748 70.0417255,28.938 L70.0417255,30 L72.2878431,30 L72.2878431,21 L70.0417255,21 L70.0417255,22.062 C69.414902,21.252 68.4746667,20.748 67.2036078,20.748 C64.8878431,20.748 62.972549,22.818 62.972549,25.5 C62.972549,28.182 64.8878431,30.252 67.2036078,30.252 Z M67.6214902,28.038 C66.2459608,28.038 65.2186667,27.012 65.2186667,25.5 C65.2186667,23.988 66.2459608,22.962 67.6214902,22.962 C69.0144314,22.962 70.0417255,23.988 70.0417255,25.5 C70.0417255,27.012 69.0144314,28.038 67.6214902,28.038 Z M76.5711373,30 L76.5711373,16.86 L74.3250196,16.86 L74.3250196,30 L76.5711373,30 Z M16.4134902,54.252 C17.684549,54.252 18.6247843,53.748 19.2516078,52.938 L19.2516078,54 L21.4977255,54 L21.4977255,45 L19.2516078,45 L19.2516078,46.062 C18.6247843,45.252 17.684549,44.748 16.4134902,44.748 C14.0977255,44.748 12.1824314,46.818 12.1824314,49.5 C12.1824314,52.182 14.0977255,54.252 16.4134902,54.252 Z M16.8313725,52.038 C15.4558431,52.038 14.428549,51.012 14.428549,49.5 C14.428549,47.988 15.4558431,46.962 16.8313725,46.962 C18.2243137,46.962 19.2516078,47.988 19.2516078,49.5 C19.2516078,51.012 18.2243137,52.038 16.8313725,52.038 Z M27.3132549,54.252 C28.5843137,54.252 29.5071373,53.766 30.1339608,52.938 L30.1339608,54 L32.3800784,54 L32.3800784,41.4 L30.1339608,41.4 L30.1339608,46.062 C29.5071373,45.234 28.5843137,44.748 27.3132549,44.748 C24.9800784,44.748 23.0647843,46.818 23.0647843,49.5 C23.0647843,52.182 24.9800784,54.252 27.3132549,54.252 Z M27.7311373,52.038 C26.3381961,52.038 25.310902,51.012 25.310902,49.5 C25.310902,47.988 26.3381961,46.962 27.7311373,46.962 C29.1066667,46.962 30.1339608,47.988 30.1339608,49.5 C30.1339608,51.012 29.1066667,52.038 27.7311373,52.038 Z M38.2130196,54.252 C39.4840784,54.252 40.406902,53.766 41.0337255,52.938 L41.0337255,54 L43.2798431,54 L43.2798431,41.4 L41.0337255,41.4 L41.0337255,46.062 C40.406902,45.234 39.4840784,44.748 38.2130196,44.748 C35.8798431,44.748 33.964549,46.818 33.964549,49.5 C33.964549,52.182 35.8798431,54.252 38.2130196,54.252 Z M38.630902,52.038 C37.2379608,52.038 36.2106667,51.012 36.2106667,49.5 C36.2106667,47.988 37.2379608,46.962 38.630902,46.962 C40.0064314,46.962 41.0337255,47.988 41.0337255,49.5 C41.0337255,51.012 40.0064314,52.038 38.630902,52.038 Z M47.580549,54 L47.580549,49.698 C47.580549,47.808 49.060549,47.268 50.2271373,47.412 L50.2271373,44.82 C49.1301961,44.82 48.0332549,45.324 47.580549,46.548 L47.580549,45 L45.3344314,45 L45.3344314,54 L47.580549,54 Z M55.5203137,54.252 C57.1918431,54.252 58.4977255,53.55 59.3160784,52.326 L57.5052549,51.246 C57.1221961,51.768 56.4257255,52.146 55.5551373,52.146 C54.3711373,52.146 53.4134902,51.642 53.1000784,50.454 L59.6643137,50.454 C59.716549,50.148 59.7513725,49.842 59.7513725,49.5 C59.7513725,46.854 57.9231373,44.748 55.3461961,44.748 C52.612549,44.748 50.7494902,46.818 50.7494902,49.5 C50.7494902,52.182 52.5951373,54.252 55.5203137,54.252 Z M57.5052549,48.654 L53.0652549,48.654 C53.3264314,47.502 54.1447843,46.836 55.3461961,46.836 C56.2864314,46.836 57.2266667,47.358 57.5052549,48.654 Z M64.0346667,54.252 C65.8977255,54.252 67.5344314,53.316 67.5344314,51.372 C67.5344314,48.06 63.0421961,48.888 63.0421961,47.556 C63.0421961,47.07 63.494902,46.818 64.0520784,46.818 C64.6963137,46.818 65.1838431,47.16 65.4450196,47.736 L67.3603137,46.656 C66.6812549,45.414 65.4624314,44.748 64.0520784,44.748 C62.2586667,44.748 60.7438431,45.774 60.7438431,47.61 C60.7438431,50.778 65.2360784,50.058 65.2360784,51.372 C65.2360784,51.894 64.748549,52.146 64.0346667,52.146 C63.1640784,52.146 62.5720784,51.714 62.3283137,50.976 L60.3781961,52.11 C61.0050196,53.496 62.2934902,54.252 64.0346667,54.252 Z M71.5913725,54.252 C73.4544314,54.252 75.0911373,53.316 75.0911373,51.372 C75.0911373,48.06 70.598902,48.888 70.598902,47.556 C70.598902,47.07 71.0516078,46.818 71.6087843,46.818 C72.2530196,46.818 72.740549,47.16 73.0017255,47.736 L74.9170196,46.656 C74.2379608,45.414 73.0191373,44.748 71.6087843,44.748 C69.8153725,44.748 68.300549,45.774 68.300549,47.61 C68.300549,50.778 72.7927843,50.058 72.7927843,51.372 C72.7927843,51.894 72.3052549,52.146 71.5913725,52.146 C70.7207843,52.146 70.1287843,51.714 69.8850196,50.976 L67.934902,52.11 C68.5617255,53.496 69.8501961,54.252 71.5913725,54.252 Z" id="physicaladdress" fill="#FFFFFF" fill-rule="nonzero"></path>
                </g>
            </g>
        </g>
    </g>
</svg>