<?xml version="1.0" encoding="UTF-8"?>
<svg width="88px" height="57px" viewBox="0 0 88 57" version="1.1" xmlns="http://www.w3.org/2000/svg" xmlns:xlink="http://www.w3.org/1999/xlink">
    <!-- Generator: sketchtool 63.1 (101010) - https://sketch.com -->
    <title>A92B9833-4E60-4430-8D57-1D01CF865D92</title>
    <desc>Created with sketchtool.</desc>
    <g id="🖥-Ops_analyst-" stroke="none" stroke-width="1" fill="none" fill-rule="evenodd">
        <g id="normal-login-3" transform="translate(-186.000000, -999.000000)">
            <g id="address-verification" transform="translate(160.000000, 934.000000)">
                <g id="🖥-Ops_analyst-/-dashboard-/-task-/-physical-check" transform="translate(0.000000, 41.000000)">
                    <g id="PAN">
                        <g id="Group-4" transform="translate(26.000000, 24.000000)">
                            <g id="Group-28">
                                <g id="pan-cards">
                                    <path d="M1.70974346e-14,8.00065503 C1.70974346e-14,3.58201527 3.58618247,0 8.00361999,0 L79.99638,0 C84.4166573,0 88,3.58719818 88,8.00065503 L88,48.999345 C88,53.4179847 84.4138175,57 79.99638,57 L8.00361999,57 C3.58334272,57 1.70974346e-14,53.4128018 1.70974346e-14,48.999345 L1.70974346e-14,8.00065503 Z" id="Rectangle-Copy-13" fill="#6A54CD"></path>
                                    <path d="M8.84831373,20.8173913 L8.84831373,17.9289783 C9.22101961,18.4419783 9.76972549,18.743087 10.5254902,18.743087 C11.9127843,18.743087 13.0516078,17.460587 13.0516078,15.798913 C13.0516078,14.1372391 11.9127843,12.8547391 10.5254902,12.8547391 C9.76972549,12.8547391 9.22101961,13.1558478 8.84831373,13.6688478 L8.84831373,13.0108696 L7.51278431,13.0108696 L7.51278431,20.8173913 L8.84831373,20.8173913 Z M10.2770196,17.3713696 C9.45913725,17.3713696 8.84831373,16.7356957 8.84831373,15.798913 C8.84831373,14.8621304 9.45913725,14.2264565 10.2770196,14.2264565 C11.1052549,14.2264565 11.7160784,14.8621304 11.7160784,15.798913 C11.7160784,16.7356957 11.1052549,17.3713696 10.2770196,17.3713696 Z M15.3292549,18.5869565 L15.3292549,15.5758696 C15.3292549,14.6056304 15.8158431,14.193 16.4680784,14.193 C17.068549,14.193 17.4930196,14.5833261 17.4930196,15.3416739 L17.4930196,18.5869565 L18.828549,18.5869565 L18.828549,15.1632391 C18.828549,13.68 17.9692549,12.8547391 16.8718431,12.8547391 C16.1781961,12.8547391 15.6398431,13.1335435 15.3292549,13.6353913 L15.3292549,10.7804348 L13.9937255,10.7804348 L13.9937255,18.5869565 L15.3292549,18.5869565 Z M22.7730196,18.5869565 L24.6572549,13.0108696 L23.228549,13.0108696 L22.0793725,16.758 L20.7334902,13.0108696 L19.2737255,13.0108696 L21.3960784,18.4085217 C21.1476078,19.1557174 20.774902,19.4902826 20.0398431,19.4791304 L20.0398431,20.8173913 C21.3546667,20.8954565 22.2346667,20.1928696 22.7730196,18.5869565 Z M26.7899608,18.743087 C27.8977255,18.743087 28.870902,18.1631739 28.870902,16.9587391 C28.870902,14.9067391 26.1998431,15.4197391 26.1998431,14.5944783 C26.1998431,14.2933696 26.4690196,14.1372391 26.8003137,14.1372391 C27.1833725,14.1372391 27.4732549,14.3491304 27.628549,14.706 L28.7673725,14.0368696 C28.3636078,13.2673696 27.638902,12.8547391 26.8003137,12.8547391 C25.7339608,12.8547391 24.8332549,13.490413 24.8332549,14.6279348 C24.8332549,16.5907174 27.5043137,16.1446304 27.5043137,16.9587391 C27.5043137,17.2821522 27.2144314,17.4382826 26.7899608,17.4382826 C26.2723137,17.4382826 25.9203137,17.1706304 25.7753725,16.7133913 L24.6158431,17.4159783 C24.988549,18.2746957 25.7546667,18.743087 26.7899608,18.743087 Z M30.3927843,12.3417391 C30.8483137,12.3417391 31.2210196,11.9402609 31.2210196,11.4607174 C31.2210196,10.9811739 30.8483137,10.5685435 30.3927843,10.5685435 C29.9476078,10.5685435 29.574902,10.9811739 29.574902,11.4607174 C29.574902,11.9402609 29.9476078,12.3417391 30.3927843,12.3417391 Z M31.0657255,18.5869565 L31.0657255,13.0108696 L29.7301961,13.0108696 L29.7301961,18.5869565 L31.0657255,18.5869565 Z M34.7513725,18.743087 C35.7659608,18.743087 36.6459608,18.1631739 37.0911373,17.2933043 L35.9316078,16.5795652 C35.724549,17.0368043 35.2793725,17.3156087 34.7410196,17.3156087 C33.9438431,17.3156087 33.3537255,16.6799348 33.3537255,15.798913 C33.3537255,14.9067391 33.9438431,14.2710652 34.7410196,14.2710652 C35.2690196,14.2710652 35.7141961,14.5610217 35.9212549,15.0182609 L37.0704314,14.2933696 C36.6459608,13.4346522 35.7659608,12.8547391 34.7513725,12.8547391 C33.1777255,12.8547391 32.0181961,14.1372391 32.0181961,15.798913 C32.0181961,17.460587 33.1777255,18.743087 34.7513725,18.743087 Z M39.958902,18.743087 C40.7146667,18.743087 41.2737255,18.4308261 41.6464314,17.9289783 L41.6464314,18.5869565 L42.9819608,18.5869565 L42.9819608,13.0108696 L41.6464314,13.0108696 L41.6464314,13.6688478 C41.2737255,13.167 40.7146667,12.8547391 39.958902,12.8547391 C38.5819608,12.8547391 37.4431373,14.1372391 37.4431373,15.798913 C37.4431373,17.460587 38.5819608,18.743087 39.958902,18.743087 Z M40.2073725,17.3713696 C39.3894902,17.3713696 38.7786667,16.7356957 38.7786667,15.798913 C38.7786667,14.8621304 39.3894902,14.2264565 40.2073725,14.2264565 C41.0356078,14.2264565 41.6464314,14.8621304 41.6464314,15.798913 C41.6464314,16.7356957 41.0356078,17.3713696 40.2073725,17.3713696 Z M45.5287843,18.5869565 L45.5287843,10.4458696 L44.1932549,10.4458696 L44.1932549,18.5869565 L45.5287843,18.5869565 Z M9.75937255,33.6126522 C10.5151373,33.6126522 11.0741961,33.3003913 11.446902,32.7985435 L11.446902,33.4565217 L12.7824314,33.4565217 L12.7824314,27.8804348 L11.446902,27.8804348 L11.446902,28.538413 C11.0741961,28.0365652 10.5151373,27.7243043 9.75937255,27.7243043 C8.38243137,27.7243043 7.24360784,29.0068043 7.24360784,30.6684783 C7.24360784,32.3301522 8.38243137,33.6126522 9.75937255,33.6126522 Z M10.0078431,32.2409348 C9.18996078,32.2409348 8.57913725,31.6052609 8.57913725,30.6684783 C8.57913725,29.7316957 9.18996078,29.0960217 10.0078431,29.0960217 C10.8360784,29.0960217 11.446902,29.7316957 11.446902,30.6684783 C11.446902,31.6052609 10.8360784,32.2409348 10.0078431,32.2409348 Z M16.2403137,33.6126522 C16.9960784,33.6126522 17.5447843,33.3115435 17.9174902,32.7985435 L17.9174902,33.4565217 L19.2530196,33.4565217 L19.2530196,25.65 L17.9174902,25.65 L17.9174902,28.538413 C17.5447843,28.025413 16.9960784,27.7243043 16.2403137,27.7243043 C14.8530196,27.7243043 13.7141961,29.0068043 13.7141961,30.6684783 C13.7141961,32.3301522 14.8530196,33.6126522 16.2403137,33.6126522 Z M16.4887843,32.2409348 C15.660549,32.2409348 15.0497255,31.6052609 15.0497255,30.6684783 C15.0497255,29.7316957 15.660549,29.0960217 16.4887843,29.0960217 C17.3066667,29.0960217 17.9174902,29.7316957 17.9174902,30.6684783 C17.9174902,31.6052609 17.3066667,32.2409348 16.4887843,32.2409348 Z M22.7212549,33.6126522 C23.4770196,33.6126522 24.0257255,33.3115435 24.3984314,32.7985435 L24.3984314,33.4565217 L25.7339608,33.4565217 L25.7339608,25.65 L24.3984314,25.65 L24.3984314,28.538413 C24.0257255,28.025413 23.4770196,27.7243043 22.7212549,27.7243043 C21.3339608,27.7243043 20.1951373,29.0068043 20.1951373,30.6684783 C20.1951373,32.3301522 21.3339608,33.6126522 22.7212549,33.6126522 Z M22.9697255,32.2409348 C22.1414902,32.2409348 21.5306667,31.6052609 21.5306667,30.6684783 C21.5306667,29.7316957 22.1414902,29.0960217 22.9697255,29.0960217 C23.7876078,29.0960217 24.3984314,29.7316957 24.3984314,30.6684783 C24.3984314,31.6052609 23.7876078,32.2409348 22.9697255,32.2409348 Z M28.2911373,33.4565217 L28.2911373,30.7911522 C28.2911373,29.6201739 29.1711373,29.2856087 29.8647843,29.3748261 L29.8647843,27.768913 C29.212549,27.768913 28.5603137,28.0811739 28.2911373,28.8395217 L28.2911373,27.8804348 L26.9556078,27.8804348 L26.9556078,33.4565217 L28.2911373,33.4565217 Z M33.0120784,33.6126522 C34.0059608,33.6126522 34.7824314,33.1777174 35.2690196,32.4193696 L34.1923137,31.7502391 C33.964549,32.0736522 33.5504314,32.3078478 33.0327843,32.3078478 C32.3287843,32.3078478 31.7593725,31.995587 31.5730196,31.2595435 L35.4760784,31.2595435 C35.5071373,31.0699565 35.5278431,30.8803696 35.5278431,30.6684783 C35.5278431,29.0291087 34.4407843,27.7243043 32.908549,27.7243043 C31.2831373,27.7243043 30.1753725,29.0068043 30.1753725,30.6684783 C30.1753725,32.3301522 31.2727843,33.6126522 33.0120784,33.6126522 Z M34.1923137,30.1443261 L31.5523137,30.1443261 C31.7076078,29.430587 32.1941961,29.0179565 32.908549,29.0179565 C33.4676078,29.0179565 34.0266667,29.3413696 34.1923137,30.1443261 Z M38.0746667,33.6126522 C39.1824314,33.6126522 40.1556078,33.0327391 40.1556078,31.8283043 C40.1556078,29.7763043 37.484549,30.2893043 37.484549,29.4640435 C37.484549,29.1629348 37.7537255,29.0068043 38.0850196,29.0068043 C38.4680784,29.0068043 38.7579608,29.2186957 38.9132549,29.5755652 L40.0520784,28.9064348 C39.6483137,28.1369348 38.9236078,27.7243043 38.0850196,27.7243043 C37.0186667,27.7243043 36.1179608,28.3599783 36.1179608,29.4975 C36.1179608,31.4602826 38.7890196,31.0141957 38.7890196,31.8283043 C38.7890196,32.1517174 38.4991373,32.3078478 38.0746667,32.3078478 C37.5570196,32.3078478 37.2050196,32.0401957 37.0600784,31.5829565 L35.900549,32.2855435 C36.2732549,33.1442609 37.0393725,33.6126522 38.0746667,33.6126522 Z M42.5678431,33.6126522 C43.6756078,33.6126522 44.6487843,33.0327391 44.6487843,31.8283043 C44.6487843,29.7763043 41.9777255,30.2893043 41.9777255,29.4640435 C41.9777255,29.1629348 42.246902,29.0068043 42.5781961,29.0068043 C42.9612549,29.0068043 43.2511373,29.2186957 43.4064314,29.5755652 L44.5452549,28.9064348 C44.1414902,28.1369348 43.4167843,27.7243043 42.5781961,27.7243043 C41.5118431,27.7243043 40.6111373,28.3599783 40.6111373,29.4975 C40.6111373,31.4602826 43.2821961,31.0141957 43.2821961,31.8283043 C43.2821961,32.1517174 42.9923137,32.3078478 42.5678431,32.3078478 C42.0501961,32.3078478 41.6981961,32.0401957 41.5532549,31.5829565 L40.3937255,32.2855435 C40.7664314,33.1442609 41.532549,33.6126522 42.5678431,33.6126522 Z" id="physicaladdress" fill="#FFFFFF" fill-rule="nonzero"></path>
                                </g>
                            </g>
                        </g>
                    </g>
                </g>
            </g>
        </g>
    </g>
</svg>