<?xml version="1.0" encoding="UTF-8"?>
<svg width="16px" height="16px" viewBox="0 0 16 16" version="1.1" xmlns="http://www.w3.org/2000/svg" xmlns:xlink="http://www.w3.org/1999/xlink">
    <!-- Generator: sketchtool 55.2 (78181) - https://sketchapp.com -->
    <title>4CB57890-6642-416E-A000-005CA658DA62</title>
    <desc>Created with sketchtool.</desc>
    <defs>
        <path d="M1,7.54951657e-15 L5.54545455,7.54951657e-15 C6.0977393,7.4480635e-15 6.54545455,0.44771525 6.54545455,1 L6.54545455,5.54545455 C6.54545455,6.0977393 6.0977393,6.54545455 5.54545455,6.54545455 L1,6.54545455 C0.44771525,6.54545455 -2.08045575e-14,6.0977393 -2.08721929e-14,5.54545455 L-2.08721929e-14,1 C-2.09398282e-14,0.44771525 0.44771525,7.65096963e-15 1,7.54951657e-15 Z M10.4545455,7.54951657e-15 L15,7.54951657e-15 C15.5522847,7.9385909e-15 16,0.44771525 16,1 L16,5.54545455 C16,6.0977393 15.5522847,6.54545455 15,6.54545455 L10.4545455,6.54545455 C9.9022607,6.54545455 9.45454545,6.0977393 9.45454545,5.54545455 L9.45454545,1 C9.45454545,0.44771525 9.9022607,7.65096963e-15 10.4545455,7.54951657e-15 Z M1,9.45454545 L5.54545455,9.45454545 C6.0977393,9.45454545 6.54545455,9.9022607 6.54545455,10.4545455 L6.54545455,15 C6.54545455,15.5522847 6.0977393,16 5.54545455,16 L1,16 C0.44771525,16 -2.03140301e-14,15.5522847 -2.08721929e-14,15 L-2.08721929e-14,10.4545455 C-2.09398282e-14,9.9022607 0.44771525,9.45454545 1,9.45454545 Z M10.4545455,9.45454545 L15,9.45454545 C15.5522847,9.45454545 16,9.9022607 16,10.4545455 L16,15 C16,15.5522847 15.5522847,16 15,16 L10.4545455,16 C9.9022607,16 9.45454545,15.5522847 9.45454545,15 L9.45454545,10.4545455 C9.45454545,9.9022607 9.9022607,9.45454545 10.4545455,9.45454545 Z" id="path-1"></path>
    </defs>
    <g id="ðŸ‚-on-boarding" stroke="none" stroke-width="1" fill="none" fill-rule="evenodd">
        <g id="04_OPs--all_clients-multy" transform="translate(-652.000000, -119.000000)">
            <g id="nav" transform="translate(160.000000, 119.000000)">
                <g id="insights-copy-3" transform="translate(492.000000, 0.000000)">
                    <g id="icon-/-16-/-info-/-all-client">
                        <mask id="mask-2" fill="white">
                            <use xlink:href="#path-1"></use>
                        </mask>
                        <use id="Combined-Shape" fill="#000000" fill-rule="nonzero" xlink:href="#path-1"></use>
                        <rect id="Rectangle" fill="#8697A8" mask="url(#mask-2)" x="0" y="0" width="16" height="16"></rect>
                    </g>
                </g>
            </g>
        </g>
    </g>
</svg>