<?xml version="1.0" encoding="UTF-8"?>
<svg width="88px" height="57px" viewBox="0 0 88 57" version="1.1" xmlns="http://www.w3.org/2000/svg" xmlns:xlink="http://www.w3.org/1999/xlink">
    <!-- Generator: sketchtool 63.1 (101010) - https://sketch.com -->
    <title>C2FC69F8-BB09-4872-8275-319C0F74DD73</title>
    <desc>Created with sketchtool.</desc>
    <g id="🖥-Ops_analyst-" stroke="none" stroke-width="1" fill="none" fill-rule="evenodd">
        <g id="normal-login-3" transform="translate(-637.000000, -999.000000)">
            <g id="address-verification" transform="translate(160.000000, 934.000000)">
                <g id="🖥-Ops_analyst-/-dashboard-/-task-/-postal-check" transform="translate(451.000000, 41.000000)">
                    <g id="PAN">
                        <g id="Group-4" transform="translate(26.000000, 24.000000)">
                            <g id="court">
                                <path d="M-1.18097724e-13,8.00065503 C-1.18097724e-13,3.58201527 3.58618247,0 8.00361999,0 L79.99638,0 C84.4166573,0 88,3.58719818 88,8.00065503 L88,48.999345 C88,53.4179847 84.4138175,57 79.99638,57 L8.00361999,57 C3.58334272,57 -1.18097724e-13,53.4128018 -1.18097724e-13,48.999345 L-1.18097724e-13,8.00065503 Z" id="Rectangle-Copy-13" fill="#A84567"></path>
                                <path d="M9.92378378,20.8173913 L9.92378378,18.0628043 C10.276973,18.486587 10.8014054,18.743087 11.5184865,18.743087 C12.9205405,18.743087 14.0764324,17.460587 14.0764324,15.798913 C14.0764324,14.1372391 12.9205405,12.8547391 11.5184865,12.8547391 C10.8014054,12.8547391 10.276973,13.1112391 9.92378378,13.5350217 L9.92378378,13.0108696 L8.31837838,13.0108696 L8.31837838,20.8173913 L9.92378378,20.8173913 Z M11.1974054,17.1594783 C10.4589189,17.1594783 9.92378378,16.6353261 9.92378378,15.798913 C9.92378378,14.9625 10.4589189,14.4383478 11.1974054,14.4383478 C11.9358919,14.4383478 12.471027,14.9625 12.471027,15.798913 C12.471027,16.6353261 11.9358919,17.1594783 11.1974054,17.1594783 Z M17.5548108,18.743087 C19.1281081,18.743087 20.391027,17.460587 20.391027,15.798913 C20.391027,14.1372391 19.1281081,12.8547391 17.5548108,12.8547391 C15.9815135,12.8547391 14.7185946,14.1372391 14.7185946,15.798913 C14.7185946,17.460587 15.9815135,18.743087 17.5548108,18.743087 Z M17.5548108,17.1148696 C16.8591351,17.1148696 16.324,16.5907174 16.324,15.798913 C16.324,15.0071087 16.8591351,14.4829565 17.5548108,14.4829565 C18.2504865,14.4829565 18.7856216,15.0071087 18.7856216,15.798913 C18.7856216,16.5907174 18.2504865,17.1148696 17.5548108,17.1148696 Z M23.1202162,18.743087 C24.2761081,18.743087 25.3463784,18.1966304 25.3463784,16.9141304 C25.3463784,14.8509783 22.7135135,15.2747609 22.7135135,14.639087 C22.7135135,14.4383478 22.8847568,14.3268261 23.163027,14.3268261 C23.5162162,14.3268261 23.7302703,14.5275652 23.8801081,14.8175217 L25.2500541,14.0480217 C24.8005405,13.2562174 24.0299459,12.8547391 23.163027,12.8547391 C22.0499459,12.8547391 21.0652973,13.4681087 21.0652973,14.6836957 C21.0652973,16.6130217 23.6981622,16.2896087 23.6981622,16.9029783 C23.6981622,17.1260217 23.5055135,17.2486957 23.1202162,17.2486957 C22.6492973,17.2486957 22.3496216,17.0145 22.2104865,16.5907174 L20.8191351,17.4159783 C21.2365405,18.3193043 22.0499459,18.743087 23.1202162,18.743087 Z M29.1244324,18.5869565 L29.1244324,17.0702609 C28.4180541,17.1148696 28.0220541,17.0702609 28.0220541,16.5907174 L28.0220541,14.6167826 L29.1244324,14.6167826 L29.1244324,13.0108696 L28.0220541,13.0108696 L28.0220541,11.4495652 L26.4166486,11.951413 L26.4166486,13.0108696 L25.5604324,13.0108696 L25.5604324,14.6167826 L26.4166486,14.6167826 L26.4166486,16.5907174 C26.4166486,18.1520217 27.0267027,18.81 29.1244324,18.5869565 Z M32.2175135,18.743087 C32.9345946,18.743087 33.459027,18.486587 33.8122162,18.0628043 L33.8122162,18.5869565 L35.4176216,18.5869565 L35.4176216,13.0108696 L33.8122162,13.0108696 L33.8122162,13.5350217 C33.459027,13.1112391 32.9345946,12.8547391 32.2175135,12.8547391 C30.8154595,12.8547391 29.6595676,14.1372391 29.6595676,15.798913 C29.6595676,17.460587 30.8154595,18.743087 32.2175135,18.743087 Z M32.5385946,17.1594783 C31.8001081,17.1594783 31.264973,16.6353261 31.264973,15.798913 C31.264973,14.9625 31.8001081,14.4383478 32.5385946,14.4383478 C33.2770811,14.4383478 33.8122162,14.9625 33.8122162,15.798913 C33.8122162,16.6353261 33.2770811,17.1594783 32.5385946,17.1594783 Z M38.2003243,18.5869565 L38.2003243,10.4458696 L36.5949189,10.4458696 L36.5949189,18.5869565 L38.2003243,18.5869565 Z M10.6087568,32.3735217 C11.3258378,32.3735217 11.8502703,32.1170217 12.2034595,31.6932391 L12.2034595,32.2173913 L13.8088649,32.2173913 L13.8088649,26.6413043 L12.2034595,26.6413043 L12.2034595,27.1654565 C11.8502703,26.7416739 11.3258378,26.4851739 10.6087568,26.4851739 C9.2067027,26.4851739 8.05081081,27.7676739 8.05081081,29.4293478 C8.05081081,31.0910217 9.2067027,32.3735217 10.6087568,32.3735217 Z M10.9298378,30.789913 C10.1913514,30.789913 9.65621622,30.2657609 9.65621622,29.4293478 C9.65621622,28.5929348 10.1913514,28.0687826 10.9298378,28.0687826 C11.6683243,28.0687826 12.2034595,28.5929348 12.2034595,29.4293478 C12.2034595,30.2657609 11.6683243,30.789913 10.9298378,30.789913 Z M17.2765405,32.3735217 C17.9936216,32.3735217 18.5180541,32.1170217 18.8712432,31.6932391 L18.8712432,32.2173913 L20.4766486,32.2173913 L20.4766486,24.4108696 L18.8712432,24.4108696 L18.8712432,27.1654565 C18.5180541,26.7416739 17.9936216,26.4851739 17.2765405,26.4851739 C15.8744865,26.4851739 14.7185946,27.7676739 14.7185946,29.4293478 C14.7185946,31.0910217 15.8744865,32.3735217 17.2765405,32.3735217 Z M17.5976216,30.789913 C16.8591351,30.789913 16.324,30.2657609 16.324,29.4293478 C16.324,28.5929348 16.8591351,28.0687826 17.5976216,28.0687826 C18.3361081,28.0687826 18.8712432,28.5929348 18.8712432,29.4293478 C18.8712432,30.2657609 18.3361081,30.789913 17.5976216,30.789913 Z M23.9443243,32.3735217 C24.6614054,32.3735217 25.1858378,32.1170217 25.539027,31.6932391 L25.539027,32.2173913 L27.1444324,32.2173913 L27.1444324,24.4108696 L25.539027,24.4108696 L25.539027,27.1654565 C25.1858378,26.7416739 24.6614054,26.4851739 23.9443243,26.4851739 C22.5422703,26.4851739 21.3863784,27.7676739 21.3863784,29.4293478 C21.3863784,31.0910217 22.5422703,32.3735217 23.9443243,32.3735217 Z M24.2654054,30.789913 C23.5269189,30.789913 22.9917838,30.2657609 22.9917838,29.4293478 C22.9917838,28.5929348 23.5269189,28.0687826 24.2654054,28.0687826 C25.0038919,28.0687826 25.539027,28.5929348 25.539027,29.4293478 C25.539027,30.2657609 25.0038919,30.789913 24.2654054,30.789913 Z M29.9271351,32.2173913 L29.9271351,29.697 C29.9271351,28.5929348 30.868973,28.3141304 31.5325405,28.4256522 L31.5325405,26.5297826 C30.8582703,26.5297826 30.1411892,26.8866522 29.9271351,27.6338478 L29.9271351,26.6413043 L28.3217297,26.6413043 L28.3217297,32.2173913 L29.9271351,32.2173913 Z M34.8182703,32.3735217 C35.835027,32.3735217 36.627027,31.9831957 37.1514595,31.2248478 L35.8671351,30.4553478 C35.6530811,30.7006957 35.2784865,30.8791304 34.8396757,30.8791304 C34.251027,30.8791304 33.7587027,30.6783913 33.5553514,30.0984783 L37.3548108,30.0984783 C37.3976216,29.886587 37.419027,29.6635435 37.419027,29.4293478 C37.419027,27.7453696 36.2631351,26.4851739 34.7005405,26.4851739 C33.0095135,26.4851739 31.8536216,27.7676739 31.8536216,29.4293478 C31.8536216,31.0910217 32.9881081,32.3735217 34.8182703,32.3735217 Z M35.8243243,28.8494348 L33.5232432,28.8494348 C33.6730811,28.2806739 34.0797838,27.968413 34.6898378,27.968413 C35.1714595,27.968413 35.6530811,28.2026087 35.8243243,28.8494348 Z M40.0411892,32.3735217 C41.1970811,32.3735217 42.2673514,31.8270652 42.2673514,30.5445652 C42.2673514,28.481413 39.6344865,28.9051957 39.6344865,28.2695217 C39.6344865,28.0687826 39.8057297,27.9572609 40.084,27.9572609 C40.4371892,27.9572609 40.6512432,28.158 40.8010811,28.4479565 L42.171027,27.6784565 C41.7215135,26.8866522 40.9509189,26.4851739 40.084,26.4851739 C38.9709189,26.4851739 37.9862703,27.0985435 37.9862703,28.3141304 C37.9862703,30.2434565 40.6191351,29.9200435 40.6191351,30.533413 C40.6191351,30.7564565 40.4264865,30.8791304 40.0411892,30.8791304 C39.5702703,30.8791304 39.2705946,30.6449348 39.1314595,30.2211522 L37.7401081,31.046413 C38.1575135,31.9497391 38.9709189,32.3735217 40.0411892,32.3735217 Z M44.728973,32.3735217 C45.8848649,32.3735217 46.9551351,31.8270652 46.9551351,30.5445652 C46.9551351,28.481413 44.3222703,28.9051957 44.3222703,28.2695217 C44.3222703,28.0687826 44.4935135,27.9572609 44.7717838,27.9572609 C45.124973,27.9572609 45.339027,28.158 45.4888649,28.4479565 L46.8588108,27.6784565 C46.4092973,26.8866522 45.6387027,26.4851739 44.7717838,26.4851739 C43.6587027,26.4851739 42.6740541,27.0985435 42.6740541,28.3141304 C42.6740541,30.2434565 45.3069189,29.9200435 45.3069189,30.533413 C45.3069189,30.7564565 45.1142703,30.8791304 44.728973,30.8791304 C44.2580541,30.8791304 43.9583784,30.6449348 43.8192432,30.2211522 L42.4278919,31.046413 C42.8452973,31.9497391 43.6587027,32.3735217 44.728973,32.3735217 Z" id="postaladdress" fill="#FFFFFF" fill-rule="nonzero"></path>
                                <g id="Group-27" opacity="0.496163504" transform="translate(54.702703, 22.304348)">
                                    <rect id="Rectangle" fill="#D8D8D8" opacity="0" x="0" y="0" width="23.7837838" height="24.7826087"></rect>
                                    <g id="noun_Letter_2697706" transform="translate(2.378378, 6.195652)" fill="#010E39">
                                        <g id="Group">
                                            <path d="M18.809009,0.970652174 L12.4072072,5.74130435 L18.7693694,11.4826087 C18.8684685,11.2967391 18.9081081,11.0902174 18.9081081,10.8630435 L18.9081081,1.52826087 C18.9279279,1.32173913 18.8882883,1.13586957 18.809009,0.970652174 Z" id="Path"></path>
                                            <path d="M0.218018018,0.970652174 C0.138738739,1.13586957 0.0990990991,1.32173913 0.0990990991,1.52826087 L0.0990990991,10.8630435 C0.0990990991,11.0902174 0.158558559,11.2967391 0.237837838,11.4826087 L6.6,5.74130435 L0.218018018,0.970652174 Z" id="Path"></path>
                                            <path d="M10.1675676,7.41413043 C9.96936937,7.55869565 9.75135135,7.64130435 9.51351351,7.64130435 C9.2954955,7.64130435 9.05765766,7.55869565 8.85945946,7.41413043 L7.31351351,6.2576087 L0.872072072,12.0815217 C1.03063063,12.1641304 1.18918919,12.2054348 1.38738739,12.2054348 L17.6396396,12.2054348 C17.818018,12.2054348 17.9963964,12.1641304 18.154955,12.0815217 L11.7135135,6.2576087 L10.1675676,7.41413043 Z" id="Path"></path>
                                            <path d="M9.35495495,6.69130435 C9.45405405,6.77391304 9.57297297,6.77391304 9.67207207,6.69130435 L18.1153153,0.392391304 L18.2144144,0.330434783 C18.036036,0.247826087 17.8576577,0.185869565 17.6396396,0.185869565 L1.38738739,0.185869565 C1.18918919,0.185869565 0.990990991,0.227173913 0.812612613,0.330434783 L0.911711712,0.392391304 L9.35495495,6.69130435 Z" id="Path"></path>
                                        </g>
                                    </g>
                                </g>
                            </g>
                        </g>
                    </g>
                </g>
            </g>
        </g>
    </g>
</svg>