<?xml version="1.0" encoding="UTF-8"?>
<svg width="148px" height="92px" viewBox="0 0 148 92" version="1.1" xmlns="http://www.w3.org/2000/svg" xmlns:xlink="http://www.w3.org/1999/xlink">
    <!-- Generator: sketchtool 63.1 (101010) - https://sketch.com -->
    <title>4FB35481-C455-4F75-9F1C-468631B23EB5</title>
    <desc>Created with sketchtool.</desc>
    <g id="🖥-Ops_analyst-" stroke="none" stroke-width="1" fill="none" fill-rule="evenodd">
        <g id="postal-verification-task-1" transform="translate(-869.000000, -87.000000)">
            <g id="intro-card" transform="translate(160.000000, 64.000000)">
                <g id="court" transform="translate(709.000000, 23.000000)">
                    <path d="M-1.98618899e-13,8.00345689 C-1.98618899e-13,3.5832697 3.58511452,0 8.00959849,0 L139.990402,0 C144.413981,0 148,3.57827291 148,8.00345689 L148,83.9965431 C148,88.4167303 144.414885,92 139.990402,92 L8.00959849,92 C3.58601939,92 -1.98618899e-13,88.4217271 -1.98618899e-13,83.9965431 L-1.98618899e-13,8.00345689 Z" id="Rectangle-Copy-13" fill="#A84567"></path>
                    <path d="M16.69,33.6 L16.69,29.154 C17.284,29.838 18.166,30.252 19.372,30.252 C21.73,30.252 23.674,28.182 23.674,25.5 C23.674,22.818 21.73,20.748 19.372,20.748 C18.166,20.748 17.284,21.162 16.69,21.846 L16.69,21 L13.99,21 L13.99,33.6 L16.69,33.6 Z M18.832,27.696 C17.59,27.696 16.69,26.85 16.69,25.5 C16.69,24.15 17.59,23.304 18.832,23.304 C20.074,23.304 20.974,24.15 20.974,25.5 C20.974,26.85 20.074,27.696 18.832,27.696 Z M29.524,30.252 C32.17,30.252 34.294,28.182 34.294,25.5 C34.294,22.818 32.17,20.748 29.524,20.748 C26.878,20.748 24.754,22.818 24.754,25.5 C24.754,28.182 26.878,30.252 29.524,30.252 Z M29.524,27.624 C28.354,27.624 27.454,26.778 27.454,25.5 C27.454,24.222 28.354,23.376 29.524,23.376 C30.694,23.376 31.594,24.222 31.594,25.5 C31.594,26.778 30.694,27.624 29.524,27.624 Z M38.884,30.252 C40.828,30.252 42.628,29.37 42.628,27.3 C42.628,23.97 38.2,24.654 38.2,23.628 C38.2,23.304 38.488,23.124 38.956,23.124 C39.55,23.124 39.91,23.448 40.162,23.916 L42.466,22.674 C41.71,21.396 40.414,20.748 38.956,20.748 C37.084,20.748 35.428,21.738 35.428,23.7 C35.428,26.814 39.856,26.292 39.856,27.282 C39.856,27.642 39.532,27.84 38.884,27.84 C38.092,27.84 37.588,27.462 37.354,26.778 L35.014,28.11 C35.716,29.568 37.084,30.252 38.884,30.252 Z M48.982,30 L48.982,27.552 C47.794,27.624 47.128,27.552 47.128,26.778 L47.128,23.592 L48.982,23.592 L48.982,21 L47.128,21 L47.128,18.48 L44.428,19.29 L44.428,21 L42.988,21 L42.988,23.592 L44.428,23.592 L44.428,26.778 C44.428,29.298 45.454,30.36 48.982,30 Z M54.184,30.252 C55.39,30.252 56.272,29.838 56.866,29.154 L56.866,30 L59.566,30 L59.566,21 L56.866,21 L56.866,21.846 C56.272,21.162 55.39,20.748 54.184,20.748 C51.826,20.748 49.882,22.818 49.882,25.5 C49.882,28.182 51.826,30.252 54.184,30.252 Z M54.724,27.696 C53.482,27.696 52.582,26.85 52.582,25.5 C52.582,24.15 53.482,23.304 54.724,23.304 C55.966,23.304 56.866,24.15 56.866,25.5 C56.866,26.85 55.966,27.696 54.724,27.696 Z M64.246,30 L64.246,16.86 L61.546,16.86 L61.546,30 L64.246,30 Z M17.842,52.252 C19.048,52.252 19.93,51.838 20.524,51.154 L20.524,52 L23.224,52 L23.224,43 L20.524,43 L20.524,43.846 C19.93,43.162 19.048,42.748 17.842,42.748 C15.484,42.748 13.54,44.818 13.54,47.5 C13.54,50.182 15.484,52.252 17.842,52.252 Z M18.382,49.696 C17.14,49.696 16.24,48.85 16.24,47.5 C16.24,46.15 17.14,45.304 18.382,45.304 C19.624,45.304 20.524,46.15 20.524,47.5 C20.524,48.85 19.624,49.696 18.382,49.696 Z M29.056,52.252 C30.262,52.252 31.144,51.838 31.738,51.154 L31.738,52 L34.438,52 L34.438,39.4 L31.738,39.4 L31.738,43.846 C31.144,43.162 30.262,42.748 29.056,42.748 C26.698,42.748 24.754,44.818 24.754,47.5 C24.754,50.182 26.698,52.252 29.056,52.252 Z M29.596,49.696 C28.354,49.696 27.454,48.85 27.454,47.5 C27.454,46.15 28.354,45.304 29.596,45.304 C30.838,45.304 31.738,46.15 31.738,47.5 C31.738,48.85 30.838,49.696 29.596,49.696 Z M40.27,52.252 C41.476,52.252 42.358,51.838 42.952,51.154 L42.952,52 L45.652,52 L45.652,39.4 L42.952,39.4 L42.952,43.846 C42.358,43.162 41.476,42.748 40.27,42.748 C37.912,42.748 35.968,44.818 35.968,47.5 C35.968,50.182 37.912,52.252 40.27,52.252 Z M40.81,49.696 C39.568,49.696 38.668,48.85 38.668,47.5 C38.668,46.15 39.568,45.304 40.81,45.304 C42.052,45.304 42.952,46.15 42.952,47.5 C42.952,48.85 42.052,49.696 40.81,49.696 Z M50.332,52 L50.332,47.932 C50.332,46.15 51.916,45.7 53.032,45.88 L53.032,42.82 C51.898,42.82 50.692,43.396 50.332,44.602 L50.332,43 L47.632,43 L47.632,52 L50.332,52 Z M58.558,52.252 C60.268,52.252 61.6,51.622 62.482,50.398 L60.322,49.156 C59.962,49.552 59.332,49.84 58.594,49.84 C57.604,49.84 56.776,49.516 56.434,48.58 L62.824,48.58 C62.896,48.238 62.932,47.878 62.932,47.5 C62.932,44.782 60.988,42.748 58.36,42.748 C55.516,42.748 53.572,44.818 53.572,47.5 C53.572,50.182 55.48,52.252 58.558,52.252 Z M60.25,46.564 L56.38,46.564 C56.632,45.646 57.316,45.142 58.342,45.142 C59.152,45.142 59.962,45.52 60.25,46.564 Z M67.342,52.252 C69.286,52.252 71.086,51.37 71.086,49.3 C71.086,45.97 66.658,46.654 66.658,45.628 C66.658,45.304 66.946,45.124 67.414,45.124 C68.008,45.124 68.368,45.448 68.62,45.916 L70.924,44.674 C70.168,43.396 68.872,42.748 67.414,42.748 C65.542,42.748 63.886,43.738 63.886,45.7 C63.886,48.814 68.314,48.292 68.314,49.282 C68.314,49.642 67.99,49.84 67.342,49.84 C66.55,49.84 66.046,49.462 65.812,48.778 L63.472,50.11 C64.174,51.568 65.542,52.252 67.342,52.252 Z M75.226,52.252 C77.17,52.252 78.97,51.37 78.97,49.3 C78.97,45.97 74.542,46.654 74.542,45.628 C74.542,45.304 74.83,45.124 75.298,45.124 C75.892,45.124 76.252,45.448 76.504,45.916 L78.808,44.674 C78.052,43.396 76.756,42.748 75.298,42.748 C73.426,42.748 71.77,43.738 71.77,45.7 C71.77,48.814 76.198,48.292 76.198,49.282 C76.198,49.642 75.874,49.84 75.226,49.84 C74.434,49.84 73.93,49.462 73.696,48.778 L71.356,50.11 C72.058,51.568 73.426,52.252 75.226,52.252 Z" id="postaladdress" fill="#FFFFFF" fill-rule="nonzero"></path>
                    <g id="Group-27" opacity="0.496163504" transform="translate(92.000000, 36.000000)">
                        <rect id="Rectangle" fill="#D8D8D8" opacity="0" x="0" y="0" width="40" height="40"></rect>
                        <g id="noun_Letter_2697706" transform="translate(4.000000, 10.000000)" fill="#010E39">
                            <g id="Group">
                                <path d="M31.6333333,1.56666667 L20.8666667,9.26666667 L31.5666667,18.5333333 C31.7333333,18.2333333 31.8,17.9 31.8,17.5333333 L31.8,2.46666667 C31.8333333,2.13333333 31.7666667,1.83333333 31.6333333,1.56666667 Z" id="Path"></path>
                                <path d="M0.366666667,1.56666667 C0.233333333,1.83333333 0.166666667,2.13333333 0.166666667,2.46666667 L0.166666667,17.5333333 C0.166666667,17.9 0.266666667,18.2333333 0.4,18.5333333 L11.1,9.26666667 L0.366666667,1.56666667 Z" id="Path"></path>
                                <path d="M17.1,11.9666667 C16.7666667,12.2 16.4,12.3333333 16,12.3333333 C15.6333333,12.3333333 15.2333333,12.2 14.9,11.9666667 L12.3,10.1 L1.46666667,19.5 C1.73333333,19.6333333 2,19.7 2.33333333,19.7 L29.6666667,19.7 C29.9666667,19.7 30.2666667,19.6333333 30.5333333,19.5 L19.7,10.1 L17.1,11.9666667 Z" id="Path"></path>
                                <path d="M15.7333333,10.8 C15.9,10.9333333 16.1,10.9333333 16.2666667,10.8 L30.4666667,0.633333333 L30.6333333,0.533333333 C30.3333333,0.4 30.0333333,0.3 29.6666667,0.3 L2.33333333,0.3 C2,0.3 1.66666667,0.366666667 1.36666667,0.533333333 L1.53333333,0.633333333 L15.7333333,10.8 Z" id="Path"></path>
                            </g>
                        </g>
                    </g>
                </g>
            </g>
        </g>
    </g>
</svg>