<?xml version="1.0" encoding="UTF-8"?>
<svg width="32px" height="43px" viewBox="0 0 32 43" version="1.1" xmlns="http://www.w3.org/2000/svg" xmlns:xlink="http://www.w3.org/1999/xlink">
    <!-- Generator: Sketch 62 (91390) - https://sketch.com -->
    <title>processing</title>
    <desc>Created with Sketch.</desc>
    <g id="📤-excel-uploade" stroke="none" stroke-width="1" fill="none" fill-rule="evenodd">
        <g id="excel-uploade_updated_02" transform="translate(-304.000000, -443.000000)">
            <g id="processing" transform="translate(320.000000, 464.000000) scale(-1, 1) translate(-320.000000, -464.000000) translate(296.000000, 440.000000)">
                <rect id="Rectangle" fill="#D8D8D8" opacity="0" x="0" y="0" width="48" height="48"></rect>
                <g id="noun_searching_1835245" transform="translate(8.000000, 3.000000)" fill="#0059B2">
                    <g id="Group">
                        <path d="M6.60150376,7.72932331 C7.80451128,7.72932331 7.80451128,7.72932331 7.80451128,6.52631579 L7.80451128,1.86694737 L1.89377444,7.72932331 L6.60150376,7.72932331 Z" id="Path"></path>
                        <path d="M28.349594,0.0601503759 L10.2105263,0.0601503759 L10.2105263,6.52631579 C10.2105263,10.1353383 10.2105263,10.1353383 6.60150376,10.1353383 L0.041261851,10.1353383 L0.041261851,39.1578947 C0.041261851,42.7669173 1.00626105e-11,42.7669173 3.65040602,42.7669173 L28.349594,42.7669173 C31.9586165,42.7669173 31.9586165,42.7669173 31.9586165,39.1578947 L31.9586165,3.66917293 C31.9586165,0.0601503759 31.9586165,0.0601503759 28.349594,0.0601503759 Z M7.57494012,23.8545455 C7.79312194,23.7090909 8.06584921,23.6727273 8.30221285,23.7636364 L8.30221285,23.7636364 L11.2294856,24.8727273 C11.5022128,24.9818182 11.7022128,25.2363636 11.7385765,25.5272727 C11.7749401,25.8181818 11.6294856,26.1090909 11.3931219,26.2727273 L11.3931219,26.2727273 L10.5931219,26.8181818 C11.884031,28.6909091 14.0476674,29.8545455 16.4113038,29.8545455 C19.7385765,29.8545455 22.5749401,27.6181818 23.3022128,24.3818182 C23.4294856,23.9090909 23.884031,23.6363636 24.3385765,23.7454545 C24.5567583,23.8 24.7567583,23.9272727 24.884031,24.1272727 C24.9931219,24.3090909 25.0294856,24.5454545 24.9749401,24.7636364 C24.084031,28.7636364 20.5567583,31.5636364 16.4294856,31.5636364 C13.484031,31.5636364 10.7931219,30.1272727 9.19312194,27.7818182 L9.19312194,27.7818182 L8.41130376,28.3090909 C8.28403103,28.3818182 8.13857648,28.4363636 7.97494012,28.4363636 C7.84766739,28.4363636 7.70221285,28.4 7.59312194,28.3454545 C7.33857648,28.2 7.17494012,27.9272727 7.17494012,27.6363636 L7.17494012,27.6363636 L7.22948557,24.4909091 C7.22948557,24.2363636 7.3567583,24 7.57494012,23.8545455 Z M15.7567583,14 C18.7022128,14 21.3749401,15.4545455 22.9931219,17.8 L22.9931219,17.8 L23.7567583,17.2545455 C23.884031,17.1818182 24.0294856,17.1272727 24.1931219,17.1272727 C24.3203947,17.1272727 24.4658492,17.1636364 24.5749401,17.2181818 C24.8294856,17.3636364 24.9931219,17.6363636 24.9931219,17.9272727 L24.9931219,17.9272727 L24.9385765,21.0727273 C24.9385765,21.3272727 24.8113038,21.5636364 24.5931219,21.7090909 C24.3749401,21.8545455 24.1022128,21.8909091 23.8658492,21.8 L23.8658492,21.8 L20.9385765,20.6909091 C20.6658492,20.5818182 20.4658492,20.3272727 20.4294856,20.0363636 C20.3931219,19.7454545 20.5385765,19.4545455 20.7749401,19.2909091 L20.7749401,19.2909091 L21.5749401,18.7454545 C20.284031,16.8727273 18.1203947,15.7090909 15.7567583,15.7090909 C12.4294856,15.7090909 9.59312194,17.9454545 8.86584921,21.1818182 C8.73857648,21.6545455 8.28403103,21.9272727 7.82948557,21.8181818 C7.61130376,21.7636364 7.41130376,21.6363636 7.30221285,21.4363636 C7.19312194,21.2545455 7.1567583,21.0181818 7.21130376,20.8 C8.10221285,16.8 11.6294856,14 15.7567583,14 Z" id="Shape"></path>
                        <path d="M17.5953684,18 C14.6152782,18 12.1907368,20.4244211 12.1907368,23.4046316 C12.1907368,26.3848421 14.6152782,28.8093835 17.5953684,28.8093835 C20.5754586,28.8093835 23,26.3848421 23,23.4046316 C23,20.4244211 20.5755789,18 17.5953684,18 Z" id="Path"></path>
                    </g>
                </g>
            </g>
        </g>
    </g>
</svg>