<?xml version="1.0" encoding="UTF-8"?>
<svg width="104px" height="104px" viewBox="0 0 104 104" version="1.1" xmlns="http://www.w3.org/2000/svg" xmlns:xlink="http://www.w3.org/1999/xlink">
    <!-- Generator: Sketch 63.1 (92452) - https://sketch.com -->
    <title>upload photo</title>
    <desc>Created with Sketch.</desc>
    <defs>
        <path d="M52,0 C80.718807,-5.27555926e-15 104,23.281193 104,52 C104,80.718807 80.718807,104 52,104 C23.281193,104 3.51703951e-15,80.718807 0,52 C-3.51703951e-15,23.281193 23.281193,5.27555926e-15 52,0 Z" id="path-1"></path>
    </defs>
    <g id="📺-Empty-State-/-skeleton-loader-" stroke="none" stroke-width="1" fill="none" fill-rule="evenodd">
        <g id="icons" transform="translate(-962.000000, -358.000000)">
            <g id="upload-photo" transform="translate(962.000000, 358.000000)">
                <mask id="mask-2" fill="white">
                    <use xlink:href="#path-1"></use>
                </mask>
                <use id="Mask" fill="#F3F7FD" xlink:href="#path-1"></use>
                <g id="Group-7" mask="url(#mask-2)">
                    <g transform="translate(23.000000, 22.000000)">
                        <path d="M58.9640188,53.7189511 C39.2215846,53.104728 28.9858844,62.6119676 28.9858844,72.6533295 C32.4295254,77.9289223 43.8426255,83.1162991 58.9858844,83.1225947 C59.0250694,83.0730985 58.970975,53.8104207 58.9640188,53.7189511 Z" id="Path" fill="#D2B5FF" fill-rule="nonzero" transform="translate(43.992942, 68.406658) scale(-1, 1) translate(-43.992942, -68.406658) "></path>
                        <path d="M29.9781344,53.7189511 C10.2357002,53.104728 0,62.958638 0,73 C2.27349673,78.7223088 19.5898841,84 29.9781344,83 C30.0173195,82.9505038 29.9850907,53.8104207 29.9781344,53.7189511 Z" id="Path" fill="#D2B5FF" fill-rule="nonzero"></path>
                        <g id="Group-16" stroke-width="1" fill="none" fill-rule="evenodd" transform="translate(7.000000, 0.690722)">
                            <ellipse id="Oval" fill="#333333" fill-rule="nonzero" cx="22.5" cy="26.635418" rx="22.5" ry="19.9765635"></ellipse>
                            <path d="M15.3797468,43.538664 L29.6202532,43.538664 L29.6202532,53.9415168 C29.6202532,57.5315848 26.4333157,60.44191 22.5020291,60.44191 L22.5020291,60.44191 C20.6141588,60.44191 18.8036106,59.7570491 17.4686847,58.5379889 C16.1337587,57.3189287 15.3838051,55.6655283 15.3838051,53.9415168 L15.3838051,43.538664 L15.3797468,43.538664 Z" id="Path" fill="#000000" fill-rule="nonzero" opacity="0.1"></path>
                            <path d="M16.7392708,43.030148 L28.2607292,43.030148 C29.0115735,43.030148 29.6202532,43.5856315 29.6202532,44.2708551 L29.6202532,53.4335694 C29.6202532,57.0212774 26.4333157,59.9296904 22.5020291,59.9296904 L22.5020291,59.9296904 C20.6134557,59.930672 18.8018648,59.2466951 17.466061,58.0283298 C16.1302572,56.8099645 15.3797468,55.1570894 15.3797468,53.4335694 L15.3797468,44.2671515 C15.3797468,43.5819279 15.9884265,43.0264444 16.7392708,43.0264444 L16.7392708,43.030148 Z" id="Path" fill="#FFD5AE" fill-rule="nonzero"></path>
                            <path d="M15.3797468,48.0723189 C19.969131,49.5280556 25.0211671,49.5402743 29.6202532,48.1067609 L29.6202532,46.6119815 L15.3797468,46.6119815 L15.3797468,48.0723189 Z" id="Path" fill="#000000" fill-rule="nonzero" opacity="0.1"></path>
                            <ellipse id="Oval" fill="#FFD5AE" fill-rule="nonzero" cx="22.2151899" cy="30.7331746" rx="20.5063291" ry="18.4399047"></ellipse>
                            <path d="M7.97468354,13.9470443 C7.97468354,13.9470443 16.6175809,29.9647711 41.0126582,20.6521393 L35.3350211,12.5203491 L25.2727145,9.21995237 L7.97468354,13.9470443 Z" id="Path" fill="#000000" fill-rule="nonzero" opacity="0.1"></path>
                            <path d="M7.97468354,13.9470443 C7.97468354,13.9470443 16.6175809,29.9647711 41.0126582,20.6521393 L35.3350211,12.5203491 L25.2727145,9.21995237 L7.97468354,13.9470443 Z" id="Path" fill="#333333" fill-rule="nonzero"></path>
                            <path d="M7.83337943,12.6539742 C8.41652455,11.0414627 9.42439579,9.57746774 10.7723463,8.38494403 C14.8093438,4.81952001 21.430183,4.06852067 24.8263224,0 C25.1994733,0.582282489 25.2792465,1.27841774 25.0459011,1.91613876 C24.8125558,2.55385977 24.2878952,3.07357924 23.6017529,3.34668636 C26.8672716,3.32845822 30.6267,3.07326427 32.4635543,0.681732406 C33.3914598,2.61068156 32.9926253,4.84442803 31.4389978,6.41995063 C34.3208181,6.53661072 37.3985695,8.28286645 37.5863368,10.8566797 C37.7087937,12.5701248 36.5087156,14.1924292 34.9290209,15.1767487 C33.3493263,16.1610682 31.4430797,16.6094804 29.5654065,16.9813345 C24.0874988,18.0677316 4.25763644,22.5919557 7.83337943,12.6539742 Z" id="Path" fill="#333333" fill-rule="nonzero"></path>
                            <ellipse id="Oval" fill="#FFB885" fill-rule="nonzero" cx="1.99367089" cy="30.385324" rx="1.99367089" ry="3.32942725"></ellipse>
                            <ellipse id="Oval" fill="#FFB885" fill-rule="nonzero" cx="43.0063291" cy="30.385324" rx="1.99367089" ry="3.32942725"></ellipse>
                        </g>
                    </g>
                </g>
            </g>
        </g>
    </g>
</svg>