<?xml version="1.0" encoding="UTF-8"?>
<svg width="24px" height="24px" viewBox="0 0 24 24" version="1.1" xmlns="http://www.w3.org/2000/svg" xmlns:xlink="http://www.w3.org/1999/xlink">
    <!-- Generator: sketchtool 61 (101010) - https://sketch.com -->
    <title>A431AD83-249E-41A8-BF4A-D227F3E0FE85</title>
    <desc>Created with sketchtool.</desc>
    <defs>
        <path d="M13.7193387,0.29635494 C15.7718827,-0.529993912 18.0909907,0.429637013 18.9706524,2.45552452 L18.9706524,2.45552452 L19.0772781,2.72208867 C19.4771243,3.70837601 20.2501603,4.48141203 21.2364477,4.88125825 L21.2364477,4.88125825 L21.5296682,5.01454032 C23.5555557,5.86754559 24.5418431,8.21331007 23.6888378,10.2391976 L23.6888378,10.2391976 L23.5555557,10.5590746 C23.1557095,11.5187055 23.1557095,12.6116185 23.5555557,13.5979058 L23.5555557,13.5979058 L23.6888378,13.8378136 C24.5418431,15.8903575 23.5822121,18.2094655 21.5296682,19.0624708 L21.5296682,19.0624708 L21.3164169,19.1424401 C20.3301296,19.5422863 19.5570935,20.3153223 19.1572473,21.3016096 L19.1572473,21.3016096 L19.0506217,21.514861 C18.1976164,23.5407485 15.8518519,24.5270358 13.8259644,23.6740305 L13.8259644,23.6740305 L13.5860567,23.5674049 C12.5997693,23.1675587 11.5068563,23.1675587 10.520569,23.5674049 L10.520569,23.5674049 L10.2273484,23.7006869 C8.20146092,24.5270358 5.85569644,23.5674049 5.02934758,21.514861 L5.02934758,21.514861 L4.89606551,21.2216404 C4.49621929,20.2353531 3.72318327,19.462317 2.73689593,19.0624708 L2.73689593,19.0624708 L2.47033178,18.9558452 C0.417787861,18.1294963 -0.541843064,15.7837318 0.311162203,13.7578443 L0.311162203,13.7578443 L0.417787861,13.4646237 C0.81763408,12.5049928 0.81763408,11.4120798 0.417787861,10.4257925 L0.417787861,10.4257925 L0.311162203,10.1858848 C-0.541843064,8.15999724 0.444444276,5.81423276 2.44367537,4.96122749 L2.44367537,4.96122749 L2.6835831,4.85460184 C3.66987044,4.45475562 4.44290646,3.68171959 4.84275268,2.69543225 L4.84275268,2.69543225 L4.94937834,2.48218094 C5.80238361,0.456293428 8.14814809,-0.529993912 10.1473792,0.29635494 L10.1473792,0.29635494 L10.3872869,0.402980599 C11.3735743,0.802826818 12.4664873,0.802826818 13.4527746,0.402980599 L13.4527746,0.402980599 Z M11.6,14.8 C10.7163444,14.8 10,15.5163444 10,16.4 C10,17.2836556 10.7163444,18 11.6,18 C12.4836556,18 13.2,17.2836556 13.2,16.4 C13.2,15.5163444 12.4836556,14.8 11.6,14.8 Z M13.2,6 L10,6 L10.8,14 L12.4,14 L13.2,6 Z" id="path-1"></path>
    </defs>
    <g id="Asset-Artboard-Page" stroke="none" stroke-width="1" fill="none" fill-rule="evenodd">
        <g id="icon-/-24-/-info-/-verified-/-green-icon-/-24-/-info-/-verified-/-yellow">
            <mask id="mask-2" fill="white">
                <use xlink:href="#path-1"></use>
            </mask>
            <path d="M13.7193387,0.29635494 C15.7718827,-0.529993912 18.0909907,0.429637013 18.9706524,2.45552452 L18.9706524,2.45552452 L19.0772781,2.72208867 C19.4771243,3.70837601 20.2501603,4.48141203 21.2364477,4.88125825 L21.2364477,4.88125825 L21.5296682,5.01454032 C23.5555557,5.86754559 24.5418431,8.21331007 23.6888378,10.2391976 L23.6888378,10.2391976 L23.5555557,10.5590746 C23.1557095,11.5187055 23.1557095,12.6116185 23.5555557,13.5979058 L23.5555557,13.5979058 L23.6888378,13.8378136 C24.5418431,15.8903575 23.5822121,18.2094655 21.5296682,19.0624708 L21.5296682,19.0624708 L21.3164169,19.1424401 C20.3301296,19.5422863 19.5570935,20.3153223 19.1572473,21.3016096 L19.1572473,21.3016096 L19.0506217,21.514861 C18.1976164,23.5407485 15.8518519,24.5270358 13.8259644,23.6740305 L13.8259644,23.6740305 L13.5860567,23.5674049 C12.5997693,23.1675587 11.5068563,23.1675587 10.520569,23.5674049 L10.520569,23.5674049 L10.2273484,23.7006869 C8.20146092,24.5270358 5.85569644,23.5674049 5.02934758,21.514861 L5.02934758,21.514861 L4.89606551,21.2216404 C4.49621929,20.2353531 3.72318327,19.462317 2.73689593,19.0624708 L2.73689593,19.0624708 L2.47033178,18.9558452 C0.417787861,18.1294963 -0.541843064,15.7837318 0.311162203,13.7578443 L0.311162203,13.7578443 L0.417787861,13.4646237 C0.81763408,12.5049928 0.81763408,11.4120798 0.417787861,10.4257925 L0.417787861,10.4257925 L0.311162203,10.1858848 C-0.541843064,8.15999724 0.444444276,5.81423276 2.44367537,4.96122749 L2.44367537,4.96122749 L2.6835831,4.85460184 C3.66987044,4.45475562 4.44290646,3.68171959 4.84275268,2.69543225 L4.84275268,2.69543225 L4.94937834,2.48218094 C5.80238361,0.456293428 8.14814809,-0.529993912 10.1473792,0.29635494 L10.1473792,0.29635494 L10.3872869,0.402980599 C11.3735743,0.802826818 12.4664873,0.802826818 13.4527746,0.402980599 L13.4527746,0.402980599 Z M11.6,14.8 C10.7163444,14.8 10,15.5163444 10,16.4 C10,17.2836556 10.7163444,18 11.6,18 C12.4836556,18 13.2,17.2836556 13.2,16.4 C13.2,15.5163444 12.4836556,14.8 11.6,14.8 Z M13.2,6 L10,6 L10.8,14 L12.4,14 L13.2,6 Z"></path>
            <rect id="Rectangle" fill="#FFB803" mask="url(#mask-2)" x="0" y="0" width="24" height="24"></rect>
        </g>
    </g>
</svg>