<?xml version="1.0" encoding="UTF-8"?>
<svg width="88px" height="57px" viewBox="0 0 88 57" version="1.1" xmlns="http://www.w3.org/2000/svg" xmlns:xlink="http://www.w3.org/1999/xlink">
    <!-- Generator: sketchtool 63.1 (101010) - https://sketch.com -->
    <title>943500D0-86BC-4745-9F53-269A88E2B74C</title>
    <desc>Created with sketchtool.</desc>
    <defs>
        <rect id="path-1" x="0" y="0" width="24" height="24"></rect>
    </defs>
    <g id="🖥-Ops_analyst-" stroke="none" stroke-width="1" fill="none" fill-rule="evenodd">
        <g id="normal-login-3" transform="translate(-637.000000, -1211.000000)">
            <g id="legal--verification" transform="translate(160.000000, 1146.000000)">
                <g id="🖥-Ops_analyst-/-dashboard-/-task-card-/-police" transform="translate(451.000000, 41.000000)">
                    <g id="Court">
                        <g id="pan-cards" transform="translate(26.000000, 24.000000)">
                            <path d="M1.70974346e-14,8.00065503 C1.70974346e-14,3.58201527 3.58618247,0 8.00361999,0 L79.99638,0 C84.4166573,0 88,3.58719818 88,8.00065503 L88,48.999345 C88,53.4179847 84.4138175,57 79.99638,57 L8.00361999,57 C3.58334272,57 1.70974346e-14,53.4128018 1.70974346e-14,48.999345 L1.70974346e-14,8.00065503 Z" id="Rectangle-Copy-13" fill="#AB3A3A"></path>
                            <path d="M10.342,21.4 L10.342,18.292 C10.774,18.844 11.41,19.168 12.286,19.168 C13.894,19.168 15.214,17.788 15.214,16 C15.214,14.212 13.894,12.832 12.286,12.832 C11.41,12.832 10.774,13.156 10.342,13.708 L10.342,13 L8.794,13 L8.794,21.4 L10.342,21.4 Z M11.998,17.692 C11.05,17.692 10.342,17.008 10.342,16 C10.342,14.992 11.05,14.308 11.998,14.308 C12.958,14.308 13.666,14.992 13.666,16 C13.666,17.008 12.958,17.692 11.998,17.692 Z M19.162,19.168 C20.926,19.168 22.342,17.788 22.342,16 C22.342,14.212 20.926,12.832 19.162,12.832 C17.398,12.832 15.994,14.212 15.994,16 C15.994,17.788 17.398,19.168 19.162,19.168 Z M19.162,17.656 C18.25,17.656 17.542,16.972 17.542,16 C17.542,15.028 18.25,14.344 19.162,14.344 C20.086,14.344 20.794,15.028 20.794,16 C20.794,16.972 20.086,17.656 19.162,17.656 Z M24.982,19 L24.982,10.24 L23.434,10.24 L23.434,19 L24.982,19 Z M27.166,12.28 C27.694,12.28 28.126,11.848 28.126,11.332 C28.126,10.816 27.694,10.372 27.166,10.372 C26.65,10.372 26.218,10.816 26.218,11.332 C26.218,11.848 26.65,12.28 27.166,12.28 Z M27.946,19 L27.946,13 L26.398,13 L26.398,19 L27.946,19 Z M32.218,19.168 C33.394,19.168 34.414,18.544 34.93,17.608 L33.586,16.84 C33.346,17.332 32.83,17.632 32.206,17.632 C31.282,17.632 30.598,16.948 30.598,16 C30.598,15.04 31.282,14.356 32.206,14.356 C32.818,14.356 33.334,14.668 33.574,15.16 L34.906,14.38 C34.414,13.456 33.394,12.832 32.218,12.832 C30.394,12.832 29.05,14.212 29.05,16 C29.05,17.788 30.394,19.168 32.218,19.168 Z M38.626,19.168 C39.778,19.168 40.678,18.7 41.242,17.884 L39.994,17.164 C39.73,17.512 39.25,17.764 38.65,17.764 C37.834,17.764 37.174,17.428 36.958,16.636 L41.482,16.636 C41.518,16.432 41.542,16.228 41.542,16 C41.542,14.236 40.282,12.832 38.506,12.832 C36.622,12.832 35.338,14.212 35.338,16 C35.338,17.788 36.61,19.168 38.626,19.168 Z M39.994,15.436 L36.934,15.436 C37.114,14.668 37.678,14.224 38.506,14.224 C39.154,14.224 39.802,14.572 39.994,15.436 Z M12.106,33.168 C13.282,33.168 14.302,32.544 14.818,31.608 L13.474,30.84 C13.234,31.332 12.718,31.632 12.094,31.632 C11.17,31.632 10.486,30.948 10.486,30 C10.486,29.04 11.17,28.356 12.094,28.356 C12.706,28.356 13.222,28.668 13.462,29.16 L14.794,28.38 C14.302,27.456 13.282,26.832 12.106,26.832 C10.282,26.832 8.938,28.212 8.938,30 C8.938,31.788 10.282,33.168 12.106,33.168 Z M17.182,33 L17.182,29.76 C17.182,28.716 17.746,28.272 18.502,28.272 C19.198,28.272 19.69,28.692 19.69,29.508 L19.69,33 L21.238,33 L21.238,29.316 C21.238,27.72 20.242,26.832 18.97,26.832 C18.166,26.832 17.542,27.132 17.182,27.672 L17.182,24.6 L15.634,24.6 L15.634,33 L17.182,33 Z M25.534,33.168 C26.686,33.168 27.586,32.7 28.15,31.884 L26.902,31.164 C26.638,31.512 26.158,31.764 25.558,31.764 C24.742,31.764 24.082,31.428 23.866,30.636 L28.39,30.636 C28.426,30.432 28.45,30.228 28.45,30 C28.45,28.236 27.19,26.832 25.414,26.832 C23.53,26.832 22.246,28.212 22.246,30 C22.246,31.788 23.518,33.168 25.534,33.168 Z M26.902,29.436 L23.842,29.436 C24.022,28.668 24.586,28.224 25.414,28.224 C26.062,28.224 26.71,28.572 26.902,29.436 Z M32.338,33.168 C33.514,33.168 34.534,32.544 35.05,31.608 L33.706,30.84 C33.466,31.332 32.95,31.632 32.326,31.632 C31.402,31.632 30.718,30.948 30.718,30 C30.718,29.04 31.402,28.356 32.326,28.356 C32.938,28.356 33.454,28.668 33.694,29.16 L35.026,28.38 C34.534,27.456 33.514,26.832 32.338,26.832 C30.514,26.832 29.17,28.212 29.17,30 C29.17,31.788 30.514,33.168 32.338,33.168 Z M37.414,33 L37.414,30.276 L39.598,33 L41.398,33 L38.914,29.964 L41.326,27 L39.478,27 L37.414,29.64 L37.414,24.6 L35.866,24.6 L35.866,33 L37.414,33 Z" id="policecheck" fill="#FFFFFF" fill-rule="nonzero"></path>
                            <g id="icon-/-48-/-info-/-verification-/-polic" transform="translate(56.000000, 20.000000)">
                                <mask id="mask-2" fill="white">
                                    <use xlink:href="#path-1"></use>
                                </mask>
                                <g id="container"></g>
                                <g id="police" mask="url(#mask-2)" opacity="0.5">
                                    <g transform="translate(2.000000, 1.000000)">
                                        <g id="Group-4" stroke-width="1" fill="none" fill-rule="evenodd" transform="translate(2.857143, 3.382353)">
                                            <path d="M13.4270988,-3.48491357e-12 L13.0914877,0.300608567 C12.2461528,2.4108081 12.9310246,4.7984257 13.5253382,6.81973553 C13.8932135,8.07050025 14.2725848,9.36308281 14.2844293,10.7122223 C14.0747125,12.9217124 12.2928167,13.8331356 9.60795434,14.9663305 C8.71334858,15.3433766 7.84661217,15.7091113 7.14221464,16.1835039 C6.43746875,15.7091113 5.57073234,15.3433766 4.67647495,14.9663305 C1.99161258,13.8331356 0.209368403,12.9217124 1.4445362e-11,10.7122223 C0.011496102,9.36308281 0.391215835,8.07050025 0.758742732,6.81973553 C1.35305637,4.7984257 1.90401577,2.85308066 1.1929416,0.300608567 L0.857330516,0.000342769173 C1.82613838,0.687252198 2.57858492,1.11022936 3.82504107,1.11022936 C4.90637139,1.11022936 6.38277518,0.797623873 7.14221464,0.226227656 C7.90130574,0.797623873 9.30270473,1.11022936 10.3840351,1.11022936 C11.6308396,1.11022936 12.4579425,0.687252198 13.4270988,-3.48491357e-12 Z M6.14414397,10.4421202 C6.05740065,11.3089834 6.01420318,11.7415581 5.9271115,12.6087641 C6.62872209,12.6762897 6.98266268,12.6876011 7.68566674,12.6608651 C7.67591247,12.4068731 7.67103533,12.2797057 7.66128107,12.0257138 C7.2902705,12.1686485 7.0997139,12.2337747 6.7091948,12.3482596 C6.73810924,11.6027366 6.75204391,11.229461 6.78130671,10.4842808 C6.5259539,10.4746833 6.39880005,10.4664568 6.14414397,10.4421202 Z M8.44475784,10.4208685 C8.19079849,10.4503466 8.06364464,10.4606297 7.80864019,10.475026 C7.858805,11.3425748 7.88458414,11.7761778 7.93509731,12.6437266 C8.24270513,12.6265881 8.39633486,12.6132201 8.70254921,12.5775721 C8.59943266,11.7151649 8.54787439,11.2839613 8.44475784,10.4208685 Z M4.68610019,10.1968752 L4.55106293,10.2110938 C4.4183352,10.2344021 4.29640685,10.2827325 4.18423276,10.3571134 C4.07240704,10.4311516 3.97207742,10.5288408 3.88324391,10.6505238 C3.79406203,10.7725497 3.72160175,10.9171983 3.66899837,11.0854979 C3.61778846,11.2462567 3.59618973,11.3981034 3.60455053,11.5413809 C3.61291133,11.6846584 3.6508833,11.8169673 3.71811808,11.9345372 C3.78535286,12.0527925 3.88185044,12.1542522 4.00761083,12.239259 C4.13337122,12.323923 4.28560748,12.3873353 4.46222941,12.4243543 C4.63989644,12.4617162 4.8067641,12.4644583 4.95900036,12.4342946 C5.11123662,12.4041309 5.24570618,12.3444891 5.35788027,12.258454 C5.46970599,12.172419 5.55993297,12.0603335 5.62925795,11.9239113 C5.69893129,11.787832 5.74212877,11.6311865 5.76407587,11.4556886 C5.78428114,11.2925305 5.77940401,11.1420548 5.75153467,11.0025478 C5.72471043,10.8633835 5.67628745,10.7417004 5.60765921,10.6364703 C5.5397277,10.5315829 5.45333275,10.4441768 5.3470809,10.3735663 C5.24152578,10.3029559 5.11750722,10.2539399 4.97398013,10.224119 C4.82348571,10.1922415 4.68344228,10.1874427 4.55106293,10.2110938 Z M10.4994248,10.050335 C10.4551822,10.0571904 10.4332351,10.0602753 10.3889925,10.0661024 C10.31061,10.0767282 10.244072,10.0839264 10.1897268,10.0897535 C10.1353816,10.0959233 10.0880037,10.1020932 10.0458513,10.1072347 C10.0036989,10.1123762 9.9664237,10.1175178 9.9329805,10.1230021 C9.90058239,10.1284864 9.86539735,10.1356845 9.82812211,10.1456248 C9.66857015,10.1850433 9.52957182,10.2457134 9.4083402,10.3296919 C9.28641185,10.4143559 9.18608223,10.5144445 9.10665462,10.6337281 C9.02792374,10.7540401 8.97113996,10.8890912 8.93769676,11.0419662 C8.90355682,11.1941558 8.89867968,11.3583422 8.92411045,11.5307551 C8.94745102,11.6870578 8.99343543,11.824851 9.06519898,11.9444775 C9.13765926,12.0630756 9.23067317,12.1597365 9.34563419,12.231718 C9.46059521,12.3036996 9.59750334,12.350659 9.75322326,12.3695113 C9.90929156,12.3883636 10.0796429,12.37431 10.2597485,12.3307783 C10.3144421,12.3170676 10.3680905,12.3026713 10.4203455,12.2848473 C10.4719038,12.2677088 10.5259007,12.2478282 10.5823361,12.2245199 C10.6387715,12.2012116 10.7004324,12.1720762 10.765577,12.1384848 C10.8314183,12.1052362 10.9045753,12.0668461 10.9881833,12.0222861 C11.0407867,11.9938362 11.0672626,11.9790972 11.1195176,11.9503046 C11.0885129,11.8347913 11.0721397,11.7768634 11.0411351,11.6613501 C10.9404571,11.7172215 10.8519719,11.7621243 10.7791633,11.7970867 C10.7060063,11.8320492 10.6276237,11.8673544 10.5443641,11.9016313 C10.4614528,11.9352227 10.3886442,11.9599021 10.3273316,11.9749839 C10.2294406,12.0000061 10.1437424,12.0027482 10.0716305,11.985267 C9.99882181,11.9677858 9.9350707,11.9307667 9.88072549,11.8748953 C9.82638028,11.8193667 9.78144097,11.7463569 9.74416573,11.6568941 C9.70758722,11.5670886 9.67658258,11.4618585 9.65045508,11.340861 C9.5957615,11.0848124 9.59297457,10.8825786 9.64104918,10.7327884 C9.68842705,10.5833411 9.80094951,10.488394 9.98279694,10.4414346 C10.0336585,10.4284094 10.0946227,10.4174408 10.1653411,10.4085288 C10.2364079,10.3996168 10.3053845,10.3917331 10.3705291,10.385906 C10.4356737,10.3790507 10.5126627,10.3721953 10.6042832,10.3646543 C10.5621308,10.2388581 10.5422739,10.1761313 10.4994248,10.050335 Z M4.80639901,10.5353205 L4.86459298,10.5422088 C4.91371269,10.5524919 4.9544716,10.5740863 4.98756643,10.6039072 C5.02100964,10.6347565 5.04121491,10.6721183 5.05166591,10.7146217 C5.06838752,10.7804334 5.07570322,10.8781226 5.06908425,11.0028906 C5.06281365,11.1273158 5.04539531,11.2699077 5.01508741,11.4292954 C4.9879148,11.5708591 4.958652,11.6877434 4.92590552,11.7792627 C4.89350742,11.8714676 4.85762565,11.9420781 4.8172151,11.9921224 C4.77680456,12.0425095 4.73221362,12.0757581 4.68448738,12.0908399 C4.63606441,12.1059218 4.58311266,12.1072928 4.52632889,12.0952959 C4.47268041,12.0836418 4.42739274,12.061019 4.39151096,12.0274276 C4.35562919,11.9928079 4.32950169,11.9431064 4.31452192,11.8779803 C4.29954215,11.8131969 4.29745195,11.7305895 4.30685785,11.6308437 C4.31661212,11.5307551 4.33995269,11.4083865 4.37618283,11.262024 C4.41241297,11.1163471 4.45282351,10.9884942 4.49636935,10.8777798 C4.53991519,10.7674081 4.58346103,10.6837724 4.62596177,10.6272155 C4.68379065,10.5497497 4.76321826,10.5206143 4.86459298,10.5422088 Z M12.0444312,9.35382805 C11.4943602,9.62804339 11.2104413,9.74458491 10.6345911,9.93619288 C10.9178132,10.7595244 11.0592501,11.1708474 11.3421239,11.9938362 C12.0493084,11.7559544 12.39663,11.6106203 13.0707196,11.2702505 C13.0149809,11.1629638 12.9860665,11.1088062 12.9306762,11.0015195 C12.5464277,11.193813 12.3516907,11.2815619 11.9566428,11.4399213 C11.8570099,11.1989545 11.8068451,11.0789853 11.7075606,10.8376758 C11.9949632,10.7225054 12.1370968,10.6594358 12.4182287,10.5254131 C12.3649286,10.417098 12.3381044,10.3629405 12.2844559,10.2549682 C12.0106397,10.385906 11.8719897,10.4462334 11.5922512,10.5586617 C11.4974955,10.3296919 11.4497692,10.2148642 11.3550135,9.98589441 C11.6890972,9.85152889 11.8545714,9.77817629 12.1799459,9.616732 C12.1256007,9.51150187 12.0984281,9.45871541 12.0444312,9.35382805 Z M2.31838057,9.34080282 C1.91775883,10.1151184 1.7170996,10.5021048 1.3161295,11.2760776 C1.59830654,11.4172985 1.74044017,11.4834529 2.02853945,11.6065071 C2.16753778,11.2928733 2.23721112,11.1365705 2.37551271,10.8229367 C2.43299322,10.8472733 2.4626044,10.859613 2.52078164,10.8836069 C2.66918586,10.9453053 2.80017175,10.9836955 2.91199747,11.0015195 C3.02451993,11.0196862 3.13007504,11.0176296 3.22692099,10.9956924 C3.2279661,10.9960352 3.22970793,10.9963779 3.2311014,10.9970635 C3.34501732,10.9699847 3.44116653,10.917541 3.52163925,10.8438457 C3.60211196,10.7694647 3.6592441,10.680002 3.69303568,10.5758002 C3.72299521,10.4853091 3.73205275,10.3951608 3.72020828,10.3060408 C3.70906055,10.2169208 3.67910101,10.1332852 3.62963293,10.0571904 C3.60280869,10.0160581 3.57215242,9.97835349 3.53801248,9.94476211 C3.50387254,9.91117073 3.4624169,9.8803215 3.41503903,9.85015781 C3.36800952,9.81930859 3.31192248,9.7891449 3.24712627,9.76000952 C3.18198169,9.73053137 3.10743121,9.6979683 3.02312646,9.66334861 C2.73781411,9.54475048 2.59707395,9.48065264 2.31838057,9.34080282 Z M2.79006912,9.88580581 L2.80888092,9.89300396 C2.92384194,9.94201995 2.99630222,10.0002907 3.02765523,10.0712439 C3.0593566,10.1415116 3.0509958,10.2368014 3.00466302,10.3550568 C2.95763351,10.475026 2.89527587,10.5531774 2.81724172,10.5840266 C2.73781411,10.6148758 2.63922633,10.6063066 2.52147837,10.5562623 L2.52147837,10.5562623 L2.49778943,10.546322 C2.61484066,10.2823897 2.67336627,10.1504236 2.79006912,9.88580581 L2.79006912,9.88580581 Z M7.08317863,3.64917239 L6.46343423,5.5261764 L4.45788698,5.5261764 L6.08023083,6.68542175 L5.46048642,8.56208299 L7.08317863,7.4021521 L8.70517412,8.56208299 L8.08542971,6.68542175 L9.70812193,5.5261764 L7.70292304,5.5261764 L7.08317863,3.64917239 Z" id="Combined-Shape" fill="#010E39" fill-rule="nonzero"></path>
                                        </g>
                                        <path d="M9.91202029,-1.28947584e-13 C11.0834827,3.17060656 15.4773288,2.16878689 16.7012905,0.253377049 L16.7012905,0.253377049 L19.8075627,2.72078689 C15.6352099,5.56486885 19.4607608,9.37042623 19.4607608,14.3474754 C18.9855847,20.1917377 11.0516765,20.193623 9.96643562,22.6338852 L9.96643562,22.6338852 L9.90397295,22.8110984 L9.84151028,22.6338852 C8.75626937,20.193623 0.821978022,20.1917377 0.346801916,14.3474754 C0.346801916,9.37042623 4.17273598,5.56486885 -2.97779438e-13,2.72078689 L-2.97779438e-13,2.72078689 L3.10627219,0.253377049 C4.33061708,2.16878689 8.72446323,3.17060656 9.89554241,-1.28947584e-13 L9.89554241,-1.28947584e-13 Z M16.8174021,2.49531148 C15.7513215,3.25129508 14.3572161,3.71657377 12.9857199,3.71657377 C11.7962468,3.71657377 10.73898,3.37270492 9.90397295,2.74416393 C9.0685827,3.37270492 8.01131586,3.71657377 6.82222598,3.71657377 L6.82222598,3.71657377 C5.45072978,3.71657377 4.05624119,3.25129508 2.99054382,2.49568852 L2.99054382,2.49568852 L2.57399831,2.82598361 C4.31988729,5.1067541 3.53584672,7.77362295 2.88209637,9.99708197 C2.47781347,11.3729344 2.06011834,12.7947869 2.04747253,14.2788525 C2.27777966,16.7093115 4.2382643,17.7118852 7.19163708,18.9584098 C8.17532826,19.3731639 9.12874613,19.7754754 9.90397295,20.2973115 C10.6788166,19.7754754 11.6322344,19.3731639 12.6163088,18.9584098 C15.5696816,17.7118852 17.529783,16.7093115 17.7604734,14.2788525 C17.7474444,12.7947869 17.3301324,11.3729344 16.9254663,9.99708197 C16.271716,7.77362295 15.4876754,5.1067541 17.2339476,2.82598361 L17.2339476,2.82598361 Z" id="Combined-Shape" fill="#010E39" fill-rule="nonzero"></path>
                                    </g>
                                </g>
                            </g>
                            <path d="M10.484,46.173913 L11.0765405,46.173913 L11.0765405,48.616 C11.0765405,49.0127556 10.9566228,49.3154482 10.7167838,49.524087 C10.4769447,49.7327257 10.1877314,49.8370435 9.84913514,49.8370435 C9.59518792,49.8370435 9.37181177,49.7840295 9.179,49.678 C8.98618823,49.5719705 8.83805457,49.4163489 8.73459459,49.2111304 L9.25189189,48.887913 C9.37102762,49.1273345 9.57637692,49.2470435 9.86794595,49.2470435 C10.0591901,49.2470435 10.2096751,49.1923194 10.3194054,49.0828696 C10.4291357,48.9734197 10.484,48.8177981 10.484,48.616 L10.484,48.3389565 C10.3052964,48.5988999 10.0544881,48.7288696 9.73156757,48.7288696 C9.39924158,48.7288696 9.12100112,48.601465 8.89683784,48.3466522 C8.67267455,48.0918393 8.56059459,47.7814511 8.56059459,47.4154783 C8.56059459,47.0529257 8.67345833,46.7433913 8.89918919,46.4868696 C9.12492005,46.2303465 9.40237673,46.102087 9.73156757,46.102087 C10.0544881,46.102087 10.3052964,46.2320567 10.484,46.492 L10.484,46.173913 Z M9.35064865,47.9233913 C9.47605468,48.053363 9.63437742,48.1183478 9.82562162,48.1183478 C10.0168658,48.1183478 10.1744048,48.0525079 10.2982432,47.9208261 C10.4220817,47.7891443 10.484,47.6206967 10.484,47.4154783 C10.484,47.2136802 10.4220817,47.0469427 10.2982432,46.9152609 C10.1744048,46.7835791 10.0168658,46.7177391 9.82562162,46.7177391 C9.63437742,46.7177391 9.47683846,46.7835791 9.353,46.9152609 C9.22916154,47.0469427 9.16724324,47.2136802 9.16724324,47.4154783 C9.16724324,47.6206967 9.22837777,47.7899993 9.35064865,47.9233913 Z M13.6301081,48.4210435 C13.3887015,48.6809868 13.0940017,48.8109565 12.746,48.8109565 C12.3979983,48.8109565 12.1040823,48.6801317 11.8642432,48.4184783 C11.6244042,48.1568248 11.5044865,47.8361758 11.5044865,47.4565217 C11.5044865,47.0768677 11.6244042,46.7562187 11.8642432,46.4945652 C12.1040823,46.2329117 12.3979983,46.102087 12.746,46.102087 C13.0940017,46.102087 13.3887015,46.2329117 13.6301081,46.4945652 C13.8715147,46.7562187 13.9922162,47.0768677 13.9922162,47.4565217 C13.9922162,47.8361758 13.8715147,48.1576798 13.6301081,48.4210435 Z M12.2898378,47.9644348 C12.4121087,48.0978268 12.5641613,48.1645217 12.746,48.1645217 C12.9278387,48.1645217 13.0798913,48.0978268 13.2021622,47.9644348 C13.324433,47.8310428 13.3855676,47.6617402 13.3855676,47.4565217 C13.3855676,47.2513033 13.324433,47.0820007 13.2021622,46.9486087 C13.0798913,46.8152167 12.9278387,46.7485217 12.746,46.7485217 C12.5641613,46.7485217 12.4128925,46.8152167 12.2921892,46.9486087 C12.1714859,47.0820007 12.1111351,47.2513033 12.1111351,47.4565217 C12.1111351,47.6617402 12.1707021,47.8310428 12.2898378,47.9644348 Z M15.8732973,46.173913 L16.5410811,46.173913 L15.6475676,48.7391304 L14.9562703,48.7391304 L14.0627568,46.173913 L14.7305405,46.173913 L15.2995676,47.9695652 L15.8732973,46.173913 Z M17.2511892,47.7284348 C17.3327031,48.0499436 17.5537279,48.2106957 17.9142703,48.2106957 C18.1462714,48.2106957 18.3218372,48.1251893 18.440973,47.9541739 L18.9300541,48.262 C18.6980529,48.6279728 18.3563266,48.8109565 17.9048649,48.8109565 C17.5161062,48.8109565 17.2041622,48.6826969 16.969027,48.4261739 C16.7338907,48.1696509 16.6163243,47.8464367 16.6163243,47.4565217 C16.6163243,47.0700271 16.7323232,46.747668 16.9643243,46.4894348 C17.1963255,46.2312016 17.4941603,46.102087 17.8578378,46.102087 C18.2027044,46.102087 18.4872151,46.2320567 18.7113784,46.492 C18.9355417,46.7519433 19.0476216,47.0734474 19.0476216,47.4565217 C19.0476216,47.5420294 19.0397839,47.6326662 19.0241081,47.7284348 L17.2511892,47.7284348 Z M17.2417838,47.2153913 L18.440973,47.2153913 C18.4064863,47.0409556 18.3351627,46.9109859 18.227,46.8254783 C18.1188373,46.7399706 17.9957845,46.6972174 17.8578378,46.6972174 C17.69481,46.6972174 17.5600005,46.7425358 17.4534054,46.8331739 C17.3468103,46.923812 17.2762704,47.0512166 17.2417838,47.2153913 Z M20.0775135,46.6151304 C20.1339462,46.4509557 20.2272156,46.3278265 20.3573243,46.2457391 C20.4874331,46.1636518 20.6324316,46.1226087 20.7923243,46.1226087 L20.7923243,46.8613913 C20.6073504,46.8374492 20.4419737,46.8784922 20.2961892,46.9845217 C20.1504047,47.0905513 20.0775135,47.2666944 20.0775135,47.5129565 L20.0775135,48.7391304 L19.4708649,48.7391304 L19.4708649,46.173913 L20.0775135,46.173913 L20.0775135,46.6151304 Z M22.4523784,46.102087 C22.7094607,46.102087 22.921864,46.196144 23.0895946,46.3842609 C23.2573252,46.5723778 23.3411892,46.8323172 23.3411892,47.164087 L23.3411892,48.7391304 L22.7345405,48.7391304 L22.7345405,47.2461739 C22.7345405,47.0751586 22.6922166,46.9443338 22.6075676,46.8536957 C22.5229185,46.7630575 22.4100548,46.7177391 22.268973,46.7177391 C22.1122154,46.7177391 21.9868113,46.7707531 21.8927568,46.8767826 C21.7987022,46.9828121 21.7516757,47.141854 21.7516757,47.353913 L21.7516757,48.7391304 L21.145027,48.7391304 L21.145027,46.173913 L21.7516757,46.173913 L21.7516757,46.4612174 C21.8990278,46.2217959 22.132593,46.102087 22.4523784,46.102087 Z M26.4590811,46.102087 C26.7287041,46.102087 26.9442424,46.1978541 27.1057027,46.3893913 C27.267163,46.5809285 27.3478919,46.8374477 27.3478919,47.1589565 L27.3478919,48.7391304 L26.7412432,48.7391304 L26.7412432,47.2051304 C26.7412432,47.0512166 26.7067571,46.9315077 26.6377838,46.846 C26.5688105,46.7604923 26.4716222,46.7177391 26.3462162,46.7177391 C26.2082696,46.7177391 26.1008923,46.7673328 26.0240811,46.8665217 C25.9472699,46.9657106 25.9088649,47.1093614 25.9088649,47.2974783 L25.9088649,48.7391304 L25.3022162,48.7391304 L25.3022162,47.2051304 C25.3022162,47.0512166 25.2677301,46.9315077 25.1987568,46.846 C25.1297834,46.7604923 25.0325952,46.7177391 24.9071892,46.7177391 C24.7723777,46.7177391 24.6650004,46.7673328 24.5850541,46.8665217 C24.5051077,46.9657106 24.4651351,47.1093614 24.4651351,47.2974783 L24.4651351,48.7391304 L23.8584865,48.7391304 L23.8584865,46.173913 L24.4651351,46.173913 L24.4651351,46.4458261 C24.6062169,46.2166655 24.8241066,46.102087 25.1188108,46.102087 C25.4072447,46.102087 25.6204317,46.2252162 25.7583784,46.4714783 C25.9151359,46.2252162 26.1487012,46.102087 26.4590811,46.102087 Z M28.3777838,47.7284348 C28.4592977,48.0499436 28.6803225,48.2106957 29.0408649,48.2106957 C29.272866,48.2106957 29.4484318,48.1251893 29.5675676,47.9541739 L30.0566486,48.262 C29.8246475,48.6279728 29.4829212,48.8109565 29.0314595,48.8109565 C28.6427008,48.8109565 28.3307568,48.6826969 28.0956216,48.4261739 C27.8604853,48.1696509 27.7429189,47.8464367 27.7429189,47.4565217 C27.7429189,47.0700271 27.8589178,46.747668 28.0909189,46.4894348 C28.3229201,46.2312016 28.6207549,46.102087 28.9844324,46.102087 C29.329299,46.102087 29.6138097,46.2320567 29.837973,46.492 C30.0621363,46.7519433 30.1742162,47.0734474 30.1742162,47.4565217 C30.1742162,47.5420294 30.1663785,47.6326662 30.1507027,47.7284348 L28.3777838,47.7284348 Z M28.3683784,47.2153913 L29.5675676,47.2153913 C29.5330809,47.0409556 29.4617573,46.9109859 29.3535946,46.8254783 C29.2454319,46.7399706 29.1223791,46.6972174 28.9844324,46.6972174 C28.8214046,46.6972174 28.6865951,46.7425358 28.58,46.8331739 C28.4734049,46.923812 28.402865,47.0512166 28.3683784,47.2153913 Z M31.9048108,46.102087 C32.1618932,46.102087 32.3742965,46.196144 32.542027,46.3842609 C32.7097576,46.5723778 32.7936216,46.8323172 32.7936216,47.164087 L32.7936216,48.7391304 L32.186973,48.7391304 L32.186973,47.2461739 C32.186973,47.0751586 32.1446491,46.9443338 32.06,46.8536957 C31.9753509,46.7630575 31.8624872,46.7177391 31.7214054,46.7177391 C31.5646479,46.7177391 31.4392437,46.7707531 31.3451892,46.8767826 C31.2511347,46.9828121 31.2041081,47.141854 31.2041081,47.353913 L31.2041081,48.7391304 L30.5974595,48.7391304 L30.5974595,46.173913 L31.2041081,46.173913 L31.2041081,46.4612174 C31.3514602,46.2217959 31.5850254,46.102087 31.9048108,46.102087 Z M34.6558919,46.810087 L34.1244865,46.810087 L34.1244865,47.8772174 C34.1244865,47.9661454 34.1448647,48.0311302 34.1856216,48.0721739 C34.2263786,48.1132176 34.2859456,48.1363043 34.3643243,48.1414348 C34.4427031,48.1465652 34.5398913,48.1457102 34.6558919,48.1388696 L34.6558919,48.7391304 C34.2389168,48.790435 33.9450009,48.7476818 33.7741351,48.6108696 C33.6032694,48.4740573 33.5178378,48.229509 33.5178378,47.8772174 L33.5178378,46.810087 L33.1087027,46.810087 L33.1087027,46.173913 L33.5178378,46.173913 L33.5178378,45.6557391 L34.1244865,45.4556522 L34.1244865,46.173913 L34.6558919,46.173913 L34.6558919,46.810087 Z M38.3004865,48.4210435 C38.0590799,48.6809868 37.7643801,48.8109565 37.4163784,48.8109565 C37.0683766,48.8109565 36.7744607,48.6801317 36.5346216,48.4184783 C36.2947826,48.1568248 36.1748649,47.8361758 36.1748649,47.4565217 C36.1748649,47.0768677 36.2947826,46.7562187 36.5346216,46.4945652 C36.7744607,46.2329117 37.0683766,46.102087 37.4163784,46.102087 C37.7643801,46.102087 38.0590799,46.2329117 38.3004865,46.4945652 C38.5418931,46.7562187 38.6625946,47.0768677 38.6625946,47.4565217 C38.6625946,47.8361758 38.5418931,48.1576798 38.3004865,48.4210435 Z M36.9602162,47.9644348 C37.0824871,48.0978268 37.2345396,48.1645217 37.4163784,48.1645217 C37.5982171,48.1645217 37.7502697,48.0978268 37.8725405,47.9644348 C37.9948114,47.8310428 38.0559459,47.6617402 38.0559459,47.4565217 C38.0559459,47.2513033 37.9948114,47.0820007 37.8725405,46.9486087 C37.7502697,46.8152167 37.5982171,46.7485217 37.4163784,46.7485217 C37.2345396,46.7485217 37.0832709,46.8152167 36.9625676,46.9486087 C36.8418643,47.0820007 36.7815135,47.2513033 36.7815135,47.4565217 C36.7815135,47.6617402 36.8410805,47.8310428 36.9602162,47.9644348 Z M40.2803243,45.7121739 C39.9479983,45.6848115 39.7818378,45.8301723 39.7818378,46.1482609 L39.7818378,46.173913 L40.2803243,46.173913 L40.2803243,46.810087 L39.7818378,46.810087 L39.7818378,48.7391304 L39.1751892,48.7391304 L39.1751892,46.810087 L38.8365946,46.810087 L38.8365946,46.173913 L39.1751892,46.173913 L39.1751892,46.1482609 C39.1751892,45.7857083 39.2676748,45.5103778 39.4526486,45.3222609 C39.6376225,45.134144 39.9135117,45.0520579 40.2803243,45.076 L40.2803243,45.7121739 Z M42.0344324,45.866087 C41.9341076,45.866087 41.8471085,45.825899 41.7734324,45.7455217 C41.6997564,45.6651445 41.6629189,45.5702324 41.6629189,45.4607826 C41.6629189,45.3513328 41.6997564,45.2555656 41.7734324,45.1734783 C41.8471085,45.0913909 41.9341076,45.0503478 42.0344324,45.0503478 C42.1378924,45.0503478 42.2264591,45.0913909 42.3001351,45.1734783 C42.3738112,45.2555656 42.4106486,45.3513328 42.4106486,45.4607826 C42.4106486,45.5702324 42.3738112,45.6651445 42.3001351,45.7455217 C42.2264591,45.825899 42.1378924,45.866087 42.0344324,45.866087 Z M41.7334595,48.7391304 L41.7334595,46.173913 L42.3401081,46.173913 L42.3401081,48.7391304 L41.7334595,48.7391304 Z M44.2023784,46.102087 C44.4594607,46.102087 44.671864,46.196144 44.8395946,46.3842609 C45.0073252,46.5723778 45.0911892,46.8323172 45.0911892,47.164087 L45.0911892,48.7391304 L44.4845405,48.7391304 L44.4845405,47.2461739 C44.4845405,47.0751586 44.4422166,46.9443338 44.3575676,46.8536957 C44.2729185,46.7630575 44.1600548,46.7177391 44.018973,46.7177391 C43.8622154,46.7177391 43.7368113,46.7707531 43.6427568,46.8767826 C43.5487022,46.9828121 43.5016757,47.141854 43.5016757,47.353913 L43.5016757,48.7391304 L42.895027,48.7391304 L42.895027,46.173913 L43.5016757,46.173913 L43.5016757,46.4612174 C43.6490278,46.2217959 43.882593,46.102087 44.2023784,46.102087 Z M47.3908108,45.1478261 L47.9974595,45.1478261 L47.9974595,48.7391304 L47.3908108,48.7391304 L47.3908108,48.4364348 C47.2121072,48.6861172 46.9581638,48.8109565 46.628973,48.8109565 C46.3123227,48.8109565 46.04192,48.6801317 45.8177568,48.4184783 C45.5935935,48.1568248 45.4815135,47.8361758 45.4815135,47.4565217 C45.4815135,47.0768677 45.5935935,46.7562187 45.8177568,46.4945652 C46.04192,46.2329117 46.3123227,46.102087 46.628973,46.102087 C46.9581638,46.102087 47.2121072,46.2269263 47.3908108,46.4766087 L47.3908108,45.1478261 Z M46.2715676,47.9798261 C46.3969736,48.1132181 46.5537288,48.179913 46.7418378,48.179913 C46.9299469,48.179913 47.0851345,48.112363 47.2074054,47.9772609 C47.3296763,47.8421587 47.3908108,47.6685808 47.3908108,47.4565217 C47.3908108,47.2444627 47.3296763,47.0708847 47.2074054,46.9357826 C47.0851345,46.8006805 46.9299469,46.7331304 46.7418378,46.7331304 C46.5537288,46.7331304 46.3977574,46.8006805 46.2739189,46.9357826 C46.1500805,47.0708847 46.0881622,47.2444627 46.0881622,47.4565217 C46.0881622,47.6685808 46.1492967,47.8430138 46.2715676,47.9798261 Z M48.8533514,45.866087 C48.7530265,45.866087 48.6660274,45.825899 48.5923514,45.7455217 C48.5186753,45.6651445 48.4818378,45.5702324 48.4818378,45.4607826 C48.4818378,45.3513328 48.5186753,45.2555656 48.5923514,45.1734783 C48.6660274,45.0913909 48.7530265,45.0503478 48.8533514,45.0503478 C48.9568113,45.0503478 49.045378,45.0913909 49.1190541,45.1734783 C49.1927301,45.2555656 49.2295676,45.3513328 49.2295676,45.4607826 C49.2295676,45.5702324 49.1927301,45.6651445 49.1190541,45.7455217 C49.045378,45.825899 48.9568113,45.866087 48.8533514,45.866087 Z M48.5523784,48.7391304 L48.5523784,46.173913 L49.159027,46.173913 L49.159027,48.7391304 L48.5523784,48.7391304 Z M51.500973,46.173913 L52.1076216,46.173913 L52.1076216,48.7391304 L51.500973,48.7391304 L51.500973,48.4364348 C51.3191342,48.6861172 51.0636233,48.8109565 50.7344324,48.8109565 C50.4209174,48.8109565 50.1520822,48.6801317 49.9279189,48.4184783 C49.7037556,48.1568248 49.5916757,47.8361758 49.5916757,47.4565217 C49.5916757,47.0768677 49.7037556,46.7562187 49.9279189,46.4945652 C50.1520822,46.2329117 50.4209174,46.102087 50.7344324,46.102087 C51.0636233,46.102087 51.3191342,46.2269263 51.500973,46.4766087 L51.500973,46.173913 Z M50.3817297,47.9798261 C50.5040006,48.1132181 50.6591882,48.179913 50.8472973,48.179913 C51.0354063,48.179913 51.1913778,48.112363 51.3152162,47.9772609 C51.4390547,47.8421587 51.500973,47.6685808 51.500973,47.4565217 C51.500973,47.2444627 51.4390547,47.0708847 51.3152162,46.9357826 C51.1913778,46.8006805 51.0354063,46.7331304 50.8472973,46.7331304 C50.6591882,46.7331304 50.5040006,46.8006805 50.3817297,46.9357826 C50.2594588,47.0708847 50.1983243,47.2444627 50.1983243,47.4565217 C50.1983243,47.6685808 50.2594588,47.8430138 50.3817297,47.9798261 Z" id="governmentofindia" fill="#FFFFFF" fill-rule="nonzero"></path>
                        </g>
                    </g>
                </g>
            </g>
        </g>
    </g>
</svg>