<?xml version="1.0" encoding="UTF-8"?>
<svg width="18px" height="14px" viewBox="0 0 18 14" version="1.1" xmlns="http://www.w3.org/2000/svg" xmlns:xlink="http://www.w3.org/1999/xlink">
    <!-- Generator: sketchtool 57.1 (101010) - https://sketch.com -->
    <title>30F164DE-CA23-4247-9DB3-419E33227B6B</title>
    <desc>Created with sketchtool.</desc>
    <defs>
        <rect id="path-1" x="2" y="2" width="20" height="20"></rect>
    </defs>
    <g id="BGV-configuration" stroke="none" stroke-width="1" fill="none" fill-rule="evenodd">
        <g id="bgv-configuration-1_select-services" transform="translate(-399.000000, -259.000000)">
            <g id="section" transform="translate(160.000000, 120.000000)">
                <g id="Security-Guard-Copy-4" transform="translate(228.000000, 126.000000)">
                    <g id="icon-/-48-/-info-/-verification-/-rc" transform="translate(8.000000, 8.000000)">
                        <mask id="mask-2" fill="white">
                            <use xlink:href="#path-1"></use>
                        </mask>
                        <g id="container"></g>
                        <g id="visa" mask="url(#mask-2)" fill-rule="nonzero">
                            <g transform="translate(3.000000, 5.500000)">
                                <rect id="Combined-Shape" fill="#E6E6E6" x="0" y="2.7391305" width="18" height="7.43478251"></rect>
                                <path d="M7.54669589,8.60869572 L6.7742611,7.27747833 L6.19904371,7.27747833 L6.19904371,8.60869572 L5.44304371,8.60869572 L5.44304371,4.77391312 L6.97695676,4.77391312 C7.3312194,4.77391312 7.63252074,4.89808579 7.8808698,5.14643485 C8.12921887,5.39478392 8.25339154,5.69425919 8.25339154,6.04486963 C8.25339154,6.28226213 8.185827,6.5023034 8.05069589,6.70500007 C7.91556478,6.90769673 7.73661005,7.06017347 7.51382632,7.16243485 L8.36295676,8.60869572 L7.54669589,8.60869572 Z M6.19904369,5.48060876 L6.19904369,6.61460871 L6.97695674,6.61460871 C7.11939223,6.61460871 7.24173884,6.55891361 7.34400022,6.44752176 C7.4462616,6.3361299 7.49739152,6.20191386 7.49739152,6.0448696 C7.49739152,5.88782535 7.4462616,5.75452234 7.34400022,5.64495658 C7.24173884,5.53539082 7.11939223,5.48060876 6.97695674,5.48060876 L6.19904369,5.48060876 Z M9.57365232,8.54295664 C9.48234752,8.63426145 9.3727834,8.67991316 9.24495667,8.67991316 C9.11712995,8.67991316 9.00756583,8.63426145 8.91626102,8.54295664 C8.82495622,8.45165184 8.7793045,8.34208772 8.7793045,8.214261 C8.7793045,8.08643427 8.82495622,7.97687015 8.91626102,7.88556535 C9.00756583,7.79426054 9.11712995,7.74860883 9.24495667,7.74860883 C9.3727834,7.74860883 9.48234752,7.79426054 9.57365232,7.88556535 C9.66495712,7.97687015 9.71060884,8.08643427 9.71060884,8.214261 C9.71060884,8.34208772 9.66495712,8.45165184 9.57365232,8.54295664 Z M11.874522,8.68539143 C11.2974756,8.68539143 10.8208717,8.49365421 10.4446959,8.11017403 C10.0685201,7.72669384 9.88043499,7.25374205 9.88043499,6.69130445 C9.88043499,6.12521465 10.0685201,5.65134982 10.4446959,5.26969573 C10.8208717,4.88804165 11.2974756,4.69721746 11.874522,4.69721746 C12.2214802,4.69721746 12.5419553,4.77847752 12.8359568,4.94100008 C13.1299582,5.10352263 13.3591299,5.32356391 13.5234785,5.60113052 L12.8715655,5.97913052 C12.7766085,5.80747749 12.6414794,5.67326144 12.4661741,5.57647834 C12.2908689,5.47969525 12.0936535,5.43130443 11.874522,5.43130443 C11.5019984,5.43130443 11.2016101,5.54817283 10.973348,5.78191313 C10.745086,6.01565343 10.6309567,6.31878084 10.6309567,6.69130445 C10.6309567,7.06017586 10.745086,7.3614772 10.973348,7.5952175 C11.2016101,7.8289578 11.5019984,7.9458262 11.874522,7.9458262 C12.0936535,7.9458262 12.291782,7.89743538 12.4689133,7.80065228 C12.6460446,7.70386919 12.7802607,7.57147921 12.8715655,7.40347837 L13.5234785,7.78147837 C13.3591299,8.05904498 13.1308713,8.27908626 12.8386959,8.44160881 C12.5465205,8.60413137 12.2251324,8.68539143 11.874522,8.68539143 Z" id="R.C" fill="#1D127B"></path>
                                <path d="M1.17391304,13.3043478 L16.826087,13.3043478 C17.4744783,13.3043478 18,12.778826 18,12.1304347 L18,10.173913 L0,10.173913 L0,12.1304347 C0,12.778826 0.525521739,13.3043478 1.17391304,13.3043478 Z" id="Path" fill="#E79800"></path>
                                <path d="M16.826087,0 L1.17391304,0 C0.525521739,0 0,0.525521734 0,1.17391303 L0,3.13043475 L18,3.13043475 L18,1.17391303 C18,0.525521734 17.4744783,0 16.826087,0 Z" id="Path" fill="#1A1876"></path>
                            </g>
                        </g>
                    </g>
                </g>
            </g>
        </g>
    </g>
</svg>