<?xml version="1.0" encoding="UTF-8"?>
<svg width="16px" height="24px" viewBox="0 0 16 24" version="1.1" xmlns="http://www.w3.org/2000/svg" xmlns:xlink="http://www.w3.org/1999/xlink">
    <!-- Generator: sketchtool 56.2 (101010) - https://sketch.com -->
    <title>6621B753-B1EC-4BCC-8231-EE9C6FB17B26</title>
    <desc>Created with sketchtool.</desc>
    <defs>
        <path d="M7.18860042,11.6039604 C6.25351513,11.6039604 5.49547872,10.8947085 5.49547872,10.019802 C5.49547872,9.14489545 6.25351513,8.43564356 7.18860042,8.43564356 C8.12368571,8.43564356 8.88172211,9.14489545 8.88172211,10.019802 C8.88172211,10.8947085 8.12368571,11.6039604 7.18860042,11.6039604 Z M14.9769602,4.91089109 C13.527578,4.91089109 12.3526216,3.81155067 12.3526216,2.45544554 C12.3526216,1.09934042 13.527578,-3.99680289e-15 14.9769602,-3.99680289e-15 C16.4263424,-3.99680289e-15 17.6012988,1.09934042 17.6012988,2.45544554 C17.6012988,3.81155067 16.4263424,4.91089109 14.9769602,4.91089109 Z M7.07121674,11.8007307 C7.06809074,11.8084754 7.09685291,11.8044342 7.15750326,11.788607 C7.6113419,11.788607 8.01019586,11.9170322 8.35406516,12.1738828 C8.90738595,12.6196574 9.49437613,12.9546719 10.1150357,13.1789263 C9.82999854,10.8944603 10.1480395,8.97439999 11.0691585,7.41874545 C12.3013217,5.60935339 13.8411684,4.83887773 15.6886988,5.10731846 C19.1115798,6.00432074 19.6209064,9.00865179 19.8279877,10.019802 C20.0350691,11.0309522 20.0005393,13.3731363 19.7633601,13.7972814 C19.5261808,14.2214266 18.8971445,14.2828976 18.5373821,13.9752237 C18.1776197,13.6675499 18.3848958,13.4765297 18.2713225,11.8007307 C18.195607,10.6835315 17.9181187,9.70579731 17.4388575,8.86752829 C17.6112059,10.8385024 17.7724488,12.2143753 17.9225864,12.9951471 C18.5373821,16.1923165 19.0933268,18.508627 19.0841337,18.6956491 C19.0702056,18.680221 17.3554662,18.5911148 17.3503278,18.6956491 C17.3014934,19.6891261 17.2282419,21.1793417 17.1305732,23.1662959 C17.04489,23.6505298 16.8001457,23.9284312 16.3963404,24 C15.7906486,24 15.4401558,23.7545125 15.344862,23.2635376 L15.2523767,21.2098421 L14.9769602,18.6956491 L14.7089587,23.2635376 C14.6053206,23.723499 14.3343746,23.9689865 13.8961206,24 C13.3324425,24 13.0062034,23.68569 12.9174032,23.0570699 C12.812435,21.1423731 12.7337088,19.7063505 12.6812247,18.7490021 C12.6729131,18.5973932 10.8685546,18.726116 10.8685546,18.6956491 C11.0022906,17.6680271 11.379439,15.7768837 12,13.0222186 L12.5616344,8.86752829 C12.0183462,9.48463791 11.7266531,10.8695347 11.6865551,13.0222186 C11.7460041,13.3604229 11.7162796,13.6187772 11.5973815,13.7972814 C11.4920226,13.995471 11.2490803,14.11577 10.8685546,14.1581785 C10.561634,14.3427585 9.9411692,14.3021727 9.00716032,14.0364213 C9.01436823,14.8384451 9.03727445,15.5052084 9.07587898,16.0367113 C9.13378578,16.8339656 9.13378578,17.4034265 9.00716032,17.5599519 C8.92274335,17.6643022 8.87732052,17.8385231 8.87089185,18.0826147 C8.74248064,20.8751921 8.65434607,22.5066411 8.60648814,22.9769617 C8.55863021,23.4472822 8.35141901,23.662985 7.98485454,23.6240701 C7.67212212,23.5738544 7.49137239,23.3252364 7.44260535,22.8782162 L7.18803948,18.7986216 L7.07121674,20.2851346 C7.00026495,21.9030652 6.96478905,22.8486731 6.96478905,23.1219584 C6.96478905,23.3952437 6.82493285,23.5626143 6.54522046,23.6240701 C6.35456797,23.644849 6.17167535,23.6040202 5.9965426,23.5015838 C5.82140984,23.3991474 5.73941174,23.0452678 5.75054829,22.4399451 C5.58050191,19.862235 5.51079297,18.4757585 5.54142147,18.2805157 C5.57204997,18.0852728 5.52846159,17.8450849 5.41065633,17.5599519 C5.25373816,17.3150098 5.25338102,16.4565123 5.40958488,14.9844595 C5.18055514,15.219073 5.05238745,15.7594616 5.0250818,16.6056254 C5.0250818,16.9295517 4.93654139,17.1350018 4.75946055,17.2219755 C4.33468083,17.330913 4.08152732,17.2218844 4,16.8948898 C4,15.7613754 4.10693358,14.8907113 4.32080073,14.2828976 C4.85529005,12.8513394 5.77209538,12.0239504 7.07121674,11.8007307 Z" id="path-1"></path>
    </defs>
    <g id="👽-GBV-Client" stroke="none" stroke-width="1" fill="none" fill-rule="evenodd">
        <g id="BGV-Client-zomato-employee-profile" transform="translate(-205.000000, -1630.000000)">
            <g id="section-copy" transform="translate(160.000000, 1348.000000)">
                <g id="references_mother_info" transform="translate(41.000000, 272.000000)">
                    <g id="icon-/-24-/-info-/-profile" transform="translate(12.000000, 22.000000) scale(-1, 1) translate(-12.000000, -22.000000) translate(0.000000, 10.000000)">
                        <mask id="mask-2" fill="white">
                            <use xlink:href="#path-1"></use>
                        </mask>
                        <use id="Combined-Shape" fill="#8697A8" xlink:href="#path-1"></use>
                        <rect id="Rectangle" fill="#8697A8" mask="url(#mask-2)" x="0" y="0" width="24" height="24"></rect>
                    </g>
                </g>
            </g>
        </g>
    </g>
</svg>