<?xml version="1.0" encoding="UTF-8"?>
<svg width="40px" height="40px" viewBox="0 0 40 40" version="1.1" xmlns="http://www.w3.org/2000/svg" xmlns:xlink="http://www.w3.org/1999/xlink">
    <title>4A4C9028-6363-4578-9238-DC8FC2EDAAE2</title>
    <g id="profille_view-mode" stroke="none" stroke-width="1" fill="none" fill-rule="evenodd">
        <g id="attendance-_profile_04" transform="translate(-200.000000, -759.000000)">
            <g id="Group-29" transform="translate(160.000000, 446.000000)">
                <g id="Group-7" transform="translate(40.000000, 105.000000)">
                    <g id="Group-34" transform="translate(0.000000, 134.000000)">
                        <g id="Group-38" transform="translate(0.000000, 74.000000)">
                            <circle id="Oval" fill="#F3F7FD" cx="20" cy="20" r="20"></circle>
                            <g id="noun_eye-of-religion_1929429" transform="translate(7.000000, 9.000000)">
                                <g id="Group">
                                    <circle id="Oval" cx="13" cy="3.12" r="1.74055556"></circle>
                                    <path d="M25.9968222,10.2408222 C25.9933556,10.2076 25.9858444,10.1752444 25.9766,10.1437556 C25.9757333,10.1408667 25.9754444,10.1376889 25.9745778,10.1348 C25.9526222,10.0651778 25.9173778,10.0010444 25.8714444,9.94586667 C25.8711556,9.94557778 25.8708667,9.945 25.8705778,9.94471111 C25.8642222,9.93691111 25.8558444,9.93084444 25.8489111,9.92362222 C25.8315778,9.90513333 25.8142444,9.88635556 25.7943111,9.87017778 C25.7830444,9.86122222 25.7703333,9.85428889 25.7584889,9.8462 C25.7405778,9.83406667 25.7232444,9.82106667 25.7041778,9.81095556 C25.6894444,9.80315556 25.6738444,9.79824444 25.6585333,9.79188889 C25.6403333,9.78437778 25.623,9.77571111 25.6039333,9.77022222 C25.5828444,9.76386667 25.5608889,9.76126667 25.5392222,9.75751111 C25.5253556,9.7552 25.5123556,9.75086667 25.4982,9.74942222 C25.4973333,9.74942222 25.4964667,9.74942222 25.4956,9.74942222 C25.4944444,9.74942222 25.4935778,9.74884444 25.4927111,9.74884444 C25.3927556,9.74075556 23.1853556,9.56886667 20.7413556,10.1033111 C20.4903111,8.79897778 20.1708,7.89013333 20.1387333,7.80115556 C20.1263111,7.7662 20.1101333,7.73268889 20.0910667,7.70148889 C20.0800889,7.68357778 20.0668,7.66826667 20.0540889,7.6518 C20.0445556,7.63937778 20.0364667,7.6258 20.0257778,7.61424444 C20.0127778,7.60008889 19.9974667,7.58853333 19.9830222,7.57582222 C19.9434444,7.54057778 19.9004,7.50908889 19.8515778,7.48626667 C19.8241333,7.47326667 19.7952444,7.46431111 19.7663556,7.45622222 C19.7620222,7.45506667 19.7582667,7.45304444 19.7539333,7.45188889 C19.7253333,7.44466667 19.6961556,7.4412 19.6669778,7.43831111 C19.6603333,7.43773333 19.6539778,7.436 19.6473333,7.43542222 C19.6198889,7.43397778 19.5924444,7.43628889 19.565,7.43888889 C19.5560444,7.43975556 19.5470889,7.43917778 19.5378444,7.44033333 C19.5118444,7.44408889 19.4867111,7.4516 19.4615778,7.45911111 C19.4514667,7.462 19.4413556,7.46286667 19.4315333,7.46662222 C19.4306667,7.46691111 19.4300889,7.46748889 19.4292222,7.46777778 C19.4280667,7.46806667 19.4272,7.46835556 19.4260444,7.46864444 C19.3448667,7.49868889 17.5687778,8.16457778 15.7274,9.46284444 C14.6651556,7.69946667 13.4827333,6.4896 13.3931778,6.39917778 C13.1854667,6.18944444 12.8148222,6.18915556 12.6071111,6.39917778 C12.5175556,6.4896 11.3351333,7.69946667 10.2728889,9.46284444 C8.43151111,8.16457778 6.65542222,7.49868889 6.57395556,7.46864444 C6.57308889,7.46835556 6.57193333,7.46835556 6.57106667,7.46777778 C6.5702,7.46748889 6.56962222,7.46691111 6.56875556,7.46662222 C6.5572,7.46257778 6.54564444,7.46142222 6.53437778,7.45824444 C6.51068889,7.45131111 6.487,7.44408889 6.46302222,7.44062222 C6.44886667,7.4386 6.435,7.43917778 6.42084444,7.43831111 C6.39888889,7.43686667 6.37664444,7.43455556 6.35468889,7.43542222 C6.33764444,7.43628889 6.32117778,7.44004444 6.30442222,7.44235556 C6.28564444,7.44495556 6.26686667,7.4464 6.24866667,7.45102222 C6.22468889,7.45708889 6.20215556,7.46633333 6.17933333,7.47528889 C6.16922222,7.47933333 6.15853333,7.48135556 6.14871111,7.48597778 C6.14842222,7.48626667 6.14784444,7.48655556 6.14755556,7.48655556 C6.08226667,7.51717778 6.02333333,7.56022222 5.97393333,7.61424444 C5.97104444,7.61742222 5.96902222,7.62146667 5.96613333,7.62464444 C5.94533333,7.64833333 5.92597778,7.67346667 5.90922222,7.70091111 C5.89015556,7.73211111 5.87426667,7.76562222 5.86184444,7.80057778 C5.82977778,7.88984444 5.51026667,8.79868889 5.25951111,10.1030222 C2.81522222,9.56828889 0.608111111,9.74046667 0.508155556,9.74826667 C0.507,9.74826667 0.506133333,9.74884444 0.505266667,9.74884444 C0.5044,9.74884444 0.503533333,9.74884444 0.502666667,9.74884444 C0.488511111,9.75028889 0.475511111,9.75462222 0.461644444,9.75693333 C0.439977778,9.76068889 0.417733333,9.76328889 0.396644444,9.76964444 C0.377577778,9.77542222 0.359955556,9.7838 0.341755556,9.7916 C0.326733333,9.79795556 0.310844444,9.80286667 0.2964,9.81037778 C0.276755556,9.82077778 0.259422222,9.83377778 0.241222222,9.8462 C0.229666667,9.85428889 0.216955556,9.86093333 0.205977778,9.8696 C0.185755556,9.88606667 0.168133333,9.90484444 0.150222222,9.92391111 C0.143577778,9.93084444 0.135777778,9.93662222 0.129711111,9.94413333 C0.129422222,9.94442222 0.129133333,9.945 0.128844444,9.94528889 C0.0826222222,10.0004667 0.0473777778,10.0646 0.0254222222,10.1345111 C0.0245555556,10.1374 0.0242666667,10.1405778 0.0234,10.1434667 C0.0141555556,10.1749556 0.00693333333,10.2070222 0.00317777778,10.2405333 C-0.000866666667,10.2769333 -0.00115555556,10.3136222 0.00231111111,10.3506 C0.0239777778,10.5840222 0.567377778,16.0957333 3.81073333,18.8170667 C5.42966667,20.1754222 7.65844444,20.5267111 9.5316,20.5267111 C11.1921333,20.5267111 12.571,20.2508222 13,20.1549111 C13.429,20.2508222 14.8075778,20.5267111 16.4684,20.5267111 C18.3415556,20.5267111 20.5703333,20.1751333 22.1892667,18.8170667 C25.4323333,16.0957333 25.9760222,10.5840222 25.9976889,10.3506 C26.0008667,10.3142 26.0005778,10.2772222 25.9968222,10.2408222 Z M19.2703333,8.73108889 C19.2723556,8.73773333 19.2743778,8.74495556 19.2764,8.75188889 C19.2992222,8.83162222 19.3232,8.91742222 19.3486222,9.01102222 C19.3497778,9.01506667 19.3506444,9.01824444 19.3515111,9.02228889 C19.3766444,9.11588889 19.4029333,9.21786667 19.4295111,9.32417778 C19.4347111,9.34526667 19.4399111,9.36635556 19.4454,9.38802222 C19.4722667,9.49693333 19.4994222,9.61104444 19.5265778,9.73151111 C19.5294667,9.74422222 19.5323556,9.75808889 19.5352444,9.77108889 C19.5603778,9.88346667 19.5852222,10.0007556 19.6097778,10.1215111 C19.6144,10.1443333 19.6190222,10.1665778 19.6236444,10.1896889 C19.6493556,10.3191111 19.6744889,10.4531556 19.6984667,10.5909556 C19.7033778,10.6189778 19.708,10.6472889 19.7129111,10.6756 C19.7363111,10.8128222 19.7588444,10.9532222 19.7796444,11.0973778 C19.7808,11.1057556 19.7822444,11.1135556 19.7834,11.1219333 C19.8044889,11.2698444 19.8235556,11.4220889 19.8408889,11.5760667 C19.8446444,11.6101556 19.8486889,11.6439556 19.8521556,11.6783333 C19.8686222,11.8323111 19.8836444,11.9886 19.8954889,12.1472 C19.8972222,12.1706 19.8983778,12.1945778 19.9001111,12.2179778 C19.9105111,12.3638667 19.9183111,12.5112 19.9240889,12.6599778 C19.9252444,12.6897333 19.9266889,12.7192 19.9278444,12.7489556 C19.9327556,12.9104444 19.9344889,13.0733778 19.9333333,13.2368889 C19.9330444,13.2724222 19.9321778,13.3079556 19.9316,13.3434889 C19.9287111,13.5078667 19.9235111,13.6725333 19.9134,13.8377778 C19.9131111,13.8438444 19.9131111,13.8499111 19.9125333,13.8562667 C19.9018444,14.0241111 19.8856667,14.1922444 19.8663111,14.3598 C19.8619778,14.3964889 19.8579333,14.4331778 19.8533111,14.4701556 C19.8322222,14.6354 19.8073778,14.8003556 19.7770444,14.9641556 C19.7721333,14.9901556 19.7663556,15.0158667 19.7611556,15.0418667 C19.7319778,15.1918 19.6981778,15.3405778 19.6600444,15.4879111 C19.6528222,15.5159333 19.6464667,15.5439556 19.6389556,15.5719778 C19.5959111,15.7314444 19.5465111,15.8888889 19.4922,16.0443111 C19.4803556,16.0781111 19.4679333,16.1116222 19.4555111,16.1451333 C19.3968667,16.3046 19.3341778,16.4623333 19.2625333,16.6160222 C18.4481556,18.3626444 16.7336,18.9329111 15.3189111,19.0874667 C16.3828889,18.2996667 17.4309778,16.9644222 17.4309778,14.7587556 C17.4309778,13.2264889 16.9228222,11.7312 16.2676222,10.4378444 C17.4367556,9.59948889 18.6105111,9.02315556 19.2703333,8.73108889 Z M13.0002889,7.60904444 C13.9565111,8.70451111 16.3239556,11.7239778 16.3239556,14.7587556 C16.3239556,17.9804444 13.5936667,18.8653111 13,19.0195778 C12.4031556,18.8644444 9.67546667,17.9787111 9.67546667,14.7587556 C9.67575556,11.7300444 12.0443556,8.70595556 13.0002889,7.60904444 Z M8.56931111,14.7587556 C8.56931111,16.9638444 9.61682222,18.2988 10.6805111,19.0866 C9.26611111,18.9320444 7.55184444,18.3617778 6.73775556,16.6160222 C6.66611111,16.4623333 6.60342222,16.3046 6.54477778,16.1451333 C6.53235556,16.1113333 6.51964444,16.0778222 6.5078,16.0440222 C6.45348889,15.8883111 6.40408889,15.7308667 6.36104444,15.5711111 C6.35353333,15.5436667 6.34717778,15.5156444 6.34024444,15.4882 C6.30211111,15.3405778 6.26831111,15.1915111 6.23913333,15.0412889 C6.23393333,15.0152889 6.22815556,14.9895778 6.22353333,14.9635778 C6.1932,14.7997778 6.16835556,14.6351111 6.14726667,14.4698667 C6.14264444,14.4328889 6.13831111,14.3962 6.13426667,14.3592222 C6.11491111,14.1916667 6.09873333,14.0238222 6.08804444,13.8559778 C6.08775556,13.8496222 6.08746667,13.8432667 6.08717778,13.8372 C6.07706667,13.6725333 6.07157778,13.5078667 6.06897778,13.3440667 C6.0684,13.3082444 6.06753333,13.2721333 6.06724444,13.2363111 C6.06608889,13.0730889 6.06753333,12.9104444 6.07273333,12.7492444 C6.0736,12.7189111 6.07533333,12.6885778 6.07648889,12.6582444 C6.08226667,12.5106222 6.09006667,12.3638667 6.10017778,12.2191333 C6.10191111,12.1948667 6.10306667,12.1703111 6.10508889,12.1460444 C6.11693333,11.9886 6.13166667,11.8334667 6.14813333,11.6806444 C6.15188889,11.6442444 6.15622222,11.6081333 6.16026667,11.5720222 C6.1776,11.4203556 6.19637778,11.2701333 6.21717778,11.1242444 C6.21891111,11.1115333 6.22093333,11.0996889 6.22295556,11.0869778 C6.24288889,10.9486 6.26455556,10.8139778 6.28708889,10.6819556 C6.29257778,10.6496 6.29806667,10.6172444 6.30355556,10.5854667 C6.32695556,10.4517111 6.35122222,10.3214222 6.37635556,10.1954667 C6.38213333,10.1662889 6.3882,10.1382667 6.39397778,10.1093778 C6.41651111,9.99844444 6.43933333,9.8904 6.46244444,9.78697778 C6.46706667,9.76617778 6.47168889,9.74451111 6.47631111,9.72428889 C6.50202222,9.61046667 6.52773333,9.50242222 6.55315556,9.39871111 C6.56037778,9.36895556 6.5676,9.33977778 6.57482222,9.31088889 C6.59937778,9.21266667 6.62393333,9.11733333 6.64733333,9.0298 C6.65195556,9.01246667 6.65628889,8.99744444 6.66091111,8.9804 C6.68113333,8.90644444 6.7002,8.83711111 6.71868889,8.7724 C6.72273333,8.75853333 6.72677778,8.74437778 6.73053333,8.7308 C7.38948889,9.022 8.56151111,9.59746667 9.73353333,10.4378444 C9.07746667,11.7312 8.56931111,13.2264889 8.56931111,14.7587556 Z M4.14786667,17.6245333 C4.12244444,17.5994 4.09702222,17.5742667 4.07188889,17.5488444 C3.95691111,17.4306889 3.84568889,17.3087778 3.73908889,17.1825333 C3.7206,17.1605778 3.70268889,17.1377556 3.68448889,17.1155111 C3.588,16.9982222 3.49468889,16.8777556 3.40484444,16.7544 C3.38895556,16.7327333 3.37248889,16.7113556 3.35688889,16.6896889 C3.2604,16.5544889 3.16824444,16.4158222 3.07955556,16.2751333 C3.05962222,16.2433556 3.03997778,16.2115778 3.02033333,16.1798 C2.93222222,16.0362222 2.84671111,15.8912 2.76611111,15.7438667 C2.76293333,15.7378 2.76004444,15.7320222 2.75686667,15.7259556 C2.67828889,15.5812222 2.60404444,15.4347556 2.5324,15.2877111 C2.51651111,15.2553556 2.50062222,15.2227111 2.48502222,15.1903556 C2.41482222,15.0430222 2.3478,14.8951111 2.28424444,14.7472 C2.27211111,14.7188889 2.26055556,14.6905778 2.24871111,14.6622667 C2.19151111,14.5264889 2.1372,14.391 2.0852,14.2558 C2.07624444,14.2324 2.067,14.2092889 2.05804444,14.1858889 C2.00228889,14.0382667 1.95,13.8915111 1.90031111,13.7459111 C1.88846667,13.7115333 1.87691111,13.6771556 1.86564444,13.6427778 C1.81711111,13.4977556 1.7706,13.3538889 1.72784444,13.2126222 C1.72437778,13.2004889 1.72091111,13.1889333 1.71744444,13.1770889 C1.677,13.0427556 1.63944444,12.9113111 1.60391111,12.7818889 C1.59524444,12.7509778 1.58657778,12.7197778 1.57848889,12.6894444 C1.54295556,12.5577111 1.50973333,12.4285778 1.47911111,12.3032 C1.47217778,12.2748889 1.46582222,12.2477333 1.45917778,12.2197111 C1.4326,12.1087778 1.40746667,12.0007333 1.38435556,11.8964444 C1.38002222,11.8762222 1.37511111,11.8551333 1.37077778,11.8352 C1.34564444,11.7196444 1.32311111,11.6092889 1.30202222,11.5035556 C1.29653333,11.4764 1.29162222,11.4498222 1.28642222,11.4235333 C1.26677778,11.3215556 1.24828889,11.2227556 1.23211111,11.1317556 C1.22951111,11.1176 1.22748889,11.1048889 1.22517778,11.0907333 C1.21102222,11.0086889 1.19802222,10.9315556 1.18675556,10.8599111 C1.18502222,10.8489333 1.18328889,10.8376667 1.18155556,10.8269778 C1.98033333,10.8096444 3.49353333,10.8428667 5.08328889,11.1979111 C4.85246667,12.9922 4.85795556,15.2039333 5.73473333,17.0837333 C6.20908889,18.1012 6.90155556,18.8011778 7.67462222,19.279 C6.53408889,19.0975778 5.40482222,18.7107556 4.52168889,17.9697556 C4.39197778,17.8608444 4.26833333,17.7441333 4.14786667,17.6245333 Z M18.3291333,19.2766889 C19.1004667,18.7988667 19.7912,18.0994667 20.2649778,17.0837333 C21.1414667,15.2039333 21.1472444,12.9922 20.9164222,11.1976222 C22.5032889,10.8440222 24.0196667,10.8122444 24.8181556,10.8269778 C24.817,10.8347778 24.8155556,10.8428667 24.8144,10.8506667 C24.8016889,10.9309778 24.7872444,11.0173556 24.7710667,11.1109556 C24.7702,11.1161556 24.7693333,11.1207778 24.7684667,11.1259778 C24.7517111,11.2204444 24.7326444,11.3232889 24.7121333,11.4296 C24.7078,11.4524222 24.7031778,11.4752444 24.6985556,11.4983556 C24.6768889,11.6072667 24.6534889,11.7208 24.6277778,11.8401111 C24.6246,11.8548444 24.6208444,11.8701556 24.6176667,11.8851778 C24.5934,11.9955333 24.5668222,12.1102222 24.5385111,12.2278 C24.5327333,12.2517778 24.5272444,12.2754667 24.5211778,12.2997333 C24.4899778,12.4268444 24.4561778,12.5582889 24.4200667,12.6923333 C24.4125556,12.7206444 24.4044667,12.7495333 24.3966667,12.7781333 C24.3599778,12.9113111 24.3215556,13.0468 24.2796667,13.1851778 C24.2770667,13.1938444 24.2747556,13.2022222 24.2721556,13.2108889 C24.2288222,13.3536 24.1817333,13.4994889 24.1326222,13.6462444 C24.1216444,13.6786 24.1109556,13.7112444 24.0996889,13.7436 C24.0494222,13.8900667 23.9968444,14.0379778 23.9408,14.1867556 C23.9324222,14.209 23.9234667,14.2312444 23.9148,14.2534889 C23.8625111,14.3898444 23.8076222,14.5264889 23.7498444,14.6634222 C23.7382889,14.6911556 23.7270222,14.7186 23.7151778,14.7463333 C23.6516222,14.8948222 23.5840222,15.0433111 23.5138222,15.1909333 C23.4988,15.2227111 23.4832,15.2542 23.4678889,15.2859778 C23.3953778,15.4347556 23.3202667,15.5829556 23.2405333,15.7294222 C23.2382222,15.7337556 23.2359111,15.7380889 23.2336,15.7424222 C23.1527111,15.8906222 23.0666222,16.0362222 22.9782222,16.1803778 C22.9591556,16.2115778 22.9400889,16.2427778 22.9204444,16.2736889 C22.8314667,16.4149556 22.7390222,16.5542 22.6419556,16.6899778 C22.6269333,16.7110667 22.6110444,16.7315778 22.5957333,16.7523778 C22.5056,16.8763111 22.4117111,16.9973556 22.3146444,17.1155111 C22.2964444,17.1374667 22.2791111,17.16 22.2606222,17.1819556 C22.1540222,17.3084889 22.0425111,17.4304 21.9275333,17.5485556 C21.9026889,17.5739778 21.8772667,17.5988222 21.8521333,17.6239556 C21.7313778,17.7438444 21.6077333,17.8602667 21.4777333,17.9694667 C20.5972,18.7090222 19.4690889,19.0952667 18.3291333,19.2766889 Z" id="Shape" fill="#F3F7FD"></path>
                                </g>
                                <path d="M13,2.8236 C13.9596889,2.8236 14.7405556,3.60446667 14.7405556,4.56415556 C14.7405556,5.52413333 13.9596889,6.305 13,6.305 C12.0400222,6.305 11.2591556,5.52413333 11.2591556,4.56415556 C11.2591556,3.60446667 12.0400222,2.8236 13,2.8236 Z" id="Path" fill="#0059B2"></path>
                                <g id="Group-42" transform="translate(1.181844, 7.608756)" fill="#0059B2">
                                    <path d="M14.1367778,11.4784222 C15.5511778,11.3241556 17.2660222,10.7536 18.0804,9.00697778 C18.1520444,8.85328889 18.2147333,8.69555556 18.2733778,8.53608889 C18.2858,8.50257778 18.2982222,8.46906667 18.3100667,8.43526667 C18.3643778,8.27984444 18.4137778,8.1224 18.4568222,7.96293333 C18.4643333,7.93491111 18.4706889,7.90688889 18.4779111,7.87886667 C18.5160444,7.73124444 18.5495556,7.58246667 18.5790222,7.43282222 C18.5842222,7.40682222 18.59,7.38111111 18.5949111,7.35511111 C18.6252444,7.19131111 18.6500889,7.02664444 18.6711778,6.86111111 C18.6758,6.82442222 18.6801333,6.78773333 18.6841778,6.75075556 C18.7035333,6.5832 18.7197111,6.41506667 18.7304,6.24722222 C18.7306889,6.24115556 18.7309778,6.2348 18.7312667,6.22873333 C18.7413778,6.06348889 18.7468667,5.89882222 18.7494667,5.73444444 C18.7500444,5.69891111 18.7509111,5.66337778 18.7512,5.62784444 C18.7526444,5.46433333 18.7509111,5.3014 18.7457111,5.13991111 C18.7448444,5.11015556 18.7431111,5.08068889 18.7419556,5.05093333 C18.7361778,4.90215556 18.7283778,4.75482222 18.7179778,4.60893333 C18.7162444,4.58524444 18.7150889,4.56155556 18.7133556,4.53815556 C18.7012222,4.37955556 18.6864889,4.22326667 18.6700222,4.06928889 C18.6662667,4.0352 18.6625111,4.00111111 18.6587556,3.96702222 C18.6411333,3.81304444 18.6223556,3.6608 18.6012667,3.51288889 C18.6001111,3.50451111 18.5986667,3.49671111 18.5975111,3.48833333 C18.5767111,3.34417778 18.5541778,3.20377778 18.5307778,3.06655556 C18.5258667,3.03824444 18.5212444,3.00993333 18.5163333,2.98191111 C18.4923556,2.84411111 18.4672222,2.71006667 18.4415111,2.58064444 C18.4368889,2.55753333 18.4322667,2.53528889 18.4276444,2.51246667 C18.4030889,2.39171111 18.3782444,2.27413333 18.3531111,2.16204444 C18.3502222,2.14904444 18.3473333,2.13546667 18.3444444,2.12246667 C18.3172889,2.002 18.2901333,1.88817778 18.2632667,1.77897778 C18.2580667,1.7576 18.2528667,1.73622222 18.2473778,1.71513333 C18.2208,1.60882222 18.1945111,1.50684444 18.1693778,1.41324444 C18.1685111,1.4092 18.1673556,1.40573333 18.1664889,1.40197778 C18.1413556,1.30837778 18.1170889,1.22228889 18.0942667,1.14284444 C18.0922444,1.13591111 18.0902222,1.12868889 18.0882,1.12204444 C17.4283778,1.41411111 16.2546222,1.99044444 15.0852,2.82851111 C15.7404,4.12215556 16.2485556,5.61715556 16.2485556,7.14942222 C16.2485556,9.35537778 15.2004667,10.6906222 14.1367778,11.4784222 Z" id="Path"></path>
                                    <path d="M11.8181556,11.4105333 C12.4118222,11.2562667 15.1421111,10.3714 15.1421111,7.14971111 C15.1421111,4.11493333 12.7746667,1.09575556 11.8184444,-2.30926389e-14 C10.8622222,1.09691111 8.49362222,4.121 8.49362222,7.14971111 C8.49391111,10.3696667 11.2216,11.2556889 11.8181556,11.4105333 Z" id="Path"></path>
                                    <path d="M20.7459778,9.94008889 C20.8609556,9.82193333 20.9724667,9.70002222 21.0790667,9.57348889 C21.0975556,9.55182222 21.1148889,9.529 21.1330889,9.50704444 C21.2301556,9.38888889 21.3240444,9.26784444 21.4141778,9.14391111 C21.4294889,9.12311111 21.4453778,9.1026 21.4604,9.08151111 C21.5574667,8.94573333 21.6499111,8.80648889 21.7388889,8.66522222 C21.7585333,8.63431111 21.7776,8.60311111 21.7966667,8.57191111 C21.8850667,8.42775556 21.9711556,8.28186667 22.0520444,8.13395556 C22.0543556,8.12962222 22.0566667,8.12528889 22.0589778,8.12095556 C22.1387111,7.97448889 22.2138222,7.82628889 22.2863333,7.67751111 C22.3016444,7.64602222 22.3172444,7.61424444 22.3322667,7.58246667 C22.4024667,7.43484444 22.4700667,7.28635556 22.5336222,7.13786667 C22.5454667,7.11013333 22.5567333,7.08268889 22.5682889,7.05495556 C22.6257778,6.91802222 22.6809556,6.78108889 22.7332444,6.64502222 C22.7419111,6.62277778 22.7508667,6.60053333 22.7592444,6.57828889 C22.8152889,6.42951111 22.8678667,6.2816 22.9181333,6.13513333 C22.9294,6.10248889 22.9400889,6.07013333 22.9510667,6.03777778 C23.0001778,5.89102222 23.0472667,5.74513333 23.0906,5.60242222 C23.0932,5.59375556 23.0955111,5.58537778 23.0981111,5.57671111 C23.1397111,5.43833333 23.1784222,5.30284444 23.2151111,5.16966667 C23.2229111,5.14106667 23.231,5.11217778 23.2385111,5.08386667 C23.2746222,4.94982222 23.3084222,4.81837778 23.3396222,4.69126667 C23.3456889,4.667 23.3511778,4.64331111 23.3569556,4.61933333 C23.3852667,4.50175556 23.4118444,4.38706667 23.4361111,4.27671111 C23.4392889,4.26197778 23.4430444,4.24637778 23.4462222,4.23164444 C23.4722222,4.11262222 23.4953333,3.9988 23.517,3.88988889 C23.5216222,3.86677778 23.5259556,3.84395556 23.5305778,3.82113333 C23.5510889,3.71482222 23.5704444,3.61197778 23.5869111,3.51751111 C23.5877778,3.51231111 23.5886444,3.50768889 23.5895111,3.50248889 C23.6059778,3.40888889 23.6201333,3.32251111 23.6328444,3.2422 C23.634,3.2344 23.6354444,3.22631111 23.6366,3.21851111 C22.8381111,3.20348889 21.3217333,3.23555556 19.7348667,3.58915556 C19.9656889,5.38344444 19.9602,7.59546667 19.0834222,9.47526667 C18.6099333,10.491 17.9189111,11.1904 17.1475778,11.6682222 C18.2875333,11.4868 19.4156444,11.1005556 20.2964667,10.3612889 C20.4264667,10.2520889 20.5501111,10.1356667 20.6708667,10.0157778 C20.6957111,9.99035556 20.7211333,9.96551111 20.7459778,9.94008889 Z" id="Path"></path>
                                    <path d="M4.55317778,9.47497778 C3.67668889,7.59517778 3.67091111,5.38344444 3.90173333,3.58915556 C2.31197778,3.23411111 0.799066667,3.20088889 -1.5202654e-13,3.21822222 C0.00173333333,3.22891111 0.00346666667,3.24017778 0.0052,3.25115556 C0.0167555556,3.3228 0.0294666667,3.39993333 0.0436222222,3.48197778 C0.0462222222,3.49584444 0.0479555556,3.50855556 0.0505555556,3.523 C0.0667333333,3.614 0.0852222222,3.7128 0.104866667,3.81477778 C0.110066667,3.84106667 0.114977778,3.86764444 0.120466667,3.8948 C0.141555556,4.00082222 0.164088889,4.11088889 0.189222222,4.22644444 C0.193555556,4.24637778 0.198466667,4.26746667 0.2028,4.28768889 C0.225911111,4.39197778 0.251044444,4.50002222 0.277622222,4.61095556 C0.284266667,4.63868889 0.290622222,4.66613333 0.297555556,4.69444444 C0.328177778,4.81953333 0.3614,4.94866667 0.396933333,5.08068889 C0.405311111,5.11131111 0.413977778,5.14251111 0.422355556,5.17313333 C0.457888889,5.30255556 0.495444444,5.43428889 0.535888889,5.56833333 C0.539355556,5.58017778 0.542822222,5.59202222 0.546288889,5.60386667 C0.589044444,5.74513333 0.635844444,5.889 0.684088889,6.03402222 C0.695644444,6.0684 0.7072,6.10277778 0.718755556,6.13715556 C0.768444444,6.28275556 0.820733333,6.42922222 0.876488889,6.57713333 C0.885155556,6.60024444 0.894688889,6.62364444 0.903644444,6.64704444 C0.955355556,6.78224444 1.00995556,6.91773333 1.06715556,7.05351111 C1.079,7.08182222 1.09055556,7.11013333 1.10268889,7.13844444 C1.16624444,7.28635556 1.23326667,7.43426667 1.30346667,7.5816 C1.31877778,7.61424444 1.33495556,7.6466 1.35084444,7.67895556 C1.42248889,7.826 1.49673333,7.97246667 1.57531111,8.1172 C1.57848889,8.12297778 1.58137778,8.12904444 1.58455556,8.13511111 C1.66515556,8.28244444 1.75066667,8.42746667 1.83877778,8.57104444 C1.85842222,8.60282222 1.87777778,8.63488889 1.898,8.66637778 C1.98668889,8.80706667 2.07884444,8.94573333 2.17533333,9.08093333 C2.19093333,9.10288889 2.2074,9.12397778 2.22328889,9.14564444 C2.31313333,9.269 2.40615556,9.38917778 2.50293333,9.50675556 C2.52113333,9.529 2.53904444,9.55182222 2.55753333,9.57377778 C2.66413333,9.70031111 2.77535556,9.82222222 2.89033333,9.94008889 C2.91517778,9.9658 2.94088889,9.99064444 2.96631111,10.0157778 C3.08677778,10.1353778 3.21042222,10.2520889 3.34042222,10.361 C4.22355556,11.102 5.35282222,11.4891111 6.49335556,11.6702444 C5.72,11.1924222 5.02782222,10.4924444 4.55317778,9.47497778 Z" id="Path"></path>
                                    <path d="M5.53597778,1.16364444 C5.51748889,1.22835556 5.49813333,1.29768889 5.4782,1.37164444 C5.47357778,1.3884 5.46924444,1.40371111 5.46462222,1.42104444 C5.44122222,1.50828889 5.41666667,1.60362222 5.39211111,1.70213333 C5.38488889,1.73102222 5.37766667,1.7602 5.37044444,1.78995556 C5.34502222,1.89366667 5.31931111,2.00142222 5.2936,2.11553333 C5.28897778,2.13575556 5.28435556,2.15771111 5.27973333,2.17822222 C5.25662222,2.28193333 5.2338,2.38968889 5.21126667,2.50062222 C5.20548889,2.52922222 5.19942222,2.55753333 5.19364444,2.58671111 C5.1688,2.71266667 5.14453333,2.84295556 5.12084444,2.97671111 C5.11535556,3.00848889 5.10986667,3.04113333 5.10437778,3.0732 C5.08184444,3.20522222 5.06046667,3.33984444 5.04024444,3.47822222 C5.03851111,3.49093333 5.03648889,3.50277778 5.03446667,3.51548889 C5.01366667,3.66137778 4.99488889,3.8116 4.97755556,3.96326667 C4.97351111,3.99937778 4.96917778,4.03548889 4.96542222,4.07188889 C4.94895556,4.22471111 4.93422222,4.37984444 4.92237778,4.53728889 C4.92064444,4.56155556 4.9192,4.58611111 4.91746667,4.61037778 C4.90735556,4.7554 4.89926667,4.90186667 4.89377778,5.04948889 C4.89262222,5.07982222 4.89088889,5.11015556 4.89002222,5.14048889 C4.88482222,5.30168889 4.88337778,5.46433333 4.88453333,5.62755556 C4.88482222,5.66337778 4.88568889,5.6992 4.88626667,5.73531111 C4.88915556,5.8994 4.89435556,6.06377778 4.90446667,6.22844444 C4.90475556,6.2348 4.90504444,6.24115556 4.90533333,6.24722222 C4.91602222,6.41506667 4.9322,6.58291111 4.95155556,6.75046667 C4.95588889,6.78744444 4.95993333,6.82413333 4.96455556,6.86111111 C4.98564444,7.02635556 5.0102,7.19102222 5.04082222,7.35482222 C5.04573333,7.38082222 5.05151111,7.40653333 5.05642222,7.43253333 C5.08588889,7.58275556 5.1194,7.73182222 5.15753333,7.87944444 C5.16475556,7.90688889 5.17111111,7.93491111 5.17833333,7.96235556 C5.22137778,8.12182222 5.27077778,8.27955556 5.32508889,8.43526667 C5.33693333,8.46906667 5.34964444,8.50286667 5.36206667,8.53637778 C5.42071111,8.69584444 5.4834,8.85357778 5.55504444,9.00726667 C6.36913333,10.7530222 8.0834,11.3235778 9.4978,11.4778444 C8.43411111,10.6897556 7.3866,9.3548 7.3866,7.15 C7.3866,5.61773333 7.89475556,4.12244444 8.54995556,2.82908889 C7.37793333,1.98871111 6.20591111,1.41353333 5.54695556,1.12204444 C5.54377778,1.13562222 5.54002222,1.14948889 5.53597778,1.16364444 Z" id="Path"></path>
                                </g>
                            </g>
                        </g>
                    </g>
                </g>
            </g>
        </g>
    </g>
</svg>