<?xml version="1.0" encoding="UTF-8"?>
<svg width="20px" height="23px" viewBox="0 0 20 23" version="1.1" xmlns="http://www.w3.org/2000/svg" xmlns:xlink="http://www.w3.org/1999/xlink">
    <!-- Generator: sketchtool 61.2 (101010) - https://sketch.com -->
    <title>B314DBB9-2812-47EE-9E19-32267D3D2616</title>
    <desc>Created with sketchtool.</desc>
    <g id="⛑-in-progress-screen" stroke="none" stroke-width="1" fill="none" fill-rule="evenodd">
        <g id="excel-uploade_12" transform="translate(-978.000000, -735.000000)">
            <g id="Group-2" transform="translate(160.000000, 128.000000)">
                <g id="Group-6" transform="translate(228.000000, 40.000000)">
                    <g id="reload" transform="translate(588.000000, 566.000000)">
                        <rect id="Rectangle" fill="#FFFFFF" opacity="0" x="0" y="0" width="24" height="24"></rect>
                        <path d="M21.85375,10.926875 C21.85375,15.7549934 18.3887264,19.7885031 13.8149829,20.6727685 L13.8149829,23.3481875 L6.54236369,19.1781077 L13.8149829,15.0080279 L13.8149829,17.4573242 C16.6481351,16.636861 18.7261901,14.0207615 18.7261901,10.9267707 C18.7261901,7.17766049 15.6759853,4.12745561 11.926875,4.12745561 C8.17776474,4.12745561 5.12755986,7.17766049 5.12755986,10.9267707 C5.12755986,11.9365556 5.34315299,12.9076629 5.76850113,13.8133 L2.93764245,15.1429299 C2.31546654,13.8181998 2,12.3997472 2,10.926875 C2,5.45322823 6.45333249,1 11.9269793,1 C17.400626,1 21.85375,5.45322823 21.85375,10.926875 Z" id="Path" fill="#0059B2"></path>
                    </g>
                </g>
            </g>
        </g>
    </g>
</svg>