<?xml version="1.0" encoding="UTF-8"?>
<svg width="12px" height="12px" viewBox="0 0 12 12" version="1.1" xmlns="http://www.w3.org/2000/svg" xmlns:xlink="http://www.w3.org/1999/xlink">
    <!-- Generator: sketchtool 55.1 (78136) - https://sketchapp.com -->
    <title>96B5B4B0-72AC-4B6D-8CCB-841485C7AC67</title>
    <desc>Created with sketchtool.</desc>
    <g id="ðŸ‚-on-boarding" stroke="none" stroke-width="1" fill="none" fill-rule="evenodd">
        <g id="01-BGV-Client-onboarding_organisation-details_B" transform="translate(-488.000000, -125.000000)" fill="#EE3942" fill-rule="nonzero">
            <g id="notification-bar" transform="translate(160.000000, 119.000000)">
                <g id="c-remove" transform="translate(328.000000, 6.000000)">
                    <path d="M6,0 C2.6862915,0 0,2.6862915 0,6 C0,9.3137085 2.6862915,12 6,12 C9.3137085,12 12,9.3137085 12,6 C11.9903886,2.69028083 9.30971917,0.00961135888 6,0 Z M8.475,7.768 L7.768,8.475 L6,6.707 L4.232,8.475 L3.525,7.768 L5.293,6 L3.525,4.232 L4.232,3.525 L6,5.293 L7.768,3.525 L8.475,4.232 L6.707,6 L8.475,7.768 Z" id="Shape"></path>
                </g>
            </g>
        </g>
    </g>
</svg>