<?xml version="1.0" encoding="UTF-8"?>
<svg width="49px" height="16px" viewBox="0 0 49 16" version="1.1" xmlns="http://www.w3.org/2000/svg" xmlns:xlink="http://www.w3.org/1999/xlink">
    <!-- Generator: sketchtool 57.1 (101010) - https://sketch.com -->
    <title>3C1DE67D-7DC8-4345-8232-0D4F38354BC9</title>
    <desc>Created with sketchtool.</desc>
    <g id="🤖-BGV-OPs" stroke="none" stroke-width="1" fill="none" fill-rule="evenodd">
        <g id="assets" transform="translate(-136.000000, -14.000000)" fill-rule="nonzero">
            <g id="frame-s-top-right" transform="translate(136.000000, 14.000000)">
                <path d="M2,0 L47,0 C48.1045695,-2.02906125e-16 49,0.8954305 49,2 L49,14 C49,15.1045695 48.1045695,16 47,16 L2,16 C0.8954305,16 1.3527075e-16,15.1045695 0,14 L0,2 C-3.57315355e-16,0.8954305 0.8954305,2.02906125e-16 2,0 Z" id="Rectangle" fill="#0059B2"></path>
                <path d="M6.53571429,6.69047619 C6.67857214,6.3095219 6.91468089,6.02381048 7.24404762,5.83333333 C7.57341435,5.64285619 7.94047417,5.54761905 8.3452381,5.54761905 L8.3452381,7.26190476 C7.87698179,7.20634893 7.45833518,7.30158607 7.08928571,7.54761905 C6.72023625,7.79365202 6.53571429,8.2023781 6.53571429,8.77380952 L6.53571429,11.6190476 L5,11.6190476 L5,5.66666667 L6.53571429,5.66666667 L6.53571429,6.69047619 Z M10.3095238,9.27380952 C10.515874,10.019845 11.0753923,10.3928571 11.9880952,10.3928571 C12.5753998,10.3928571 13.0198398,10.1944464 13.3214286,9.79761905 L14.5595238,10.5119048 C13.9722193,11.3611154 13.1071486,11.7857143 11.9642857,11.7857143 C10.9801538,11.7857143 10.1904762,11.4880982 9.5952381,10.8928571 C8.99999702,10.2976161 8.70238095,9.54762357 8.70238095,8.64285714 C8.70238095,7.74602726 8.99602881,6.99801887 9.58333333,6.39880952 C10.1706379,5.79960018 10.9245986,5.5 11.8452381,5.5 C12.7182583,5.5 13.4384892,5.80158429 14.0059524,6.4047619 C14.5734155,7.00793952 14.8571429,7.75396381 14.8571429,8.64285714 C14.8571429,8.84127083 14.8373018,9.05158619 14.797619,9.27380952 L10.3095238,9.27380952 Z M10.2857143,8.08333333 L13.3214286,8.08333333 C13.2341265,7.6785694 13.0535728,7.37698413 12.7797619,7.17857143 C12.505951,6.98015774 12.1944462,6.88095238 11.8452381,6.88095238 C11.4325376,6.88095238 11.0912712,6.98611006 10.8214286,7.19642857 C10.551586,7.40674708 10.3730163,7.70237905 10.2857143,8.08333333 Z M19.3928571,5.5 C20.1944485,5.5 20.8789654,5.80356839 21.4464286,6.41071429 C22.0138917,7.01786018 22.297619,7.76190036 22.297619,8.64285714 C22.297619,9.52381393 22.0138917,10.2678541 21.4464286,10.875 C20.8789654,11.4821459 20.1944485,11.7857143 19.3928571,11.7857143 C18.5595196,11.7857143 17.9166689,11.4960346 17.4642857,10.9166667 L17.4642857,14 L15.9285714,14 L15.9285714,5.66666667 L17.4642857,5.66666667 L17.4642857,6.36904762 C17.9166689,5.78967964 18.5595196,5.5 19.3928571,5.5 Z M17.9285714,9.85714286 C18.2380968,10.1666682 18.63095,10.3214286 19.1071429,10.3214286 C19.5833357,10.3214286 19.978173,10.1646841 20.2916667,9.85119048 C20.6051603,9.53769685 20.7619048,9.1349231 20.7619048,8.64285714 C20.7619048,8.15079119 20.6051603,7.74801744 20.2916667,7.43452381 C19.978173,7.12103018 19.5833357,6.96428571 19.1071429,6.96428571 C18.63095,6.96428571 18.2380968,7.12103018 17.9285714,7.43452381 C17.6190461,7.74801744 17.4642857,8.15079119 17.4642857,8.64285714 C17.4642857,9.1349231 17.6190461,9.53968095 17.9285714,9.85714286 Z M28.452381,10.8809524 C27.8412668,11.48413 27.0952425,11.7857143 26.2142857,11.7857143 C25.3333289,11.7857143 24.5892888,11.4821459 23.9821429,10.875 C23.374997,10.2678541 23.0714286,9.52381393 23.0714286,8.64285714 C23.0714286,7.76190036 23.374997,7.01786018 23.9821429,6.41071429 C24.5892888,5.80356839 25.3333289,5.5 26.2142857,5.5 C27.0952425,5.5 27.8412668,5.80356839 28.452381,6.41071429 C29.0634951,7.01786018 29.3690476,7.76190036 29.3690476,8.64285714 C29.3690476,9.52381393 29.0634951,10.2698382 28.452381,10.8809524 Z M25.0595238,9.82142857 C25.3690492,10.1309539 25.753966,10.2857143 26.2142857,10.2857143 C26.6746055,10.2857143 27.0595223,10.1309539 27.3690476,9.82142857 C27.678573,9.51190321 27.8333333,9.11905 27.8333333,8.64285714 C27.8333333,8.16666429 27.678573,7.77381107 27.3690476,7.46428571 C27.0595223,7.15476036 26.6746055,7 26.2142857,7 C25.753966,7 25.3710333,7.15476036 25.0654762,7.46428571 C24.7599191,7.77381107 24.6071429,8.16666429 24.6071429,8.64285714 C24.6071429,9.11905 24.757935,9.51190321 25.0595238,9.82142857 Z M31.9880952,6.69047619 C32.1309531,6.3095219 32.3670618,6.02381048 32.6964286,5.83333333 C33.0257953,5.64285619 33.3928551,5.54761905 33.797619,5.54761905 L33.797619,7.26190476 C33.3293627,7.20634893 32.9107161,7.30158607 32.5416667,7.54761905 C32.1726172,7.79365202 31.9880952,8.2023781 31.9880952,8.77380952 L31.9880952,11.6190476 L30.452381,11.6190476 L30.452381,5.66666667 L31.9880952,5.66666667 L31.9880952,6.69047619 Z M38.2619048,7.14285714 L36.9166667,7.14285714 L36.9166667,9.61904762 C36.9166667,9.82539786 36.9682535,9.97619 37.0714286,10.0714286 C37.1746037,10.1666671 37.3253958,10.220238 37.5238095,10.2321429 C37.7222232,10.2440477 37.9682525,10.2420636 38.2619048,10.2261905 L38.2619048,11.6190476 C37.2063439,11.7380958 36.4623038,11.6388905 36.0297619,11.3214286 C35.5972201,11.0039667 35.3809524,10.436512 35.3809524,9.61904762 L35.3809524,7.14285714 L34.3452381,7.14285714 L34.3452381,5.66666667 L35.3809524,5.66666667 L35.3809524,4.46428571 L36.9166667,4 L36.9166667,5.66666667 L38.2619048,5.66666667 L38.2619048,7.14285714 Z" id="report" fill="#FFFFFF"></path>
                <polygon id="Shape" fill="#FFFFFF" points="40.5286667 7.52866667 44.0573333 4 41 4 41 2.66666667 46.3333333 2.66666667 46.3333333 8 45 8 45 4.94266667 41.4713333 8.47133333"></polygon>
            </g>
        </g>
    </g>
</svg>