<?xml version="1.0" encoding="UTF-8"?>
<svg width="10px" height="13px" viewBox="0 0 10 13" version="1.1" xmlns="http://www.w3.org/2000/svg" xmlns:xlink="http://www.w3.org/1999/xlink">
    <!-- Generator: sketchtool 63.1 (101010) - https://sketch.com -->
    <title>4ADCFF3F-D6AA-4599-85B4-42158DD96771</title>
    <desc>Created with sketchtool.</desc>
    <g id="🖥-Ops_analyst-" stroke="none" stroke-width="1" fill="none" fill-rule="evenodd">
        <g id="profile-/-account-settings--4" transform="translate(-389.000000, -221.000000)">
            <g id="Group-6" transform="translate(160.000000, 64.000000)">
                <g id="details" transform="translate(226.000000, 32.000000)">
                    <g id="Group-5" transform="translate(0.000000, 67.000000)">
                        <g id="password" transform="translate(0.000000, 56.000000)">
                            <g id="Group-6" transform="translate(8.000000, 8.000000) scale(1, -1) translate(-8.000000, -8.000000) ">
                                <rect id="Rectangle" fill="#D8D8D8" opacity="0" x="0" y="0" width="15.0588235" height="15.0588235"></rect>
                                <g id="key" transform="translate(8.000000, 8.000000) rotate(-11.000000) translate(-8.000000, -8.000000) translate(2.823529, 2.823529)" stroke="#8297AA" stroke-linecap="round" stroke-linejoin="round" stroke-width="0.7">
                                    <path d="M8.24725823,0 L3.95254237,4.27716849 C2.63980964,3.92542206 1.2544873,4.49924071 0.57496642,5.67620467 C-0.104554461,6.85316863 0.091164384,8.33980239 1.05215158,9.30078959 C2.01313878,10.2617768 3.49977254,10.4574956 4.67673651,9.77797476 C5.85370047,9.09845388 6.42751911,7.71313154 6.07577268,6.4003988 L6.84346959,5.61515454 L6.84346959,4.2113659 L8.24725823,4.2113659 L8.24725823,2.80757727 L9.65104686,2.80757727 L10.3529412,2.10568295 L10.3529412,0 L8.24725823,0 Z" id="Path"></path>
                                    <circle id="Oval" cx="2.89531406" cy="7.45762712" r="1"></circle>
                                </g>
                            </g>
                        </g>
                    </g>
                </g>
            </g>
        </g>
    </g>
</svg>