<?xml version="1.0" encoding="UTF-8"?>
<svg width="31px" height="30px" viewBox="0 0 31 30" version="1.1" xmlns="http://www.w3.org/2000/svg" xmlns:xlink="http://www.w3.org/1999/xlink">
    <title>refresh</title>
    <g id="inprogress" stroke="none" stroke-width="1" fill="none" fill-rule="evenodd">
        <g id="roster_07A" transform="translate(-1077.000000, -180.000000)" fill="#A84567">
            <g id="table-header" transform="translate(160.000000, 112.000000)">
                <g id="publish" transform="translate(833.000000, 68.000000)">
                    <g id="refresh" transform="translate(84.000000, 0.000000)">
                        <path d="M0,0 L16,0 C24.2842712,-1.52179594e-15 31,6.71572875 31,15 C31,23.2842712 24.2842712,30 16,30 L0,30 L0,30 L0,0 Z" id="Rectangle" opacity="0.100000001"></path>
                        <g id="ic_refresh_48px" transform="translate(16.000000, 15.000000) scale(-1, 1) translate(-16.000000, -15.000000) translate(9.000000, 8.000000)">
                            <g id="Group" transform="translate(0.263529, 0.263529)">
                                <path d="M10.7915294,1.85788235 C9.64912941,0.711529412 8.07190588,0 6.32470588,0 C2.83030588,0 0.00790588235,2.83030588 0.00790588235,6.32470588 C0.00790588235,9.81910588 2.83030588,12.6494118 6.32470588,12.6494118 C9.26964706,12.6494118 11.7362824,10.6334118 12.4359529,7.90588235 L10.7915294,7.90588235 C10.1392941,9.74795294 8.39209412,11.0682353 6.32470588,11.0682353 C3.70390588,11.0682353 1.58117647,8.94550588 1.58117647,6.32470588 C1.58117647,3.70390588 3.70390588,1.58117647 6.32470588,1.58117647 C7.63312941,1.58117647 8.80715294,2.12668235 9.66494118,2.98447059 L7.11529412,5.53411765 L12.6494118,5.53411765 L12.6494118,0 L10.7915294,1.85788235 Z" id="Path"></path>
                            </g>
                        </g>
                    </g>
                </g>
            </g>
        </g>
    </g>
</svg>