<?xml version="1.0" encoding="UTF-8"?>
<svg width="16px" height="16px" viewBox="0 0 16 16" version="1.1" xmlns="http://www.w3.org/2000/svg" xmlns:xlink="http://www.w3.org/1999/xlink">
    <title>A7C3979A-EB86-424A-9BAA-5438FC75F0E0</title>
    <defs>
        <path d="M6,1.33333333 C7.1045695,1.33333333 8,2.22876383 8,3.33333333 L8,4.21233333 L14,4.21333333 C15.1045695,4.21333333 16,5.10876383 16,6.21333333 L16,12.9333333 C16,14.0379028 15.1045695,14.9333333 14,14.9333333 L2,14.9333333 C0.8954305,14.9333333 1.3527075e-16,14.0379028 0,12.9333333 L0,6.21333333 C-1.67691013e-17,6.07640323 0.0137607993,5.94268713 0.0399749443,5.8134925 C0.013831458,5.68466524 -1.07846717e-17,5.55061454 0,5.41333333 L0,3.33333333 C-3.57315355e-16,2.22876383 0.8954305,1.33333333 2,1.33333333 L6,1.33333333 Z" id="path-1"></path>
    </defs>
    <g id="ðŸ­-vendor-management" stroke="none" stroke-width="1" fill="none" fill-rule="evenodd">
        <g id="JLL-vendor-list-page---with-awaiting-approval-&amp;-all-vendors-list-with-pagination_01" transform="translate(-321.000000, -277.000000)">
            <g id="Group-16" transform="translate(160.000000, 188.000000)">
                <g id="Group-8" transform="translate(0.000000, 56.000000)">
                    <g id="Group-7" transform="translate(64.000000, 0.000000)">
                        <g id="icon-/-24-/-info-/-folder-copy" transform="translate(97.000000, 33.000000)">
                            <rect id="Rectangle" x="0" y="0" width="16" height="16"></rect>
                            <rect id="Rectangle-6" fill="#000000" opacity="0.600000024" style="mix-blend-mode: multiply;" x="0.96" y="2.93333333" width="13.28" height="7.04" rx="1"></rect>
                            <mask id="mask-2" fill="white">
                                <use xlink:href="#path-1"></use>
                            </mask>
                            <use id="Combined-Shape" fill="#6A54CD" xlink:href="#path-1"></use>
                            <rect id="Rectangle" fill="#976CA7" mask="url(#mask-2)" x="0" y="0" width="16" height="16"></rect>
                            <path d="M9.28969697,9.89163636 C8.89284848,9.75757576 8.6889697,9.4649697 8.58545455,9.22909091 C9.15709091,8.88630303 9.45454545,8.07272727 9.45454545,7.45454545 C9.45454545,6.65115152 8.80339394,6 8,6 C7.19660606,6 6.54545455,6.65115152 6.54545455,7.45454545 C6.54545455,8.07321212 6.84315152,8.88727273 7.41551515,9.22957576 C7.31248485,9.46739394 7.10909091,9.76218182 6.71321212,9.89066667 C6.0150303,10.1168485 5.33333333,10.1907879 5.33333333,11.3333333 L5.33333333,11.8181818 L10.6666667,11.8181818 L10.6666667,11.3333333 C10.6666667,10.2077576 10.0152727,10.1367273 9.28969697,9.89163636 Z" id="Path" fill="#000000" opacity="0.200000003" mask="url(#mask-2)"></path>
                        </g>
                    </g>
                </g>
            </g>
        </g>
    </g>
</svg>