<?xml version="1.0" encoding="UTF-8"?>
<svg width="32px" height="32px" viewBox="0 0 32 32" version="1.1" xmlns="http://www.w3.org/2000/svg" xmlns:xlink="http://www.w3.org/1999/xlink">
    <title>1AF2F1F3-07D2-4993-8984-40939C1DB8B2</title>
    <g id="attendance-configuration" stroke="none" stroke-width="1" fill="none" fill-rule="evenodd">
        <g id="orglevel_configuration_01-copy" transform="translate(-200.000000, -358.000000)">
            <g id="ID-verification" transform="translate(200.000000, 152.000000)">
                <g id="field/-configuration/-org_level" transform="translate(0.000000, 201.000000)">
                    <g id="icon-/-32-/-info-/-overtime" transform="translate(0.000000, 5.000000)">
                        <circle id="Oval" fill="#E5EEF7" cx="16" cy="16" r="16"></circle>
                        <g id="icon-/-48-/-info-/-verification-/-voter" transform="translate(10.000000, 6.000000)" fill="#0059B2" fill-rule="nonzero">
                            <g id="Rectangle" transform="translate(0.076087, 0.326087)">
                                <g id="Mask" transform="translate(0.423913, 0.173913)">
                                    <path d="M4.86151603,9.57905138 C2.14577259,10.2371542 0.0670553936,13.9664032 0,18.5 L11.5,18.5 C11.4329446,13.9664032 9.35422741,10.2371542 6.63848397,9.57905138 C6.50437318,9.54249012 6.40379009,9.39624506 6.40379009,9.25 C6.40379009,9.10375494 6.50437318,8.95750988 6.63848397,8.92094862 C9.35422741,8.26284585 11.4329446,4.53359684 11.5,0 L0,0 C0.0670553936,4.53359684 2.14577259,8.26284585 4.86151603,8.92094862 C4.99562682,8.95750988 5.09620991,9.10375494 5.09620991,9.25 L5.09620991,9.25 C5.09620991,9.39624506 4.99562682,9.54249012 4.86151603,9.57905138 Z M5.53206997,12.1383399 L5.53206997,8.77470356 C5.53206997,8.70158103 5.46501458,8.6284585 5.39795918,8.6284585 C4.79446064,8.55533597 3.62099125,8.006917 3.25218659,7.60474308 L8.14723032,7.60474308 C7.77842566,8.006917 6.63848397,8.55533597 6.00145773,8.6284585 C5.93440233,8.6284585 5.86734694,8.70158103 5.86734694,8.77470356 L5.86734694,12.1383399 C5.86734694,12.2480237 5.96793003,12.3577075 6.06851312,12.3577075 C8.61661808,12.5039526 10.7959184,15.5750988 10.8629738,17.6956522 L0.536443149,17.6956522 C0.603498542,15.5750988 2.78279883,12.5039526 5.33090379,12.3577075 C5.46501458,12.3211462 5.53206997,12.2480237 5.53206997,12.1383399 Z" id="Shape"></path>
                                </g>
                            </g>
                        </g>
                    </g>
                </g>
            </g>
        </g>
    </g>
</svg>