<?xml version="1.0" encoding="UTF-8"?>
<svg width="32px" height="43px" viewBox="0 0 32 43" version="1.1" xmlns="http://www.w3.org/2000/svg" xmlns:xlink="http://www.w3.org/1999/xlink">
    <!-- Generator: Sketch 62 (91390) - https://sketch.com -->
    <title>scanning</title>
    <desc>Created with Sketch.</desc>
    <g id="📤-excel-uploade" stroke="none" stroke-width="1" fill="none" fill-rule="evenodd">
        <g id="excel-uploade_updated_02" transform="translate(-236.000000, -443.000000)">
            <g id="scanning" transform="translate(252.000000, 464.000000) scale(-1, 1) translate(-252.000000, -464.000000) translate(228.000000, 440.000000)">
                <rect id="Rectangle" fill="#D8D8D8" opacity="0" x="0" y="0" width="48" height="48"></rect>
                <g id="noun_searching_1835245" transform="translate(8.000000, 3.000000)" fill="#0059B2">
                    <g id="Group">
                        <path d="M6.60150376,7.72932331 C7.80451128,7.72932331 7.80451128,7.72932331 7.80451128,6.52631579 L7.80451128,1.86694737 L1.89377444,7.72932331 L6.60150376,7.72932331 Z" id="Path"></path>
                        <path d="M28.349594,0.0599690521 L10.2105263,0.0599690521 L10.2105263,6.52631579 C10.2105263,10.1353383 10.2105263,10.1353383 6.60150376,10.1353383 L0.0413834586,10.1353383 L0.0413834586,39.1578947 C0.0413834586,42.7669173 0.0413834586,42.7669173 3.65040602,42.7669173 L28.349594,42.7669173 C31.9586165,42.7669173 31.9586165,42.7669173 31.9586165,39.1578947 L31.9586165,3.66917293 C31.9586165,-7.92932317e-11 31.9586165,0.0599690521 28.349594,0.0599690521 Z M7.14941353,33.5724511 C7.3843609,33.8072782 7.69221053,33.924812 8.00006015,33.924812 C8.30790977,33.924812 8.6158797,33.8072782 8.85070677,33.5724511 L12.7891128,29.6340451 C14.0810226,30.5798496 15.6722406,31.1400902 17.3924211,31.1400902 C21.699188,31.1400902 25.2030677,27.6362105 25.2030677,23.3293233 C25.2030677,19.0225564 21.699188,15.5186767 17.3924211,15.5186767 C13.0856541,15.5186767 9.58177444,19.0225564 9.58177444,23.3293233 C9.58177444,25.0495038 10.142015,26.6407218 11.0878195,27.9326316 L7.14941353,31.8710376 C6.6795188,32.3409323 6.6795188,33.1026767 7.14941353,33.5724511 Z" id="Shape"></path>
                        <path d="M17.5953684,18 C14.6152782,18 12.1907368,20.4244211 12.1907368,23.4046316 C12.1907368,26.3848421 14.6152782,28.8093835 17.5953684,28.8093835 C20.5754586,28.8093835 23,26.3848421 23,23.4046316 C23,20.4244211 20.5755789,18 17.5953684,18 Z" id="Path"></path>
                    </g>
                </g>
            </g>
        </g>
    </g>
</svg>