<?xml version="1.0" encoding="UTF-8"?>
<svg width="12px" height="14px" viewBox="0 0 12 14" version="1.1" xmlns="http://www.w3.org/2000/svg" xmlns:xlink="http://www.w3.org/1999/xlink">
    <!-- Generator: Sketch 61 (89581) - https://sketch.com -->
    <title>icon / 16 / info / security guard</title>
    <desc>Created with Sketch.</desc>
    <defs>
        <path d="M13.2063636,10.04124 L10.64,8.49433093 C11.4528077,7.44869234 11.8700869,6.14952445 11.8181818,4.82614911 L11.8181818,2.09887638 C11.8182782,1.89213495 11.7014827,1.70310797 11.5165455,1.61069456 C10.400791,1.1611946 9.20175895,0.955683438 8,1.00796729 C6.79824105,0.955683438 5.59920898,1.1611946 4.48345455,1.61069456 C4.29851728,1.70310797 4.18172184,1.89213495 4.18181818,2.09887638 L4.18181818,4.82614911 C4.12991308,6.14952445 4.54719229,7.44869234 5.36,8.49433093 L2.79636364,10.04124 C2.30256644,10.3372422 2.0002686,10.8706115 2,11.4463309 L2,13.5534218 C2,13.8546681 2.24420832,14.0988764 2.54545455,14.0988764 L7.45454545,14.0988764 L7.45454545,11.9170582 C7.45454545,11.615812 7.69875377,11.3716037 8,11.3716037 C8.30124623,11.3716037 8.54545455,11.615812 8.54545455,11.9170582 L8.54545455,14.0988764 L13.4545455,14.0988764 C13.7557917,14.0988764 14,13.8546681 14,13.5534218 L14,11.4436037 C13.9984909,10.8696336 13.6976444,10.3380347 13.2063636,10.04124 Z M8,8.64433093 C6.39418182,8.64433093 5.27272727,7.07396729 5.27272727,4.82614911 L5.27272727,4.65651274 C6.15618365,4.38762066 7.07674433,4.26076739 8,4.28069456 C8.92321964,4.26071083 9.84376083,4.3873773 10.7272727,4.65596729 L10.7272727,4.82614911 C10.7272727,7.07396729 9.60581818,8.64433093 8,8.64433093 Z M10.1818182,12.4625127 C9.88057195,12.4625127 9.63636364,12.2183044 9.63636364,11.9170582 C9.63636364,11.615812 9.88057195,11.3716037 10.1818182,11.3716037 C10.4830644,11.3716037 10.7272727,11.615812 10.7272727,11.9170582 C10.7272727,12.2183044 10.4830644,12.4625127 10.1818182,12.4625127 Z" id="path-1"></path>
    </defs>
    <g id="📮-email-template-notification-for-web-and-mobile" stroke="none" stroke-width="1" fill="none" fill-rule="evenodd">
        <g id="employment-verification_wesite" transform="translate(-371.000000, -414.000000)">
            <g id="profile/-header" transform="translate(265.000000, 351.000000)">
                <g id="Group-2" transform="translate(16.000000, 24.000000)">
                    <g id="name" transform="translate(88.000000, 0.000000)">
                        <g id="company" transform="translate(0.000000, 38.000000)">
                            <g id="icon-/-16-/-info-/-security-guard">
                                <mask id="mask-2" fill="white">
                                    <use xlink:href="#path-1"></use>
                                </mask>
                                <use id="Shape" fill="#8697A8" fill-rule="nonzero" xlink:href="#path-1"></use>
                                <rect id="Rectangle" fill="#8697A8" fill-rule="evenodd" mask="url(#mask-2)" x="0" y="0" width="16" height="16"></rect>
                            </g>
                        </g>
                    </g>
                </g>
            </g>
        </g>
    </g>
</svg>