<?xml version="1.0" encoding="UTF-8"?>
<svg width="24px" height="24px" viewBox="0 0 24 24" version="1.1" xmlns="http://www.w3.org/2000/svg" xmlns:xlink="http://www.w3.org/1999/xlink">
    <title>Group 46</title>
    <defs>
        <path d="M0,12 L0,9.65435294 C0.000691094137,9.36628416 0.160730632,9.10757877 0.404357143,9.00070588 L0.404357143,9.00070588 L2.80992857,7.94188235 C3.05398959,7.83481776 3.21411936,7.57540743 3.21428571,7.28682353 L3.21428571,7.28682353 L3.21428571,6.66705882 C2.42073418,6.16701271 1.93057021,5.23993005 1.92857143,4.23529412 L1.92857143,4.23529412 L1.92857143,2.82352941 C1.92857143,1.26413718 3.07983921,0 4.5,0 C4.97229176,0 5.4148446,0.139810538 5.79520426,0.383795569 C6.70746293,-0.133965401 7.82508311,-0.128200698 8.73397551,0.402074179 C9.65274718,0.938112914 10.2186129,1.92867006 10.2183746,3.00040428 L10.2183746,3.00040428 L10.2183731,4.20166109 C10.216325,5.14881451 9.77080158,6.03114607 9.03062301,6.58968098 L9.03062301,6.58968098 L9.0312626,6.79271229 L11.2529049,7.69241374 C11.7038349,7.87441537 11.9996925,8.31539312 12,8.80634347 L12,8.80634347 L12,12 L0,12 Z M8.13998486,1.4411906 C7.68704841,1.17693399 7.14771894,1.12977361 6.66394352,1.29971751 C6.9220876,1.73855302 7.07142857,2.26189116 7.07142857,2.82352941 L7.07142857,2.82352941 L7.07142857,4.23529412 C7.06942979,5.23993005 6.57926582,6.16701271 5.78571429,6.66705882 L5.78571429,6.66705882 L5.78571429,7.28682353 C5.78640538,7.57489231 5.94644492,7.8335977 6.19007143,7.94047059 L6.19007143,7.94047059 L8.59564286,8.99929412 C8.83970388,9.10635871 8.99983365,9.36576904 9,9.65435294 L9,9.65435294 L8.99930891,10.8 L10.8122497,10.8000539 L10.8122498,8.80672322 L8.58997097,7.90676443 C8.13984381,7.72508868 7.84415291,7.28530927 7.84287398,6.79403386 L7.84287398,6.79403386 L7.84287398,5.91981794 L8.14115523,5.74688425 C8.6901424,5.42859948 9.02924291,4.83850132 9.03062427,4.20035038 L9.03062427,4.20035038 L9.03062429,3.00026952 C9.03076727,2.35714813 8.69124786,1.76281384 8.13998486,1.4411906 Z" id="path-1"></path>
    </defs>
    <g id="🎭-all-employees_OA" stroke="none" stroke-width="1" fill="none" fill-rule="evenodd">
        <g id="initiate-BGV-updated-flow-for-different-different-vendor_03" transform="translate(-535.000000, -427.000000)">
            <g id="Group-6" transform="translate(304.000000, 172.000000)">
                <g id="Group-47" transform="translate(64.000000, 255.000000)">
                    <g id="Group-46" transform="translate(167.000000, 0.000000)">
                        <circle id="Oval" fill="#E5EEF7" cx="12" cy="12" r="12"></circle>
                        <g id="icon-/-16-/-info-/-users" transform="translate(6.000000, 6.000000)">
                            <mask id="mask-2" fill="white">
                                <use xlink:href="#path-1"></use>
                            </mask>
                            <use id="Combined-Shape" fill="#000000" fill-rule="nonzero" xlink:href="#path-1"></use>
                            <rect id="Rectangle" fill="#0059B2" mask="url(#mask-2)" x="0" y="0" width="12" height="12"></rect>
                        </g>
                    </g>
                </g>
            </g>
        </g>
    </g>
</svg>