<?xml version="1.0" encoding="UTF-8"?>
<svg width="40px" height="40px" viewBox="0 0 40 40" version="1.1" xmlns="http://www.w3.org/2000/svg" xmlns:xlink="http://www.w3.org/1999/xlink">
    <title>90FF0177-D17F-4B04-ACB3-39117270218C</title>
    <defs>
        <rect id="path-1" x="0" y="0" width="40" height="40" rx="19.5"></rect>
    </defs>
    <g id="⚙️-configuration" stroke="none" stroke-width="1" fill="none" fill-rule="evenodd">
        <g id="configuration_01" transform="translate(-136.000000, -64.000000)">
            <g id="personal-details" transform="translate(136.000000, 64.000000)">
                <g id="icon-/-40-/-info-/-container">
                    <mask id="mask-2" fill="white">
                        <use xlink:href="#path-1"></use>
                    </mask>
                    <use fill="#9F68AB" xlink:href="#path-1"></use>
                </g>
                <g id="Group" transform="translate(11.000000, 11.000000)" fill="#FFFFFF">
                    <path d="M17.496,7.1388 L16.8918171,7.1388 L16.8918171,10.7583429 L17.496,10.7583429 C17.7135313,10.74894 17.88774,10.5747313 17.8971429,10.3572 L17.8971429,7.54086857 C17.88774,7.32333725 17.7135313,7.14912852 17.496,7.13972571" id="Path" fill-rule="nonzero"></path>
                    <path d="M17.496,11.16072 L16.8918171,11.16072 L16.8918171,14.7805714 L17.496,14.7805714 C17.7135313,14.7711686 17.88774,14.5969599 17.8971429,14.3794286 L17.8971429,11.5627886 C17.8878845,11.3451938 17.7135948,11.1709041 17.496,11.1616457" id="Path" fill-rule="nonzero"></path>
                    <path d="M17.496,3.11657143 L16.48944,3.11657143 L16.48944,2.50220571 C16.48944,2.29237714 16.2364114,2.11155429 16.22808,2.11155429 L10.8589371,2.11155429 L10.8589371,4.12251429 L14.8808571,4.12251429 L14.8808571,4.92665143 L10.8589371,4.92665143 L10.8589371,5.93228571 L14.8808571,5.93228571 L14.8808571,6.73642286 L10.8589371,6.73642286 L10.8589371,7.74205714 L14.8808571,7.74205714 L14.8808571,8.54742857 L10.8589371,8.54742857 L10.8589371,9.55275429 L14.8808571,9.55275429 L14.8808571,10.3572 L10.8589371,10.3572 L10.8589371,11.3616 L14.8808571,11.3616 L14.8808571,12.1660457 L10.8589371,12.1660457 L10.8589371,13.1713714 L14.8808571,13.1713714 L14.8808571,13.9758171 L10.8589371,13.9758171 L10.8589371,15.7855886 L16.0873714,15.7855886 C16.3031495,15.7817365 16.478776,15.6108384 16.4885143,15.3952457 L16.4885143,6.73642286 L17.496,6.73642286 C17.7135948,6.72716447 17.8878845,6.5528748 17.8971429,6.33528 L17.8971429,3.51339429 C17.8880327,3.29645705 17.7130232,3.12333222 17.496,3.11657143" id="Path"></path>
                    <path d="M9.45686857,0.284047208 C10.0091533,0.284047208 10.4568686,0.731762458 10.4568686,1.28404721 L10.4568686,1.28404721 L10.4568686,16.6130956 C10.4568686,16.6690102 10.4521789,16.7248263 10.4428489,16.779957 C10.350694,17.3244989 9.83454914,17.691231 9.29000722,17.599076 L9.29000722,17.599076 L0.83313865,16.1678868 C0.352083548,16.0864759 2.81794536e-16,15.6698016 0,15.1819064 L0,15.1819064 L0,2.71523646 C-8.31530443e-16,2.22734124 0.352083548,1.81066694 0.83313865,1.72925609 L0.83313865,1.72925609 L9.29000722,0.298066838 C9.34513791,0.288736854 9.40095399,0.284047208 9.45686857,0.284047208 Z M5.43805714,5.55428571 L2.86457143,5.55428571 L2.86457143,12.0342857 L5.43805714,12.0342857 C7.22468571,12.0342857 8.55771429,10.6179429 8.55771429,8.79428571 C8.55771429,6.97062857 7.22468571,5.55428571 5.43805714,5.55428571 Z M5.43805714,6.77622857 C6.55817143,6.77622857 7.33577143,7.60011429 7.33577143,8.79428571 C7.33577143,9.98845714 6.55817143,10.8123429 5.43805714,10.8123429 L4.14205714,10.8123429 L4.14205714,6.77622857 L5.43805714,6.77622857 Z" id="Shape" fill-rule="nonzero"></path>
                </g>
            </g>
        </g>
    </g>
</svg>