<?xml version="1.0" encoding="UTF-8"?>
<svg width="24px" height="13px" viewBox="0 0 24 13" version="1.1" xmlns="http://www.w3.org/2000/svg" xmlns:xlink="http://www.w3.org/1999/xlink">
    <!-- Generator: sketchtool 60.1 (101010) - https://sketch.com -->
    <title>BDC1102B-1CDC-4BFD-ABB6-F8947DD121BD</title>
    <desc>Created with sketchtool.</desc>
    <g id="🖥-Ops_analyst-" stroke="none" stroke-width="1" fill="none" fill-rule="evenodd">
        <g id="employment-verification_02" transform="translate(-514.000000, -340.000000)">
            <g id="case-1" transform="translate(160.000000, 144.000000)">
                <g id="hr-name-copy" transform="translate(40.000000, 188.000000)">
                    <g id="email_icon" transform="translate(314.000000, 2.000000)">
                        <rect id="Rectangle" fill="#D8D8D8" opacity="0" x="0" y="0" width="24" height="24"></rect>
                        <g id="noun_Email_953533" transform="translate(0.000000, 6.000000)" fill="#0059B2">
                            <g id="Group">
                                <path d="M23.0597419,0.150580645 L7.91845161,0.150580645 C7.54180645,0.150580645 7.2363871,0.456 7.2363871,0.832645161 L5.7963871,11.5544516 C5.7963871,11.9310968 6.10180645,12.2365161 6.47845161,12.2365161 L21.620129,12.2365161 C21.9967742,12.2365161 22.3021935,11.9310968 22.3021935,11.5544516 L23.7421935,0.832645161 C23.7418065,0.456 23.4363871,0.150580645 23.0597419,0.150580645 Z M20.9380645,9.90774194 L17.4390968,5.68877419 L22.3780645,2.36167742 L20.9380645,9.90774194 Z M21.2489032,1.51470968 L14.7762581,6.05148387 L9.93058065,1.51470968 L21.2489032,1.51470968 L21.2489032,1.51470968 Z M8.60051613,2.19058065 L12.1323871,5.65625806 L7.16051613,9.90774194 L8.60051613,2.19058065 Z M13.1949677,6.52258065 L14.3380645,7.45432258 C14.4634839,7.55651613 14.616,7.6076129 14.7689032,7.6076129 C14.9179355,7.6076129 15.0673548,7.55883871 15.1912258,7.46129032 L16.359871,6.5396129 L19.9730323,10.8727742 L8.12516129,10.8727742 L13.1949677,6.52258065 Z" id="Shape"></path>
                                <g id="Path">
                                    <path d="M5.43251613,1.23058065 L0.798193548,1.23058065 C0.500129032,1.23058065 0.258193548,0.988645161 0.258193548,0.690580645 L0.258193548,0.690580645 C0.258193548,0.392516129 0.500129032,0.150580645 0.798193548,0.150580645 L5.43251613,0.150580645 C5.73058065,0.150580645 5.97251613,0.392516129 5.97251613,0.690580645 L5.97251613,0.690580645 C5.97251613,0.988645161 5.73058065,1.23058065 5.43251613,1.23058065 Z"></path>
                                    <path d="M5.19251613,3.21058065 L1.99780645,3.21058065 C1.69974194,3.21058065 1.45780645,2.96864516 1.45780645,2.67058065 L1.45780645,2.67058065 C1.45780645,2.37251613 1.69974194,2.13058065 1.99780645,2.13058065 L5.19251613,2.13058065 C5.49058065,2.13058065 5.73251613,2.37251613 5.73251613,2.67058065 L5.73251613,2.67058065 C5.73251613,2.96864516 5.49058065,3.21058065 5.19251613,3.21058065 Z"></path>
                                    <path d="M4.86619355,5.19019355 L3.11148387,5.19019355 C2.81341935,5.19019355 2.57148387,4.94825806 2.57148387,4.65019355 L2.57148387,4.65019355 C2.57148387,4.35212903 2.81341935,4.11019355 3.11148387,4.11019355 L4.86619355,4.11019355 C5.16425806,4.11019355 5.40619355,4.35212903 5.40619355,4.65019355 L5.40619355,4.65019355 C5.40619355,4.94825806 5.16425806,5.19019355 4.86619355,5.19019355 Z"></path>
                                </g>
                            </g>
                        </g>
                    </g>
                </g>
            </g>
        </g>
    </g>
</svg>