<?xml version="1.0" encoding="UTF-8"?>
<svg width="24px" height="24px" viewBox="0 0 24 24" version="1.1" xmlns="http://www.w3.org/2000/svg" xmlns:xlink="http://www.w3.org/1999/xlink">
    <!-- Generator: sketchtool 58 (101010) - https://sketch.com -->
    <title>84A9BFE4-BA1E-4FDB-8232-36C9FEAB186C</title>
    <desc>Created with sketchtool.</desc>
    <g id="👾-Vendor-Management" stroke="none" stroke-width="1" fill="none" fill-rule="evenodd">
        <g id="assets" transform="translate(-376.000000, -104.000000)" fill="#FFB803" fill-rule="nonzero">
            <path d="M388,104 C381.3832,104 376,109.3832 376,116 C376,122.6168 381.3832,128 388,128 C394.6168,128 400,122.6168 400,116 C400,109.3832 394.6168,104 388,104 Z M394.2824,109.7776 L387.366,123.7304 C387.298,123.8684 387.1576,123.9528 387.0076,123.9528 C386.9852,123.9528 386.9628,123.9508 386.94,123.9468 C386.7656,123.9172 386.6316,123.776 386.6104,123.6008 L385.8868,117.6208 L379.554,116.5592 C379.3804,116.5304 379.2464,116.3916 379.2236,116.2176 C379.2008,116.0436 379.2936,115.8748 379.4532,115.8012 L393.7576,109.2364 C393.9108,109.1656 394.0936,109.199946 394.2116,109.3216 C394.3296,109.4432 394.358,109.6256 394.2824,109.7776 Z" id="Shape-Copy-2"></path>
        </g>
    </g>
</svg>