<?xml version="1.0" encoding="UTF-8"?>
<svg width="18px" height="18px" viewBox="0 0 18 18" version="1.1" xmlns="http://www.w3.org/2000/svg" xmlns:xlink="http://www.w3.org/1999/xlink">
    <title>Rectangle</title>
    <defs>
        <path d="M11.927823,5.06502128 C11.0636659,4.1172766 9.80671006,3.64340426 8.62831397,3.64340426 L8.62831397,8.38212766 L5.32880497,11.699234 C7.13567894,13.5157447 10.120949,13.5157447 12.0063827,11.699234 C13.8132567,9.8827234 13.8132567,6.88153191 11.927823,5.06502128 L11.927823,5.06502128 L11.927823,5.06502128 Z M8.62831397,0.484255319 C4.30752837,0.484255319 0.772340153,4.03829787 0.772340153,8.38212766 C0.772340153,12.7259574 4.30752837,16.28 8.62831397,16.28 C12.9490996,16.28 16.4842878,12.7259574 16.4842878,8.38212766 C16.4842878,4.03829787 12.9490996,0.484255319 8.62831397,0.484255319 L8.62831397,0.484255319 L8.62831397,0.484255319 Z M8.62831397,14.7004255 C5.17168551,14.7004255 2.34353494,11.8571915 2.34353494,8.38212766 C2.34353494,4.90706383 5.17168551,2.06382979 8.62831397,2.06382979 C12.0849425,2.06382979 14.913093,4.90706383 14.913093,8.38212766 C14.913093,11.8571915 12.0849425,14.7004255 8.62831397,14.7004255 L8.62831397,14.7004255 L8.62831397,14.7004255 Z" id="path-1"></path>
    </defs>
    <g id="site/-shift-management" stroke="none" stroke-width="1" fill="none" fill-rule="evenodd">
        <g id="new_01" transform="translate(-273.000000, -66.000000)">
            <g id="nav_bar/-dashboard" transform="translate(160.000000, 64.000000)">
                <g id="insights-copy" transform="translate(113.000000, 2.000000)">
                    <g id="Rectangle" transform="translate(0.500000, 0.720000)">
                        <mask id="mask-2" fill="white">
                            <use xlink:href="#path-1"></use>
                        </mask>
                        <use id="Mask" fill="#000000" fill-rule="nonzero" xlink:href="#path-1"></use>
                        <rect fill="#8697A8" mask="url(#mask-2)" x="0" y="0.28" width="17" height="16"></rect>
                    </g>
                </g>
            </g>
        </g>
    </g>
</svg>