<?xml version="1.0" encoding="UTF-8"?>
<svg width="24px" height="24px" viewBox="0 0 24 24" version="1.1" xmlns="http://www.w3.org/2000/svg" xmlns:xlink="http://www.w3.org/1999/xlink">
    <title>4EBEA0EE-6A46-4CB2-84F6-C4B9417BD57B</title>
    <g id="profille_view-mode" stroke="none" stroke-width="1" fill="none" fill-rule="evenodd">
        <g id="attendance-_profile_01" transform="translate(-200.000000, -647.000000)">
            <g id="Group-29" transform="translate(160.000000, 412.000000)">
                <g id="Group-5" transform="translate(40.000000, 113.000000)">
                    <g id="Group-12" transform="translate(0.000000, 64.000000)">
                        <g id="annual" transform="translate(0.000000, 58.000000)">
                            <rect id="Rectangle" fill="#BFD554" opacity="0.3" x="0" y="0" width="24" height="24" rx="12"></rect>
                            <g id="Group" transform="translate(6.000000, 6.000000)" fill="#A8BD42" fill-rule="nonzero">
                                <path d="M8.96827589,0.00128089941 C8.86218333,0.0116063684 8.77184362,0.0828283179 8.73703858,0.183583591 C8.70223354,0.284338865 8.72935014,0.39613818 8.80644736,0.469749813 L9.97757487,1.6409221 L8.58925644,3.0250348 L6.3279157,0.763607586 C6.27018481,0.704453898 6.1887326,0.674691376 6.10646614,0.682690228 C6.00037357,0.693015697 5.91003386,0.764237647 5.87522883,0.86499292 C5.84042379,0.965748194 5.86754039,1.07754751 5.94463761,1.15115914 L6.70693515,1.91348583 L1.99261462,6.62372781 C1.14039193,7.47597859 1.07868164,8.87502028 1.80949286,9.80505762 L0.0847414477,11.529875 C0.0132528491,11.597865 -0.0159199614,11.6991782 0.00846393153,11.7947764 C0.0328478245,11.8903747 0.10698224,11.9653357 0.202301582,11.9907753 C0.297620925,12.016215 0.39924641,11.9881623 0.46801954,11.9174265 L2.1970296,10.1883504 C3.15061704,10.9350853 4.65911853,10.8850508 5.51451442,10.0052216 L9.36432992,6.04878869 C9.4333991,5.97905264 9.45964538,5.87756701 9.43304582,5.78308716 C9.40644627,5.68860731 9.33110857,5.61572349 9.23580272,5.5922686 C9.14049686,5.56881371 9.03994066,5.59840982 8.97253454,5.66975475 L5.12271903,9.62618767 C4.44918352,10.3189765 3.06260195,10.3086259 2.37589271,9.62192886 C1.6783289,8.92432924 1.67833544,7.70886535 2.37589271,7.01127937 L2.59308363,6.79408014 L3.49165782,7.6926887 C3.56043095,7.76342442 3.66205644,7.79147711 3.75737578,7.76603747 C3.85269512,7.74059784 3.92682954,7.66563684 3.95121343,7.57003858 C3.97559732,7.47444032 3.94642451,7.37312712 3.87493591,7.30513714 L2.97636172,6.4107874 L3.68329687,5.70382522 L4.99070102,7.01127937 C5.05947415,7.08201509 5.16109964,7.11006778 5.25641898,7.08462815 C5.35173832,7.05918851 5.42587274,6.98422751 5.45025663,6.88862925 C5.47464053,6.79303099 5.44546772,6.69171779 5.37397912,6.62372781 L4.06657496,5.32053247 L4.77351011,4.61357029 L5.6720843,5.51217885 C5.74085743,5.58291457 5.84248291,5.61096726 5.93780226,5.58552762 C6.0331216,5.56008798 6.10725601,5.48512699 6.13163991,5.38952873 C6.1560238,5.29393047 6.12685099,5.19261726 6.05536239,5.12462729 L5.1567882,4.23027755 L5.86372335,3.52331537 L7.1711275,4.83076952 C7.23990063,4.90150524 7.34152612,4.92955793 7.43684546,4.90411829 C7.5321648,4.87867866 7.60629922,4.80371766 7.63068311,4.7081194 C7.655067,4.61252114 7.62589419,4.51120793 7.5544056,4.44321796 L6.24700144,3.14002262 L7.09021324,2.29677858 L10.8505972,6.05730631 C10.9193703,6.12804203 11.0209958,6.15609472 11.1163151,6.13065509 C11.2116345,6.10521545 11.2857689,6.03025445 11.3101528,5.93465619 C11.3345367,5.83905793 11.3053639,5.73774473 11.2338753,5.66975475 L8.97253454,3.41258635 L10.360853,2.02421484 L11.5319805,3.19538713 C11.6007536,3.26612285 11.7023791,3.29417554 11.7976984,3.26873591 C11.8930178,3.24329627 11.9671522,3.16833527 11.9915361,3.07273701 C12.01592,2.97713875 11.9867472,2.87582555 11.9152586,2.80783557 L9.18972545,0.0821982572 C9.13199456,0.0230445689 9.05054235,-0.006717953 8.96827589,0.00128089941 Z" id="Path"></path>
                            </g>
                        </g>
                    </g>
                </g>
            </g>
        </g>
    </g>
</svg>