<?xml version="1.0" encoding="UTF-8"?>
<svg width="24px" height="24px" viewBox="0 0 24 24" version="1.1" xmlns="http://www.w3.org/2000/svg" xmlns:xlink="http://www.w3.org/1999/xlink">
    <title>Group 25</title>
    <g id="Page-1" stroke="none" stroke-width="1" fill="none" fill-rule="evenodd">
        <g id="site/shift-management_03" transform="translate(-320.000000, -193.000000)">
            <g id="personal_details-DL" transform="translate(280.000000, 118.000000)">
                <g id="Group-25" transform="translate(40.000000, 75.000000)">
                    <rect id="Rectangle" fill="#D8D8D8" opacity="0" x="0" y="0" width="24" height="24"></rect>
                    <g id="noun_on-site_1863636" transform="translate(2.000000, 4.000000)" fill="#0059B2" fill-rule="nonzero">
                        <path d="M16.85352,11.35352 C16.9472947,11.259777 16.9999795,11.1326151 16.9999795,11.00002 C16.9999795,10.8674249 16.9472947,10.740263 16.85352,10.64652 L14.707,8.5 L20.5,8.5 C20.7761424,8.5 21,8.27614237 21,8 C21,7.72385763 20.7761424,7.5 20.5,7.5 L14.707,7.5 L16.85349,5.35352 C17.0429761,5.15733056 17.0402662,4.84547761 16.8473993,4.65261071 C16.6545324,4.45974381 16.3426794,4.4570339 16.14649,4.64652 L13.14649,7.64652 C13.0527128,7.74026174 13.0000264,7.86742409 13.0000264,8.00002 C13.0000264,8.13261591 13.0527128,8.25977826 13.14649,8.35352 L16.14649,11.35352 C16.240233,11.4473064 16.3674017,11.4999987 16.500005,11.4999987 C16.6326083,11.4999987 16.759777,11.4473064 16.85352,11.35352 L16.85352,11.35352 Z M10,0 L2,0 C0.8954305,0 0,0.8954305 0,2 L0,15 C0,15.5522847 0.44771525,16 1,16 L11,16 C11.5522847,16 12,15.5522847 12,15 L12,2 C12,0.8954305 11.1045695,0 10,0 Z M11,15 L5,15 L5,12 C5,11.4477153 4.55228475,11 4,11 C3.44771525,11 3,11.4477153 3,12 L3,15 L1,15 L1,2 C1.00063373,1.44797796 1.44797796,1.00063373 2,1 L10,1 C10.552022,1.00063373 10.9993663,1.44797796 11,2 L11,15 Z M5,4 C5,4.55228475 4.55228475,5 4,5 C3.44771525,5 3,4.55228475 3,4 C3,3.44771525 3.44771525,3 4,3 C4.55228475,3 5,3.44771525 5,4 Z M9,4 C9,4.55228475 8.55228475,5 8,5 C7.44771525,5 7,4.55228475 7,4 C7,3.44771525 7.44771525,3 8,3 C8.55228475,3 9,3.44771525 9,4 Z M5,8 C5,8.55228475 4.55228475,9 4,9 C3.44771525,9 3,8.55228475 3,8 C3,7.44771525 3.44771525,7 4,7 C4.55228475,7 5,7.44771525 5,8 Z M9,8 C9,8.55228475 8.55228475,9 8,9 C7.44771525,9 7,8.55228475 7,8 C7,7.44771525 7.44771525,7 8,7 C8.55228475,7 9,7.44771525 9,8 Z M9,12 C9,12.5522847 8.55228475,13 8,13 C7.44771525,13 7,12.5522847 7,12 C7,11.4477153 7.44771525,11 8,11 C8.55228475,11 9,11.4477153 9,12 Z" id="Shape"></path>
                    </g>
                </g>
            </g>
        </g>
    </g>
</svg>