<?xml version="1.0" encoding="UTF-8"?>
<svg width="16px" height="16px" viewBox="0 0 16 16" version="1.1" xmlns="http://www.w3.org/2000/svg" xmlns:xlink="http://www.w3.org/1999/xlink">
    <title>F7D7EE91-D3D9-4A15-963C-6A3D3590D186</title>
    <defs>
        <path d="M6,1.33333333 C7.1045695,1.33333333 8,2.22876383 8,3.33333333 L8,4.21233333 L14,4.21333333 C15.1045695,4.21333333 16,5.10876383 16,6.21333333 L16,12.9333333 C16,14.0379028 15.1045695,14.9333333 14,14.9333333 L2,14.9333333 C0.8954305,14.9333333 1.3527075e-16,14.0379028 0,12.9333333 L0,6.21333333 C-1.67691013e-17,6.07640323 0.0137607993,5.94268713 0.0399749443,5.8134925 C0.013831458,5.68466524 -1.07846717e-17,5.55061454 0,5.41333333 L0,3.33333333 C-3.57315355e-16,2.22876383 0.8954305,1.33333333 2,1.33333333 L6,1.33333333 Z" id="path-1"></path>
    </defs>
    <g id="ðŸ­-vendor-management" stroke="none" stroke-width="1" fill="none" fill-rule="evenodd">
        <g id="JLL-vendor-list-page---with-awaiting-approval-&amp;-all-vendors-list-with-pagination_01" transform="translate(-224.000000, -277.000000)">
            <g id="Group-16" transform="translate(160.000000, 188.000000)">
                <g id="Group-8" transform="translate(0.000000, 56.000000)">
                    <g id="Group-7" transform="translate(64.000000, 0.000000)">
                        <g id="icon-/-24-/-info-/-folder" transform="translate(0.000000, 33.000000)">
                            <rect id="Rectangle" x="0" y="0" width="16" height="16"></rect>
                            <rect id="Rectangle-6" fill="#000000" opacity="0.600000024" style="mix-blend-mode: multiply;" x="0.96" y="2.93333333" width="13.28" height="3.33333333" rx="1"></rect>
                            <mask id="mask-2" fill="white">
                                <use xlink:href="#path-1"></use>
                            </mask>
                            <use id="Combined-Shape" fill="#3F47F4" xlink:href="#path-1"></use>
                            <g id="pin-3" mask="url(#mask-2)" fill="#000000" opacity="0.251013768">
                                <g transform="translate(5.333333, 6.000000)" id="Shape">
                                    <path d="M2.66666667,0 C1.35592157,0 0,0.997490196 0,2.66666667 C0,4.43686275 2.45129412,6.90854902 2.55576471,7.01286275 C2.58509804,7.04235294 2.62509804,7.05882353 2.66666667,7.05882353 C2.70823529,7.05882353 2.74823529,7.04235294 2.77756863,7.01286275 C2.88203922,6.90854902 5.33333333,4.43686275 5.33333333,2.66666667 C5.33333333,0.997490196 3.97741176,0 2.66666667,0 Z M2.66666667,3.60784314 C2.14760784,3.60784314 1.7254902,3.18572549 1.7254902,2.66666667 C1.7254902,2.14760784 2.14760784,1.7254902 2.66666667,1.7254902 C3.18572549,1.7254902 3.60784314,2.14760784 3.60784314,2.66666667 C3.60784314,3.18572549 3.18572549,3.60784314 2.66666667,3.60784314 Z"></path>
                                </g>
                            </g>
                        </g>
                    </g>
                </g>
            </g>
        </g>
    </g>
</svg>