<?xml version="1.0" encoding="UTF-8"?>
<svg width="40px" height="40px" viewBox="0 0 40 40" version="1.1" xmlns="http://www.w3.org/2000/svg" xmlns:xlink="http://www.w3.org/1999/xlink">
    <!-- Generator: sketchtool 55.2 (78181) - https://sketchapp.com -->
    <title>C39A8640-83EC-4FBB-853E-5AB34161E097</title>
    <desc>Created with sketchtool.</desc>
    <defs>
        <rect id="path-1" x="0" y="0" width="40" height="40" rx="19.5"></rect>
    </defs>
    <g id="👽-GBV-Client" stroke="none" stroke-width="1" fill="none" fill-rule="evenodd">
        <g id="BGV-Client-zomato-add-skills-and-preferences_4_hover" transform="translate(-160.000000, -1049.000000)">
            <g id="known-language" transform="translate(160.000000, 1049.000000)">
                <g id="personal_details-DL">
                    <g id="section-title">
                        <g id="icon-/-40-/-info-/-container-with-icon">
                            <g id="icon-/-40-/-info-/-container">
                                <mask id="mask-2" fill="white">
                                    <use xlink:href="#path-1"></use>
                                </mask>
                                <use fill="#F4EEE8" xlink:href="#path-1"></use>
                            </g>
                            <g id="Group-13" transform="translate(8.000000, 8.000000)">
                                <path d="M0.982964029,5.68434189e-14 L22.9334676,5.68434189e-14 C23.4764029,5.68434189e-14 23.9164317,0.440115108 23.9164317,0.982964029 L23.9164317,22.9334676 C23.9164317,23.4764029 23.4763165,23.9164317 22.9334676,23.9164317 L0.982964029,23.9164317 C0.440028777,23.9164317 5.68434189e-14,23.4763165 5.68434189e-14,22.9334676 L5.68434189e-14,0.982964029 C5.68434189e-14,0.440028777 0.440028777,5.68434189e-14 0.982964029,5.68434189e-14 Z" id="Path" fill="#9A5A1E" fill-rule="nonzero"></path>
                                <path d="M0.612345324,3.53300719 L23.3044317,3.53300719 L23.3044317,23.3053813 L0.612345324,23.3053813 L0.612345324,3.53300719 Z M14.4394532,20.7776978 L14.4397122,20.7776978 L14.7303022,20.9434532 L14.7303022,20.6087482 L14.7303022,19.2879712 C16.0120576,18.9445468 17.1266763,18.192 17.9240288,17.1791655 C18.7353669,16.1483741 19.2196835,14.8477122 19.2196835,13.4343885 C19.2196835,11.7606043 18.5408633,10.2451511 17.4442878,9.14848921 C16.3477122,8.05182734 14.8319137,7.37309353 13.1583885,7.37309353 C12.9956547,7.37309353 12.8333525,7.37991367 12.6715683,7.39260432 L12.7032518,8.46207194 L13.1583885,8.44221583 C14.5366619,8.44221583 15.7849209,9.00138129 16.6880288,9.90457554 C17.5911367,10.8077698 18.1500432,12.0559424 18.1500432,13.4342158 C18.1500432,14.5705899 17.7710504,15.6174388 17.1326331,16.4557986 C16.5293525,17.2481439 15.694446,17.8542734 14.7300432,18.1740432 L14.7300432,16.9420144 L14.7300432,16.6070504 L14.4394532,16.7731511 L11.2233669,18.6065612 L10.9271655,18.7754245 L11.2233669,18.9442878 L14.4394532,20.7776978 Z M8.69231655,9.84578417 L8.69136691,9.84621583 L8.69171223,9.84621583 C9.08141007,9.41499281 9.83551079,8.57913669 9.91381295,7.3763741 L10.9136115,7.37602878 L10.9731799,7.37568345 L10.9728345,7.31671942 L10.9724892,6.5221295 L10.9724892,6.46256115 L10.9131799,6.46290647 L8.32316547,6.46351079 L8.32411511,5.72831655 L8.32446043,5.66900719 L8.26515108,5.66900719 L7.47116547,5.66900719 L7.41185612,5.66900719 L7.41185612,5.72831655 L7.41185612,6.46351079 L4.82270504,6.46385612 L4.76339568,6.46385612 L4.76339568,6.52316547 L4.76339568,7.32328058 L4.76339568,7.3822446 L4.82270504,7.38258993 L8.98877698,7.38941007 C8.99620144,7.70866187 8.86083453,8.10103597 8.67548201,8.46276259 C8.43246043,8.9377554 8.10759712,9.35689209 7.90894964,9.49320863 C7.81735252,9.40247482 7.73758273,9.31372662 7.66083453,9.21902158 C7.57605755,9.11378417 7.49283453,8.99792806 7.39907914,8.85945324 C7.20785612,8.57628777 7.16779856,8.47657554 7.12152518,8.36201439 C7.09294964,8.29027338 7.06126619,8.21240288 6.99297842,8.08446043 L6.97623022,8.05277698 L6.94057554,8.0531223 L6.02097842,8.05899281 L5.94302158,8.05933813 L5.96382734,8.13418705 C6.05197122,8.44558273 6.2363741,8.7862446 6.44909353,9.10169784 C6.71482014,9.49605755 7.02682014,9.85398561 7.24920863,10.0670504 C7.1785036,10.1387914 7.05893525,10.2334101 6.92261871,10.3331223 C6.67018705,10.5181295 6.36492086,10.7168633 6.19545324,10.8230504 C5.80480576,11.0683165 5.60892086,11.1471367 5.35648921,11.2490072 C5.2381295,11.2964892 5.10707914,11.3492374 4.9345036,11.4281439 L4.86181295,11.4613813 L4.91456115,11.521295 L5.43997122,12.1158561 L5.46543885,12.1440863 L5.50143885,12.1329496 C5.83303597,12.0314245 6.30284892,11.7531799 6.75582734,11.4501583 C7.18618705,11.1617266 7.60221583,10.8508489 7.86768345,10.6477986 L7.8937554,10.668 C8.53493525,11.1619856 9.50745324,11.9108201 10.2327194,12.1328633 L10.2687194,12.144 L10.2938417,12.1157698 L10.836259,11.5016978 L10.8893525,11.4417842 L10.8166619,11.4085468 C9.77205755,10.932518 9.49985612,10.7437986 8.85341007,10.2960863 C8.75223022,10.225554 8.64043165,10.1482878 8.5091223,10.0585036 C8.54572662,10.0081727 8.61064748,9.93617266 8.69231655,9.84578417 Z M4.69726619,21.4154245 L5.88794245,21.421036 L6.38002878,19.9216403 L9.3756259,19.9181871 L9.86581295,21.4175827 L11.0400863,21.4166331 L8.55090647,15.0802014 L7.18843165,15.0770935 L4.6967482,21.4154245 L4.69726619,21.4154245 Z M6.72077698,19.0662734 L7.89220144,16.1510504 L9.02546763,19.0826763 L6.72077698,19.0662734 Z" id="Combined-Shape" fill="#F3F7FD" fill-rule="nonzero"></path>
                                <g id="Group" transform="translate(1.512173, 0.907942)" fill="#EBECEC" fill-rule="nonzero">
                                    <path d="M6.75945324,0.229985612 L20.159482,0.229985612 C20.2721439,0.229985612 20.3633957,0.321323741 20.3633957,0.433899281 L20.3633957,0.989093525 C20.3633957,1.1017554 20.2720576,1.19300719 20.159482,1.19300719 L6.75945324,1.19300719 C6.64679137,1.19300719 6.55553951,1.10166906 6.55553951,0.989093525 L6.55553951,0.433899281 C6.55553951,0.32123741 6.6468777,0.229985612 6.75945324,0.229985612 Z" id="Path"></path>
                                    <path d="M0.765496403,0.00854676259 C1.15389928,0.00854676259 1.4687482,0.323654676 1.4687482,0.711798561 C1.4687482,1.10020144 1.15389928,1.41539568 0.765496403,1.41539568 C0.377093525,1.41539568 0.0622446043,1.10028777 0.0622446043,0.711798561 C0.0622446043,0.323654676 0.377352518,0.00854676259 0.765496403,0.00854676259 Z M4.43611511,0.00854676259 C4.82451799,0.00854676259 5.13971223,0.323654676 5.13971223,0.711798561 C5.13971223,1.10020144 4.82460432,1.41539568 4.43611511,1.41539568 C4.04797122,1.41539568 3.73286331,1.10028777 3.73286331,0.711798561 C3.73286331,0.323654676 4.04797122,0.00854676259 4.43611511,0.00854676259 Z M2.60080576,0.00854676259 C2.98920863,0.00854676259 3.30440288,0.323654676 3.30440288,0.711798561 C3.30440288,1.10020144 2.98929496,1.41539568 2.60080576,1.41539568 C2.21266187,1.41539568 1.89755396,1.10028777 1.89755396,0.711798561 C1.89755396,0.323654676 2.21266187,0.00854676259 2.60080576,0.00854676259 Z" id="Shape"></path>
                                </g>
                                <g id="Group" transform="translate(4.620086, 5.656144)"></g>
                            </g>
                        </g>
                    </g>
                </g>
            </g>
        </g>
    </g>
</svg>