<?xml version="1.0" encoding="UTF-8"?>
<svg width="40px" height="40px" viewBox="0 0 40 40" version="1.1" xmlns="http://www.w3.org/2000/svg" xmlns:xlink="http://www.w3.org/1999/xlink">
    <!-- Generator: Sketch 55.2 (78181) - https://sketchapp.com -->
    <title>social</title>
    <desc>Created with Sketch.</desc>
    <defs>
        <rect id="path-1" x="0" y="0" width="40" height="40" rx="19.5"></rect>
    </defs>
    <g id="👽-GBV-Client" stroke="none" stroke-width="1" fill="none" fill-rule="evenodd">
        <g id="BGV-Client-zomato-add-social_1" transform="translate(-160.000000, -65.000000)">
            <g id="social" transform="translate(160.000000, 65.000000)">
                <g id="section-title">
                    <g id="social">
                        <g id="icon-/-40-/-info-/-container">
                            <mask id="mask-2" fill="white">
                                <use xlink:href="#path-1"></use>
                            </mask>
                            <use fill="#8697A8" fill-rule="evenodd" xlink:href="#path-1"></use>
                        </g>
                        <g id="community" transform="translate(8.000000, 7.000000)" fill-rule="nonzero">
                            <polygon id="Path" fill="#FFFFFF" points="6.58418675 5.95489458 12.4997741 12.2640813 18.4153614 5.95489458 19.2503012 6.74036145 13.285241 13.1021837 19.2503012 19.464006 18.4153614 20.2494729 12.4997741 13.9402861 6.58418675 20.2494729 5.7496988 19.464006 11.7143072 13.1021837 5.7496988 6.74036145"></polygon>
                            <path d="M12.4997741,8.57658133 C14.9990964,8.57658133 17.0262801,10.6028614 17.0262801,13.1021837 C17.0262801,15.601506 14.9990964,17.628238 12.4997741,17.628238 C10.0004518,17.628238 7.97371988,15.601506 7.97371988,13.1021837 C7.97371988,10.6028614 10.0004518,8.57658133 12.4997741,8.57658133 Z" id="Path" fill="#FFFFFF"></path>
                            <path d="M12.4997741,8.95933735 C14.7877259,8.95933735 16.6426205,10.8137048 16.6426205,13.1021837 C16.6426205,15.3896837 14.788253,17.2450301 12.4997741,17.2450301 C10.2122741,17.2450301 8.35692771,15.389759 8.35692771,13.1021837 C8.35692771,10.8137801 10.2122741,8.95933735 12.4997741,8.95933735 Z" id="Path" fill="#83A6CF"></path>
                            <path d="M10.9560241,14.6795181 L11.0639307,14.6795181 L11.6966114,14.3344127 L11.7995482,13.9317018 C11.6489458,13.779744 11.492997,13.5222139 11.351506,13.2051958 C11.3401355,13.207003 11.3283886,13.2079066 11.3161145,13.2079066 C11.1487952,13.2079066 10.9832078,13.0260542 10.9460843,12.8015813 C10.9170934,12.6256024 10.9750753,12.4759789 11.0821536,12.4192771 C10.9406627,11.697741 10.846762,10.5898343 12.0893825,10.3158886 C12.8349398,10.1517319 13.1011295,10.727259 13.1338102,10.7902861 C13.5850151,10.5371988 13.8716867,10.9167922 13.9451054,11.1176958 C14.0784639,11.4809488 14.0348645,12.1567018 13.9668675,12.4551205 C14.0421687,12.5268072 14.0784639,12.6551205 14.0539157,12.8015813 C14.0171687,13.0224398 13.8566265,13.2020331 13.6920181,13.2079066 C13.5591114,13.4995482 13.3814006,13.7498494 13.1999247,13.9317018 L13.3028614,14.3344127 L13.3114458,14.3344127 L13.9268825,14.6795181 L14.0434488,14.6795181 C14.8026355,14.6795181 15.4325301,15.2378012 15.5118976,15.9457078 C14.7563253,16.7457078 13.6860693,17.2454819 12.499247,17.2454819 C11.3124247,17.2454819 10.2420934,16.7457078 9.48659639,15.9457078 C9.56596386,15.2364458 10.1958584,14.6795181 10.9550452,14.6795181 L10.9560241,14.6795181 L10.9560241,14.6795181 Z" id="Path" fill="#FFFFFF"></path>
                            <g id="Group" fill="#FFFFFF">
                                <path d="M4.41912651,0.0669427711 C6.85813253,0.0669427711 8.83629518,2.0438253 8.83629518,4.48275602 C8.83629518,6.92131024 6.85805723,8.89947289 4.41912651,8.89947289 C1.98019578,8.89947289 0.00240963855,6.92123494 0.00240963855,4.48275602 C0.00240963855,2.0438253 1.98019578,0.0669427711 4.41912651,0.0669427711 Z" id="Path"></path>
                                <path d="M4.41912651,17.3048946 C6.85813253,17.3048946 8.83629518,19.2817771 8.83629518,21.7207078 C8.83629518,24.1596386 6.85805723,26.1378765 4.41912651,26.1378765 C1.98019578,26.1378765 0.00240963855,24.1596386 0.00240963855,21.7207078 C0.00240963855,19.2817771 1.98019578,17.3048946 4.41912651,17.3048946 Z" id="Path"></path>
                                <path d="M20.5808735,17.3048946 C23.0198795,17.3048946 24.9975904,19.2817771 24.9975904,21.7207078 C24.9975904,24.1596386 23.0198042,26.1378765 20.5808735,26.1378765 C18.1419428,26.1378765 16.1637048,24.1596386 16.1637048,21.7207078 C16.1637048,19.2817771 18.1418675,17.3048946 20.5808735,17.3048946 Z" id="Path"></path>
                                <path d="M20.5808735,0.0669427711 C23.0198795,0.0669427711 24.9975904,2.0438253 24.9975904,4.48275602 C24.9975904,6.92131024 23.0198042,8.89947289 20.5808735,8.89947289 C18.1419428,8.89947289 16.1637048,6.92123494 16.1637048,4.48275602 C16.1637048,2.0438253 18.1418675,0.0669427711 20.5808735,0.0669427711 Z" id="Path"></path>
                            </g>
                            <path d="M4.41912651,0.536370482 C6.59871988,0.536370482 8.36649096,2.30323795 8.36649096,4.48283133 C8.36649096,6.6624247 6.59871988,8.43019578 4.41912651,8.43019578 C2.23953313,8.43019578 0.471762048,6.6624247 0.471762048,4.48283133 C0.471762048,2.30323795 2.23960843,0.536370482 4.41912651,0.536370482 Z" id="Path" fill="#83A6CF"></path>
                            <path d="M2.98471386,6.04646084 L3.08493976,6.04646084 L3.67266566,5.72582831 L3.76837349,5.35165663 C3.62823795,5.21016566 3.48358434,4.97070783 3.35203313,4.67680723 C3.34111446,4.67861446 3.33027108,4.67906627 3.3189006,4.67906627 C3.16378012,4.67906627 3.01009036,4.50993976 2.9751506,4.30128012 C2.94796687,4.13802711 3.00233434,3.99879518 3.10120482,3.94615964 C2.96965361,3.27590361 2.88260542,2.24638554 4.0372741,1.99201807 C4.72981928,1.83915663 4.97740964,2.37432229 5.00730422,2.43283133 C5.42680723,2.19743976 5.69299699,2.5503012 5.76152108,2.73712349 C5.88531627,3.07454819 5.84495482,3.70173193 5.78192771,3.97929217 C5.85173193,4.04593373 5.88531627,4.16521084 5.8626506,4.30128012 C5.82861446,4.50625 5.67899096,4.67319277 5.52658133,4.67861446 C5.40323795,4.9498494 5.2377259,5.18200301 5.06942771,5.35120482 L5.16513554,5.72537651 L5.17326807,5.72537651 L5.74465361,6.04600904 L5.85346386,6.04600904 C6.57274096,6.04600904 7.16679217,6.58524096 7.22168675,7.26099398 C6.5064759,7.98253012 5.51468373,8.42966867 4.4185241,8.42966867 C3.32281627,8.42966867 2.3310241,7.98253012 1.61581325,7.26099398 C1.67025602,6.58388554 2.26475904,6.04600904 2.98403614,6.04600904 L2.98471386,6.04646084 Z" id="Path" fill="#FFFFFF"></path>
                            <path d="M20.5804217,0.536370482 C22.7609187,0.536370482 24.5277861,2.30323795 24.5277861,4.48283133 C24.5277861,6.6624247 22.7609187,8.43019578 20.5804217,8.43019578 C18.4008283,8.43019578 16.6339608,6.6624247 16.6339608,4.48283133 C16.6339608,2.30323795 18.4008283,0.536370482 20.5804217,0.536370482 Z" id="Path" fill="#83A6CF"></path>
                            <path d="M19.1459337,6.04646084 L19.2466114,6.04646084 L19.8343373,5.72582831 L19.9300452,5.35165663 C19.7899096,5.21016566 19.645256,4.97070783 19.513253,4.67680723 C19.5027861,4.67861446 19.4919428,4.67906627 19.4805723,4.67906627 C19.3254518,4.67906627 19.1713102,4.50993976 19.1368223,4.30128012 C19.1096386,4.13802711 19.164006,3.99879518 19.2628765,3.94615964 C19.1313253,3.27590361 19.0442771,2.24638554 20.1989458,1.99201807 C20.891491,1.83915663 21.1390813,2.37432229 21.1689759,2.43283133 C21.5884789,2.19743976 21.8546687,2.5503012 21.9231928,2.73712349 C22.046988,3.07454819 22.0066265,3.70173193 21.9435994,3.97929217 C22.0129518,4.04593373 22.046988,4.16521084 22.0243223,4.30128012 C21.9902861,4.50625 21.8406627,4.67319277 21.688253,4.67861446 C21.5649096,4.9498494 21.3993976,5.18200301 21.2310994,5.35120482 L21.3268072,5.72537651 L21.3349398,5.72537651 L21.9064006,6.04600904 L22.0152108,6.04600904 C22.734488,6.04600904 23.3285392,6.58524096 23.3834337,7.26099398 C22.6682229,7.98253012 21.6764307,8.42966867 20.5802711,8.42966867 C19.4841114,8.42966867 18.4927711,7.98253012 17.7775602,7.26099398 C17.8324548,6.58388554 18.426506,6.04600904 19.1457831,6.04600904 L19.1457831,6.04646084 L19.1459337,6.04646084 Z" id="Path" fill="#FFFFFF"></path>
                            <path d="M4.41912651,17.774247 C6.59871988,17.774247 8.36649096,19.5411145 8.36649096,21.7207078 C8.36649096,23.9012048 6.59871988,25.6680723 4.41912651,25.6680723 C2.23953313,25.6680723 0.471762048,23.9012048 0.471762048,21.7207078 C0.471762048,19.5411145 2.23960843,17.774247 4.41912651,17.774247 Z" id="Path" fill="#83A6CF"></path>
                            <path d="M7.35240964,24.3618976 C6.62996988,25.1637048 5.58328313,25.667997 4.41912651,25.667997 C3.25496988,25.667997 2.20828313,25.1637048 1.48584337,24.3618976 C1.61596386,23.724247 2.20466867,23.2394578 2.90625,23.2394578 L3.0123494,23.2394578 L3.63230422,22.9011295 L3.73298193,22.5065512 C3.58516566,22.3573795 3.43275602,22.1051958 3.2939759,21.794503 C3.28260542,21.7963102 3.27131024,21.7972139 3.25948795,21.7972139 C3.09578313,21.7972139 2.93343373,21.6189759 2.89668675,21.3990211 C2.86814759,21.2271084 2.9252259,21.0801958 3.03004518,21.0248494 C2.89126506,20.3178464 2.79917169,19.2321536 4.01686747,18.9636295 C4.74743976,18.8030873 5.00820783,19.3667922 5.03998494,19.4284639 C5.48215361,19.1804217 5.76332831,19.552259 5.83501506,19.7490964 C5.96566265,20.1051205 5.92296687,20.7667922 5.85677711,21.059262 C5.93027108,21.1290663 5.96603916,21.2551958 5.94201807,21.3989458 C5.9061747,21.6152861 5.74834337,21.7912651 5.5873494,21.7971386 C5.45722892,22.0832831 5.28260542,22.3281627 5.10527108,22.5064006 L5.2064006,22.9009789 L5.21498494,22.9009789 L5.81769578,23.2393072 L5.93245482,23.2393072 C6.63313253,23.2393072 7.22221386,23.7254518 7.35286145,24.361747 L7.35240964,24.361747 L7.35240964,24.3618976 Z" id="Path" fill="#FFFFFF"></path>
                            <path d="M20.5804217,17.774247 C22.7609187,17.774247 24.5277861,19.5411145 24.5277861,21.7207078 C24.5277861,23.9012048 22.7609187,25.6680723 20.5804217,25.6680723 C18.4008283,25.6680723 16.6339608,23.9012048 16.6339608,21.7207078 C16.6339608,19.5411145 18.4008283,17.774247 20.5804217,17.774247 Z" id="Path" fill="#83A6CF"></path>
                            <path d="M23.5250753,24.3496988 C22.8021837,25.1587349 21.7514307,25.6680723 20.5804217,25.6680723 C19.4103916,25.6680723 18.3591114,25.1588102 17.6366717,24.3496988 C17.7899849,23.734262 18.3691265,23.2739458 19.0557229,23.2739458 L19.1627259,23.2739458 L19.7876506,22.9329066 L19.8892319,22.5356175 C19.740512,22.3850904 19.586747,22.1310994 19.4466114,21.8181476 C19.435241,21.8199548 19.4239458,21.8208584 19.4116717,21.8208584 C19.2470633,21.8208584 19.0829066,21.6412651 19.0461596,21.419503 C19.0176205,21.2457831 19.0751506,21.0979669 19.1804217,21.0421687 C19.040738,20.3292169 18.9481928,19.2349398 20.1754518,18.9646084 C20.9115211,18.8027108 21.175,19.3709337 21.2067018,19.4330572 C21.6524849,19.1832078 21.9354669,19.5582078 22.0080572,19.7564006 C22.1396084,20.1151355 22.0969127,20.7822289 22.0298193,21.0770331 C22.1042169,21.1478163 22.1400602,21.2743223 22.1159639,21.4194277 C22.0796687,21.6375753 21.9209337,21.8149096 21.7585843,21.8207831 C21.6274849,22.1091867 21.4511295,22.3564006 21.2724398,22.5355422 L21.3740211,22.9332831 L21.3826054,22.9332831 L21.9902861,23.2743223 L22.1059488,23.2743223 C22.7920934,23.2743223 23.3716867,23.735994 23.525,24.3505271 L23.525,24.3496988 L23.5250753,24.3496988 Z" id="Path" fill="#FFFFFF"></path>
                        </g>
                    </g>
                </g>
            </g>
        </g>
    </g>
</svg>