<?xml version="1.0" encoding="UTF-8"?>
<svg width="16px" height="16px" viewBox="0 0 16 16" version="1.1" xmlns="http://www.w3.org/2000/svg" xmlns:xlink="http://www.w3.org/1999/xlink">
    <title>Group 6</title>
    <defs>
        <filter id="filter-1">
            <feColorMatrix in="SourceGraphic" type="matrix" values="0 0 0 0 0.525490 0 0 0 0 0.592157 0 0 0 0 0.658824 0 0 0 1.000000 0"></feColorMatrix>
        </filter>
    </defs>
    <g id="attendance-configuration" stroke="none" stroke-width="1" fill="none" fill-rule="evenodd">
        <g id="site_configuration_0001-copy-(1)" transform="translate(-396.000000, -429.000000)">
            <g id="Group-7" transform="translate(159.000000, 404.000000)">
                <g id="Group-6" transform="translate(237.000000, 25.000000)">
                    <rect id="Rectangle" fill="#F4F7FB" x="0" y="0" width="16" height="16" rx="4"></rect>
                    <g filter="url(#filter-1)" id="Group-9">
                        <g transform="translate(4.019874, 3.000000)">
                            <path d="M0.500037625,3.99543246 L7.49993501,3.99543246 C7.63535617,3.99543246 7.7525807,3.95153061 7.85149917,3.86365403 C7.95036291,3.77580175 8,3.67176871 8,3.55153061 C8,3.43129252 7.95039027,3.32730807 7.85149917,3.23933431 L4.35153679,0.131778426 C4.25264569,0.0440233236 4.13550325,0 4,0 C3.86449675,0 3.74735431,0.0440233236 3.64838112,0.131778426 L0.148418741,3.23933431 C0.0494455504,3.32721088 0,3.43129252 0,3.55153061 C0,3.67174441 0.0494455504,3.77580175 0.148418741,3.86365403 C0.247501385,3.95153061 0.364643832,3.99543246 0.500037625,3.99543246 Z" id="Path" fill="#000000" fill-rule="nonzero"></path>
                            <path d="M7.49993501,6 L0.500037625,6 C0.364534379,6 0.247391932,6.04392614 0.148418741,6.13170554 C0.0494455504,6.21958212 0,6.32359086 0,6.44382896 C0,6.56406706 0.0494455504,6.66814869 0.148418741,6.75597668 L3.64838112,9.86348397 C3.74746376,9.95136054 3.86460621,9.99535957 4,9.99535957 C4.13539379,9.99535957 4.25264569,9.95136054 4.35153679,9.86348397 L7.85149917,6.75595238 C7.95036291,6.66814869 8,6.56406706 8,6.44380466 C8,6.32359086 7.95039027,6.21958212 7.85149917,6.13168124 C7.75260807,6.04382896 7.63535617,6 7.49993501,6 Z" id="Path" fill="#000000" fill-rule="nonzero"></path>
                        </g>
                    </g>
                </g>
            </g>
        </g>
    </g>
</svg>