<?xml version="1.0" encoding="UTF-8"?>
<svg width="42px" height="40px" viewBox="0 0 42 40" version="1.1" xmlns="http://www.w3.org/2000/svg" xmlns:xlink="http://www.w3.org/1999/xlink">
    <title>Group 28</title>
    <g id="Page-1" stroke="none" stroke-width="1" fill="none" fill-rule="evenodd">
        <g id="site/shift-management_03" transform="translate(-319.000000, -406.000000)">
            <g id="personal_details-DL" transform="translate(280.000000, 118.000000)">
                <g id="Group-23" transform="translate(39.000000, 267.000000)">
                    <g id="Group-18" transform="translate(0.000000, 21.000000)">
                        <g id="Group-28" transform="translate(0.670000, 0.000000)">
                            <path d="M4,0 L37,0 C39.209139,-4.05812251e-16 41,1.790861 41,4 L41,36 C41,38.209139 39.209139,40 37,40 L4,40 C1.790861,40 2.705415e-16,38.209139 0,36 L0,4 C-2.705415e-16,1.790861 1.790861,4.05812251e-16 4,0 Z" id="input" fill="#FFF1F2"></path>
                            <g id="icon-/-16-/-info-/-time" transform="translate(13.000000, 12.000000)" fill="#F5A996" fill-rule="nonzero">
                                <g id="Mask">
                                    <path d="M8,16 C3.581722,16 0,12.418278 0,8 C0,3.581722 3.581722,0 8,0 C12.418278,0 16,3.581722 16,8 C16,12.418278 12.418278,16 8,16 Z M8,1.06666667 C4.17082573,1.06666667 1.06666667,4.17082573 1.06666667,8 C1.06666667,11.8291743 4.17082573,14.9333333 8,14.9333333 C11.8291743,14.9333333 14.9333333,11.8291743 14.9333333,8 C14.9333333,6.16116567 14.2028592,4.39764521 12.902607,3.09739298 C11.6023548,1.79714076 9.83883433,1.06666667 8,1.06666667 Z" id="Shape"></path>
                                    <path d="M10.4277693,12 C10.2578479,12.0002676 10.0966221,11.926966 9.9878724,11.7999993 L7.13139887,8.46666619 C7.0462296,8.36671505 6.99974029,8.2409174 7,8.11111066 L7,2.55555551 C7,2.24873068 7.25577844,2 7.5712958,2 C7.88681315,2 8.1425905,2.24873068 8.1425905,2.55555551 L8.1425905,7.91111067 L10.8676662,11.0888882 C11.0096287,11.2546301 11.0401023,11.4853007 10.9458307,11.6805553 C10.8515591,11.8758098 10.6495848,12.00035 10.4277693,12 Z" id="Path"></path>
                                </g>
                            </g>
                        </g>
                    </g>
                </g>
            </g>
        </g>
    </g>
</svg>