<?xml version="1.0" encoding="UTF-8"?>
<svg width="48px" height="48px" viewBox="0 0 48 48" version="1.1" xmlns="http://www.w3.org/2000/svg" xmlns:xlink="http://www.w3.org/1999/xlink">
    <!-- Generator: Sketch 62 (91390) - https://sketch.com -->
    <title>Group</title>
    <desc>Created with Sketch.</desc>
    <g id="📤-excel-uploade" stroke="none" stroke-width="1" fill="none" fill-rule="evenodd">
        <g id="excel-uploade_updated_04-A1" transform="translate(-696.000000, -315.000000)">
            <g id="popup" transform="translate(504.000000, 267.000000)">
                <g id="Group" transform="translate(192.000000, 48.000000)">
                    <circle id="Oval" fill="#FDEBEC" cx="24" cy="24" r="24"></circle>
                    <g id="noun_Stop_1279170" transform="translate(14.000000, 14.000000)" fill="#EE3942">
                        <rect id="Rectangle" x="6.5" y="6.5" width="7" height="7" rx="1"></rect>
                        <path d="M10,0 C4.4771525,0 0,4.4771525 0,10 C0,15.5228475 4.4771525,20 10,20 C15.5228475,20 20,15.5228475 20,10 C20,7.3478351 18.9464316,4.80429597 17.0710678,2.92893219 C15.195704,1.0535684 12.6521649,0 10,0 Z M10,18.3333333 C5.39762708,18.3333333 1.66666667,14.6023729 1.66666667,10 C1.66666667,5.39762708 5.39762708,1.66666667 10,1.66666667 C14.6023729,1.66666667 18.3333333,5.39762708 18.3333333,10 C18.3333333,14.6023729 14.6023729,18.3333333 10,18.3333333 L10,18.3333333 Z" id="Shape"></path>
                    </g>
                </g>
            </g>
        </g>
    </g>
</svg>