<?xml version="1.0" encoding="UTF-8"?>
<svg width="24px" height="24px" viewBox="0 0 24 24" version="1.1" xmlns="http://www.w3.org/2000/svg" xmlns:xlink="http://www.w3.org/1999/xlink">
    <!-- Generator: sketchtool 63.1 (101010) - https://sketch.com -->
    <title>4238B139-FB0D-4E48-B796-F3A4D7346652</title>
    <desc>Created with sketchtool.</desc>
    <defs>
        <path d="M10.4352174,1.73913043 L10.4352174,8.69565217 C10.4352174,8.89521739 10.2995652,9.06913043 10.1056522,9.1173913 L6.6273913,9.98695652 C6.5473913,10.0073913 6.4626087,10.003913 6.38434783,9.97782609 L3.89565217,9.14826087 L0.54,9.9873913 C0.505217391,9.99565217 0.47,10 0.434782609,10 C0.338695652,10 0.244347826,9.96826087 0.167391304,9.90782609 C0.0617391304,9.82565217 1.50990331e-14,9.69913043 1.50990331e-14,9.56521739 L1.50990331e-14,2.60869565 L0.869565217,2.60869565 L0.869565217,9.00826087 L3.80782609,8.27391304 C3.88782609,8.25347826 3.9726087,8.25695652 4.05086957,8.28304348 L6.53956522,9.1126087 L9.56565217,8.35608696 L9.56565217,1.73913043 L10.4352174,1.73913043 Z M5.2173913,-2.22044605e-15 C6.71304348,-2.22044605e-15 8.26086957,1.13826087 8.26086957,3.04347826 C8.26086957,4.7773913 5.81130435,7.39826087 5.53217391,7.69130435 C5.45,7.7773913 5.33608696,7.82608696 5.2173913,7.82608696 C5.09869565,7.82608696 4.98478261,7.7773913 4.9026087,7.69130435 C4.62347826,7.39826087 2.17391304,4.7773913 2.17391304,3.04347826 C2.17391304,1.13826087 3.72173913,-2.22044605e-15 5.2173913,-2.22044605e-15 Z M5.2173913,2.17391304 C4.73695652,2.17391304 4.34782609,2.56304348 4.34782609,3.04347826 C4.34782609,3.52391304 4.73695652,3.91304348 5.2173913,3.91304348 C5.69782609,3.91304348 6.08695652,3.52391304 6.08695652,3.04347826 C6.08695652,2.56304348 5.69782609,2.17391304 5.2173913,2.17391304 Z" id="path-1"></path>
    </defs>
    <g id="🖥-Ops_analyst-" stroke="none" stroke-width="1" fill="none" fill-rule="evenodd">
        <g id="physical-verification_01" transform="translate(-833.000000, -761.000000)">
            <g id="pan-details-copy" transform="translate(160.000000, 284.000000)">
                <g id="street" transform="translate(584.000000, 274.000000)">
                    <g id="Group-9" transform="translate(89.000000, 203.000000)">
                        <g id="thumbnail">
                            <rect id="Rectangle" fill="#E5EEF7" x="0" y="0" width="24" height="24" rx="12"></rect>
                            <g id="icon-/-24-/-info-/-address-list" transform="translate(7.000000, 7.000000)">
                                <mask id="mask-2" fill="white">
                                    <use xlink:href="#path-1"></use>
                                </mask>
                                <use id="Combined-Shape" fill="#000000" fill-rule="nonzero" xlink:href="#path-1"></use>
                                <rect id="Rectangle" fill="#0059B2" mask="url(#mask-2)" x="-1" y="-1" width="12" height="12"></rect>
                            </g>
                        </g>
                    </g>
                </g>
            </g>
        </g>
    </g>
</svg>