<?xml version="1.0" encoding="UTF-8"?>
<svg width="16px" height="18px" viewBox="0 0 16 18" version="1.1" xmlns="http://www.w3.org/2000/svg" xmlns:xlink="http://www.w3.org/1999/xlink">
    <title>5DB9F41A-7EE0-419A-9791-99C496935684</title>
    <g id="profile-view-mode" stroke="none" stroke-width="1" fill="none" fill-rule="evenodd">
        <g id="profile-view_mode_updated-1" transform="translate(-507.000000, -985.000000)" fill-rule="nonzero">
            <g id="Group-29" transform="translate(157.000000, 877.000000)">
                <g id="Group-26" transform="translate(43.000000, 37.000000)">
                    <g id="Group-5" transform="translate(0.000000, 60.000000)">
                        <g id="ivr-copy-4" transform="translate(299.000000, 0.000000)">
                            <g id="email-copy" transform="translate(4.000000, 8.000000)">
                                <rect id="Rectangle" fill="#F5F5F4" opacity="0" x="0" y="0" width="24" height="24" rx="2"></rect>
                                <g id="boss-(1)" transform="translate(4.000000, 3.000000)" fill="#8697A8">
                                    <path d="M1.70649351,7.07615584 L5.02888312,7.07615584 C5.14364358,7.07615584 5.23667532,6.9831241 5.23667532,6.86836364 C5.23667532,6.75360317 5.14364358,6.66057143 5.02888312,6.66057143 L1.70649351,6.66057143 C1.59173304,6.66057143 1.4987013,6.75360317 1.4987013,6.86836364 C1.4987013,6.9831241 1.59173304,7.07615584 1.70649351,7.07615584 Z" id="Path"></path>
                                    <path d="M7.56207792,10.0037749 L9.44786147,10.0037749 C9.56262194,10.0037749 9.65565368,9.91074315 9.65565368,9.79598268 C9.65565368,9.68122222 9.56262194,9.58819048 9.44786147,9.58819048 L7.56207792,9.58819048 C7.44731745,9.58819048 7.35428571,9.68122222 7.35428571,9.79598268 C7.35428571,9.91074315 7.44731745,10.0037749 7.56207792,10.0037749 L7.56207792,10.0037749 Z" id="Path"></path>
                                    <path d="M1.70649351,8.82133333 L5.02888312,8.82133333 C5.14364358,8.82133333 5.23667532,8.72830159 5.23667532,8.61354113 C5.23667532,8.49878066 5.14364358,8.40574892 5.02888312,8.40574892 L1.70649351,8.40574892 C1.59173304,8.40574892 1.4987013,8.49878066 1.4987013,8.61354113 C1.4987013,8.72830159 1.59173304,8.82133333 1.70649351,8.82133333 Z" id="Path"></path>
                                    <path d="M1.70649351,10.5665108 L5.02888312,10.5665108 C5.14364358,10.5665108 5.23667532,10.4734791 5.23667532,10.3587186 C5.23667532,10.2439581 5.14364358,10.1509264 5.02888312,10.1509264 L1.70649351,10.1509264 C1.59173304,10.1509264 1.4987013,10.2439581 1.4987013,10.3587186 C1.4987013,10.4734791 1.59173304,10.5665108 1.70649351,10.5665108 Z" id="Path"></path>
                                    <path d="M1.70649351,12.3116883 L5.02888312,12.3116883 C5.14364358,12.3116883 5.23667532,12.2186566 5.23667532,12.1038961 C5.23667532,11.9891356 5.14364358,11.8961039 5.02888312,11.8961039 L1.70649351,11.8961039 C1.59173304,11.8961039 1.4987013,11.9891356 1.4987013,12.1038961 C1.4987013,12.2186566 1.59173304,12.3116883 1.70649351,12.3116883 Z" id="Path"></path>
                                    <path d="M1.70649351,14.0569004 L5.02888312,14.0569004 C5.14364358,14.0569004 5.23667532,13.9638687 5.23667532,13.8491082 C5.23667532,13.7343478 5.14364358,13.641316 5.02888312,13.641316 L1.70649351,13.641316 C1.59173304,13.641316 1.4987013,13.7343478 1.4987013,13.8491082 C1.4987013,13.9638687 1.59173304,14.0569004 1.70649351,14.0569004 L1.70649351,14.0569004 Z" id="Path"></path>
                                    <path d="M7.56207792,11.7137662 L9.44786147,11.7137662 C9.56262194,11.7137662 9.65565368,11.6207345 9.65565368,11.505974 C9.65565368,11.3912136 9.56262194,11.2981818 9.44786147,11.2981818 L7.56207792,11.2981818 C7.44731745,11.2981818 7.35428571,11.3912136 7.35428571,11.505974 C7.35428571,11.6207345 7.44731745,11.7137662 7.56207792,11.7137662 L7.56207792,11.7137662 Z" id="Path"></path>
                                    <path d="M7.72841558,13.0082078 L7.56218182,13.0082078 C7.44742135,13.0082078 7.35438961,13.1012395 7.35438961,13.216 C7.35438961,13.3307605 7.44742135,13.4237922 7.56218182,13.4237922 L7.72841558,13.4237922 C7.84317605,13.4237922 7.93620779,13.3307605 7.93620779,13.216 C7.93620779,13.1012395 7.84317605,13.0082078 7.72841558,13.0082078 L7.72841558,13.0082078 Z" id="Path"></path>
                                    <path d="M7.56207792,8.29378355 L9.44786147,8.29378355 C9.56262194,8.29378355 9.65565368,8.20075181 9.65565368,8.08599134 C9.65565368,7.97123087 9.56262194,7.87819913 9.44786147,7.87819913 L7.56207792,7.87819913 C7.44731745,7.87819913 7.35428571,7.97123087 7.35428571,8.08599134 C7.35428571,8.20075181 7.44731745,8.29378355 7.56207792,8.29378355 L7.56207792,8.29378355 Z" id="Path"></path>
                                    <path d="M7.56207792,6.58379221 L9.44786147,6.58379221 C9.56262194,6.58379221 9.65565368,6.49076047 9.65565368,6.376 C9.65565368,6.26123953 9.56262194,6.16820779 9.44786147,6.16820779 L7.56207792,6.16820779 C7.44731746,6.16820779 7.35428573,6.26123954 7.35428573,6.376 C7.35428573,6.49076046 7.44731746,6.58379221 7.56207792,6.58379221 L7.56207792,6.58379221 Z" id="Path"></path>
                                    <path d="M1.70649351,5.33097835 L5.02888312,5.33097835 C5.14364358,5.33097835 5.23667532,5.23794661 5.23667532,5.12318615 C5.23667532,5.00842568 5.14364358,4.91539394 5.02888312,4.91539394 L1.70649351,4.91539394 C1.59173304,4.91539394 1.4987013,5.00842568 1.4987013,5.12318615 C1.4987013,5.23794661 1.59173304,5.33097835 1.70649351,5.33097835 L1.70649351,5.33097835 Z" id="Path"></path>
                                    <path d="M13.9852814,12.0236883 L13.3391515,12.0236883 C13.2006607,12.0235356 13.0884297,11.9113047 13.0882771,11.7728139 C13.0882368,11.7496893 13.0843271,11.7267345 13.07671,11.7049004 L13.07671,11.181645 C13.460861,10.8533495 13.6820422,10.373339 13.6820087,9.86801732 L13.6820087,8.82704762 C13.6809208,7.87116136 12.9062932,7.09653374 11.9504069,7.09544589 L11.9315671,7.09544589 C11.6182127,7.09514353 11.3107208,7.18038965 11.0422511,7.34199134 L11.0422511,4.64578355 C11.0422511,4.53102308 10.9492193,4.43799134 10.8344589,4.43799134 L6.71726407,4.43799134 L6.71726407,3.16190476 C6.71726407,3.04714429 6.62423233,2.95411255 6.50947186,2.95411255 L5.83203463,2.95411255 L5.83203463,1.43754113 C5.83203463,1.32278066 5.73900289,1.22974892 5.62424242,1.22974892 L3.59341991,1.22974892 L3.59341991,0.207792208 C3.59341991,0.0930317403 3.50038817,0 3.38562771,0 C3.27086724,0 3.1778355,0.0930317403 3.1778355,0.207792208 L3.1778355,1.22974892 L1.1111342,1.22974892 C0.996373732,1.22974892 0.903341991,1.32278066 0.903341991,1.43754113 L0.903341991,2.95411255 L0.225939394,2.95411255 C0.111178926,2.95411255 0.0181471861,3.04714429 0.0181471861,3.16190476 L0.0181471861,15.5443117 C0.0181471861,15.6590722 0.111178926,15.7521039 0.225939394,15.7521039 L7.90012121,15.7521039 L7.90012121,16.8311688 C7.90012121,16.9459293 7.99315295,17.038961 8.10791342,17.038961 L15.7740606,17.038961 C15.8888211,17.038961 15.9818528,16.9459293 15.9818528,16.8311688 L15.9818528,14.0202597 C15.9806123,12.9180981 15.0874431,12.0249289 13.9852814,12.0236883 Z M1.31892641,1.64533333 L5.41645022,1.64533333 L5.41645022,2.95411255 L1.31892641,2.95411255 L1.31892641,1.64533333 Z M6.30167965,15.3365195 L0.433731602,15.3365195 L0.433731602,3.36969697 L6.30167965,3.36969697 L6.30167965,15.3365195 Z M11.9504069,7.5110303 C12.676883,7.51185098 13.2656036,8.10057153 13.2664242,8.82704762 L13.2664242,9.86801732 C13.2656036,10.5944934 12.676883,11.183214 11.9504069,11.1840346 L11.9315671,11.1840346 C11.205091,11.183214 10.6163705,10.5944934 10.6155498,9.86801732 L10.6155498,8.82704762 C10.6163705,8.10057153 11.205091,7.51185098 11.9315671,7.5110303 L11.9504069,7.5110303 Z M11.9233939,13.2058874 L12.0058874,13.2058874 L12.368,15.2887965 L11.9350996,15.7944242 L11.5154286,15.2922597 L11.9233939,13.2058874 Z M11.7207965,12.4392727 L12.1611775,12.4392727 L12.0409004,12.790303 L11.8410736,12.790303 L11.7207965,12.4392727 Z M11.5231515,12.0236883 L11.2242424,11.6879654 L11.2242424,11.4480346 C11.4465697,11.5480939 11.6876228,11.5997633 11.9314286,11.599619 L11.9502684,11.599619 C12.1953801,11.5997593 12.4376936,11.5475347 12.660987,11.4464416 L12.660987,11.7438961 L12.3685195,12.0236883 L11.5231515,12.0236883 Z M6.71726407,15.3365887 L6.71726407,4.85357576 L10.6266667,4.85357576 L10.6266667,7.69066667 C10.3513727,8.00520551 10.1997323,8.40905076 10.1999654,8.82704762 L10.1999654,9.86801732 C10.1999349,10.3749706 10.4225309,10.8563628 10.8087965,11.1846926 L10.8087965,11.7249524 C10.8050001,11.740648 10.803059,11.756735 10.803013,11.7728831 C10.8028603,11.911374 10.6906294,12.0236049 10.5521385,12.0237576 L9.89669264,12.0237576 C8.79453096,12.0249981 7.90136177,12.9181673 7.90012121,14.020329 L7.90012121,15.3365887 L6.71726407,15.3365887 Z M15.5662684,16.6233766 L8.31570563,16.6233766 L8.31570563,14.0202597 C8.31664092,13.1474924 9.02392533,12.440208 9.89669264,12.4392727 L10.5521385,12.4392727 C10.7656512,12.439076 10.9660985,12.3364241 11.0910476,12.16329 L11.2468918,12.3383896 L11.5227706,13.0889697 L11.0885195,15.3097143 C11.0764942,15.3711916 11.0928449,15.4348131 11.1330216,15.4828745 L11.7737143,16.2495238 C11.8129176,16.2964271 11.8707849,16.3236886 11.9319134,16.3240519 L11.9331602,16.3240519 C11.993864,16.3240256 12.0515209,16.2974556 12.0909784,16.2513247 L12.7473939,15.4846753 C12.7876904,15.4375975 12.8048723,15.3749912 12.7942511,15.3139394 L12.3968485,13.0285714 L12.6323463,12.3465628 L12.8101126,12.1765195 C12.9313318,12.3359703 13.117939,12.4323206 13.3181299,12.4388225 C13.3220087,12.4390649 13.3259913,12.4391688 13.3299394,12.4391688 L13.9853853,12.4391688 C14.8581526,12.4401041 15.565437,13.1473885 15.5663723,14.0201558 L15.5662684,16.6233766 Z" id="Shape"></path>
                                    <path d="M14.4582511,13.9502684 L13.4742165,13.9502684 C13.359456,13.9502684 13.2664242,14.0433001 13.2664242,14.1580606 C13.2664242,14.2728211 13.359456,14.3658528 13.4742165,14.3658528 L14.4582511,14.3658528 C14.5730115,14.3658528 14.6660433,14.2728211 14.6660433,14.1580606 C14.6660433,14.0433001 14.5730115,13.9502684 14.4582511,13.9502684 L14.4582511,13.9502684 Z" id="Path"></path>
                                </g>
                            </g>
                        </g>
                    </g>
                </g>
            </g>
        </g>
    </g>
</svg>