<?xml version="1.0" encoding="UTF-8"?>
<svg width="88px" height="88px" viewBox="0 0 88 88" version="1.1" xmlns="http://www.w3.org/2000/svg" xmlns:xlink="http://www.w3.org/1999/xlink">
    <!-- Generator: sketchtool 57.1 (101010) - https://sketch.com -->
    <title>A65BA1BF-4EB8-43C5-A4ED-8F123B4C698B</title>
    <desc>Created with sketchtool.</desc>
    <defs>
        <circle id="path-1" cx="44" cy="44" r="44"></circle>
    </defs>
    <g id="🤖-BGV-OPs" stroke="none" stroke-width="1" fill="none" fill-rule="evenodd">
        <g id="01_BGV-OPs-dashboard-analyst_simple" transform="translate(-160.000000, -120.000000)">
            <g id="intro" transform="translate(160.000000, 120.000000)">
                <g id="persik">
                    <mask id="mask-2" fill="white">
                        <use xlink:href="#path-1"></use>
                    </mask>
                    <use id="Mask" fill="#FFFFFF" xlink:href="#path-1"></use>
                    <g id="sun-fog-43" mask="url(#mask-2)" fill-rule="nonzero">
                        <g transform="translate(21.000000, 22.000000)">
                            <circle id="Oval" fill="#FFB803" cx="23" cy="23" r="13"></circle>
                            <path d="M8.7998047,9.7998047 C8.5439453,9.7998047 8.2880859,9.7021485 8.0927735,9.5068359 L6.6928711,8.1074219 C6.3022461,7.7167969 6.3022461,7.0839844 6.6928711,6.6933594 C7.0825195,6.3027344 7.7163086,6.3027344 8.1069336,6.6933594 L9.5068359,8.0927735 C9.8974609,8.4833985 9.8974609,9.116211 9.5068359,9.506836 C9.3120117,9.7021484 9.0556641,9.7998047 8.7998047,9.7998047 Z" id="Path" fill="#FFB803"></path>
                            <path d="M23,4 C22.4477539,4 22,3.5527344 22,3 L22,1 C22,0.4472656 22.4477539,0 23,0 C23.5522461,0 24,0.4472656 24,1 L24,3 C24,3.5527344 23.5522461,4 23,4 Z" id="Path" fill="#FFB803"></path>
                            <path d="M37.2001953,9.7998047 C36.9443359,9.7998047 36.6884765,9.7021485 36.4931641,9.5068359 C36.1025391,9.1162109 36.1025391,8.4833984 36.4931641,8.0927734 L37.8930664,6.6933593 C38.2836914,6.3027343 38.9165039,6.3027343 39.3071289,6.6933593 C39.6977539,7.0839843 39.6977539,7.7167968 39.3071289,8.1074218 L37.9072266,9.5068359 C37.7119141,9.7021484 37.4560547,9.7998047 37.2001953,9.7998047 Z" id="Path" fill="#FFB803"></path>
                            <path d="M45,24 L43,24 C42.4477539,24 42,23.5527344 42,23 C42,22.4472656 42.4477539,22 43,22 L45,22 C45.5522461,22 46,22.4472656 46,23 C46,23.5527344 45.5522461,24 45,24 Z" id="Path" fill="#FFB803"></path>
                            <path d="M38.6000977,39.5996094 C38.3442383,39.5996094 38.0883789,39.5019532 37.8930665,39.3066406 L36.4931642,37.9072265 C36.1025392,37.5166015 36.1025392,36.883789 36.4931642,36.493164 C36.8828126,36.102539 37.5166017,36.102539 37.9072267,36.493164 L39.307129,37.8925781 C39.697754,38.2832031 39.697754,38.9160156 39.307129,39.3066406 C39.1123047,39.5019531 38.855957,39.5996094 38.6000977,39.5996094 Z" id="Path" fill="#FFB803"></path>
                            <path d="M15,36 L1,36 C0.4477539,36 0,35.5527344 0,35 C0,34.4472656 0.4477539,34 1,34 L15,34 C15.5522461,34 16,34.4472656 16,35 C16,35.5527344 15.5522461,36 15,36 Z" id="Path" fill="#6A54CD"></path>
                            <path d="M19,28 L5,28 C4.4477539,28 4,27.5527344 4,27 C4,26.4472656 4.4477539,26 5,26 L19,26 C19.5522461,26 20,26.4472656 20,27 C20,27.5527344 19.5522461,28 19,28 Z" id="Path" fill="#6A54CD"></path>
                            <path d="M25,44 L9,44 C8.4477539,44 8,43.5527344 8,43 C8,42.4472656 8.4477539,42 9,42 L25,42 C25.5522461,42 26,42.4472656 26,43 C26,43.5527344 25.5522461,44 25,44 Z" id="Path" fill="#6A54CD"></path>
                        </g>
                    </g>
                </g>
            </g>
        </g>
    </g>
</svg>