<?xml version="1.0" encoding="UTF-8"?>
<svg width="24px" height="24px" viewBox="0 0 24 24" version="1.1" xmlns="http://www.w3.org/2000/svg" xmlns:xlink="http://www.w3.org/1999/xlink">
    <!-- Generator: sketchtool 55.2 (78181) - https://sketchapp.com -->
    <title>B69667BD-7DF3-476F-8EF9-009BAF64570B</title>
    <desc>Created with sketchtool.</desc>
    <g id="👽-GBV-Client" stroke="none" stroke-width="1" fill="none" fill-rule="evenodd">
        <g id="BGV-Client-zomato-all-employee-B2" transform="translate(-13.000000, -568.000000)" fill-rule="nonzero">
            <g id="left-bar">
                <g id="side-bar">
                    <g id="support" transform="translate(13.000000, 568.000000)">
                        <path d="M12,3.01980663e-14 C5.372583,3.01980663e-14 3.01980663e-14,5.372583 3.01980663e-14,12 C3.01980663e-14,18.627417 5.372583,24 12,24 C18.627417,24 24,18.627417 24,12 C24,8.81740212 22.7357179,5.76515517 20.4852814,3.51471863 C18.2348448,1.26428208 15.1825979,3.01980663e-14 12,3.01980663e-14 Z" id="Path-Copy-6" fill="#F3F7FD"></path>
                        <g id="headphones-3" transform="translate(6.000000, 6.000000)" fill="#8697A8">
                            <path d="M6,0 C2.68766243,0.00330737898 0.00330737898,2.68766243 0,6 L0,10 C0,11.1045695 0.8954305,12 2,12 L4,12 L4,7 L2,7 L2,6 C2,3.790861 3.790861,2 6,2 C8.209139,2 10,3.790861 10,6 L10,7 L8,7 L8,12 L10,12 C11.1045695,12 12,11.1045695 12,10 L12,6 C11.9966926,2.68766243 9.31233757,0.00330737898 6,0 Z" id="Path"></path>
                        </g>
                    </g>
                </g>
            </g>
        </g>
    </g>
</svg>