<?xml version="1.0" encoding="UTF-8"?>
<svg width="16px" height="16px" viewBox="0 0 16 16" version="1.1" xmlns="http://www.w3.org/2000/svg" xmlns:xlink="http://www.w3.org/1999/xlink">
    <!-- Generator: sketchtool 57.1 (101010) - https://sketch.com -->
    <title>369B514E-645C-4C87-A980-B7D72076162E</title>
    <desc>Created with sketchtool.</desc>
    <g id="🚀-Initiate-BGV" stroke="none" stroke-width="1" fill="none" fill-rule="evenodd">
        <g id="BGV-Client-zomato-single-employee-initiateing_B2" transform="translate(-520.000000, -96.000000)" fill="#8697A8" fill-rule="nonzero">
            <g id="action-bar" transform="translate(160.000000, 96.000000)">
                <g id="deploy-copy" transform="translate(360.000000, 0.000000)">
                    <path d="M8,0 C3.581722,0 0,3.581722 0,8 C0,12.418278 3.581722,16 8,16 C12.418278,16 16,12.418278 16,8 C15.9952234,3.58370203 12.416298,0.00477656508 8,0 Z M8,1.99999305 C9.24489724,1.99999305 10.4585438,2.38983815 11.4706667,3.11466667 L3.11466667,11.4706667 C1.81040522,9.64311816 1.63753986,7.23969379 2.66683802,5.24430492 C3.69613618,3.24891605 5.75477845,1.99658896 8,1.99999305 L8,1.99999305 Z M8,14.000007 C6.75510276,14.000007 5.54145623,13.6101619 4.52933333,12.8853333 L12.8853333,4.52933333 C14.1895948,6.35688184 14.3624601,8.76030621 13.333162,10.7556951 C12.3038638,12.751084 10.2452216,14.003411 8,14.000007 Z" id="Shape"></path>
                </g>
            </g>
        </g>
    </g>
</svg>