<?xml version="1.0" encoding="UTF-8"?>
<svg width="12px" height="12px" viewBox="0 0 12 12" version="1.1" xmlns="http://www.w3.org/2000/svg" xmlns:xlink="http://www.w3.org/1999/xlink">
    <!-- Generator: sketchtool 57.1 (101010) - https://sketch.com -->
    <title>B46C4DE0-F187-4288-9366-07386B3E1A29</title>
    <desc>Created with sketchtool.</desc>
    <g id="Employee-termination" stroke="none" stroke-width="1" fill="none" fill-rule="evenodd">
        <g id="BGV-Client-zomato-add-employee-Pan-number-already-exist_terminate_3" transform="translate(-376.000000, -277.000000)" fill="#EE3942">
            <g id="section" transform="translate(160.000000, 167.000000)">
                <g id="profile-info" transform="translate(200.000000, 39.000000)">
                    <g id="edit--copy" transform="translate(0.000000, 64.000000)">
                        <g id="Group-9" transform="translate(16.000000, 6.000000)">
                            <g id="Group-5" transform="translate(6.000000, 7.000000) rotate(180.000000) translate(-6.000000, -7.000000) translate(0.000000, 1.000000)">
                                <path d="M6,12 C9.3137085,12 12,9.3137085 12,6 C12,2.6862915 9.3137085,0 6,0 C2.6862915,0 0,2.6862915 0,6 C0,9.3137085 2.6862915,12 6,12 Z M6,10.6666667 C3.42267117,10.6666667 1.33333333,8.57732883 1.33333333,6 C1.33333333,3.42267117 3.42267117,1.33333333 6,1.33333333 C8.57732883,1.33333333 10.6666667,3.42267117 10.6666667,6 C10.6666667,8.57732883 8.57732883,10.6666667 6,10.6666667 Z" id="Oval" fill-rule="nonzero"></path>
                                <polygon id="Rectangle" points="0.666666667 5.33333333 11.3333333 5.33333333 11.3333333 6.66666667 0.666666667 6.66666667"></polygon>
                            </g>
                        </g>
                    </g>
                </g>
            </g>
        </g>
    </g>
</svg>