<?xml version="1.0" encoding="UTF-8"?>
<svg width="168px" height="112px" viewBox="0 0 168 112" version="1.1" xmlns="http://www.w3.org/2000/svg" xmlns:xlink="http://www.w3.org/1999/xlink">
    <title>B0CA83F3-ED7F-4873-A9CA-E3FA56EFE530</title>
    <defs>
        <linearGradient x1="50%" y1="0%" x2="50%" y2="100%" id="linearGradient-1">
            <stop stop-color="#FCD4D6" offset="0%"></stop>
            <stop stop-color="#F59296" offset="100%"></stop>
        </linearGradient>
    </defs>
    <g id="🧰-Employee-termination" stroke="none" stroke-width="1" fill="none" fill-rule="evenodd">
        <g id="multiple-employee-termination_03" transform="translate(-176.000000, -178.000000)">
            <g id="action-bar-/-with-label_notification" transform="translate(160.000000, 121.000000)">
                <g id="termination" transform="translate(16.000000, 57.000000)">
                    <path d="M8,0 L160,0 C164.418278,-8.11624501e-16 168,3.581722 168,8 L168,104 C168,108.418278 164.418278,112 160,112 L8,112 C3.581722,112 5.41083001e-16,108.418278 0,104 L0,8 C-5.41083001e-16,3.581722 3.581722,8.11624501e-16 8,0 Z" id="Rectangle" fill="#FDEBEC"></path>
                    <g id="Group-50" transform="translate(18.186215, 8.317381)">
                        <g id="Group-52" transform="translate(0.035799, -0.000000)">
                            <g id="Group-15" transform="translate(3.973643, 5.806452)" fill="#F26C72" fill-rule="nonzero">
                                <path d="M2.99208019,-4.46753745e-13 C3.26310782,-4.46753745e-13 3.4838882,0.215133979 3.49296975,0.483950333 L3.49326037,0.501180173 L3.49326037,5.48298022 C3.49326037,5.75977438 3.26887436,5.98416039 2.99208019,5.98416039 C2.72105257,5.98416039 2.50027218,5.76902641 2.49119064,5.50021006 L2.49090002,5.48298022 L2.49090002,0.501180173 C2.49090002,0.224386007 2.71528603,-4.46753745e-13 2.99208019,-4.46753745e-13 Z" id="Path-4"></path>
                                <path d="M5.48298022,2.49090002 C5.75977438,2.49090002 5.98416039,2.71528603 5.98416039,2.99208019 C5.98416039,3.26310782 5.76902641,3.4838882 5.50021006,3.49296975 L5.48298022,3.49326037 L0.501180173,3.49326037 C0.224386007,3.49326037 2.22044605e-15,3.26887436 2.22044605e-15,2.99208019 C2.22044605e-15,2.72105257 0.215133979,2.50027218 0.483950333,2.49119064 L0.501180173,2.49090002 L5.48298022,2.49090002 Z" id="Path-4"></path>
                            </g>
                            <g id="Group-21" transform="translate(17.035799, 87.900079)" fill="#F26C72" fill-rule="nonzero">
                                <path d="M2.99208019,-4.76063633e-13 C3.26310782,-4.76063633e-13 3.4838882,0.215133979 3.49296975,0.483950333 L3.49326037,0.501180173 L3.49326037,5.48298022 C3.49326037,5.75977438 3.26887436,5.98416039 2.99208019,5.98416039 C2.72105257,5.98416039 2.50027218,5.76902641 2.49119064,5.50021006 L2.49090002,5.48298022 L2.49090002,0.501180173 C2.49090002,0.224386007 2.71528603,-4.76063633e-13 2.99208019,-4.76063633e-13 Z" id="Path-4"></path>
                                <path d="M5.48298022,2.49090002 C5.75977438,2.49090002 5.98416039,2.71528603 5.98416039,2.99208019 C5.98416039,3.26310782 5.76902641,3.4838882 5.50021006,3.49296975 L5.48298022,3.49326037 L0.501180173,3.49326037 C0.224386007,3.49326037 8.43769499e-15,3.26887436 8.43769499e-15,2.99208019 C8.43769499e-15,2.72105257 0.215133979,2.50027218 0.483950333,2.49119064 L0.501180173,2.49090002 L5.48298022,2.49090002 Z" id="Path-4"></path>
                            </g>
                            <g id="Group-26" transform="translate(64.349725, 89.475216)" fill="#F26C72" fill-rule="nonzero">
                                <path d="M2.99208019,-4.90274488e-13 C3.26310782,-4.90274488e-13 3.4838882,0.215133979 3.49296975,0.483950333 L3.49326037,0.501180173 L3.49326037,5.48298022 C3.49326037,5.75977438 3.26887436,5.98416039 2.99208019,5.98416039 C2.72105257,5.98416039 2.50027218,5.76902641 2.49119064,5.50021006 L2.49090002,5.48298022 L2.49090002,0.501180173 C2.49090002,0.224386007 2.71528603,-4.90274488e-13 2.99208019,-4.90274488e-13 Z" id="Path-4"></path>
                                <path d="M5.48298022,2.49090002 C5.75977438,2.49090002 5.98416039,2.71528603 5.98416039,2.99208019 C5.98416039,3.26310782 5.76902641,3.4838882 5.50021006,3.49296975 L5.48298022,3.49326037 L0.501180173,3.49326037 C0.224386007,3.49326037 -3.55271368e-15,3.26887436 -3.55271368e-15,2.99208019 C-3.55271368e-15,2.72105257 0.215133979,2.50027218 0.483950333,2.49119064 L0.501180173,2.49090002 L5.48298022,2.49090002 Z" id="Path-4"></path>
                            </g>
                            <path d="M62.2506329,0.013075058 C60.9259751,0.013075058 59.8521278,1.08692238 59.8521278,2.41158017 C59.8521278,3.73623797 60.9259751,4.81008529 62.2506329,4.81008529 C63.5752907,4.81008529 64.6491381,3.73623797 64.6491381,2.41158017 C64.6491381,1.08692238 63.5752907,0.013075058 62.2506329,0.013075058 Z M62.2506329,0.800643901 C63.1403285,0.800643901 63.8615692,1.52188464 63.8615692,2.41158017 C63.8615692,3.30127571 63.1403285,4.02251644 62.2506329,4.02251644 C61.3609374,4.02251644 60.6396967,3.30127571 60.6396967,2.41158017 C60.6396967,1.52188464 61.3609374,0.800643901 62.2506329,0.800643901 Z" id="Oval" fill="#F26C72" fill-rule="nonzero"></path>
                            <path d="M2.96031037,63.9902584 C1.3588584,63.9902584 0.0606250788,65.2884917 0.0606250788,66.8899437 C0.0606250788,68.4913956 1.3588584,69.789629 2.96031037,69.789629 C4.56176233,69.789629 5.85999565,68.4913956 5.85999565,66.8899437 C5.85999565,65.2884917 4.56176233,63.9902584 2.96031037,63.9902584 Z M2.96031037,64.7778272 C4.12680007,64.7778272 5.07242681,65.723454 5.07242681,66.8899437 C5.07242681,68.0564334 4.12680007,69.0020601 2.96031037,69.0020601 C1.79382066,69.0020601 0.848193922,68.0564334 0.848193922,66.8899437 C0.848193922,65.723454 1.79382066,64.7778272 2.96031037,64.7778272 Z" id="Oval-Copy-4" fill="#F26C72" fill-rule="nonzero"></path>
                            <path d="M40.5873757,88.7723197 C39.420886,88.7723197 38.4752592,89.7179465 38.4752592,90.8844362 C38.4752592,92.0509259 39.420886,92.9965526 40.5873757,92.9965526 C41.7538654,92.9965526 42.6994921,92.0509259 42.6994921,90.8844362 C42.6994921,89.7179465 41.7538654,88.7723197 40.5873757,88.7723197 Z M40.5873757,89.5598886 C41.3189031,89.5598886 41.9119233,90.1529088 41.9119233,90.8844362 C41.9119233,91.6159636 41.3189031,92.2089838 40.5873757,92.2089838 C39.8558482,92.2089838 39.2628281,91.6159636 39.2628281,90.8844362 C39.2628281,90.1529088 39.8558482,89.5598886 40.5873757,89.5598886 Z" id="Oval-Copy-5" fill="#F26C72" fill-rule="nonzero"></path>
                            <path d="M127.440247,69.8895503 C126.273758,69.8895503 125.328131,70.835177 125.328131,72.0016667 C125.328131,73.1681564 126.273758,74.1137832 127.440247,74.1137832 C128.606737,74.1137832 129.552364,73.1681564 129.552364,72.0016667 C129.552364,70.835177 128.606737,69.8895503 127.440247,69.8895503 Z M127.440247,70.6771191 C128.171775,70.6771191 128.764795,71.2701393 128.764795,72.0016667 C128.764795,72.7331942 128.171775,73.3262143 127.440247,73.3262143 C126.70872,73.3262143 126.1157,72.7331942 126.1157,72.0016667 C126.1157,71.2701393 126.70872,70.6771191 127.440247,70.6771191 Z" id="Oval-Copy-6" fill="#F26C72" fill-rule="nonzero"></path>
                            <g id="Group-14" transform="translate(98.420535, 84.900079)" fill="#F26C72" fill-rule="nonzero">
                                <path d="M2.99208019,-4.54747351e-13 C3.26310782,-4.54747351e-13 3.4838882,0.215133979 3.49296975,0.483950333 L3.49326037,0.501180173 L3.49326037,5.48298022 C3.49326037,5.75977438 3.26887436,5.98416039 2.99208019,5.98416039 C2.72105257,5.98416039 2.50027218,5.76902641 2.49119064,5.50021006 L2.49090002,5.48298022 L2.49090002,0.501180173 C2.49090002,0.224386007 2.71528603,-4.54747351e-13 2.99208019,-4.54747351e-13 Z" id="Path-4"></path>
                                <path d="M5.48298022,2.49090002 C5.75977438,2.49090002 5.98416039,2.71528603 5.98416039,2.99208019 C5.98416039,3.26310782 5.76902641,3.4838882 5.50021006,3.49296975 L5.48298022,3.49326037 L0.501180173,3.49326037 C0.224386007,3.49326037 -6.39488462e-14,3.26887436 -6.39488462e-14,2.99208019 C-6.39488462e-14,2.72105257 0.215133979,2.50027218 0.483950333,2.49119064 L0.501180173,2.49090002 L5.48298022,2.49090002 Z" id="Path-4"></path>
                            </g>
                            <g id="Group-6" transform="translate(104.404013, 1.649095)" fill="#F26C72" fill-rule="nonzero">
                                <path d="M2.99208019,-4.36983782e-13 C3.26310782,-4.36983782e-13 3.4838882,0.215133979 3.49296975,0.483950333 L3.49326037,0.501180173 L3.49326037,5.48298022 C3.49326037,5.75977438 3.26887436,5.98416039 2.99208019,5.98416039 C2.72105257,5.98416039 2.50027218,5.76902641 2.49119064,5.50021006 L2.49090002,5.48298022 L2.49090002,0.501180173 C2.49090002,0.224386007 2.71528603,-4.36983782e-13 2.99208019,-4.36983782e-13 Z" id="Path-4"></path>
                                <path d="M5.48298022,2.49090002 C5.75977438,2.49090002 5.98416039,2.71528603 5.98416039,2.99208019 C5.98416039,3.26310782 5.76902641,3.4838882 5.50021006,3.49296975 L5.48298022,3.49326037 L0.501180173,3.49326037 C0.224386007,3.49326037 0,3.26887436 0,2.99208019 C0,2.72105257 0.215133979,2.50027218 0.483950333,2.49119064 L0.501180173,2.49090002 L5.48298022,2.49090002 Z" id="Path-4"></path>
                            </g>
                            <g id="Group-12" transform="translate(121.026357, 42.476003)" fill="#F26C72" fill-rule="nonzero">
                                <path d="M1.93443609,-4.33431069e-13 C2.20546279,0.000711565824 2.42567899,0.216423022 2.43405649,0.485262237 L2.43430198,0.50249278 L2.42680156,3.36637948 C2.42607664,3.6431727 2.20110375,3.86697028 1.92431053,3.86624712 C1.65328384,3.86553556 1.43306764,3.6498241 1.42469014,3.38098489 L1.42444465,3.36375434 L1.43194507,0.499867641 C1.43266998,0.223074424 1.65764288,-0.000723155947 1.93443609,-4.33431069e-13 Z" id="Path-4"></path>
                                <path d="M3.36506688,1.34534538 C3.64186104,1.34534538 3.86624705,1.56973138 3.86624705,1.84652555 C3.86624705,2.11755317 3.65111307,2.33833356 3.38229672,2.34741511 L3.36506688,2.34770572 L0.501180173,2.34770572 C0.224386007,2.34770572 1.33670852e-13,2.12331972 1.33670852e-13,1.84652555 C1.33670852e-13,1.57549793 0.215133979,1.35471754 0.483950333,1.34563599 L0.501180173,1.34534538 L3.36506688,1.34534538 Z" id="Path-4"></path>
                            </g>
                            <g id="Group-16" transform="translate(11.047600, 35.440598)" fill="#F26C72" fill-rule="nonzero">
                                <path d="M1.93443609,-3.73034936e-13 C2.20546279,0.000711565824 2.42567899,0.216423022 2.43405649,0.485262237 L2.43430198,0.50249278 L2.42680156,3.36637948 C2.42607664,3.6431727 2.20110375,3.86697028 1.92431053,3.86624712 C1.65328384,3.86553556 1.43306764,3.6498241 1.42469014,3.38098489 L1.42444465,3.36375434 L1.43194507,0.499867641 C1.43266998,0.223074424 1.65764288,-0.000723155947 1.93443609,-3.73034936e-13 Z" id="Path-4"></path>
                                <path d="M3.36506688,1.34534538 C3.64186104,1.34534538 3.86624705,1.56973138 3.86624705,1.84652555 C3.86624705,2.11755317 3.65111307,2.33833356 3.38229672,2.34741511 L3.36506688,2.34770572 L0.501180173,2.34770572 C0.224386007,2.34770572 6.92779167e-14,2.12331972 6.92779167e-14,1.84652555 C6.92779167e-14,1.57549793 0.215133979,1.35471754 0.483950333,1.34563599 L0.501180173,1.34534538 L3.36506688,1.34534538 Z" id="Path-4"></path>
                            </g>
                            <g id="Group-51" transform="translate(29.719128, 16.322778)">
                                <rect id="Rectangle" fill="url(#linearGradient-1)" x="-4.06982779e-15" y="0" width="59.7120378" height="59.7120378" rx="9"></rect>
                                <g id="Group" transform="translate(11.653456, 15.226489)" fill="#FFFFFF">
                                    <path d="M6.9420375,12.2646425 C8.6744503,12.2646425 10.5342583,9.96300839 10.5342583,7.59848807 C10.5342583,5.23356202 8.92640073,3.70157356 6.9420375,3.70157356 C4.95848571,3.70157356 3.34981668,5.23356202 3.34981668,7.59848807 C3.3502224,9.96300839 5.15323,12.2646425 6.9420375,12.2646425 Z" id="Path"></path>
                                    <path d="M29.4285122,12.2646425 C31.160925,12.2646425 33.020733,9.96300839 33.020733,7.59848807 C33.020733,5.23356202 31.4124697,3.70157356 29.4285122,3.70157356 C27.4445547,3.70157356 25.8362914,5.23356202 25.8362914,7.59848807 C25.8362914,9.96300839 27.6397047,12.2646425 29.4285122,12.2646425 Z" id="Path"></path>
                                    <path d="M18.2461324,13.1734493 C20.9023635,13.1734493 23.754556,9.64330317 23.754556,6.01740782 C23.754556,2.39110674 21.2886063,0.0415979544 18.2461324,0.0415979544 C15.2040643,0.0415979544 12.7377089,2.39110674 12.7377089,6.01740782 C12.7377089,9.64330317 15.5030779,13.1734493 18.2461324,13.1734493 Z" id="Path"></path>
                                    <path d="M28.1005995,19.3472491 C27.4348175,18.0274508 26.9495796,17.3624802 26.0456415,16.422839 C25.26423,15.610593 22.9321671,14.4660645 21.4269559,14.9695597 C20.2264385,15.2324645 20.1696381,15.9238067 18.2465382,15.9238067 C16.3234382,15.9238067 16.2662321,15.2324645 15.0653089,14.9695597 C13.5600978,14.4660645 11.2284406,15.610593 10.4466234,16.422839 C9.54227957,17.3624802 9.05744742,18.0278565 8.39207107,19.3472491 C8.05816575,20.008974 7.36236061,21.9389712 7.7940438,22.7694744 C8.34013926,23.8202822 9.6696748,24.2552111 13.3239704,24.7019058 C15.5128151,24.9696793 18.2465382,24.9696793 18.2465382,24.9696793 C18.2465382,24.9696793 20.9794498,24.9696793 23.1687002,24.7019058 C26.8229958,24.2552111 28.1517199,23.8202822 28.6986268,22.7694744 C29.1307157,21.9389712 28.4345049,20.008974 28.1005995,19.3472491 Z" id="Path"></path>
                                    <path d="M35.8542625,16.2905751 C35.4209565,15.4296431 35.1040913,14.9967427 34.5145841,14.3832982 C34.0050031,13.8534314 32.4843748,13.1073173 31.5029447,13.4355426 C30.7190989,13.607161 30.68299,14.0579129 29.4289179,14.0579129 C28.1748458,14.0579129 28.1379255,13.607161 27.3548912,13.4355426 C26.565771,13.1718264 25.4297627,13.6022924 24.7489691,14.0562901 C25.6853645,14.4421272 26.5174907,14.977674 27.0128715,15.4925292 C28.0417705,16.562 28.5971975,17.3519315 29.2994941,18.7435418 C29.4354094,19.0133438 29.6187936,19.4494899 29.7831091,19.9537965 C30.373022,19.944465 31.5982882,19.909979 32.6381416,19.7825838 C35.0213249,19.4912788 35.8883428,19.2076824 36.2445625,18.5224259 C36.5261303,17.9807933 36.0725384,16.7218526 35.8542625,16.2905751 Z" id="Path"></path>
                                    <path d="M7.19398794,18.7431361 C7.89587884,17.3511201 8.4513058,16.5615943 9.48020483,15.4921235 C9.96219696,14.9914684 10.7630829,14.4709331 11.6686438,14.087936 C10.9943417,13.6225783 9.82384736,13.1661463 9.01646997,13.4359483 C8.23343562,13.6075667 8.19651534,14.0583186 6.94284894,14.0583186 C5.6883711,14.0583186 5.65145083,13.6075667 4.86882219,13.4359483 C3.88698636,13.1077231 2.3667637,13.8538371 1.85677708,14.3837039 C1.26726987,14.9967427 0.951216103,15.4300488 0.516692893,16.2909809 C0.299228429,16.7222583 -0.154363493,17.9811991 0.126798584,18.5224259 C0.483018358,19.2080881 1.34963047,19.4912788 3.73240808,19.7825838 C4.84731917,19.9189048 6.1744204,19.9489279 6.70428718,19.9554194 C6.9278374,19.2807115 7.17005062,18.7910108 7.19398794,18.7431361 Z" id="Path"></path>
                                </g>
                            </g>
                            <path d="M82.343046,15.8215981 L36.0912757,15.8215981 C32.0975313,15.8215981 28.8599618,19.0591676 28.8599618,23.052912 L28.8599618,69.3046823 C28.8599618,73.2984267 32.0975313,76.5359962 36.0912757,76.5359962 L82.343046,76.5359962 C86.3367904,76.5359962 89.5743599,73.2984267 89.5743599,69.3046823 L89.5743599,23.052912 C89.5743599,19.0591676 86.3367904,15.8215981 82.343046,15.8215981 Z M36.0912757,16.8239585 L82.343046,16.8239585 C85.7832021,16.8239585 88.5719996,19.612756 88.5719996,23.052912 L88.5719996,69.3046823 C88.5719996,72.7448384 85.7832021,75.5336359 82.343046,75.5336359 L36.0912757,75.5336359 C32.6511197,75.5336359 29.8623222,72.7448384 29.8623222,69.3046823 L29.8623222,23.052912 C29.8623222,19.612756 32.6511197,16.8239585 36.0912757,16.8239585 Z" id="Rectangle" fill="#EE3942" opacity="0.5" transform="translate(59.217161, 46.178797) rotate(12.000000) translate(-59.217161, -46.178797) "></path>
                        </g>
                    </g>
                </g>
            </g>
        </g>
    </g>
</svg>