<?xml version="1.0" encoding="UTF-8"?>
<svg width="40px" height="40px" viewBox="0 0 40 40" version="1.1" xmlns="http://www.w3.org/2000/svg" xmlns:xlink="http://www.w3.org/1999/xlink">
    <title>124B58CE-A2F1-41B5-BE34-CAB5DF98D988</title>
    <g id="📟--dashboard" stroke="none" stroke-width="1" fill="none" fill-rule="evenodd">
        <g id="onboarding_vs_time_monthly-a" transform="translate(-782.000000, -1014.000000)">
            <g id="Group-8" transform="translate(160.000000, 744.000000)">
                <g id="checks-level" transform="translate(24.000000, 84.000000)">
                    <g id="popular-job-roles" transform="translate(0.000000, 107.000000)">
                        <g id="Group-13" transform="translate(598.000000, 16.000000)">
                            <g id="popular-job-roles" transform="translate(0.000000, 51.000000)">
                                <g id="Group-4-Copy" transform="translate(0.000000, 12.000000)">
                                    <circle id="Oval" fill="#FDEBEC" cx="20" cy="20" r="20"></circle>
                                    <g id="noun_unemployment_787440" transform="translate(12.500000, 13.750000)" fill="#EE3942" fill-rule="nonzero">
                                        <path d="M7.51595745,9.30555556 C7.51595745,7.06790123 9.39893617,5.24691358 11.7287234,5.24691358 C12.7819149,5.24691358 13.7393617,5.61728395 14.4893617,6.25 L14.4893617,2.77777778 C14.4893617,2.33024691 14.1223404,1.97530864 13.6595745,1.97530864 L10.4361702,1.97530864 L10.4361702,1.49691358 C10.4361702,0.679012346 9.75,0.0308641975 8.92021277,0.0308641975 L5.61702128,0.0308641975 C4.7712766,0.0308641975 4.10106383,0.694444444 4.10106383,1.49691358 L4.10106383,1.97530864 L0.909574468,1.97530864 C0.446808511,1.97530864 0.079787234,2.33024691 0.079787234,2.77777778 L0.079787234,11.5123457 C0.079787234,11.9598765 0.446808511,12.3148148 0.909574468,12.3148148 L8.88829787,12.3148148 C8.05851064,11.5740741 7.51595745,10.5092593 7.51595745,9.30555556 Z M5.02659574,1.49691358 C5.02659574,1.1882716 5.29787234,0.925925926 5.61702128,0.925925926 L8.92021277,0.925925926 C9.2393617,0.925925926 9.5106383,1.1882716 9.5106383,1.49691358 L9.5106383,1.97530864 L5.02659574,1.97530864 L5.02659574,1.49691358 Z" id="Shape"></path>
                                        <path d="M8.47340426,9.16666667 C8.40957447,10.8333333 9.76595745,12.2685185 11.4893617,12.3611111 L11.5531915,12.3611111 C12.4148936,12.3919753 13.2287234,12.0987654 13.8510638,11.5277778 C14.4734043,10.9567901 14.8404255,10.2006173 14.856383,9.36728395 C14.9202128,7.70061728 13.5638298,6.2654321 11.8404255,6.17283951 L11.7765957,6.17283951 C10.0212766,6.12654321 8.53723404,7.4691358 8.47340426,9.16666667 Z M13.8510638,9.33641975 C13.8351064,9.83024691 13.643617,10.2777778 13.3244681,10.6481481 L10.9308511,7.28395062 C11.1861702,7.19135802 11.4574468,7.14506173 11.7446809,7.16049383 L11.7925532,7.16049383 C12.9734043,7.22222222 13.8989362,8.20987654 13.8510638,9.33641975 Z M9.49468085,9.19753086 C9.5106383,8.67283951 9.73404255,8.19444444 10.0851064,7.83950617 L12.4946809,11.2191358 C12.2234043,11.3271605 11.9202128,11.3888889 11.6010638,11.3734568 L11.5531915,11.3734568 C10.3882979,11.3117284 9.46276596,10.3395062 9.49468085,9.19753086 Z" id="Shape"></path>
                                    </g>
                                </g>
                            </g>
                        </g>
                    </g>
                </g>
            </g>
        </g>
    </g>
</svg>