<?xml version="1.0" encoding="UTF-8"?>
<svg width="32px" height="32px" viewBox="0 0 32 32" version="1.1" xmlns="http://www.w3.org/2000/svg" xmlns:xlink="http://www.w3.org/1999/xlink">
    <!-- Generator: Sketch 63.1 (92452) - https://sketch.com -->
    <title>Group 4</title>
    <desc>Created with Sketch.</desc>
    <g id="🖥-Ops_analyst-" stroke="none" stroke-width="1" fill="none" fill-rule="evenodd">
        <g id="postal-verification-task-3" transform="translate(-756.000000, -320.000000)">
            <g id="pan-details" transform="translate(160.000000, 284.000000)">
                <g id="inprogress" transform="translate(596.000000, 36.000000)">
                    <g id="Group-4">
                        <circle id="Oval" fill="#F4F7FB" cx="16" cy="16" r="16"></circle>
                        <g id="analog-stopwatch" transform="translate(10.000000, 6.000000)" fill="#8697A8">
                            <path d="M12.5930175,5.0015 L13.0375175,4.417 C13.2719825,4.109 13.2125175,3.66975 12.9044825,3.43525 L11.7600175,2.56375 C11.4519825,2.32925 11.01275,2.38875 10.7782325,2.69675 L10.3337675,3.2795 C11.0617675,3.64 11.7215,4.11425 12.3007325,4.6935 C12.404,4.795 12.50025,4.8965 12.5930175,5.0015 Z" id="Path"></path>
                            <path d="M7.00525,2.499 C7.3150175,2.499 7.6212675,2.51825 7.924,2.555 L7.924,1.75 L8.477,1.75 C8.863785,1.75 9.177,1.43675 9.177,1.05 L9.177,0.7 C9.177,0.31325 8.863785,0 8.477,0 L5.5335175,0 C5.14675,0 4.8335175,0.31325 4.8335175,0.7 L4.8335175,1.05 C4.8335175,1.43675 5.14675,1.75 5.5335175,1.75 L6.0865175,1.75 L6.0865175,2.555 C6.38925,2.51825 6.6955,2.499 7.00525,2.499 Z" id="Path"></path>
                            <path d="M7.00525,16.9855 C10.8675175,16.9855 13.9982325,13.8547675 13.9982325,9.9925 C13.9982325,8.23725 13.3525175,6.63425 12.2850175,5.4075 C11.6619825,4.69 10.8937675,4.102 10.0275175,3.6855 C9.3765,3.37225 8.66775,3.15875 7.924,3.06075 C7.6230175,3.0205 7.3167675,3.00125 7.00525,3.00125 C6.69375,3.00125 6.3875,3.02225 6.0865,3.06075 C2.65825,3.5105 0.01225,6.4435 0.01225,9.9925 C0.01225,13.85475 3.143,16.9855 7.00525,16.9855 Z M8.9319825,5.124 C9.8350175,5.481 10.6137675,6.08125 11.1894825,6.846 C11.7039825,7.5285 12.0557325,8.34225 12.1852325,9.22775 C12.2219825,9.478 12.24125,9.73525 12.24125,9.996 C12.3321592,12.2246718 11.1818259,13.9746718 8.79025,15.246 C8.04216191,15.5165027 7.44716191,15.6341612 7.00525,15.5989753 L6.972,15.5989753 L6.972,15.5727253 L6.972,9.56638482 L6.972,7.69475 L6.972,4.7565 C6.9825175,4.7565 6.9947675,4.7565 7.00525,4.7565 C7.2555,4.7565 7.50225,4.774 7.7419825,4.809 C8.1567675,4.86675 8.554,4.9735 8.9319825,5.124 Z" id="Shape"></path>
                        </g>
                    </g>
                </g>
            </g>
        </g>
    </g>
</svg>