<?xml version="1.0" encoding="UTF-8"?>
<svg width="92px" height="32px" viewBox="0 0 92 32" version="1.1" xmlns="http://www.w3.org/2000/svg" xmlns:xlink="http://www.w3.org/1999/xlink">
    <!-- Generator: Sketch 57.1 (83088) - https://sketch.com -->
    <title>timer</title>
    <desc>Created with Sketch.</desc>
    <g id="🤖-BGV-OPs" stroke="none" stroke-width="1" fill="none" fill-rule="evenodd">
        <g id="OpsTask_AddComments_12" transform="translate(-1092.000000, -248.000000)">
            <g id="timer" transform="translate(1092.000000, 248.000000)">
                <path d="M16,0 L76,0 C84.836556,-1.623249e-15 92,7.163444 92,16 C92,24.836556 84.836556,32 76,32 L16,32 C7.163444,32 1.082166e-15,24.836556 0,16 C-1.082166e-15,7.163444 7.163444,1.623249e-15 16,0 Z" id="Rectangle" fill="#F1EDFB"></path>
                <g>
                    <circle id="Oval" fill="#6A54CD" cx="16" cy="16" r="16"></circle>
                    <g id="analog-stopwatch" transform="translate(8.000000, 6.000000)" fill="#FFFFFF" fill-rule="nonzero">
                        <path d="M14.39202,5.716 L14.90002,5.048 C15.16798,4.696 15.10002,4.194 14.74798,3.926 L13.44002,2.93 C13.08798,2.662 12.586,2.73 12.31798,3.082 L11.81002,3.748 C12.64202,4.16 13.396,4.702 14.05798,5.364 C14.176,5.48 14.286,5.596 14.39202,5.716 Z" id="Path"></path>
                        <path d="M8.006,2.856 C8.36002,2.856 8.71002,2.878 9.056,2.92 L9.056,2 L9.688,2 C10.13004,2 10.488,1.642 10.488,1.2 L10.488,0.8 C10.488,0.358 10.13004,0 9.688,0 L6.32402,0 C5.882,0 5.52402,0.358 5.52402,0.8 L5.52402,1.2 C5.52402,1.642 5.882,2 6.32402,2 L6.95602,2 L6.95602,2.92 C7.302,2.878 7.652,2.856 8.006,2.856 Z" id="Path"></path>
                        <path d="M8.006,19.412 C12.42002,19.412 15.99798,15.83402 15.99798,11.42 C15.99798,9.414 15.26002,7.582 14.04002,6.18 C13.32798,5.36 12.45002,4.688 11.46002,4.212 C10.716,3.854 9.906,3.61 9.056,3.498 C8.71202,3.452 8.36202,3.43 8.006,3.43 C7.65,3.43 7.3,3.454 6.956,3.498 C3.038,4.012 0.014,7.364 0.014,11.42 C0.014,15.834 3.592,19.412 8.006,19.412 Z M10.20798,5.856 C11.24002,6.264 12.13002,6.95 12.78798,7.824 C13.37598,8.604 13.77798,9.534 13.92598,10.546 C13.96798,10.832 13.99,11.126 13.99,11.424 L10.046,11.424 L8.006,11.424 L7.968,11.424 L7.968,11.394 L7.968,8.794 L7.968,5.436 C7.98002,5.436 7.99402,5.436 8.006,5.436 C8.292,5.436 8.574,5.456 8.84798,5.496 C9.32202,5.562 9.776,5.684 10.20798,5.856 Z" id="Shape"></path>
                    </g>
                </g>
            </g>
        </g>
    </g>
</svg>