<?xml version="1.0" encoding="UTF-8"?>
<svg width="12px" height="12px" viewBox="0 0 12 12" version="1.1" xmlns="http://www.w3.org/2000/svg" xmlns:xlink="http://www.w3.org/1999/xlink">
    <title>icon / 16 / info / time</title>
    <defs>
        <path d="M8.94586723,3.79876596 C8.2977494,3.08795745 7.35503254,2.73255319 6.47123548,2.73255319 L6.47123548,6.28659574 L3.99660373,8.77442553 C5.35175921,10.1368085 7.59071175,10.1368085 9.00478703,8.77442553 C10.3599425,7.41204255 10.3599425,5.16114894 8.94586723,3.79876596 L8.94586723,3.79876596 L8.94586723,3.79876596 Z M6.47123548,0.363191489 C3.23064628,0.363191489 0.579255115,3.0287234 0.579255115,6.28659574 C0.579255115,9.54446809 3.23064628,12.21 6.47123548,12.21 C9.71182468,12.21 12.3632158,9.54446809 12.3632158,6.28659574 C12.3632158,3.0287234 9.71182468,0.363191489 6.47123548,0.363191489 L6.47123548,0.363191489 L6.47123548,0.363191489 Z M6.47123548,11.0253191 C3.87876414,11.0253191 1.75765121,8.89289362 1.75765121,6.28659574 C1.75765121,3.68029787 3.87876414,1.54787234 6.47123548,1.54787234 C9.06370685,1.54787234 11.1848198,3.68029787 11.1848198,6.28659574 C11.1848198,8.89289362 9.06370685,11.0253191 6.47123548,11.0253191 L6.47123548,11.0253191 L6.47123548,11.0253191 Z" id="path-1"></path>
    </defs>
    <g id="site/-shift-management" stroke="none" stroke-width="1" fill="none" fill-rule="evenodd">
        <g id="site/shift-management_09" transform="translate(-188.000000, -320.000000)">
            <g id="Group" transform="translate(188.000000, 320.000000)">
                <g id="Rectangle" transform="translate(-0.375000, -0.210000)">
                    <mask id="mask-2" fill="white">
                        <use xlink:href="#path-1"></use>
                    </mask>
                    <use id="Mask" fill="#000000" fill-rule="nonzero" xlink:href="#path-1"></use>
                    <rect fill="#5697D9" mask="url(#mask-2)" x="0" y="0.21" width="12.75" height="12"></rect>
                </g>
            </g>
        </g>
    </g>
</svg>