<?xml version="1.0" encoding="UTF-8"?>
<svg width="41px" height="40px" viewBox="0 0 41 40" version="1.1" xmlns="http://www.w3.org/2000/svg" xmlns:xlink="http://www.w3.org/1999/xlink">
    <title>Group 20</title>
    <g id="Page-1" stroke="none" stroke-width="1" fill="none" fill-rule="evenodd">
        <g id="site/shift-management_03" transform="translate(-320.000000, -580.000000)">
            <g id="personal_details-DL" transform="translate(280.000000, 118.000000)">
                <g id="shift-name-copy-2" transform="translate(40.000000, 439.000000)">
                    <g id="Group-20" transform="translate(0.000000, 23.000000)">
                        <path d="M4,0 L37,0 C39.209139,-4.05812251e-16 41,1.790861 41,4 L41,36 C41,38.209139 39.209139,40 37,40 L4,40 C1.790861,40 2.705415e-16,38.209139 0,36 L0,4 C-2.705415e-16,1.790861 1.790861,4.05812251e-16 4,0 Z" id="input-copy" fill="#F3F7FD"></path>
                        <g id="icon-/-48-/-info-/-verification-/-pan" transform="translate(11.000000, 11.000000)" fill="#0059B2" fill-rule="nonzero">
                            <g id="Rectangle" transform="translate(0.576087, 0.326087)">
                                <g transform="translate(0.450408, 0.184783)" id="Mask">
                                    <g transform="translate(0.000000, 0.061344)">
                                        <path d="M4.2346424,0.386196178 C4.10809667,0.399657323 3.9898749,0.454754853 3.89912399,0.54256531 L0.226080364,3.87844848 C0.0540088726,4.00541898 -0.0298910371,4.21748414 0.00964924409,4.42549913 C0.0491895253,4.63351412 0.205314408,4.80141281 0.412394413,4.85861641 C0.619474417,4.91582001 0.841605512,4.85241042 0.985411498,4.69504284 L4.65845512,1.35916801 C4.84353074,1.20062804 4.90346977,0.942693542 4.80680534,0.720775308 C4.7101409,0.498857074 4.4789657,0.363674605 4.2346424,0.386196178 L4.2346424,0.386196178 Z M12.1634721,0.386196178 C11.9322182,0.394380743 11.7294002,0.540446703 11.6515714,0.754858221 C11.5737425,0.969269739 11.6366297,1.20870065 11.8102949,1.35916801 L15.4833385,4.69504284 C15.6271445,4.85241042 15.8492756,4.91582001 16.0563556,4.85861641 C16.2634356,4.80141281 16.4195605,4.63351412 16.4591008,4.42549913 C16.498641,4.21748414 16.4147411,4.00541898 16.2426696,3.87844848 L12.569626,0.54256531 C12.4609607,0.439072194 12.3146686,0.38274976 12.1634721,0.386196178 L12.1634721,0.386196178 Z M8.234375,2.06281521 C12.1287619,2.06281521 15.2979204,5.18091301 15.2979204,9.01256555 C15.2979204,12.8441514 12.1287619,15.9623048 8.234375,15.9623048 C4.33998811,15.9623048 1.17082957,12.8441514 1.17082957,9.01256555 C1.17082957,5.18091301 4.33998811,2.06281521 8.234375,2.06281521 Z M8.234375,4.8427109 C7.92227931,4.8427109 7.66929137,5.09162276 7.66929137,5.39869004 L7.66929137,9.01256555 C7.66929137,9.31963283 7.92227931,9.56854469 8.234375,9.56854469 L11.342335,9.56854469 C11.6544307,9.56854469 11.9074186,9.31963283 11.9074186,9.01256555 C11.9074186,8.70549828 11.6544307,8.45658642 11.342335,8.45658642 L8.79945863,8.45658642 L8.79945863,5.39869004 C8.79945863,5.09162276 8.54647069,4.8427109 8.234375,4.8427109 Z" id="Shape"></path>
                                    </g>
                                </g>
                            </g>
                        </g>
                    </g>
                </g>
            </g>
        </g>
    </g>
</svg>