<?xml version="1.0" encoding="UTF-8"?>
<svg width="24px" height="24px" viewBox="0 0 24 24" version="1.1" xmlns="http://www.w3.org/2000/svg" xmlns:xlink="http://www.w3.org/1999/xlink">
    <!-- Generator: sketchtool 63.1 (101010) - https://sketch.com -->
    <title>5DC1866C-77B4-4EBA-90CA-AD043C8916A7</title>
    <desc>Created with sketchtool.</desc>
    <g id="🎭-all-employees_OA" stroke="none" stroke-width="1" fill="none" fill-rule="evenodd">
        <g id="downloade-report_02" transform="translate(-451.000000, -432.000000)">
            <g id="Group-23" transform="translate(403.000000, 164.000000)">
                <g id="profiles" transform="translate(32.000000, 252.000000)">
                    <g id="Group-21" transform="translate(16.000000, 16.000000)">
                        <g id="timer">
                            <circle id="Oval" fill="#6A54CD" cx="12" cy="12" r="12"></circle>
                            <g id="analog-stopwatch" transform="translate(7.000000, 6.000000)" fill="#FFFFFF" fill-rule="nonzero">
                                <path d="M8.9950125,3.5725 L9.3125125,3.155 C9.4799875,2.935 9.4375125,2.62125 9.2174875,2.45375 L8.4000125,1.83125 C8.1799875,1.66375 7.86625,1.70625 7.6987375,1.92625 L7.3812625,2.3425 C7.9012625,2.6 8.3725,2.93875 8.7862375,3.3525 C8.86,3.425 8.92875,3.4975 8.9950125,3.5725 Z" id="Path"></path>
                                <path d="M5.00375,1.785 C5.2250125,1.785 5.4437625,1.79875 5.66,1.825 L5.66,1.25 L6.055,1.25 C6.331275,1.25 6.555,1.02625 6.555,0.75 L6.555,0.5 C6.555,0.22375 6.331275,0 6.055,0 L3.9525125,0 C3.67625,0 3.4525125,0.22375 3.4525125,0.5 L3.4525125,0.75 C3.4525125,1.02625 3.67625,1.25 3.9525125,1.25 L4.3475125,1.25 L4.3475125,1.825 C4.56375,1.79875 4.7825,1.785 5.00375,1.785 Z" id="Path"></path>
                                <path d="M5.00375,12.1325 C7.7625125,12.1325 9.9987375,9.8962625 9.9987375,7.1375 C9.9987375,5.88375 9.5375125,4.73875 8.7750125,3.8625 C8.3299875,3.35 7.7812625,2.93 7.1625125,2.6325 C6.6975,2.40875 6.19125,2.25625 5.66,2.18625 C5.4450125,2.1575 5.2262625,2.14375 5.00375,2.14375 C4.78125,2.14375 4.5625,2.15875 4.3475,2.18625 C1.89875,2.5075 0.00875,4.6025 0.00875,7.1375 C0.00875,9.89625 2.245,12.1325 5.00375,12.1325 Z M6.3799875,3.66 C7.0250125,3.915 7.5812625,4.34375 7.9924875,4.89 C8.3599875,5.3775 8.6112375,5.95875 8.7037375,6.59125 C8.7299875,6.77 8.74375,6.95375 8.74375,7.14 L6.27875,7.14 L5.00375,7.14 L4.98,7.14 L4.98,7.12125 L4.98,5.49625 L4.98,3.3975 C4.9875125,3.3975 4.9962625,3.3975 5.00375,3.3975 C5.1825,3.3975 5.35875,3.41 5.5299875,3.435 C5.8262625,3.47625 6.11,3.5525 6.3799875,3.66 Z" id="Shape"></path>
                            </g>
                        </g>
                    </g>
                </g>
            </g>
        </g>
    </g>
</svg>