<?xml version="1.0" encoding="UTF-8"?>
<svg width="21px" height="24px" viewBox="0 0 21 24" version="1.1" xmlns="http://www.w3.org/2000/svg" xmlns:xlink="http://www.w3.org/1999/xlink">
    <title>to-do-list</title>
    <defs>
        <filter id="filter-1">
            <feColorMatrix in="SourceGraphic" type="matrix" values="0 0 0 0 0.000000 0 0 0 0 0.349020 0 0 0 0 0.698039 0 0 0 1.000000 0"></feColorMatrix>
        </filter>
    </defs>
    <g id="attendance-configuration" stroke="none" stroke-width="1" fill="none" fill-rule="evenodd">
        <g id="timeline-menu_2" transform="translate(-897.000000, -184.000000)">
            <g id="Group-4" transform="translate(872.000000, 160.000000)">
                <g id="to-do-list" transform="translate(8.000000, 9.000000)" filter="url(#filter-1)">
                    <g transform="translate(17.000000, 15.000000)">
                        <path d="M19.2,3.31785714 L19.2,21.3485714 C19.2,21.7266071 18.8923214,22.0342857 18.5142857,22.0342857 L2.05714286,22.0342857 C1.67910715,22.0342857 1.37142857,21.7266071 1.37142857,21.3485714 L1.37142857,3.31785714 C0.573214263,3.60107145 0,4.36321426 0,5.25714286 L0,21.3485714 C0,22.4828571 0.922857143,23.4057143 2.05714286,23.4057143 L18.5142857,23.4057143 C19.6485714,23.4057143 20.5714286,22.4828571 20.5714286,21.3485714 L20.5714286,5.25714286 C20.5714286,4.36321426 19.9982143,3.60107145 19.2,3.31785714 Z" id="Path" fill="#000000" fill-rule="nonzero"></path>
                        <path d="M3.42857143,20.6628571 L17.1428571,20.6628571 C17.5216071,20.6628571 17.8285714,20.3558928 17.8285714,19.9771429 L17.8285714,3.2 L16.2285714,3.2 L16.2285714,5.25714286 C16.2285714,6.39321426 15.3075,7.31428571 14.1714286,7.31428571 L6.4,7.31428571 C5.26392859,7.31428571 4.34285714,6.39321426 4.34285714,5.25714286 L4.34285714,3.2 L2.74285714,3.2 L2.74285714,19.9771429 C2.74285714,20.3558928 3.04982144,20.6628571 3.42857143,20.6628571 Z M10.7151786,9.84660713 C10.9828571,9.57874999 11.4171429,9.57874999 11.6848214,9.84660713 L12.3428571,10.5044643 L13.9151786,8.93232142 C14.1828571,8.66446427 14.6171429,8.66446427 14.8848214,8.93232142 C15.1526786,9.2 15.1526786,9.63410715 14.8848214,9.9019643 L12.8276786,11.9591072 C12.6939286,12.0930357 12.5183929,12.16 12.3428571,12.16 C12.1673214,12.16 11.9917857,12.0930357 11.8580357,11.9591072 L10.7151786,10.81625 C10.4473214,10.5485714 10.4473214,10.1142857 10.7151786,9.84660713 L10.7151786,9.84660713 Z M10.7151786,15.10375 C10.9828571,14.8358928 11.4171429,14.8358928 11.6848214,15.10375 L12.3428571,15.7616071 L13.9151786,14.1894643 C14.1828571,13.9216071 14.6171429,13.9216071 14.8848214,14.1894643 C15.1526786,14.4571429 15.1526786,14.89125 14.8848214,15.1591072 L12.8276786,17.21625 C12.6939286,17.3501786 12.5183929,17.4171429 12.3428571,17.4171429 C12.1673214,17.4171429 11.9917857,17.3501786 11.8580357,17.21625 L10.7151786,16.0733929 C10.4473214,15.8057143 10.4473214,15.3714286 10.7151786,15.10375 L10.7151786,15.10375 Z M6.17142857,10.7885714 L8.27428571,10.7885714 C8.6530357,10.7885714 8.96,11.0955357 8.96,11.4742857 C8.96,11.8530357 8.6530357,12.16 8.27428571,12.16 L6.17142857,12.16 C5.79267858,12.16 5.48571429,11.8530357 5.48571429,11.4742857 C5.48571429,11.0955357 5.79267858,10.7885714 6.17142857,10.7885714 L6.17142857,10.7885714 Z M6.17142857,16.0457143 L8.27428571,16.0457143 C8.6530357,16.0457143 8.96,16.3526786 8.96,16.7314286 C8.96,17.1101786 8.6530357,17.4171429 8.27428571,17.4171429 L6.17142857,17.4171429 C5.79267858,17.4171429 5.48571429,17.1101786 5.48571429,16.7314286 C5.48571429,16.3526786 5.79267858,16.0457143 6.17142857,16.0457143 Z" id="Shape" fill="#000000" fill-rule="nonzero"></path>
                        <path d="M6.4,5.94285714 L14.1714286,5.94285714 C14.5501786,5.94285714 14.8571429,5.63589285 14.8571429,5.25714286 L14.8571429,2.51428571 C14.8571429,2.13553573 14.5501786,1.82857143 14.1714286,1.82857143 L12.705,1.82857143 C12.4057143,0.774285714 11.4344643,0 10.2857143,0 C9.1369643,0 8.16571429,0.774285714 7.86642857,1.82857143 L6.4,1.82857143 C6.02125001,1.82857143 5.71428571,2.13553573 5.71428571,2.51428571 L5.71428571,5.25714286 C5.71428571,5.63589285 6.02125001,5.94285714 6.4,5.94285714 Z" id="Path" fill="#000000" fill-rule="nonzero"></path>
                    </g>
                </g>
            </g>
        </g>
    </g>
</svg>