<?xml version="1.0" encoding="UTF-8"?>
<svg width="18px" height="15px" viewBox="0 0 18 15" version="1.1" xmlns="http://www.w3.org/2000/svg" xmlns:xlink="http://www.w3.org/1999/xlink">
    <!-- Generator: Sketch 62 (91390) - https://sketch.com -->
    <title>icon / 24 / info / todo's</title>
    <desc>Created with Sketch.</desc>
    <defs>
        <path d="M3.43236633,13.7575381 C3.77465336,13.4182536 4.32717626,13.4206876 4.66646078,13.7629747 L4.66646078,13.7629747 L6.29524801,15.3917619 L7.92403524,13.7629747 C8.0871908,13.5996375 8.30858625,13.5078603 8.53945151,13.5078603 C8.77031677,13.5078603 8.99171222,13.5996375 9.15486778,13.7629747 C9.49357141,14.1024996 9.49357141,14.6521077 9.15486778,14.9916326 L9.15486778,14.9916326 L7.52390593,16.6225944 L9.15486778,18.2535563 C9.37473484,18.4749772 9.45977375,18.7968762 9.37795117,19.0979971 C9.29612858,19.399118 9.05987531,19.6337133 8.75818566,19.7134134 C8.45649601,19.7931134 8.13520383,19.7058097 7.91533678,19.4843888 L7.91533678,19.4843888 L6.28654955,17.8556016 L4.65776232,19.4843888 C4.3178773,19.8242738 3.7668148,19.8242738 3.42692978,19.4843888 C3.08704476,19.1445038 3.08704476,18.5934413 3.42692978,18.2535563 L3.42692978,18.2535563 L5.05571701,16.6204198 L3.42692978,14.9916326 C3.08764527,14.6493455 3.0900793,14.0968226 3.43236633,13.7575381 Z M19.9540098,15.7527481 C20.4344127,15.7527481 20.8238561,16.1421916 20.8238561,16.6225944 C20.8238561,17.1029973 20.4344127,17.4924407 19.9540098,17.4924407 L19.9540098,17.4924407 L12.6951423,17.4924407 C12.2147394,17.4924407 11.825296,17.1029973 11.825296,16.6225944 C11.825296,16.1421916 12.2147394,15.7527481 12.6951423,15.7527481 L12.6951423,15.7527481 Z M8.39157763,5.28849691 C8.70791488,4.93642397 9.24769828,4.90190003 9.60631086,5.21080394 C9.96492345,5.51970785 10.0107302,6.05865104 9.7093948,6.42364635 L9.7093948,6.42364635 L6.71059963,9.90303162 C6.56052261,10.079901 6.34601824,10.1895017 6.1147549,10.2074778 L6.1147549,10.2074778 L6.05169104,10.2074778 C5.84100495,10.2066463 5.63778125,10.129375 5.47976709,9.99001625 L5.47976709,9.99001625 L3.2507859,8.03286204 C2.93039368,7.70827403 2.91510867,7.19133843 3.21576275,6.84838701 C3.51641683,6.50543559 4.03090671,6.45293597 4.39463381,6.72809256 L4.39463381,6.72809256 L5.96253179,8.10897359 L8.38940302,5.28197306 Z M20.1301537,7.05428493 C20.6105565,7.05428493 21,7.4437284 21,7.92413125 C21,8.40453411 20.6105565,8.79397757 20.1301537,8.79397757 L20.1301537,8.79397757 L12.8799846,8.79397757 C12.3995818,8.79397757 12.0101383,8.40453411 12.0101383,7.92413125 C12.0101383,7.4437284 12.3995818,7.05428493 12.8799846,7.05428493 L12.8799846,7.05428493 Z" id="path-1"></path>
    </defs>
    <g id="Symbols" stroke="none" stroke-width="1" fill="none" fill-rule="evenodd">
        <g id="left-bar-/-ops-analyst" transform="translate(-19.000000, -137.000000)">
            <g id="Left-Bar">
                <g id="todo's" transform="translate(8.000000, 128.000000)">
                    <g id="icon-/-24-/-info-/-todo's" transform="translate(8.000000, 4.000000)">
                        <mask id="mask-2" fill="white">
                            <use xlink:href="#path-1"></use>
                        </mask>
                        <use id="Combined-Shape" fill="#0059B2" fill-rule="evenodd" xlink:href="#path-1"></use>
                        <rect id="Rectangle" fill="#8697A8" fill-rule="evenodd" mask="url(#mask-2)" x="0" y="0" width="24" height="24"></rect>
                    </g>
                </g>
            </g>
        </g>
    </g>
</svg>