<?xml version="1.0" encoding="UTF-8"?>
<svg width="16px" height="15px" viewBox="0 0 16 15" version="1.1" xmlns="http://www.w3.org/2000/svg" xmlns:xlink="http://www.w3.org/1999/xlink">
    <!-- Generator: sketchtool 57.1 (101010) - https://sketch.com -->
    <title>FFB09B9A-48A5-4D7D-8EA6-832DF2721FBA</title>
    <desc>Created with sketchtool.</desc>
    <defs>
        <path d="M6,9 L6,15 L0,15 L0,9 L6,9 Z M15.4,12.4 L15.4,14.4 L8,14.4 L8,12.4 L15.4,12.4 Z M14.4,9.4 C14.9522847,9.4 15.4,9.84771525 15.4,10.4 C15.4,10.9522847 14.9522847,11.4 14.4,11.4 L14.4,11.4 L9,11.4 C8.44771525,11.4 8,10.9522847 8,10.4 C8,9.84771525 8.44771525,9.4 9,9.4 L9,9.4 Z M6,0 L6,6 L0,6 L0,0 L6,0 Z M15.4,3.4 L15.4,5.4 L8,5.4 L8,3.4 L15.4,3.4 Z M14.4,0.4 C14.9522847,0.4 15.4,0.84771525 15.4,1.4 C15.4,1.91283584 15.0139598,2.33550716 14.5166211,2.39327227 L14.4,2.4 L9,2.4 C8.44771525,2.4 8,1.95228475 8,1.4 C8,0.887164161 8.38604019,0.464492839 8.88337887,0.406727731 L9,0.4 L14.4,0.4 Z" id="path-1"></path>
    </defs>
    <g id="🤖-BGV-OPs" stroke="none" stroke-width="1" fill="none" fill-rule="evenodd">
        <g id="01_BGV-OPs-dashboard-analyst_simple" transform="translate(-16.000000, -183.000000)">
            <g id="left-bar-left-bar-/-ops">
                <g id="Left-Bar">
                    <g id="client" transform="translate(16.000000, 183.000000)">
                        <g id="icon-/-16-/-info-/-insight-copy-icon-/-16-/-info-/-customer">
                            <mask id="mask-2" fill="white">
                                <use xlink:href="#path-1"></use>
                            </mask>
                            <use id="Combined-Shape" fill="#000000" xlink:href="#path-1"></use>
                            <rect id="Rectangle" fill="#0059B2" mask="url(#mask-2)" x="0" y="0" width="16" height="16"></rect>
                        </g>
                    </g>
                </g>
            </g>
        </g>
    </g>
</svg>