<?xml version="1.0" encoding="UTF-8"?>
<svg width="24px" height="24px" viewBox="0 0 24 24" version="1.1" xmlns="http://www.w3.org/2000/svg" xmlns:xlink="http://www.w3.org/1999/xlink">
    <title>D0480015-C430-49EB-AA3B-8A0F576203B6</title>
    <g id="roster" stroke="none" stroke-width="1" fill="none" fill-rule="evenodd">
        <g id="apply_sick-leave_05" transform="translate(-615.000000, -537.000000)">
            <g id="popup" transform="translate(470.000000, 314.000000)">
                <g id="Group-12" transform="translate(137.000000, 220.000000)">
                    <g id="Group-22" transform="translate(8.000000, 3.000000)">
                        <rect id="Rectangle" fill="#D8D8D8" opacity="0" x="0" y="0" width="24" height="24"></rect>
                        <g id="noun_over_736234" transform="translate(4.000000, 7.000000)" fill="#A84567">
                            <path d="M14.9450549,2.32087912 C14.8571429,2.18021978 14.7516484,2.03956044 14.6461538,1.91648352 C14.5934066,1.84615385 14.5406593,1.79340659 14.4879121,1.72307692 C14.3824176,1.6 14.2593407,1.47692308 14.1362637,1.37142857 C13.9428571,1.1956044 13.7494505,1.03736264 13.5384615,0.896703297 C13.3978022,0.808791209 13.2571429,0.720879121 13.0989011,0.632967033 C12.9406593,0.545054945 12.8,0.474725275 12.6417582,0.404395604 C12.4131868,0.298901099 12.167033,0.228571429 11.9032967,0.158241758 C11.7274725,0.123076923 11.5692308,0.0879120879 11.3934066,0.0527472527 C11.1296703,0.0175824176 10.8659341,0 10.5846154,0 C9.61758242,0 8.72087912,0.263736264 7.94725275,0.703296703 C7.17362637,0.246153846 6.27692308,0 5.30989011,0 C2.39120879,0 0.0351648352,2.35604396 0.0351648352,5.27472527 C0.0351648352,8.19340659 2.39120879,10.5494505 5.30989011,10.5494505 C6.27692308,10.5494505 7.17362637,10.2857143 7.94725275,9.84615385 C8.72087912,10.3032967 9.61758242,10.5494505 10.5846154,10.5494505 C10.8659341,10.5494505 11.1296703,10.5318681 11.3934066,10.4967033 C11.5692308,10.4615385 11.7450549,10.4263736 11.9032967,10.3912088 C12.1494505,10.3208791 12.3956044,10.2505495 12.6417582,10.1450549 C12.8,10.0747253 12.9582418,10.0043956 13.0989011,9.91648352 C13.2571429,9.82857143 13.3978022,9.74065934 13.5384615,9.65274725 C13.7494505,9.51208791 13.9428571,9.35384615 14.1362637,9.17802198 C14.2593407,9.07252747 14.3824176,8.94945055 14.4879121,8.82637363 C14.5406593,8.75604396 14.5934066,8.7032967 14.6461538,8.63296703 C14.7516484,8.50989011 14.8571429,8.36923077 14.9450549,8.22857143 C15.5076923,7.38461538 15.8417582,6.36483516 15.8417582,5.27472527 C15.8417582,4.18461538 15.5252747,3.16483516 14.9450549,2.32087912 Z M10.5846154,9.49450549 C9.98681319,9.49450549 9.40659341,9.37142857 8.8967033,9.14285714 C8.56263736,8.98461538 8.22857143,8.79120879 7.94725275,8.56263736 C6.98021978,7.78901099 6.36483516,6.59340659 6.36483516,5.27472527 C6.36483516,3.95604396 6.98021978,2.76043956 7.94725275,1.98681319 C8.22857143,1.75824176 8.56263736,1.56483516 8.8967033,1.40659341 C9.40659341,1.17802198 9.98681319,1.05494505 10.5846154,1.05494505 C12.9054945,1.05494505 14.8043956,2.95384615 14.8043956,5.27472527 C14.8043956,7.5956044 12.9054945,9.49450549 10.5846154,9.49450549 Z" id="Shape"></path>
                        </g>
                    </g>
                </g>
            </g>
        </g>
    </g>
</svg>