<?xml version="1.0" encoding="UTF-8"?>
<svg width="24px" height="24px" viewBox="0 0 24 24" version="1.1" xmlns="http://www.w3.org/2000/svg" xmlns:xlink="http://www.w3.org/1999/xlink">
    <!-- Generator: sketchtool 55.2 (78181) - https://sketchapp.com -->
    <title>19B6530C-DE10-45B3-9ACA-F5EF3A123FEA</title>
    <desc>Created with sketchtool.</desc>
    <g id="👽-GBV-Client" stroke="none" stroke-width="1" fill="none" fill-rule="evenodd">
        <g id="BGV-Client-zomato-all-employee-B2" transform="translate(-13.000000, -312.000000)" fill-rule="nonzero">
            <g id="left-bar">
                <g id="side-bar">
                    <g id="train" transform="translate(13.000000, 312.000000)">
                        <path d="M12,3.01980663e-14 C5.372583,3.01980663e-14 3.01980663e-14,5.372583 3.01980663e-14,12 C3.01980663e-14,18.627417 5.372583,24 12,24 C18.627417,24 24,18.627417 24,12 C24,8.81740212 22.7357179,5.76515517 20.4852814,3.51471863 C18.2348448,1.26428208 15.1825979,3.01980663e-14 12,3.01980663e-14 Z" id="Path-Copy-2" fill="#F3F7FD"></path>
                        <g id="book-07" transform="translate(6.000000, 6.000000)" fill="#8697A8">
                            <path d="M11.787,0.09 C11.6532738,-0.00354614539 11.4823099,-0.0259431664 11.329,0.03 L5.99999967,1.968 L0.671,0.03 C0.517596461,-0.0250838505 0.347037976,-0.00273994417 0.213,0.09 C0.0793273567,0.183701496 -0.000186789826,0.336756896 -3.28366355e-07,0.5 L-3.28366355e-07,9.5 C-3.28366355e-07,9.7102581 0.131420463,9.89809174 0.329,9.97 L5.829,11.97 C5.93945605,12.0102 6.06054395,12.0102 6.171,11.97 L11.671,9.97 C11.8685795,9.89809174 11.9999997,9.7102581 11.9999997,9.5 L11.9999997,0.5 C12.0001868,0.336756896 11.9206726,0.183701496 11.787,0.09 Z" id="Path"></path>
                        </g>
                    </g>
                </g>
            </g>
        </g>
    </g>
</svg>