<?xml version="1.0" encoding="UTF-8"?>
<svg width="24px" height="24px" viewBox="0 0 24 24" version="1.1" xmlns="http://www.w3.org/2000/svg" xmlns:xlink="http://www.w3.org/1999/xlink">
    <!-- Generator: sketchtool 56.2 (101010) - https://sketch.com -->
    <title>735C91BF-F0F8-497F-8E55-BB717EDE69D6</title>
    <desc>Created with sketchtool.</desc>
    <g id="👽-GBV-Client" stroke="none" stroke-width="1" fill="none" fill-rule="evenodd">
        <g id="BGV-Client-zomato-employee-profile" transform="translate(-460.000000, -220.000000)" fill="#8697A8" fill-rule="nonzero">
            <g id="section" transform="translate(160.000000, 80.000000)">
                <g id="twitter-logo-in-circular-black-button" transform="translate(300.000000, 140.000000)">
                    <path d="M24,12 C24,5.37270588 18.6272549,0 12,0 C5.37270588,0 0,5.37270588 0,12 C0,18.6272549 5.37270588,24 12,24 C18.6272549,24 24,18.6272549 24,12 Z M5.53854902,16.2643529 C5.74584314,16.290549 5.95745098,16.3047059 6.17129412,16.3047059 C7.41384314,16.306902 8.55709804,15.8585098 9.46364706,15.1058039 C8.30290196,15.078549 7.32439216,14.2581961 6.98729412,13.1323529 C7.1487451,13.1661569 7.31568627,13.1858039 7.48584314,13.1869412 C7.72803922,13.188 7.9614902,13.1552549 8.18403922,13.092 C6.97094118,12.8236471 6.05678431,11.6727451 6.05678431,10.301451 C6.05678431,10.289451 6.05678431,10.277451 6.05678431,10.265451 C6.41458824,10.481451 6.82258824,10.6123529 7.25784314,10.632 C6.54768627,10.1181569 6.07968627,9.24545098 6.07968627,8.26360784 C6.07968627,7.74435294 6.21058824,7.25996078 6.43858824,6.84541176 C7.74658824,8.5745098 9.70039216,9.72211765 11.9029412,9.86501961 C11.8571373,9.65886275 11.8341961,9.44392157 11.8341961,9.22466667 C11.8341961,7.67447059 13.0211373,6.43741176 14.4851373,6.46141176 C15.2476471,6.4745098 15.937098,6.82466667 16.4204314,7.3745098 C17.0247843,7.25886275 17.5920392,7.03631373 18.1036863,6.72541176 C17.9062353,7.37231373 17.4851765,7.91121569 16.9375294,8.24831373 C17.4742745,8.18831373 17.9847843,8.0465098 18.4604314,7.83160784 C18.1048235,8.38470588 17.6553333,8.86796078 17.1371765,9.25415686 C17.1426275,9.37415686 17.1447843,9.49415686 17.1447843,9.61415686 C17.1447843,13.294902 14.4774902,17.5396078 9.60113725,17.5374137 C8.10545098,17.5385098 6.71129412,17.069451 5.53854902,16.2643529 Z" id="Shape"></path>
                </g>
            </g>
        </g>
    </g>
</svg>