<?xml version="1.0" encoding="UTF-8"?>
<svg width="122px" height="122px" viewBox="0 0 122 122" version="1.1" xmlns="http://www.w3.org/2000/svg" xmlns:xlink="http://www.w3.org/1999/xlink">
    <!-- Generator: sketchtool 56.2 (101010) - https://sketch.com -->
    <title>A0F179A4-EF86-4BA8-9897-B3F886E5EE1C</title>
    <desc>Created with sketchtool.</desc>
    <g id="👽-GBV-Client" stroke="none" stroke-width="1" fill="none" fill-rule="evenodd">
        <g id="BGV-Client-zomato-add-employment-history_1" transform="translate(-199.000000, -348.000000)">
            <g id="personal_details-DL" transform="translate(160.000000, 121.000000)">
                <g id="upload" transform="translate(40.000000, 228.000000)">
                    <path d="M4,0 L116,0 C118.209139,-4.05812251e-16 120,1.790861 120,4 L120,116 C120,118.209139 118.209139,120 116,120 L4,120 C1.790861,120 2.705415e-16,118.209139 0,116 L0,4 C-2.705415e-16,1.790861 1.790861,4.05812251e-16 4,0 Z" id="Rectangle" stroke="#8697A8" fill="#F3F7FD" stroke-linecap="round" stroke-dasharray="3"></path>
                    <g id="Group-4" transform="translate(17.000000, 14.000000)">
                        <g id="Group-8" fill="#8697A8" fill-rule="nonzero">
                            <path d="M5.982,69.6 L7.026,69.6 L7.026,78 L5.982,78 L5.982,76.968 C5.4619974,77.760004 4.70600496,78.156 3.714,78.156 C2.8739958,78.156 2.15800296,77.8500031 1.566,77.238 C0.97399704,76.6259969 0.678,75.8800044 0.678,75 C0.678,74.1199956 0.97399704,73.3740031 1.566,72.762 C2.15800296,72.1499969 2.8739958,71.844 3.714,71.844 C4.70600496,71.844 5.4619974,72.239996 5.982,73.032 L5.982,69.6 Z M3.846,77.148 C4.45400304,77.148 4.96199796,76.9420021 5.37,76.53 C5.77800204,76.1179979 5.982,75.608003 5.982,75 C5.982,74.391997 5.77800204,73.8820021 5.37,73.47 C4.96199796,73.0579979 4.45400304,72.852 3.846,72.852 C3.245997,72.852 2.74200204,73.0579979 2.334,73.47 C1.92599796,73.8820021 1.722,74.391997 1.722,75 C1.722,75.608003 1.92599796,76.1179979 2.334,76.53 C2.74200204,76.9420021 3.245997,77.148 3.846,77.148 Z M9.654,73.008 C9.99800172,72.2639963 10.6219955,71.892 11.526,71.892 L11.526,72.984 C11.0139974,72.9599999 10.5740018,73.0959985 10.206,73.392 C9.83799816,73.6880015 9.654,74.1639967 9.654,74.82 L9.654,78 L8.61,78 L8.61,72 L9.654,72 L9.654,73.008 Z M17.286,77.244 C16.6699969,77.852003 15.9220044,78.156 15.042,78.156 C14.1619956,78.156 13.4160031,77.852003 12.804,77.244 C12.1919969,76.635997 11.886,75.8880044 11.886,75 C11.886,74.1119956 12.1919969,73.364003 12.804,72.756 C13.4160031,72.147997 14.1619956,71.844 15.042,71.844 C15.9220044,71.844 16.6699969,72.147997 17.286,72.756 C17.9020031,73.364003 18.21,74.1119956 18.21,75 C18.21,75.8880044 17.9020031,76.635997 17.286,77.244 Z M15.042,77.136 C15.642003,77.136 16.145998,76.932002 16.554,76.524 C16.962002,76.115998 17.166,75.608003 17.166,75 C17.166,74.391997 16.962002,73.884002 16.554,73.476 C16.145998,73.067998 15.642003,72.864 15.042,72.864 C14.449997,72.864 13.950002,73.067998 13.542,73.476 C13.133998,73.884002 12.93,74.391997 12.93,75 C12.93,75.608003 13.133998,76.115998 13.542,76.524 C13.950002,76.932002 14.449997,77.136 15.042,77.136 Z M22.758,71.844 C23.5980042,71.844 24.313997,72.1499969 24.906,72.762 C25.498003,73.3740031 25.794,74.1199956 25.794,75 C25.794,75.8800044 25.498003,76.6259969 24.906,77.238 C24.313997,77.8500031 23.5980042,78.156 22.758,78.156 C21.765995,78.156 21.0100026,77.760004 20.49,76.968 L20.49,80.4 L19.446,80.4 L19.446,72 L20.49,72 L20.49,73.032 C21.0100026,72.239996 21.765995,71.844 22.758,71.844 Z M22.626,77.148 C23.226003,77.148 23.729998,76.9420021 24.138,76.53 C24.546002,76.1179979 24.75,75.608003 24.75,75 C24.75,74.391997 24.546002,73.8820021 24.138,73.47 C23.729998,73.0579979 23.226003,72.852 22.626,72.852 C22.017997,72.852 21.510002,73.0579979 21.102,73.47 C20.693998,73.8820021 20.49,74.391997 20.49,75 C20.49,75.608003 20.693998,76.1179979 21.102,76.53 C21.510002,76.9420021 22.017997,77.148 22.626,77.148 Z M34.806,72 L34.806,78 L33.762,78 L33.762,73.008 L31.542,73.008 L31.542,78 L30.498,78 L30.498,73.008 L29.538,73.008 L29.538,72 L30.498,72 L30.498,71.82 C30.498,70.2359921 31.3739912,69.444 33.126,69.444 C33.4540016,69.444 33.8659975,69.4959995 34.362,69.6 L34.362,70.548 C33.8739976,70.4839997 33.4620017,70.452 33.126,70.452 C32.5819973,70.452 32.1820013,70.553999 31.926,70.758 C31.6699987,70.962001 31.542,71.3159975 31.542,71.82 L31.542,72 L34.806,72 Z M36.402,78 L36.402,69.24 L37.446,69.24 L37.446,78 L36.402,78 Z M39.774,75.48 C39.8780005,76.0160027 40.1239981,76.4319985 40.512,76.728 C40.9000019,77.0240015 41.3779972,77.172 41.946,77.172 C42.738004,77.172 43.3139982,76.8800029 43.674,76.296 L44.562,76.8 C43.9779971,77.7040045 43.0980059,78.156 41.922,78.156 C40.9699952,78.156 40.196003,77.858003 39.6,77.262 C39.003997,76.665997 38.706,75.9120046 38.706,75 C38.706,74.0959955 38.9979971,73.344 39.582,72.744 C40.1660029,72.143997 40.9219954,71.844 41.85,71.844 C42.7300044,71.844 43.4479972,72.1539969 44.004,72.774 C44.5600028,73.3940031 44.838,74.1399956 44.838,75.012 C44.838,75.1640008 44.8260001,75.3199992 44.802,75.48 L39.774,75.48 Z M41.85,72.828 C41.2899972,72.828 40.8260018,72.9859984 40.458,73.302 C40.0899982,73.6180016 39.8620004,74.0399974 39.774,74.568 L43.782,74.568 C43.6939996,73.9999972 43.4700018,73.5680015 43.11,73.272 C42.7499982,72.9759985 42.3300024,72.828 41.85,72.828 Z M52.026,71.844 C52.7300035,71.844 53.2939979,72.0659978 53.718,72.51 C54.1420021,72.9540022 54.354,73.5559962 54.354,74.316 L54.354,78 L53.31,78 L53.31,74.376 C53.31,73.8879976 53.1780013,73.5100013 52.914,73.242 C52.6499987,72.9739987 52.2860023,72.84 51.822,72.84 C51.3019974,72.84 50.8820016,73.0019984 50.562,73.326 C50.2419984,73.6500016 50.082,74.1479966 50.082,74.82 L50.082,78 L49.038,78 L49.038,69.6 L50.082,69.6 L50.082,72.864 C50.5060021,72.1839966 51.1539956,71.844 52.026,71.844 Z M56.538,75.48 C56.6420005,76.0160027 56.8879981,76.4319985 57.276,76.728 C57.6640019,77.0240015 58.1419972,77.172 58.71,77.172 C59.502004,77.172 60.0779982,76.8800029 60.438,76.296 L61.326,76.8 C60.7419971,77.7040045 59.8620059,78.156 58.686,78.156 C57.7339952,78.156 56.960003,77.858003 56.364,77.262 C55.767997,76.665997 55.47,75.9120046 55.47,75 C55.47,74.0959955 55.7619971,73.344 56.346,72.744 C56.9300029,72.143997 57.6859954,71.844 58.614,71.844 C59.4940044,71.844 60.2119972,72.1539969 60.768,72.774 C61.3240028,73.3940031 61.602,74.1399956 61.602,75.012 C61.602,75.1640008 61.5900001,75.3199992 61.566,75.48 L56.538,75.48 Z M58.614,72.828 C58.0539972,72.828 57.5900018,72.9859984 57.222,73.302 C56.8539982,73.6180016 56.6260004,74.0399974 56.538,74.568 L60.546,74.568 C60.4579996,73.9999972 60.2340018,73.5680015 59.874,73.272 C59.5139982,72.9759985 59.0940024,72.828 58.614,72.828 Z M63.846,73.008 C64.1900017,72.2639963 64.8139955,71.892 65.718,71.892 L65.718,72.984 C65.2059974,72.9599999 64.7660018,73.0959985 64.398,73.392 C64.0299982,73.6880015 63.846,74.1639967 63.846,74.82 L63.846,78 L62.802,78 L62.802,72 L63.846,72 L63.846,73.008 Z M67.146,75.48 C67.2500005,76.0160027 67.4959981,76.4319985 67.884,76.728 C68.2720019,77.0240015 68.7499972,77.172 69.318,77.172 C70.110004,77.172 70.6859982,76.8800029 71.046,76.296 L71.934,76.8 C71.3499971,77.7040045 70.4700059,78.156 69.294,78.156 C68.3419952,78.156 67.568003,77.858003 66.972,77.262 C66.375997,76.665997 66.078,75.9120046 66.078,75 C66.078,74.0959955 66.3699971,73.344 66.954,72.744 C67.5380029,72.143997 68.2939954,71.844 69.222,71.844 C70.1020044,71.844 70.8199972,72.1539969 71.376,72.774 C71.9320028,73.3940031 72.21,74.1399956 72.21,75.012 C72.21,75.1640008 72.1980001,75.3199992 72.174,75.48 L67.146,75.48 Z M69.222,72.828 C68.6619972,72.828 68.1980018,72.9859984 67.83,73.302 C67.4619982,73.6180016 67.2340004,74.0399974 67.146,74.568 L71.154,74.568 C71.0659996,73.9999972 70.8420018,73.5680015 70.482,73.272 C70.1219982,72.9759985 69.7020024,72.828 69.222,72.828 Z M81.474,77.244 C80.8579969,77.852003 80.1100044,78.156 79.23,78.156 C78.3499956,78.156 77.6040031,77.852003 76.992,77.244 C76.3799969,76.635997 76.074,75.8880044 76.074,75 C76.074,74.1119956 76.3799969,73.364003 76.992,72.756 C77.6040031,72.147997 78.3499956,71.844 79.23,71.844 C80.1100044,71.844 80.8579969,72.147997 81.474,72.756 C82.0900031,73.364003 82.398,74.1119956 82.398,75 C82.398,75.8880044 82.0900031,76.635997 81.474,77.244 Z M79.23,77.136 C79.830003,77.136 80.333998,76.932002 80.742,76.524 C81.150002,76.115998 81.354,75.608003 81.354,75 C81.354,74.391997 81.150002,73.884002 80.742,73.476 C80.333998,73.067998 79.830003,72.864 79.23,72.864 C78.637997,72.864 78.138002,73.067998 77.73,73.476 C77.321998,73.884002 77.118,74.391997 77.118,75 C77.118,75.608003 77.321998,76.115998 77.73,76.524 C78.138002,76.932002 78.637997,77.136 79.23,77.136 Z M84.678,73.008 C85.0220017,72.2639963 85.6459955,71.892 86.55,71.892 L86.55,72.984 C86.0379974,72.9599999 85.5980018,73.0959985 85.23,73.392 C84.8619982,73.6880015 84.678,74.1639967 84.678,74.82 L84.678,78 L83.634,78 L83.634,72 L84.678,72 L84.678,73.008 Z M27.132,90.156 C26.2279955,90.156 25.476,89.854003 24.876,89.25 C24.275997,88.645997 23.976,87.8960045 23.976,87 C23.976,86.1039955 24.275997,85.354003 24.876,84.75 C25.476,84.145997 26.2279955,83.844 27.132,83.844 C27.724003,83.844 28.2559976,83.9859986 28.728,84.27 C29.2000024,84.5540014 29.5519988,84.9359976 29.784,85.416 L28.908,85.92 C28.7559992,85.5999984 28.5220016,85.344 28.206,85.152 C27.8899984,84.959999 27.532002,84.864 27.132,84.864 C26.531997,84.864 26.030002,85.067998 25.626,85.476 C25.221998,85.884002 25.02,86.391997 25.02,87 C25.02,87.600003 25.221998,88.103998 25.626,88.512 C26.030002,88.920002 26.531997,89.124 27.132,89.124 C27.532002,89.124 27.8919984,89.0300009 28.212,88.842 C28.5320016,88.6539991 28.7759992,88.4000016 28.944,88.08 L29.832,88.596 C29.5759987,89.0680024 29.2080024,89.4459986 28.728,89.73 C28.2479976,90.0140014 27.7160029,90.156 27.132,90.156 Z M33.852,83.844 C34.5560035,83.844 35.1199979,84.0659978 35.544,84.51 C35.9680021,84.9540022 36.18,85.5559962 36.18,86.316 L36.18,90 L35.136,90 L35.136,86.376 C35.136,85.8879976 35.0040013,85.5100013 34.74,85.242 C34.4759987,84.9739987 34.1120023,84.84 33.648,84.84 C33.1279974,84.84 32.7080016,85.0019984 32.388,85.326 C32.0679984,85.6500016 31.908,86.1479966 31.908,86.82 L31.908,90 L30.864,90 L30.864,81.6 L31.908,81.6 L31.908,84.864 C32.3320021,84.1839966 32.9799956,83.844 33.852,83.844 Z M42.696,89.244 C42.0799969,89.852003 41.3320044,90.156 40.452,90.156 C39.5719956,90.156 38.8260031,89.852003 38.214,89.244 C37.6019969,88.635997 37.296,87.8880044 37.296,87 C37.296,86.1119956 37.6019969,85.364003 38.214,84.756 C38.8260031,84.147997 39.5719956,83.844 40.452,83.844 C41.3320044,83.844 42.0799969,84.147997 42.696,84.756 C43.3120031,85.364003 43.62,86.1119956 43.62,87 C43.62,87.8880044 43.3120031,88.635997 42.696,89.244 Z M40.452,89.136 C41.052003,89.136 41.555998,88.932002 41.964,88.524 C42.372002,88.115998 42.576,87.608003 42.576,87 C42.576,86.391997 42.372002,85.884002 41.964,85.476 C41.555998,85.067998 41.052003,84.864 40.452,84.864 C39.859997,84.864 39.360002,85.067998 38.952,85.476 C38.543998,85.884002 38.34,86.391997 38.34,87 C38.34,87.608003 38.543998,88.115998 38.952,88.524 C39.360002,88.932002 39.859997,89.136 40.452,89.136 Z M49.92,89.244 C49.3039969,89.852003 48.5560044,90.156 47.676,90.156 C46.7959956,90.156 46.0500031,89.852003 45.438,89.244 C44.8259969,88.635997 44.52,87.8880044 44.52,87 C44.52,86.1119956 44.8259969,85.364003 45.438,84.756 C46.0500031,84.147997 46.7959956,83.844 47.676,83.844 C48.5560044,83.844 49.3039969,84.147997 49.92,84.756 C50.5360031,85.364003 50.844,86.1119956 50.844,87 C50.844,87.8880044 50.5360031,88.635997 49.92,89.244 Z M47.676,89.136 C48.276003,89.136 48.779998,88.932002 49.188,88.524 C49.596002,88.115998 49.8,87.608003 49.8,87 C49.8,86.391997 49.596002,85.884002 49.188,85.476 C48.779998,85.067998 48.276003,84.864 47.676,84.864 C47.083997,84.864 46.584002,85.067998 46.176,85.476 C45.767998,85.884002 45.564,86.391997 45.564,87 C45.564,87.608003 45.767998,88.115998 46.176,88.524 C46.584002,88.932002 47.083997,89.136 47.676,89.136 Z M52.848,85.62 C52.848,85.8520012 52.9639988,86.0379993 53.196,86.178 C53.4280012,86.3180007 53.7079984,86.4299996 54.036,86.514 C54.3640016,86.5980004 54.6919984,86.6939995 55.02,86.802 C55.3480016,86.9100005 55.6279988,87.0939987 55.86,87.354 C56.0920012,87.6140013 56.208,87.947998 56.208,88.356 C56.208,88.9000027 55.9980021,89.3359984 55.578,89.664 C55.1579979,89.9920016 54.6200033,90.156 53.964,90.156 C53.3799971,90.156 52.8800021,90.0280013 52.464,89.772 C52.0479979,89.5159987 51.7520009,89.1760021 51.576,88.752 L52.476,88.236 C52.5720005,88.5240014 52.7519987,88.7519992 53.016,88.92 C53.2800013,89.0880008 53.5959982,89.172 53.964,89.172 C54.3080017,89.172 54.5919989,89.1060007 54.816,88.974 C55.0400011,88.8419993 55.152,88.6360014 55.152,88.356 C55.152,88.1239988 55.0360012,87.9380007 54.804,87.798 C54.5719988,87.6579993 54.2920016,87.5460004 53.964,87.462 C53.6359984,87.3779996 53.3080016,87.2800006 52.98,87.168 C52.6519984,87.0559994 52.3720012,86.8720013 52.14,86.616 C51.9079988,86.3599987 51.792,86.032002 51.792,85.632 C51.792,85.1119974 51.993998,84.6840017 52.398,84.348 C52.802002,84.0119983 53.307997,83.844 53.916,83.844 C54.4040024,83.844 54.8379981,83.9539989 55.218,84.174 C55.5980019,84.3940011 55.883999,84.699998 56.076,85.092 L55.2,85.584 C54.9839989,85.0719974 54.5560032,84.816 53.916,84.816 C53.6199985,84.816 53.368001,84.8859993 53.16,85.026 C52.951999,85.1660007 52.848,85.3639987 52.848,85.62 Z M58.008,87.48 C58.1120005,88.0160027 58.3579981,88.4319985 58.746,88.728 C59.1340019,89.0240015 59.6119972,89.172 60.18,89.172 C60.972004,89.172 61.5479982,88.8800029 61.908,88.296 L62.796,88.8 C62.2119971,89.7040045 61.3320059,90.156 60.156,90.156 C59.2039952,90.156 58.430003,89.858003 57.834,89.262 C57.237997,88.665997 56.94,87.9120046 56.94,87 C56.94,86.0959955 57.2319971,85.344 57.816,84.744 C58.4000029,84.143997 59.1559954,83.844 60.084,83.844 C60.9640044,83.844 61.6819972,84.1539969 62.238,84.774 C62.7940028,85.3940031 63.072,86.1399956 63.072,87.012 C63.072,87.1640008 63.0600001,87.3199992 63.036,87.48 L58.008,87.48 Z M60.084,84.828 C59.5239972,84.828 59.0600018,84.9859984 58.692,85.302 C58.3239982,85.6180016 58.0960004,86.0399974 58.008,86.568 L62.016,86.568 C61.9279996,85.9999972 61.7040018,85.5680015 61.344,85.272 C60.9839982,84.9759985 60.5640024,84.828 60.084,84.828 Z" id="dropflehereorchoose"></path>
                            <path d="M15.518,57.244 C14.8366633,57.8693365 13.9546721,58.182 12.872,58.182 C11.7893279,58.182 10.9050034,57.8670032 10.219,57.237 C9.53299657,56.6069969 9.19,55.7646719 9.19,54.71 L9.19,48.2 L10.492,48.2 L10.492,54.654 C10.492,55.3446701 10.6973313,55.892998 11.108,56.299 C11.5186687,56.705002 12.1066628,56.908 12.872,56.908 C13.6373372,56.908 14.2253313,56.705002 14.636,56.299 C15.0466687,55.892998 15.252,55.3446701 15.252,54.654 L15.252,48.2 L16.54,48.2 L16.54,54.71 C16.54,55.7646719 16.1993367,56.6093302 15.518,57.244 Z M22.266,50.818 C23.2460049,50.818 24.0813299,51.1749964 24.772,51.889 C25.4626701,52.6030036 25.808,53.4733282 25.808,54.5 C25.808,55.5266718 25.4626701,56.3969964 24.772,57.111 C24.0813299,57.8250036 23.2460049,58.182 22.266,58.182 C21.1086609,58.182 20.2266697,57.7200046 19.62,56.796 L19.62,60.8 L18.402,60.8 L18.402,51 L19.62,51 L19.62,52.204 C20.2266697,51.2799954 21.1086609,50.818 22.266,50.818 Z M22.112,57.006 C22.8120035,57.006 23.3999976,56.7656691 23.876,56.285 C24.3520024,55.8043309 24.59,55.2093369 24.59,54.5 C24.59,53.7906631 24.3520024,53.1956691 23.876,52.715 C23.3999976,52.2343309 22.8120035,51.994 22.112,51.994 C21.4026631,51.994 20.8100024,52.2343309 20.334,52.715 C19.8579976,53.1956691 19.62,53.7906631 19.62,54.5 C19.62,55.2093369 19.8579976,55.8043309 20.334,56.285 C20.8100024,56.7656691 21.4026631,57.006 22.112,57.006 Z M27.264,58 L27.264,47.78 L28.482,47.78 L28.482,58 L27.264,58 Z M36.252,57.118 C35.5333297,57.8273369 34.6606718,58.182 33.634,58.182 C32.6073282,58.182 31.7370036,57.8273369 31.023,57.118 C30.3089964,56.4086631 29.952,55.5360052 29.952,54.5 C29.952,53.4639948 30.3089964,52.5913369 31.023,51.882 C31.7370036,51.1726631 32.6073282,50.818 33.634,50.818 C34.6606718,50.818 35.5333297,51.1726631 36.252,51.882 C36.9706703,52.5913369 37.33,53.4639948 37.33,54.5 C37.33,55.5360052 36.9706703,56.4086631 36.252,57.118 Z M33.634,56.992 C34.3340035,56.992 34.9219976,56.7540024 35.398,56.278 C35.8740024,55.8019976 36.112,55.2093369 36.112,54.5 C36.112,53.7906631 35.8740024,53.1980024 35.398,52.722 C34.9219976,52.2459976 34.3340035,52.008 33.634,52.008 C32.9433299,52.008 32.3600024,52.2459976 31.884,52.722 C31.4079976,53.1980024 31.17,53.7906631 31.17,54.5 C31.17,55.2093369 31.4079976,55.8019976 31.884,56.278 C32.3600024,56.7540024 32.9433299,56.992 33.634,56.992 Z M44.568,51 L45.786,51 L45.786,58 L44.568,58 L44.568,56.796 C43.9613303,57.7200046 43.0793391,58.182 41.922,58.182 C40.9419951,58.182 40.1066701,57.8250036 39.416,57.111 C38.7253299,56.3969964 38.38,55.5266718 38.38,54.5 C38.38,53.4733282 38.7253299,52.6030036 39.416,51.889 C40.1066701,51.1749964 40.9419951,50.818 41.922,50.818 C43.0793391,50.818 43.9613303,51.2799954 44.568,52.204 L44.568,51 Z M42.076,57.006 C42.7853369,57.006 43.3779976,56.7656691 43.854,56.285 C44.3300024,55.8043309 44.568,55.2093369 44.568,54.5 C44.568,53.7906631 44.3300024,53.1956691 43.854,52.715 C43.3779976,52.2343309 42.7853369,51.994 42.076,51.994 C41.3759965,51.994 40.7880024,52.2343309 40.312,52.715 C39.8359976,53.1956691 39.598,53.7906631 39.598,54.5 C39.598,55.2093369 39.8359976,55.8043309 40.312,56.285 C40.7880024,56.7656691 41.3759965,57.006 42.076,57.006 Z M53.43,48.2 L54.648,48.2 L54.648,58 L53.43,58 L53.43,56.796 C52.8233303,57.7200046 51.9413391,58.182 50.784,58.182 C49.8039951,58.182 48.9686701,57.8250036 48.278,57.111 C47.5873299,56.3969964 47.242,55.5266718 47.242,54.5 C47.242,53.4733282 47.5873299,52.6030036 48.278,51.889 C48.9686701,51.1749964 49.8039951,50.818 50.784,50.818 C51.9413391,50.818 52.8233303,51.2799954 53.43,52.204 L53.43,48.2 Z M50.938,57.006 C51.6473369,57.006 52.2399976,56.7656691 52.716,56.285 C53.1920024,55.8043309 53.43,55.2093369 53.43,54.5 C53.43,53.7906631 53.1920024,53.1956691 52.716,52.715 C52.2399976,52.2343309 51.6473369,51.994 50.938,51.994 C50.2379965,51.994 49.6500024,52.2343309 49.174,52.715 C48.6979976,53.1956691 48.46,53.7906631 48.46,54.5 C48.46,55.2093369 48.6979976,55.8043309 49.174,56.285 C49.6500024,56.7656691 50.2379965,57.006 50.938,57.006 Z M65.554,51 L65.554,58 L64.336,58 L64.336,52.176 L61.746,52.176 L61.746,58 L60.528,58 L60.528,52.176 L59.408,52.176 L59.408,51 L60.528,51 L60.528,50.79 C60.528,48.9419908 61.5499898,48.018 63.594,48.018 C63.9766686,48.018 64.4573304,48.0786661 65.036,48.2 L65.036,49.306 C64.4666638,49.231333 63.986002,49.194 63.594,49.194 C62.9593302,49.194 62.4926682,49.3129988 62.194,49.551 C61.8953318,49.7890012 61.746,50.2019971 61.746,50.79 L61.746,51 L65.554,51 Z M67.416,58 L67.416,47.78 L68.634,47.78 L68.634,58 L67.416,58 Z M71.35,55.06 C71.4713339,55.6853365 71.7583311,56.1706649 72.211,56.516 C72.6636689,56.8613351 73.22133,57.034 73.884,57.034 C74.8080046,57.034 75.4799979,56.6933367 75.9,56.012 L76.936,56.6 C76.2546633,57.6546719 75.2280069,58.182 73.856,58.182 C72.7453278,58.182 71.8423368,57.8343368 71.147,57.139 C70.4516632,56.4436632 70.104,55.5640053 70.104,54.5 C70.104,53.4453281 70.4446633,52.5680035 71.126,51.868 C71.8073367,51.1679965 72.6893279,50.818 73.772,50.818 C74.7986718,50.818 75.6363301,51.1796631 76.285,51.903 C76.9336699,52.6263369 77.258,53.4966616 77.258,54.514 C77.258,54.6913342 77.2440001,54.8733324 77.216,55.06 L71.35,55.06 Z M73.772,51.966 C73.1186634,51.966 72.5773355,52.1503315 72.148,52.519 C71.7186645,52.8876685 71.4526672,53.3799969 71.35,53.996 L76.026,53.996 C75.9233328,53.33333 75.6620021,52.8293351 75.242,52.484 C74.8219979,52.1386649 74.3320028,51.966 73.772,51.966 Z" id="Uploadfle"></path>
                            <path d="M57.2,8.6 C58.0832,8.6 58.8,9.3168 58.8,10.2 L58.8,29.4 C58.8,30.2832 58.0832,31 57.2,31 L38,31 C37.1168,31 36.4,30.2832 36.4,29.4 L36.4,24.6 L50.8,24.6 C51.6832,24.6 52.4,23.8832 52.4,23 L52.4,8.6 L57.2,8.6 Z M48.8,22.4 L29.6,22.4 C28.7152,22.4 28,21.6848 28,20.8 L28,1.6 C28,0.7152 28.7152,7.28306304e-13 29.6,7.28306304e-13 L48.8,7.28306304e-13 C49.6848,7.28306304e-13 50.4,0.7152 50.4,1.6 L50.4,20.8 C50.4,21.6848 49.6848,22.4 48.8,22.4 Z" id="Combined-Shape"></path>
                        </g>
                        <g id="group" transform="translate(28.000000, 0.000000)"></g>
                    </g>
                </g>
            </g>
        </g>
    </g>
</svg>