<?xml version="1.0" encoding="UTF-8"?>
<svg width="120px" height="120px" viewBox="0 0 120 120" version="1.1" xmlns="http://www.w3.org/2000/svg" xmlns:xlink="http://www.w3.org/1999/xlink">
    <title>employee profile file document / document upload file</title>
    <g id="⚙️-configuration" stroke="none" stroke-width="1" fill="none" fill-rule="evenodd">
        <g id="government-document-generation_ESIC_04" transform="translate(-855.000000, -1150.000000)">
            <g id="form" transform="translate(135.000000, 255.000000)">
                <g id="address" transform="translate(40.000000, 258.000000)">
                    <g id="Group-21" transform="translate(0.000000, 462.000000)">
                        <g id="upload" transform="translate(680.000000, 175.000000)">
                            <path d="M4,0 L116,0 C118.209139,-4.05812251e-16 120,1.790861 120,4 L120,116 C120,118.209139 118.209139,120 116,120 L4,120 C1.790861,120 2.705415e-16,118.209139 0,116 L0,4 C-2.705415e-16,1.790861 1.790861,4.05812251e-16 4,0 Z" id="Rectangle" fill="#F4F7FB"></path>
                            <g id="Group-8" transform="translate(6.000000, 14.000000)">
                                <path d="M3.602,72.156 C4.622,72.156 5.39,71.7 5.87,70.968 L5.87,72 L6.914,72 L6.914,63.6 L5.87,63.6 L5.87,67.032 C5.39,66.3 4.622,65.844 3.602,65.844 C1.934,65.844 0.566,67.224 0.566,69 C0.566,70.776 1.934,72.156 3.602,72.156 Z M3.734,71.148 C2.534,71.148 1.61,70.224 1.61,69 C1.61,67.776 2.534,66.852 3.734,66.852 C4.946,66.852 5.87,67.776 5.87,69 C5.87,70.224 4.946,71.148 3.734,71.148 Z M9.026,64.908 C9.41,64.908 9.722,64.596 9.722,64.212 C9.722,63.828 9.41,63.504 9.026,63.504 C8.63,63.504 8.318,63.828 8.318,64.212 C8.318,64.596 8.63,64.908 9.026,64.908 Z M9.542,72 L9.542,66 L8.498,66 L8.498,72 L9.542,72 Z M13.142,72.156 C14.426,72.156 15.386,71.472 15.386,70.356 C15.386,68.148 12.026,68.904 12.026,67.62 C12.026,67.08 12.554,66.816 13.094,66.816 C13.622,66.816 14.15,67.044 14.378,67.584 L15.254,67.092 C14.87,66.312 14.078,65.844 13.094,65.844 C11.882,65.844 10.97,66.576 10.97,67.632 C10.97,69.804 14.33,69.072 14.33,70.356 C14.33,70.944 13.778,71.172 13.142,71.172 C12.398,71.172 11.846,70.812 11.654,70.236 L10.754,70.752 C11.102,71.58 11.942,72.156 13.142,72.156 Z M19.154,72.156 C20.174,72.156 20.942,71.7 21.422,70.968 L21.422,72 L22.466,72 L22.466,66 L21.422,66 L21.422,67.032 C20.942,66.3 20.174,65.844 19.154,65.844 C17.486,65.844 16.118,67.224 16.118,69 C16.118,70.776 17.486,72.156 19.154,72.156 Z M19.286,71.148 C18.086,71.148 17.162,70.224 17.162,69 C17.162,67.776 18.086,66.852 19.286,66.852 C20.498,66.852 21.422,67.776 21.422,69 C21.422,70.224 20.498,71.148 19.286,71.148 Z M27.362,72.156 C29.03,72.156 30.398,70.776 30.398,69 C30.398,67.224 29.03,65.844 27.362,65.844 C26.342,65.844 25.574,66.3 25.094,67.032 L25.094,63.6 L24.05,63.6 L24.05,72 L25.094,72 L25.094,70.968 C25.574,71.7 26.342,72.156 27.362,72.156 Z M27.23,71.148 C26.018,71.148 25.094,70.224 25.094,69 C25.094,67.776 26.018,66.852 27.23,66.852 C28.43,66.852 29.354,67.776 29.354,69 C29.354,70.224 28.43,71.148 27.23,71.148 Z M32.174,64.908 C32.558,64.908 32.87,64.596 32.87,64.212 C32.87,63.828 32.558,63.504 32.174,63.504 C31.778,63.504 31.466,63.828 31.466,64.212 C31.466,64.596 31.778,64.908 32.174,64.908 Z M32.69,72 L32.69,66 L31.646,66 L31.646,72 L32.69,72 Z M35.33,72 L35.33,63.24 L34.286,63.24 L34.286,72 L35.33,72 Z M37.454,64.908 C37.838,64.908 38.15,64.596 38.15,64.212 C38.15,63.828 37.838,63.504 37.454,63.504 C37.058,63.504 36.746,63.828 36.746,64.212 C36.746,64.596 37.058,64.908 37.454,64.908 Z M37.97,72 L37.97,66 L36.926,66 L36.926,72 L37.97,72 Z M42.83,72 L42.83,71.064 C41.762,71.112 41.234,71.172 41.234,70.26 L41.234,67.008 L42.83,67.008 L42.83,66 L41.234,66 L41.234,64.32 L40.19,64.632 L40.19,66 L39.002,66 L39.002,67.008 L40.19,67.008 L40.19,70.26 C40.19,71.76 41.03,72.24 42.83,72 Z M47.054,72.372 L49.502,66 L48.386,66 L46.658,70.704 L44.618,66 L43.502,66 L46.118,71.976 L46.01,72.204 C45.698,72.996 45.194,73.488 44.39,73.428 L44.39,74.4 C45.614,74.484 46.55,73.716 47.054,72.372 Z M56.198,72.156 C57.374,72.156 58.394,71.532 58.898,70.596 L58.01,70.08 C57.674,70.704 57.014,71.124 56.198,71.124 C54.998,71.124 54.086,70.2 54.086,69 C54.086,67.788 54.998,66.864 56.198,66.864 C57.002,66.864 57.674,67.284 57.974,67.92 L58.85,67.416 C58.394,66.468 57.386,65.844 56.198,65.844 C54.386,65.844 53.042,67.224 53.042,69 C53.042,70.776 54.386,72.156 56.198,72.156 Z M62.726,72.156 C63.926,72.156 64.838,71.616 65.366,70.8 L64.478,70.296 C64.178,70.788 63.578,71.172 62.75,71.172 C61.634,71.172 60.782,70.56 60.578,69.48 L65.606,69.48 C65.63,69.324 65.642,69.168 65.642,69.012 C65.642,67.332 64.466,65.844 62.654,65.844 C60.782,65.844 59.51,67.224 59.51,69 C59.51,70.8 60.794,72.156 62.726,72.156 Z M64.586,68.568 L60.578,68.568 C60.746,67.524 61.526,66.828 62.654,66.828 C63.554,66.828 64.406,67.38 64.586,68.568 Z M67.886,72 L67.886,68.82 C67.886,67.404 68.858,66.948 69.758,66.984 L69.758,65.892 C69.002,65.892 68.27,66.168 67.886,67.008 L67.886,66 L66.842,66 L66.842,72 L67.886,72 Z M74.186,72 L74.186,71.064 C73.118,71.112 72.59,71.172 72.59,70.26 L72.59,67.008 L74.186,67.008 L74.186,66 L72.59,66 L72.59,64.32 L71.546,64.632 L71.546,66 L70.358,66 L70.358,67.008 L71.546,67.008 L71.546,70.26 C71.546,71.76 72.386,72.24 74.186,72 Z M75.95,64.908 C76.334,64.908 76.646,64.596 76.646,64.212 C76.646,63.828 76.334,63.504 75.95,63.504 C75.554,63.504 75.242,63.828 75.242,64.212 C75.242,64.596 75.554,64.908 75.95,64.908 Z M76.466,72 L76.466,66 L75.422,66 L75.422,72 L76.466,72 Z M79.562,72 L79.562,67.008 L81.782,67.008 L81.782,72 L82.826,72 L82.826,66 L79.562,66 L79.562,65.82 C79.562,64.776 80.102,64.452 81.146,64.452 C81.53,64.452 81.926,64.488 82.382,64.548 L82.382,63.6 C81.926,63.504 81.53,63.444 81.146,63.444 C79.43,63.444 78.518,64.224 78.518,65.82 L78.518,66 L77.558,66 L77.558,67.008 L78.518,67.008 L78.518,72 L79.562,72 Z M87.242,72.156 C88.418,72.156 89.438,71.532 89.942,70.596 L89.054,70.08 C88.718,70.704 88.058,71.124 87.242,71.124 C86.042,71.124 85.13,70.2 85.13,69 C85.13,67.788 86.042,66.864 87.242,66.864 C88.046,66.864 88.718,67.284 89.018,67.92 L89.894,67.416 C89.438,66.468 88.43,65.844 87.242,65.844 C85.43,65.844 84.086,67.224 84.086,69 C84.086,70.776 85.43,72.156 87.242,72.156 Z M93.59,72.156 C94.61,72.156 95.378,71.7 95.858,70.968 L95.858,72 L96.902,72 L96.902,66 L95.858,66 L95.858,67.032 C95.378,66.3 94.61,65.844 93.59,65.844 C91.922,65.844 90.554,67.224 90.554,69 C90.554,70.776 91.922,72.156 93.59,72.156 Z M93.722,71.148 C92.522,71.148 91.598,70.224 91.598,69 C91.598,67.776 92.522,66.852 93.722,66.852 C94.934,66.852 95.858,67.776 95.858,69 C95.858,70.224 94.934,71.148 93.722,71.148 Z M101.75,72 L101.75,71.064 C100.682,71.112 100.154,71.172 100.154,70.26 L100.154,67.008 L101.75,67.008 L101.75,66 L100.154,66 L100.154,64.32 L99.11,64.632 L99.11,66 L97.922,66 L97.922,67.008 L99.11,67.008 L99.11,70.26 C99.11,71.76 99.95,72.24 101.75,72 Z M105.566,72.156 C106.766,72.156 107.678,71.616 108.206,70.8 L107.318,70.296 C107.018,70.788 106.418,71.172 105.59,71.172 C104.474,71.172 103.622,70.56 103.418,69.48 L108.446,69.48 C108.47,69.324 108.482,69.168 108.482,69.012 C108.482,67.332 107.306,65.844 105.494,65.844 C103.622,65.844 102.35,67.224 102.35,69 C102.35,70.8 103.634,72.156 105.566,72.156 Z M107.426,68.568 L103.418,68.568 C103.586,67.524 104.366,66.828 105.494,66.828 C106.394,66.828 107.246,67.38 107.426,68.568 Z" id="disabilitycertifcate" fill="#8697A8" fill-rule="nonzero"></path>
                                <path d="M27.988,50.156 C28.828,50.156 29.488,49.844 29.932,49.136 L29.932,50 L30.976,50 L30.976,44 L29.932,44 L29.932,47.18 C29.932,48.596 29.152,49.16 28.192,49.16 C27.268,49.16 26.704,48.608 26.704,47.624 L26.704,44 L25.66,44 L25.66,47.684 C25.66,49.22 26.584,50.156 27.988,50.156 Z M33.604,52.4 L33.604,48.968 C34.084,49.7 34.852,50.156 35.872,50.156 C37.54,50.156 38.908,48.776 38.908,47 C38.908,45.224 37.54,43.844 35.872,43.844 C34.852,43.844 34.084,44.3 33.604,45.032 L33.604,44 L32.56,44 L32.56,52.4 L33.604,52.4 Z M35.74,49.148 C34.528,49.148 33.604,48.224 33.604,47 C33.604,45.776 34.528,44.852 35.74,44.852 C36.94,44.852 37.864,45.776 37.864,47 C37.864,48.224 36.94,49.148 35.74,49.148 Z M41.2,50 L41.2,41.24 L40.156,41.24 L40.156,50 L41.2,50 Z M45.616,50.156 C47.368,50.156 48.784,48.776 48.784,47 C48.784,45.224 47.368,43.844 45.616,43.844 C43.864,43.844 42.46,45.224 42.46,47 C42.46,48.776 43.864,50.156 45.616,50.156 Z M45.616,49.136 C44.428,49.136 43.504,48.212 43.504,47 C43.504,45.788 44.428,44.864 45.616,44.864 C46.816,44.864 47.74,45.788 47.74,47 C47.74,48.212 46.816,49.136 45.616,49.136 Z M52.72,50.156 C53.74,50.156 54.508,49.7 54.988,48.968 L54.988,50 L56.032,50 L56.032,44 L54.988,44 L54.988,45.032 C54.508,44.3 53.74,43.844 52.72,43.844 C51.052,43.844 49.684,45.224 49.684,47 C49.684,48.776 51.052,50.156 52.72,50.156 Z M52.852,49.148 C51.652,49.148 50.728,48.224 50.728,47 C50.728,45.776 51.652,44.852 52.852,44.852 C54.064,44.852 54.988,45.776 54.988,47 C54.988,48.224 54.064,49.148 52.852,49.148 Z M60.316,50.156 C61.336,50.156 62.104,49.7 62.584,48.968 L62.584,50 L63.628,50 L63.628,41.6 L62.584,41.6 L62.584,45.032 C62.104,44.3 61.336,43.844 60.316,43.844 C58.648,43.844 57.28,45.224 57.28,47 C57.28,48.776 58.648,50.156 60.316,50.156 Z M60.448,49.148 C59.248,49.148 58.324,48.224 58.324,47 C58.324,45.776 59.248,44.852 60.448,44.852 C61.66,44.852 62.584,45.776 62.584,47 C62.584,48.224 61.66,49.148 60.448,49.148 Z M69.712,50 L69.712,45.008 L71.932,45.008 L71.932,50 L72.976,50 L72.976,44 L69.712,44 L69.712,43.82 C69.712,42.776 70.252,42.452 71.296,42.452 C71.68,42.452 72.076,42.488 72.532,42.548 L72.532,41.6 C72.076,41.504 71.68,41.444 71.296,41.444 C69.58,41.444 68.668,42.224 68.668,43.82 L68.668,44 L67.708,44 L67.708,45.008 L68.668,45.008 L68.668,50 L69.712,50 Z M75.616,50 L75.616,41.24 L74.572,41.24 L74.572,50 L75.616,50 Z M80.092,50.156 C81.292,50.156 82.204,49.616 82.732,48.8 L81.844,48.296 C81.544,48.788 80.944,49.172 80.116,49.172 C79,49.172 78.148,48.56 77.944,47.48 L82.972,47.48 C82.996,47.324 83.008,47.168 83.008,47.012 C83.008,45.332 81.832,43.844 80.02,43.844 C78.148,43.844 76.876,45.224 76.876,47 C76.876,48.8 78.16,50.156 80.092,50.156 Z M81.952,46.568 L77.944,46.568 C78.112,45.524 78.892,44.828 80.02,44.828 C80.92,44.828 81.772,45.38 81.952,46.568 Z" id="uploadfle" fill="#8697A8" fill-rule="nonzero"></path>
                                <g id="group" transform="translate(40.000000, 0.000000)"></g>
                                <path d="M68.2,8.6 C69.0832,8.6 69.8,9.3168 69.8,10.2 L69.8,10.2 L69.8,29.4 C69.8,30.2832 69.0832,31 68.2,31 L68.2,31 L49,31 C48.1168,31 47.4,30.2832 47.4,29.4 L47.4,29.4 L47.4,24.6 L61.8,24.6 C62.6832,24.6 63.4,23.8832 63.4,23 L63.4,23 L63.4,8.6 Z M59.8,7.28306304e-13 C60.6848,7.28306304e-13 61.4,0.7152 61.4,1.6 L61.4,20.8 C61.4,21.6848 60.6848,22.4 59.8,22.4 L40.6,22.4 C39.7152,22.4 39,21.6848 39,20.8 L39,1.6 C39,0.7152 39.7152,7.28306304e-13 40.6,7.28306304e-13 L59.8,7.28306304e-13 Z" id="Combined-Shape" fill="#7892B8" fill-rule="nonzero"></path>
                            </g>
                        </g>
                    </g>
                </g>
            </g>
        </g>
    </g>
</svg>