<?xml version="1.0" encoding="UTF-8"?>
<svg width="102px" height="30px" viewBox="0 0 102 30" version="1.1" xmlns="http://www.w3.org/2000/svg" xmlns:xlink="http://www.w3.org/1999/xlink">
    <!-- Generator: sketchtool 56.2 (101010) - https://sketch.com -->
    <title>5CB85F1E-FF66-43CA-B296-7D7DA3C4968B</title>
    <desc>Created with sketchtool.</desc>
    <defs>
        <path d="M7.5,6.5 L9.5,6.5 L6,10.5 L2.5,6.5 L4.5,6.5 L4.5,2.5 L7.5,2.5 L7.5,6.5 Z M11,1 L8.5,1 L8.5,0 L12,0 L12,3.5 L11,3.5 L11,1 Z M1,1 L1,3.5 L0,3.5 L0,0 L3.5,0 L3.5,1 L1,1 Z M11,11 L11,8.5 L12,8.5 L12,12 L8.5,12 L8.5,11 L11,11 Z M1,11 L3.5,11 L3.5,12 L0,12 L0,8.5 L1,8.5 L1,11 Z" id="path-1"></path>
    </defs>
    <g id="👽-GBV-Client" stroke="none" stroke-width="1" fill="none" fill-rule="evenodd">
        <g id="BGV-Client-zomato-add-employee-Basic-information_1" transform="translate(-327.000000, -401.000000)">
            <g id="Basic-information" transform="translate(158.000000, 120.000000)">
                <g id="Group-4" transform="translate(169.000000, 281.000000)">
                    <rect id="Rectangle" fill="#EBECFD" x="0" y="0" width="102" height="30" rx="15"></rect>
                    <path d="M45.754,12 L46.972,12 L46.972,19 L45.754,19 L45.754,17.992 C45.2593309,18.7853373 44.5033384,19.182 43.486,19.182 C42.6646626,19.182 42.0066691,18.9230026 41.512,18.405 C41.0173309,17.8869974 40.77,17.1846711 40.77,16.298 L40.77,12 L41.988,12 L41.988,16.228 C41.988,16.7973362 42.1419985,17.2383318 42.45,17.551 C42.7580015,17.8636682 43.182664,18.02 43.724,18.02 C44.3306697,18.02 44.8206648,17.8310019 45.194,17.453 C45.5673352,17.0749981 45.754,16.4940039 45.754,15.71 L45.754,12 Z M52.684,11.818 C53.6640049,11.818 54.4993299,12.1749964 55.19,12.889 C55.8806701,13.6030036 56.226,14.4733282 56.226,15.5 C56.226,16.5266718 55.8806701,17.3969964 55.19,18.111 C54.4993299,18.8250036 53.6640049,19.182 52.684,19.182 C51.5266609,19.182 50.6446697,18.7200046 50.038,17.796 L50.038,21.8 L48.82,21.8 L48.82,12 L50.038,12 L50.038,13.204 C50.6446697,12.2799954 51.5266609,11.818 52.684,11.818 Z M52.53,18.006 C53.2300035,18.006 53.8179976,17.7656691 54.294,17.285 C54.7700024,16.8043309 55.008,16.2093369 55.008,15.5 C55.008,14.7906631 54.7700024,14.1956691 54.294,13.715 C53.8179976,13.2343309 53.2300035,12.994 52.53,12.994 C51.8206631,12.994 51.2280024,13.2343309 50.752,13.715 C50.2759976,14.1956691 50.038,14.7906631 50.038,15.5 C50.038,16.2093369 50.2759976,16.8043309 50.752,17.285 C51.2280024,17.7656691 51.8206631,18.006 52.53,18.006 Z M57.682,19 L57.682,8.78 L58.9,8.78 L58.9,19 L57.682,19 Z M66.67,18.118 C65.9513297,18.8273369 65.0786718,19.182 64.052,19.182 C63.0253282,19.182 62.1550036,18.8273369 61.441,18.118 C60.7269964,17.4086631 60.37,16.5360052 60.37,15.5 C60.37,14.4639948 60.7269964,13.5913369 61.441,12.882 C62.1550036,12.1726631 63.0253282,11.818 64.052,11.818 C65.0786718,11.818 65.9513297,12.1726631 66.67,12.882 C67.3886703,13.5913369 67.748,14.4639948 67.748,15.5 C67.748,16.5360052 67.3886703,17.4086631 66.67,18.118 Z M64.052,17.992 C64.7520035,17.992 65.3399976,17.7540024 65.816,17.278 C66.2920024,16.8019976 66.53,16.2093369 66.53,15.5 C66.53,14.7906631 66.2920024,14.1980024 65.816,13.722 C65.3399976,13.2459976 64.7520035,13.008 64.052,13.008 C63.3613299,13.008 62.7780024,13.2459976 62.302,13.722 C61.8259976,14.1980024 61.588,14.7906631 61.588,15.5 C61.588,16.2093369 61.8259976,16.8019976 62.302,17.278 C62.7780024,17.7540024 63.3613299,17.992 64.052,17.992 Z M74.986,12 L76.204,12 L76.204,19 L74.986,19 L74.986,17.796 C74.3793303,18.7200046 73.4973391,19.182 72.34,19.182 C71.3599951,19.182 70.5246701,18.8250036 69.834,18.111 C69.1433299,17.3969964 68.798,16.5266718 68.798,15.5 C68.798,14.4733282 69.1433299,13.6030036 69.834,12.889 C70.5246701,12.1749964 71.3599951,11.818 72.34,11.818 C73.4973391,11.818 74.3793303,12.2799954 74.986,13.204 L74.986,12 Z M72.494,18.006 C73.2033369,18.006 73.7959976,17.7656691 74.272,17.285 C74.7480024,16.8043309 74.986,16.2093369 74.986,15.5 C74.986,14.7906631 74.7480024,14.1956691 74.272,13.715 C73.7959976,13.2343309 73.2033369,12.994 72.494,12.994 C71.7939965,12.994 71.2060024,13.2343309 70.73,13.715 C70.2539976,14.1956691 70.016,14.7906631 70.016,15.5 C70.016,16.2093369 70.2539976,16.8043309 70.73,17.285 C71.2060024,17.7656691 71.7939965,18.006 72.494,18.006 Z M83.848,9.2 L85.066,9.2 L85.066,19 L83.848,19 L83.848,17.796 C83.2413303,18.7200046 82.3593391,19.182 81.202,19.182 C80.2219951,19.182 79.3866701,18.8250036 78.696,18.111 C78.0053299,17.3969964 77.66,16.5266718 77.66,15.5 C77.66,14.4733282 78.0053299,13.6030036 78.696,12.889 C79.3866701,12.1749964 80.2219951,11.818 81.202,11.818 C82.3593391,11.818 83.2413303,12.2799954 83.848,13.204 L83.848,9.2 Z M81.356,18.006 C82.0653369,18.006 82.6579976,17.7656691 83.134,17.285 C83.6100024,16.8043309 83.848,16.2093369 83.848,15.5 C83.848,14.7906631 83.6100024,14.1956691 83.134,13.715 C82.6579976,13.2343309 82.0653369,12.994 81.356,12.994 C80.6559965,12.994 80.0680024,13.2343309 79.592,13.715 C79.1159976,14.1956691 78.878,14.7906631 78.878,15.5 C78.878,16.2093369 79.1159976,16.8043309 79.592,17.285 C80.0680024,17.7656691 80.6559965,18.006 81.356,18.006 Z" id="upload" fill="#0059B2" fill-rule="nonzero"></path>
                    <g id="icon-/-12-/-info-/-upload" transform="translate(22.000000, 15.000000) rotate(-180.000000) translate(-22.000000, -15.000000) translate(16.000000, 9.000000)">
                        <mask id="mask-2" fill="white">
                            <use xlink:href="#path-1"></use>
                        </mask>
                        <use id="Combined-Shape" fill="#FFFFFF" transform="translate(6.000000, 6.000000) scale(1, -1) translate(-6.000000, -6.000000) " xlink:href="#path-1"></use>
                        <rect id="Rectangle" fill="#0059B2" mask="url(#mask-2)" x="0" y="0" width="12" height="12"></rect>
                    </g>
                </g>
            </g>
        </g>
    </g>
</svg>