<?xml version="1.0" encoding="UTF-8"?>
<svg width="122px" height="122px" viewBox="0 0 122 122" version="1.1" xmlns="http://www.w3.org/2000/svg" xmlns:xlink="http://www.w3.org/1999/xlink">
    <!-- Generator: sketchtool 56.2 (101010) - https://sketch.com -->
    <title>6AB8C677-16A6-4A0A-B2FF-C0B5F9F9524B</title>
    <desc>Created with sketchtool.</desc>
    <g id="👽-GBV-Client" stroke="none" stroke-width="1" fill="none" fill-rule="evenodd">
        <g id="BGV-Client-zomato-add-employee-Entity-EMployee" transform="translate(-199.000000, -1477.000000)">
            <g id="employee-basic-information" transform="translate(160.000000, 120.000000)">
                <g id="upload" transform="translate(40.000000, 1358.000000)">
                    <path d="M4,0 L116,0 C118.209139,-4.05812251e-16 120,1.790861 120,4 L120,116 C120,118.209139 118.209139,120 116,120 L4,120 C1.790861,120 2.705415e-16,118.209139 0,116 L0,4 C-2.705415e-16,1.790861 1.790861,4.05812251e-16 4,0 Z" id="Rectangle" stroke="#8697A8" fill="#F3F7FD" stroke-linecap="round" stroke-dasharray="3"></path>
                    <g id="Group-4" transform="translate(14.000000, 23.000000)">
                        <g id="Group-8">
                            <path d="M5.914,51 L7.132,51 L7.132,58 L5.914,58 L5.914,56.992 C5.41933086,57.7853373 4.66333842,58.182 3.646,58.182 C2.82466256,58.182 2.16666914,57.9230026 1.672,57.405 C1.17733086,56.8869974 0.93,56.1846711 0.93,55.298 L0.93,51 L2.148,51 L2.148,55.228 C2.148,55.7973362 2.30199846,56.2383318 2.61,56.551 C2.91800154,56.8636682 3.34266396,57.02 3.884,57.02 C4.4906697,57.02 4.9806648,56.8310019 5.354,56.453 C5.7273352,56.0749981 5.914,55.4940039 5.914,54.71 L5.914,51 Z M12.844,50.818 C13.8240049,50.818 14.6593299,51.1749964 15.35,51.889 C16.0406701,52.6030036 16.386,53.4733282 16.386,54.5 C16.386,55.5266718 16.0406701,56.3969964 15.35,57.111 C14.6593299,57.8250036 13.8240049,58.182 12.844,58.182 C11.6866609,58.182 10.8046697,57.7200046 10.198,56.796 L10.198,60.8 L8.98,60.8 L8.98,51 L10.198,51 L10.198,52.204 C10.8046697,51.2799954 11.6866609,50.818 12.844,50.818 Z M12.69,57.006 C13.3900035,57.006 13.9779976,56.7656691 14.454,56.285 C14.9300024,55.8043309 15.168,55.2093369 15.168,54.5 C15.168,53.7906631 14.9300024,53.1956691 14.454,52.715 C13.9779976,52.2343309 13.3900035,51.994 12.69,51.994 C11.9806631,51.994 11.3880024,52.2343309 10.912,52.715 C10.4359976,53.1956691 10.198,53.7906631 10.198,54.5 C10.198,55.2093369 10.4359976,55.8043309 10.912,56.285 C11.3880024,56.7656691 11.9806631,57.006 12.69,57.006 Z M17.842,58 L17.842,47.78 L19.06,47.78 L19.06,58 L17.842,58 Z M26.83,57.118 C26.1113297,57.8273369 25.2386718,58.182 24.212,58.182 C23.1853282,58.182 22.3150036,57.8273369 21.601,57.118 C20.8869964,56.4086631 20.53,55.5360052 20.53,54.5 C20.53,53.4639948 20.8869964,52.5913369 21.601,51.882 C22.3150036,51.1726631 23.1853282,50.818 24.212,50.818 C25.2386718,50.818 26.1113297,51.1726631 26.83,51.882 C27.5486703,52.5913369 27.908,53.4639948 27.908,54.5 C27.908,55.5360052 27.5486703,56.4086631 26.83,57.118 Z M24.212,56.992 C24.9120035,56.992 25.4999976,56.7540024 25.976,56.278 C26.4520024,55.8019976 26.69,55.2093369 26.69,54.5 C26.69,53.7906631 26.4520024,53.1980024 25.976,52.722 C25.4999976,52.2459976 24.9120035,52.008 24.212,52.008 C23.5213299,52.008 22.9380024,52.2459976 22.462,52.722 C21.9859976,53.1980024 21.748,53.7906631 21.748,54.5 C21.748,55.2093369 21.9859976,55.8019976 22.462,56.278 C22.9380024,56.7540024 23.5213299,56.992 24.212,56.992 Z M35.146,51 L36.364,51 L36.364,58 L35.146,58 L35.146,56.796 C34.5393303,57.7200046 33.6573391,58.182 32.5,58.182 C31.5199951,58.182 30.6846701,57.8250036 29.994,57.111 C29.3033299,56.3969964 28.958,55.5266718 28.958,54.5 C28.958,53.4733282 29.3033299,52.6030036 29.994,51.889 C30.6846701,51.1749964 31.5199951,50.818 32.5,50.818 C33.6573391,50.818 34.5393303,51.2799954 35.146,52.204 L35.146,51 Z M32.654,57.006 C33.3633369,57.006 33.9559976,56.7656691 34.432,56.285 C34.9080024,55.8043309 35.146,55.2093369 35.146,54.5 C35.146,53.7906631 34.9080024,53.1956691 34.432,52.715 C33.9559976,52.2343309 33.3633369,51.994 32.654,51.994 C31.9539965,51.994 31.3660024,52.2343309 30.89,52.715 C30.4139976,53.1956691 30.176,53.7906631 30.176,54.5 C30.176,55.2093369 30.4139976,55.8043309 30.89,56.285 C31.3660024,56.7656691 31.9539965,57.006 32.654,57.006 Z M44.008,48.2 L45.226,48.2 L45.226,58 L44.008,58 L44.008,56.796 C43.4013303,57.7200046 42.5193391,58.182 41.362,58.182 C40.3819951,58.182 39.5466701,57.8250036 38.856,57.111 C38.1653299,56.3969964 37.82,55.5266718 37.82,54.5 C37.82,53.4733282 38.1653299,52.6030036 38.856,51.889 C39.5466701,51.1749964 40.3819951,50.818 41.362,50.818 C42.5193391,50.818 43.4013303,51.2799954 44.008,52.204 L44.008,48.2 Z M41.516,57.006 C42.2253369,57.006 42.8179976,56.7656691 43.294,56.285 C43.7700024,55.8043309 44.008,55.2093369 44.008,54.5 C44.008,53.7906631 43.7700024,53.1956691 43.294,52.715 C42.8179976,52.2343309 42.2253369,51.994 41.516,51.994 C40.8159965,51.994 40.2280024,52.2343309 39.752,52.715 C39.2759976,53.1956691 39.038,53.7906631 39.038,54.5 C39.038,55.2093369 39.2759976,55.8043309 39.752,56.285 C40.2280024,56.7656691 40.8159965,57.006 41.516,57.006 Z M51.624,52.89 C51.624,53.160668 51.759332,53.3776658 52.03,53.541 C52.300668,53.7043342 52.6273314,53.8349995 53.01,53.933 C53.3926686,54.0310005 53.7753314,54.1429994 54.158,54.269 C54.5406686,54.3950006 54.867332,54.6096651 55.138,54.913 C55.408668,55.2163348 55.544,55.6059976 55.544,56.082 C55.544,56.7166698 55.2990025,57.2253314 54.809,57.608 C54.3189976,57.9906686 53.6913372,58.182 52.926,58.182 C52.2446633,58.182 51.6613358,58.0326682 51.176,57.734 C50.6906642,57.4353318 50.3453344,57.0386691 50.14,56.544 L51.19,55.942 C51.3020006,56.2780017 51.5119985,56.543999 51.82,56.74 C52.1280015,56.936001 52.4966645,57.034 52.926,57.034 C53.3273353,57.034 53.6586654,56.9570008 53.92,56.803 C54.1813346,56.6489992 54.312,56.4086683 54.312,56.082 C54.312,55.811332 54.176668,55.5943342 53.906,55.431 C53.635332,55.2676659 53.3086686,55.1370005 52.926,55.039 C52.5433314,54.9409995 52.1606686,54.8266673 51.778,54.696 C51.3953314,54.5653327 51.068668,54.3506682 50.798,54.052 C50.527332,53.7533318 50.392,53.370669 50.392,52.904 C50.392,52.2973303 50.6276643,51.798002 51.099,51.406 C51.5703357,51.013998 52.1606631,50.818 52.87,50.818 C53.4393362,50.818 53.9456645,50.946332 54.389,51.203 C54.8323355,51.4596679 55.1659989,51.8166644 55.39,52.274 L54.368,52.848 C54.1159987,52.2506637 53.6166704,51.952 52.87,51.952 C52.5246649,51.952 52.2306679,52.0336658 51.988,52.197 C51.7453321,52.3603341 51.624,52.5913318 51.624,52.89 Z M57.532,49.726 C57.2986655,49.726 57.1026675,49.6466675 56.944,49.488 C56.7853325,49.3293325 56.706,49.1380011 56.706,48.914 C56.706,48.6899989 56.7853325,48.4963342 56.944,48.333 C57.1026675,48.1696659 57.2986655,48.088 57.532,48.088 C57.7560011,48.088 57.9473325,48.1696659 58.106,48.333 C58.2646675,48.4963342 58.344,48.6899989 58.344,48.914 C58.344,49.1380011 58.2646675,49.3293325 58.106,49.488 C57.9473325,49.6466675 57.7560011,49.726 57.532,49.726 Z M56.916,58 L56.916,51 L58.134,51 L58.134,58 L56.916,58 Z M65.806,51 L67.01,51 L67.01,57.706 C67.01,58.7420052 66.6600035,59.5469971 65.96,60.121 C65.2599965,60.6950029 64.4200049,60.982 63.44,60.982 C62.6559961,60.982 61.9793362,60.8350015 61.41,60.541 C60.8406638,60.2469985 60.4113348,59.8246694 60.122,59.274 L61.186,58.672 C61.5686686,59.4560039 62.3293276,59.848 63.468,59.848 C64.1960036,59.848 64.7676646,59.6566686 65.183,59.274 C65.5983354,58.8913314 65.806,58.36867 65.806,57.706 L65.806,56.712 C65.1899969,57.645338 64.3126724,58.112 63.174,58.112 C62.1753283,58.112 61.3306701,57.7573369 60.64,57.048 C59.9493299,56.3386631 59.604,55.4753384 59.604,54.458 C59.604,53.4406616 59.9493299,52.5796702 60.64,51.875 C61.3306701,51.1703298 62.1753283,50.818 63.174,50.818 C64.3220057,50.818 65.1993303,51.2799954 65.806,52.204 L65.806,51 Z M61.536,56.236 C62.0120024,56.7120024 62.6046631,56.95 63.314,56.95 C64.0233369,56.95 64.6159976,56.7120024 65.092,56.236 C65.5680024,55.7599976 65.806,55.1673369 65.806,54.458 C65.806,53.7579965 65.5680024,53.1700024 65.092,52.694 C64.6159976,52.2179976 64.0233369,51.98 63.314,51.98 C62.6046631,51.98 62.0120024,52.2179976 61.536,52.694 C61.0599976,53.1700024 60.822,53.7579965 60.822,54.458 C60.822,55.1673369 61.0599976,55.7599976 61.536,56.236 Z M72.344,50.818 C73.1653374,50.818 73.8233309,51.0769974 74.318,51.595 C74.8126691,52.1130026 75.06,52.8153289 75.06,53.702 L75.06,58 L73.842,58 L73.842,53.772 C73.842,53.2026638 73.6880015,52.7616682 73.38,52.449 C73.0719985,52.1363318 72.647336,51.98 72.106,51.98 C71.4993303,51.98 71.0093352,52.1689981 70.636,52.547 C70.2626648,52.9250019 70.076,53.5059961 70.076,54.29 L70.076,58 L68.858,58 L68.858,51 L70.076,51 L70.076,52.008 C70.5706691,51.2146627 71.3266616,50.818 72.344,50.818 Z M77.608,55.06 C77.7293339,55.6853365 78.0163311,56.1706649 78.469,56.516 C78.9216689,56.8613351 79.47933,57.034 80.142,57.034 C81.0660046,57.034 81.7379979,56.6933367 82.158,56.012 L83.194,56.6 C82.5126633,57.6546719 81.4860069,58.182 80.114,58.182 C79.0033278,58.182 78.1003368,57.8343368 77.405,57.139 C76.7096632,56.4436632 76.362,55.5640053 76.362,54.5 C76.362,53.4453281 76.7026633,52.5680035 77.384,51.868 C78.0653367,51.1679965 78.9473279,50.818 80.03,50.818 C81.0566718,50.818 81.8943301,51.1796631 82.543,51.903 C83.1916699,52.6263369 83.516,53.4966616 83.516,54.514 C83.516,54.6913342 83.5020001,54.8733324 83.474,55.06 L77.608,55.06 Z M80.03,51.966 C79.3766634,51.966 78.8353355,52.1503315 78.406,52.519 C77.9766645,52.8876685 77.7106672,53.3799969 77.608,53.996 L82.284,53.996 C82.1813328,53.33333 81.9200021,52.8293351 81.5,52.484 C81.0799979,52.1386649 80.5900028,51.966 80.03,51.966 Z M90.698,48.2 L91.916,48.2 L91.916,58 L90.698,58 L90.698,56.796 C90.0913303,57.7200046 89.2093391,58.182 88.052,58.182 C87.0719951,58.182 86.2366701,57.8250036 85.546,57.111 C84.8553299,56.3969964 84.51,55.5266718 84.51,54.5 C84.51,53.4733282 84.8553299,52.6030036 85.546,51.889 C86.2366701,51.1749964 87.0719951,50.818 88.052,50.818 C89.2093391,50.818 90.0913303,51.2799954 90.698,52.204 L90.698,48.2 Z M88.206,57.006 C88.9153369,57.006 89.5079976,56.7656691 89.984,56.285 C90.4600024,55.8043309 90.698,55.2093369 90.698,54.5 C90.698,53.7906631 90.4600024,53.1956691 89.984,52.715 C89.5079976,52.2343309 88.9153369,51.994 88.206,51.994 C87.5059965,51.994 86.9180024,52.2343309 86.442,52.715 C85.9659976,53.1956691 85.728,53.7906631 85.728,54.5 C85.728,55.2093369 85.9659976,55.8043309 86.442,56.285 C86.9180024,56.7656691 87.5059965,57.006 88.206,57.006 Z M26.746,72.182 C25.6913281,72.182 24.8140035,71.8296702 24.114,71.125 C23.4139965,70.4203298 23.064,69.5453386 23.064,68.5 C23.064,67.4546614 23.4139965,66.5796702 24.114,65.875 C24.8140035,65.1703298 25.6913281,64.818 26.746,64.818 C27.4366701,64.818 28.0573306,64.983665 28.608,65.315 C29.1586694,65.646335 29.569332,66.0919972 29.84,66.652 L28.818,67.24 C28.6406658,66.8666648 28.3676685,66.5680011 27.999,66.344 C27.6303315,66.1199989 27.212669,66.008 26.746,66.008 C26.0459965,66.008 25.4603357,66.2459976 24.989,66.722 C24.5176643,67.1980024 24.282,67.7906631 24.282,68.5 C24.282,69.2000035 24.5176643,69.7879976 24.989,70.264 C25.4603357,70.7400024 26.0459965,70.978 26.746,70.978 C27.212669,70.978 27.6326648,70.8683344 28.006,70.649 C28.3793352,70.4296656 28.663999,70.1333352 28.86,69.76 L29.896,70.362 C29.5973318,70.9126694 29.1680028,71.353665 28.608,71.685 C28.0479972,72.016335 27.4273367,72.182 26.746,72.182 Z M36.91,71.118 C36.1913297,71.8273369 35.3186718,72.182 34.292,72.182 C33.2653282,72.182 32.3950036,71.8273369 31.681,71.118 C30.9669964,70.4086631 30.61,69.5360052 30.61,68.5 C30.61,67.4639948 30.9669964,66.5913369 31.681,65.882 C32.3950036,65.1726631 33.2653282,64.818 34.292,64.818 C35.3186718,64.818 36.1913297,65.1726631 36.91,65.882 C37.6286703,66.5913369 37.988,67.4639948 37.988,68.5 C37.988,69.5360052 37.6286703,70.4086631 36.91,71.118 Z M34.292,70.992 C34.9920035,70.992 35.5799976,70.7540024 36.056,70.278 C36.5320024,69.8019976 36.77,69.2093369 36.77,68.5 C36.77,67.7906631 36.5320024,67.1980024 36.056,66.722 C35.5799976,66.2459976 34.9920035,66.008 34.292,66.008 C33.6013299,66.008 33.0180024,66.2459976 32.542,66.722 C32.0659976,67.1980024 31.828,67.7906631 31.828,68.5 C31.828,69.2093369 32.0659976,69.8019976 32.542,70.278 C33.0180024,70.7540024 33.6013299,70.992 34.292,70.992 Z M42.916,64.818 C43.7373374,64.818 44.3953309,65.0769974 44.89,65.595 C45.3846691,66.1130026 45.632,66.8153289 45.632,67.702 L45.632,72 L44.414,72 L44.414,67.772 C44.414,67.2026638 44.2600015,66.7616682 43.952,66.449 C43.6439985,66.1363318 43.219336,65.98 42.678,65.98 C42.0713303,65.98 41.5813352,66.1689981 41.208,66.547 C40.8346648,66.9250019 40.648,67.5059961 40.648,68.29 L40.648,72 L39.43,72 L39.43,65 L40.648,65 L40.648,66.008 C41.1426691,65.2146627 41.8986616,64.818 42.916,64.818 Z M48.376,66.89 C48.376,67.160668 48.511332,67.3776658 48.782,67.541 C49.052668,67.7043341 49.3793314,67.8349995 49.762,67.933 C50.1446686,68.0310005 50.5273314,68.1429994 50.91,68.269 C51.2926686,68.3950006 51.619332,68.6096651 51.89,68.913 C52.160668,69.2163348 52.296,69.6059976 52.296,70.082 C52.296,70.7166698 52.0510025,71.2253314 51.561,71.608 C51.0709976,71.9906686 50.4433372,72.182 49.678,72.182 C48.9966633,72.182 48.4133358,72.0326682 47.928,71.734 C47.4426642,71.4353318 47.0973344,71.0386691 46.892,70.544 L47.942,69.942 C48.0540006,70.2780017 48.2639985,70.543999 48.572,70.74 C48.8800015,70.936001 49.2486645,71.034 49.678,71.034 C50.0793353,71.034 50.4106654,70.9570008 50.672,70.803 C50.9333346,70.6489992 51.064,70.4086683 51.064,70.082 C51.064,69.811332 50.928668,69.5943342 50.658,69.431 C50.387332,69.2676659 50.0606686,69.1370005 49.678,69.039 C49.2953314,68.9409995 48.9126686,68.8266673 48.53,68.696 C48.1473314,68.5653327 47.820668,68.3506682 47.55,68.052 C47.279332,67.7533318 47.144,67.370669 47.144,66.904 C47.144,66.2973303 47.3796643,65.798002 47.851,65.406 C48.3223357,65.013998 48.9126631,64.818 49.622,64.818 C50.1913362,64.818 50.6976645,64.946332 51.141,65.203 C51.5843355,65.4596679 51.9179989,65.8166644 52.142,66.274 L51.12,66.848 C50.8679987,66.2506637 50.3686704,65.952 49.622,65.952 C49.2766649,65.952 48.9826679,66.0336659 48.74,66.197 C48.4973321,66.3603341 48.376,66.5913318 48.376,66.89 Z M54.396,69.06 C54.5173339,69.6853365 54.8043311,70.1706649 55.257,70.516 C55.7096689,70.8613351 56.26733,71.034 56.93,71.034 C57.8540046,71.034 58.5259979,70.6933367 58.946,70.012 L59.982,70.6 C59.3006633,71.6546719 58.2740069,72.182 56.902,72.182 C55.7913278,72.182 54.8883368,71.8343368 54.193,71.139 C53.4976632,70.4436632 53.15,69.5640053 53.15,68.5 C53.15,67.4453281 53.4906633,66.5680035 54.172,65.868 C54.8533367,65.1679965 55.7353279,64.818 56.818,64.818 C57.8446718,64.818 58.6823301,65.1796631 59.331,65.903 C59.9796699,66.6263369 60.304,67.4966616 60.304,68.514 C60.304,68.6913342 60.2900001,68.8733324 60.262,69.06 L54.396,69.06 Z M56.818,65.966 C56.1646634,65.966 55.6233355,66.1503315 55.194,66.519 C54.7646645,66.8876685 54.4986672,67.3799969 54.396,67.996 L59.072,67.996 C58.9693328,67.33333 58.7080021,66.8293351 58.288,66.484 C57.8679979,66.1386649 57.3780028,65.966 56.818,65.966 Z M65.19,64.818 C66.0113374,64.818 66.6693309,65.0769974 67.164,65.595 C67.6586691,66.1130026 67.906,66.8153289 67.906,67.702 L67.906,72 L66.688,72 L66.688,67.772 C66.688,67.2026638 66.5340015,66.7616682 66.226,66.449 C65.9179985,66.1363318 65.493336,65.98 64.952,65.98 C64.3453303,65.98 63.8553352,66.1689981 63.482,66.547 C63.1086648,66.9250019 62.922,67.5059961 62.922,68.29 L62.922,72 L61.704,72 L61.704,65 L62.922,65 L62.922,66.008 C63.4166691,65.2146627 64.1726616,64.818 65.19,64.818 Z M73.408,66.176 L71.546,66.176 L71.546,69.97 C71.546,70.3153351 71.613666,70.5603326 71.749,70.705 C71.884334,70.8496674 72.0919986,70.9243333 72.372,70.929 C72.6520014,70.9336667 72.9973313,70.9266668 73.408,70.908 L73.408,72 C72.3439947,72.1400007 71.5646691,72.0536682 71.07,71.741 C70.5753309,71.4283318 70.328,70.8380043 70.328,69.97 L70.328,66.176 L68.942,66.176 L68.942,65 L70.328,65 L70.328,63.404 L71.546,63.04 L71.546,65 L73.408,65 L73.408,66.176 Z" id="uploadsignedconsent" fill="#8697A8" fill-rule="nonzero"></path>
                            <g id="group" transform="translate(32.000000, 0.000000)"></g>
                            <path d="M60.2,8.6 C61.0832,8.6 61.8,9.3168 61.8,10.2 L61.8,29.4 C61.8,30.2832 61.0832,31 60.2,31 L41,31 C40.1168,31 39.4,30.2832 39.4,29.4 L39.4,24.6 L53.8,24.6 C54.6832,24.6 55.4,23.8832 55.4,23 L55.4,8.6 L60.2,8.6 Z M51.8,22.4 L32.6,22.4 C31.7152,22.4 31,21.6848 31,20.8 L31,1.6 C31,0.7152 31.7152,5.43565193e-13 32.6,5.43565193e-13 L51.8,5.43565193e-13 C52.6848,5.43565193e-13 53.4,0.7152 53.4,1.6 L53.4,20.8 C53.4,21.6848 52.6848,22.4 51.8,22.4 Z" id="Combined-Shape" fill="#8697A8" fill-rule="nonzero"></path>
                        </g>
                    </g>
                </g>
            </g>
        </g>
    </g>
</svg>