<?xml version="1.0" encoding="UTF-8"?>
<svg width="56px" height="39px" viewBox="0 0 56 39" version="1.1" xmlns="http://www.w3.org/2000/svg" xmlns:xlink="http://www.w3.org/1999/xlink">
    <!-- Generator: Sketch 63.1 (92452) - https://sketch.com -->
    <title>Group 9</title>
    <desc>Created with Sketch.</desc>
    <g id="🖥-Ops_analyst-" stroke="none" stroke-width="1" fill="none" fill-rule="evenodd">
        <g id="police-verification-task-7" transform="translate(-785.000000, -491.000000)">
            <g id="Group-7" transform="translate(160.000000, 338.000000)">
                <g id="Group-6" transform="translate(40.000000, 24.000000)">
                    <g id="Group-3" transform="translate(425.000000, 88.000000)">
                        <g id="Group-10" transform="translate(114.000000, 33.000000)">
                            <g id="Group-9" transform="translate(46.000000, 0.000000)">
                                <rect id="Rectangle" fill="#FFFFFF" opacity="0" x="0" y="0" width="56" height="56"></rect>
                                <g id="noun_Upload_2785157" transform="translate(0.000000, 8.400000)" fill="#0059B2" opacity="0.248976935">
                                    <g id="Group">
                                        <path d="M39.1876923,24.5723077 L39.6184615,24.1353846 C39.8495717,23.9045314 39.9794297,23.5912729 39.9794297,23.2646154 C39.9794297,22.9379578 39.8495717,22.6246994 39.6184615,22.3938462 L29.1569231,11.9323077 C28.676877,11.4551094 27.9015846,11.4551094 27.4215385,11.9323077 L16.96,22.3938462 C16.7288898,22.6246994 16.5990318,22.9379578 16.5990318,23.2646154 C16.5990318,23.5912729 16.7288898,23.9045314 16.96,24.1353846 L17.3907692,24.5723077 C17.6216225,24.8034179 17.9348809,24.9332759 18.2615385,24.9332759 C18.588196,24.9332759 18.9014545,24.8034179 19.1323077,24.5723077 L26.7692308,16.9723077 L26.7692308,36.8184615 C26.7692308,37.4981966 27.3202649,38.0492308 28,38.0492308 L28.6153846,38.0492308 C29.2951197,38.0492308 29.8461538,37.4981966 29.8461538,36.8184615 L29.8461538,16.9723077 L37.4461538,24.5723077 C37.6770071,24.8034179 37.9902655,24.9332759 38.3169231,24.9332759 C38.6435806,24.9332759 38.9568391,24.8034179 39.1876923,24.5723077 Z" id="Path"></path>
                                        <path d="M48.4061538,17.7969231 C47.8519494,8.97489414 41.2805941,1.70359149 32.5594652,0.262325658 C23.8383362,-1.17894017 15.2769453,3.59150391 11.9138462,11.7661538 C5.0718756,12.7322424 0.143044002,18.8264541 0.629017867,25.7191834 C1.11499173,32.6119127 6.85016093,37.954256 13.76,37.9507692 L17.2307692,37.9507692 C18.0804381,37.9507692 18.7692308,37.2619765 18.7692308,36.4123077 C18.7692308,35.5626388 18.0804381,34.8738462 17.2307692,34.8738462 L13.7784615,34.8738462 C8.47460062,34.6945427 4.21815248,30.4336089 4.04443561,25.1295621 C3.87071875,19.8255152 7.83923798,15.2951993 13.12,14.7692308 C13.7338403,14.7257149 14.2632886,14.3219803 14.4676923,13.7415385 C17.0257271,6.43228005 24.4788093,2.03013627 32.1148749,3.3182756 C39.7509405,4.60641492 45.3474639,11.2099162 45.3661538,18.9538462 L45.3661538,19.0769231 C45.3628507,19.8495595 45.9353011,20.5037884 46.7015385,20.6030769 C50.3503423,21.0944223 53.0338151,24.2697353 52.9099424,27.9493882 C52.7860698,31.6290411 49.8951255,34.6166957 46.2215385,34.8615385 L46.0246154,34.8923077 L39.3846154,34.8923077 C38.5349465,34.8923077 37.8461538,35.5811004 37.8461538,36.4307692 C37.8461538,37.2804381 38.5349465,37.9692308 39.3846154,37.9692308 L46.3261538,37.9692308 C46.465727,37.9672935 46.6044057,37.9465952 46.7384615,37.9076923 C51.6665569,37.4274583 55.5461721,33.491847 55.9557407,28.5573762 C56.3653093,23.6229055 53.1876371,19.1015285 48.4061538,17.8153846 L48.4061538,17.7969231 Z" id="Path"></path>
                                    </g>
                                </g>
                            </g>
                        </g>
                    </g>
                </g>
            </g>
        </g>
    </g>
</svg>