<?xml version="1.0" encoding="UTF-8"?>
<svg width="120px" height="120px" viewBox="0 0 120 120" version="1.1" xmlns="http://www.w3.org/2000/svg" xmlns:xlink="http://www.w3.org/1999/xlink">
    <title>employee profile file document / document upload file</title>
    <g id="⚙️-configuration" stroke="none" stroke-width="1" fill="none" fill-rule="evenodd">
        <g id="government-document-generation_ESIC_04" transform="translate(-175.000000, -3332.000000)">
            <g id="form" transform="translate(135.000000, 255.000000)">
                <g id="address" transform="translate(40.000000, 258.000000)">
                    <g id="Group-13" transform="translate(0.000000, 2396.000000)">
                        <g id="upload" transform="translate(0.000000, 423.000000)">
                            <path d="M4,0 L116,0 C118.209139,-4.05812251e-16 120,1.790861 120,4 L120,116 C120,118.209139 118.209139,120 116,120 L4,120 C1.790861,120 2.705415e-16,118.209139 0,116 L0,4 C-2.705415e-16,1.790861 1.790861,4.05812251e-16 4,0 Z" id="Rectangle" fill="#F4F7FB"></path>
                            <g id="Group-8" transform="translate(17.000000, 14.000000)">
                                <path d="M3.714,72.156 C4.734,72.156 5.502,71.7 5.982,70.968 L5.982,72 L7.026,72 L7.026,63.6 L5.982,63.6 L5.982,67.032 C5.502,66.3 4.734,65.844 3.714,65.844 C2.046,65.844 0.678,67.224 0.678,69 C0.678,70.776 2.046,72.156 3.714,72.156 Z M3.846,71.148 C2.646,71.148 1.722,70.224 1.722,69 C1.722,67.776 2.646,66.852 3.846,66.852 C5.058,66.852 5.982,67.776 5.982,69 C5.982,70.224 5.058,71.148 3.846,71.148 Z M9.654,72 L9.654,68.82 C9.654,67.404 10.626,66.948 11.526,66.984 L11.526,65.892 C10.77,65.892 10.038,66.168 9.654,67.008 L9.654,66 L8.61,66 L8.61,72 L9.654,72 Z M15.042,72.156 C16.794,72.156 18.21,70.776 18.21,69 C18.21,67.224 16.794,65.844 15.042,65.844 C13.29,65.844 11.886,67.224 11.886,69 C11.886,70.776 13.29,72.156 15.042,72.156 Z M15.042,71.136 C13.854,71.136 12.93,70.212 12.93,69 C12.93,67.788 13.854,66.864 15.042,66.864 C16.242,66.864 17.166,67.788 17.166,69 C17.166,70.212 16.242,71.136 15.042,71.136 Z M20.49,74.4 L20.49,70.968 C20.97,71.7 21.738,72.156 22.758,72.156 C24.426,72.156 25.794,70.776 25.794,69 C25.794,67.224 24.426,65.844 22.758,65.844 C21.738,65.844 20.97,66.3 20.49,67.032 L20.49,66 L19.446,66 L19.446,74.4 L20.49,74.4 Z M22.626,71.148 C21.414,71.148 20.49,70.224 20.49,69 C20.49,67.776 21.414,66.852 22.626,66.852 C23.826,66.852 24.75,67.776 24.75,69 C24.75,70.224 23.826,71.148 22.626,71.148 Z M31.542,72 L31.542,67.008 L33.762,67.008 L33.762,72 L34.806,72 L34.806,66 L31.542,66 L31.542,65.82 C31.542,64.776 32.082,64.452 33.126,64.452 C33.51,64.452 33.906,64.488 34.362,64.548 L34.362,63.6 C33.906,63.504 33.51,63.444 33.126,63.444 C31.41,63.444 30.498,64.224 30.498,65.82 L30.498,66 L29.538,66 L29.538,67.008 L30.498,67.008 L30.498,72 L31.542,72 Z M37.446,72 L37.446,63.24 L36.402,63.24 L36.402,72 L37.446,72 Z M41.922,72.156 C43.122,72.156 44.034,71.616 44.562,70.8 L43.674,70.296 C43.374,70.788 42.774,71.172 41.946,71.172 C40.83,71.172 39.978,70.56 39.774,69.48 L44.802,69.48 C44.826,69.324 44.838,69.168 44.838,69.012 C44.838,67.332 43.662,65.844 41.85,65.844 C39.978,65.844 38.706,67.224 38.706,69 C38.706,70.8 39.99,72.156 41.922,72.156 Z M43.782,68.568 L39.774,68.568 C39.942,67.524 40.722,66.828 41.85,66.828 C42.75,66.828 43.602,67.38 43.782,68.568 Z M50.082,72 L50.082,68.82 C50.082,67.404 50.862,66.84 51.822,66.84 C52.746,66.84 53.31,67.392 53.31,68.376 L53.31,72 L54.354,72 L54.354,68.316 C54.354,66.78 53.43,65.844 52.026,65.844 C51.186,65.844 50.526,66.156 50.082,66.864 L50.082,63.6 L49.038,63.6 L49.038,72 L50.082,72 Z M58.686,72.156 C59.886,72.156 60.798,71.616 61.326,70.8 L60.438,70.296 C60.138,70.788 59.538,71.172 58.71,71.172 C57.594,71.172 56.742,70.56 56.538,69.48 L61.566,69.48 C61.59,69.324 61.602,69.168 61.602,69.012 C61.602,67.332 60.426,65.844 58.614,65.844 C56.742,65.844 55.47,67.224 55.47,69 C55.47,70.8 56.754,72.156 58.686,72.156 Z M60.546,68.568 L56.538,68.568 C56.706,67.524 57.486,66.828 58.614,66.828 C59.514,66.828 60.366,67.38 60.546,68.568 Z M63.846,72 L63.846,68.82 C63.846,67.404 64.818,66.948 65.718,66.984 L65.718,65.892 C64.962,65.892 64.23,66.168 63.846,67.008 L63.846,66 L62.802,66 L62.802,72 L63.846,72 Z M69.294,72.156 C70.494,72.156 71.406,71.616 71.934,70.8 L71.046,70.296 C70.746,70.788 70.146,71.172 69.318,71.172 C68.202,71.172 67.35,70.56 67.146,69.48 L72.174,69.48 C72.198,69.324 72.21,69.168 72.21,69.012 C72.21,67.332 71.034,65.844 69.222,65.844 C67.35,65.844 66.078,67.224 66.078,69 C66.078,70.8 67.362,72.156 69.294,72.156 Z M71.154,68.568 L67.146,68.568 C67.314,67.524 68.094,66.828 69.222,66.828 C70.122,66.828 70.974,67.38 71.154,68.568 Z M79.23,72.156 C80.982,72.156 82.398,70.776 82.398,69 C82.398,67.224 80.982,65.844 79.23,65.844 C77.478,65.844 76.074,67.224 76.074,69 C76.074,70.776 77.478,72.156 79.23,72.156 Z M79.23,71.136 C78.042,71.136 77.118,70.212 77.118,69 C77.118,67.788 78.042,66.864 79.23,66.864 C80.43,66.864 81.354,67.788 81.354,69 C81.354,70.212 80.43,71.136 79.23,71.136 Z M84.678,72 L84.678,68.82 C84.678,67.404 85.65,66.948 86.55,66.984 L86.55,65.892 C85.794,65.892 85.062,66.168 84.678,67.008 L84.678,66 L83.634,66 L83.634,72 L84.678,72 Z M27.132,86.156 C28.308,86.156 29.328,85.532 29.832,84.596 L28.944,84.08 C28.608,84.704 27.948,85.124 27.132,85.124 C25.932,85.124 25.02,84.2 25.02,83 C25.02,81.788 25.932,80.864 27.132,80.864 C27.936,80.864 28.608,81.284 28.908,81.92 L29.784,81.416 C29.328,80.468 28.32,79.844 27.132,79.844 C25.32,79.844 23.976,81.224 23.976,83 C23.976,84.776 25.32,86.156 27.132,86.156 Z M31.908,86 L31.908,82.82 C31.908,81.404 32.688,80.84 33.648,80.84 C34.572,80.84 35.136,81.392 35.136,82.376 L35.136,86 L36.18,86 L36.18,82.316 C36.18,80.78 35.256,79.844 33.852,79.844 C33.012,79.844 32.352,80.156 31.908,80.864 L31.908,77.6 L30.864,77.6 L30.864,86 L31.908,86 Z M40.452,86.156 C42.204,86.156 43.62,84.776 43.62,83 C43.62,81.224 42.204,79.844 40.452,79.844 C38.7,79.844 37.296,81.224 37.296,83 C37.296,84.776 38.7,86.156 40.452,86.156 Z M40.452,85.136 C39.264,85.136 38.34,84.212 38.34,83 C38.34,81.788 39.264,80.864 40.452,80.864 C41.652,80.864 42.576,81.788 42.576,83 C42.576,84.212 41.652,85.136 40.452,85.136 Z M47.676,86.156 C49.428,86.156 50.844,84.776 50.844,83 C50.844,81.224 49.428,79.844 47.676,79.844 C45.924,79.844 44.52,81.224 44.52,83 C44.52,84.776 45.924,86.156 47.676,86.156 Z M47.676,85.136 C46.488,85.136 45.564,84.212 45.564,83 C45.564,81.788 46.488,80.864 47.676,80.864 C48.876,80.864 49.8,81.788 49.8,83 C49.8,84.212 48.876,85.136 47.676,85.136 Z M53.964,86.156 C55.248,86.156 56.208,85.472 56.208,84.356 C56.208,82.148 52.848,82.904 52.848,81.62 C52.848,81.08 53.376,80.816 53.916,80.816 C54.444,80.816 54.972,81.044 55.2,81.584 L56.076,81.092 C55.692,80.312 54.9,79.844 53.916,79.844 C52.704,79.844 51.792,80.576 51.792,81.632 C51.792,83.804 55.152,83.072 55.152,84.356 C55.152,84.944 54.6,85.172 53.964,85.172 C53.22,85.172 52.668,84.812 52.476,84.236 L51.576,84.752 C51.924,85.58 52.764,86.156 53.964,86.156 Z M60.156,86.156 C61.356,86.156 62.268,85.616 62.796,84.8 L61.908,84.296 C61.608,84.788 61.008,85.172 60.18,85.172 C59.064,85.172 58.212,84.56 58.008,83.48 L63.036,83.48 C63.06,83.324 63.072,83.168 63.072,83.012 C63.072,81.332 61.896,79.844 60.084,79.844 C58.212,79.844 56.94,81.224 56.94,83 C56.94,84.8 58.224,86.156 60.156,86.156 Z M62.016,82.568 L58.008,82.568 C58.176,81.524 58.956,80.828 60.084,80.828 C60.984,80.828 61.836,81.38 62.016,82.568 Z" id="dropflehereorchoose" fill="#8697A8" fill-rule="nonzero"></path>
                                <path d="M16.988,50.156 C17.828,50.156 18.488,49.844 18.932,49.136 L18.932,50 L19.976,50 L19.976,44 L18.932,44 L18.932,47.18 C18.932,48.596 18.152,49.16 17.192,49.16 C16.268,49.16 15.704,48.608 15.704,47.624 L15.704,44 L14.66,44 L14.66,47.684 C14.66,49.22 15.584,50.156 16.988,50.156 Z M22.604,52.4 L22.604,48.968 C23.084,49.7 23.852,50.156 24.872,50.156 C26.54,50.156 27.908,48.776 27.908,47 C27.908,45.224 26.54,43.844 24.872,43.844 C23.852,43.844 23.084,44.3 22.604,45.032 L22.604,44 L21.56,44 L21.56,52.4 L22.604,52.4 Z M24.74,49.148 C23.528,49.148 22.604,48.224 22.604,47 C22.604,45.776 23.528,44.852 24.74,44.852 C25.94,44.852 26.864,45.776 26.864,47 C26.864,48.224 25.94,49.148 24.74,49.148 Z M30.2,50 L30.2,41.24 L29.156,41.24 L29.156,50 L30.2,50 Z M34.616,50.156 C36.368,50.156 37.784,48.776 37.784,47 C37.784,45.224 36.368,43.844 34.616,43.844 C32.864,43.844 31.46,45.224 31.46,47 C31.46,48.776 32.864,50.156 34.616,50.156 Z M34.616,49.136 C33.428,49.136 32.504,48.212 32.504,47 C32.504,45.788 33.428,44.864 34.616,44.864 C35.816,44.864 36.74,45.788 36.74,47 C36.74,48.212 35.816,49.136 34.616,49.136 Z M41.72,50.156 C42.74,50.156 43.508,49.7 43.988,48.968 L43.988,50 L45.032,50 L45.032,44 L43.988,44 L43.988,45.032 C43.508,44.3 42.74,43.844 41.72,43.844 C40.052,43.844 38.684,45.224 38.684,47 C38.684,48.776 40.052,50.156 41.72,50.156 Z M41.852,49.148 C40.652,49.148 39.728,48.224 39.728,47 C39.728,45.776 40.652,44.852 41.852,44.852 C43.064,44.852 43.988,45.776 43.988,47 C43.988,48.224 43.064,49.148 41.852,49.148 Z M49.316,50.156 C50.336,50.156 51.104,49.7 51.584,48.968 L51.584,50 L52.628,50 L52.628,41.6 L51.584,41.6 L51.584,45.032 C51.104,44.3 50.336,43.844 49.316,43.844 C47.648,43.844 46.28,45.224 46.28,47 C46.28,48.776 47.648,50.156 49.316,50.156 Z M49.448,49.148 C48.248,49.148 47.324,48.224 47.324,47 C47.324,45.776 48.248,44.852 49.448,44.852 C50.66,44.852 51.584,45.776 51.584,47 C51.584,48.224 50.66,49.148 49.448,49.148 Z M58.712,50 L58.712,45.008 L60.932,45.008 L60.932,50 L61.976,50 L61.976,44 L58.712,44 L58.712,43.82 C58.712,42.776 59.252,42.452 60.296,42.452 C60.68,42.452 61.076,42.488 61.532,42.548 L61.532,41.6 C61.076,41.504 60.68,41.444 60.296,41.444 C58.58,41.444 57.668,42.224 57.668,43.82 L57.668,44 L56.708,44 L56.708,45.008 L57.668,45.008 L57.668,50 L58.712,50 Z M64.616,50 L64.616,41.24 L63.572,41.24 L63.572,50 L64.616,50 Z M69.092,50.156 C70.292,50.156 71.204,49.616 71.732,48.8 L70.844,48.296 C70.544,48.788 69.944,49.172 69.116,49.172 C68,49.172 67.148,48.56 66.944,47.48 L71.972,47.48 C71.996,47.324 72.008,47.168 72.008,47.012 C72.008,45.332 70.832,43.844 69.02,43.844 C67.148,43.844 65.876,45.224 65.876,47 C65.876,48.8 67.16,50.156 69.092,50.156 Z M70.952,46.568 L66.944,46.568 C67.112,45.524 67.892,44.828 69.02,44.828 C69.92,44.828 70.772,45.38 70.952,46.568 Z" id="uploadfle" fill="#8697A8" fill-rule="nonzero"></path>
                                <g id="group" transform="translate(29.000000, 0.000000)"></g>
                                <path d="M57.2,8.6 C58.0832,8.6 58.8,9.3168 58.8,10.2 L58.8,10.2 L58.8,29.4 C58.8,30.2832 58.0832,31 57.2,31 L57.2,31 L38,31 C37.1168,31 36.4,30.2832 36.4,29.4 L36.4,29.4 L36.4,24.6 L50.8,24.6 C51.6832,24.6 52.4,23.8832 52.4,23 L52.4,23 L52.4,8.6 Z M48.8,7.28306304e-13 C49.6848,7.28306304e-13 50.4,0.7152 50.4,1.6 L50.4,20.8 C50.4,21.6848 49.6848,22.4 48.8,22.4 L29.6,22.4 C28.7152,22.4 28,21.6848 28,20.8 L28,1.6 C28,0.7152 28.7152,7.28306304e-13 29.6,7.28306304e-13 L48.8,7.28306304e-13 Z" id="Combined-Shape" fill="#7892B8" fill-rule="nonzero"></path>
                            </g>
                        </g>
                    </g>
                </g>
            </g>
        </g>
    </g>
</svg>