<?xml version="1.0" encoding="UTF-8"?>
<svg width="14px" height="15px" viewBox="0 0 14 15" version="1.1" xmlns="http://www.w3.org/2000/svg" xmlns:xlink="http://www.w3.org/1999/xlink">
    <!-- Generator: Sketch 63.1 (92452) - https://sketch.com -->
    <title>call</title>
    <desc>Created with Sketch.</desc>
    <g id="🖥-Ops_analyst-" stroke="none" stroke-width="1" fill="none" fill-rule="evenodd">
        <g id="profile-/-account-settings_2" transform="translate(-347.000000, -206.000000)">
            <g id="Group-6" transform="translate(160.000000, 64.000000)">
                <g id="details" transform="translate(186.000000, 46.000000)">
                    <g id="Group-5" transform="translate(0.000000, 67.000000)">
                        <g id="Group-4" transform="translate(0.000000, 28.000000)">
                            <g id="call">
                                <rect id="Rectangle" fill="#D8D8D8" opacity="0" x="0" y="0" width="16" height="16"></rect>
                                <g id="noun_call_2442970" transform="translate(1.000000, 1.000000)" fill="#8697A8">
                                    <path d="M11.4576,14.14 L10.8402,14.1316 L10.6624,14.098 C10.5224,14.0714 10.374,14.0448 10.2326,14.0098 C9.422,13.8082 8.6128,13.4358 7.6846,12.8408 C6.5464,12.11 5.425,11.1762 4.1552,9.9008 C3.15680669,8.92702899 2.25605179,7.85793937 1.4658,6.7088 C0.7952,5.7106 0.3934,4.8888 0.161,4.0264 C0.1134,3.8528 0.0812,3.6806 0.0504,3.514 C0.0364,3.4426 0.0238,3.374 0.0098,3.3012 L0,3.213 L0,2.7146 L0.0336,2.6334 C0.28,2.037 0.7,1.6156 1.1116,1.2362 C1.4112,0.9562 1.7276,0.7014 2.0244,0.4648 C2.38473937,0.169601879 2.86493438,0.0654381025 3.3152,0.1848 C3.60415082,0.253432331 3.85513842,0.431633531 4.0152,0.6818 L4.3988,1.26 C4.7992,1.8704 5.2122,2.5004 5.6322,3.1094 C5.95818994,3.55955454 6.00416362,4.15450814 5.7512,4.6494 C5.677,4.8132 5.5916,4.9644 5.509,5.1114 L5.404,5.3004 C5.3256,5.4404 5.2486,5.5804 5.1674,5.7204 L5.4306,6.0354 C5.6672,6.3154 5.9136,6.6164 6.1656,6.888 C6.85709263,7.64810073 7.60952877,8.35043688 8.4154,8.988 C8.7122,8.8158 9.023,8.6422 9.3632,8.4574 C9.70362161,8.2504379 10.1097346,8.17991829 10.5,8.26 C10.6384714,8.29164981 10.7702408,8.34758071 10.8892,8.4252 C11.7562667,8.99546667 12.621,9.56806667 13.4834,10.143 C13.9342,10.444 14.1148,11.0572 13.9258,11.6368 L13.9258,11.6368 C13.8831674,11.7752931 13.8189075,11.9061754 13.7354,12.0246 C13.2862426,12.6610231 12.7504767,13.2316585 12.1436,13.72 C12.0112924,13.819449 11.8707889,13.9074979 11.7236,13.9832 C11.6704,14.0126 11.6186,14.0406 11.5668,14.07 L11.4576,14.14 Z M10.969,13.2426 L11.2182,13.2426 L11.2938,13.202 C11.3974482,13.1493806 11.4967009,13.0885181 11.5906,13.02 C12.1318357,12.5795869 12.6091471,12.0659942 13.0088,11.494 C13.0360398,11.4505812 13.0567922,11.4034168 13.0704,11.354 C13.1383473,11.1953393 13.1040957,11.0113752 12.9836,10.8878 C12.1221333,10.3138 11.2592667,9.7426 10.395,9.1742 C10.3653173,9.15532101 10.3326574,9.14159438 10.2984,9.1336 C10.1207402,9.10316294 9.93814652,9.14118244 9.7874,9.24 C9.4108,9.443 9.0734,9.6334 8.7556,9.821 C8.51514087,9.97748369 8.2008425,9.95932927 7.98,9.7762 C7.09237815,9.08835671 6.26608232,8.32482938 5.5104,7.4942 C5.2402,7.2044 4.9868,6.8992 4.7418,6.6038 C4.6116,6.4512 4.48,6.3 4.3568,6.1488 C4.17131382,5.94459308 4.14879396,5.64028623 4.3022,5.411 C4.4128,5.229 4.515,5.0442 4.6172,4.8608 L4.7264,4.6662 C4.8034,4.5262 4.8748,4.403 4.9322,4.2756 C5.05343037,4.06883714 5.03737931,3.80925267 4.8916,3.619 C4.4716,3.0016 4.0516,2.366 3.647,1.7528 L3.2732,1.1788 C3.23582791,1.11748026 3.17431551,1.07477743 3.1038,1.0612 C2.92466955,1.00700771 2.730308,1.04588002 2.5858,1.1648 C2.3058,1.393 1.9992,1.638 1.7206,1.8956 C1.3902,2.1994 1.0794,2.506 0.8974,2.8952 L0.8974,3.1668 C0.91,3.227 0.9212,3.2872 0.9324,3.3474 C0.9618,3.5042 0.9898,3.6512 1.0276,3.7912 C1.232,4.5486 1.5974,5.2934 2.2106,6.2062 C2.96894252,7.30793108 3.83311435,8.33293359 4.7908,9.2666 C6.02,10.5 7.0882,11.389 8.1704,12.0848 C9.0104,12.6266 9.7384,12.9612 10.4496,13.139 C10.5728,13.1698 10.6988,13.1922 10.8248,13.2146 L10.969,13.2426 Z" id="Shape"></path>
                                </g>
                            </g>
                        </g>
                    </g>
                </g>
            </g>
        </g>
    </g>
</svg>