<?xml version="1.0" encoding="UTF-8"?>
<svg width="16px" height="12px" viewBox="0 0 16 12" version="1.1" xmlns="http://www.w3.org/2000/svg" xmlns:xlink="http://www.w3.org/1999/xlink">
    <!-- Generator: Sketch 63.1 (92452) - https://sketch.com -->
    <title>Group 3</title>
    <desc>Created with Sketch.</desc>
    <g id="🖥-Ops_analyst-" stroke="none" stroke-width="1" fill="none" fill-rule="evenodd">
        <g id="profile-/-account-settings_2" transform="translate(-346.000000, -179.000000)">
            <g id="Group-6" transform="translate(160.000000, 64.000000)">
                <g id="details" transform="translate(186.000000, 46.000000)">
                    <g id="Group-5" transform="translate(0.000000, 67.000000)">
                        <g id="Group-4">
                            <g id="Group-3">
                                <rect id="Rectangle" fill="#D8D8D8" opacity="0" x="0" y="0" width="16" height="16"></rect>
                                <path d="M1.70212766,2 L14.2978723,2 C15.2510638,2 16,2.78297872 16,3.70212766 L16,12.212766 C16,13.1659574 15.2510638,13.9148936 14.2978723,13.9148936 L1.70212766,13.9148936 C0.782978723,13.9148936 0,13.1659574 0,12.212766 L0,3.70212766 C0,2.78297872 0.782978723,2 1.70212766,2 Z M0.85106383,12.1106383 L5.14042553,7.24255319 L0.885106383,3.63404255 C0.85106383,3.66808511 0.85106383,3.66808511 0.85106383,3.70212766 L0.85106383,12.1106383 Z M5.8212766,7.75319149 L1.29361702,12.9617021 C1.42978723,13.0297872 1.56595745,13.0638298 1.70212766,13.0638298 L14.2978723,13.0638298 C14.4340426,13.0638298 14.6042553,13.0297872 14.706383,12.9617021 L10.1787234,7.75319149 C8.81702128,8.60425532 7.18297872,8.60425532 5.8212766,7.75319149 Z M10.8595745,7.24255319 L15.1489362,12.1106383 L15.1489362,3.73617021 L10.8595745,7.24255319 Z M1.39574468,2.91914894 L5.8212766,6.66382979 C7.14893617,7.78723404 8.78297872,7.8212766 10.1446809,6.69787234 L14.706383,2.95319149 C14.5702128,2.91914894 14.4340426,2.85106383 14.2978723,2.85106383 L1.70212766,2.85106383 C1.6,2.85106383 1.49787234,2.88510638 1.39574468,2.91914894 Z" id="Shape" fill="#8697A8"></path>
                            </g>
                        </g>
                    </g>
                </g>
            </g>
        </g>
    </g>
</svg>