<?xml version="1.0" encoding="UTF-8"?>
<svg width="24px" height="24px" viewBox="0 0 24 24" version="1.1" xmlns="http://www.w3.org/2000/svg" xmlns:xlink="http://www.w3.org/1999/xlink">
    <!-- Generator: sketchtool 58 (101010) - https://sketch.com -->
    <title>D970DAF6-21CF-4A03-8A21-A4BF42A44506</title>
    <desc>Created with sketchtool.</desc>
    <defs>
        <path d="M12,0 C18.627417,-1.21743675e-15 24,5.372583 24,12 C24,18.627417 18.627417,24 12,24 C5.372583,24 8.11624501e-16,18.627417 0,12 C-8.11624501e-16,5.372583 5.372583,1.21743675e-15 12,0 Z M12,6.92307692 C10.4705961,6.92307692 9.23076923,8.16290377 9.23076923,9.69230769 C9.23076923,10.462573 9.5452523,11.1593868 10.0535978,11.6599395 C7.67282154,12.3110079 5.92307692,14.4895734 5.92307692,17.0769231 L5.92307692,17.0769231 L5.92307692,18.0769231 L7.92307692,18.0769231 L7.92307692,17.0769231 L7.92808812,16.8849074 C8.02789579,14.9773899 9.60608202,13.4615385 11.5384615,13.4615385 L11.5384615,13.4615385 L12.4615385,13.4615385 L12.6535541,13.4665497 C14.5610717,13.5663573 16.0769231,15.1445436 16.0769231,17.0769231 L16.0769231,17.0769231 L16.0769231,18.0769231 L18.0769231,18.0769231 L18.0769231,17.0769231 L18.071831,16.8355908 C17.9669486,14.3549061 16.2528033,12.2907062 13.9471741,11.6613566 C14.4547477,11.1593868 14.7692308,10.462573 14.7692308,9.69230769 C14.7692308,8.16290377 13.5294039,6.92307692 12,6.92307692 Z" id="path-1"></path>
    </defs>
    <g id="👾-Vendor-Management" stroke="none" stroke-width="1" fill="none" fill-rule="evenodd">
        <g id="Add-vendor-by-searching-or-suggestion_03-Copy" transform="translate(-256.000000, -551.000000)">
            <g id="section" transform="translate(160.000000, 128.000000)">
                <g id="Group-5" transform="translate(80.000000, 402.000000)">
                    <g id="icon-/-24-/-info-/-profile" transform="translate(16.000000, 21.000000)">
                        <rect id="Rectangle" x="0" y="0" width="24" height="24"></rect>
                        <mask id="mask-2" fill="white">
                            <use xlink:href="#path-1"></use>
                        </mask>
                        <use id="Combined-Shape" fill="#EBECFD" xlink:href="#path-1"></use>
                        <rect id="Rectangle" fill="#8697A8" mask="url(#mask-2)" x="0" y="0" width="24" height="24"></rect>
                    </g>
                </g>
            </g>
        </g>
    </g>
</svg>