<?xml version="1.0" encoding="UTF-8"?>
<svg width="16px" height="16px" viewBox="0 0 16 16" version="1.1" xmlns="http://www.w3.org/2000/svg" xmlns:xlink="http://www.w3.org/1999/xlink">
    <title>Group 2</title>
    <g id="ðŸ­-vendor-management" stroke="none" stroke-width="1" fill="none" fill-rule="evenodd">
        <g id="JLL-vendors-page---insights---empty-state" transform="translate(-298.000000, -73.000000)">
            <g id="sub-header" transform="translate(160.000000, 69.000000)">
                <g id="Group-2" transform="translate(138.000000, 4.000000)">
                    <rect id="Rectangle" fill="#D8D8D8" opacity="0" x="0" y="0" width="16" height="16"></rect>
                    <g id="Group" transform="translate(1.000000, 0.000000)" fill="#8697A8">
                        <path d="M0.447631579,10.4115789 C0.442105263,10.4336842 0.436578947,10.4557895 0.436578947,10.4778947 L0.436578947,15.2673684 C0.436578947,15.3834211 0.530526316,15.4773684 0.646578947,15.4773684 L11.2571053,15.4773684 C11.3731579,15.4773684 11.4671053,15.3834211 11.4671053,15.2673684 L11.4671053,10.4778947 C11.4671053,10.4502632 11.4615789,10.4281579 11.4505263,10.4060526 C11.3786842,9.135 10.8371053,8.26184211 9.79263158,7.75342105 C9.40578947,7.56552632 8.95263158,7.43289474 8.39447368,7.33894737 C9.19026316,6.65368421 9.69315789,5.63684211 9.69315789,4.50947368 C9.69315789,2.44263158 8.01315789,0.762631579 5.94631579,0.762631579 C3.87947368,0.762631579 2.205,2.44263158 2.205,4.50394737 C2.205,5.63131579 2.70789474,6.64263158 3.50368421,7.33342105 C2.04473684,7.57657895 0.569210526,8.23421053 0.447631579,10.4115789 Z M5.94631579,14.7718421 L4.83552632,13.2907895 L5.50973684,8.22315789 C5.65342105,8.23973684 5.79710526,8.25078947 5.94631579,8.25078947 C6.09552632,8.25078947 6.23921053,8.23973684 6.38289474,8.22315789 L7.05710526,13.2907895 L5.94631579,14.7718421 Z M2.61947368,4.50394737 C2.61947368,2.66921053 4.11157895,1.17157895 5.94631579,1.17157895 C7.78105263,1.17157895 9.27868421,2.66368421 9.27868421,4.50394737 C9.27868421,5.66447368 8.67631579,6.69236842 7.77,7.28921053 C7.75342105,7.29473684 7.74236842,7.30578947 7.73131579,7.31131579 C7.21736842,7.63736842 6.60394737,7.83078947 5.94631579,7.83078947 C5.28868421,7.83078947 4.68078947,7.63736842 4.16684211,7.31131579 C4.15578947,7.30026316 4.13921053,7.29473684 4.12263158,7.28368421 C3.21631579,6.69236842 2.61947368,5.67 2.61947368,4.50394737 Z" id="Shape"></path>
                        <path d="M13.9207895,1.97289474 C13.8876316,1.87342105 13.8047368,1.80710526 13.7052632,1.79052632 L12.4894737,1.61368421 L11.9423684,0.508421053 C11.8539474,0.326052632 11.55,0.326052632 11.4615789,0.508421053 L10.9144737,1.61368421 L9.69868421,1.79052632 C9.59921053,1.80710526 9.51078947,1.87894737 9.48315789,1.97289474 C9.45,2.07236842 9.47763158,2.17736842 9.54947368,2.24921053 L10.4281579,3.10578947 L10.2236842,4.32157895 C10.2015789,4.42105263 10.2402632,4.52605263 10.3231579,4.58131579 C10.3673684,4.61447368 10.4226316,4.63105263 10.4834211,4.63105263 C10.5276316,4.63105263 10.5663158,4.62 10.6105263,4.59789474 L11.6992105,4.02315789 L12.7878947,4.59789474 C12.8818421,4.64763158 12.9868421,4.63657895 13.0697368,4.57578947 C13.1526316,4.52052632 13.1968421,4.42105263 13.1802632,4.32157895 L12.9702632,3.10578947 L13.8544737,2.24921053 C13.9263158,2.17736842 13.9484211,2.07236842 13.9207895,1.97289474 Z" id="Path"></path>
                    </g>
                </g>
            </g>
        </g>
    </g>
</svg>