<?xml version="1.0" encoding="UTF-8"?>
<svg width="16px" height="16px" viewBox="0 0 16 16" version="1.1" xmlns="http://www.w3.org/2000/svg" xmlns:xlink="http://www.w3.org/1999/xlink">
    <title>4D73CDDD-2707-435F-A8A7-E257B63E1A20</title>
    <g id="profile-view-mode" stroke="none" stroke-width="1" fill="none" fill-rule="evenodd">
        <g id="profile-view_mode_updated-1" transform="translate(-377.000000, -986.000000)" fill-rule="nonzero">
            <g id="Group-29" transform="translate(157.000000, 877.000000)">
                <g id="Group-26" transform="translate(43.000000, 37.000000)">
                    <g id="Group-5" transform="translate(0.000000, 60.000000)">
                        <g id="ivr-copy-3" transform="translate(165.000000, 0.000000)">
                            <g id="email" transform="translate(8.000000, 8.000000)">
                                <rect id="Rectangle" fill="#F5F5F4" opacity="0" x="0" y="0" width="24" height="24" rx="2"></rect>
                                <g id="organization" transform="translate(4.000000, 4.000000)" fill="#8697A8">
                                    <path d="M14.6666667,13.0666667 L14.5183,13.0666667 C14.6143761,12.905277 14.6655972,12.7211527 14.6666667,12.5333333 L14.6666667,12 C14.6666667,11.4108963 14.1891037,10.9333333 13.6,10.9333333 C13.0108963,10.9333333 12.5333333,11.4108963 12.5333333,12 L12.5333333,12.5333333 C12.5344028,12.7211527 12.5856239,12.905277 12.6817,13.0666667 L12.5333333,13.0666667 C12.3971831,13.0680484 12.2621353,13.0912542 12.1333333,13.1354 C12.0045314,13.0912542 11.8694836,13.0680484 11.7333333,13.0666667 L11.5849667,13.0666667 C11.6810428,12.905277 11.7322639,12.7211527 11.7333333,12.5333333 L11.7333333,12 C11.7333333,11.4108963 11.2557704,10.9333333 10.6666667,10.9333333 C10.0775629,10.9333333 9.6,11.4108963 9.6,12 L9.6,12.5333333 C9.60106942,12.7211527 9.65229052,12.905277 9.74836667,13.0666667 L9.6,13.0666667 C9.51242299,13.0671155 9.4251305,13.0766781 9.33953333,13.0952 C9.24980313,13.0763172 9.15836215,13.0667553 9.06666667,13.0666667 L8.9183,13.0666667 C9.01437615,12.905277 9.06559725,12.7211527 9.06666667,12.5333333 L9.06666667,12 C9.06666667,11.4108963 8.58910373,10.9333333 8,10.9333333 C7.41089627,10.9333333 6.93333333,11.4108963 6.93333333,12 L6.93333333,12.5333333 C6.93440275,12.7211527 6.98562385,12.905277 7.0817,13.0666667 L6.93333333,13.0666667 C6.84163785,13.0667553 6.75019687,13.0763172 6.66046667,13.0952 C6.5748695,13.0766781 6.48757701,13.0671155 6.4,13.0666667 L6.25163333,13.0666667 C6.34770948,12.905277 6.39893058,12.7211527 6.4,12.5333333 L6.4,12 C6.4,11.4108963 5.92243707,10.9333333 5.33333333,10.9333333 C4.7442296,10.9333333 4.26666667,11.4108963 4.26666667,12 L4.26666667,12.5333333 C4.26773609,12.7211527 4.31895719,12.905277 4.41503333,13.0666667 L4.26666667,13.0666667 C4.13029258,13.0677928 3.99499528,13.0909351 3.866,13.1352 C3.73739988,13.0911884 3.60258242,13.0680511 3.46666667,13.0666667 L3.3183,13.0666667 C3.41437615,12.905277 3.46559725,12.7211527 3.46666667,12.5333333 L3.46666667,12 C3.46666667,11.4108963 2.98910373,10.9333333 2.4,10.9333333 C1.81089627,10.9333333 1.33333333,11.4108963 1.33333333,12 L1.33333333,12.5333333 C1.33440275,12.7211527 1.38562385,12.905277 1.4817,13.0666667 L1.33333333,13.0666667 C0.597311556,13.06753 0.000863304905,13.6639782 0,14.4 L0,15.7333333 C0,15.8806093 0.119390733,16 0.266666667,16 L15.7333333,16 C15.8806093,16 16,15.8806093 16,15.7333333 L16,14.4 C16.0003809,14.0462614 15.8600274,13.7069015 15.6098963,13.4567704 C15.3597652,13.2066393 15.0204053,13.0662858 14.6666667,13.0666667 L14.6666667,13.0666667 Z M13.0666667,12.5333333 L13.0666667,12 C13.0666667,11.7054481 13.3054481,11.4666667 13.6,11.4666667 C13.8945519,11.4666667 14.1333333,11.7054481 14.1333333,12 L14.1333333,12.5333333 C14.1333333,12.8278852 13.8945519,13.0666667 13.6,13.0666667 C13.3054481,13.0666667 13.0666667,12.8278852 13.0666667,12.5333333 Z M10.1333333,12.5333333 L10.1333333,12 C10.1333333,11.7054481 10.3721148,11.4666667 10.6666667,11.4666667 C10.9612185,11.4666667 11.2,11.7054481 11.2,12 L11.2,12.5333333 C11.2,12.8278852 10.9612185,13.0666667 10.6666667,13.0666667 C10.3721148,13.0666667 10.1333333,12.8278852 10.1333333,12.5333333 Z M7.46666667,12.5333333 L7.46666667,12 C7.46666667,11.7054481 7.70544813,11.4666667 8,11.4666667 C8.29455187,11.4666667 8.53333333,11.7054481 8.53333333,12 L8.53333333,12.5333333 C8.53333333,12.8278852 8.29455187,13.0666667 8,13.0666667 C7.70544813,13.0666667 7.46666667,12.8278852 7.46666667,12.5333333 Z M4.8,12.5333333 L4.8,12 C4.8,11.7054481 5.03878147,11.4666667 5.33333333,11.4666667 C5.6278852,11.4666667 5.86666667,11.7054481 5.86666667,12 L5.86666667,12.5333333 C5.86666667,12.8278852 5.6278852,13.0666667 5.33333333,13.0666667 C5.03878147,13.0666667 4.8,12.8278852 4.8,12.5333333 Z M1.86666667,12.5333333 L1.86666667,12 C1.86666667,11.7054481 2.10544813,11.4666667 2.4,11.4666667 C2.69455187,11.4666667 2.93333333,11.7054481 2.93333333,12 L2.93333333,12.5333333 C2.93333333,12.8278852 2.69455187,13.0666667 2.4,13.0666667 C2.10544813,13.0666667 1.86666667,12.8278852 1.86666667,12.5333333 Z M0.533333333,14.4 C0.533829322,13.9583778 0.891711142,13.600496 1.33333333,13.6 L3.20306667,13.6 C3.02825343,13.8300811 2.93352293,14.1110416 2.93333333,14.4 L2.93333333,15.4666667 L1.6,15.4666667 L1.6,14.4 L1.06666667,14.4 L1.06666667,15.4666667 L0.533333333,15.4666667 L0.533333333,14.4 Z M4,14.4 L4,15.4666667 L3.46666599,15.4666667 L3.46666599,14.4 C3.46623929,14.0718467 3.66733253,13.777097 3.97303333,13.6578 C4.06589746,13.6185542 4.16585636,13.5988779 4.26666667,13.6 L5.8735,13.6 C5.69710476,13.829477 5.60100861,14.1105627 5.6,14.4 L5.6,15.4666667 L4.53333333,15.4666667 L4.53333333,14.4 L4,14.4 Z M9.33333333,15.4666667 L9.33333333,14.4 L8.8,14.4 L8.8,15.4666667 L7.2,15.4666667 L7.2,14.4 L6.66666667,14.4 L6.66666667,15.4666667 L6.13333333,15.4666667 L6.13333333,14.4 C6.13382932,13.9583778 6.49171114,13.600496 6.93333333,13.6 L9.06666667,13.6 C9.50828886,13.600496 9.86617068,13.9583778 9.86666667,14.4 L9.86666667,15.4666667 L9.33333333,15.4666667 Z M12,15.4666667 L12,14.4 L11.4666667,14.4 L11.4666667,15.4666667 L10.4,15.4666667 L10.4,14.4 C10.3990392,14.110582 10.3030023,13.8294983 10.1266667,13.6 L11.7333333,13.6 C11.8367842,13.5991142 11.9392774,13.6198694 12.0342333,13.6609333 C12.3372872,13.7805482 12.535595,14.0742021 12.5333525,14.4 L12.5333525,15.4666667 L12,15.4666667 Z M15.4666677,15.4666667 L14.9333333,15.4666667 L14.9333333,14.4 L14.4,14.4 L14.4,15.4666667 L13.0666667,15.4666667 L13.0666667,14.4 C13.0651427,14.1105839 12.968947,13.8296181 12.7927667,13.5999989 L14.6666667,13.5999989 C14.8789457,13.5996542 15.0826298,13.6838286 15.2327339,13.8339328 C15.382838,13.9840369 15.4670125,14.187721 15.4666677,14.4 L15.4666677,15.4666667 Z" id="Shape"></path>
                                    <polygon id="Path" points="1.06666667 5.6 3.06666667 5.6 3.06666667 6.13333333 1.06666667 6.13333333"></polygon>
                                    <polygon id="Path" points="2.13333333 5.6 2.66666667 5.6 2.66666667 6.13333333 2.13333333 6.13333333"></polygon>
                                    <polygon id="Path" points="2.73333333 5.6 3.73333333 5.6 3.73333333 6.13333333 2.73333333 6.13333333"></polygon>
                                    <polygon id="Path" points="1.06666667 7.73333333 2.06666667 7.73333333 2.06666667 8.26666667 1.06666667 8.26666667"></polygon>
                                    <polygon id="Path" points="2.13333333 7.73333333 2.66666667 7.73333333 2.66666667 8.26666667 2.13333333 8.26666667"></polygon>
                                    <polygon id="Path" points="1.73333333 7.73333333 3.73333333 7.73333333 3.73333333 8.26666667 1.73333333 8.26666667"></polygon>
                                    <polygon id="Path" points="1.06666667 9.86666667 3.06666667 9.86666667 3.06666667 10.4 1.06666667 10.4"></polygon>
                                    <polygon id="Path" points="2.13333333 9.86666667 2.66666667 9.86666667 2.66666667 10.4 2.13333333 10.4"></polygon>
                                    <polygon id="Path" points="2.73333333 9.86666667 3.73333333 9.86666667 3.73333333 10.4 2.73333333 10.4"></polygon>
                                    <path d="M15.7333333,3.46666667 L11.7333333,3.46666667 L11.7333333,1.33333333 C11.7333333,1.1860574 11.6139426,1.06666667 11.4666667,1.06666667 L11.2,1.06666667 L11.2,0.266666667 C11.2,0.119390733 11.0806093,0 10.9333333,0 L5.06666667,0 C4.91939073,0 4.8,0.119390733 4.8,0.266666667 L4.8,1.06666667 L4.53333333,1.06666667 C4.3860574,1.06666667 4.26666667,1.1860574 4.26666667,1.33333333 L4.26666667,3.46666667 L0.266666667,3.46666667 C0.119390733,3.46666667 0,3.5860574 0,3.73333333 L0,12.8 L0.533333333,12.8 L0.533333333,4 L4.26666667,4 L4.26666667,10.4 L4.8,10.4 L4.8,1.6 L11.2,1.6 L11.2,10.4 L11.7333333,10.4 L11.7333333,4 L15.4666667,4 L15.4666667,12.8 L16,12.8 L16,3.73333333 C16,3.5860574 15.8806093,3.46666667 15.7333333,3.46666667 Z M5.33333333,1.06666667 L5.33333333,0.533333333 L10.6666667,0.533333333 L10.6666667,1.06666667 L5.33333333,1.06666667 Z" id="Shape"></path>
                                    <polygon id="Path" points="13.9333333 5.6 14.9333333 5.6 14.9333333 6.13333333 13.9333333 6.13333333"></polygon>
                                    <polygon id="Path" points="13.3333333 5.6 13.8666667 5.6 13.8666667 6.13333333 13.3333333 6.13333333"></polygon>
                                    <polygon id="Path" points="12.2666667 5.6 14.2666667 5.6 14.2666667 6.13333333 12.2666667 6.13333333"></polygon>
                                    <polygon id="Path" points="13.9333333 7.73333333 14.9333333 7.73333333 14.9333333 8.26666667 13.9333333 8.26666667"></polygon>
                                    <polygon id="Path" points="13.3333333 7.73333333 13.8666667 7.73333333 13.8666667 8.26666667 13.3333333 8.26666667"></polygon>
                                    <polygon id="Path" points="12.2666667 7.73333333 14.2666667 7.73333333 14.2666667 8.26666667 12.2666667 8.26666667"></polygon>
                                    <polygon id="Path" points="12.9333333 9.86666667 14.9333333 9.86666667 14.9333333 10.4 12.9333333 10.4"></polygon>
                                    <polygon id="Path" points="13.3333333 9.86666667 13.8666667 9.86666667 13.8666667 10.4 13.3333333 10.4"></polygon>
                                    <polygon id="Path" points="12.2666667 9.86666667 14.2666667 9.86666667 14.2666667 10.4 12.2666667 10.4"></polygon>
                                    <polygon id="Path" points="6.2 2.4 10.2 2.4 10.2 2.93333333 6.2 2.93333333"></polygon>
                                    <polygon id="Path" points="5.6 2.4 6.6 2.4 6.6 2.93333333 5.6 2.93333333"></polygon>
                                    <polygon id="Path" points="9.86666667 2.4 10.4 2.4 10.4 2.93333333 9.86666667 2.93333333"></polygon>
                                    <polygon id="Path" points="7.73333333 2.4 8.26666667 2.4 8.26666667 2.93333333 7.73333333 2.93333333"></polygon>
                                    <polygon id="Path" points="8.8 2.4 9.33333333 2.4 9.33333333 2.93333333 8.8 2.93333333"></polygon>
                                    <polygon id="Path" points="6.66666667 4.53333333 7.2 4.53333333 7.2 5.06666667 6.66666667 5.06666667"></polygon>
                                    <polygon id="Path" points="5.6 4.53333333 9.6 4.53333333 9.6 5.06666667 5.6 5.06666667"></polygon>
                                    <polygon id="Path" points="7.73333333 4.53333333 8.26666667 4.53333333 8.26666667 5.06666667 7.73333333 5.06666667"></polygon>
                                    <polygon id="Path" points="8.8 4.53333333 9.33333333 4.53333333 9.33333333 5.06666667 8.8 5.06666667"></polygon>
                                    <polygon id="Path" points="9.4 4.53333333 10.4 4.53333333 10.4 5.06666667 9.4 5.06666667"></polygon>
                                    <polygon id="Path" points="6.66666667 6.66666667 7.2 6.66666667 7.2 7.2 6.66666667 7.2"></polygon>
                                    <polygon id="Path" points="5.6 6.66666667 9.6 6.66666667 9.6 7.2 5.6 7.2"></polygon>
                                    <polygon id="Path" points="7.73333333 6.66666667 8.26666667 6.66666667 8.26666667 7.2 7.73333333 7.2"></polygon>
                                    <polygon id="Path" points="8.8 6.66666667 9.33333333 6.66666667 9.33333333 7.2 8.8 7.2"></polygon>
                                    <polygon id="Path" points="9.4 6.66666667 10.4 6.66666667 10.4 7.2 9.4 7.2"></polygon>
                                    <polygon id="Path" points="6.66666667 8.8 7.2 8.8 7.2 9.33333333 6.66666667 9.33333333"></polygon>
                                    <polygon id="Path" points="5.6 8.8 8.6 8.8 8.6 9.33333333 5.6 9.33333333"></polygon>
                                    <polygon id="Path" points="7.73333333 8.8 8.26666667 8.8 8.26666667 9.33333333 7.73333333 9.33333333"></polygon>
                                    <polygon id="Path" points="8.8 8.8 9.33333333 8.8 9.33333333 9.33333333 8.8 9.33333333"></polygon>
                                    <polygon id="Path" points="8.4 8.8 10.4 8.8 10.4 9.33333333 8.4 9.33333333"></polygon>
                                </g>
                            </g>
                        </g>
                    </g>
                </g>
            </g>
        </g>
    </g>
</svg>