<?xml version="1.0" encoding="UTF-8"?>
<svg width="16px" height="12px" viewBox="0 0 16 12" version="1.1" xmlns="http://www.w3.org/2000/svg" xmlns:xlink="http://www.w3.org/1999/xlink">
    <!-- Generator: sketchtool 58 (101010) - https://sketch.com -->
    <title>6FE269E6-30BC-4CEF-BCA6-DF5B4537F367</title>
    <desc>Created with sketchtool.</desc>
    <defs>
        <path d="M15.4511875,4.029625 C15.5495,3.945625 15.6885,3.9264375 15.8066562,3.9814375 C15.9244688,4.0358125 16,4.15396875 16,4.28384375 L16,4.28384375 L16,12.6666561 C16,13.4020311 15.4020313,13.9999998 14.6666875,13.9999998 L14.6666875,13.9999998 L1.33334375,13.9999998 C0.59796875,13.9999998 0,13.4020311 0,12.6666561 L0,12.6666561 L0,4.28384375 C0,4.15396875 0.07553125,4.036125 0.19334375,3.98140625 C0.31053125,3.9270625 0.44984375,3.94559375 0.5488125,4.02959375 C2.53675,5.71449997 6.027,8.68162493 7.0693125,9.62074991 C7.6194375,10.1168437 8.38115625,10.1168437 8.93,9.62140616 C9.907875,8.74024993 13.0159375,6.09406247 15.4511875,4.029625 Z M14.6666557,2 C15.0755307,2 15.4570306,2.1871875 15.7129056,2.51365626 C15.8235931,2.65493752 15.8027494,2.85806252 15.6660306,2.97362502 C13.470062,4.83334382 9.61687463,8.1054689 8.48340592,9.12662518 C8.33171843,9.26365643 8.16893719,9.33300018 7.99999969,9.33300018 C7.83071845,9.33300018 7.66765596,9.26300018 7.51562471,9.12531268 C6.38312476,8.1051564 2.52993741,4.83334382 0.334000002,2.97362502 C0.197281258,2.85806252 0.176437509,2.65493752 0.287125004,2.51368751 C0.542968744,2.1871875 0.924499979,2 1.33334371,2 L1.33334371,2 Z" id="path-1"></path>
    </defs>
    <g id="👾-Vendor-Management" stroke="none" stroke-width="1" fill="none" fill-rule="evenodd">
        <g id="Add-vendor-by-searching-or-suggestion_03-Copy" transform="translate(-260.000000, -611.000000)">
            <g id="section" transform="translate(160.000000, 128.000000)">
                <g id="Group-5" transform="translate(80.000000, 402.000000)">
                    <g id="icon-/-24-/-info-/-email-address" transform="translate(20.000000, 79.000000)">
                        <mask id="mask-2" fill="white">
                            <use xlink:href="#path-1"></use>
                        </mask>
                        <use id="Combined-Shape" fill="#8697A8" fill-rule="nonzero" xlink:href="#path-1"></use>
                        <rect id="Rectangle" fill="#8697A8" mask="url(#mask-2)" x="0" y="0" width="16" height="16"></rect>
                    </g>
                </g>
            </g>
        </g>
    </g>
</svg>