<?xml version="1.0" encoding="UTF-8"?>
<svg width="40px" height="40px" viewBox="0 0 40 40" version="1.1" xmlns="http://www.w3.org/2000/svg" xmlns:xlink="http://www.w3.org/1999/xlink">
    <!-- Generator: sketchtool 57.1 (101010) - https://sketch.com -->
    <title>4375EAB9-4109-412D-BA27-63ACE369A529</title>
    <desc>Created with sketchtool.</desc>
    <defs>
        <rect id="path-1" x="0" y="0" width="40" height="40" rx="19.5"></rect>
        <path d="M7.6,2.7900583 C8.76888712,2.7900583 9.76777542,3.63216009 9.96543654,4.78421355 C10.1536852,5.88140733 9.56304826,6.95578975 8.55438896,7.39220013 L8.4,7.4528 L8.4,8.8688 L10.5656,11.0344 C10.6856316,11.1543953 10.7636286,11.3086024 10.7900262,11.4741092 L10.8,11.6 L10.8,21.2 C10.8,21.6418278 10.4418278,22 10,22 C9.59215895,22 9.25559842,21.6948119 9.20623314,21.3003503 L9.2,21.2 L9.2,11.9312 L7.0344,9.7656 C6.9143684,9.64560465 6.83640036,9.49139761 6.80999121,9.3258908 L6.8,9.2 L6.8,7.4528 C5.69796265,7.06317096 5.03690233,5.93626702 5.23456346,4.78421355 C5.43222458,3.63216009 6.43111288,2.7900583 7.6,2.7900583 Z M4.4,9.9900583 C5.56888712,9.9900583 6.56777542,10.8321601 6.76543654,11.9842136 C6.95368523,13.0814073 6.36304826,14.1557897 5.35438896,14.5922001 L5.2,14.6528 L5.2,16.0688 L7.3656,18.2344 C7.4856316,18.3543953 7.56362864,18.5086024 7.59002619,18.6741092 L7.6,18.8 L7.6,21.2 C7.6,21.6418278 7.2418278,22 6.8,22 C6.39215895,22 6.05559842,21.6948119 6.00623314,21.3003503 L6,21.2 L6,19.1312 L3.8344,16.9656 C3.7143684,16.8456047 3.63640036,16.6913976 3.60999121,16.5258908 L3.6,16.4 L3.6,14.6528 C2.49796265,14.263171 1.83690233,13.136267 2.03456346,11.9842136 C2.23222458,10.8321601 3.23111288,9.9900583 4.4,9.9900583 Z M15.6,2.7900583 C16.7688871,2.7900583 17.7677754,3.63216009 17.9654365,4.78421355 C18.1536852,5.88140733 17.5630483,6.95578975 16.554389,7.39220013 L16.4,7.4528 L16.4,9.2 C16.3999638,9.36972468 16.3459948,9.53387759 16.2475884,9.66954679 L16.1656,9.7656 L14,11.9312 L14,21.2 C14,21.6418278 13.6418278,22 13.2,22 C12.792159,22 12.4555984,21.6948119 12.4062331,21.3003503 L12.4,21.2 L12.4,11.6 C12.4,11.4302753 12.4539907,11.2661224 12.5524072,11.1304532 L12.6344,11.0344 L14.8,8.8688 L14.8,7.4528 C13.6979627,7.06317096 13.0369023,5.93626702 13.2345635,4.78421355 C13.4322246,3.63216009 14.4311129,2.7900583 15.6,2.7900583 Z M16.4621011,11.8477256 C16.7381921,10.6575524 17.8643357,9.86474729 19.0778957,10.0062062 C20.2914557,10.1476651 21.2050574,11.1782337 21.2000209,12.4 C21.1957989,13.4134283 20.5554807,14.3149964 19.6,14.6528 L19.6,14.6528 L19.6,16.4 C19.5999547,16.6121559 19.5156395,16.8156058 19.3656,16.9656 L19.3656,16.9656 L17.2,19.1312 L17.2,21.2 C17.2,21.6418278 16.8418278,22 16.4,22 C15.9581722,22 15.6,21.6418278 15.6,21.2 L15.6,21.2 L15.6,18.8 C15.6,18.5878441 15.6843605,18.3843942 15.8344,18.2344 L15.8344,18.2344 L18,16.0688 L18,14.6528 C16.8481015,14.2455306 16.1860101,13.0378989 16.4621011,11.8477256 Z" id="path-3"></path>
    </defs>
    <g id="👾-Vendor-Management" stroke="none" stroke-width="1" fill="none" fill-rule="evenodd">
        <g id="assets" transform="translate(-40.000000, -32.000000)">
            <g id="configure-function-&amp;-role" transform="translate(40.000000, 32.000000)">
                <g id="icon-/-40-/-info-/-container">
                    <mask id="mask-2" fill="white">
                        <use xlink:href="#path-1"></use>
                    </mask>
                    <use fill="#6A54CD" xlink:href="#path-1"></use>
                </g>
                <g id="icon-/-24-/-info-/-form" transform="translate(8.000000, 8.000000)">
                    <mask id="mask-4" fill="white">
                        <use xlink:href="#path-3"></use>
                    </mask>
                    <use id="Combined-Shape" fill="#000000" fill-rule="nonzero" xlink:href="#path-3"></use>
                    <rect id="Rectangle" fill="#FFFFFF" mask="url(#mask-4)" x="0" y="0" width="24" height="24"></rect>
                </g>
            </g>
        </g>
    </g>
</svg>