<?xml version="1.0" encoding="UTF-8"?>
<svg width="16px" height="16px" viewBox="0 0 16 16" version="1.1" xmlns="http://www.w3.org/2000/svg" xmlns:xlink="http://www.w3.org/1999/xlink">
    <title>logo</title>
    <g id="roster" stroke="none" stroke-width="1" fill="none" fill-rule="evenodd">
        <g id="Publish-functionalitv2_Filter02" transform="translate(-806.000000, -312.000000)">
            <g id="Group-7" transform="translate(160.000000, 163.000000)">
                <g id="tag" transform="translate(638.000000, 145.000000)">
                    <g id="logo" transform="translate(8.000000, 4.000000)">
                        <rect id="Rectangle" fill="#EE3942" x="0" y="0" width="16" height="16" rx="2"></rect>
                        <g id="Group-2" transform="translate(4.000000, 4.000000)">
                            <rect id="Rectangle" fill="#D8D8D8" opacity="0" x="0" y="0" width="8" height="8"></rect>
                            <g id="Group" transform="translate(0.500000, 0.000000)" fill="#FFFFFF">
                                <path d="M0.223815789,5.20578947 C0.221052632,5.21684211 0.218289474,5.22789474 0.218289474,5.23894737 L0.218289474,7.63368421 C0.218289474,7.69171053 0.265263158,7.73868421 0.323289474,7.73868421 L5.62855263,7.73868421 C5.68657895,7.73868421 5.73355263,7.69171053 5.73355263,7.63368421 L5.73355263,5.23894737 C5.73355263,5.22513158 5.73078947,5.21407895 5.72526316,5.20302632 C5.68934211,4.5675 5.41855263,4.13092105 4.89631579,3.87671053 C4.70289474,3.78276316 4.47631579,3.71644737 4.19723684,3.66947368 C4.59513158,3.32684211 4.84657895,2.81842105 4.84657895,2.25473684 C4.84657895,1.22131579 4.00657895,0.381315789 2.97315789,0.381315789 C1.93973684,0.381315789 1.1025,1.22131579 1.1025,2.25197368 C1.1025,2.81565789 1.35394737,3.32131579 1.75184211,3.66671053 C1.02236842,3.78828947 0.284605263,4.11710526 0.223815789,5.20578947 Z M2.97315789,7.38592105 L2.41776316,6.64539474 L2.75486842,4.11157895 C2.82671053,4.11986842 2.89855263,4.12539474 2.97315789,4.12539474 C3.04776316,4.12539474 3.11960526,4.11986842 3.19144737,4.11157895 L3.52855263,6.64539474 L2.97315789,7.38592105 Z M1.30973684,2.25197368 C1.30973684,1.33460526 2.05578947,0.585789474 2.97315789,0.585789474 C3.89052632,0.585789474 4.63934211,1.33184211 4.63934211,2.25197368 C4.63934211,2.83223684 4.33815789,3.34618421 3.885,3.64460526 C3.87671053,3.64736842 3.87118421,3.65289474 3.86565789,3.65565789 C3.60868421,3.81868421 3.30197368,3.91539474 2.97315789,3.91539474 C2.64434211,3.91539474 2.34039474,3.81868421 2.08342105,3.65565789 C2.07789474,3.65013158 2.06960526,3.64736842 2.06131579,3.64184211 C1.60815789,3.34618421 1.30973684,2.835 1.30973684,2.25197368 Z" id="Shape"></path>
                                <path d="M6.96039474,0.986447368 C6.94381579,0.936710526 6.90236842,0.903552632 6.85263158,0.895263158 L6.24473684,0.806842105 L5.97118421,0.254210526 C5.92697368,0.163026316 5.775,0.163026316 5.73078947,0.254210526 L5.45723684,0.806842105 L4.84934211,0.895263158 C4.79960526,0.903552632 4.75539474,0.939473684 4.74157895,0.986447368 C4.725,1.03618421 4.73881579,1.08868421 4.77473684,1.12460526 L5.21407895,1.55289474 L5.11184211,2.16078947 C5.10078947,2.21052632 5.12013158,2.26302632 5.16157895,2.29065789 C5.18368421,2.30723684 5.21131579,2.31552632 5.24171053,2.31552632 C5.26381579,2.31552632 5.28315789,2.31 5.30526316,2.29894737 L5.84960526,2.01157895 L6.39394737,2.29894737 C6.44092105,2.32381579 6.49342105,2.31828947 6.53486842,2.28789474 C6.57631579,2.26026316 6.59842105,2.21052632 6.59013158,2.16078947 L6.48513158,1.55289474 L6.92723684,1.12460526 C6.96315789,1.08868421 6.97421053,1.03618421 6.96039474,0.986447368 Z" id="Path"></path>
                            </g>
                        </g>
                    </g>
                </g>
            </g>
        </g>
    </g>
</svg>