<?xml version="1.0" encoding="UTF-8"?>
<svg width="32px" height="43px" viewBox="0 0 32 43" version="1.1" xmlns="http://www.w3.org/2000/svg" xmlns:xlink="http://www.w3.org/1999/xlink">
    <!-- Generator: Sketch 62 (91390) - https://sketch.com -->
    <title>verification</title>
    <desc>Created with Sketch.</desc>
    <g id="📤-excel-uploade" stroke="none" stroke-width="1" fill="none" fill-rule="evenodd">
        <g id="excel-uploade_updated_02" transform="translate(-236.000000, -499.000000)">
            <g id="verification" transform="translate(252.000000, 520.000000) scale(-1, 1) translate(-252.000000, -520.000000) translate(228.000000, 496.000000)">
                <rect id="Rectangle" fill="#D8D8D8" opacity="0" x="0" y="0" width="48" height="48"></rect>
                <g id="noun_searching_1835245" transform="translate(8.000000, 3.000000)" fill="#0059B2">
                    <g id="Group">
                        <path d="M6.60150376,7.72932331 C7.80451128,7.72932331 7.80451128,7.72932331 7.80451128,6.52631579 L7.80451128,1.86694737 L1.89377444,7.72932331 L6.60150376,7.72932331 Z" id="Path"></path>
                        <path d="M28.349594,0.0601503759 L10.2105263,0.0601503759 L10.2105263,6.52631579 C10.2105263,10.1353383 10.2105263,10.1353383 6.60150376,10.1353383 L0.041261851,10.1353383 L0.041261851,39.1578947 C0.041261851,42.7669173 7.41462447e-13,42.7669173 3.65040602,42.7669173 L28.349594,42.7669173 C31.9586165,42.7669173 31.9586165,42.7669173 31.9586165,39.1578947 L31.9586165,3.66917293 C31.9586165,0.0601503759 31.9586165,0.0601503759 28.349594,0.0601503759 Z M9.45454545,26.6363636 L9.45454545,29.5454545 L12.3636364,29.5454545 L12.3636364,31 L8.72727273,31 C8.32561109,31 8,30.6743889 8,30.2727273 L8,26.6363636 L9.45454545,26.6363636 Z M24,26.6363636 L24,30.2727273 C24,30.6743889 23.6743889,31 23.2727273,31 L19.6363636,31 L19.6363636,29.5454545 L22.5454545,29.5454545 L22.5454545,26.6363636 L24,26.6363636 Z M16,17.1818182 C18.0083082,17.1818182 19.6363636,18.8098736 19.6363636,20.8181818 L19.6363636,20.8181818 L19.6363636,21.5454545 C19.5950742,22.9731319 18.937845,24.313052 17.8341818,25.2196364 L17.8341818,25.2196364 L18.0152727,26.304 C18.0628219,26.5897068 18.2753675,26.8199646 18.5563636,26.8901818 L18.5563636,26.8901818 L20.5396364,27.3854545 C20.8956885,27.4746887 21.1294359,27.8152578 21.0846812,28.1795831 C21.0399266,28.5439083 20.7307,28.8177771 20.3636364,28.8181818 L20.3636364,28.8181818 L11.6363636,28.8181818 C11.2693,28.8177771 10.9600734,28.5439083 10.9153188,28.1795831 C10.8705641,27.8152578 11.1043115,27.4746887 11.4603636,27.3854545 L11.4603636,27.3854545 L13.4443636,26.8901818 C13.7250764,26.8197145 13.9372889,26.5895082 13.9847273,26.304 L13.9847273,26.304 L14.1658182,25.2196364 C13.062155,24.313052 12.4049258,22.9731319 12.3636364,21.5454545 L12.3636364,21.5454545 L12.3636364,20.8181818 C12.3636364,18.8098736 13.9916918,17.1818182 16,17.1818182 Z M12.3636364,15 L12.3636364,16.4545455 L9.45454545,16.4545455 L9.45454545,19.3636364 L8,19.3636364 L8,15.7272727 C8,15.3256111 8.32561109,15 8.72727273,15 L12.3636364,15 Z M23.2727273,15 C23.6743889,15 24,15.3256111 24,15.7272727 L24,19.3636364 L22.5454545,19.3636364 L22.5454545,16.4545455 L19.6363636,16.4545455 L19.6363636,15 L23.2727273,15 Z" id="Shape"></path>
                    </g>
                </g>
            </g>
        </g>
    </g>
</svg>