<?xml version="1.0" encoding="UTF-8"?>
<svg width="32px" height="32px" viewBox="0 0 32 32" version="1.1" xmlns="http://www.w3.org/2000/svg" xmlns:xlink="http://www.w3.org/1999/xlink">
    <title>D157194D-A0E5-45A6-A659-A3C7FB5CFAD3</title>
    <defs>
        <path d="M10.6890371,5.59144984 L10.1827763,5.59144984 L10.1827763,4.2380712 C10.1827763,3.11619155 10.1827763,1.03270075 8.63533743,0.186839106 C8.15475911,-0.0655158668 7.56681051,-0.0620244002 7.08972056,0.196017578 C6.6126306,0.454059557 6.3176167,0.928132936 6.31417919,1.44227587 L6.31417919,3.97986081 L3.74466657,7.22084649 L3.74466657,7.04277035 C3.7446996,6.94911068 3.70414235,6.85941006 3.63219936,6.79402623 C3.56025637,6.7286424 3.46302888,6.69312035 3.3625829,6.69552188 L0.372778255,6.69552188 C0.273185894,6.693045 0.176879279,6.72883403 0.106431784,6.79450037 C0.0359842882,6.86016671 -0.00241054118,6.94993716 0.000117380703,7.04277035 L0.000117380703,15.6527515 C0.00527671105,15.8425555 0.169154643,15.9953114 0.372778255,16 L3.35303081,16 C3.56404979,16 3.73511447,15.8405452 3.73511447,15.6438477 L3.73511447,15.4835792 L10.6890371,15.4835792 C13.6222009,15.4835792 16,13.2671574 16,10.5330626 C16,7.7989678 13.6222009,5.58254603 10.6890371,5.58254603 L10.6890371,5.59144984 Z M10.6890371,14.6911404 L3.73511447,14.6911404 L3.73511447,8.57422512 L7.17386743,4.24697501 L7.17386743,1.44227587 C7.16196896,1.20194562 7.29952616,0.976691771 7.52729481,0.863528424 C7.73601739,0.746795197 7.99677073,0.746795197 8.20549331,0.863528424 C9.2371192,1.42446825 9.32308802,2.89359638 9.32308802,4.22026359 L9.32308802,5.59144984 L9.32308802,5.59144984 L9.32308802,6.39279245 L10.6890371,6.39279245 C12.2793244,6.39279242 13.7488105,7.18362051 14.5439541,8.46737941 C15.3390978,9.75113832 15.3390978,11.3327945 14.5439541,12.6165534 C13.7488105,13.9003123 12.2793244,14.6911404 10.6890371,14.6911404 Z" id="path-1"></path>
    </defs>
    <g id="🎭-all-employees_OA" stroke="none" stroke-width="1" fill="none" fill-rule="evenodd">
        <g id="Enable-Service_01" transform="translate(-420.000000, -432.000000)">
            <g id="orgnisation-/-organisation-details-header" transform="translate(160.000000, 128.000000)">
                <g id="product" transform="translate(32.000000, 216.000000)">
                    <g id="Group-7" transform="translate(212.000000, 72.000000)">
                        <g id="verify" transform="translate(16.000000, 16.000000)">
                            <rect id="Rectangle" fill="#FFFFFF" x="0" y="0" width="32" height="32" rx="6"></rect>
                            <g id="icon-/-24-/-info-/-verify" transform="translate(8.000000, 8.000000)">
                                <mask id="mask-2" fill="white">
                                    <use xlink:href="#path-1"></use>
                                </mask>
                                <use id="Combined-Shape" fill="#1B2B4C" fill-rule="nonzero" xlink:href="#path-1"></use>
                                <rect id="Rectangle" fill="#0059B2" mask="url(#mask-2)" x="-4" y="-4" width="24" height="24"></rect>
                            </g>
                        </g>
                    </g>
                </g>
            </g>
        </g>
    </g>
</svg>