<?xml version="1.0" encoding="UTF-8"?>
<svg width="56px" height="56px" viewBox="0 0 56 56" version="1.1" xmlns="http://www.w3.org/2000/svg" xmlns:xlink="http://www.w3.org/1999/xlink">
    <title>33CF25A0-0BFD-47F0-8ACD-24F84EEB79E5</title>
    <defs>
        <path d="M10.6345808,0.294026368 C11.3502158,-0.0930366003 12.2321387,-0.0982738003 12.9530061,0.28025866 C15.2741644,1.54905113 15.2741644,4.67428732 15.2741644,6.35710681 L15.2741644,8.38717476 L16.0335557,8.38717476 L16.0335557,8.37381905 C20.4333014,8.37381905 24,11.6984517 24,15.7995939 C24,19.9007361 20.4333014,23.2253688 16.0335557,23.2253688 L16.0335557,23.2253688 L5.60267171,23.2253688 L5.60267171,23.4657716 C5.60267171,23.7608178 5.34607469,24 5.02954622,24 L5.02954622,24 L0.559167383,24 C0.253731965,23.992967 0.00791506658,23.7638333 0.000176071055,23.4791273 L0.000176071055,23.4791273 L0.000176071055,10.5641555 C-0.00361581178,10.4249057 0.0539764323,10.2902501 0.159647676,10.1917506 C0.265318919,10.0932511 0.409778841,10.0395675 0.559167383,10.0432828 L0.559167383,10.0432828 L5.04387436,10.0432828 C5.19454333,10.0396805 5.34038455,10.0929636 5.44829903,10.1910393 C5.55621352,10.2891151 5.6170494,10.423666 5.61699985,10.5641555 L5.61699985,10.5641555 L5.61699985,10.8312697 L9.47126878,5.96979121 L9.47126878,2.1634138 C9.47642506,1.3921994 9.91894591,0.681089335 10.6345808,0.294026368 Z M15.3314769,9.68267865 C15.3314769,9.79332098 15.2352531,9.8830143 15.1165549,9.8830143 C15.0583339,9.88705136 15.0011149,9.86724479 14.9598327,9.82876436 C14.9185505,9.79028392 14.8973018,9.73694825 14.9016328,9.68267865 C14.9016328,9.64887127 14.9106167,9.61701978 14.9264805,9.58908531 L14.4326129,9.58908531 C14.4484767,9.61701978 14.4574606,9.64887127 14.4574606,9.68267865 C14.4617916,9.73694825 14.4405429,9.79028392 14.3992607,9.82876436 C14.3579785,9.86724479 14.3007595,9.88705136 14.2425385,9.8830143 C14.1238403,9.8830143 14.0276164,9.79332098 14.0276164,9.68267865 C14.0276164,9.64887127 14.0366003,9.61701978 14.0524641,9.58908531 L13.984632,9.58918868 L13.9840358,6.10848486 C13.9771339,4.88693946 13.9045513,3.6076642 13.4740856,2.62776786 L13.4544909,2.63086366 L13.4544909,2.63086366 C13.4012583,2.63453518 13.3486511,2.61827856 13.3083138,2.58569218 C13.2679765,2.5531058 13.2432361,2.50687734 13.2395689,2.45723942 C13.2395689,2.39772726 13.2674078,2.34427593 13.3116089,2.30758313 C13.1527916,2.02345539 12.9533223,1.7726929 12.7066194,1.56614236 C12.7205849,1.59540774 12.7261813,1.62550584 12.7237559,1.65589681 C12.7237559,1.76653914 12.6275321,1.85623246 12.5088339,1.85623246 C12.3901357,1.85623246 12.2939118,1.76653914 12.2939118,1.65589681 C12.2939118,1.60276449 12.3165553,1.55180834 12.356861,1.51423811 C12.3971667,1.47666789 12.451833,1.45556116 12.5088339,1.45556116 L12.5661677,1.4592805 L12.5661677,1.4592805 L12.4744057,1.39430864 L12.4744057,1.39430864 L12.30824,1.29529264 C11.9951561,1.1201928 11.6040261,1.1201928 11.2909422,1.29529264 C11.1660368,1.35734996 11.0592175,1.44187981 10.9748267,1.54177146 C10.9939095,1.57182733 11.0043795,1.6060445 11.0043795,1.6425411 C11.0087105,1.6968107 10.9874618,1.75014637 10.9461796,1.78862681 C10.9090015,1.8232817 10.8588977,1.8427911 10.8067772,1.8433789 C10.7710501,1.94365804 10.7553082,2.05246488 10.7608011,2.1634138 L10.7608011,2.1634138 L10.759792,2.23208519 C10.7694889,2.23083727 10.7793924,2.23019235 10.7894574,2.23019235 C10.8476784,2.22615529 10.9048974,2.24596187 10.9461796,2.2844423 C10.9874618,2.32292273 11.0087105,2.3762584 11.0043795,2.430528 C11.0043795,2.54117033 10.9081556,2.63086366 10.7894574,2.63086366 L10.76,2.626 L10.759792,3.02007209 C10.7694889,3.01882417 10.7793924,3.01817925 10.7894574,3.01817925 C10.9081556,3.01817925 11.0043795,3.10787258 11.0043795,3.21851491 C11.0043795,3.32915723 10.9081556,3.41885056 10.7894574,3.41885056 L10.76,3.414 L10.7597492,3.76988262 C10.7694193,3.76800548 10.7793371,3.7667293 10.7894574,3.76609903 C10.9081556,3.76609903 11.0043795,3.85579235 11.0043795,3.96643468 C11.0285119,4.02970203 11.0170358,4.10003147 10.973814,4.15374935 C10.9305922,4.20746723 10.8613734,4.23742888 10.7894574,4.23354888 L10.76,4.227 L10.759792,4.63611303 C10.7694889,4.63486511 10.7793924,4.63422019 10.7894574,4.63422019 C10.9081556,4.63422019 11.0043795,4.72391352 11.0043795,4.83455584 C11.0043795,4.94519817 10.9081556,5.0348915 10.7894574,5.0348915 L10.76,5.03 L10.759792,5.43745564 C10.7694889,5.43620772 10.7793924,5.4355628 10.7894574,5.4355628 C10.9081556,5.4355628 11.0043795,5.52525613 11.0043795,5.63589846 C11.0083511,5.69130445 10.9874734,5.74576159 10.9467292,5.78627245 C10.905985,5.82678332 10.8490299,5.84971336 10.7894574,5.84958982 L10.76,5.844 L10.759792,6.25215396 C10.7694889,6.25090604 10.7793924,6.25026113 10.7894574,6.25026113 C10.9081556,6.25026113 11.0043795,6.33995445 11.0043795,6.45059678 C11.0043795,6.5612391 10.9081556,6.65093243 10.7894574,6.65093243 C10.7141854,6.65093243 10.6479512,6.61486302 10.6095623,6.56025513 L5.60267171,12.8613377 L5.60267171,22.0367106 L16.0335557,22.0367106 C18.4189866,22.0367106 20.6232157,20.8504685 21.8159312,18.9248302 C21.8599541,18.8537551 21.9023522,18.7820713 21.9431255,18.7098236 C21.9247803,18.700864 21.9084374,18.6887866 21.8941015,18.6745328 C21.8533573,18.6340219 21.8324796,18.5795648 21.8364513,18.5241588 C21.8364513,18.4135165 21.9326752,18.3238232 22.0513733,18.3238232 C22.0808539,18.3238232 22.1089482,18.329356 22.1345262,18.3393683 C22.3456319,17.8993746 22.498513,17.4402368 22.5935153,16.9732584 C22.5853215,16.9532683 22.5814662,16.9310932 22.5815144,16.9081179 C22.5815144,16.8622418 22.5980574,16.8199673 22.6258861,16.7861948 C22.656795,16.6191242 22.6779217,16.4501237 22.6916046,16.2807183 C22.6255231,16.2468449 22.5815144,16.1816007 22.5815144,16.1067753 C22.5815144,16.025212 22.6338057,15.9550331 22.7088436,15.9237782 C22.7119736,15.7919296 22.7099448,15.6579652 22.7032843,15.5241562 C22.6306712,15.4929596 22.5815144,15.4245807 22.5815144,15.3454998 C22.5815144,15.2768844 22.6185214,15.2163258 22.6749455,15.1802201 C22.5974649,14.4629119 22.3846362,13.7545804 22.0375242,13.0898837 C22.0069487,13.1067805 21.9728903,13.1150962 21.9367482,13.1150962 C21.8785273,13.1191332 21.8213082,13.0993267 21.780026,13.0608462 C21.7387439,13.0223658 21.7174952,12.9690301 21.7218262,12.9147605 C21.7218262,12.8377448 21.7684491,12.7708794 21.8368215,12.7373495 L21.8159312,12.7010691 C21.2737126,11.8256576 20.5224457,11.1030563 19.6401411,10.5752479 C19.6083503,10.6477262 19.5322638,10.6977126 19.4436523,10.6977126 C19.3224317,10.6979335 19.2219782,10.6101499 19.2144021,10.497377 C19.2144021,10.4479739 19.2323875,10.4024864 19.262588,10.3662933 C18.8301171,10.1425574 18.3697326,9.96398157 17.8907435,9.83465534 C17.8542831,9.86519395 17.8058402,9.8830143 17.7529321,9.8830143 C17.6614356,9.8830143 17.583293,9.82971996 17.5522828,9.75461734 C17.39216,9.71726605 17.2282913,9.68750273 17.0628793,9.66346335 L17.0651815,9.68267865 L17.0651815,9.68267865 C17.0651815,9.79332098 16.9689577,9.8830143 16.8502595,9.8830143 C16.7920385,9.88705136 16.7348195,9.86724479 16.6935373,9.82876436 C16.6522551,9.79028392 16.6310064,9.73694825 16.6353374,9.68267865 C16.6353374,9.65924399 16.6396542,9.63674914 16.6475869,9.61584729 C16.4460744,9.59811625 16.2404969,9.58918867 16.0335557,9.58918868 L16.1673884,9.59099598 C16.182585,9.61846859 16.1911652,9.64963962 16.1911652,9.68267865 C16.1911652,9.79332098 16.0949413,9.8830143 15.9762431,9.8830143 C15.8575449,9.8830143 15.7613211,9.79332098 15.7613211,9.68267865 C15.7613211,9.64887127 15.7703049,9.61701978 15.7861687,9.58908531 L15.3066293,9.58908531 C15.3224931,9.61701978 15.3314769,9.64887127 15.3314769,9.68267865 Z M19.4149961,19.1518772 C19.5336942,19.1518772 19.6299181,19.2415705 19.6299181,19.3522128 C19.6299181,19.4628552 19.5336942,19.5525485 19.4149961,19.5525485 C19.2962979,19.5525485 19.200074,19.4628552 19.200074,19.3522128 C19.200074,19.2415705 19.2962979,19.1518772 19.4149961,19.1518772 Z M17.7529321,19.1518772 C17.8716303,19.1518772 17.9678542,19.2415705 17.9678542,19.3522128 C17.9678542,19.4628552 17.8716303,19.5525485 17.7529321,19.5525485 C17.634234,19.5525485 17.5380101,19.4628552 17.5380101,19.3522128 C17.5380101,19.2415705 17.634234,19.1518772 17.7529321,19.1518772 Z M21.1487007,19.1518772 C21.2673989,19.1518772 21.3636227,19.2415705 21.3636227,19.3522128 C21.3636227,19.4628552 21.2673989,19.5525485 21.1487007,19.5525485 C21.0300025,19.5525485 20.9337786,19.4628552 20.9337786,19.3522128 C20.9337786,19.2415705 21.0300025,19.1518772 21.1487007,19.1518772 Z M18.5553078,19.1518772 C18.674006,19.1518772 18.7702299,19.2415705 18.7702299,19.3522128 C18.7702299,19.4332411 18.7178658,19.5062907 18.6375549,19.5372989 C18.5572441,19.568307 18.4648023,19.5511671 18.403335,19.4938715 C18.3418677,19.4365759 18.3234799,19.350408 18.3567457,19.2755477 C18.3900116,19.2006874 18.46838,19.1518772 18.5553078,19.1518772 Z M20.2890124,19.1518772 C20.4077106,19.1518772 20.5039345,19.2415705 20.5039345,19.3522128 C20.5039345,19.4332411 20.4515704,19.5062907 20.3712596,19.5372989 C20.2909487,19.568307 20.1985069,19.5511671 20.1370396,19.4938715 C20.0755723,19.4365759 20.0571845,19.350408 20.0904503,19.2755477 C20.1237162,19.2006874 20.2020846,19.1518772 20.2890124,19.1518772 Z M10.015738,19.1385215 C10.1344362,19.1385215 10.2306601,19.2282148 10.2306601,19.3388571 C10.2306601,19.4494995 10.1344362,19.5391928 10.015738,19.5391928 C9.89703982,19.5391928 9.80081594,19.4494995 9.80081594,19.3388571 C9.80081594,19.2282148 9.89703982,19.1385215 10.015738,19.1385215 Z M10.8754262,19.1385215 C10.9941244,19.1385215 11.0903483,19.2282148 11.0903483,19.3388571 C11.0903483,19.4494995 10.9941244,19.5391928 10.8754262,19.5391928 C10.7567281,19.5391928 10.6605042,19.4494995 10.6605042,19.3388571 C10.6605042,19.2282148 10.7567281,19.1385215 10.8754262,19.1385215 Z M12.5088339,19.1385215 C12.6275321,19.1385215 12.7237559,19.2282148 12.7237559,19.3388571 C12.7237559,19.4494995 12.6275321,19.5391928 12.5088339,19.5391928 C12.3901357,19.5391928 12.2939118,19.4494995 12.2939118,19.3388571 C12.2939118,19.2282148 12.3901357,19.1385215 12.5088339,19.1385215 Z M13.3828503,19.1385215 C13.5015484,19.1385215 13.5977723,19.2282148 13.5977723,19.3388571 C13.5977723,19.4494995 13.5015484,19.5391928 13.3828503,19.5391928 C13.2641521,19.5391928 13.1679282,19.4494995 13.1679282,19.3388571 C13.1679282,19.2282148 13.2641521,19.1385215 13.3828503,19.1385215 Z M14.2425385,19.1385215 C14.3612367,19.1385215 14.4574606,19.2282148 14.4574606,19.3388571 C14.4574606,19.4494995 14.3612367,19.5391928 14.2425385,19.5391928 C14.1238403,19.5391928 14.0276164,19.4494995 14.0276164,19.3388571 C14.0276164,19.2282148 14.1238403,19.1385215 14.2425385,19.1385215 Z M15.1165549,19.1385215 C15.2352531,19.1385215 15.3314769,19.2282148 15.3314769,19.3388571 C15.3314769,19.4494995 15.2352531,19.5391928 15.1165549,19.5391928 C14.9978567,19.5391928 14.9016328,19.4494995 14.9016328,19.3388571 C14.9016328,19.2282148 14.9978567,19.1385215 15.1165549,19.1385215 Z M16.8359314,19.1385215 C16.9546295,19.1385215 17.0508534,19.2282148 17.0508534,19.3388571 C17.0508534,19.4494995 16.9546295,19.5391928 16.8359314,19.5391928 C16.7172332,19.5391928 16.6210093,19.4494995 16.6210093,19.3388571 C16.6210093,19.2282148 16.7172332,19.1385215 16.8359314,19.1385215 Z M15.9762431,19.1385215 C16.0949413,19.1385215 16.1911652,19.2282148 16.1911652,19.3388571 C16.1911652,19.4494995 16.0949413,19.5391928 15.9762431,19.5391928 C15.8575449,19.5391928 15.7613211,19.4494995 15.7613211,19.3388571 C15.7613211,19.2282148 15.8575449,19.1385215 15.9762431,19.1385215 Z M7.40801701,19.1385215 C7.52671519,19.1385215 7.62293907,19.2282148 7.62293907,19.3388571 C7.62293907,19.4494995 7.52671519,19.5391928 7.40801701,19.5391928 C7.28931883,19.5391928 7.19309495,19.4494995 7.19309495,19.3388571 C7.19309495,19.2282148 7.28931883,19.1385215 7.40801701,19.1385215 Z M8.28203339,19.1385215 C8.40073156,19.1385215 8.49695545,19.2282148 8.49695545,19.3388571 C8.49695545,19.4494995 8.40073156,19.5391928 8.28203339,19.5391928 C8.16333521,19.5391928 8.06711133,19.4494995 8.06711133,19.3388571 C8.06711133,19.2282148 8.16333521,19.1385215 8.28203339,19.1385215 Z M9.15604976,19.1385215 C9.27474794,19.1385215 9.37097182,19.2282148 9.37097182,19.3388571 C9.37097182,19.4494995 9.27474794,19.5391928 9.15604976,19.5391928 C9.03735159,19.5391928 8.9411277,19.4494995 8.9411277,19.3388571 C8.9411277,19.2282148 9.03735159,19.1385215 9.15604976,19.1385215 Z M11.7494426,19.1385215 C11.8681408,19.1385215 11.9643647,19.2282148 11.9643647,19.3388571 C11.9643647,19.4494995 11.8681408,19.5391928 11.7494426,19.5391928 C11.6307444,19.5391928 11.5345206,19.4494995 11.5345206,19.3388571 C11.5345206,19.2282148 11.6307444,19.1385215 11.7494426,19.1385215 Z M10.015738,18.3371789 C10.1344362,18.3371789 10.2306601,18.4268722 10.2306601,18.5375145 C10.2306601,18.6481568 10.1344362,18.7378502 10.015738,18.7378502 C9.89703982,18.7378502 9.80081594,18.6481568 9.80081594,18.5375145 C9.80081594,18.4268722 9.89703982,18.3371789 10.015738,18.3371789 Z M15.1165549,18.3238232 C15.2375387,18.3308851 15.3317139,18.4245209 15.3314769,18.5375145 C15.3314769,18.6481568 15.2352531,18.7378502 15.1165549,18.7378502 C14.9953343,18.7380711 14.8948808,18.6502874 14.8873047,18.5375145 C14.8873047,18.419496 14.9899435,18.3238232 15.1165549,18.3238232 Z M9.15604976,18.3238232 C9.21562225,18.3236996 9.27257739,18.3466297 9.31332157,18.3871405 C9.35406575,18.4276514 9.37494348,18.4821085 9.37097182,18.5375145 C9.37097182,18.6481568 9.27474794,18.7378502 9.15604976,18.7378502 C9.03735159,18.7378502 8.9411277,18.6481568 8.9411277,18.5375145 C8.94089072,18.4245209 9.03506589,18.3308851 9.15604976,18.3238232 Z M16.8359314,18.3238232 C16.9625427,18.3238232 17.0651815,18.419496 17.0651815,18.5375145 C17.0576055,18.6502874 16.957152,18.7380711 16.8359314,18.7378502 C16.7172332,18.7378502 16.6210093,18.6481568 16.6210093,18.5375145 C16.6207723,18.4245209 16.7149475,18.3308851 16.8359314,18.3238232 Z M13.3828503,18.3371789 C13.5015484,18.3371789 13.5977723,18.4268722 13.5977723,18.5375145 C13.5977723,18.6481568 13.5015484,18.7378502 13.3828503,18.7378502 C13.2641521,18.7378502 13.1679282,18.6481568 13.1679282,18.5375145 C13.1679282,18.4268722 13.2641521,18.3371789 13.3828503,18.3371789 Z M14.2425385,18.3238232 C14.3635224,18.3308851 14.4576975,18.4245209 14.4574606,18.5375145 C14.4574606,18.6481568 14.3612367,18.7378502 14.2425385,18.7378502 C14.1238403,18.7378502 14.0276164,18.6481568 14.0276164,18.5375145 C14.0273795,18.4245209 14.1215546,18.3308851 14.2425385,18.3238232 Z M11.7494426,18.3371789 C11.8681408,18.3371789 11.9643647,18.4268722 11.9643647,18.5375145 C11.9643647,18.6481568 11.8681408,18.7378502 11.7494426,18.7378502 C11.6307444,18.7378502 11.5345206,18.6481568 11.5345206,18.5375145 C11.5345206,18.4268722 11.6307444,18.3371789 11.7494426,18.3371789 Z M12.5088339,18.3371789 C12.6275321,18.3371789 12.7237559,18.4268722 12.7237559,18.5375145 C12.7237559,18.6481568 12.6275321,18.7378502 12.5088339,18.7378502 C12.3901357,18.7378502 12.2939118,18.6481568 12.2939118,18.5375145 C12.2939118,18.4268722 12.3901357,18.3371789 12.5088339,18.3371789 Z M21.1630288,18.3238232 C21.281727,18.3238232 21.3779509,18.4135165 21.3779509,18.5241588 C21.3819225,18.5795648 21.3610448,18.6340219 21.3203006,18.6745328 C21.2795564,18.7150437 21.2226013,18.7379737 21.1630288,18.7378502 C21.0420449,18.7307883 20.9478698,18.6371524 20.9481068,18.5241588 C20.9481068,18.4135165 21.0443306,18.3238232 21.1630288,18.3238232 Z M10.8754262,18.3238232 C10.9349987,18.3236996 10.9919539,18.3466297 11.032698,18.3871405 C11.0734422,18.4276514 11.09432,18.4821085 11.0903483,18.5375145 C11.0903483,18.5906468 11.0677048,18.641603 11.0273991,18.6791732 C10.9870934,18.7167434 10.9324271,18.7378502 10.8754262,18.7378502 C10.7567281,18.7378502 10.6605042,18.6481568 10.6605042,18.5375145 C10.6602672,18.4245209 10.7544424,18.3308851 10.8754262,18.3238232 Z M15.9762431,18.3371789 C16.0949413,18.3371789 16.1911652,18.4268722 16.1911652,18.5375145 C16.1911652,18.6481568 16.0949413,18.7378502 15.9762431,18.7378502 C15.8575449,18.7378502 15.7613211,18.6481568 15.7613211,18.5375145 C15.7613211,18.4268722 15.8575449,18.3371789 15.9762431,18.3371789 Z M7.40801701,18.3371789 C7.52671519,18.3371789 7.62293907,18.4268722 7.62293907,18.5375145 C7.62293907,18.6481568 7.52671519,18.7378502 7.40801701,18.7378502 C7.28931883,18.7378502 7.19309495,18.6481568 7.19309495,18.5375145 C7.19309495,18.4268722 7.28931883,18.3371789 7.40801701,18.3371789 Z M8.28203339,18.3238232 C8.40301726,18.3308851 8.49719242,18.4245209 8.49695545,18.5375145 C8.49695545,18.6481568 8.40073156,18.7378502 8.28203339,18.7378502 C8.16333521,18.7378502 8.06711133,18.6481568 8.06711133,18.5375145 C8.06687435,18.4245209 8.16104951,18.3308851 8.28203339,18.3238232 Z M17.7529321,18.3238232 C17.8716303,18.3238232 17.9678542,18.4135165 17.9678542,18.5241588 C17.9718259,18.5795648 17.9509481,18.6340219 17.9102039,18.6745328 C17.8694598,18.7150437 17.8125046,18.7379737 17.7529321,18.7378502 C17.6319483,18.7307883 17.5377731,18.6371524 17.5380101,18.5241588 C17.5380101,18.4135165 17.634234,18.3238232 17.7529321,18.3238232 Z M18.569636,18.3238232 C18.6883341,18.3238232 18.784558,18.4135165 18.784558,18.5241588 C18.784795,18.6371524 18.6906198,18.7307883 18.569636,18.7378502 C18.5100635,18.7379737 18.4531083,18.7150437 18.4123642,18.6745328 C18.37162,18.6340219 18.3507422,18.5795648 18.3547139,18.5241588 C18.3547139,18.4135165 18.4509378,18.3238232 18.569636,18.3238232 Z M19.4293242,18.3238232 C19.5480224,18.3238232 19.6442463,18.4135165 19.6442463,18.5241588 C19.6482179,18.5795648 19.6273402,18.6340219 19.586596,18.6745328 C19.5458518,18.7150437 19.4888967,18.7379737 19.4293242,18.7378502 C19.3083403,18.7307883 19.2141652,18.6371524 19.2144021,18.5241588 C19.2144021,18.4135165 19.310626,18.3238232 19.4293242,18.3238232 Z M20.3033406,18.3238232 C20.4220388,18.3238232 20.5182626,18.4135165 20.5182626,18.5241588 C20.5184996,18.6371524 20.4243245,18.7307883 20.3033406,18.7378502 C20.2437681,18.7379737 20.1868129,18.7150437 20.1460688,18.6745328 C20.1053246,18.6340219 20.0844469,18.5795648 20.0884185,18.5241588 C20.0884185,18.4135165 20.1846424,18.3238232 20.3033406,18.3238232 Z M16.8359314,17.5224805 C16.9546295,17.5224805 17.0508534,17.6121739 17.0508534,17.7228162 C17.0508534,17.8334585 16.9546295,17.9231519 16.8359314,17.9231519 C16.7172332,17.9231519 16.6210093,17.8334585 16.6210093,17.7228162 C16.6210093,17.6121739 16.7172332,17.5224805 16.8359314,17.5224805 Z M11.7494426,17.5224805 C11.8681408,17.5224805 11.9643647,17.6121739 11.9643647,17.7228162 C11.9643647,17.8334585 11.8681408,17.9231519 11.7494426,17.9231519 C11.6307444,17.9231519 11.5345206,17.8334585 11.5345206,17.7228162 C11.5345206,17.6121739 11.6307444,17.5224805 11.7494426,17.5224805 Z M7.40801701,17.5224805 C7.52671519,17.5224805 7.62293907,17.6121739 7.62293907,17.7228162 C7.62293907,17.8334585 7.52671519,17.9231519 7.40801701,17.9231519 C7.28931883,17.9231519 7.19309495,17.8334585 7.19309495,17.7228162 C7.19309495,17.6121739 7.28931883,17.5224805 7.40801701,17.5224805 Z M15.9762431,17.5224805 C16.0949413,17.5224805 16.1911652,17.6121739 16.1911652,17.7228162 C16.1911652,17.8334585 16.0949413,17.9231519 15.9762431,17.9231519 C15.8575449,17.9231519 15.7613211,17.8334585 15.7613211,17.7228162 C15.7613211,17.6121739 15.8575449,17.5224805 15.9762431,17.5224805 Z M13.4544909,17.5224805 C13.5731891,17.5224805 13.669413,17.6121739 13.669413,17.7228162 C13.669413,17.8334585 13.5731891,17.9231519 13.4544909,17.9231519 C13.3357928,17.9231519 13.2395689,17.8334585 13.2395689,17.7228162 C13.2395689,17.6121739 13.3357928,17.5224805 13.4544909,17.5224805 Z M10.015738,17.5224805 C10.1344362,17.5224805 10.2306601,17.6121739 10.2306601,17.7228162 C10.2306601,17.8334585 10.1344362,17.9231519 10.015738,17.9231519 C9.89703982,17.9231519 9.80081594,17.8334585 9.80081594,17.7228162 C9.80081594,17.6121739 9.89703982,17.5224805 10.015738,17.5224805 Z M17.6956196,17.5224805 C17.8143178,17.5224805 17.9105416,17.6121739 17.9105416,17.7228162 C17.9105416,17.8334585 17.8143178,17.9231519 17.6956196,17.9231519 C17.5769214,17.9231519 17.4806975,17.8334585 17.4806975,17.7228162 C17.4806975,17.6121739 17.5769214,17.5224805 17.6956196,17.5224805 Z M14.2425385,17.5224805 C14.3612367,17.5224805 14.4574606,17.6121739 14.4574606,17.7228162 C14.4574606,17.8334585 14.3612367,17.9231519 14.2425385,17.9231519 C14.1238403,17.9231519 14.0276164,17.8334585 14.0276164,17.7228162 C14.0276164,17.6121739 14.1238403,17.5224805 14.2425385,17.5224805 Z M18.569636,17.5224805 C18.6883341,17.5224805 18.784558,17.6121739 18.784558,17.7228162 C18.784558,17.8334585 18.6883341,17.9231519 18.569636,17.9231519 C18.4509378,17.9231519 18.3547139,17.8334585 18.3547139,17.7228162 C18.3547139,17.6121739 18.4509378,17.5224805 18.569636,17.5224805 Z M10.8754262,17.5224805 C10.9941244,17.5224805 11.0903483,17.6121739 11.0903483,17.7228162 C11.0903483,17.8334585 10.9941244,17.9231519 10.8754262,17.9231519 C10.7567281,17.9231519 10.6605042,17.8334585 10.6605042,17.7228162 C10.6605042,17.6121739 10.7567281,17.5224805 10.8754262,17.5224805 Z M19.4293242,17.5224805 C19.5480224,17.5224805 19.6442463,17.6121739 19.6442463,17.7228162 C19.6442463,17.8334585 19.5480224,17.9231519 19.4293242,17.9231519 C19.310626,17.9231519 19.2144021,17.8334585 19.2144021,17.7228162 C19.2144021,17.6121739 19.310626,17.5224805 19.4293242,17.5224805 Z M8.28203339,17.5224805 C8.40073156,17.5224805 8.49695545,17.6121739 8.49695545,17.7228162 C8.49695545,17.8334585 8.40073156,17.9231519 8.28203339,17.9231519 C8.16333521,17.9231519 8.06711133,17.8334585 8.06711133,17.7228162 C8.06711133,17.6121739 8.16333521,17.5224805 8.28203339,17.5224805 Z M20.3033406,17.5224805 C20.4220388,17.5224805 20.5182626,17.6121739 20.5182626,17.7228162 C20.5182626,17.8334585 20.4220388,17.9231519 20.3033406,17.9231519 C20.1846424,17.9231519 20.0884185,17.8334585 20.0884185,17.7228162 C20.0884185,17.6121739 20.1846424,17.5224805 20.3033406,17.5224805 Z M15.1165549,17.5224805 C15.2352531,17.5224805 15.3314769,17.6121739 15.3314769,17.7228162 C15.3314769,17.8334585 15.2352531,17.9231519 15.1165549,17.9231519 C14.9978567,17.9231519 14.9016328,17.8334585 14.9016328,17.7228162 C14.9016328,17.6121739 14.9978567,17.5224805 15.1165549,17.5224805 Z M22.0513733,17.5224805 C22.1700715,17.5224805 22.2662954,17.6121739 22.2662954,17.7228162 C22.2662954,17.8334585 22.1700715,17.9231519 22.0513733,17.9231519 C21.9326752,17.9231519 21.8364513,17.8334585 21.8364513,17.7228162 C21.8364513,17.6121739 21.9326752,17.5224805 22.0513733,17.5224805 Z M9.15604976,17.5224805 C9.27474794,17.5224805 9.37097182,17.6121739 9.37097182,17.7228162 C9.37097182,17.8334585 9.27474794,17.9231519 9.15604976,17.9231519 C9.03735159,17.9231519 8.9411277,17.8334585 8.9411277,17.7228162 C8.9411277,17.6121739 9.03735159,17.5224805 9.15604976,17.5224805 Z M21.1630288,17.5224805 C21.281727,17.5224805 21.3779509,17.6121739 21.3779509,17.7228162 C21.3779509,17.8334585 21.281727,17.9231519 21.1630288,17.9231519 C21.0443306,17.9231519 20.9481068,17.8334585 20.9481068,17.7228162 C20.9481068,17.6121739 21.0443306,17.5224805 21.1630288,17.5224805 Z M12.5088339,17.5224805 C12.6275321,17.5224805 12.7237559,17.6121739 12.7237559,17.7228162 C12.7237559,17.8334585 12.6275321,17.9231519 12.5088339,17.9231519 C12.3901357,17.9231519 12.2939118,17.8334585 12.2939118,17.7228162 C12.2939118,17.6121739 12.3901357,17.5224805 12.5088339,17.5224805 Z M8.28203339,16.7211379 C8.40073156,16.7211379 8.49695545,16.8108313 8.49695545,16.9214736 C8.49695545,17.0321159 8.40073156,17.1218092 8.28203339,17.1218092 C8.16333521,17.1218092 8.06711133,17.0321159 8.06711133,16.9214736 C8.06711133,16.8108313 8.16333521,16.7211379 8.28203339,16.7211379 Z M10.8754262,16.7211379 C10.9336472,16.7171009 10.9908662,16.7369074 11.0321484,16.7753879 C11.0734306,16.8138683 11.0946793,16.867204 11.0903483,16.9214736 C11.0903483,16.9746059 11.0677048,17.0255621 11.0273991,17.0631323 C10.9870934,17.1007025 10.9324271,17.1218092 10.8754262,17.1218092 C10.8184254,17.1218092 10.7637591,17.1007025 10.7234534,17.0631323 C10.6831477,17.0255621 10.6605042,16.9746059 10.6605042,16.9214736 C10.6605042,16.8683413 10.6831477,16.8173851 10.7234534,16.7798149 C10.7637591,16.7422447 10.8184254,16.7211379 10.8754262,16.7211379 Z M12.5088339,16.7211379 C12.6275321,16.7211379 12.7237559,16.8108313 12.7237559,16.9214736 C12.7237559,17.0321159 12.6275321,17.1218092 12.5088339,17.1218092 C12.3901357,17.1218092 12.2939118,17.0321159 12.2939118,16.9214736 C12.2939118,16.8108313 12.3901357,16.7211379 12.5088339,16.7211379 Z M15.1165549,16.7211379 C15.2352531,16.7211379 15.3314769,16.8108313 15.3314769,16.9214736 C15.3314769,17.0321159 15.2352531,17.1218092 15.1165549,17.1218092 C14.9953343,17.1220301 14.8948808,17.0342465 14.8873047,16.9214736 C14.8871721,16.8659442 14.9117717,16.8128545 14.9552322,16.7748756 C14.9986926,16.7368966 15.0571148,16.7174358 15.1165549,16.7211379 Z M18.569636,16.7077822 C18.6883341,16.7077822 18.784558,16.7974756 18.784558,16.9081179 C18.784795,17.0211115 18.6906198,17.1147473 18.569636,17.1218092 C18.5100635,17.1219328 18.4531083,17.0990027 18.4123642,17.0584919 C18.37162,17.017981 18.3507422,16.9635239 18.3547139,16.9081179 C18.3547139,16.7974756 18.4509378,16.7077822 18.569636,16.7077822 Z M7.40801701,16.7211379 C7.52671519,16.7211379 7.62293907,16.8108313 7.62293907,16.9214736 C7.62293907,17.0321159 7.52671519,17.1218092 7.40801701,17.1218092 C7.28931883,17.1218092 7.19309495,17.0321159 7.19309495,16.9214736 C7.19309495,16.8108313 7.28931883,16.7211379 7.40801701,16.7211379 Z M19.4293242,16.7077822 C19.5480224,16.7077822 19.6442463,16.7974756 19.6442463,16.9081179 C19.6482179,16.9635239 19.6273402,17.017981 19.586596,17.0584919 C19.5458518,17.0990027 19.4888967,17.1219328 19.4293242,17.1218092 C19.3083403,17.1147473 19.2141652,17.0211115 19.2144021,16.9081179 C19.2144021,16.7974756 19.310626,16.7077822 19.4293242,16.7077822 Z M15.9762431,16.7211379 C16.0949413,16.7211379 16.1911652,16.8108313 16.1911652,16.9214736 C16.1911652,17.0321159 16.0949413,17.1218092 15.9762431,17.1218092 C15.8575449,17.1218092 15.7613211,17.0321159 15.7613211,16.9214736 C15.7613211,16.8108313 15.8575449,16.7211379 15.9762431,16.7211379 Z M16.8359314,16.7211379 C16.8953714,16.7174358 16.9537936,16.7368966 16.9972541,16.7748756 C17.0407145,16.8128545 17.0653141,16.8659442 17.0651815,16.9214736 C17.0576055,17.0342465 16.957152,17.1220301 16.8359314,17.1218092 C16.7172332,17.1218092 16.6210093,17.0321159 16.6210093,16.9214736 C16.6210093,16.8108313 16.7172332,16.7211379 16.8359314,16.7211379 Z M21.1630288,16.7077822 C21.281727,16.7077822 21.3779509,16.7974756 21.3779509,16.9081179 C21.3819225,16.9635239 21.3610448,17.017981 21.3203006,17.0584919 C21.2795564,17.0990027 21.2226013,17.1219328 21.1630288,17.1218092 C21.0420449,17.1147473 20.9478698,17.0211115 20.9481068,16.9081179 C20.9481068,16.7974756 21.0443306,16.7077822 21.1630288,16.7077822 Z M10.015738,16.7211379 C10.1344362,16.7211379 10.2306601,16.8108313 10.2306601,16.9214736 C10.2306601,17.0321159 10.1344362,17.1218092 10.015738,17.1218092 C9.89703982,17.1218092 9.80081594,17.0321159 9.80081594,16.9214736 C9.80081594,16.8108313 9.89703982,16.7211379 10.015738,16.7211379 Z M11.7494426,16.7211379 C11.8681408,16.7211379 11.9643647,16.8108313 11.9643647,16.9214736 C11.9643647,17.0321159 11.8681408,17.1218092 11.7494426,17.1218092 C11.6307444,17.1218092 11.5345206,17.0321159 11.5345206,16.9214736 C11.5345206,16.8108313 11.6307444,16.7211379 11.7494426,16.7211379 Z M14.2425385,16.7211379 C14.3612367,16.7211379 14.4574606,16.8108313 14.4574606,16.9214736 C14.4574606,17.0321159 14.3612367,17.1218092 14.2425385,17.1218092 C14.1238403,17.1218092 14.0276164,17.0321159 14.0276164,16.9214736 C14.0276164,16.8108313 14.1238403,16.7211379 14.2425385,16.7211379 Z M13.3828503,16.7211379 C13.5015484,16.7211379 13.5977723,16.8108313 13.5977723,16.9214736 C13.5977723,17.0321159 13.5015484,17.1218092 13.3828503,17.1218092 C13.2641521,17.1218092 13.1679282,17.0321159 13.1679282,16.9214736 C13.1679282,16.8108313 13.2641521,16.7211379 13.3828503,16.7211379 Z M9.15604976,16.7211379 C9.21427072,16.7171009 9.27148976,16.7369074 9.31277194,16.7753879 C9.35405413,16.8138683 9.37530282,16.867204 9.37097182,16.9214736 C9.37097182,17.0321159 9.27474794,17.1218092 9.15604976,17.1218092 C9.03735159,17.1218092 8.9411277,17.0321159 8.9411277,16.9214736 C8.9411277,16.8108313 9.03735159,16.7211379 9.15604976,16.7211379 Z M21.9367482,16.7077822 C22.0554464,16.7077822 22.1516703,16.7974756 22.1516703,16.9081179 C22.1519073,17.0211115 22.0577321,17.1147473 21.9367482,17.1218092 C21.8771757,17.1219328 21.8202206,17.0990027 21.7794764,17.0584919 C21.7387322,17.017981 21.7178545,16.9635239 21.7218262,16.9081179 C21.7218262,16.7974756 21.8180501,16.7077822 21.9367482,16.7077822 Z M17.6956196,16.7077822 C17.8143178,16.7077822 17.9105416,16.7974756 17.9105416,16.9081179 C17.9105416,17.0187602 17.8143178,17.1084535 17.6956196,17.1084535 C17.5769214,17.1084535 17.4806975,17.0187602 17.4806975,16.9081179 C17.4806975,16.7974756 17.5769214,16.7077822 17.6956196,16.7077822 Z M20.3033406,16.7077822 C20.4220388,16.7077822 20.5182626,16.7974756 20.5182626,16.9081179 C20.5182626,17.0187602 20.4220388,17.1084535 20.3033406,17.1084535 C20.1846424,17.1084535 20.0884185,17.0187602 20.0884185,16.9081179 C20.0884185,16.7974756 20.1846424,16.7077822 20.3033406,16.7077822 Z M18.569636,15.9064396 C18.6883341,15.9064396 18.784558,15.9961329 18.784558,16.1067753 C18.784558,16.2174176 18.6883341,16.3071109 18.569636,16.3071109 C18.4509378,16.3071109 18.3547139,16.2174176 18.3547139,16.1067753 C18.3547139,15.9961329 18.4509378,15.9064396 18.569636,15.9064396 Z M10.8754262,15.9064396 C10.9324271,15.9064396 10.9870934,15.9275463 11.0273991,15.9651166 C11.0677048,16.0026868 11.0903483,16.0536429 11.0903483,16.1067753 C11.0946793,16.1610449 11.0734306,16.2143805 11.0321484,16.252861 C10.9908662,16.2913414 10.9336472,16.311148 10.8754262,16.3071109 C10.8184254,16.3071109 10.7637591,16.2860042 10.7234534,16.248434 C10.6831477,16.2108637 10.6605042,16.1599076 10.6605042,16.1067753 C10.6605042,16.0536429 10.6831477,16.0026868 10.7234534,15.9651166 C10.7637591,15.9275463 10.8184254,15.9064396 10.8754262,15.9064396 Z M10.015738,15.9064396 C10.1344362,15.9064396 10.2306601,15.9961329 10.2306601,16.1067753 C10.2306601,16.2174176 10.1344362,16.3071109 10.015738,16.3071109 C9.89703982,16.3071109 9.80081594,16.2174176 9.80081594,16.1067753 C9.80081594,15.9961329 9.89703982,15.9064396 10.015738,15.9064396 Z M15.9762431,15.9064396 C16.0949413,15.9064396 16.1911652,15.9961329 16.1911652,16.1067753 C16.1911652,16.2174176 16.0949413,16.3071109 15.9762431,16.3071109 C15.8575449,16.3071109 15.7613211,16.2174176 15.7613211,16.1067753 C15.7613211,15.9961329 15.8575449,15.9064396 15.9762431,15.9064396 Z M7.40801701,15.9064396 C7.52671519,15.9064396 7.62293907,15.9961329 7.62293907,16.1067753 C7.62293907,16.2174176 7.52671519,16.3071109 7.40801701,16.3071109 C7.28931883,16.3071109 7.19309495,16.2174176 7.19309495,16.1067753 C7.19309495,15.9961329 7.28931883,15.9064396 7.40801701,15.9064396 Z M13.3828503,15.9064396 C13.5015484,15.9064396 13.5977723,15.9961329 13.5977723,16.1067753 C13.5977723,16.2174176 13.5015484,16.3071109 13.3828503,16.3071109 C13.2641521,16.3071109 13.1679282,16.2174176 13.1679282,16.1067753 C13.1679282,15.9961329 13.2641521,15.9064396 13.3828503,15.9064396 Z M8.28203339,15.9064396 C8.33903426,15.9064396 8.39370053,15.9275463 8.43400623,15.9651166 C8.47431194,16.0026868 8.49695545,16.0536429 8.49695545,16.1067753 C8.49695545,16.2174176 8.40073156,16.3071109 8.28203339,16.3071109 C8.16333521,16.3071109 8.06711133,16.2174176 8.06711133,16.1067753 C8.06711133,16.0536429 8.08975484,16.0026868 8.13006054,15.9651166 C8.17036624,15.9275463 8.22503251,15.9064396 8.28203339,15.9064396 Z M12.5088339,15.9064396 C12.6275321,15.9064396 12.7237559,15.9961329 12.7237559,16.1067753 C12.7237559,16.2174176 12.6275321,16.3071109 12.5088339,16.3071109 C12.3901357,16.3071109 12.2939118,16.2174176 12.2939118,16.1067753 C12.2939118,15.9961329 12.3901357,15.9064396 12.5088339,15.9064396 Z M16.8359314,15.9064396 C16.957152,15.9062187 17.0576055,15.9940024 17.0651815,16.1067753 C17.0653141,16.1623047 17.0407145,16.2153944 16.9972541,16.2533733 C16.9537936,16.2913522 16.8953714,16.310813 16.8359314,16.3071109 C16.7172332,16.3071109 16.6210093,16.2174176 16.6210093,16.1067753 C16.6210093,16.0536429 16.6436528,16.0026868 16.6839585,15.9651166 C16.7242642,15.9275463 16.7789305,15.9064396 16.8359314,15.9064396 Z M15.1165549,15.9064396 C15.1735558,15.9064396 15.228222,15.9275463 15.2685277,15.9651166 C15.3088334,16.0026868 15.3314769,16.0536429 15.3314769,16.1067753 C15.3314769,16.2174176 15.2352531,16.3071109 15.1165549,16.3071109 C15.0571148,16.310813 14.9986926,16.2913522 14.9552322,16.2533733 C14.9117717,16.2153944 14.8871721,16.1623047 14.8873047,16.1067753 C14.8948808,15.9940024 14.9953343,15.9062187 15.1165549,15.9064396 Z M19.4293242,15.9064396 C19.5480224,15.9064396 19.6442463,15.9961329 19.6442463,16.1067753 C19.6442463,16.2174176 19.5480224,16.3071109 19.4293242,16.3071109 C19.310626,16.3071109 19.2144021,16.2174176 19.2144021,16.1067753 C19.2144021,15.9961329 19.310626,15.9064396 19.4293242,15.9064396 Z M20.3033406,15.9064396 C20.4220388,15.9064396 20.5182626,15.9961329 20.5182626,16.1067753 C20.5182626,16.2174176 20.4220388,16.3071109 20.3033406,16.3071109 C20.1846424,16.3071109 20.0884185,16.2174176 20.0884185,16.1067753 C20.0884185,15.9961329 20.1846424,15.9064396 20.3033406,15.9064396 Z M21.1630288,15.9064396 C21.281727,15.9064396 21.3779509,15.9961329 21.3779509,16.1067753 C21.3779509,16.2174176 21.281727,16.3071109 21.1630288,16.3071109 C21.0443306,16.3071109 20.9481068,16.2174176 20.9481068,16.1067753 C20.9481068,15.9961329 21.0443306,15.9064396 21.1630288,15.9064396 Z M9.15604976,15.9064396 C9.21305064,15.9064396 9.2677169,15.9275463 9.30802261,15.9651166 C9.34832831,16.0026868 9.37097182,16.0536429 9.37097182,16.1067753 C9.37530282,16.1610449 9.35405413,16.2143805 9.31277194,16.252861 C9.27148976,16.2913414 9.21427072,16.311148 9.15604976,16.3071109 C9.03735159,16.3071109 8.9411277,16.2174176 8.9411277,16.1067753 C8.9411277,16.0536429 8.96377121,16.0026868 9.00407692,15.9651166 C9.04438262,15.9275463 9.09904889,15.9064396 9.15604976,15.9064396 Z M11.7494426,15.9064396 C11.8681408,15.9064396 11.9643647,15.9961329 11.9643647,16.1067753 C11.9643647,16.2174176 11.8681408,16.3071109 11.7494426,16.3071109 C11.6307444,16.3071109 11.5345206,16.2174176 11.5345206,16.1067753 C11.5345206,15.9961329 11.6307444,15.9064396 11.7494426,15.9064396 Z M17.7529321,15.9064396 C17.8716303,15.9064396 17.9678542,15.9961329 17.9678542,16.1067753 C17.9678542,16.2174176 17.8716303,16.3071109 17.7529321,16.3071109 C17.634234,16.3071109 17.5380101,16.2174176 17.5380101,16.1067753 C17.5380101,15.9961329 17.634234,15.9064396 17.7529321,15.9064396 Z M14.2425385,15.9064396 C14.2995394,15.9064396 14.3542056,15.9275463 14.3945113,15.9651166 C14.4348171,16.0026868 14.4574606,16.0536429 14.4574606,16.1067753 C14.4574606,16.2174176 14.3612367,16.3071109 14.2425385,16.3071109 C14.1238403,16.3071109 14.0276164,16.2174176 14.0276164,16.1067753 C14.0276164,16.0536429 14.05026,16.0026868 14.0905657,15.9651166 C14.1308714,15.9275463 14.1855376,15.9064396 14.2425385,15.9064396 Z M21.9367482,15.9064396 C22.0554464,15.9064396 22.1516703,15.9961329 22.1516703,16.1067753 C22.1516703,16.2174176 22.0554464,16.3071109 21.9367482,16.3071109 C21.8180501,16.3071109 21.7218262,16.2174176 21.7218262,16.1067753 C21.7218262,15.9961329 21.8180501,15.9064396 21.9367482,15.9064396 Z M15.9762431,15.1451641 C16.0949413,15.1451641 16.1911652,15.2348575 16.1911652,15.3454998 C16.1911652,15.4561421 16.0949413,15.5458354 15.9762431,15.5458354 C15.8575449,15.5458354 15.7613211,15.4561421 15.7613211,15.3454998 C15.7613211,15.2348575 15.8575449,15.1451641 15.9762431,15.1451641 Z M12.5088339,15.1451641 C12.6275321,15.1451641 12.7237559,15.2348575 12.7237559,15.3454998 C12.7237559,15.4561421 12.6275321,15.5458354 12.5088339,15.5458354 C12.3901357,15.5458354 12.2939118,15.4561421 12.2939118,15.3454998 C12.2939118,15.2348575 12.3901357,15.1451641 12.5088339,15.1451641 Z M7.40801701,15.1451641 C7.52671519,15.1451641 7.62293907,15.2348575 7.62293907,15.3454998 C7.62293907,15.4561421 7.52671519,15.5458354 7.40801701,15.5458354 C7.28931883,15.5458354 7.19309495,15.4561421 7.19309495,15.3454998 C7.19309495,15.2348575 7.28931883,15.1451641 7.40801701,15.1451641 Z M15.1165549,15.1451641 C15.2352531,15.1451641 15.3314769,15.2348575 15.3314769,15.3454998 C15.3314769,15.4561421 15.2352531,15.5458354 15.1165549,15.5458354 C14.9978567,15.5458354 14.9016328,15.4561421 14.9016328,15.3454998 C14.9016328,15.2348575 14.9978567,15.1451641 15.1165549,15.1451641 Z M14.2425385,15.1451641 C14.3612367,15.1451641 14.4574606,15.2348575 14.4574606,15.3454998 C14.4574606,15.4561421 14.3612367,15.5458354 14.2425385,15.5458354 C14.1238403,15.5458354 14.0276164,15.4561421 14.0276164,15.3454998 C14.0276164,15.2348575 14.1238403,15.1451641 14.2425385,15.1451641 Z M11.7494426,15.1451641 C11.8681408,15.1451641 11.9643647,15.2348575 11.9643647,15.3454998 C11.9643647,15.4561421 11.8681408,15.5458354 11.7494426,15.5458354 C11.6307444,15.5458354 11.5345206,15.4561421 11.5345206,15.3454998 C11.5345206,15.2348575 11.6307444,15.1451641 11.7494426,15.1451641 Z M8.28203339,15.1451641 C8.40073156,15.1451641 8.49695545,15.2348575 8.49695545,15.3454998 C8.49695545,15.4561421 8.40073156,15.5458354 8.28203339,15.5458354 C8.16333521,15.5458354 8.06711133,15.4561421 8.06711133,15.3454998 C8.06711133,15.2348575 8.16333521,15.1451641 8.28203339,15.1451641 Z M9.15604976,15.1451641 C9.27474794,15.1451641 9.37097182,15.2348575 9.37097182,15.3454998 C9.37097182,15.4561421 9.27474794,15.5458354 9.15604976,15.5458354 C9.03735159,15.5458354 8.9411277,15.4561421 8.9411277,15.3454998 C8.9411277,15.2348575 9.03735159,15.1451641 9.15604976,15.1451641 Z M18.569636,15.1451641 C18.6883341,15.1451641 18.784558,15.2348575 18.784558,15.3454998 C18.784558,15.4561421 18.6883341,15.5458354 18.569636,15.5458354 C18.4509378,15.5458354 18.3547139,15.4561421 18.3547139,15.3454998 C18.3503829,15.2912302 18.3716316,15.2378945 18.4129138,15.1994141 C18.454196,15.1609336 18.511415,15.1411271 18.569636,15.1451641 Z M19.4293242,15.1451641 C19.4875452,15.1411271 19.5447642,15.1609336 19.5860464,15.1994141 C19.6273286,15.2378945 19.6485773,15.2912302 19.6442463,15.3454998 C19.6442463,15.4561421 19.5480224,15.5458354 19.4293242,15.5458354 C19.310626,15.5458354 19.2144021,15.4561421 19.2144021,15.3454998 C19.2144021,15.2348575 19.310626,15.1451641 19.4293242,15.1451641 Z M20.3033406,15.1451641 C20.4220388,15.1451641 20.5182626,15.2348575 20.5182626,15.3454998 C20.5182626,15.4561421 20.4220388,15.5458354 20.3033406,15.5458354 C20.1846424,15.5458354 20.0884185,15.4561421 20.0884185,15.3454998 C20.0840875,15.2912302 20.1053362,15.2378945 20.1466184,15.1994141 C20.1879006,15.1609336 20.2451196,15.1411271 20.3033406,15.1451641 Z M21.1630288,15.1451641 C21.2212498,15.1411271 21.2784688,15.1609336 21.319751,15.1994141 C21.3610332,15.2378945 21.3822819,15.2912302 21.3779509,15.3454998 C21.3779509,15.4561421 21.281727,15.5458354 21.1630288,15.5458354 C21.0443306,15.5458354 20.9481068,15.4561421 20.9481068,15.3454998 C20.9481068,15.2348575 21.0443306,15.1451641 21.1630288,15.1451641 Z M13.3828503,15.1451641 C13.5015484,15.1451641 13.5977723,15.2348575 13.5977723,15.3454998 C13.5977723,15.4561421 13.5015484,15.5458354 13.3828503,15.5458354 C13.2641521,15.5458354 13.1679282,15.4561421 13.1679282,15.3454998 C13.1679282,15.2348575 13.2641521,15.1451641 13.3828503,15.1451641 Z M16.8359314,15.1451641 C16.9546295,15.1451641 17.0508534,15.2348575 17.0508534,15.3454998 C17.0508534,15.4561421 16.9546295,15.5458354 16.8359314,15.5458354 C16.7172332,15.5458354 16.6210093,15.4561421 16.6210093,15.3454998 C16.6210093,15.2348575 16.7172332,15.1451641 16.8359314,15.1451641 Z M10.015738,15.1451641 C10.1344362,15.1451641 10.2306601,15.2348575 10.2306601,15.3454998 C10.2306601,15.4561421 10.1344362,15.5458354 10.015738,15.5458354 C9.89703982,15.5458354 9.80081594,15.4561421 9.80081594,15.3454998 C9.80081594,15.2348575 9.89703982,15.1451641 10.015738,15.1451641 Z M17.7529321,15.1451641 C17.8111531,15.1411271 17.8683721,15.1609336 17.9096543,15.1994141 C17.9509365,15.2378945 17.9721852,15.2912302 17.9678542,15.3454998 C17.9678542,15.4561421 17.8716303,15.5458354 17.7529321,15.5458354 C17.634234,15.5458354 17.5380101,15.4561421 17.5380101,15.3454998 C17.5380101,15.2348575 17.634234,15.1451641 17.7529321,15.1451641 Z M10.8754262,15.1451641 C10.9941244,15.1451641 11.0903483,15.2348575 11.0903483,15.3454998 C11.0903483,15.4561421 10.9941244,15.5458354 10.8754262,15.5458354 C10.7567281,15.5458354 10.6605042,15.4561421 10.6605042,15.3454998 C10.6605042,15.2348575 10.7567281,15.1451641 10.8754262,15.1451641 Z M21.9367482,15.1451641 C22.0554464,15.1451641 22.1516703,15.2348575 22.1516703,15.3454998 C22.1516703,15.4561421 22.0554464,15.5458354 21.9367482,15.5458354 C21.8180501,15.5458354 21.7218262,15.4561421 21.7218262,15.3454998 C21.7174952,15.2912302 21.7387439,15.2378945 21.780026,15.1994141 C21.8213082,15.1609336 21.8785273,15.1411271 21.9367482,15.1451641 Z M13.4544909,14.3304658 C13.5731891,14.3304658 13.669413,14.4201591 13.669413,14.5308015 C13.66965,14.643795 13.5754748,14.7374309 13.4544909,14.7444928 C13.3278796,14.7444928 13.2252408,14.6488199 13.2252408,14.5308015 C13.2328168,14.4180286 13.3332703,14.3302449 13.4544909,14.3304658 Z M9.15604976,14.3304658 C9.27474794,14.3304658 9.37097182,14.4201591 9.37097182,14.5308015 C9.37494348,14.5862075 9.35406575,14.6406646 9.31332157,14.6811755 C9.27257739,14.7216863 9.21562225,14.7446164 9.15604976,14.7444928 C9.03506589,14.7374309 8.94089072,14.643795 8.9411277,14.5308015 C8.9411277,14.4201591 9.03735159,14.3304658 9.15604976,14.3304658 Z M7.40801701,14.3304658 C7.52923763,14.3302449 7.62969114,14.4180286 7.63726721,14.5308015 C7.63726721,14.5874759 7.61311413,14.6418292 7.57012138,14.6819041 C7.52712863,14.721979 7.46881794,14.7444928 7.40801701,14.7444928 C7.28703314,14.7374309 7.19285797,14.643795 7.19309495,14.5308015 C7.19309495,14.4201591 7.28931883,14.3304658 7.40801701,14.3304658 Z M15.1165549,14.3304658 C15.2352531,14.3304658 15.3314769,14.4201591 15.3314769,14.5308015 C15.3317139,14.643795 15.2375387,14.7374309 15.1165549,14.7444928 C14.9899435,14.7444928 14.8873047,14.6488199 14.8873047,14.5308015 C14.8948808,14.4180286 14.9953343,14.3302449 15.1165549,14.3304658 Z M10.8754262,14.3304658 C10.9324271,14.3304658 10.9870934,14.3515725 11.0273991,14.3891428 C11.0677048,14.426713 11.0903483,14.4776691 11.0903483,14.5308015 C11.09432,14.5862075 11.0734422,14.6406646 11.032698,14.6811755 C10.9919539,14.7216863 10.9349987,14.7446164 10.8754262,14.7444928 C10.7544424,14.7374309 10.6602672,14.643795 10.6605042,14.5308015 C10.6605042,14.4776691 10.6831477,14.426713 10.7234534,14.3891428 C10.7637591,14.3515725 10.8184254,14.3304658 10.8754262,14.3304658 Z M16.8359314,14.3304658 C16.957152,14.3302449 17.0576055,14.4180286 17.0651815,14.5308015 C17.0651815,14.6488199 16.9625427,14.7444928 16.8359314,14.7444928 C16.7149475,14.7374309 16.6207723,14.643795 16.6210093,14.5308015 C16.6210093,14.4201591 16.7172332,14.3304658 16.8359314,14.3304658 Z M11.7494426,14.3304658 C11.8064435,14.3304658 11.8611098,14.3515725 11.9014155,14.3891428 C11.9417212,14.426713 11.9643647,14.4776691 11.9643647,14.5308015 C11.9646016,14.643795 11.8704265,14.7374309 11.7494426,14.7444928 C11.6898701,14.7446164 11.632915,14.7216863 11.5921708,14.6811755 C11.5514266,14.6406646 11.5305489,14.5862075 11.5345206,14.5308015 C11.5345206,14.4201591 11.6307444,14.3304658 11.7494426,14.3304658 Z M21.9367482,14.3304658 C22.0554464,14.3304658 22.1516703,14.4201591 22.1516703,14.5308015 C22.1516703,14.6414438 22.0554464,14.7311371 21.9367482,14.7311371 C21.8785273,14.7351742 21.8213082,14.7153676 21.780026,14.6768872 C21.7387439,14.6384067 21.7174952,14.5850711 21.7218262,14.5308015 C21.7218262,14.4201591 21.8180501,14.3304658 21.9367482,14.3304658 Z M14.2425385,14.3304658 C14.3612367,14.3304658 14.4574606,14.4201591 14.4574606,14.5308015 C14.4574606,14.6414438 14.3612367,14.7311371 14.2425385,14.7311371 C14.1238403,14.7311371 14.0276164,14.6414438 14.0276164,14.5308015 C14.0276164,14.4201591 14.1238403,14.3304658 14.2425385,14.3304658 Z M10.015738,14.3304658 C10.0727389,14.3304658 10.1274051,14.3515725 10.1677108,14.3891428 C10.2080165,14.426713 10.2306601,14.4776691 10.2306601,14.5308015 C10.2306601,14.6414438 10.1344362,14.7311371 10.015738,14.7311371 C9.89703982,14.7311371 9.80081594,14.6414438 9.80081594,14.5308015 C9.80081594,14.4201591 9.89703982,14.3304658 10.015738,14.3304658 Z M15.9762431,14.3304658 C16.0949413,14.3304658 16.1911652,14.4201591 16.1911652,14.5308015 C16.1911652,14.6414438 16.0949413,14.7311371 15.9762431,14.7311371 C15.8575449,14.7311371 15.7613211,14.6414438 15.7613211,14.5308015 C15.7613211,14.4201591 15.8575449,14.3304658 15.9762431,14.3304658 Z M12.5088339,14.3304658 C12.6275321,14.3304658 12.7237559,14.4201591 12.7237559,14.5308015 C12.7237559,14.6414438 12.6275321,14.7311371 12.5088339,14.7311371 C12.3901357,14.7311371 12.2939118,14.6414438 12.2939118,14.5308015 C12.2939118,14.4201591 12.3901357,14.3304658 12.5088339,14.3304658 Z M17.6956196,14.3304658 C17.8143178,14.3304658 17.9105416,14.4201591 17.9105416,14.5308015 C17.9105416,14.6414438 17.8143178,14.7311371 17.6956196,14.7311371 C17.5769214,14.7311371 17.4806975,14.6414438 17.4806975,14.5308015 C17.4806975,14.4201591 17.5769214,14.3304658 17.6956196,14.3304658 Z M8.28203339,14.3304658 C8.40073156,14.3304658 8.49695545,14.4201591 8.49695545,14.5308015 C8.49695545,14.6414438 8.40073156,14.7311371 8.28203339,14.7311371 C8.16333521,14.7311371 8.06711133,14.6414438 8.06711133,14.5308015 C8.06711133,14.4201591 8.16333521,14.3304658 8.28203339,14.3304658 Z M18.569636,14.3304658 C18.6883341,14.3304658 18.784558,14.4201591 18.784558,14.5308015 C18.784558,14.6414438 18.6883341,14.7311371 18.569636,14.7311371 C18.511415,14.7351742 18.454196,14.7153676 18.4129138,14.6768872 C18.3716316,14.6384067 18.3503829,14.5850711 18.3547139,14.5308015 C18.3547139,14.4201591 18.4509378,14.3304658 18.569636,14.3304658 Z M19.4293242,14.3304658 C19.5480224,14.3304658 19.6442463,14.4201591 19.6442463,14.5308015 C19.6485773,14.5850711 19.6273286,14.6384067 19.5860464,14.6768872 C19.5447642,14.7153676 19.4875452,14.7351742 19.4293242,14.7311371 C19.310626,14.7311371 19.2144021,14.6414438 19.2144021,14.5308015 C19.2144021,14.4201591 19.310626,14.3304658 19.4293242,14.3304658 Z M20.3033406,14.3304658 C20.4220388,14.3304658 20.5182626,14.4201591 20.5182626,14.5308015 C20.5182626,14.6414438 20.4220388,14.7311371 20.3033406,14.7311371 C20.1846424,14.7311371 20.0884185,14.6414438 20.0884185,14.5308015 C20.0884185,14.4201591 20.1846424,14.3304658 20.3033406,14.3304658 Z M21.1630288,14.3304658 C21.281727,14.3304658 21.3779509,14.4201591 21.3779509,14.5308015 C21.3822819,14.5850711 21.3610332,14.6384067 21.319751,14.6768872 C21.2784688,14.7153676 21.2212498,14.7351742 21.1630288,14.7311371 C21.0443306,14.7311371 20.9481068,14.6414438 20.9481068,14.5308015 C20.9481068,14.4201591 21.0443306,14.3304658 21.1630288,14.3304658 Z M18.569636,13.5291232 C18.6883341,13.5291232 18.784558,13.6188165 18.784558,13.7294588 C18.784558,13.8401012 18.6883341,13.9297945 18.569636,13.9297945 C18.5126351,13.9297945 18.4579688,13.9086878 18.4176631,13.8711175 C18.3773574,13.8335473 18.3547139,13.7825912 18.3547139,13.7294588 C18.3503829,13.6751892 18.3716316,13.6218536 18.4129138,13.5833731 C18.454196,13.5448927 18.511415,13.5250861 18.569636,13.5291232 Z M19.4293242,13.5291232 C19.4875452,13.5250861 19.5447642,13.5448927 19.5860464,13.5833731 C19.6273286,13.6218536 19.6485773,13.6751892 19.6442463,13.7294588 C19.6442463,13.8401012 19.5480224,13.9297945 19.4293242,13.9297945 C19.310626,13.9297945 19.2144021,13.8401012 19.2144021,13.7294588 C19.2144021,13.6188165 19.310626,13.5291232 19.4293242,13.5291232 Z M15.1165549,13.5291232 C15.2352531,13.5291232 15.3314769,13.6188165 15.3314769,13.7294588 C15.3314769,13.8401012 15.2352531,13.9297945 15.1165549,13.9297945 C14.9978567,13.9297945 14.9016328,13.8401012 14.9016328,13.7294588 C14.9016328,13.6188165 14.9978567,13.5291232 15.1165549,13.5291232 Z M20.3033406,13.5291232 C20.4220388,13.5291232 20.5182626,13.6188165 20.5182626,13.7294588 C20.5182626,13.8401012 20.4220388,13.9297945 20.3033406,13.9297945 C20.1846424,13.9297945 20.0884185,13.8401012 20.0884185,13.7294588 C20.0884185,13.6188165 20.1846424,13.5291232 20.3033406,13.5291232 Z M10.015738,13.5291232 C10.1344362,13.5291232 10.2306601,13.6188165 10.2306601,13.7294588 C10.2306601,13.8401012 10.1344362,13.9297945 10.015738,13.9297945 C9.89703982,13.9297945 9.80081594,13.8401012 9.80081594,13.7294588 C9.80081594,13.6188165 9.89703982,13.5291232 10.015738,13.5291232 Z M7.40801701,13.5291232 C7.52671519,13.5291232 7.62293907,13.6188165 7.62293907,13.7294588 C7.62293907,13.8401012 7.52671519,13.9297945 7.40801701,13.9297945 C7.28931883,13.9297945 7.19309495,13.8401012 7.19309495,13.7294588 C7.19309495,13.6188165 7.28931883,13.5291232 7.40801701,13.5291232 Z M15.9762431,13.5291232 C16.0949413,13.5291232 16.1911652,13.6188165 16.1911652,13.7294588 C16.1911652,13.8401012 16.0949413,13.9297945 15.9762431,13.9297945 C15.8575449,13.9297945 15.7613211,13.8401012 15.7613211,13.7294588 C15.7613211,13.6188165 15.8575449,13.5291232 15.9762431,13.5291232 Z M8.28203339,13.5291232 C8.40073156,13.5291232 8.49695545,13.6188165 8.49695545,13.7294588 C8.49695545,13.8401012 8.40073156,13.9297945 8.28203339,13.9297945 C8.16333521,13.9297945 8.06711133,13.8401012 8.06711133,13.7294588 C8.06711133,13.6188165 8.16333521,13.5291232 8.28203339,13.5291232 Z M16.8359314,13.5291232 C16.9546295,13.5291232 17.0508534,13.6188165 17.0508534,13.7294588 C17.0508534,13.8401012 16.9546295,13.9297945 16.8359314,13.9297945 C16.7172332,13.9297945 16.6210093,13.8401012 16.6210093,13.7294588 C16.6210093,13.6188165 16.7172332,13.5291232 16.8359314,13.5291232 Z M17.6956196,13.5291232 C17.8143178,13.5291232 17.9105416,13.6188165 17.9105416,13.7294588 C17.9105416,13.8401012 17.8143178,13.9297945 17.6956196,13.9297945 C17.5769214,13.9297945 17.4806975,13.8401012 17.4806975,13.7294588 C17.4806975,13.6188165 17.5769214,13.5291232 17.6956196,13.5291232 Z M11.7494426,13.5291232 C11.8681408,13.5291232 11.9643647,13.6188165 11.9643647,13.7294588 C11.9643647,13.8401012 11.8681408,13.9297945 11.7494426,13.9297945 C11.6307444,13.9297945 11.5345206,13.8401012 11.5345206,13.7294588 C11.5345206,13.6188165 11.6307444,13.5291232 11.7494426,13.5291232 Z M9.15604976,13.5291232 C9.27474794,13.5291232 9.37097182,13.6188165 9.37097182,13.7294588 C9.37097182,13.8401012 9.27474794,13.9297945 9.15604976,13.9297945 C9.03735159,13.9297945 8.9411277,13.8401012 8.9411277,13.7294588 C8.9411277,13.6188165 9.03735159,13.5291232 9.15604976,13.5291232 Z M21.9367482,13.5291232 C22.0554464,13.5291232 22.1516703,13.6188165 22.1516703,13.7294588 C22.1516703,13.7825912 22.1290268,13.8335473 22.0887211,13.8711175 C22.0484154,13.9086878 21.9937491,13.9297945 21.9367482,13.9297945 C21.8180501,13.9297945 21.7218262,13.8401012 21.7218262,13.7294588 C21.7174952,13.6751892 21.7387439,13.6218536 21.780026,13.5833731 C21.8213082,13.5448927 21.8785273,13.5250861 21.9367482,13.5291232 Z M14.2425385,13.5291232 C14.3612367,13.5291232 14.4574606,13.6188165 14.4574606,13.7294588 C14.4574606,13.8401012 14.3612367,13.9297945 14.2425385,13.9297945 C14.1238403,13.9297945 14.0276164,13.8401012 14.0276164,13.7294588 C14.0276164,13.6188165 14.1238403,13.5291232 14.2425385,13.5291232 Z M10.8754262,13.5291232 C10.9941244,13.5291232 11.0903483,13.6188165 11.0903483,13.7294588 C11.0903483,13.8401012 10.9941244,13.9297945 10.8754262,13.9297945 C10.7567281,13.9297945 10.6605042,13.8401012 10.6605042,13.7294588 C10.6605042,13.6188165 10.7567281,13.5291232 10.8754262,13.5291232 Z M21.1630288,13.5291232 C21.2212498,13.5250861 21.2784688,13.5448927 21.319751,13.5833731 C21.3610332,13.6218536 21.3822819,13.6751892 21.3779509,13.7294588 C21.3779509,13.8401012 21.281727,13.9297945 21.1630288,13.9297945 C21.1060279,13.9297945 21.0513617,13.9086878 21.011056,13.8711175 C20.9707503,13.8335473 20.9481068,13.7825912 20.9481068,13.7294588 C20.9481068,13.6188165 21.0443306,13.5291232 21.1630288,13.5291232 Z M12.5088339,13.5291232 C12.6275321,13.5291232 12.7237559,13.6188165 12.7237559,13.7294588 C12.7237559,13.8401012 12.6275321,13.9297945 12.5088339,13.9297945 C12.3901357,13.9297945 12.2939118,13.8401012 12.2939118,13.7294588 C12.2939118,13.6188165 12.3901357,13.5291232 12.5088339,13.5291232 Z M13.4544909,13.5291232 C13.5731891,13.5291232 13.669413,13.6188165 13.669413,13.7294588 C13.669413,13.8401012 13.5731891,13.9297945 13.4544909,13.9297945 C13.3357928,13.9297945 13.2395689,13.8401012 13.2395689,13.7294588 C13.2395689,13.6188165 13.3357928,13.5291232 13.4544909,13.5291232 Z M16.8359314,12.7144249 C16.957152,12.714204 17.0576055,12.8019876 17.0651815,12.9147605 C17.0651815,13.032779 16.9625427,13.1284519 16.8359314,13.1284519 C16.7149475,13.12139 16.6207723,13.0277541 16.6210093,12.9147605 C16.6210093,12.8041182 16.7172332,12.7144249 16.8359314,12.7144249 Z M9.15604976,12.7144249 C9.27474794,12.7144249 9.37097182,12.8041182 9.37097182,12.9147605 C9.37494348,12.9701665 9.35406575,13.0246237 9.31332157,13.0651345 C9.27257739,13.1056454 9.21562225,13.1285754 9.15604976,13.1284519 C9.03506589,13.12139 8.94089072,13.0277541 8.9411277,12.9147605 C8.9411277,12.8041182 9.03735159,12.7144249 9.15604976,12.7144249 Z M10.8754262,12.7144249 C10.9324271,12.7144249 10.9870934,12.7355316 11.0273991,12.7731018 C11.0677048,12.810672 11.0903483,12.8616282 11.0903483,12.9147605 C11.09432,12.9701665 11.0734422,13.0246237 11.032698,13.0651345 C10.9919539,13.1056454 10.9349987,13.1285754 10.8754262,13.1284519 C10.7544424,13.12139 10.6602672,13.0277541 10.6605042,12.9147605 C10.6605042,12.8616282 10.6831477,12.810672 10.7234534,12.7731018 C10.7637591,12.7355316 10.8184254,12.7144249 10.8754262,12.7144249 Z M15.1165549,12.7144249 C15.2352531,12.7144249 15.3314769,12.8041182 15.3314769,12.9147605 C15.3317139,13.0277541 15.2375387,13.12139 15.1165549,13.1284519 C14.9899435,13.1284519 14.8873047,13.032779 14.8873047,12.9147605 C14.8948808,12.8019876 14.9953343,12.714204 15.1165549,12.7144249 Z M13.3828503,12.7144249 C13.5015484,12.7144249 13.5977723,12.8041182 13.5977723,12.9147605 C13.5977723,13.0254028 13.5015484,13.1150962 13.3828503,13.1150962 C13.2641521,13.1150962 13.1679282,13.0254028 13.1679282,12.9147605 C13.1679282,12.8041182 13.2641521,12.7144249 13.3828503,12.7144249 Z M12.5088339,12.7144249 C12.6275321,12.7144249 12.7237559,12.8041182 12.7237559,12.9147605 C12.7237559,13.0254028 12.6275321,13.1150962 12.5088339,13.1150962 C12.3901357,13.1150962 12.2939118,13.0254028 12.2939118,12.9147605 C12.2939118,12.8041182 12.3901357,12.7144249 12.5088339,12.7144249 Z M17.7529321,12.7144249 C17.8716303,12.7144249 17.9678542,12.8041182 17.9678542,12.9147605 C17.9721852,12.9690301 17.9509365,13.0223658 17.9096543,13.0608462 C17.8683721,13.0993267 17.8111531,13.1191332 17.7529321,13.1150962 C17.6959313,13.1150962 17.641265,13.0939894 17.6009593,13.0564192 C17.5606536,13.018849 17.5380101,12.9678928 17.5380101,12.9147605 C17.5380101,12.8041182 17.634234,12.7144249 17.7529321,12.7144249 Z M11.7494426,12.7144249 C11.8681408,12.7144249 11.9643647,12.8041182 11.9643647,12.9147605 C11.9643647,13.0254028 11.8681408,13.1150962 11.7494426,13.1150962 C11.6307444,13.1150962 11.5345206,13.0254028 11.5345206,12.9147605 C11.5345206,12.8041182 11.6307444,12.7144249 11.7494426,12.7144249 Z M14.2425385,12.7144249 C14.3612367,12.7144249 14.4574606,12.8041182 14.4574606,12.9147605 C14.4574606,13.0254028 14.3612367,13.1150962 14.2425385,13.1150962 C14.1238403,13.1150962 14.0276164,13.0254028 14.0276164,12.9147605 C14.0276164,12.8041182 14.1238403,12.7144249 14.2425385,12.7144249 Z M8.28203339,12.7144249 C8.40073156,12.7144249 8.49695545,12.8041182 8.49695545,12.9147605 C8.49695545,13.0254028 8.40073156,13.1150962 8.28203339,13.1150962 C8.16333521,13.1150962 8.06711133,13.0254028 8.06711133,12.9147605 C8.06711133,12.8041182 8.16333521,12.7144249 8.28203339,12.7144249 Z M18.569636,12.7144249 C18.6883341,12.7144249 18.784558,12.8041182 18.784558,12.9147605 C18.784558,13.0254028 18.6883341,13.1150962 18.569636,13.1150962 C18.511415,13.1191332 18.454196,13.0993267 18.4129138,13.0608462 C18.3716316,13.0223658 18.3503829,12.9690301 18.3547139,12.9147605 C18.3547139,12.8041182 18.4509378,12.7144249 18.569636,12.7144249 Z M21.1630288,12.7144249 C21.281727,12.7144249 21.3779509,12.8041182 21.3779509,12.9147605 C21.3822819,12.9690301 21.3610332,13.0223658 21.319751,13.0608462 C21.2784688,13.0993267 21.2212498,13.1191332 21.1630288,13.1150962 C21.1060279,13.1150962 21.0513617,13.0939894 21.011056,13.0564192 C20.9707503,13.018849 20.9481068,12.9678928 20.9481068,12.9147605 C20.9481068,12.8041182 21.0443306,12.7144249 21.1630288,12.7144249 Z M15.9762431,12.7144249 C16.0949413,12.7144249 16.1911652,12.8041182 16.1911652,12.9147605 C16.1911652,13.0254028 16.0949413,13.1150962 15.9762431,13.1150962 C15.8575449,13.1150962 15.7613211,13.0254028 15.7613211,12.9147605 C15.7613211,12.8041182 15.8575449,12.7144249 15.9762431,12.7144249 Z M7.40801701,12.7144249 C7.52671519,12.7144249 7.62293907,12.8041182 7.62293907,12.9147605 C7.62293907,13.0254028 7.52671519,13.1150962 7.40801701,13.1150962 C7.28931883,13.1150962 7.19309495,13.0254028 7.19309495,12.9147605 C7.19309495,12.8041182 7.28931883,12.7144249 7.40801701,12.7144249 Z M19.4293242,12.7144249 C19.5480224,12.7144249 19.6442463,12.8041182 19.6442463,12.9147605 C19.6485773,12.9690301 19.6273286,13.0223658 19.5860464,13.0608462 C19.5447642,13.0993267 19.4875452,13.1191332 19.4293242,13.1150962 C19.310626,13.1150962 19.2144021,13.0254028 19.2144021,12.9147605 C19.2144021,12.8041182 19.310626,12.7144249 19.4293242,12.7144249 Z M10.015738,12.7144249 C10.1344362,12.7144249 10.2306601,12.8041182 10.2306601,12.9147605 C10.2306601,13.0254028 10.1344362,13.1150962 10.015738,13.1150962 C9.89703982,13.1150962 9.80081594,13.0254028 9.80081594,12.9147605 C9.80081594,12.8041182 9.89703982,12.7144249 10.015738,12.7144249 Z M20.3033406,12.7144249 C20.4220388,12.7144249 20.5182626,12.8041182 20.5182626,12.9147605 C20.5182626,13.0254028 20.4220388,13.1150962 20.3033406,13.1150962 C20.2451196,13.1191332 20.1879006,13.0993267 20.1466184,13.0608462 C20.1053362,13.0223658 20.0840875,12.9690301 20.0884185,12.9147605 C20.0884185,12.8041182 20.1846424,12.7144249 20.3033406,12.7144249 Z M13.4544909,11.9798608 C13.5731891,11.9798608 13.669413,12.0695541 13.669413,12.1801965 C13.669413,12.2908388 13.5731891,12.3805321 13.4544909,12.3805321 C13.3357928,12.3805321 13.2395689,12.2908388 13.2395689,12.1801965 C13.2395689,12.0695541 13.3357928,11.9798608 13.4544909,11.9798608 Z M9.15604976,11.9798608 C9.27474794,11.9798608 9.37097182,12.0695541 9.37097182,12.1801965 C9.37097182,12.2908388 9.27474794,12.3805321 9.15604976,12.3805321 C9.03735159,12.3805321 8.9411277,12.2908388 8.9411277,12.1801965 C8.9411277,12.0695541 9.03735159,11.9798608 9.15604976,11.9798608 Z M14.2425385,11.9798608 C14.3612367,11.9798608 14.4574606,12.0695541 14.4574606,12.1801965 C14.4574606,12.2908388 14.3612367,12.3805321 14.2425385,12.3805321 C14.1238403,12.3805321 14.0276164,12.2908388 14.0276164,12.1801965 C14.0276164,12.0695541 14.1238403,11.9798608 14.2425385,11.9798608 Z M20.3033406,11.9798608 C20.4220388,11.9798608 20.5182626,12.0695541 20.5182626,12.1801965 C20.5182626,12.2908388 20.4220388,12.3805321 20.3033406,12.3805321 C20.1846424,12.3805321 20.0884185,12.2908388 20.0884185,12.1801965 C20.0840875,12.1259269 20.1053362,12.0725912 20.1466184,12.0341108 C20.1879006,11.9956303 20.2451196,11.9758237 20.3033406,11.9798608 Z M11.7494426,11.9798608 C11.8681408,11.9798608 11.9643647,12.0695541 11.9643647,12.1801965 C11.9643647,12.2908388 11.8681408,12.3805321 11.7494426,12.3805321 C11.6307444,12.3805321 11.5345206,12.2908388 11.5345206,12.1801965 C11.5345206,12.0695541 11.6307444,11.9798608 11.7494426,11.9798608 Z M16.8359314,11.9798608 C16.9546295,11.9798608 17.0508534,12.0695541 17.0508534,12.1801965 C17.0508534,12.2908388 16.9546295,12.3805321 16.8359314,12.3805321 C16.7172332,12.3805321 16.6210093,12.2908388 16.6210093,12.1801965 C16.6210093,12.0695541 16.7172332,11.9798608 16.8359314,11.9798608 Z M21.1630288,11.9798608 C21.2212498,11.9758237 21.2784688,11.9956303 21.319751,12.0341108 C21.3610332,12.0725912 21.3822819,12.1259269 21.3779509,12.1801965 C21.3779509,12.2908388 21.281727,12.3805321 21.1630288,12.3805321 C21.0443306,12.3805321 20.9481068,12.2908388 20.9481068,12.1801965 C20.9481068,12.0695541 21.0443306,11.9798608 21.1630288,11.9798608 Z M8.28203339,11.9798608 C8.40073156,11.9798608 8.49695545,12.0695541 8.49695545,12.1801965 C8.49695545,12.2908388 8.40073156,12.3805321 8.28203339,12.3805321 C8.16333521,12.3805321 8.06711133,12.2908388 8.06711133,12.1801965 C8.06711133,12.0695541 8.16333521,11.9798608 8.28203339,11.9798608 Z M15.1165549,11.9798608 C15.2352531,11.9798608 15.3314769,12.0695541 15.3314769,12.1801965 C15.3314769,12.2908388 15.2352531,12.3805321 15.1165549,12.3805321 C14.9978567,12.3805321 14.9016328,12.2908388 14.9016328,12.1801965 C14.9016328,12.0695541 14.9978567,11.9798608 15.1165549,11.9798608 Z M10.015738,11.9798608 C10.1344362,11.9798608 10.2306601,12.0695541 10.2306601,12.1801965 C10.2306601,12.2908388 10.1344362,12.3805321 10.015738,12.3805321 C9.89703982,12.3805321 9.80081594,12.2908388 9.80081594,12.1801965 C9.80081594,12.0695541 9.89703982,11.9798608 10.015738,11.9798608 Z M15.9762431,11.9798608 C16.0949413,11.9798608 16.1911652,12.0695541 16.1911652,12.1801965 C16.1911652,12.2908388 16.0949413,12.3805321 15.9762431,12.3805321 C15.8575449,12.3805321 15.7613211,12.2908388 15.7613211,12.1801965 C15.7613211,12.0695541 15.8575449,11.9798608 15.9762431,11.9798608 Z M7.40801701,11.9798608 C7.52671519,11.9798608 7.62293907,12.0695541 7.62293907,12.1801965 C7.62293907,12.2908388 7.52671519,12.3805321 7.40801701,12.3805321 C7.28931883,12.3805321 7.19309495,12.2908388 7.19309495,12.1801965 C7.19309495,12.0695541 7.28931883,11.9798608 7.40801701,11.9798608 Z M10.8754262,11.9798608 C10.9941244,11.9798608 11.0903483,12.0695541 11.0903483,12.1801965 C11.0903483,12.2908388 10.9941244,12.3805321 10.8754262,12.3805321 C10.7567281,12.3805321 10.6605042,12.2908388 10.6605042,12.1801965 C10.6605042,12.0695541 10.7567281,11.9798608 10.8754262,11.9798608 Z M18.569636,11.9798608 C18.6883341,11.9798608 18.784558,12.0695541 18.784558,12.1801965 C18.784558,12.2908388 18.6883341,12.3805321 18.569636,12.3805321 C18.4509378,12.3805321 18.3547139,12.2908388 18.3547139,12.1801965 C18.3503829,12.1259269 18.3716316,12.0725912 18.4129138,12.0341108 C18.454196,11.9956303 18.511415,11.9758237 18.569636,11.9798608 Z M12.5088339,11.9798608 C12.6275321,11.9798608 12.7237559,12.0695541 12.7237559,12.1801965 C12.7237559,12.2908388 12.6275321,12.3805321 12.5088339,12.3805321 C12.3901357,12.3805321 12.2939118,12.2908388 12.2939118,12.1801965 C12.2939118,12.0695541 12.3901357,11.9798608 12.5088339,11.9798608 Z M19.4293242,11.9798608 C19.4875452,11.9758237 19.5447642,11.9956303 19.5860464,12.0341108 C19.6273286,12.0725912 19.6485773,12.1259269 19.6442463,12.1801965 C19.6442463,12.2908388 19.5480224,12.3805321 19.4293242,12.3805321 C19.310626,12.3805321 19.2144021,12.2908388 19.2144021,12.1801965 C19.2144021,12.0695541 19.310626,11.9798608 19.4293242,11.9798608 Z M17.7529321,11.9798608 C17.8111531,11.9758237 17.8683721,11.9956303 17.9096543,12.0341108 C17.9509365,12.0725912 17.9721852,12.1259269 17.9678542,12.1801965 C17.9678542,12.2908388 17.8716303,12.3805321 17.7529321,12.3805321 C17.634234,12.3805321 17.5380101,12.2908388 17.5380101,12.1801965 C17.5380101,12.0695541 17.634234,11.9798608 17.7529321,11.9798608 Z M9.15604976,11.0983839 C9.21305064,11.0983839 9.2677169,11.1194907 9.30802261,11.1570609 C9.34832831,11.1946311 9.37097182,11.2455873 9.37097182,11.2987196 C9.36860952,11.3545364 9.3428935,11.4072719 9.29933113,11.4456324 C9.26033444,11.4889667 9.2023896,11.5135177 9.14172162,11.5124109 C9.02073775,11.5053491 8.92656259,11.4117132 8.92679956,11.2987196 C8.92561294,11.245917 8.95241057,11.1959592 8.99844025,11.1651625 C9.03743694,11.1218282 9.09538178,11.0972772 9.15604976,11.0983839 Z M16.8502595,11.0983839 C16.9072604,11.0983839 16.9619266,11.1194907 17.0022323,11.1570609 C17.042538,11.1946311 17.0651815,11.2455873 17.0651815,11.2987196 C17.0838085,11.3461515 17.0838085,11.3982005 17.0651815,11.4456324 C17.0261849,11.4889667 16.96824,11.5135177 16.907572,11.5124109 C16.7865882,11.5053491 16.692413,11.4117132 16.69265,11.2987196 C16.6718018,11.2563213 16.6718018,11.2075608 16.69265,11.1651625 C16.7316467,11.1218282 16.7895915,11.0972772 16.8502595,11.0983839 Z M10.015738,11.0983839 C10.1344362,11.0983839 10.2306601,11.1880773 10.2306601,11.2987196 C10.244664,11.3468206 10.244664,11.3975313 10.2306601,11.4456324 C10.1895066,11.4862383 10.1329313,11.510209 10.0730505,11.5124109 C9.95206667,11.5053491 9.85789151,11.4117132 9.85812849,11.2987196 C9.84173969,11.2555111 9.84173969,11.208371 9.85812849,11.1651625 C9.89928198,11.1245566 9.95585721,11.1005859 10.015738,11.0983839 Z M15.9762431,11.0983839 C16.0949413,11.0983839 16.1911652,11.1880773 16.1911652,11.2987196 C16.2111236,11.3459236 16.2111236,11.3984283 16.1911652,11.4456324 C16.1500117,11.4862383 16.0934365,11.510209 16.0335557,11.5124109 C15.9125718,11.5053491 15.8183966,11.4117132 15.8186336,11.2987196 C15.8022448,11.2555111 15.8022448,11.208371 15.8186336,11.1651625 C15.8597871,11.1245566 15.9163623,11.1005859 15.9762431,11.0983839 Z M14.2425385,11.0983839 C14.2995394,11.0983839 14.3542056,11.1194907 14.3945113,11.1570609 C14.4348171,11.1946311 14.4574606,11.2455873 14.4574606,11.2987196 C14.477419,11.3459236 14.477419,11.3984283 14.4574606,11.4456324 C14.4163071,11.4862383 14.3597318,11.510209 14.2998511,11.5124109 C14.1788672,11.5053491 14.084692,11.4117132 14.084929,11.2987196 C14.0685402,11.2555111 14.0685402,11.208371 14.084929,11.1651625 C14.1260825,11.1245566 14.1826577,11.1005859 14.2425385,11.0983839 Z M15.1165549,11.0983839 C15.1735558,11.0983839 15.228222,11.1194907 15.2685277,11.1570609 C15.3088334,11.1946311 15.3314769,11.2455873 15.3314769,11.2987196 C15.3291146,11.3545364 15.3033986,11.4072719 15.2598362,11.4456324 C15.2267973,11.4885381 15.173202,11.513517 15.1165549,11.5124109 C14.9899435,11.5124109 14.8873047,11.4167381 14.8873047,11.2987196 C14.8861181,11.245917 14.9129157,11.1959592 14.9589454,11.1651625 C14.9979421,11.1218282 15.0558869,11.0972772 15.1165549,11.0983839 Z M13.4544909,11.0983839 C13.5447768,11.1279774 13.6031916,11.2096529 13.5977723,11.2987196 C13.6163993,11.3461515 13.6163993,11.3982005 13.5977723,11.4456324 C13.5647333,11.4885381 13.5111381,11.513517 13.4544909,11.5124109 C13.3278796,11.5124109 13.2252408,11.4167381 13.2252408,11.2987196 C13.2240541,11.245917 13.2508518,11.1959592 13.2968814,11.1651625 C13.3380349,11.1245566 13.3946102,11.1005859 13.4544909,11.0983839 Z M10.8897544,11.0983839 C10.9467552,11.0983839 11.0014215,11.1194907 11.0417272,11.1570609 C11.0820329,11.1946311 11.1046764,11.2455873 11.1046764,11.2987196 C11.1233034,11.3461515 11.1233034,11.3982005 11.1046764,11.4456324 C11.0656797,11.4889667 11.0077349,11.5135177 10.9470669,11.5124109 C10.826083,11.5053491 10.7319079,11.4117132 10.7321449,11.2987196 C10.7112967,11.2563213 10.7112967,11.2075608 10.7321449,11.1651625 C10.7711416,11.1218282 10.8290864,11.0972772 10.8897544,11.0983839 Z M8.28203339,11.0983839 C8.40073156,11.0983839 8.49695545,11.1880773 8.49695545,11.2987196 C8.51095942,11.3468206 8.51095942,11.3975313 8.49695545,11.4456324 C8.45580196,11.4862383 8.39922673,11.510209 8.33934593,11.5124109 C8.21836206,11.5053491 8.1241869,11.4117132 8.12442388,11.2987196 C8.10803508,11.2555111 8.10803508,11.208371 8.12442388,11.1651625 C8.16557736,11.1245566 8.2221526,11.1005859 8.28203339,11.0983839 Z M17.986067,11.1370997 C18.0484557,11.1923465 18.069477,11.2769553 18.0394949,11.3521424 C18.0371326,11.4079592 18.0114166,11.4606948 17.9678542,11.4990552 C17.9175181,11.5190996 17.8605808,11.5190996 17.8102447,11.4990552 C17.6915465,11.4990552 17.5953226,11.4093619 17.5953226,11.2987196 C17.5744745,11.2563213 17.5744745,11.2075608 17.5953226,11.1651625 C17.6343193,11.1218282 17.6922642,11.0972772 17.7529321,11.0983839 C17.8319511,11.0666202 17.9236783,11.0818529 17.986067,11.1370997 Z M11.7494426,11.0983839 C11.8064435,11.0983839 11.8611098,11.1194907 11.9014155,11.1570609 C11.9417212,11.1946311 11.9643647,11.2455873 11.9643647,11.2987196 C11.9783686,11.3468206 11.9783686,11.3975313 11.9643647,11.4456324 C11.9232112,11.4862383 11.866636,11.510209 11.8067552,11.5124109 C11.7471827,11.5125345 11.6902275,11.4896045 11.6494834,11.4490936 C11.6087392,11.4085827 11.5878614,11.3541256 11.5918331,11.2987196 C11.5709849,11.2563213 11.5709849,11.2075608 11.5918331,11.1651625 C11.6329866,11.1245566 11.6895618,11.1005859 11.7494426,11.0983839 Z M12.5088339,11.0983839 C12.6048104,11.1230721 12.6700309,11.2059731 12.6664434,11.2987196 C12.6864018,11.3459236 12.6864018,11.3984283 12.6664434,11.4456324 C12.6252899,11.4862383 12.5687147,11.510209 12.5088339,11.5124109 C12.38785,11.5053491 12.2936749,11.4117132 12.2939118,11.2987196 C12.3112433,11.1955051 12.3981044,11.1145391 12.5088339,11.0983839 Z M7.42234515,11.0983839 C7.47934602,11.0983839 7.53401229,11.1194907 7.57431799,11.1570609 C7.6146237,11.1946311 7.63726721,11.2455873 7.63726721,11.2987196 C7.65589418,11.3461515 7.65589418,11.3982005 7.63726721,11.4456324 C7.59827051,11.4889667 7.54032568,11.5135177 7.4796577,11.5124109 C7.35867382,11.5053491 7.26449866,11.4117132 7.26473564,11.2987196 C7.24388747,11.2563213 7.24388747,11.2075608 7.26473564,11.1651625 C7.30373233,11.1218282 7.36167717,11.0972772 7.42234515,11.0983839 Z M19.4436523,11.0983839 C19.4991675,11.1137526 19.5456796,11.1493541 19.5726518,11.1971232 C19.599624,11.2448923 19.6047735,11.3007862 19.5869337,11.3521424 C19.6055607,11.3995744 19.6055607,11.4516233 19.5869337,11.4990552 C19.5365976,11.5190996 19.4796603,11.5190996 19.4293242,11.4990552 C19.310626,11.4990552 19.2144021,11.4093619 19.2144021,11.2987196 C19.2132155,11.245917 19.2400131,11.1959592 19.2860428,11.1651625 C19.3236154,11.1201143 19.3825355,11.09515 19.4436523,11.0983839 Z M18.569636,11.0983839 C18.6381179,11.0960592 18.703684,11.1243145 18.7461466,11.17445 C18.7886092,11.2245856 18.8028774,11.2905907 18.784558,11.3521424 C18.798562,11.4002435 18.798562,11.4509542 18.784558,11.4990552 C18.7339171,11.5176591 18.6775895,11.5176591 18.6269485,11.4990552 C18.5687276,11.5030923 18.5115085,11.4832857 18.4702263,11.4448053 C18.4289441,11.4063249 18.4076955,11.3529892 18.4120265,11.2987196 C18.3911783,11.2563213 18.3911783,11.2075608 18.4120265,11.1651625 C18.4531799,11.1245566 18.5097552,11.1005859 18.569636,11.0983839 Z M20.3033406,11.0983839 C20.3718225,11.0960592 20.4373887,11.1243145 20.4798512,11.17445 C20.5223138,11.2245856 20.536582,11.2905907 20.5182626,11.3521424 C20.5322666,11.4002435 20.5322666,11.4509542 20.5182626,11.4990552 C20.4676217,11.5176591 20.4112941,11.5176591 20.3606531,11.4990552 C20.3024322,11.5030923 20.2452131,11.4832857 20.2039309,11.4448053 C20.1626488,11.4063249 20.1414001,11.3529892 20.1457311,11.2987196 C20.1248829,11.2563213 20.1248829,11.2075608 20.1457311,11.1651625 C20.1868846,11.1245566 20.2434598,11.1005859 20.3033406,11.0983839 Z M12.5088339,10.2970413 C12.5670549,10.2930043 12.6242739,10.3128108 12.6655561,10.3512913 C12.7068383,10.3897717 12.7280869,10.4431074 12.7237559,10.497377 C12.7237559,10.6080193 12.6275321,10.6977126 12.5088339,10.6977126 C12.3901357,10.6977126 12.2939118,10.6080193 12.2939118,10.497377 C12.2939118,10.3867346 12.3901357,10.2970413 12.5088339,10.2970413 Z M14.2425385,10.2970413 C14.3007595,10.2930043 14.3579785,10.3128108 14.3992607,10.3512913 C14.4405429,10.3897717 14.4617916,10.4431074 14.4574606,10.497377 C14.4574606,10.6080193 14.3612367,10.6977126 14.2425385,10.6977126 C14.1238403,10.6977126 14.0276164,10.6080193 14.0276164,10.497377 C14.0276164,10.3867346 14.1238403,10.2970413 14.2425385,10.2970413 Z M18.569636,10.2836856 C18.6906198,10.2907475 18.784795,10.3843834 18.784558,10.497377 C18.784558,10.6080193 18.6883341,10.6977126 18.569636,10.6977126 C18.4509378,10.6977126 18.3547139,10.6080193 18.3547139,10.497377 C18.3544769,10.3843834 18.4486521,10.2907475 18.569636,10.2836856 Z M16.8502595,10.2970413 C16.9689577,10.2970413 17.0651815,10.3867346 17.0651815,10.497377 C17.0651815,10.6080193 16.9689577,10.6977126 16.8502595,10.6977126 C16.7315613,10.6977126 16.6353374,10.6080193 16.6353374,10.497377 C16.6310064,10.4431074 16.6522551,10.3897717 16.6935373,10.3512913 C16.7348195,10.3128108 16.7920385,10.2930043 16.8502595,10.2970413 Z M13.3828503,10.2970413 C13.5015484,10.2970413 13.5977723,10.3867346 13.5977723,10.497377 C13.5977723,10.6080193 13.5015484,10.6977126 13.3828503,10.6977126 C13.2641521,10.6977126 13.1679282,10.6080193 13.1679282,10.497377 C13.1679282,10.3867346 13.2641521,10.2970413 13.3828503,10.2970413 Z M8.28203339,10.2970413 C8.40073156,10.2970413 8.49695545,10.3867346 8.49695545,10.497377 C8.49695545,10.6080193 8.40073156,10.6977126 8.28203339,10.6977126 C8.16333521,10.6977126 8.06711133,10.6080193 8.06711133,10.497377 C8.06711133,10.3867346 8.16333521,10.2970413 8.28203339,10.2970413 Z M15.1165549,10.2970413 C15.2352531,10.2970413 15.3314769,10.3867346 15.3314769,10.497377 C15.3314769,10.6080193 15.2352531,10.6977126 15.1165549,10.6977126 C14.9978567,10.6977126 14.9016328,10.6080193 14.9016328,10.497377 C14.8973018,10.4431074 14.9185505,10.3897717 14.9598327,10.3512913 C15.0011149,10.3128108 15.0583339,10.2930043 15.1165549,10.2970413 Z M11.7494426,10.2970413 C11.8681408,10.2970413 11.9643647,10.3867346 11.9643647,10.497377 C11.9643647,10.6080193 11.8681408,10.6977126 11.7494426,10.6977126 C11.6307444,10.6977126 11.5345206,10.6080193 11.5345206,10.497377 C11.5345206,10.3867346 11.6307444,10.2970413 11.7494426,10.2970413 Z M10.015738,10.2970413 C10.1344362,10.2970413 10.2306601,10.3867346 10.2306601,10.497377 C10.2306601,10.6080193 10.1344362,10.6977126 10.015738,10.6977126 C9.89703982,10.6977126 9.80081594,10.6080193 9.80081594,10.497377 C9.80081594,10.3867346 9.89703982,10.2970413 10.015738,10.2970413 Z M15.9762431,10.2970413 C16.0949413,10.2970413 16.1911652,10.3867346 16.1911652,10.497377 C16.1911652,10.6080193 16.0949413,10.6977126 15.9762431,10.6977126 C15.8575449,10.6977126 15.7613211,10.6080193 15.7613211,10.497377 C15.7613211,10.3867346 15.8575449,10.2970413 15.9762431,10.2970413 Z M10.8897544,10.2970413 C11.0084525,10.2970413 11.1046764,10.3867346 11.1046764,10.497377 C11.1046764,10.6080193 11.0084525,10.6977126 10.8897544,10.6977126 C10.7710562,10.6977126 10.6748323,10.6080193 10.6748323,10.497377 C10.6748323,10.3867346 10.7710562,10.2970413 10.8897544,10.2970413 Z M17.7099477,10.2970413 C17.8286459,10.2970413 17.9248698,10.3867346 17.9248698,10.497377 C17.9248698,10.6080193 17.8286459,10.6977126 17.7099477,10.6977126 C17.5912496,10.6977126 17.4950257,10.6080193 17.4950257,10.497377 C17.4950257,10.3867346 17.5912496,10.2970413 17.7099477,10.2970413 Z M9.15604976,10.2970413 C9.25554905,10.2936973 9.34448609,10.3544914 9.37097182,10.4439541 C9.37097182,10.4970865 9.34832831,10.5480426 9.30802261,10.5856128 C9.2677169,10.6231831 9.21305064,10.6442898 9.15604976,10.6442898 C9.05284567,10.6490746 8.95896313,10.5889109 8.92679956,10.497377 C8.92666702,10.4418476 8.9512666,10.3887579 8.99472706,10.3507789 C9.03818751,10.3128 9.09660966,10.2933392 9.15604976,10.2970413 Z M10.015738,9.482343 C10.1344362,9.482343 10.2306601,9.57203632 10.2306601,9.68267865 C10.2306601,9.79332098 10.1344362,9.8830143 10.015738,9.8830143 C9.89703982,9.8830143 9.80081594,9.79332098 9.80081594,9.68267865 C9.80081594,9.57203632 9.89703982,9.482343 10.015738,9.482343 Z M10.8897544,9.482343 C11.0084525,9.482343 11.1046764,9.57203632 11.1046764,9.68267865 C11.1046764,9.79332098 11.0084525,9.8830143 10.8897544,9.8830143 C10.7710562,9.8830143 10.6748323,9.79332098 10.6748323,9.68267865 C10.6748323,9.57203632 10.7710562,9.482343 10.8897544,9.482343 Z M12.5088339,9.482343 C12.6275321,9.482343 12.7237559,9.57203632 12.7237559,9.68267865 C12.7280869,9.73694825 12.7068383,9.79028392 12.6655561,9.82876436 C12.6242739,9.86724479 12.5670549,9.88705136 12.5088339,9.8830143 C12.3901357,9.8830143 12.2939118,9.79332098 12.2939118,9.68267865 C12.2939118,9.57203632 12.3901357,9.482343 12.5088339,9.482343 Z M13.3828503,9.482343 C13.5015484,9.482343 13.5977723,9.57203632 13.5977723,9.68267865 C13.5977723,9.79332098 13.5015484,9.8830143 13.3828503,9.8830143 C13.2641521,9.8830143 13.1679282,9.79332098 13.1679282,9.68267865 C13.1679282,9.57203632 13.2641521,9.482343 13.3828503,9.482343 Z M11.7494426,9.482343 C11.8681408,9.482343 11.9643647,9.57203632 11.9643647,9.68267865 C11.9643647,9.79332098 11.8681408,9.8830143 11.7494426,9.8830143 C11.6307444,9.8830143 11.5345206,9.79332098 11.5345206,9.68267865 C11.5345206,9.57203632 11.6307444,9.482343 11.7494426,9.482343 Z M9.15604976,9.482343 C9.27474794,9.482343 9.37097182,9.57203632 9.37097182,9.68267865 C9.37097182,9.79332098 9.27474794,9.8830143 9.15604976,9.8830143 C9.09660966,9.88671641 9.03818751,9.86725562 8.99472706,9.82927668 C8.9512666,9.79129775 8.92666702,9.73820805 8.92679956,9.68267865 C8.93437564,9.56990575 9.03482914,9.4821221 9.15604976,9.482343 Z M10.8897544,8.68100038 C11.0084525,8.68100038 11.1046764,8.77069371 11.1046764,8.88133604 C11.1046764,8.99197836 11.0084525,9.08167169 10.8897544,9.08167169 C10.7710562,9.08167169 10.6748323,8.99197836 10.6748323,8.88133604 C10.6748323,8.77069371 10.7710562,8.68100038 10.8897544,8.68100038 Z M12.5088339,8.68100038 C12.5670549,8.67696332 12.6242739,8.6967699 12.6655561,8.73525033 C12.7068383,8.77373076 12.7280869,8.82706644 12.7237559,8.88133604 C12.7237559,8.99197836 12.6275321,9.08167169 12.5088339,9.08167169 C12.3901357,9.08167169 12.2939118,8.99197836 12.2939118,8.88133604 C12.2939118,8.77069371 12.3901357,8.68100038 12.5088339,8.68100038 Z M13.3828503,8.68100038 C13.5015484,8.68100038 13.5977723,8.77069371 13.5977723,8.88133604 C13.5977723,8.99197836 13.5015484,9.08167169 13.3828503,9.08167169 C13.2641521,9.08167169 13.1679282,8.99197836 13.1679282,8.88133604 C13.1679282,8.77069371 13.2641521,8.68100038 13.3828503,8.68100038 Z M11.7494426,8.68100038 C11.8681408,8.68100038 11.9643647,8.77069371 11.9643647,8.88133604 C11.9643647,8.99197836 11.8681408,9.08167169 11.7494426,9.08167169 C11.6307444,9.08167169 11.5345206,8.99197836 11.5345206,8.88133604 C11.5345206,8.77069371 11.6307444,8.68100038 11.7494426,8.68100038 Z M9.15604976,8.68100038 C9.21305064,8.68100038 9.2677169,8.70210712 9.30802261,8.73967734 C9.34832831,8.77724756 9.37097182,8.82820372 9.37097182,8.88133604 C9.37097182,8.99197836 9.27474794,9.08167169 9.15604976,9.08167169 C9.03482914,9.08189258 8.93437564,8.99410893 8.92679956,8.88133604 C8.92666702,8.82580663 8.9512666,8.77271694 8.99472706,8.73473801 C9.03818751,8.69675907 9.09660966,8.67729828 9.15604976,8.68100038 Z M10.015738,8.68100038 C10.1344362,8.68100038 10.2306601,8.77069371 10.2306601,8.88133604 C10.2306601,8.99197836 10.1344362,9.08167169 10.015738,9.08167169 C9.89703982,9.08167169 9.80081594,8.99197836 9.80081594,8.88133604 C9.80081594,8.77069371 9.89703982,8.68100038 10.015738,8.68100038 Z M13.4544909,7.86630206 C13.5731891,7.86630206 13.669413,7.95599539 13.669413,8.06663771 C13.669413,8.17728004 13.5731891,8.26697337 13.4544909,8.26697337 C13.39627,8.27101043 13.339051,8.25120385 13.2977688,8.21272342 C13.2564866,8.17424299 13.2352379,8.12090732 13.2395689,8.06663771 C13.2395689,7.95599539 13.3357928,7.86630206 13.4544909,7.86630206 Z M11.7494426,7.86630206 C11.8064435,7.86630206 11.8611098,7.88740879 11.9014155,7.92497902 C11.9417212,7.96254924 11.9643647,8.0135054 11.9643647,8.06663771 C11.9643647,8.17728004 11.8681408,8.26697337 11.7494426,8.26697337 C11.6307444,8.26697337 11.5345206,8.17728004 11.5345206,8.06663771 C11.5345206,7.95599539 11.6307444,7.86630206 11.7494426,7.86630206 Z M10.8897544,7.86630206 C11.0084525,7.86630206 11.1046764,7.95599539 11.1046764,8.06663771 C11.1046764,8.17728004 11.0084525,8.26697337 10.8897544,8.26697337 C10.8303143,8.27067547 10.7718921,8.25121468 10.7284317,8.21323575 C10.6849712,8.17525681 10.6603716,8.12216712 10.6605042,8.06663771 C10.6680802,7.95386482 10.7685338,7.86608117 10.8897544,7.86630206 Z M12.5088339,7.86630206 C12.6275321,7.86630206 12.7237559,7.95599539 12.7237559,8.06663771 C12.7280869,8.12090732 12.7068383,8.17424299 12.6655561,8.21272342 C12.6242739,8.25120385 12.5670549,8.27101043 12.5088339,8.26697337 C12.3901357,8.26697337 12.2939118,8.17728004 12.2939118,8.06663771 C12.2939118,7.95599539 12.3901357,7.86630206 12.5088339,7.86630206 Z M10.015738,7.86630206 C10.0727389,7.86630206 10.1274051,7.88740879 10.1677108,7.92497902 C10.2080165,7.96254924 10.2306601,8.0135054 10.2306601,8.06663771 C10.2306601,8.17728004 10.1344362,8.26697337 10.015738,8.26697337 C9.89703982,8.26697337 9.80081594,8.17728004 9.80081594,8.06663771 C9.80081594,7.95599539 9.89703982,7.86630206 10.015738,7.86630206 Z M11.7494426,7.06495945 C11.8681408,7.06495945 11.9643647,7.15465278 11.9643647,7.2652951 C11.9643647,7.37593743 11.8681408,7.46563075 11.7494426,7.46563075 C11.6307444,7.46563075 11.5345206,7.37593743 11.5345206,7.2652951 C11.5345206,7.15465278 11.6307444,7.06495945 11.7494426,7.06495945 Z M10.8897544,7.06495945 C11.0084525,7.06495945 11.1046764,7.15465278 11.1046764,7.2652951 C11.1046764,7.37593743 11.0084525,7.46563075 10.8897544,7.46563075 C10.7710562,7.46563075 10.6748323,7.37593743 10.6748323,7.2652951 C10.6748323,7.15465278 10.7710562,7.06495945 10.8897544,7.06495945 Z M12.5088339,7.06495945 C12.5670549,7.06092239 12.6242739,7.08072896 12.6655561,7.1192094 C12.7068383,7.15768983 12.7280869,7.2110255 12.7237559,7.2652951 C12.7237559,7.37593743 12.6275321,7.46563075 12.5088339,7.46563075 C12.3901357,7.46563075 12.2939118,7.37593743 12.2939118,7.2652951 C12.2939118,7.21216278 12.3165553,7.16120663 12.356861,7.1236364 C12.3971667,7.08606618 12.451833,7.06495945 12.5088339,7.06495945 Z M13.3828503,7.06495945 C13.5015484,7.06495945 13.5977723,7.15465278 13.5977723,7.2652951 C13.5977723,7.37593743 13.5015484,7.46563075 13.3828503,7.46563075 C13.2641521,7.46563075 13.1679282,7.37593743 13.1679282,7.2652951 C13.1679282,7.15465278 13.2641521,7.06495945 13.3828503,7.06495945 Z M11.6634738,6.25026113 C11.782172,6.25026113 11.8783958,6.33995445 11.8783958,6.45059678 C11.8783958,6.5612391 11.782172,6.65093243 11.6634738,6.65093243 C11.5447756,6.65093243 11.4485517,6.5612391 11.4485517,6.45059678 C11.4485517,6.33995445 11.5447756,6.25026113 11.6634738,6.25026113 Z M13.3828503,6.25026113 C13.5015484,6.25026113 13.5977723,6.33995445 13.5977723,6.45059678 C13.5977723,6.5612391 13.5015484,6.65093243 13.3828503,6.65093243 C13.2641521,6.65093243 13.1679282,6.5612391 13.1679282,6.45059678 C13.1679282,6.33995445 13.2641521,6.25026113 13.3828503,6.25026113 Z M12.5088339,6.25026113 C12.6275321,6.25026113 12.7237559,6.33995445 12.7237559,6.45059678 C12.7280869,6.50486638 12.7068383,6.55820205 12.6655561,6.59668248 C12.6242739,6.63516292 12.5670549,6.65496949 12.5088339,6.65093243 C12.3901357,6.65093243 12.2939118,6.5612391 12.2939118,6.45059678 C12.2939118,6.33995445 12.3901357,6.25026113 12.5088339,6.25026113 Z M12.5088339,5.44891851 C12.6275321,5.44891851 12.7237559,5.53861184 12.7237559,5.64925417 C12.7237559,5.75989649 12.6275321,5.84958982 12.5088339,5.84958982 C12.3901357,5.84958982 12.2939118,5.75989649 12.2939118,5.64925417 C12.2939118,5.53861184 12.3901357,5.44891851 12.5088339,5.44891851 Z M11.6634738,5.4355628 C11.782172,5.4355628 11.8783958,5.52525613 11.8783958,5.63589846 C11.8786328,5.74889203 11.7844577,5.84252792 11.6634738,5.84958982 C11.6039013,5.84971336 11.5469462,5.82678332 11.506202,5.78627245 C11.4654578,5.74576159 11.4445801,5.69130445 11.4485517,5.63589846 C11.4485517,5.52525613 11.5447756,5.4355628 11.6634738,5.4355628 Z M13.4544909,5.44891851 C13.5731891,5.44891851 13.669413,5.53861184 13.669413,5.64925417 C13.669413,5.75989649 13.5731891,5.84958982 13.4544909,5.84958982 C13.3357928,5.84958982 13.2395689,5.75989649 13.2395689,5.64925417 C13.2395689,5.53861184 13.3357928,5.44891851 13.4544909,5.44891851 Z M12.5088339,4.63422019 C12.6275321,4.63422019 12.7237559,4.72391352 12.7237559,4.83455584 C12.7277276,4.88996184 12.7068499,4.94441898 12.6661057,4.98492984 C12.6253615,5.02544071 12.5684064,5.04837075 12.5088339,5.04824721 C12.38785,5.04118531 12.2936749,4.94754942 12.2939118,4.83455584 C12.2939118,4.72391352 12.3901357,4.63422019 12.5088339,4.63422019 Z M13.4544909,4.63422019 C13.5731891,4.63422019 13.669413,4.72391352 13.669413,4.83455584 C13.66965,4.94754942 13.5754748,5.04118531 13.4544909,5.04824721 C13.3949185,5.04837075 13.3379633,5.02544071 13.2972191,4.98492984 C13.256475,4.94441898 13.2355972,4.88996184 13.2395689,4.83455584 C13.2395689,4.72391352 13.3357928,4.63422019 13.4544909,4.63422019 Z M11.6634738,4.63422019 C11.782172,4.63422019 11.8783958,4.72391352 11.8783958,4.83455584 C11.8783958,4.94519817 11.782172,5.0348915 11.6634738,5.0348915 C11.5447756,5.0348915 11.4485517,4.94519817 11.4485517,4.83455584 C11.4485517,4.72391352 11.5447756,4.63422019 11.6634738,4.63422019 Z M11.6634738,3.76609903 C11.782172,3.76609903 11.8783958,3.85579235 11.8783958,3.96643468 C11.8958514,4.0293257 11.8816682,4.09620321 11.8398532,4.14817257 C11.7980383,4.20014193 11.7331326,4.23155946 11.6634738,4.23354888 C11.5915578,4.23742888 11.522339,4.20746723 11.4791172,4.15374935 C11.4358954,4.10003147 11.4244193,4.02970203 11.4485517,3.96643468 C11.4485517,3.85579235 11.5447756,3.76609903 11.6634738,3.76609903 Z M12.5088339,3.83287758 C12.6275321,3.83287758 12.7237559,3.9225709 12.7237559,4.03321323 C12.7237559,4.14385556 12.6275321,4.23354888 12.5088339,4.23354888 C12.3901357,4.23354888 12.2939118,4.14385556 12.2939118,4.03321323 C12.2939118,3.9225709 12.3901357,3.83287758 12.5088339,3.83287758 Z M13.3828503,3.83287758 C13.5015484,3.83287758 13.5977723,3.9225709 13.5977723,4.03321323 C13.5977723,4.14385556 13.5015484,4.23354888 13.3828503,4.23354888 C13.2641521,4.23354888 13.1679282,4.14385556 13.1679282,4.03321323 C13.1679282,3.9225709 13.2641521,3.83287758 13.3828503,3.83287758 Z M12.5088339,3.01817925 C12.5658348,3.01817925 12.620501,3.03928598 12.6608067,3.07685621 C12.7011124,3.11442643 12.7237559,3.16538259 12.7237559,3.21851491 C12.7277276,3.2739209 12.7068499,3.32837804 12.6661057,3.36888891 C12.6253615,3.40939977 12.5684064,3.43232982 12.5088339,3.43220627 C12.38785,3.42514437 12.2936749,3.33150848 12.2939118,3.21851491 C12.2939118,3.16538259 12.3165553,3.11442643 12.356861,3.07685621 C12.3971667,3.03928598 12.451833,3.01817925 12.5088339,3.01817925 Z M13.4544909,3.01817925 C13.5114918,3.01817925 13.5661581,3.03928598 13.6064638,3.07685621 C13.6467695,3.11442643 13.669413,3.16538259 13.669413,3.21851491 C13.66965,3.33150848 13.5754748,3.42514437 13.4544909,3.43220627 C13.3949185,3.43232982 13.3379633,3.40939977 13.2972191,3.36888891 C13.256475,3.32837804 13.2355972,3.2739209 13.2395689,3.21851491 C13.2395689,3.16538259 13.2622124,3.11442643 13.3025181,3.07685621 C13.3428238,3.03928598 13.3974901,3.01817925 13.4544909,3.01817925 Z M11.6634738,3.01817925 C11.782172,3.01817925 11.8783958,3.10787258 11.8783958,3.21851491 C11.8783958,3.32915723 11.782172,3.41885056 11.6634738,3.41885056 C11.5447756,3.41885056 11.4485517,3.32915723 11.4485517,3.21851491 C11.4485517,3.10787258 11.5447756,3.01817925 11.6634738,3.01817925 Z M12.5088339,2.25690377 C12.6275321,2.25690377 12.7237559,2.3465971 12.7237559,2.45723942 C12.7280869,2.51150903 12.7068383,2.5648447 12.6655561,2.60332513 C12.6242739,2.64180556 12.5670549,2.66161214 12.5088339,2.65757508 C12.3901357,2.65757508 12.2939118,2.56788175 12.2939118,2.45723942 C12.2939118,2.3465971 12.3901357,2.25690377 12.5088339,2.25690377 Z M11.6634738,2.23019235 C11.782172,2.23019235 11.8783958,2.31988568 11.8783958,2.430528 C11.8783958,2.54117033 11.782172,2.63086366 11.6634738,2.63086366 C11.5447756,2.63086366 11.4485517,2.54117033 11.4485517,2.430528 C11.4442207,2.3762584 11.4654694,2.32292273 11.5067516,2.2844423 C11.5480338,2.24596187 11.6052528,2.22615529 11.6634738,2.23019235 Z M11.6634738,1.44220545 C11.782172,1.44220545 11.8783958,1.53189878 11.8783958,1.6425411 C11.8783958,1.75318343 11.782172,1.84287675 11.6634738,1.84287675 C11.6052528,1.84691381 11.5480338,1.82710724 11.5067516,1.78862681 C11.4654694,1.75014637 11.4442207,1.6968107 11.4485517,1.6425411 C11.4485517,1.53189878 11.5447756,1.44220545 11.6634738,1.44220545 Z" id="path-1"></path>
    </defs>
    <g id="--dashboard" stroke="none" stroke-width="1" fill="none" fill-rule="evenodd">
        <g id="onboarding_vs_time_monthly-a" transform="translate(-184.000000, -1229.000000)">
            <g id="Group-20" transform="translate(160.000000, 1143.000000)">
                <g id="expired-/-to-be-expired" transform="translate(0.000000, 44.000000)">
                    <g id="going-to-be-expired-(-this-week-)" transform="translate(24.000000, 34.000000)">
                        <g id="warning" transform="translate(0.000000, 8.000000)">
                            <circle id="Oval" fill="#E5EEF7" cx="28" cy="28" r="28"></circle>
                            <g id="icon-/-24-/-info-/-verify" transform="translate(16.000000, 16.000000)">
                                <mask id="mask-2" fill="white">
                                    <use xlink:href="#path-1"></use>
                                </mask>
                                <use id="Combined-Shape" fill="#1B2B4C" fill-rule="nonzero" xlink:href="#path-1"></use>
                                <rect id="Rectangle" fill="#0059B2" mask="url(#mask-2)" x="-6" y="-6" width="36" height="36"></rect>
                            </g>
                        </g>
                    </g>
                </g>
            </g>
        </g>
    </g>
</svg>