<?xml version="1.0" encoding="UTF-8"?>
<svg width="16px" height="16px" viewBox="0 0 16 16" version="1.1" xmlns="http://www.w3.org/2000/svg" xmlns:xlink="http://www.w3.org/1999/xlink">
    <!-- Generator: Sketch 56.2 (81672) - https://sketch.com -->
    <title>icon / 16 / info / all-client</title>
    <desc>Created with Sketch.</desc>
    <defs>
        <path d="M15.7037038,9.06527055 L15.7925585,9.22520903 C16.3612287,10.5935717 15.7214748,12.1396437 14.3531121,12.7083139 L14.2109446,12.7616267 C13.5534197,13.0281908 13.0380624,13.5435482 12.7714982,14.2010731 L12.7004144,14.3432406 C12.1317443,15.6938323 10.5679013,16.3513572 9.2173096,15.782687 L9.05737111,15.7116033 C8.39984622,15.4450391 7.67123755,15.4450391 7.01371266,15.7116033 L6.81823229,15.800458 C5.46764061,16.3513572 3.90379762,15.7116033 3.35289839,14.3432406 L3.26404367,14.1477603 C2.99747953,13.4902354 2.48212218,12.974878 1.82459729,12.7083139 L1.64688786,12.6372301 C0.278525241,12.0863309 -0.36122871,10.5224879 0.207441468,9.17189621 L0.278525241,8.97641583 C0.545089387,8.33666188 0.545089387,7.60805322 0.278525241,6.95052832 L0.207441468,6.79058984 C-0.36122871,5.43999816 0.296296184,3.87615517 1.62911691,3.307485 L1.7890554,3.23640122 C2.44658029,2.96983708 2.96193764,2.45447973 3.22850179,1.79695484 L3.29958556,1.65478729 C3.86825574,0.304195619 5.43209873,-0.353329275 6.76491946,0.19756996 L6.92485794,0.268653733 C7.58238284,0.535217878 8.3109915,0.535217878 8.9685164,0.268653733 L9.14622583,0.19756996 C10.5145884,-0.353329275 12.0606605,0.286424676 12.6471016,1.63701635 L12.7181854,1.81472578 C12.9847495,2.47225067 13.5001069,2.98760802 14.1576318,3.25417217 L14.3531121,3.34302688 C15.7037038,3.91169706 16.3612287,5.47554005 15.7925585,6.82613172 L15.7037038,7.03938304 C15.4371397,7.67913699 15.4371397,8.40774565 15.7037038,9.06527055 Z M6.8,8.53333333 L4.8,7.33333333 L4,8.13333333 L6.8,11.3333333 L12,6.13333333 L11.2,5.33333333 L6.8,8.53333333 Z" id="path-1"></path>
    </defs>
    <g id="👽-GBV-Client" stroke="none" stroke-width="1" fill="none" fill-rule="evenodd">
        <g id="BGV-Client-zomato-dashboard_4A_greencase" transform="translate(-536.000000, -418.000000)">
            <g id="Group-3" transform="translate(160.000000, 418.000000)">
                <g id="nav">
                    <g id="insights-copy-3" transform="translate(376.000000, 0.000000)">
                        <g id="icon-/-12-/-info-/-verified-/-green">
                            <mask id="mask-2" fill="white">
                                <use xlink:href="#path-1"></use>
                            </mask>
                            <path d="M15.7037038,9.06527055 L15.7925585,9.22520903 C16.3612287,10.5935717 15.7214748,12.1396437 14.3531121,12.7083139 L14.2109446,12.7616267 C13.5534197,13.0281908 13.0380624,13.5435482 12.7714982,14.2010731 L12.7004144,14.3432406 C12.1317443,15.6938323 10.5679013,16.3513572 9.2173096,15.782687 L9.05737111,15.7116033 C8.39984622,15.4450391 7.67123755,15.4450391 7.01371266,15.7116033 L6.81823229,15.800458 C5.46764061,16.3513572 3.90379762,15.7116033 3.35289839,14.3432406 L3.26404367,14.1477603 C2.99747953,13.4902354 2.48212218,12.974878 1.82459729,12.7083139 L1.64688786,12.6372301 C0.278525241,12.0863309 -0.36122871,10.5224879 0.207441468,9.17189621 L0.278525241,8.97641583 C0.545089387,8.33666188 0.545089387,7.60805322 0.278525241,6.95052832 L0.207441468,6.79058984 C-0.36122871,5.43999816 0.296296184,3.87615517 1.62911691,3.307485 L1.7890554,3.23640122 C2.44658029,2.96983708 2.96193764,2.45447973 3.22850179,1.79695484 L3.29958556,1.65478729 C3.86825574,0.304195619 5.43209873,-0.353329275 6.76491946,0.19756996 L6.92485794,0.268653733 C7.58238284,0.535217878 8.3109915,0.535217878 8.9685164,0.268653733 L9.14622583,0.19756996 C10.5145884,-0.353329275 12.0606605,0.286424676 12.6471016,1.63701635 L12.7181854,1.81472578 C12.9847495,2.47225067 13.5001069,2.98760802 14.1576318,3.25417217 L14.3531121,3.34302688 C15.7037038,3.91169706 16.3612287,5.47554005 15.7925585,6.82613172 L15.7037038,7.03938304 C15.4371397,7.67913699 15.4371397,8.40774565 15.7037038,9.06527055 Z M6.8,8.53333333 L4.8,7.33333333 L4,8.13333333 L6.8,11.3333333 L12,6.13333333 L11.2,5.33333333 L6.8,8.53333333 Z"></path>
                            <rect id="Rectangle" fill="#4BB752" fill-rule="evenodd" mask="url(#mask-2)" x="0" y="0" width="16" height="16"></rect>
                        </g>
                    </g>
                </g>
            </g>
        </g>
    </g>
</svg>