<?xml version="1.0" encoding="UTF-8"?>
<svg width="48px" height="48px" viewBox="0 0 48 48" version="1.1" xmlns="http://www.w3.org/2000/svg" xmlns:xlink="http://www.w3.org/1999/xlink">
    <title>7AA57C53-3DC5-4185-B17F-FD5B6153A8A5</title>
    <defs>
        <path d="M14.4863336,1.12978406 C15.4106954,0.629827725 16.5498458,0.623063008 17.4809663,1.11200077 C20.479129,2.75085771 20.479129,6.78762112 20.479129,8.96126296 L20.479129,11.5834341 L21.4600094,11.5834341 L21.4600094,11.5661829 C27.1430143,11.5661829 31.75,15.8605001 31.75,21.1578088 C31.75,26.4551175 27.1430143,30.7494347 21.4600094,30.7494347 L21.4600094,30.7494347 L7.98678429,30.7494347 L7.98678429,31.059955 C7.98678429,31.4410563 7.65534647,31.75 7.2464972,31.75 L7.2464972,31.75 L1.47225787,31.75 C1.07773712,31.7409157 0.760223628,31.4449514 0.750227425,31.0772061 L0.750227425,31.0772061 L0.750227425,14.3953676 C0.745329576,14.2155032 0.819719558,14.041573 0.956211581,13.9143445 C1.0927036,13.7871159 1.27929767,13.7177747 1.47225787,13.7225737 L1.47225787,13.7225737 L7.26500438,13.7225737 C7.45961846,13.7179207 7.64799671,13.7867447 7.78738625,13.9134258 C7.92677579,14.040107 8.00535548,14.213902 8.00529147,14.3953676 L8.00529147,14.3953676 L8.00529147,14.7403901 L12.9837222,8.46098031 L12.9837222,3.54440949 C12.9903824,2.54825756 13.5619718,1.62974039 14.4863336,1.12978406 Z M30.0829803,21.0314863 L30.0733123,20.8037361 C29.9812023,20.7616263 29.9177894,20.6733513 29.9177894,20.5712706 C29.9177894,20.4825389 29.9657018,20.4042382 30.0387267,20.357621 C29.9385506,19.4320607 29.6638329,18.5173511 29.2157554,17.658954 C29.1766924,17.6793334 29.1322075,17.6903326 29.0849665,17.6903326 C29.0097644,17.6955471 28.9358565,17.6699636 28.8825336,17.6202597 C28.8292108,17.5705558 28.8017646,17.5016639 28.8073588,17.4315657 C28.8073588,17.3318869 28.8678226,17.2453717 28.9564279,17.2021489 L28.9289111,17.1555476 C28.2286612,16.0249946 27.2584798,15.0917562 26.1190805,14.4100332 C26.0773219,14.5033988 25.9790981,14.5678788 25.8647176,14.5678788 C25.708141,14.5681641 25.5783885,14.4547769 25.5686028,14.3091119 C25.5686028,14.2454883 25.5916967,14.1868924 25.6304972,14.1402105 C25.0720034,13.8507847 24.4783463,13.6204919 23.8607274,13.4535963 C23.8125594,13.4922554 23.7496348,13.5155601 23.6808707,13.5155601 C23.5620286,13.5155601 23.4606282,13.4459516 23.4210341,13.3480884 C23.214071,13.301324 23.0028491,13.2629741 22.789642,13.2319865 L22.7925262,13.2567933 L22.7925262,13.2567933 C22.7925262,13.3997063 22.668237,13.5155601 22.5149185,13.5155601 C22.4397164,13.5207747 22.3658085,13.4951912 22.3124857,13.4454873 C22.2591629,13.3957834 22.2317166,13.3268915 22.2373108,13.2567933 C22.2373108,13.2267258 22.2428124,13.1978562 22.2529283,13.1710112 C21.9920544,13.1475325 21.72691,13.1360354 21.4600094,13.1360354 L21.6336547,13.139787 C21.6527983,13.1749258 21.6635883,13.214685 21.6635883,13.2567933 C21.6635883,13.3997063 21.5392992,13.5155601 21.3859807,13.5155601 C21.2326622,13.5155601 21.108373,13.3997063 21.108373,13.2567933 C21.108373,13.213409 21.119827,13.1725183 21.1400699,13.1366054 L20.5214608,13.1366054 C20.5417038,13.1725183 20.5531577,13.213409 20.5531577,13.2567933 C20.5531577,13.3997063 20.4288685,13.5155601 20.27555,13.5155601 C20.200348,13.5207747 20.1264401,13.4951912 20.0731172,13.4454873 C20.0197944,13.3957834 19.9923482,13.3268915 19.9979424,13.2567933 C19.9979424,13.213409 20.0093963,13.1725183 20.0296393,13.1366054 L19.392523,13.1366054 C19.4127659,13.1725183 19.4242199,13.213409 19.4242199,13.2567933 C19.4298141,13.3268915 19.4023679,13.3957834 19.349045,13.4454873 C19.2957222,13.4951912 19.2218143,13.5207747 19.1466122,13.5155601 C18.9932938,13.5155601 18.8690046,13.3997063 18.8690046,13.2567933 C18.8690046,13.213409 18.8804585,13.1725183 18.9007014,13.1366054 L18.813483,13.1360354 L18.813483,8.92676071 C18.813483,7.26472361 18.7438434,5.48728503 18.1542726,4.14475881 L18.1287175,4.14819889 L18.1287175,4.14819889 C18.0599587,4.15294128 17.9920076,4.13194314 17.9399053,4.0898524 C17.8878029,4.04776166 17.8558466,3.98804989 17.8511098,3.92393426 C17.8511098,3.84701762 17.8871121,3.77793909 17.9442658,3.73054174 C17.7391099,3.36381725 17.4817139,3.04017205 17.163422,2.77352462 C17.1806199,2.81001062 17.1880134,2.84924597 17.1848514,2.88886672 C17.1848514,3.03177972 17.0605622,3.1476336 16.9072438,3.1476336 C16.7539253,3.1476336 16.6296361,3.03177972 16.6296361,2.88886672 C16.6296361,2.82023747 16.658884,2.7544191 16.7109455,2.7058909 C16.763007,2.65736269 16.8336176,2.63009983 16.9072438,2.63009983 C16.9334936,2.62827966 16.9595857,2.63021194 16.9846996,2.63561267 L16.8419751,2.5375584 L16.8419751,2.5375584 L16.6481433,2.42308632 C16.2437433,2.19691569 15.7385337,2.19691569 15.3341337,2.42308632 C15.1724568,2.50341301 15.0342399,2.61288947 14.9251274,2.7422727 C14.9504257,2.78014405 14.9639902,2.82440326 14.9639902,2.87161559 C14.9695844,2.94171382 14.9421381,3.01060573 14.8888153,3.06030963 C14.8404915,3.10535378 14.7752614,3.13058811 14.7074831,3.13104251 C14.6625328,3.26106785 14.6422859,3.40136026 14.6493681,3.54440949 L14.6493681,3.54440949 L14.6490428,3.63298581 C14.6612556,3.63145536 14.67372,3.63066512 14.6863825,3.63066512 C14.7615846,3.62545058 14.8354925,3.65103408 14.8888153,3.70073797 C14.9421381,3.75044186 14.9695844,3.81933377 14.9639902,3.88943201 C14.9639902,4.03234501 14.839701,4.14819889 14.6863825,4.14819889 L14.649,4.144 L14.6490428,4.65080223 C14.6612556,4.64927177 14.67372,4.64848154 14.6863825,4.64848154 C14.839701,4.64848154 14.9639902,4.76433542 14.9639902,4.90724842 C14.9639902,5.05016143 14.839701,5.16601531 14.6863825,5.16601531 L14.649,5.162 L14.6486003,5.61931763 C14.6609039,5.61695531 14.6735164,5.61534585 14.6863825,5.61454457 C14.839701,5.61454457 14.9639902,5.73039846 14.9639902,5.87331146 C14.9951613,5.95503179 14.9803379,6.04587399 14.9245097,6.11525958 C14.8686816,6.18464517 14.779274,6.22334564 14.6863825,6.21833397 L14.649,6.211 L14.6490428,6.73818844 C14.6612556,6.73665798 14.67372,6.73586774 14.6863825,6.73586774 C14.839701,6.73586774 14.9639902,6.85172163 14.9639902,6.99463463 C14.9639902,7.13754763 14.839701,7.25340152 14.6863825,7.25340152 L14.649,7.249 L14.6490428,7.77325598 C14.6612556,7.77172552 14.67372,7.77093529 14.6863825,7.77093529 C14.839701,7.77093529 14.9639902,7.88678917 14.9639902,8.02970217 C14.9691202,8.10126825 14.9421531,8.17160872 14.8895252,8.22393525 C14.8368974,8.27626179 14.7633303,8.30587976 14.6863825,8.30572018 L14.649,8.299 L14.6490428,8.82557465 C14.6612556,8.82404419 14.67372,8.82325395 14.6863825,8.82325395 C14.839701,8.82325395 14.9639902,8.93910783 14.9639902,9.08202084 C14.9639902,9.22493384 14.839701,9.34078772 14.6863825,9.34078772 C14.5891895,9.34078772 14.5036624,9.29423005 14.454069,9.22373553 L7.98678429,17.3625612 L7.98678429,29.2140845 L21.4600094,29.2140845 C24.541191,29.2140845 27.3883203,27.6818552 28.9289111,25.1945723 C28.9858728,25.1026077 29.0407283,25.0098541 29.0934778,24.9163698 C29.0689188,24.9048464 29.0481398,24.8894257 29.0298811,24.8712715 C28.9772532,24.818945 28.9502862,24.7486045 28.9554162,24.6770385 C28.9554162,24.5341255 29.0797054,24.4182716 29.2330239,24.4182716 C29.2712607,24.4182716 29.3076919,24.4254774 29.34084,24.4385118 C29.6135004,23.8689814 29.8108707,23.2759523 29.9334916,22.672804 C29.9224959,22.6467444 29.9177285,22.6186933 29.9177894,22.5896523 C29.9177894,22.5284038 29.9406181,22.4721254 29.9787767,22.4278068 L30.0170335,22.1780873 C30.03495,22.0451567 30.0492903,21.9119027 30.0600544,21.7784543 C29.9740965,21.7347089 29.9177894,21.6507762 29.9177894,21.5545847 C29.9177894,21.449336 29.9851993,21.3587631 30.0819699,21.318333 L30.0829611,21.319634 L30.0829803,21.0314863 L30.0829803,21.0314863 Z M25.8277033,25.4878414 C25.9810217,25.4878414 26.1053109,25.6036953 26.1053109,25.7466083 C26.1053109,25.8895213 25.9810217,26.0053751 25.8277033,26.0053751 C25.6743848,26.0053751 25.5500956,25.8895213 25.5500956,25.7466083 C25.5500956,25.6036953 25.6743848,25.4878414 25.8277033,25.4878414 Z M23.6808707,25.4878414 C23.8341892,25.4878414 23.9584783,25.6036953 23.9584783,25.7466083 C23.9584783,25.8895213 23.8341892,26.0053751 23.6808707,26.0053751 C23.5275522,26.0053751 23.403263,25.8895213 23.403263,25.7466083 C23.403263,25.6036953 23.5275522,25.4878414 23.6808707,25.4878414 Z M28.0670717,25.4878414 C28.2203902,25.4878414 28.3446794,25.6036953 28.3446794,25.7466083 C28.3446794,25.8895213 28.2203902,26.0053751 28.0670717,26.0053751 C27.9137532,26.0053751 27.789464,25.8895213 27.789464,25.7466083 C27.789464,25.6036953 27.9137532,25.4878414 28.0670717,25.4878414 Z M24.7172726,25.4878414 C24.8705911,25.4878414 24.9948803,25.6036953 24.9948803,25.7466083 C24.9948803,25.8512697 24.9272433,25.9456255 24.8235085,25.9856777 C24.7197736,26.0257299 24.6003696,26.0035909 24.5209744,25.9295841 C24.4415791,25.8555773 24.4178282,25.744277 24.4607966,25.6475825 C24.503765,25.5508879 24.6049908,25.4878414 24.7172726,25.4878414 Z M26.9566411,25.4878414 C27.1099595,25.4878414 27.2342487,25.6036953 27.2342487,25.7466083 C27.2342487,25.8512697 27.1666118,25.9456255 27.0628769,25.9856777 C26.959142,26.0257299 26.839738,26.0035909 26.7603428,25.9295841 C26.6809476,25.8555773 26.6571966,25.744277 26.700165,25.6475825 C26.7431334,25.5508879 26.8443593,25.4878414 26.9566411,25.4878414 Z M13.6869949,25.4705902 C13.8403134,25.4705902 13.9646026,25.5864441 13.9646026,25.7293571 C13.9646026,25.8722701 13.8403134,25.988124 13.6869949,25.988124 C13.5336764,25.988124 13.4093873,25.8722701 13.4093873,25.7293571 C13.4093873,25.5864441 13.5336764,25.4705902 13.6869949,25.4705902 Z M14.7974256,25.4705902 C14.950744,25.4705902 15.0750332,25.5864441 15.0750332,25.7293571 C15.0750332,25.8722701 14.950744,25.988124 14.7974256,25.988124 C14.6441071,25.988124 14.5198179,25.8722701 14.5198179,25.7293571 C14.5198179,25.5864441 14.6441071,25.4705902 14.7974256,25.4705902 Z M16.9072438,25.4705902 C17.0605622,25.4705902 17.1848514,25.5864441 17.1848514,25.7293571 C17.1848514,25.8722701 17.0605622,25.988124 16.9072438,25.988124 C16.7539253,25.988124 16.6296361,25.8722701 16.6296361,25.7293571 C16.6296361,25.5864441 16.7539253,25.4705902 16.9072438,25.4705902 Z M18.0361816,25.4705902 C18.1895001,25.4705902 18.3137893,25.5864441 18.3137893,25.7293571 C18.3137893,25.8722701 18.1895001,25.988124 18.0361816,25.988124 C17.8828631,25.988124 17.7585739,25.8722701 17.7585739,25.7293571 C17.7585739,25.5864441 17.8828631,25.4705902 18.0361816,25.4705902 Z M19.1466122,25.4705902 C19.2999307,25.4705902 19.4242199,25.5864441 19.4242199,25.7293571 C19.4242199,25.8722701 19.2999307,25.988124 19.1466122,25.988124 C18.9932938,25.988124 18.8690046,25.8722701 18.8690046,25.7293571 C18.8690046,25.5864441 18.9932938,25.4705902 19.1466122,25.4705902 Z M20.27555,25.4705902 C20.4288685,25.4705902 20.5531577,25.5864441 20.5531577,25.7293571 C20.5531577,25.8722701 20.4288685,25.988124 20.27555,25.988124 C20.1222316,25.988124 19.9979424,25.8722701 19.9979424,25.7293571 C19.9979424,25.5864441 20.1222316,25.4705902 20.27555,25.4705902 Z M22.4964113,25.4705902 C22.6497298,25.4705902 22.774019,25.5864441 22.774019,25.7293571 C22.774019,25.8722701 22.6497298,25.988124 22.4964113,25.988124 C22.3430929,25.988124 22.2188037,25.8722701 22.2188037,25.7293571 C22.2188037,25.5864441 22.3430929,25.4705902 22.4964113,25.4705902 Z M21.3859807,25.4705902 C21.5392992,25.4705902 21.6635883,25.5864441 21.6635883,25.7293571 C21.6635883,25.8722701 21.5392992,25.988124 21.3859807,25.988124 C21.2326622,25.988124 21.108373,25.8722701 21.108373,25.7293571 C21.108373,25.5864441 21.2326622,25.4705902 21.3859807,25.4705902 Z M10.3186886,25.4705902 C10.4720071,25.4705902 10.5962963,25.5864441 10.5962963,25.7293571 C10.5962963,25.8722701 10.4720071,25.988124 10.3186886,25.988124 C10.1653702,25.988124 10.041081,25.8722701 10.041081,25.7293571 C10.041081,25.5864441 10.1653702,25.4705902 10.3186886,25.4705902 Z M11.4476265,25.4705902 C11.6009449,25.4705902 11.7252341,25.5864441 11.7252341,25.7293571 C11.7252341,25.8722701 11.6009449,25.988124 11.4476265,25.988124 C11.294308,25.988124 11.1700188,25.8722701 11.1700188,25.7293571 C11.1700188,25.5864441 11.294308,25.4705902 11.4476265,25.4705902 Z M12.5765643,25.4705902 C12.7298828,25.4705902 12.8541719,25.5864441 12.8541719,25.7293571 C12.8541719,25.8722701 12.7298828,25.988124 12.5765643,25.988124 C12.4232458,25.988124 12.2989566,25.8722701 12.2989566,25.7293571 C12.2989566,25.5864441 12.4232458,25.4705902 12.5765643,25.4705902 Z M15.9263634,25.4705902 C16.0796819,25.4705902 16.203971,25.5864441 16.203971,25.7293571 C16.203971,25.8722701 16.0796819,25.988124 15.9263634,25.988124 C15.7730449,25.988124 15.6487557,25.8722701 15.6487557,25.7293571 C15.6487557,25.5864441 15.7730449,25.4705902 15.9263634,25.4705902 Z M13.6869949,24.4355227 C13.8403134,24.4355227 13.9646026,24.5513766 13.9646026,24.6942896 C13.9646026,24.8372026 13.8403134,24.9530565 13.6869949,24.9530565 C13.5336764,24.9530565 13.4093873,24.8372026 13.4093873,24.6942896 C13.4093873,24.5513766 13.5336764,24.4355227 13.6869949,24.4355227 Z M20.27555,24.4182716 C20.4318209,24.4273932 20.5534638,24.5483396 20.5531577,24.6942896 C20.5531577,24.8372026 20.4288685,24.9530565 20.27555,24.9530565 C20.1189734,24.9533418 19.989221,24.8399546 19.9794352,24.6942896 C19.9794352,24.5418491 20.1120103,24.4182716 20.27555,24.4182716 Z M12.5765643,24.4182716 C12.6535121,24.418112 12.7270791,24.44773 12.779707,24.5000565 C12.8323349,24.552383 12.859302,24.6227235 12.8541719,24.6942896 C12.8541719,24.8372026 12.7298828,24.9530565 12.5765643,24.9530565 C12.4232458,24.9530565 12.2989566,24.8372026 12.2989566,24.6942896 C12.2986505,24.5483396 12.4202934,24.4273932 12.5765643,24.4182716 Z M22.4964113,24.4182716 C22.659951,24.4182716 22.7925262,24.5418491 22.7925262,24.6942896 C22.7827404,24.8399546 22.652988,24.9533418 22.4964113,24.9530565 C22.3430929,24.9530565 22.2188037,24.8372026 22.2188037,24.6942896 C22.2184976,24.5483396 22.3401405,24.4273932 22.4964113,24.4182716 Z M18.0361816,24.4355227 C18.1895001,24.4355227 18.3137893,24.5513766 18.3137893,24.6942896 C18.3137893,24.8372026 18.1895001,24.9530565 18.0361816,24.9530565 C17.8828631,24.9530565 17.7585739,24.8372026 17.7585739,24.6942896 C17.7585739,24.5513766 17.8828631,24.4355227 18.0361816,24.4355227 Z M19.1466122,24.4182716 C19.3028831,24.4273932 19.424526,24.5483396 19.4242199,24.6942896 C19.4242199,24.8372026 19.2999307,24.9530565 19.1466122,24.9530565 C18.9932938,24.9530565 18.8690046,24.8372026 18.8690046,24.6942896 C18.8686985,24.5483396 18.9903414,24.4273932 19.1466122,24.4182716 Z M15.9263634,24.4355227 C16.0796819,24.4355227 16.203971,24.5513766 16.203971,24.6942896 C16.203971,24.8372026 16.0796819,24.9530565 15.9263634,24.9530565 C15.7730449,24.9530565 15.6487557,24.8372026 15.6487557,24.6942896 C15.6487557,24.5513766 15.7730449,24.4355227 15.9263634,24.4355227 Z M16.9072438,24.4355227 C17.0605622,24.4355227 17.1848514,24.5513766 17.1848514,24.6942896 C17.1848514,24.8372026 17.0605622,24.9530565 16.9072438,24.9530565 C16.7539253,24.9530565 16.6296361,24.8372026 16.6296361,24.6942896 C16.6296361,24.5513766 16.7539253,24.4355227 16.9072438,24.4355227 Z M28.0855789,24.4182716 C28.2388974,24.4182716 28.3631865,24.5341255 28.3631865,24.6770385 C28.3683166,24.7486045 28.3413495,24.818945 28.2887216,24.8712715 C28.2360937,24.9235981 28.1625267,24.9532161 28.0855789,24.9530565 C27.9293081,24.9439349 27.8076651,24.8229885 27.8079712,24.6770385 C27.8079712,24.5341255 27.9322604,24.4182716 28.0855789,24.4182716 Z M14.7974256,24.4182716 C14.8743734,24.418112 14.9479404,24.44773 15.0005683,24.5000565 C15.0531962,24.552383 15.0801633,24.6227235 15.0750332,24.6942896 C15.0750332,24.7629188 15.0457853,24.8287372 14.9937238,24.8772654 C14.9416623,24.9257936 14.8710517,24.9530565 14.7974256,24.9530565 C14.6441071,24.9530565 14.5198179,24.8372026 14.5198179,24.6942896 C14.5195118,24.5483396 14.6411547,24.4273932 14.7974256,24.4182716 Z M21.3859807,24.4355227 C21.5392992,24.4355227 21.6635883,24.5513766 21.6635883,24.6942896 C21.6635883,24.8372026 21.5392992,24.9530565 21.3859807,24.9530565 C21.2326622,24.9530565 21.108373,24.8372026 21.108373,24.6942896 C21.108373,24.5513766 21.2326622,24.4355227 21.3859807,24.4355227 Z M10.3186886,24.4355227 C10.4720071,24.4355227 10.5962963,24.5513766 10.5962963,24.6942896 C10.5962963,24.8372026 10.4720071,24.9530565 10.3186886,24.9530565 C10.1653702,24.9530565 10.041081,24.8372026 10.041081,24.6942896 C10.041081,24.5513766 10.1653702,24.4355227 10.3186886,24.4355227 Z M11.4476265,24.4182716 C11.6038973,24.4273932 11.7255402,24.5483396 11.7252341,24.6942896 C11.7252341,24.8372026 11.6009449,24.9530565 11.4476265,24.9530565 C11.294308,24.9530565 11.1700188,24.8372026 11.1700188,24.6942896 C11.1697127,24.5483396 11.2913556,24.4273932 11.4476265,24.4182716 Z M23.6808707,24.4182716 C23.8341892,24.4182716 23.9584783,24.5341255 23.9584783,24.6770385 C23.9636084,24.7486045 23.9366413,24.818945 23.8840134,24.8712715 C23.8313855,24.9235981 23.7578185,24.9532161 23.6808707,24.9530565 C23.5245998,24.9439349 23.4029569,24.8229885 23.403263,24.6770385 C23.403263,24.5341255 23.5275522,24.4182716 23.6808707,24.4182716 Z M24.7357798,24.4182716 C24.8890983,24.4182716 25.0133874,24.5341255 25.0133874,24.6770385 C25.0136935,24.8229885 24.8920506,24.9439349 24.7357798,24.9530565 C24.658832,24.9532161 24.5852649,24.9235981 24.532637,24.8712715 C24.4800091,24.818945 24.4530421,24.7486045 24.4581721,24.6770385 C24.4581721,24.5341255 24.5824613,24.4182716 24.7357798,24.4182716 Z M25.8462104,24.4182716 C25.9995289,24.4182716 26.1238181,24.5341255 26.1238181,24.6770385 C26.1289481,24.7486045 26.1019811,24.818945 26.0493532,24.8712715 C25.9967253,24.9235981 25.9231582,24.9532161 25.8462104,24.9530565 C25.6899396,24.9439349 25.5682967,24.8229885 25.5686028,24.6770385 C25.5686028,24.5341255 25.692892,24.4182716 25.8462104,24.4182716 Z M26.9751482,24.4182716 C27.1284667,24.4182716 27.2527559,24.5341255 27.2527559,24.6770385 C27.253062,24.8229885 27.1314191,24.9439349 26.9751482,24.9530565 C26.8982004,24.9532161 26.8246334,24.9235981 26.7720055,24.8712715 C26.7193776,24.818945 26.6924105,24.7486045 26.6975406,24.6770385 C26.6975406,24.5341255 26.8218298,24.4182716 26.9751482,24.4182716 Z M22.4964113,23.383204 C22.6497298,23.383204 22.774019,23.4990579 22.774019,23.6419709 C22.774019,23.7848839 22.6497298,23.9007378 22.4964113,23.9007378 C22.3430929,23.9007378 22.2188037,23.7848839 22.2188037,23.6419709 C22.2188037,23.4990579 22.3430929,23.383204 22.4964113,23.383204 Z M15.9263634,23.383204 C16.0796819,23.383204 16.203971,23.4990579 16.203971,23.6419709 C16.203971,23.7848839 16.0796819,23.9007378 15.9263634,23.9007378 C15.7730449,23.9007378 15.6487557,23.7848839 15.6487557,23.6419709 C15.6487557,23.4990579 15.7730449,23.383204 15.9263634,23.383204 Z M10.3186886,23.383204 C10.4720071,23.383204 10.5962963,23.4990579 10.5962963,23.6419709 C10.5962963,23.7848839 10.4720071,23.9007378 10.3186886,23.9007378 C10.1653702,23.9007378 10.041081,23.7848839 10.041081,23.6419709 C10.041081,23.4990579 10.1653702,23.383204 10.3186886,23.383204 Z M21.3859807,23.383204 C21.5392992,23.383204 21.6635883,23.4990579 21.6635883,23.6419709 C21.6635883,23.7848839 21.5392992,23.9007378 21.3859807,23.9007378 C21.2326622,23.9007378 21.108373,23.7848839 21.108373,23.6419709 C21.108373,23.4990579 21.2326622,23.383204 21.3859807,23.383204 Z M18.1287175,23.383204 C18.282036,23.383204 18.4063251,23.4990579 18.4063251,23.6419709 C18.4063251,23.7848839 18.282036,23.9007378 18.1287175,23.9007378 C17.975399,23.9007378 17.8511098,23.7848839 17.8511098,23.6419709 C17.8511098,23.4990579 17.975399,23.383204 18.1287175,23.383204 Z M13.6869949,23.383204 C13.8403134,23.383204 13.9646026,23.4990579 13.9646026,23.6419709 C13.9646026,23.7848839 13.8403134,23.9007378 13.6869949,23.9007378 C13.5336764,23.9007378 13.4093873,23.7848839 13.4093873,23.6419709 C13.4093873,23.4990579 13.5336764,23.383204 13.6869949,23.383204 Z M23.606842,23.383204 C23.7601604,23.383204 23.8844496,23.4990579 23.8844496,23.6419709 C23.8844496,23.7848839 23.7601604,23.9007378 23.606842,23.9007378 C23.4535235,23.9007378 23.3292343,23.7848839 23.3292343,23.6419709 C23.3292343,23.4990579 23.4535235,23.383204 23.606842,23.383204 Z M19.1466122,23.383204 C19.2999307,23.383204 19.4242199,23.4990579 19.4242199,23.6419709 C19.4242199,23.7848839 19.2999307,23.9007378 19.1466122,23.9007378 C18.9932938,23.9007378 18.8690046,23.7848839 18.8690046,23.6419709 C18.8690046,23.4990579 18.9932938,23.383204 19.1466122,23.383204 Z M24.7357798,23.383204 C24.8890983,23.383204 25.0133874,23.4990579 25.0133874,23.6419709 C25.0133874,23.7848839 24.8890983,23.9007378 24.7357798,23.9007378 C24.5824613,23.9007378 24.4581721,23.7848839 24.4581721,23.6419709 C24.4581721,23.4990579 24.5824613,23.383204 24.7357798,23.383204 Z M14.7974256,23.383204 C14.950744,23.383204 15.0750332,23.4990579 15.0750332,23.6419709 C15.0750332,23.7848839 14.950744,23.9007378 14.7974256,23.9007378 C14.6441071,23.9007378 14.5198179,23.7848839 14.5198179,23.6419709 C14.5198179,23.4990579 14.6441071,23.383204 14.7974256,23.383204 Z M25.8462104,23.383204 C25.9995289,23.383204 26.1238181,23.4990579 26.1238181,23.6419709 C26.1238181,23.7848839 25.9995289,23.9007378 25.8462104,23.9007378 C25.692892,23.9007378 25.5686028,23.7848839 25.5686028,23.6419709 C25.5686028,23.4990579 25.692892,23.383204 25.8462104,23.383204 Z M11.4476265,23.383204 C11.6009449,23.383204 11.7252341,23.4990579 11.7252341,23.6419709 C11.7252341,23.7848839 11.6009449,23.9007378 11.4476265,23.9007378 C11.294308,23.9007378 11.1700188,23.7848839 11.1700188,23.6419709 C11.1700188,23.4990579 11.294308,23.383204 11.4476265,23.383204 Z M26.9751482,23.383204 C27.1284667,23.383204 27.2527559,23.4990579 27.2527559,23.6419709 C27.2527559,23.7848839 27.1284667,23.9007378 26.9751482,23.9007378 C26.8218298,23.9007378 26.6975406,23.7848839 26.6975406,23.6419709 C26.6975406,23.4990579 26.8218298,23.383204 26.9751482,23.383204 Z M20.27555,23.383204 C20.4288685,23.383204 20.5531577,23.4990579 20.5531577,23.6419709 C20.5531577,23.7848839 20.4288685,23.9007378 20.27555,23.9007378 C20.1222316,23.9007378 19.9979424,23.7848839 19.9979424,23.6419709 C19.9979424,23.4990579 20.1222316,23.383204 20.27555,23.383204 Z M29.2330239,23.383204 C29.3863424,23.383204 29.5106315,23.4990579 29.5106315,23.6419709 C29.5106315,23.7848839 29.3863424,23.9007378 29.2330239,23.9007378 C29.0797054,23.9007378 28.9554162,23.7848839 28.9554162,23.6419709 C28.9554162,23.4990579 29.0797054,23.383204 29.2330239,23.383204 Z M12.5765643,23.383204 C12.7298828,23.383204 12.8541719,23.4990579 12.8541719,23.6419709 C12.8541719,23.7848839 12.7298828,23.9007378 12.5765643,23.9007378 C12.4232458,23.9007378 12.2989566,23.7848839 12.2989566,23.6419709 C12.2989566,23.4990579 12.4232458,23.383204 12.5765643,23.383204 Z M28.0855789,23.383204 C28.2388974,23.383204 28.3631865,23.4990579 28.3631865,23.6419709 C28.3631865,23.7848839 28.2388974,23.9007378 28.0855789,23.9007378 C27.9322604,23.9007378 27.8079712,23.7848839 27.8079712,23.6419709 C27.8079712,23.4990579 27.9322604,23.383204 28.0855789,23.383204 Z M16.9072438,23.383204 C17.0605622,23.383204 17.1848514,23.4990579 17.1848514,23.6419709 C17.1848514,23.7848839 17.0605622,23.9007378 16.9072438,23.9007378 C16.7539253,23.9007378 16.6296361,23.7848839 16.6296361,23.6419709 C16.6296361,23.4990579 16.7539253,23.383204 16.9072438,23.383204 Z M11.4476265,22.3481365 C11.6009449,22.3481365 11.7252341,22.4639904 11.7252341,22.6069034 C11.7252341,22.7498164 11.6009449,22.8656703 11.4476265,22.8656703 C11.294308,22.8656703 11.1700188,22.7498164 11.1700188,22.6069034 C11.1700188,22.4639904 11.294308,22.3481365 11.4476265,22.3481365 Z M14.7974256,22.3481365 C14.8726276,22.342922 14.9465355,22.3685055 14.9998584,22.4182093 C15.0531812,22.4679132 15.0806274,22.5368051 15.0750332,22.6069034 C15.0750332,22.6755326 15.0457853,22.741351 14.9937238,22.7898792 C14.9416623,22.8384074 14.8710517,22.8656703 14.7974256,22.8656703 C14.7237994,22.8656703 14.6531888,22.8384074 14.6011273,22.7898792 C14.5490658,22.741351 14.5198179,22.6755326 14.5198179,22.6069034 C14.5198179,22.5382741 14.5490658,22.4724558 14.6011273,22.4239276 C14.6531888,22.3753994 14.7237994,22.3481365 14.7974256,22.3481365 Z M16.9072438,22.3481365 C17.0605622,22.3481365 17.1848514,22.4639904 17.1848514,22.6069034 C17.1848514,22.7498164 17.0605622,22.8656703 16.9072438,22.8656703 C16.7539253,22.8656703 16.6296361,22.7498164 16.6296361,22.6069034 C16.6296361,22.4639904 16.7539253,22.3481365 16.9072438,22.3481365 Z M20.27555,22.3481365 C20.4288685,22.3481365 20.5531577,22.4639904 20.5531577,22.6069034 C20.5531577,22.7498164 20.4288685,22.8656703 20.27555,22.8656703 C20.1189734,22.8659556 19.989221,22.7525684 19.9794352,22.6069034 C19.979264,22.5351779 20.0110385,22.4666037 20.0671749,22.4175476 C20.1233113,22.3684915 20.1987733,22.3433546 20.27555,22.3481365 Z M24.7357798,22.3308854 C24.8890983,22.3308854 25.0133874,22.4467393 25.0133874,22.5896523 C25.0136935,22.7356023 24.8920506,22.8565487 24.7357798,22.8656703 C24.658832,22.8658298 24.5852649,22.8362119 24.532637,22.7838853 C24.4800091,22.7315588 24.4530421,22.6612183 24.4581721,22.5896523 C24.4581721,22.4467393 24.5824613,22.3308854 24.7357798,22.3308854 Z M10.3186886,22.3481365 C10.4720071,22.3481365 10.5962963,22.4639904 10.5962963,22.6069034 C10.5962963,22.7498164 10.4720071,22.8656703 10.3186886,22.8656703 C10.1653702,22.8656703 10.041081,22.7498164 10.041081,22.6069034 C10.041081,22.4639904 10.1653702,22.3481365 10.3186886,22.3481365 Z M25.8462104,22.3308854 C25.9995289,22.3308854 26.1238181,22.4467393 26.1238181,22.5896523 C26.1289481,22.6612183 26.1019811,22.7315588 26.0493532,22.7838853 C25.9967253,22.8362119 25.9231582,22.8658298 25.8462104,22.8656703 C25.6899396,22.8565487 25.5682967,22.7356023 25.5686028,22.5896523 C25.5686028,22.4467393 25.692892,22.3308854 25.8462104,22.3308854 Z M21.3859807,22.3481365 C21.5392992,22.3481365 21.6635883,22.4639904 21.6635883,22.6069034 C21.6635883,22.7498164 21.5392992,22.8656703 21.3859807,22.8656703 C21.2326622,22.8656703 21.108373,22.7498164 21.108373,22.6069034 C21.108373,22.4639904 21.2326622,22.3481365 21.3859807,22.3481365 Z M22.4964113,22.3481365 C22.5731881,22.3433546 22.6486501,22.3684915 22.7047865,22.4175476 C22.7609229,22.4666037 22.7926974,22.5351779 22.7925262,22.6069034 C22.7827404,22.7525684 22.652988,22.8659556 22.4964113,22.8656703 C22.3430929,22.8656703 22.2188037,22.7498164 22.2188037,22.6069034 C22.2188037,22.4639904 22.3430929,22.3481365 22.4964113,22.3481365 Z M28.0855789,22.3308854 C28.2388974,22.3308854 28.3631865,22.4467393 28.3631865,22.5896523 C28.3683166,22.6612183 28.3413495,22.7315588 28.2887216,22.7838853 C28.2360937,22.8362119 28.1625267,22.8658298 28.0855789,22.8656703 C27.9293081,22.8565487 27.8076651,22.7356023 27.8079712,22.5896523 C27.8079712,22.4467393 27.9322604,22.3308854 28.0855789,22.3308854 Z M13.6869949,22.3481365 C13.8403134,22.3481365 13.9646026,22.4639904 13.9646026,22.6069034 C13.9646026,22.7498164 13.8403134,22.8656703 13.6869949,22.8656703 C13.5336764,22.8656703 13.4093873,22.7498164 13.4093873,22.6069034 C13.4093873,22.4639904 13.5336764,22.3481365 13.6869949,22.3481365 Z M15.9263634,22.3481365 C16.0796819,22.3481365 16.203971,22.4639904 16.203971,22.6069034 C16.203971,22.7498164 16.0796819,22.8656703 15.9263634,22.8656703 C15.7730449,22.8656703 15.6487557,22.7498164 15.6487557,22.6069034 C15.6487557,22.4639904 15.7730449,22.3481365 15.9263634,22.3481365 Z M19.1466122,22.3481365 C19.2999307,22.3481365 19.4242199,22.4639904 19.4242199,22.6069034 C19.4242199,22.7498164 19.2999307,22.8656703 19.1466122,22.8656703 C18.9932938,22.8656703 18.8690046,22.7498164 18.8690046,22.6069034 C18.8690046,22.4639904 18.9932938,22.3481365 19.1466122,22.3481365 Z M18.0361816,22.3481365 C18.1895001,22.3481365 18.3137893,22.4639904 18.3137893,22.6069034 C18.3137893,22.7498164 18.1895001,22.8656703 18.0361816,22.8656703 C17.8828631,22.8656703 17.7585739,22.7498164 17.7585739,22.6069034 C17.7585739,22.4639904 17.8828631,22.3481365 18.0361816,22.3481365 Z M12.5765643,22.3481365 C12.6517664,22.342922 12.7256743,22.3685055 12.7789971,22.4182093 C12.8323199,22.4679132 12.8597661,22.5368051 12.8541719,22.6069034 C12.8541719,22.7498164 12.7298828,22.8656703 12.5765643,22.8656703 C12.4232458,22.8656703 12.2989566,22.7498164 12.2989566,22.6069034 C12.2989566,22.4639904 12.4232458,22.3481365 12.5765643,22.3481365 Z M29.0849665,22.3308854 C29.2382849,22.3308854 29.3625741,22.4467393 29.3625741,22.5896523 C29.3628802,22.7356023 29.2412373,22.8565487 29.0849665,22.8656703 C29.0080187,22.8658298 28.9344516,22.8362119 28.8818237,22.7838853 C28.8291958,22.7315588 28.8022287,22.6612183 28.8073588,22.5896523 C28.8073588,22.4467393 28.931648,22.3308854 29.0849665,22.3308854 Z M23.606842,22.3308854 C23.7601604,22.3308854 23.8844496,22.4467393 23.8844496,22.5896523 C23.8844496,22.7325653 23.7601604,22.8484191 23.606842,22.8484191 C23.4535235,22.8484191 23.3292343,22.7325653 23.3292343,22.5896523 C23.3292343,22.4467393 23.4535235,22.3308854 23.606842,22.3308854 Z M26.9751482,22.3308854 C27.1284667,22.3308854 27.2527559,22.4467393 27.2527559,22.5896523 C27.2527559,22.7325653 27.1284667,22.8484191 26.9751482,22.8484191 C26.8218298,22.8484191 26.6975406,22.7325653 26.6975406,22.5896523 C26.6975406,22.4467393 26.8218298,22.3308854 26.9751482,22.3308854 Z M24.7357798,21.2958178 C24.8890983,21.2958178 25.0133874,21.4116717 25.0133874,21.5545847 C25.0133874,21.6974977 24.8890983,21.8133516 24.7357798,21.8133516 C24.5824613,21.8133516 24.4581721,21.6974977 24.4581721,21.5545847 C24.4581721,21.4116717 24.5824613,21.2958178 24.7357798,21.2958178 Z M14.7974256,21.2958178 C14.8710517,21.2958178 14.9416623,21.3230807 14.9937238,21.3716089 C15.0457853,21.4201371 15.0750332,21.4859555 15.0750332,21.5545847 C15.0806274,21.6246829 15.0531812,21.6935749 14.9998584,21.7432788 C14.9465355,21.7929826 14.8726276,21.8185661 14.7974256,21.8133516 C14.7237994,21.8133516 14.6531888,21.7860887 14.6011273,21.7375605 C14.5490658,21.6890323 14.5198179,21.623214 14.5198179,21.5545847 C14.5198179,21.4859555 14.5490658,21.4201371 14.6011273,21.3716089 C14.6531888,21.3230807 14.7237994,21.2958178 14.7974256,21.2958178 Z M13.6869949,21.2958178 C13.8403134,21.2958178 13.9646026,21.4116717 13.9646026,21.5545847 C13.9646026,21.6974977 13.8403134,21.8133516 13.6869949,21.8133516 C13.5336764,21.8133516 13.4093873,21.6974977 13.4093873,21.5545847 C13.4093873,21.4116717 13.5336764,21.2958178 13.6869949,21.2958178 Z M21.3859807,21.2958178 C21.5392992,21.2958178 21.6635883,21.4116717 21.6635883,21.5545847 C21.6635883,21.6974977 21.5392992,21.8133516 21.3859807,21.8133516 C21.2326622,21.8133516 21.108373,21.6974977 21.108373,21.5545847 C21.108373,21.4116717 21.2326622,21.2958178 21.3859807,21.2958178 Z M10.3186886,21.2958178 C10.4720071,21.2958178 10.5962963,21.4116717 10.5962963,21.5545847 C10.5962963,21.6974977 10.4720071,21.8133516 10.3186886,21.8133516 C10.1653702,21.8133516 10.041081,21.6974977 10.041081,21.5545847 C10.041081,21.4116717 10.1653702,21.2958178 10.3186886,21.2958178 Z M18.0361816,21.2958178 C18.1895001,21.2958178 18.3137893,21.4116717 18.3137893,21.5545847 C18.3137893,21.6974977 18.1895001,21.8133516 18.0361816,21.8133516 C17.8828631,21.8133516 17.7585739,21.6974977 17.7585739,21.5545847 C17.7585739,21.4116717 17.8828631,21.2958178 18.0361816,21.2958178 Z M11.4476265,21.2958178 C11.5212526,21.2958178 11.5918632,21.3230807 11.6439247,21.3716089 C11.6959863,21.4201371 11.7252341,21.4859555 11.7252341,21.5545847 C11.7252341,21.6974977 11.6009449,21.8133516 11.4476265,21.8133516 C11.294308,21.8133516 11.1700188,21.6974977 11.1700188,21.5545847 C11.1700188,21.4859555 11.1992667,21.4201371 11.2513282,21.3716089 C11.3033897,21.3230807 11.3740003,21.2958178 11.4476265,21.2958178 Z M16.9072438,21.2958178 C17.0605622,21.2958178 17.1848514,21.4116717 17.1848514,21.5545847 C17.1848514,21.6974977 17.0605622,21.8133516 16.9072438,21.8133516 C16.7539253,21.8133516 16.6296361,21.6974977 16.6296361,21.5545847 C16.6296361,21.4116717 16.7539253,21.2958178 16.9072438,21.2958178 Z M22.4964113,21.2958178 C22.652988,21.2955325 22.7827404,21.4089197 22.7925262,21.5545847 C22.7926974,21.6263102 22.7609229,21.6948844 22.7047865,21.7439405 C22.6486501,21.7929966 22.5731881,21.8181335 22.4964113,21.8133516 C22.3430929,21.8133516 22.2188037,21.6974977 22.2188037,21.5545847 C22.2188037,21.4859555 22.2480515,21.4201371 22.3001131,21.3716089 C22.3521746,21.3230807 22.4227852,21.2958178 22.4964113,21.2958178 Z M20.27555,21.2958178 C20.3491762,21.2958178 20.4197868,21.3230807 20.4718483,21.3716089 C20.5239098,21.4201371 20.5531577,21.4859555 20.5531577,21.5545847 C20.5531577,21.6974977 20.4288685,21.8133516 20.27555,21.8133516 C20.1987733,21.8181335 20.1233113,21.7929966 20.0671749,21.7439405 C20.0110385,21.6948844 19.979264,21.6263102 19.9794352,21.5545847 C19.989221,21.4089197 20.1189734,21.2955325 20.27555,21.2958178 Z M25.8462104,21.2958178 C25.9995289,21.2958178 26.1238181,21.4116717 26.1238181,21.5545847 C26.1238181,21.6974977 25.9995289,21.8133516 25.8462104,21.8133516 C25.692892,21.8133516 25.5686028,21.6974977 25.5686028,21.5545847 C25.5686028,21.4116717 25.692892,21.2958178 25.8462104,21.2958178 Z M26.9751482,21.2958178 C27.1284667,21.2958178 27.2527559,21.4116717 27.2527559,21.5545847 C27.2527559,21.6974977 27.1284667,21.8133516 26.9751482,21.8133516 C26.8218298,21.8133516 26.6975406,21.6974977 26.6975406,21.5545847 C26.6975406,21.4116717 26.8218298,21.2958178 26.9751482,21.2958178 Z M28.0855789,21.2958178 C28.2388974,21.2958178 28.3631865,21.4116717 28.3631865,21.5545847 C28.3631865,21.6974977 28.2388974,21.8133516 28.0855789,21.8133516 C27.9322604,21.8133516 27.8079712,21.6974977 27.8079712,21.5545847 C27.8079712,21.4116717 27.9322604,21.2958178 28.0855789,21.2958178 Z M12.5765643,21.2958178 C12.6501904,21.2958178 12.720801,21.3230807 12.7728625,21.3716089 C12.8249241,21.4201371 12.8541719,21.4859555 12.8541719,21.5545847 C12.8597661,21.6246829 12.8323199,21.6935749 12.7789971,21.7432788 C12.7256743,21.7929826 12.6517664,21.8185661 12.5765643,21.8133516 C12.4232458,21.8133516 12.2989566,21.6974977 12.2989566,21.5545847 C12.2989566,21.4859555 12.3282045,21.4201371 12.380266,21.3716089 C12.4323276,21.3230807 12.5029381,21.2958178 12.5765643,21.2958178 Z M15.9263634,21.2958178 C16.0796819,21.2958178 16.203971,21.4116717 16.203971,21.5545847 C16.203971,21.6974977 16.0796819,21.8133516 15.9263634,21.8133516 C15.7730449,21.8133516 15.6487557,21.6974977 15.6487557,21.5545847 C15.6487557,21.4116717 15.7730449,21.2958178 15.9263634,21.2958178 Z M23.6808707,21.2958178 C23.8341892,21.2958178 23.9584783,21.4116717 23.9584783,21.5545847 C23.9584783,21.6974977 23.8341892,21.8133516 23.6808707,21.8133516 C23.5275522,21.8133516 23.403263,21.6974977 23.403263,21.5545847 C23.403263,21.4116717 23.5275522,21.2958178 23.6808707,21.2958178 Z M19.1466122,21.2958178 C19.2202384,21.2958178 19.290849,21.3230807 19.3429105,21.3716089 C19.394972,21.4201371 19.4242199,21.4859555 19.4242199,21.5545847 C19.4242199,21.6974977 19.2999307,21.8133516 19.1466122,21.8133516 C18.9932938,21.8133516 18.8690046,21.6974977 18.8690046,21.5545847 C18.8690046,21.4859555 18.8982524,21.4201371 18.950314,21.3716089 C19.0023755,21.3230807 19.0729861,21.2958178 19.1466122,21.2958178 Z M29.0849665,21.2958178 C29.2382849,21.2958178 29.3625741,21.4116717 29.3625741,21.5545847 C29.3625741,21.6974977 29.2382849,21.8133516 29.0849665,21.8133516 C28.931648,21.8133516 28.8073588,21.6974977 28.8073588,21.5545847 C28.8073588,21.4116717 28.931648,21.2958178 29.0849665,21.2958178 Z M21.3859807,20.3125037 C21.5392992,20.3125037 21.6635883,20.4283575 21.6635883,20.5712706 C21.6635883,20.7141836 21.5392992,20.8300374 21.3859807,20.8300374 C21.2326622,20.8300374 21.108373,20.7141836 21.108373,20.5712706 C21.108373,20.4283575 21.2326622,20.3125037 21.3859807,20.3125037 Z M16.9072438,20.3125037 C17.0605622,20.3125037 17.1848514,20.4283575 17.1848514,20.5712706 C17.1848514,20.7141836 17.0605622,20.8300374 16.9072438,20.8300374 C16.7539253,20.8300374 16.6296361,20.7141836 16.6296361,20.5712706 C16.6296361,20.4283575 16.7539253,20.3125037 16.9072438,20.3125037 Z M10.3186886,20.3125037 C10.4720071,20.3125037 10.5962963,20.4283575 10.5962963,20.5712706 C10.5962963,20.7141836 10.4720071,20.8300374 10.3186886,20.8300374 C10.1653702,20.8300374 10.041081,20.7141836 10.041081,20.5712706 C10.041081,20.4283575 10.1653702,20.3125037 10.3186886,20.3125037 Z M20.27555,20.3125037 C20.4288685,20.3125037 20.5531577,20.4283575 20.5531577,20.5712706 C20.5531577,20.7141836 20.4288685,20.8300374 20.27555,20.8300374 C20.1222316,20.8300374 19.9979424,20.7141836 19.9979424,20.5712706 C19.9979424,20.4283575 20.1222316,20.3125037 20.27555,20.3125037 Z M19.1466122,20.3125037 C19.2999307,20.3125037 19.4242199,20.4283575 19.4242199,20.5712706 C19.4242199,20.7141836 19.2999307,20.8300374 19.1466122,20.8300374 C18.9932938,20.8300374 18.8690046,20.7141836 18.8690046,20.5712706 C18.8690046,20.4283575 18.9932938,20.3125037 19.1466122,20.3125037 Z M15.9263634,20.3125037 C16.0796819,20.3125037 16.203971,20.4283575 16.203971,20.5712706 C16.203971,20.7141836 16.0796819,20.8300374 15.9263634,20.8300374 C15.7730449,20.8300374 15.6487557,20.7141836 15.6487557,20.5712706 C15.6487557,20.4283575 15.7730449,20.3125037 15.9263634,20.3125037 Z M11.4476265,20.3125037 C11.6009449,20.3125037 11.7252341,20.4283575 11.7252341,20.5712706 C11.7252341,20.7141836 11.6009449,20.8300374 11.4476265,20.8300374 C11.294308,20.8300374 11.1700188,20.7141836 11.1700188,20.5712706 C11.1700188,20.4283575 11.294308,20.3125037 11.4476265,20.3125037 Z M12.5765643,20.3125037 C12.7298828,20.3125037 12.8541719,20.4283575 12.8541719,20.5712706 C12.8541719,20.7141836 12.7298828,20.8300374 12.5765643,20.8300374 C12.4232458,20.8300374 12.2989566,20.7141836 12.2989566,20.5712706 C12.2989566,20.4283575 12.4232458,20.3125037 12.5765643,20.3125037 Z M24.7357798,20.3125037 C24.8890983,20.3125037 25.0133874,20.4283575 25.0133874,20.5712706 C25.0133874,20.7141836 24.8890983,20.8300374 24.7357798,20.8300374 C24.5824613,20.8300374 24.4581721,20.7141836 24.4581721,20.5712706 C24.4525779,20.5011723 24.4800241,20.4322804 24.533347,20.3825765 C24.5866698,20.3328726 24.6605777,20.3072891 24.7357798,20.3125037 Z M25.8462104,20.3125037 C25.9214125,20.3072891 25.9953204,20.3328726 26.0486432,20.3825765 C26.1019661,20.4322804 26.1294123,20.5011723 26.1238181,20.5712706 C26.1238181,20.7141836 25.9995289,20.8300374 25.8462104,20.8300374 C25.692892,20.8300374 25.5686028,20.7141836 25.5686028,20.5712706 C25.5686028,20.4283575 25.692892,20.3125037 25.8462104,20.3125037 Z M26.9751482,20.3125037 C27.1284667,20.3125037 27.2527559,20.4283575 27.2527559,20.5712706 C27.2527559,20.7141836 27.1284667,20.8300374 26.9751482,20.8300374 C26.8218298,20.8300374 26.6975406,20.7141836 26.6975406,20.5712706 C26.6919464,20.5011723 26.7193926,20.4322804 26.7727154,20.3825765 C26.8260383,20.3328726 26.8999462,20.3072891 26.9751482,20.3125037 Z M28.0855789,20.3125037 C28.160781,20.3072891 28.2346889,20.3328726 28.2880117,20.3825765 C28.3413345,20.4322804 28.3687808,20.5011723 28.3631865,20.5712706 C28.3631865,20.7141836 28.2388974,20.8300374 28.0855789,20.8300374 C27.9322604,20.8300374 27.8079712,20.7141836 27.8079712,20.5712706 C27.8079712,20.4283575 27.9322604,20.3125037 28.0855789,20.3125037 Z M18.0361816,20.3125037 C18.1895001,20.3125037 18.3137893,20.4283575 18.3137893,20.5712706 C18.3137893,20.7141836 18.1895001,20.8300374 18.0361816,20.8300374 C17.8828631,20.8300374 17.7585739,20.7141836 17.7585739,20.5712706 C17.7585739,20.4283575 17.8828631,20.3125037 18.0361816,20.3125037 Z M22.4964113,20.3125037 C22.6497298,20.3125037 22.774019,20.4283575 22.774019,20.5712706 C22.774019,20.7141836 22.6497298,20.8300374 22.4964113,20.8300374 C22.3430929,20.8300374 22.2188037,20.7141836 22.2188037,20.5712706 C22.2188037,20.4283575 22.3430929,20.3125037 22.4964113,20.3125037 Z M13.6869949,20.3125037 C13.8403134,20.3125037 13.9646026,20.4283575 13.9646026,20.5712706 C13.9646026,20.7141836 13.8403134,20.8300374 13.6869949,20.8300374 C13.5336764,20.8300374 13.4093873,20.7141836 13.4093873,20.5712706 C13.4093873,20.4283575 13.5336764,20.3125037 13.6869949,20.3125037 Z M23.6808707,20.3125037 C23.7560728,20.3072891 23.8299807,20.3328726 23.8833035,20.3825765 C23.9366263,20.4322804 23.9640725,20.5011723 23.9584783,20.5712706 C23.9584783,20.7141836 23.8341892,20.8300374 23.6808707,20.8300374 C23.5275522,20.8300374 23.403263,20.7141836 23.403263,20.5712706 C23.403263,20.4283575 23.5275522,20.3125037 23.6808707,20.3125037 Z M14.7974256,20.3125037 C14.950744,20.3125037 15.0750332,20.4283575 15.0750332,20.5712706 C15.0750332,20.7141836 14.950744,20.8300374 14.7974256,20.8300374 C14.6441071,20.8300374 14.5198179,20.7141836 14.5198179,20.5712706 C14.5198179,20.4283575 14.6441071,20.3125037 14.7974256,20.3125037 Z M29.0849665,20.3125037 C29.2382849,20.3125037 29.3625741,20.4283575 29.3625741,20.5712706 C29.3625741,20.7141836 29.2382849,20.8300374 29.0849665,20.8300374 C28.931648,20.8300374 28.8073588,20.7141836 28.8073588,20.5712706 C28.8017646,20.5011723 28.8292108,20.4322804 28.8825336,20.3825765 C28.9358565,20.3328726 29.0097644,20.3072891 29.0849665,20.3125037 Z M18.1287175,19.260185 C18.282036,19.260185 18.4063251,19.3760389 18.4063251,19.5189519 C18.4066312,19.6649019 18.2849883,19.7858483 18.1287175,19.7949699 C17.9651778,19.7949699 17.8326026,19.6713924 17.8326026,19.5189519 C17.8423884,19.3732869 17.9721408,19.2598997 18.1287175,19.260185 Z M12.5765643,19.260185 C12.7298828,19.260185 12.8541719,19.3760389 12.8541719,19.5189519 C12.859302,19.590518 12.8323349,19.6608584 12.779707,19.713185 C12.7270791,19.7655115 12.6535121,19.7951295 12.5765643,19.7949699 C12.4202934,19.7858483 12.2986505,19.6649019 12.2989566,19.5189519 C12.2989566,19.3760389 12.4232458,19.260185 12.5765643,19.260185 Z M10.3186886,19.260185 C10.4752653,19.2598997 10.6050177,19.3732869 10.6148035,19.5189519 C10.6148035,19.5921564 10.5836058,19.6623627 10.5280734,19.7141261 C10.4725411,19.7658895 10.3972232,19.7949699 10.3186886,19.7949699 C10.1624178,19.7858483 10.0407749,19.6649019 10.041081,19.5189519 C10.041081,19.3760389 10.1653702,19.260185 10.3186886,19.260185 Z M20.27555,19.260185 C20.4288685,19.260185 20.5531577,19.3760389 20.5531577,19.5189519 C20.5534638,19.6649019 20.4318209,19.7858483 20.27555,19.7949699 C20.1120103,19.7949699 19.9794352,19.6713924 19.9794352,19.5189519 C19.989221,19.3732869 20.1189734,19.2598997 20.27555,19.260185 Z M14.7974256,19.260185 C14.8710517,19.260185 14.9416623,19.2874479 14.9937238,19.3359761 C15.0457853,19.3845043 15.0750332,19.4503226 15.0750332,19.5189519 C15.0801633,19.590518 15.0531962,19.6608584 15.0005683,19.713185 C14.9479404,19.7655115 14.8743734,19.7951295 14.7974256,19.7949699 C14.6411547,19.7858483 14.5195118,19.6649019 14.5198179,19.5189519 C14.5198179,19.4503226 14.5490658,19.3845043 14.6011273,19.3359761 C14.6531888,19.2874479 14.7237994,19.260185 14.7974256,19.260185 Z M22.4964113,19.260185 C22.652988,19.2598997 22.7827404,19.3732869 22.7925262,19.5189519 C22.7925262,19.6713924 22.659951,19.7949699 22.4964113,19.7949699 C22.3401405,19.7858483 22.2184976,19.6649019 22.2188037,19.5189519 C22.2188037,19.3760389 22.3430929,19.260185 22.4964113,19.260185 Z M15.9263634,19.260185 C15.9999895,19.260185 16.0706001,19.2874479 16.1226616,19.3359761 C16.1747232,19.3845043 16.203971,19.4503226 16.203971,19.5189519 C16.2042771,19.6649019 16.0826342,19.7858483 15.9263634,19.7949699 C15.8494156,19.7951295 15.7758485,19.7655115 15.7232206,19.713185 C15.6705927,19.6608584 15.6436257,19.590518 15.6487557,19.5189519 C15.6487557,19.3760389 15.7730449,19.260185 15.9263634,19.260185 Z M29.0849665,19.260185 C29.2382849,19.260185 29.3625741,19.3760389 29.3625741,19.5189519 C29.3625741,19.6618649 29.2382849,19.7777188 29.0849665,19.7777188 C29.0097644,19.7829333 28.9358565,19.7573498 28.8825336,19.7076459 C28.8292108,19.657942 28.8017646,19.5890501 28.8073588,19.5189519 C28.8073588,19.3760389 28.931648,19.260185 29.0849665,19.260185 Z M19.1466122,19.260185 C19.2999307,19.260185 19.4242199,19.3760389 19.4242199,19.5189519 C19.4242199,19.6618649 19.2999307,19.7777188 19.1466122,19.7777188 C18.9932938,19.7777188 18.8690046,19.6618649 18.8690046,19.5189519 C18.8690046,19.3760389 18.9932938,19.260185 19.1466122,19.260185 Z M13.6869949,19.260185 C13.760621,19.260185 13.8312316,19.2874479 13.8832932,19.3359761 C13.9353547,19.3845043 13.9646026,19.4503226 13.9646026,19.5189519 C13.9646026,19.6618649 13.8403134,19.7777188 13.6869949,19.7777188 C13.5336764,19.7777188 13.4093873,19.6618649 13.4093873,19.5189519 C13.4093873,19.3760389 13.5336764,19.260185 13.6869949,19.260185 Z M21.3859807,19.260185 C21.5392992,19.260185 21.6635883,19.3760389 21.6635883,19.5189519 C21.6635883,19.6618649 21.5392992,19.7777188 21.3859807,19.7777188 C21.2326622,19.7777188 21.108373,19.6618649 21.108373,19.5189519 C21.108373,19.3760389 21.2326622,19.260185 21.3859807,19.260185 Z M16.9072438,19.260185 C17.0605622,19.260185 17.1848514,19.3760389 17.1848514,19.5189519 C17.1848514,19.6618649 17.0605622,19.7777188 16.9072438,19.7777188 C16.7539253,19.7777188 16.6296361,19.6618649 16.6296361,19.5189519 C16.6296361,19.3760389 16.7539253,19.260185 16.9072438,19.260185 Z M23.606842,19.260185 C23.7601604,19.260185 23.8844496,19.3760389 23.8844496,19.5189519 C23.8844496,19.6618649 23.7601604,19.7777188 23.606842,19.7777188 C23.4535235,19.7777188 23.3292343,19.6618649 23.3292343,19.5189519 C23.3292343,19.3760389 23.4535235,19.260185 23.606842,19.260185 Z M11.4476265,19.260185 C11.6009449,19.260185 11.7252341,19.3760389 11.7252341,19.5189519 C11.7252341,19.6618649 11.6009449,19.7777188 11.4476265,19.7777188 C11.294308,19.7777188 11.1700188,19.6618649 11.1700188,19.5189519 C11.1700188,19.3760389 11.294308,19.260185 11.4476265,19.260185 Z M24.7357798,19.260185 C24.8890983,19.260185 25.0133874,19.3760389 25.0133874,19.5189519 C25.0133874,19.6618649 24.8890983,19.7777188 24.7357798,19.7777188 C24.6605777,19.7829333 24.5866698,19.7573498 24.533347,19.7076459 C24.4800241,19.657942 24.4525779,19.5890501 24.4581721,19.5189519 C24.4581721,19.3760389 24.5824613,19.260185 24.7357798,19.260185 Z M25.8462104,19.260185 C25.9995289,19.260185 26.1238181,19.3760389 26.1238181,19.5189519 C26.1294123,19.5890501 26.1019661,19.657942 26.0486432,19.7076459 C25.9953204,19.7573498 25.9214125,19.7829333 25.8462104,19.7777188 C25.692892,19.7777188 25.5686028,19.6618649 25.5686028,19.5189519 C25.5686028,19.3760389 25.692892,19.260185 25.8462104,19.260185 Z M26.9751482,19.260185 C27.1284667,19.260185 27.2527559,19.3760389 27.2527559,19.5189519 C27.2527559,19.6618649 27.1284667,19.7777188 26.9751482,19.7777188 C26.8218298,19.7777188 26.6975406,19.6618649 26.6975406,19.5189519 C26.6975406,19.3760389 26.8218298,19.260185 26.9751482,19.260185 Z M28.0855789,19.260185 C28.2388974,19.260185 28.3631865,19.3760389 28.3631865,19.5189519 C28.3687808,19.5890501 28.3413345,19.657942 28.2880117,19.7076459 C28.2346889,19.7573498 28.160781,19.7829333 28.0855789,19.7777188 C27.9322604,19.7777188 27.8079712,19.6618649 27.8079712,19.5189519 C27.8079712,19.3760389 27.9322604,19.260185 28.0855789,19.260185 Z M24.7357798,18.2251175 C24.8890983,18.2251175 25.0133874,18.3409713 25.0133874,18.4838843 C25.0133874,18.6267973 24.8890983,18.7426512 24.7357798,18.7426512 C24.6621537,18.7426512 24.5915431,18.7153884 24.5394815,18.6668602 C24.48742,18.618332 24.4581721,18.5525136 24.4581721,18.4838843 C24.4525779,18.4137861 24.4800241,18.3448942 24.533347,18.2951903 C24.5866698,18.2454864 24.6605777,18.2199029 24.7357798,18.2251175 Z M25.8462104,18.2251175 C25.9214125,18.2199029 25.9953204,18.2454864 26.0486432,18.2951903 C26.1019661,18.3448942 26.1294123,18.4137861 26.1238181,18.4838843 C26.1238181,18.6267973 25.9995289,18.7426512 25.8462104,18.7426512 C25.692892,18.7426512 25.5686028,18.6267973 25.5686028,18.4838843 C25.5686028,18.3409713 25.692892,18.2251175 25.8462104,18.2251175 Z M20.27555,18.2251175 C20.4288685,18.2251175 20.5531577,18.3409713 20.5531577,18.4838843 C20.5531577,18.6267973 20.4288685,18.7426512 20.27555,18.7426512 C20.1222316,18.7426512 19.9979424,18.6267973 19.9979424,18.4838843 C19.9979424,18.3409713 20.1222316,18.2251175 20.27555,18.2251175 Z M26.9751482,18.2251175 C27.1284667,18.2251175 27.2527559,18.3409713 27.2527559,18.4838843 C27.2527559,18.6267973 27.1284667,18.7426512 26.9751482,18.7426512 C26.8218298,18.7426512 26.6975406,18.6267973 26.6975406,18.4838843 C26.6975406,18.3409713 26.8218298,18.2251175 26.9751482,18.2251175 Z M13.6869949,18.2251175 C13.8403134,18.2251175 13.9646026,18.3409713 13.9646026,18.4838843 C13.9646026,18.6267973 13.8403134,18.7426512 13.6869949,18.7426512 C13.5336764,18.7426512 13.4093873,18.6267973 13.4093873,18.4838843 C13.4093873,18.3409713 13.5336764,18.2251175 13.6869949,18.2251175 Z M10.3186886,18.2251175 C10.4720071,18.2251175 10.5962963,18.3409713 10.5962963,18.4838843 C10.5962963,18.6267973 10.4720071,18.7426512 10.3186886,18.7426512 C10.1653702,18.7426512 10.041081,18.6267973 10.041081,18.4838843 C10.041081,18.3409713 10.1653702,18.2251175 10.3186886,18.2251175 Z M21.3859807,18.2251175 C21.5392992,18.2251175 21.6635883,18.3409713 21.6635883,18.4838843 C21.6635883,18.6267973 21.5392992,18.7426512 21.3859807,18.7426512 C21.2326622,18.7426512 21.108373,18.6267973 21.108373,18.4838843 C21.108373,18.3409713 21.2326622,18.2251175 21.3859807,18.2251175 Z M11.4476265,18.2251175 C11.6009449,18.2251175 11.7252341,18.3409713 11.7252341,18.4838843 C11.7252341,18.6267973 11.6009449,18.7426512 11.4476265,18.7426512 C11.294308,18.7426512 11.1700188,18.6267973 11.1700188,18.4838843 C11.1700188,18.3409713 11.294308,18.2251175 11.4476265,18.2251175 Z M22.4964113,18.2251175 C22.6497298,18.2251175 22.774019,18.3409713 22.774019,18.4838843 C22.774019,18.6267973 22.6497298,18.7426512 22.4964113,18.7426512 C22.3430929,18.7426512 22.2188037,18.6267973 22.2188037,18.4838843 C22.2188037,18.3409713 22.3430929,18.2251175 22.4964113,18.2251175 Z M23.606842,18.2251175 C23.7601604,18.2251175 23.8844496,18.3409713 23.8844496,18.4838843 C23.8844496,18.6267973 23.7601604,18.7426512 23.606842,18.7426512 C23.4535235,18.7426512 23.3292343,18.6267973 23.3292343,18.4838843 C23.3292343,18.3409713 23.4535235,18.2251175 23.606842,18.2251175 Z M15.9263634,18.2251175 C16.0796819,18.2251175 16.203971,18.3409713 16.203971,18.4838843 C16.203971,18.6267973 16.0796819,18.7426512 15.9263634,18.7426512 C15.7730449,18.7426512 15.6487557,18.6267973 15.6487557,18.4838843 C15.6487557,18.3409713 15.7730449,18.2251175 15.9263634,18.2251175 Z M12.5765643,18.2251175 C12.7298828,18.2251175 12.8541719,18.3409713 12.8541719,18.4838843 C12.8541719,18.6267973 12.7298828,18.7426512 12.5765643,18.7426512 C12.4232458,18.7426512 12.2989566,18.6267973 12.2989566,18.4838843 C12.2989566,18.3409713 12.4232458,18.2251175 12.5765643,18.2251175 Z M29.0849665,18.2251175 C29.2382849,18.2251175 29.3625741,18.3409713 29.3625741,18.4838843 C29.3625741,18.5525136 29.3333263,18.618332 29.2812647,18.6668602 C29.2292032,18.7153884 29.1585926,18.7426512 29.0849665,18.7426512 C28.931648,18.7426512 28.8073588,18.6267973 28.8073588,18.4838843 C28.8017646,18.4137861 28.8292108,18.3448942 28.8825336,18.2951903 C28.9358565,18.2454864 29.0097644,18.2199029 29.0849665,18.2251175 Z M19.1466122,18.2251175 C19.2999307,18.2251175 19.4242199,18.3409713 19.4242199,18.4838843 C19.4242199,18.6267973 19.2999307,18.7426512 19.1466122,18.7426512 C18.9932938,18.7426512 18.8690046,18.6267973 18.8690046,18.4838843 C18.8690046,18.3409713 18.9932938,18.2251175 19.1466122,18.2251175 Z M14.7974256,18.2251175 C14.950744,18.2251175 15.0750332,18.3409713 15.0750332,18.4838843 C15.0750332,18.6267973 14.950744,18.7426512 14.7974256,18.7426512 C14.6441071,18.7426512 14.5198179,18.6267973 14.5198179,18.4838843 C14.5198179,18.3409713 14.6441071,18.2251175 14.7974256,18.2251175 Z M28.0855789,18.2251175 C28.160781,18.2199029 28.2346889,18.2454864 28.2880117,18.2951903 C28.3413345,18.3448942 28.3687808,18.4137861 28.3631865,18.4838843 C28.3631865,18.6267973 28.2388974,18.7426512 28.0855789,18.7426512 C28.0119528,18.7426512 27.9413422,18.7153884 27.8892806,18.6668602 C27.8372191,18.618332 27.8079712,18.5525136 27.8079712,18.4838843 C27.8079712,18.3409713 27.9322604,18.2251175 28.0855789,18.2251175 Z M16.9072438,18.2251175 C17.0605622,18.2251175 17.1848514,18.3409713 17.1848514,18.4838843 C17.1848514,18.6267973 17.0605622,18.7426512 16.9072438,18.7426512 C16.7539253,18.7426512 16.6296361,18.6267973 16.6296361,18.4838843 C16.6296361,18.3409713 16.7539253,18.2251175 16.9072438,18.2251175 Z M18.1287175,18.2251175 C18.282036,18.2251175 18.4063251,18.3409713 18.4063251,18.4838843 C18.4063251,18.6267973 18.282036,18.7426512 18.1287175,18.7426512 C17.975399,18.7426512 17.8511098,18.6267973 17.8511098,18.4838843 C17.8511098,18.3409713 17.975399,18.2251175 18.1287175,18.2251175 Z M22.4964113,17.1727988 C22.652988,17.1725135 22.7827404,17.2859007 22.7925262,17.4315657 C22.7925262,17.5840062 22.659951,17.7075837 22.4964113,17.7075837 C22.3401405,17.6984621 22.2184976,17.5775157 22.2188037,17.4315657 C22.2188037,17.2886527 22.3430929,17.1727988 22.4964113,17.1727988 Z M12.5765643,17.1727988 C12.7298828,17.1727988 12.8541719,17.2886527 12.8541719,17.4315657 C12.859302,17.5031318 12.8323349,17.5734722 12.779707,17.6257988 C12.7270791,17.6781253 12.6535121,17.7077433 12.5765643,17.7075837 C12.4202934,17.6984621 12.2986505,17.5775157 12.2989566,17.4315657 C12.2989566,17.2886527 12.4232458,17.1727988 12.5765643,17.1727988 Z M14.7974256,17.1727988 C14.8710517,17.1727988 14.9416623,17.2000617 14.9937238,17.2485899 C15.0457853,17.2971181 15.0750332,17.3629364 15.0750332,17.4315657 C15.0801633,17.5031318 15.0531962,17.5734722 15.0005683,17.6257988 C14.9479404,17.6781253 14.8743734,17.7077433 14.7974256,17.7075837 C14.6411547,17.6984621 14.5195118,17.5775157 14.5198179,17.4315657 C14.5198179,17.3629364 14.5490658,17.2971181 14.6011273,17.2485899 C14.6531888,17.2000617 14.7237994,17.1727988 14.7974256,17.1727988 Z M20.27555,17.1727988 C20.4288685,17.1727988 20.5531577,17.2886527 20.5531577,17.4315657 C20.5534638,17.5775157 20.4318209,17.6984621 20.27555,17.7075837 C20.1120103,17.7075837 19.9794352,17.5840062 19.9794352,17.4315657 C19.989221,17.2859007 20.1189734,17.1725135 20.27555,17.1727988 Z M18.0361816,17.1727988 C18.1895001,17.1727988 18.3137893,17.2886527 18.3137893,17.4315657 C18.3137893,17.5744787 18.1895001,17.6903326 18.0361816,17.6903326 C17.8828631,17.6903326 17.7585739,17.5744787 17.7585739,17.4315657 C17.7585739,17.2886527 17.8828631,17.1727988 18.0361816,17.1727988 Z M16.9072438,17.1727988 C17.0605622,17.1727988 17.1848514,17.2886527 17.1848514,17.4315657 C17.1848514,17.5744787 17.0605622,17.6903326 16.9072438,17.6903326 C16.7539253,17.6903326 16.6296361,17.5744787 16.6296361,17.4315657 C16.6296361,17.2886527 16.7539253,17.1727988 16.9072438,17.1727988 Z M23.6808707,17.1727988 C23.8341892,17.1727988 23.9584783,17.2886527 23.9584783,17.4315657 C23.9640725,17.5016639 23.9366263,17.5705558 23.8833035,17.6202597 C23.8299807,17.6699636 23.7560728,17.6955471 23.6808707,17.6903326 C23.6072446,17.6903326 23.536634,17.6630697 23.4845724,17.6145415 C23.4325109,17.5660133 23.403263,17.5001949 23.403263,17.4315657 C23.403263,17.2886527 23.5275522,17.1727988 23.6808707,17.1727988 Z M15.9263634,17.1727988 C16.0796819,17.1727988 16.203971,17.2886527 16.203971,17.4315657 C16.203971,17.5744787 16.0796819,17.6903326 15.9263634,17.6903326 C15.7730449,17.6903326 15.6487557,17.5744787 15.6487557,17.4315657 C15.6487557,17.2886527 15.7730449,17.1727988 15.9263634,17.1727988 Z M19.1466122,17.1727988 C19.2999307,17.1727988 19.4242199,17.2886527 19.4242199,17.4315657 C19.4242199,17.5744787 19.2999307,17.6903326 19.1466122,17.6903326 C18.9932938,17.6903326 18.8690046,17.5744787 18.8690046,17.4315657 C18.8690046,17.2886527 18.9932938,17.1727988 19.1466122,17.1727988 Z M11.4476265,17.1727988 C11.6009449,17.1727988 11.7252341,17.2886527 11.7252341,17.4315657 C11.7252341,17.5744787 11.6009449,17.6903326 11.4476265,17.6903326 C11.294308,17.6903326 11.1700188,17.5744787 11.1700188,17.4315657 C11.1700188,17.2886527 11.294308,17.1727988 11.4476265,17.1727988 Z M24.7357798,17.1727988 C24.8890983,17.1727988 25.0133874,17.2886527 25.0133874,17.4315657 C25.0133874,17.5744787 24.8890983,17.6903326 24.7357798,17.6903326 C24.6605777,17.6955471 24.5866698,17.6699636 24.533347,17.6202597 C24.4800241,17.5705558 24.4525779,17.5016639 24.4581721,17.4315657 C24.4581721,17.2886527 24.5824613,17.1727988 24.7357798,17.1727988 Z M28.0855789,17.1727988 C28.2388974,17.1727988 28.3631865,17.2886527 28.3631865,17.4315657 C28.3687808,17.5016639 28.3413345,17.5705558 28.2880117,17.6202597 C28.2346889,17.6699636 28.160781,17.6955471 28.0855789,17.6903326 C28.0119528,17.6903326 27.9413422,17.6630697 27.8892806,17.6145415 C27.8372191,17.5660133 27.8079712,17.5001949 27.8079712,17.4315657 C27.8079712,17.2886527 27.9322604,17.1727988 28.0855789,17.1727988 Z M21.3859807,17.1727988 C21.5392992,17.1727988 21.6635883,17.2886527 21.6635883,17.4315657 C21.6635883,17.5744787 21.5392992,17.6903326 21.3859807,17.6903326 C21.2326622,17.6903326 21.108373,17.5744787 21.108373,17.4315657 C21.108373,17.2886527 21.2326622,17.1727988 21.3859807,17.1727988 Z M10.3186886,17.1727988 C10.4720071,17.1727988 10.5962963,17.2886527 10.5962963,17.4315657 C10.5962963,17.5744787 10.4720071,17.6903326 10.3186886,17.6903326 C10.1653702,17.6903326 10.041081,17.5744787 10.041081,17.4315657 C10.041081,17.2886527 10.1653702,17.1727988 10.3186886,17.1727988 Z M25.8462104,17.1727988 C25.9995289,17.1727988 26.1238181,17.2886527 26.1238181,17.4315657 C26.1294123,17.5016639 26.1019661,17.5705558 26.0486432,17.6202597 C25.9953204,17.6699636 25.9214125,17.6955471 25.8462104,17.6903326 C25.692892,17.6903326 25.5686028,17.5744787 25.5686028,17.4315657 C25.5686028,17.2886527 25.692892,17.1727988 25.8462104,17.1727988 Z M13.6869949,17.1727988 C13.8403134,17.1727988 13.9646026,17.2886527 13.9646026,17.4315657 C13.9646026,17.5744787 13.8403134,17.6903326 13.6869949,17.6903326 C13.5336764,17.6903326 13.4093873,17.5744787 13.4093873,17.4315657 C13.4093873,17.2886527 13.5336764,17.1727988 13.6869949,17.1727988 Z M26.9751482,17.1727988 C27.1284667,17.1727988 27.2527559,17.2886527 27.2527559,17.4315657 C27.2527559,17.5744787 27.1284667,17.6903326 26.9751482,17.6903326 C26.8999462,17.6955471 26.8260383,17.6699636 26.7727154,17.6202597 C26.7193926,17.5705558 26.6919464,17.5016639 26.6975406,17.4315657 C26.6975406,17.2886527 26.8218298,17.1727988 26.9751482,17.1727988 Z M18.1287175,16.2239869 C18.282036,16.2239869 18.4063251,16.3398408 18.4063251,16.4827538 C18.4063251,16.6256668 18.282036,16.7415206 18.1287175,16.7415206 C17.975399,16.7415206 17.8511098,16.6256668 17.8511098,16.4827538 C17.8511098,16.3398408 17.975399,16.2239869 18.1287175,16.2239869 Z M12.5765643,16.2239869 C12.7298828,16.2239869 12.8541719,16.3398408 12.8541719,16.4827538 C12.8541719,16.6256668 12.7298828,16.7415206 12.5765643,16.7415206 C12.4232458,16.7415206 12.2989566,16.6256668 12.2989566,16.4827538 C12.2989566,16.3398408 12.4232458,16.2239869 12.5765643,16.2239869 Z M19.1466122,16.2239869 C19.2999307,16.2239869 19.4242199,16.3398408 19.4242199,16.4827538 C19.4242199,16.6256668 19.2999307,16.7415206 19.1466122,16.7415206 C18.9932938,16.7415206 18.8690046,16.6256668 18.8690046,16.4827538 C18.8690046,16.3398408 18.9932938,16.2239869 19.1466122,16.2239869 Z M26.9751482,16.2239869 C27.1284667,16.2239869 27.2527559,16.3398408 27.2527559,16.4827538 C27.2527559,16.6256668 27.1284667,16.7415206 26.9751482,16.7415206 C26.8218298,16.7415206 26.6975406,16.6256668 26.6975406,16.4827538 C26.6919464,16.4126555 26.7193926,16.3437636 26.7727154,16.2940597 C26.8260383,16.2443558 26.8999462,16.2187723 26.9751482,16.2239869 Z M15.9263634,16.2239869 C16.0796819,16.2239869 16.203971,16.3398408 16.203971,16.4827538 C16.203971,16.6256668 16.0796819,16.7415206 15.9263634,16.7415206 C15.7730449,16.7415206 15.6487557,16.6256668 15.6487557,16.4827538 C15.6487557,16.3398408 15.7730449,16.2239869 15.9263634,16.2239869 Z M22.4964113,16.2239869 C22.6497298,16.2239869 22.774019,16.3398408 22.774019,16.4827538 C22.774019,16.6256668 22.6497298,16.7415206 22.4964113,16.7415206 C22.3430929,16.7415206 22.2188037,16.6256668 22.2188037,16.4827538 C22.2188037,16.3398408 22.3430929,16.2239869 22.4964113,16.2239869 Z M28.0855789,16.2239869 C28.160781,16.2187723 28.2346889,16.2443558 28.2880117,16.2940597 C28.3413345,16.3437636 28.3687808,16.4126555 28.3631865,16.4827538 C28.3631865,16.6256668 28.2388974,16.7415206 28.0855789,16.7415206 C27.9322604,16.7415206 27.8079712,16.6256668 27.8079712,16.4827538 C27.8079712,16.3398408 27.9322604,16.2239869 28.0855789,16.2239869 Z M11.4476265,16.2239869 C11.6009449,16.2239869 11.7252341,16.3398408 11.7252341,16.4827538 C11.7252341,16.6256668 11.6009449,16.7415206 11.4476265,16.7415206 C11.294308,16.7415206 11.1700188,16.6256668 11.1700188,16.4827538 C11.1700188,16.3398408 11.294308,16.2239869 11.4476265,16.2239869 Z M20.27555,16.2239869 C20.4288685,16.2239869 20.5531577,16.3398408 20.5531577,16.4827538 C20.5531577,16.6256668 20.4288685,16.7415206 20.27555,16.7415206 C20.1222316,16.7415206 19.9979424,16.6256668 19.9979424,16.4827538 C19.9979424,16.3398408 20.1222316,16.2239869 20.27555,16.2239869 Z M13.6869949,16.2239869 C13.8403134,16.2239869 13.9646026,16.3398408 13.9646026,16.4827538 C13.9646026,16.6256668 13.8403134,16.7415206 13.6869949,16.7415206 C13.5336764,16.7415206 13.4093873,16.6256668 13.4093873,16.4827538 C13.4093873,16.3398408 13.5336764,16.2239869 13.6869949,16.2239869 Z M21.3859807,16.2239869 C21.5392992,16.2239869 21.6635883,16.3398408 21.6635883,16.4827538 C21.6635883,16.6256668 21.5392992,16.7415206 21.3859807,16.7415206 C21.2326622,16.7415206 21.108373,16.6256668 21.108373,16.4827538 C21.108373,16.3398408 21.2326622,16.2239869 21.3859807,16.2239869 Z M10.3186886,16.2239869 C10.4720071,16.2239869 10.5962963,16.3398408 10.5962963,16.4827538 C10.5962963,16.6256668 10.4720071,16.7415206 10.3186886,16.7415206 C10.1653702,16.7415206 10.041081,16.6256668 10.041081,16.4827538 C10.041081,16.3398408 10.1653702,16.2239869 10.3186886,16.2239869 Z M14.7974256,16.2239869 C14.950744,16.2239869 15.0750332,16.3398408 15.0750332,16.4827538 C15.0750332,16.6256668 14.950744,16.7415206 14.7974256,16.7415206 C14.6441071,16.7415206 14.5198179,16.6256668 14.5198179,16.4827538 C14.5198179,16.3398408 14.6441071,16.2239869 14.7974256,16.2239869 Z M24.7357798,16.2239869 C24.8890983,16.2239869 25.0133874,16.3398408 25.0133874,16.4827538 C25.0133874,16.6256668 24.8890983,16.7415206 24.7357798,16.7415206 C24.5824613,16.7415206 24.4581721,16.6256668 24.4581721,16.4827538 C24.4525779,16.4126555 24.4800241,16.3437636 24.533347,16.2940597 C24.5866698,16.2443558 24.6605777,16.2187723 24.7357798,16.2239869 Z M16.9072438,16.2239869 C17.0605622,16.2239869 17.1848514,16.3398408 17.1848514,16.4827538 C17.1848514,16.6256668 17.0605622,16.7415206 16.9072438,16.7415206 C16.7539253,16.7415206 16.6296361,16.6256668 16.6296361,16.4827538 C16.6296361,16.3398408 16.7539253,16.2239869 16.9072438,16.2239869 Z M25.8462104,16.2239869 C25.9214125,16.2187723 25.9953204,16.2443558 26.0486432,16.2940597 C26.1019661,16.3437636 26.1294123,16.4126555 26.1238181,16.4827538 C26.1238181,16.6256668 25.9995289,16.7415206 25.8462104,16.7415206 C25.692892,16.7415206 25.5686028,16.6256668 25.5686028,16.4827538 C25.5686028,16.3398408 25.692892,16.2239869 25.8462104,16.2239869 Z M23.6808707,16.2239869 C23.7560728,16.2187723 23.8299807,16.2443558 23.8833035,16.2940597 C23.9366263,16.3437636 23.9640725,16.4126555 23.9584783,16.4827538 C23.9584783,16.6256668 23.8341892,16.7415206 23.6808707,16.7415206 C23.5275522,16.7415206 23.403263,16.6256668 23.403263,16.4827538 C23.403263,16.3398408 23.5275522,16.2239869 23.6808707,16.2239869 Z M12.5765643,15.0854126 C12.6501904,15.0854126 12.720801,15.1126754 12.7728625,15.1612036 C12.8249241,15.2097319 12.8541719,15.2755502 12.8541719,15.3441795 C12.8511206,15.4162761 12.8179041,15.4843929 12.761636,15.5339418 C12.7112653,15.5899153 12.6364199,15.6216271 12.5580571,15.6201975 C12.4017863,15.6110759 12.2801433,15.4901295 12.2804494,15.3441795 C12.2789167,15.2759761 12.3135303,15.2114473 12.3729853,15.1716682 C12.4233561,15.1156947 12.4982015,15.083983 12.5765643,15.0854126 Z M22.5149185,15.0854126 C22.5885446,15.0854126 22.6591552,15.1126754 22.7112168,15.1612036 C22.7632783,15.2097319 22.7925262,15.2755502 22.7925262,15.3441795 C22.816586,15.4054457 22.816586,15.4726756 22.7925262,15.5339418 C22.7421554,15.5899153 22.66731,15.6216271 22.5889472,15.6201975 C22.4326764,15.6110759 22.3110335,15.4901295 22.3113396,15.3441795 C22.2844107,15.289415 22.2844107,15.2264327 22.3113396,15.1716682 C22.3617103,15.1156947 22.4365557,15.083983 22.5149185,15.0854126 Z M13.6869949,15.0854126 C13.8403134,15.0854126 13.9646026,15.2012665 13.9646026,15.3441795 C13.982691,15.40631 13.982691,15.4718113 13.9646026,15.5339418 C13.911446,15.5863911 13.8383696,15.6173533 13.7610236,15.6201975 C13.6047528,15.6110759 13.4831099,15.4901295 13.483416,15.3441795 C13.4622471,15.2883685 13.4622471,15.2274792 13.483416,15.1716682 C13.5365726,15.119219 13.6096489,15.0882568 13.6869949,15.0854126 Z M21.3859807,15.0854126 C21.5392992,15.0854126 21.6635883,15.2012665 21.6635883,15.3441795 C21.689368,15.4051514 21.689368,15.4729699 21.6635883,15.5339418 C21.6104318,15.5863911 21.5373554,15.6173533 21.4600094,15.6201975 C21.3037386,15.6110759 21.1820956,15.4901295 21.1824017,15.3441795 C21.1612329,15.2883685 21.1612329,15.2274792 21.1824017,15.1716682 C21.2355583,15.119219 21.3086347,15.0882568 21.3859807,15.0854126 Z M19.1466122,15.0854126 C19.2202384,15.0854126 19.290849,15.1126754 19.3429105,15.1612036 C19.394972,15.2097319 19.4242199,15.2755502 19.4242199,15.3441795 C19.4499995,15.4051514 19.4499995,15.4729699 19.4242199,15.5339418 C19.3710633,15.5863911 19.297987,15.6173533 19.2206409,15.6201975 C19.0643701,15.6110759 18.9427272,15.4901295 18.9430333,15.3441795 C18.9218644,15.2883685 18.9218644,15.2274792 18.9430333,15.1716682 C18.9961899,15.119219 19.0692662,15.0882568 19.1466122,15.0854126 Z M20.27555,15.0854126 C20.3491762,15.0854126 20.4197868,15.1126754 20.4718483,15.1612036 C20.5239098,15.2097319 20.5531577,15.2755502 20.5531577,15.3441795 C20.5501064,15.4162761 20.5168899,15.4843929 20.4606218,15.5339418 C20.4179465,15.5893617 20.3487193,15.6216262 20.27555,15.6201975 C20.1120103,15.6201975 19.9794352,15.49662 19.9794352,15.3441795 C19.9779025,15.2759761 20.0125161,15.2114473 20.0719711,15.1716682 C20.1223418,15.1156947 20.1971872,15.083983 20.27555,15.0854126 Z M18.1287175,15.0854126 C18.2453367,15.1236375 18.3207892,15.229135 18.3137893,15.3441795 C18.3378491,15.4054457 18.3378491,15.4726756 18.3137893,15.5339418 C18.2711139,15.5893617 18.2018867,15.6216262 18.1287175,15.6201975 C17.9651778,15.6201975 17.8326026,15.49662 17.8326026,15.3441795 C17.8310699,15.2759761 17.8656835,15.2114473 17.9251385,15.1716682 C17.9782951,15.119219 18.0513715,15.0882568 18.1287175,15.0854126 Z M14.8159327,15.0854126 C14.8895589,15.0854126 14.9601695,15.1126754 15.012231,15.1612036 C15.0642925,15.2097319 15.0935404,15.2755502 15.0935404,15.3441795 C15.1176002,15.4054457 15.1176002,15.4726756 15.0935404,15.5339418 C15.0431697,15.5899153 14.9683242,15.6216271 14.8899614,15.6201975 C14.7336906,15.6110759 14.6120477,15.4901295 14.6123538,15.3441795 C14.5854249,15.289415 14.5854249,15.2264327 14.6123538,15.1716682 C14.6627245,15.1156947 14.7375699,15.083983 14.8159327,15.0854126 Z M11.4476265,15.0854126 C11.6009449,15.0854126 11.7252341,15.2012665 11.7252341,15.3441795 C11.7433226,15.40631 11.7433226,15.4718113 11.7252341,15.5339418 C11.6720775,15.5863911 11.5990012,15.6173533 11.5216552,15.6201975 C11.3653843,15.6110759 11.2437414,15.4901295 11.2440475,15.3441795 C11.2228786,15.2883685 11.2228786,15.2274792 11.2440475,15.1716682 C11.2972041,15.119219 11.3702804,15.0882568 11.4476265,15.0854126 Z M23.9820033,15.1354204 C24.0625887,15.2067808 24.0897411,15.3160673 24.0510142,15.413184 C24.0479629,15.4852806 24.0147464,15.5533974 23.9584783,15.6029464 C23.8934609,15.628837 23.8199168,15.628837 23.7548994,15.6029464 C23.6015809,15.6029464 23.4772917,15.4870925 23.4772917,15.3441795 C23.4503629,15.289415 23.4503629,15.2264327 23.4772917,15.1716682 C23.5276625,15.1156947 23.6025079,15.083983 23.6808707,15.0854126 C23.7829368,15.0443844 23.9014178,15.06406 23.9820033,15.1354204 Z M15.9263634,15.0854126 C15.9999895,15.0854126 16.0706001,15.1126754 16.1226616,15.1612036 C16.1747232,15.2097319 16.203971,15.2755502 16.203971,15.3441795 C16.2220595,15.40631 16.2220595,15.4718113 16.203971,15.5339418 C16.1508144,15.5863911 16.0777381,15.6173533 16.0003921,15.6201975 C15.9234443,15.6203571 15.8498772,15.5907391 15.7972493,15.5384125 C15.7446214,15.486086 15.7176544,15.4157455 15.7227844,15.3441795 C15.6958555,15.289415 15.6958555,15.2264327 15.7227844,15.1716682 C15.775941,15.119219 15.8490174,15.0882568 15.9263634,15.0854126 Z M16.9072438,15.0854126 C17.0312134,15.1173015 17.1154565,15.224382 17.1108227,15.3441795 C17.1366023,15.4051514 17.1366023,15.4729699 17.1108227,15.5339418 C17.0576661,15.5863911 16.9845898,15.6173533 16.9072438,15.6201975 C16.7509729,15.6110759 16.62933,15.4901295 16.6296361,15.3441795 C16.6520226,15.2108608 16.7642181,15.1062797 16.9072438,15.0854126 Z M10.3371958,15.0854126 C10.4108219,15.0854126 10.4814325,15.1126754 10.5334941,15.1612036 C10.5855556,15.2097319 10.6148035,15.2755502 10.6148035,15.3441795 C10.6388633,15.4054457 10.6388633,15.4726756 10.6148035,15.5339418 C10.5644327,15.5899153 10.4895873,15.6216271 10.4112245,15.6201975 C10.2549537,15.6110759 10.1333108,15.4901295 10.1336169,15.3441795 C10.106688,15.289415 10.106688,15.2264327 10.1336169,15.1716682 C10.1839876,15.1156947 10.258833,15.083983 10.3371958,15.0854126 Z M25.8647176,15.0854126 C25.9364247,15.1052638 25.9965028,15.151249 26.0313419,15.2129508 C26.066181,15.2746526 26.0728324,15.3468488 26.0497894,15.413184 C26.0738492,15.4744502 26.0738492,15.5416801 26.0497894,15.6029464 C25.984772,15.628837 25.9112278,15.628837 25.8462104,15.6029464 C25.692892,15.6029464 25.5686028,15.4870925 25.5686028,15.3441795 C25.56707,15.2759761 25.6016836,15.2114473 25.6611387,15.1716682 C25.7096698,15.1134809 25.785775,15.0812355 25.8647176,15.0854126 Z M24.7357798,15.0854126 C24.8242356,15.0824098 24.9089252,15.1189062 24.9637727,15.1836646 C25.0186202,15.248423 25.0370499,15.3336797 25.0133874,15.413184 C25.0314759,15.4753145 25.0314759,15.5408158 25.0133874,15.6029464 C24.9479762,15.6269763 24.8752198,15.6269763 24.8098085,15.6029464 C24.7346064,15.6081609 24.6606985,15.5825774 24.6073757,15.5328735 C24.5540529,15.4831696 24.5266066,15.4142777 24.5322008,15.3441795 C24.505272,15.289415 24.505272,15.2264327 24.5322008,15.1716682 C24.5853574,15.119219 24.6584338,15.0882568 24.7357798,15.0854126 Z M26.9751482,15.0854126 C27.0636041,15.0824098 27.1482937,15.1189062 27.2031412,15.1836646 C27.2579887,15.248423 27.2764184,15.3336797 27.2527559,15.413184 C27.2708444,15.4753145 27.2708444,15.5408158 27.2527559,15.6029464 C27.1873446,15.6269763 27.1145882,15.6269763 27.049177,15.6029464 C26.9739749,15.6081609 26.900067,15.5825774 26.8467441,15.5328735 C26.7934213,15.4831696 26.7659751,15.4142777 26.7715693,15.3441795 C26.7446404,15.289415 26.7446404,15.2264327 26.7715693,15.1716682 C26.8247259,15.119219 26.8978022,15.0882568 26.9751482,15.0854126 Z M16.9072438,14.050345 C16.9824458,14.0451305 17.0563538,14.070714 17.1096766,14.1204179 C17.1629994,14.1701218 17.1904456,14.2390137 17.1848514,14.3091119 C17.1848514,14.4520249 17.0605622,14.5678788 16.9072438,14.5678788 C16.7539253,14.5678788 16.6296361,14.4520249 16.6296361,14.3091119 C16.6296361,14.1661989 16.7539253,14.050345 16.9072438,14.050345 Z M19.1466122,14.050345 C19.2218143,14.0451305 19.2957222,14.070714 19.349045,14.1204179 C19.4023679,14.1701218 19.4298141,14.2390137 19.4242199,14.3091119 C19.4242199,14.4520249 19.2999307,14.5678788 19.1466122,14.5678788 C18.9932938,14.5678788 18.8690046,14.4520249 18.8690046,14.3091119 C18.8690046,14.1661989 18.9932938,14.050345 19.1466122,14.050345 Z M24.7357798,14.0330939 C24.8920506,14.0422155 25.0136935,14.1631619 25.0133874,14.3091119 C25.0133874,14.4520249 24.8890983,14.5678788 24.7357798,14.5678788 C24.5824613,14.5678788 24.4581721,14.4520249 24.4581721,14.3091119 C24.457866,14.1631619 24.579509,14.0422155 24.7357798,14.0330939 Z M22.5149185,14.050345 C22.668237,14.050345 22.7925262,14.1661989 22.7925262,14.3091119 C22.7925262,14.4520249 22.668237,14.5678788 22.5149185,14.5678788 C22.3616,14.5678788 22.2373108,14.4520249 22.2373108,14.3091119 C22.2317166,14.2390137 22.2591629,14.1701218 22.3124857,14.1204179 C22.3658085,14.070714 22.4397164,14.0451305 22.5149185,14.050345 Z M18.0361816,14.050345 C18.1895001,14.050345 18.3137893,14.1661989 18.3137893,14.3091119 C18.3137893,14.4520249 18.1895001,14.5678788 18.0361816,14.5678788 C17.8828631,14.5678788 17.7585739,14.4520249 17.7585739,14.3091119 C17.7585739,14.1661989 17.8828631,14.050345 18.0361816,14.050345 Z M11.4476265,14.050345 C11.6009449,14.050345 11.7252341,14.1661989 11.7252341,14.3091119 C11.7252341,14.4520249 11.6009449,14.5678788 11.4476265,14.5678788 C11.294308,14.5678788 11.1700188,14.4520249 11.1700188,14.3091119 C11.1700188,14.1661989 11.294308,14.050345 11.4476265,14.050345 Z M20.27555,14.050345 C20.4288685,14.050345 20.5531577,14.1661989 20.5531577,14.3091119 C20.5531577,14.4520249 20.4288685,14.5678788 20.27555,14.5678788 C20.1222316,14.5678788 19.9979424,14.4520249 19.9979424,14.3091119 C19.9923482,14.2390137 20.0197944,14.1701218 20.0731172,14.1204179 C20.1264401,14.070714 20.200348,14.0451305 20.27555,14.050345 Z M15.9263634,14.050345 C16.0796819,14.050345 16.203971,14.1661989 16.203971,14.3091119 C16.203971,14.4520249 16.0796819,14.5678788 15.9263634,14.5678788 C15.7730449,14.5678788 15.6487557,14.4520249 15.6487557,14.3091119 C15.6487557,14.1661989 15.7730449,14.050345 15.9263634,14.050345 Z M13.6869949,14.050345 C13.8403134,14.050345 13.9646026,14.1661989 13.9646026,14.3091119 C13.9646026,14.4520249 13.8403134,14.5678788 13.6869949,14.5678788 C13.5336764,14.5678788 13.4093873,14.4520249 13.4093873,14.3091119 C13.4093873,14.1661989 13.5336764,14.050345 13.6869949,14.050345 Z M21.3859807,14.050345 C21.5392992,14.050345 21.6635883,14.1661989 21.6635883,14.3091119 C21.6635883,14.4520249 21.5392992,14.5678788 21.3859807,14.5678788 C21.2326622,14.5678788 21.108373,14.4520249 21.108373,14.3091119 C21.108373,14.1661989 21.2326622,14.050345 21.3859807,14.050345 Z M14.8159327,14.050345 C14.9692512,14.050345 15.0935404,14.1661989 15.0935404,14.3091119 C15.0935404,14.4520249 14.9692512,14.5678788 14.8159327,14.5678788 C14.6626143,14.5678788 14.5383251,14.4520249 14.5383251,14.3091119 C14.5383251,14.1661989 14.6626143,14.050345 14.8159327,14.050345 Z M23.6253491,14.050345 C23.7786676,14.050345 23.9029568,14.1661989 23.9029568,14.3091119 C23.9029568,14.4520249 23.7786676,14.5678788 23.6253491,14.5678788 C23.4720307,14.5678788 23.3477415,14.4520249 23.3477415,14.3091119 C23.3477415,14.1661989 23.4720307,14.050345 23.6253491,14.050345 Z M12.5765643,14.050345 C12.7050842,14.0460257 12.8199612,14.1245514 12.8541719,14.2401074 C12.8541719,14.3087367 12.8249241,14.374555 12.7728625,14.4230832 C12.720801,14.4716114 12.6501904,14.4988743 12.5765643,14.4988743 C12.443259,14.5050547 12.321994,14.4273432 12.2804494,14.3091119 C12.2802782,14.2373864 12.3120527,14.1688123 12.3681891,14.1197561 C12.4243255,14.0707 12.4997875,14.0455632 12.5765643,14.050345 Z M13.6869949,12.9980264 C13.8403134,12.9980264 13.9646026,13.1138803 13.9646026,13.2567933 C13.9646026,13.3997063 13.8403134,13.5155601 13.6869949,13.5155601 C13.5336764,13.5155601 13.4093873,13.3997063 13.4093873,13.2567933 C13.4093873,13.1138803 13.5336764,12.9980264 13.6869949,12.9980264 Z M14.8159327,12.9980264 C14.9692512,12.9980264 15.0935404,13.1138803 15.0935404,13.2567933 C15.0935404,13.3997063 14.9692512,13.5155601 14.8159327,13.5155601 C14.6626143,13.5155601 14.5383251,13.3997063 14.5383251,13.2567933 C14.5383251,13.1138803 14.6626143,12.9980264 14.8159327,12.9980264 Z M16.9072438,12.9980264 C17.0605622,12.9980264 17.1848514,13.1138803 17.1848514,13.2567933 C17.1904456,13.3268915 17.1629994,13.3957834 17.1096766,13.4454873 C17.0563538,13.4951912 16.9824458,13.5207747 16.9072438,13.5155601 C16.7539253,13.5155601 16.6296361,13.3997063 16.6296361,13.2567933 C16.6296361,13.1138803 16.7539253,12.9980264 16.9072438,12.9980264 Z M18.0361816,12.9980264 C18.1895001,12.9980264 18.3137893,13.1138803 18.3137893,13.2567933 C18.3137893,13.3997063 18.1895001,13.5155601 18.0361816,13.5155601 C17.8828631,13.5155601 17.7585739,13.3997063 17.7585739,13.2567933 C17.7585739,13.1138803 17.8828631,12.9980264 18.0361816,12.9980264 Z M15.9263634,12.9980264 C16.0796819,12.9980264 16.203971,13.1138803 16.203971,13.2567933 C16.203971,13.3997063 16.0796819,13.5155601 15.9263634,13.5155601 C15.7730449,13.5155601 15.6487557,13.3997063 15.6487557,13.2567933 C15.6487557,13.1138803 15.7730449,12.9980264 15.9263634,12.9980264 Z M12.5765643,12.9980264 C12.7298828,12.9980264 12.8541719,13.1138803 12.8541719,13.2567933 C12.8541719,13.3997063 12.7298828,13.5155601 12.5765643,13.5155601 C12.4997875,13.520342 12.4243255,13.4952052 12.3681891,13.446149 C12.3120527,13.3970929 12.2802782,13.3285187 12.2804494,13.2567933 C12.2902352,13.1111283 12.4199876,12.9977411 12.5765643,12.9980264 Z M14.8159327,11.9629588 C14.9692512,11.9629588 15.0935404,12.0788127 15.0935404,12.2217257 C15.0935404,12.3646387 14.9692512,12.4804926 14.8159327,12.4804926 C14.6626143,12.4804926 14.5383251,12.3646387 14.5383251,12.2217257 C14.5383251,12.0788127 14.6626143,11.9629588 14.8159327,11.9629588 Z M16.9072438,11.9629588 C16.9824458,11.9577443 17.0563538,11.9833278 17.1096766,12.0330317 C17.1629994,12.0827356 17.1904456,12.1516275 17.1848514,12.2217257 C17.1848514,12.3646387 17.0605622,12.4804926 16.9072438,12.4804926 C16.7539253,12.4804926 16.6296361,12.3646387 16.6296361,12.2217257 C16.6296361,12.0788127 16.7539253,11.9629588 16.9072438,11.9629588 Z M18.0361816,11.9629588 C18.1895001,11.9629588 18.3137893,12.0788127 18.3137893,12.2217257 C18.3137893,12.3646387 18.1895001,12.4804926 18.0361816,12.4804926 C17.8828631,12.4804926 17.7585739,12.3646387 17.7585739,12.2217257 C17.7585739,12.0788127 17.8828631,11.9629588 18.0361816,11.9629588 Z M15.9263634,11.9629588 C16.0796819,11.9629588 16.203971,12.0788127 16.203971,12.2217257 C16.203971,12.3646387 16.0796819,12.4804926 15.9263634,12.4804926 C15.7730449,12.4804926 15.6487557,12.3646387 15.6487557,12.2217257 C15.6487557,12.0788127 15.7730449,11.9629588 15.9263634,11.9629588 Z M12.5765643,11.9629588 C12.6501904,11.9629588 12.720801,11.9902217 12.7728625,12.0387499 C12.8249241,12.0872781 12.8541719,12.1530965 12.8541719,12.2217257 C12.8541719,12.3646387 12.7298828,12.4804926 12.5765643,12.4804926 C12.4199876,12.4807779 12.2902352,12.3673907 12.2804494,12.2217257 C12.2802782,12.1500002 12.3120527,12.0814261 12.3681891,12.0323699 C12.4243255,11.9833138 12.4997875,11.9581769 12.5765643,11.9629588 Z M13.6869949,11.9629588 C13.8403134,11.9629588 13.9646026,12.0788127 13.9646026,12.2217257 C13.9646026,12.3646387 13.8403134,12.4804926 13.6869949,12.4804926 C13.5336764,12.4804926 13.4093873,12.3646387 13.4093873,12.2217257 C13.4093873,12.0788127 13.5336764,11.9629588 13.6869949,11.9629588 Z M18.1287175,10.9106402 C18.282036,10.9106402 18.4063251,11.026494 18.4063251,11.169407 C18.4063251,11.3123201 18.282036,11.4281739 18.1287175,11.4281739 C18.0535154,11.4333885 17.9796075,11.407805 17.9262847,11.3581011 C17.8729618,11.3083972 17.8455156,11.2395053 17.8511098,11.169407 C17.8511098,11.026494 17.975399,10.9106402 18.1287175,10.9106402 Z M15.9263634,10.9106402 C15.9999895,10.9106402 16.0706001,10.937903 16.1226616,10.9864312 C16.1747232,11.0349594 16.203971,11.1007778 16.203971,11.169407 C16.203971,11.3123201 16.0796819,11.4281739 15.9263634,11.4281739 C15.7730449,11.4281739 15.6487557,11.3123201 15.6487557,11.169407 C15.6487557,11.026494 15.7730449,10.9106402 15.9263634,10.9106402 Z M14.8159327,10.9106402 C14.9692512,10.9106402 15.0935404,11.026494 15.0935404,11.169407 C15.0935404,11.3123201 14.9692512,11.4281739 14.8159327,11.4281739 C14.7391559,11.4329558 14.663694,11.407819 14.6075576,11.3587628 C14.5514212,11.3097067 14.5196467,11.2411325 14.5198179,11.169407 C14.5296037,11.0237421 14.6593561,10.9103548 14.8159327,10.9106402 Z M16.9072438,10.9106402 C17.0605622,10.9106402 17.1848514,11.026494 17.1848514,11.169407 C17.1904456,11.2395053 17.1629994,11.3083972 17.1096766,11.3581011 C17.0563538,11.407805 16.9824458,11.4333885 16.9072438,11.4281739 C16.7539253,11.4281739 16.6296361,11.3123201 16.6296361,11.169407 C16.6296361,11.026494 16.7539253,10.9106402 16.9072438,10.9106402 Z M13.6869949,10.9106402 C13.760621,10.9106402 13.8312316,10.937903 13.8832932,10.9864312 C13.9353547,11.0349594 13.9646026,11.1007778 13.9646026,11.169407 C13.9646026,11.3123201 13.8403134,11.4281739 13.6869949,11.4281739 C13.5336764,11.4281739 13.4093873,11.3123201 13.4093873,11.169407 C13.4093873,11.026494 13.5336764,10.9106402 13.6869949,10.9106402 Z M15.9263634,9.87557262 C16.0796819,9.87557262 16.203971,9.9914265 16.203971,10.1343395 C16.203971,10.2772525 16.0796819,10.3931064 15.9263634,10.3931064 C15.7730449,10.3931064 15.6487557,10.2772525 15.6487557,10.1343395 C15.6487557,9.9914265 15.7730449,9.87557262 15.9263634,9.87557262 Z M14.8159327,9.87557262 C14.9692512,9.87557262 15.0935404,9.9914265 15.0935404,10.1343395 C15.0935404,10.2772525 14.9692512,10.3931064 14.8159327,10.3931064 C14.6626143,10.3931064 14.5383251,10.2772525 14.5383251,10.1343395 C14.5383251,9.9914265 14.6626143,9.87557262 14.8159327,9.87557262 Z M16.9072438,9.87557262 C16.9824458,9.87035809 17.0563538,9.89594158 17.1096766,9.94564547 C17.1629994,9.99534936 17.1904456,10.0642413 17.1848514,10.1343395 C17.1848514,10.2772525 17.0605622,10.3931064 16.9072438,10.3931064 C16.7539253,10.3931064 16.6296361,10.2772525 16.6296361,10.1343395 C16.6296361,10.0657103 16.658884,9.99989189 16.7109455,9.95136369 C16.763007,9.90283548 16.8336176,9.87557262 16.9072438,9.87557262 Z M18.0361816,9.87557262 C18.1895001,9.87557262 18.3137893,9.9914265 18.3137893,10.1343395 C18.3137893,10.2772525 18.1895001,10.3931064 18.0361816,10.3931064 C17.8828631,10.3931064 17.7585739,10.2772525 17.7585739,10.1343395 C17.7585739,9.9914265 17.8828631,9.87557262 18.0361816,9.87557262 Z M15.8153203,8.82325395 C15.9686388,8.82325395 16.092928,8.93910783 16.092928,9.08202084 C16.092928,9.22493384 15.9686388,9.34078772 15.8153203,9.34078772 C15.6620018,9.34078772 15.5377126,9.22493384 15.5377126,9.08202084 C15.5377126,8.93910783 15.6620018,8.82325395 15.8153203,8.82325395 Z M18.0361816,8.82325395 C18.1895001,8.82325395 18.3137893,8.93910783 18.3137893,9.08202084 C18.3137893,9.22493384 18.1895001,9.34078772 18.0361816,9.34078772 C17.8828631,9.34078772 17.7585739,9.22493384 17.7585739,9.08202084 C17.7585739,8.93910783 17.8828631,8.82325395 18.0361816,8.82325395 Z M16.9072438,8.82325395 C17.0605622,8.82325395 17.1848514,8.93910783 17.1848514,9.08202084 C17.1904456,9.15211907 17.1629994,9.22101098 17.1096766,9.27071488 C17.0563538,9.32041877 16.9824458,9.34600226 16.9072438,9.34078772 C16.7539253,9.34078772 16.6296361,9.22493384 16.6296361,9.08202084 C16.6296361,8.93910783 16.7539253,8.82325395 16.9072438,8.82325395 Z M16.9072438,7.78818641 C17.0605622,7.78818641 17.1848514,7.90404029 17.1848514,8.0469533 C17.1848514,8.1898663 17.0605622,8.30572018 16.9072438,8.30572018 C16.7539253,8.30572018 16.6296361,8.1898663 16.6296361,8.0469533 C16.6296361,7.90404029 16.7539253,7.78818641 16.9072438,7.78818641 Z M15.8153203,7.77093529 C15.9686388,7.77093529 16.092928,7.88678917 16.092928,8.02970217 C16.0932341,8.17565221 15.9715911,8.29659857 15.8153203,8.30572018 C15.7383725,8.30587976 15.6648054,8.27626179 15.6121776,8.22393525 C15.5595497,8.17160872 15.5325826,8.10126825 15.5377126,8.02970217 C15.5377126,7.88678917 15.6620018,7.77093529 15.8153203,7.77093529 Z M18.1287175,7.78818641 C18.282036,7.78818641 18.4063251,7.90404029 18.4063251,8.0469533 C18.4063251,8.1898663 18.282036,8.30572018 18.1287175,8.30572018 C17.975399,8.30572018 17.8511098,8.1898663 17.8511098,8.0469533 C17.8511098,7.90404029 17.975399,7.78818641 18.1287175,7.78818641 Z M16.9072438,6.73586774 C17.0605622,6.73586774 17.1848514,6.85172163 17.1848514,6.99463463 C17.1899815,7.06620071 17.1630144,7.13654118 17.1103865,7.18886771 C17.0577586,7.24119425 16.9841916,7.27081222 16.9072438,7.27065264 C16.7509729,7.26153103 16.62933,7.14058466 16.6296361,6.99463463 C16.6296361,6.85172163 16.7539253,6.73586774 16.9072438,6.73586774 Z M18.1287175,6.73586774 C18.282036,6.73586774 18.4063251,6.85172163 18.4063251,6.99463463 C18.4066312,7.14058466 18.2849883,7.26153103 18.1287175,7.27065264 C18.0517697,7.27081222 17.9782026,7.24119425 17.9255747,7.18886771 C17.8729468,7.13654118 17.8459798,7.06620071 17.8511098,6.99463463 C17.8511098,6.85172163 17.975399,6.73586774 18.1287175,6.73586774 Z M15.8153203,6.73586774 C15.9686388,6.73586774 16.092928,6.85172163 16.092928,6.99463463 C16.092928,7.13754763 15.9686388,7.25340152 15.8153203,7.25340152 C15.6620018,7.25340152 15.5377126,7.13754763 15.5377126,6.99463463 C15.5377126,6.85172163 15.6620018,6.73586774 15.8153203,6.73586774 Z M15.8153203,5.61454457 C15.9686388,5.61454457 16.092928,5.73039846 16.092928,5.87331146 C16.1154748,5.95454569 16.0971547,6.04092915 16.0431438,6.10805623 C15.9891328,6.17518332 15.9052963,6.2157643 15.8153203,6.21833397 C15.7224288,6.22334564 15.6330212,6.18464517 15.5771931,6.11525958 C15.5213649,6.04587399 15.5065415,5.95503179 15.5377126,5.87331146 C15.5377126,5.73039846 15.6620018,5.61454457 15.8153203,5.61454457 Z M16.9072438,5.7008002 C17.0605622,5.7008002 17.1848514,5.81665408 17.1848514,5.95956709 C17.1848514,6.10248009 17.0605622,6.21833397 16.9072438,6.21833397 C16.7539253,6.21833397 16.6296361,6.10248009 16.6296361,5.95956709 C16.6296361,5.81665408 16.7539253,5.7008002 16.9072438,5.7008002 Z M18.0361816,5.7008002 C18.1895001,5.7008002 18.3137893,5.81665408 18.3137893,5.95956709 C18.3137893,6.10248009 18.1895001,6.21833397 18.0361816,6.21833397 C17.8828631,6.21833397 17.7585739,6.10248009 17.7585739,5.95956709 C17.7585739,5.81665408 17.8828631,5.7008002 18.0361816,5.7008002 Z M16.9072438,4.64848154 C16.9808699,4.64848154 17.0514805,4.6757444 17.103542,4.7242726 C17.1556036,4.77280081 17.1848514,4.83861918 17.1848514,4.90724842 C17.1899815,4.9788145 17.1630144,5.04915497 17.1103865,5.1014815 C17.0577586,5.15380804 16.9841916,5.18342601 16.9072438,5.18326643 C16.7509729,5.17414482 16.62933,5.05319845 16.6296361,4.90724842 C16.6296361,4.83861918 16.658884,4.77280081 16.7109455,4.7242726 C16.763007,4.6757444 16.8336176,4.64848154 16.9072438,4.64848154 Z M18.1287175,4.64848154 C18.2023436,4.64848154 18.2729542,4.6757444 18.3250157,4.7242726 C18.3770773,4.77280081 18.4063251,4.83861918 18.4063251,4.90724842 C18.4066312,5.05319845 18.2849883,5.17414482 18.1287175,5.18326643 C18.0517697,5.18342601 17.9782026,5.15380804 17.9255747,5.1014815 C17.8729468,5.04915497 17.8459798,4.9788145 17.8511098,4.90724842 C17.8511098,4.83861918 17.8803577,4.77280081 17.9324192,4.7242726 C17.9844808,4.6757444 18.0550913,4.64848154 18.1287175,4.64848154 Z M15.8153203,4.64848154 C15.9686388,4.64848154 16.092928,4.76433542 16.092928,4.90724842 C16.092928,5.05016143 15.9686388,5.16601531 15.8153203,5.16601531 C15.6620018,5.16601531 15.5377126,5.05016143 15.5377126,4.90724842 C15.5377126,4.76433542 15.6620018,4.64848154 15.8153203,4.64848154 Z M16.9072438,3.66516737 C17.0605622,3.66516737 17.1848514,3.78102125 17.1848514,3.92393426 C17.1904456,3.99403249 17.1629994,4.0629244 17.1096766,4.11262829 C17.0563538,4.16233219 16.9824458,4.18791568 16.9072438,4.18270114 C16.7539253,4.18270114 16.6296361,4.06684726 16.6296361,3.92393426 C16.6296361,3.78102125 16.7539253,3.66516737 16.9072438,3.66516737 Z M15.8153203,3.63066512 C15.9686388,3.63066512 16.092928,3.746519 16.092928,3.88943201 C16.092928,4.03234501 15.9686388,4.14819889 15.8153203,4.14819889 C15.6620018,4.14819889 15.5377126,4.03234501 15.5377126,3.88943201 C15.5321184,3.81933377 15.5595647,3.75044186 15.6128875,3.70073797 C15.6662103,3.65103408 15.7401182,3.62545058 15.8153203,3.63066512 Z M15.8153203,2.6128487 C15.9686388,2.6128487 16.092928,2.72870258 16.092928,2.87161559 C16.092928,3.01452859 15.9686388,3.13038247 15.8153203,3.13038247 C15.7401182,3.13559701 15.6662103,3.11001352 15.6128875,3.06030963 C15.5595647,3.01060573 15.5321184,2.94171382 15.5377126,2.87161559 C15.5377126,2.72870258 15.6620018,2.6128487 15.8153203,2.6128487 Z" id="path-1"></path>
    </defs>
    <g id="-client-admin" stroke="none" stroke-width="1" fill="none" fill-rule="evenodd">
        <g id="download-_report_through-link_01" transform="translate(-56.000000, -134.000000)">
            <g id="attend" transform="translate(56.000000, 134.000000)">
                <rect id="Rectangle" fill="#1B2B4C" x="0" y="0" width="48" height="48" rx="8"></rect>
                <g id="icon-/-24-/-info-/-verify" transform="translate(7.750000, 7.750000)">
                    <mask id="mask-2" fill="white">
                        <use xlink:href="#path-1"></use>
                    </mask>
                    <use id="Combined-Shape" fill="#1B2B4C" fill-rule="nonzero" xlink:href="#path-1"></use>
                    <rect id="Rectangle" fill="#FFFFFF" mask="url(#mask-2)" x="-7" y="-7" width="46.5" height="46.5"></rect>
                </g>
            </g>
        </g>
    </g>
</svg>