<?xml version="1.0" encoding="UTF-8"?>
<svg width="16px" height="16px" viewBox="0 0 16 16" version="1.1" xmlns="http://www.w3.org/2000/svg" xmlns:xlink="http://www.w3.org/1999/xlink">
    <title>1BCB6C66-F4E2-4CCC-A538-C937B161BBD6</title>
    <g id="profille_view-mode" stroke="none" stroke-width="1" fill="none" fill-rule="evenodd">
        <g id="attendance-_profile_01" transform="translate(-903.000000, -651.000000)">
            <g id="Group-29" transform="translate(160.000000, 412.000000)">
                <g id="Group-5" transform="translate(40.000000, 113.000000)">
                    <g id="Group-12" transform="translate(0.000000, 64.000000)">
                        <g id="eye-recognition" transform="translate(703.000000, 62.000000)">
                            <rect id="Rectangle" fill="#F4F7FB" x="0" y="0" width="16" height="16" rx="2"></rect>
                            <g id="Group" transform="translate(2.000000, 1.000000)" fill="#0059B2">
                                <path d="M0.8,3.2 L0,3.2 L0,0.4 C0,0.1790861 0.1790861,0 0.4,0 L3.2,0 L3.2,0.8 L0.8,0.8 L0.8,3.2 Z" id="Path"></path>
                                <path d="M12,3.2 L11.2,3.2 L11.2,0.8 L8.8,0.8 L8.8,0 L11.6,0 C11.8209139,0 12,0.1790861 12,0.4 L12,3.2 Z" id="Path"></path>
                                <path d="M3.2,13.3333333 L0.4,13.3333333 C0.1790861,13.3333333 1.13686838e-12,13.1542472 1.13686838e-12,12.9333333 L1.13686838e-12,10.1333333 L0.8,10.1333333 L0.8,12.5333333 L3.2,12.5333333 L3.2,13.3333333 Z" id="Path"></path>
                                <path d="M11.6,13.3333333 L8.8,13.3333333 L8.8,12.5333333 L11.2,12.5333333 L11.2,10.1333333 L12,10.1333333 L12,12.9333333 C12,13.1542472 11.8209139,13.3333333 11.6,13.3333333 Z" id="Path"></path>
                                <path d="M11.2622222,6.32 C11.1708444,6.19804444 8.98666667,3.33333333 6,3.33333333 C3.01333333,3.33333333 0.829155556,6.19804444 0.737777778,6.32 C0.642962963,6.44641975 0.642962963,6.62024691 0.737777778,6.74666667 C0.829155556,6.86862222 3.01333333,9.73333333 6,9.73333333 C8.98666667,9.73333333 11.1708444,6.86862222 11.2622222,6.74666667 C11.357037,6.62024691 11.357037,6.44641975 11.2622222,6.32 Z M6,8.31111111 C5.01816044,8.31111111 4.22222222,7.51517289 4.22222222,6.53333333 C4.22222222,5.55149378 5.01816044,4.75555556 6,4.75555556 C6.98183956,4.75555556 7.77777778,5.55149378 7.77777778,6.53333333 C7.77660227,7.51468556 6.98135223,8.3099356 6,8.31111111 Z" id="Shape"></path>
                            </g>
                        </g>
                    </g>
                </g>
            </g>
        </g>
    </g>
</svg>