<?xml version="1.0" encoding="UTF-8"?>
<svg width="148px" height="92px" viewBox="0 0 148 92" version="1.1" xmlns="http://www.w3.org/2000/svg" xmlns:xlink="http://www.w3.org/1999/xlink">
    <!-- Generator: Sketch 60.1 (88133) - https://sketch.com -->
    <title>vetor id</title>
    <desc>Created with Sketch.</desc>
    <defs>
        <path d="M2.87547763e-14,8.00345689 C2.87547763e-14,3.5832697 3.58511452,0 8.00959849,0 L139.990402,0 C144.413981,0 148,3.57827291 148,8.00345689 L148,83.9965431 C148,88.4167303 144.414885,92 139.990402,92 L8.00959849,92 C3.58601939,92 2.87547763e-14,88.4217271 2.87547763e-14,83.9965431 L2.87547763e-14,8.00345689 Z" id="path-1"></path>
        <rect id="path-3" x="4.66666667" y="4.66666667" width="46.6666667" height="46.6666667"></rect>
    </defs>
    <g id="📺-Empty-State" stroke="none" stroke-width="1" fill="none" fill-rule="evenodd">
        <g id="icons-copy" transform="translate(-1168.000000, -549.000000)">
            <g id="ids" transform="translate(972.000000, 69.000000)">
                <g id="vetor-id" transform="translate(196.000000, 480.000000)">
                    <mask id="mask-2" fill="white">
                        <use xlink:href="#path-1"></use>
                    </mask>
                    <use id="Rectangle-Copy-13" fill="#9A5A1E" xlink:href="#path-1"></use>
                    <path d="M20.16,28 L24.72,16 L21.312,16 L18.384,24.4 L15.48,16 L12.072,16 L16.632,28 L20.16,28 Z M31.44,28.336 C34.968,28.336 37.8,25.576 37.8,22 C37.8,18.424 34.968,15.664 31.44,15.664 C27.912,15.664 25.104,18.424 25.104,22 C25.104,25.576 27.912,28.336 31.44,28.336 Z M31.44,25.312 C29.616,25.312 28.2,23.944 28.2,22 C28.2,20.056 29.616,18.688 31.44,18.688 C33.288,18.688 34.704,20.056 34.704,22 C34.704,23.944 33.288,25.312 31.44,25.312 Z M46.584,28 L46.584,25.192 C44.808,25.288 43.872,25.264 43.872,23.968 L43.872,18.976 L46.584,18.976 L46.584,16 L43.872,16 L43.872,12.64 L40.776,13.576 L40.776,16 L38.688,16 L38.688,18.976 L40.776,18.976 L40.776,23.968 C40.776,27.208 42.24,28.48 46.584,28 Z M54.36,28.336 C56.664,28.336 58.464,27.4 59.592,25.768 L57.096,24.328 C56.568,25.024 55.608,25.528 54.408,25.528 C52.776,25.528 51.456,24.856 51.024,23.272 L60.072,23.272 C60.144,22.864 60.192,22.456 60.192,22 C60.192,18.472 57.672,15.664 54.12,15.664 C50.352,15.664 47.784,18.424 47.784,22 C47.784,25.576 50.328,28.336 54.36,28.336 Z M57.096,20.872 L50.976,20.872 C51.336,19.336 52.464,18.448 54.12,18.448 C55.416,18.448 56.712,19.144 57.096,20.872 Z M65.448,28 L65.448,22.264 C65.448,19.744 67.488,19.024 69.096,19.216 L69.096,15.76 C67.584,15.76 66.072,16.432 65.448,18.064 L65.448,16 L62.352,16 L62.352,28 L65.448,28 Z M78.432,14.56 C79.488,14.56 80.352,13.696 80.352,12.664 C80.352,11.632 79.488,10.744 78.432,10.744 C77.4,10.744 76.536,11.632 76.536,12.664 C76.536,13.696 77.4,14.56 78.432,14.56 Z M79.992,28 L79.992,16 L76.896,16 L76.896,28 L79.992,28 Z M88.032,28.336 C89.784,28.336 91.056,27.688 91.92,26.584 L91.92,28 L95.016,28 L95.016,11.2 L91.92,11.2 L91.92,17.416 C91.056,16.312 89.784,15.664 88.032,15.664 C84.816,15.664 82.176,18.424 82.176,22 C82.176,25.576 84.816,28.336 88.032,28.336 Z M88.608,25.384 C86.688,25.384 85.272,24.016 85.272,22 C85.272,19.984 86.688,18.616 88.608,18.616 C90.504,18.616 91.92,19.984 91.92,22 C91.92,24.016 90.504,25.384 88.608,25.384 Z M19.128,52.336 C21.48,52.336 23.52,51.088 24.552,49.216 L21.864,47.68 C21.384,48.664 20.352,49.264 19.104,49.264 C17.256,49.264 15.888,47.896 15.888,46 C15.888,44.08 17.256,42.712 19.104,42.712 C20.328,42.712 21.36,43.336 21.84,44.32 L24.504,42.76 C23.52,40.912 21.48,39.664 19.128,39.664 C15.48,39.664 12.792,42.424 12.792,46 C12.792,49.576 15.48,52.336 19.128,52.336 Z M31.2,52.336 C32.952,52.336 34.248,51.664 35.112,50.584 L35.112,52 L38.208,52 L38.208,40 L35.112,40 L35.112,41.416 C34.248,40.336 32.952,39.664 31.2,39.664 C28.008,39.664 25.368,42.424 25.368,46 C25.368,49.576 28.008,52.336 31.2,52.336 Z M31.776,49.384 C29.88,49.384 28.464,48.016 28.464,46 C28.464,43.984 29.88,42.616 31.776,42.616 C33.696,42.616 35.112,43.984 35.112,46 C35.112,48.016 33.696,49.384 31.776,49.384 Z M44.112,52 L44.112,46.264 C44.112,43.744 46.152,43.024 47.76,43.216 L47.76,39.76 C46.248,39.76 44.736,40.432 44.112,42.064 L44.112,40 L41.016,40 L41.016,52 L44.112,52 Z M54.312,52.336 C56.064,52.336 57.336,51.688 58.2,50.584 L58.2,52 L61.296,52 L61.296,35.2 L58.2,35.2 L58.2,41.416 C57.336,40.312 56.064,39.664 54.312,39.664 C51.096,39.664 48.456,42.424 48.456,46 C48.456,49.576 51.096,52.336 54.312,52.336 Z M54.888,49.384 C52.968,49.384 51.552,48.016 51.552,46 C51.552,43.984 52.968,42.616 54.888,42.616 C56.784,42.616 58.2,43.984 58.2,46 C58.2,48.016 56.784,49.384 54.888,49.384 Z" id="voteridcard" fill="#FFFFFF" fill-rule="nonzero" mask="url(#mask-2)"></path>
                    <g id="icon-/-48-/-info-/-verification-/-voter" mask="url(#mask-2)">
                        <g transform="translate(89.000000, 22.000000)">
                            <mask id="mask-4" fill="white">
                                <use xlink:href="#path-3"></use>
                            </mask>
                            <g id="container" stroke="none" fill="none"></g>
                            <g id="Group-22" stroke="none" stroke-width="1" fill="none" fill-rule="evenodd" mask="url(#mask-4)">
                                <g transform="translate(28.000000, 28.000000) rotate(-30.000000) translate(-28.000000, -28.000000) translate(9.333333, 14.000000)">
                                    <rect id="Rectangle" fill="#E54C00" x="0.322002303" y="1.14673982" width="26.8333333" height="5.83333333" rx="2.5"></rect>
                                    <rect id="Rectangle-Copy" fill="#FFFFFF" x="0.280120854" y="10.552614" width="26.8333333" height="5.83333333" rx="2.5"></rect>
                                    <rect id="Rectangle-Copy-2" fill="#006835" x="0.665269043" y="21.5521844" width="26.8333333" height="5.83333333" rx="2.5"></rect>
                                    <circle id="Oval" fill="#FFFFFF" cx="31.5400543" cy="3.56383606" r="2.91666667"></circle>
                                    <circle id="Oval-Copy" fill="#FFFFFF" cx="32.5085358" cy="13.5530435" r="2.91666667"></circle>
                                    <circle id="Oval-Copy-2" fill="#FFFFFF" cx="33.4770173" cy="23.542251" r="2.91666667"></circle>
                                </g>
                            </g>
                        </g>
                    </g>
                    <path d="M15.536,76 L15.536,76.496 C15.256,76.12 14.824,75.888 14.256,75.888 C13.12,75.888 12.264,76.816 12.264,77.936 C12.264,79.064 13.12,79.984 14.256,79.984 C14.824,79.984 15.256,79.752 15.536,79.376 L15.536,79.808 C15.536,80.44 15.136,80.792 14.488,80.792 C13.872,80.792 13.608,80.544 13.44,80.232 L12.56,80.736 C12.912,81.384 13.6,81.712 14.456,81.712 C15.512,81.712 16.544,81.12 16.544,79.808 L16.544,76 L15.536,76 Z M14.416,79.032 C13.768,79.032 13.296,78.576 13.296,77.936 C13.296,77.304 13.768,76.848 14.416,76.848 C15.064,76.848 15.536,77.304 15.536,77.936 C15.536,78.576 15.064,79.032 14.416,79.032 Z M19.384,80.112 C20.56,80.112 21.504,79.192 21.504,78 C21.504,76.808 20.56,75.888 19.384,75.888 C18.208,75.888 17.272,76.808 17.272,78 C17.272,79.192 18.208,80.112 19.384,80.112 Z M19.384,79.104 C18.776,79.104 18.304,78.648 18.304,78 C18.304,77.352 18.776,76.896 19.384,76.896 C20,76.896 20.472,77.352 20.472,78 C20.472,78.648 20,79.104 19.384,79.104 Z M24.704,76 L23.728,78.8 L22.76,76 L21.624,76 L23.144,80 L24.32,80 L25.84,76 L24.704,76 Z M27.048,78.424 L30.064,78.424 C30.088,78.288 30.104,78.152 30.104,78 C30.104,76.824 29.264,75.888 28.08,75.888 C26.824,75.888 25.968,76.808 25.968,78 C25.968,79.192 26.816,80.112 28.16,80.112 C28.928,80.112 29.528,79.8 29.904,79.256 L29.072,78.776 C28.896,79.008 28.576,79.176 28.176,79.176 C27.632,79.176 27.192,78.952 27.048,78.424 Z M27.032,77.624 C27.152,77.112 27.528,76.816 28.08,76.816 C28.512,76.816 28.944,77.048 29.072,77.624 L27.032,77.624 Z M31.856,76.688 L31.856,76 L30.824,76 L30.824,80 L31.856,80 L31.856,78.088 C31.856,77.248 32.536,77.008 33.072,77.072 L33.072,75.92 C32.568,75.92 32.064,76.144 31.856,76.688 Z M35.896,75.888 C35.36,75.888 34.944,76.088 34.704,76.448 L34.704,76 L33.672,76 L33.672,80 L34.704,80 L34.704,77.84 C34.704,77.144 35.08,76.848 35.584,76.848 C36.048,76.848 36.376,77.128 36.376,77.672 L36.376,80 L37.408,80 L37.408,77.544 C37.408,76.48 36.744,75.888 35.896,75.888 Z M42.712,75.888 C42.168,75.888 41.768,76.104 41.52,76.464 C41.296,76.096 40.928,75.888 40.432,75.888 C39.92,75.888 39.544,76.088 39.32,76.424 L39.32,76 L38.288,76 L38.288,80 L39.32,80 L39.32,77.752 C39.32,77.152 39.632,76.848 40.072,76.848 C40.504,76.848 40.744,77.136 40.744,77.608 L40.744,80 L41.776,80 L41.776,77.752 C41.776,77.152 42.064,76.848 42.52,76.848 C42.952,76.848 43.192,77.136 43.192,77.608 L43.192,80 L44.224,80 L44.224,77.536 C44.224,76.536 43.624,75.888 42.712,75.888 Z M45.976,78.424 L48.992,78.424 C49.016,78.288 49.032,78.152 49.032,78 C49.032,76.824 48.192,75.888 47.008,75.888 C45.752,75.888 44.896,76.808 44.896,78 C44.896,79.192 45.744,80.112 47.088,80.112 C47.856,80.112 48.456,79.8 48.832,79.256 L48,78.776 C47.824,79.008 47.504,79.176 47.104,79.176 C46.56,79.176 46.12,78.952 45.976,78.424 Z M45.96,77.624 C46.08,77.112 46.456,76.816 47.008,76.816 C47.44,76.816 47.872,77.048 48,77.624 L45.96,77.624 Z M51.976,75.888 C51.44,75.888 51.024,76.088 50.784,76.448 L50.784,76 L49.752,76 L49.752,80 L50.784,80 L50.784,77.84 C50.784,77.144 51.16,76.848 51.664,76.848 C52.128,76.848 52.456,77.128 52.456,77.672 L52.456,80 L53.488,80 L53.488,77.544 C53.488,76.48 52.824,75.888 51.976,75.888 Z M56.656,76.992 L56.656,76 L55.752,76 L55.752,74.88 L54.72,75.192 L54.72,76 L54.024,76 L54.024,76.992 L54.72,76.992 L54.72,78.656 C54.72,79.736 55.208,80.16 56.656,80 L56.656,79.064 L56.4027674,79.0745307 C55.9753846,79.083503 55.752,79.0215385 55.752,78.656 L55.752,76.992 L56.656,76.992 Z M61.352,80.112 C62.528,80.112 63.472,79.192 63.472,78 C63.472,76.808 62.528,75.888 61.352,75.888 C60.176,75.888 59.24,76.808 59.24,78 C59.24,79.192 60.176,80.112 61.352,80.112 Z M61.352,79.104 C60.744,79.104 60.272,78.648 60.272,78 C60.272,77.352 60.744,76.896 61.352,76.896 C61.968,76.896 62.44,77.352 62.44,78 C62.44,78.648 61.968,79.104 61.352,79.104 Z M66.224,75.28 L66.224,74.288 C65.0125714,74.2118095 64.4034104,74.7959365 64.3481421,75.8054171 L64.344,76 L63.768,76 L63.768,76.992 L64.344,76.992 L64.344,80 L65.376,80 L65.376,76.992 L66.224,76.992 L66.224,76 L65.376,76 L65.376,75.96 C65.376,75.416 65.688,75.24 66.224,75.28 Z M69.208,75.52 C69.56,75.52 69.848,75.232 69.848,74.888 C69.848,74.544 69.56,74.248 69.208,74.248 C68.864,74.248 68.576,74.544 68.576,74.888 C68.576,75.232 68.864,75.52 69.208,75.52 Z M68.696,80 L69.728,80 L69.728,76 L68.696,76 L68.696,80 Z M72.896,75.888 C72.36,75.888 71.944,76.088 71.704,76.448 L71.704,76 L70.672,76 L70.672,80 L71.704,80 L71.704,77.84 C71.704,77.144 72.08,76.848 72.584,76.848 C73.048,76.848 73.376,77.128 73.376,77.672 L73.376,80 L74.408,80 L74.408,77.544 C74.408,76.48 73.744,75.888 72.896,75.888 Z M78.32,74.4 L78.32,76.472 C78.032,76.104 77.608,75.888 77.024,75.888 C75.952,75.888 75.072,76.808 75.072,78 C75.072,79.192 75.952,80.112 77.024,80.112 C77.608,80.112 78.032,79.896 78.32,79.528 L78.32,80 L79.352,80 L79.352,74.4 L78.32,74.4 Z M77.216,79.128 C76.576,79.128 76.104,78.672 76.104,78 C76.104,77.328 76.576,76.872 77.216,76.872 C77.848,76.872 78.32,77.328 78.32,78 C78.32,78.672 77.848,79.128 77.216,79.128 Z M80.808,75.52 C81.16,75.52 81.448,75.232 81.448,74.888 C81.448,74.544 81.16,74.248 80.808,74.248 C80.464,74.248 80.176,74.544 80.176,74.888 C80.176,75.232 80.464,75.52 80.808,75.52 Z M80.296,80 L81.328,80 L81.328,76 L80.296,76 L80.296,80 Z M85.312,76 L85.312,76.472 C85.024,76.112 84.592,75.888 84.008,75.888 C82.944,75.888 82.064,76.808 82.064,78 C82.064,79.192 82.944,80.112 84.008,80.112 C84.592,80.112 85.024,79.888 85.312,79.528 L85.312,80 L86.344,80 L86.344,76 L85.312,76 Z M84.2,79.128 C83.568,79.128 83.096,78.672 83.096,78 C83.096,77.328 83.568,76.872 84.2,76.872 C84.84,76.872 85.312,77.328 85.312,78 C85.312,78.672 84.84,79.128 84.2,79.128 Z" id="governmentofindia" fill="#FFFFFF" fill-rule="nonzero" mask="url(#mask-2)"></path>
                </g>
            </g>
        </g>
    </g>
</svg>