<?xml version="1.0" encoding="UTF-8"?>
<svg width="88px" height="57px" viewBox="0 0 88 57" version="1.1" xmlns="http://www.w3.org/2000/svg" xmlns:xlink="http://www.w3.org/1999/xlink">
    <!-- Generator: Sketch 60.1 (88133) - https://sketch.com -->
    <title>vetor id copy</title>
    <desc>Created with Sketch.</desc>
    <defs>
        <path d="M1.70974346e-14,8.00065503 C1.70974346e-14,3.58201527 3.58618247,0 8.00361999,0 L79.99638,0 C84.4166573,0 88,3.58719818 88,8.00065503 L88,48.999345 C88,53.4179847 84.4138175,57 79.99638,57 L8.00361999,57 C3.58334272,57 1.70974346e-14,53.4128018 1.70974346e-14,48.999345 L1.70974346e-14,8.00065503 Z" id="path-1"></path>
        <rect id="path-3" x="2.77477477" y="2.89130435" width="27.7477477" height="28.9130435"></rect>
    </defs>
    <g id="📺-Empty-State" stroke="none" stroke-width="1" fill="none" fill-rule="evenodd">
        <g id="icons-copy" transform="translate(-1168.000000, -669.000000)">
            <g id="ids" transform="translate(972.000000, 69.000000)">
                <g id="vetor-id-copy" transform="translate(196.000000, 600.000000)">
                    <mask id="mask-2" fill="white">
                        <use xlink:href="#path-1"></use>
                    </mask>
                    <use id="Rectangle-Copy-13" fill="#9A5A1E" xlink:href="#path-1"></use>
                    <path d="M11.987027,17.3478261 L14.6983784,9.91304348 L12.672,9.91304348 L10.931027,15.1173913 L9.20432432,9.91304348 L7.17794595,9.91304348 L9.8892973,17.3478261 L11.987027,17.3478261 Z M18.6940541,17.556 C20.7917838,17.556 22.4756757,15.846 22.4756757,13.6304348 C22.4756757,11.4148696 20.7917838,9.70486957 18.6940541,9.70486957 C16.5963243,9.70486957 14.9267027,11.4148696 14.9267027,13.6304348 C14.9267027,15.846 16.5963243,17.556 18.6940541,17.556 Z M18.6940541,15.6824348 C17.6095135,15.6824348 16.7675676,14.8348696 16.7675676,13.6304348 C16.7675676,12.426 17.6095135,11.5784348 18.6940541,11.5784348 C19.7928649,11.5784348 20.6348108,12.426 20.6348108,13.6304348 C20.6348108,14.8348696 19.7928649,15.6824348 18.6940541,15.6824348 Z M27.6985946,17.3478261 L27.6985946,15.608087 C26.6425946,15.6675652 26.0860541,15.6526957 26.0860541,14.8497391 L26.0860541,11.7568696 L27.6985946,11.7568696 L27.6985946,9.91304348 L26.0860541,9.91304348 L26.0860541,7.83130435 L24.2451892,8.41121739 L24.2451892,9.91304348 L23.0036757,9.91304348 L23.0036757,11.7568696 L24.2451892,11.7568696 L24.2451892,14.8497391 C24.2451892,16.8571304 25.1156757,17.6452174 27.6985946,17.3478261 Z M32.3221622,17.556 C33.6921081,17.556 34.7623784,16.976087 35.4330811,15.9649565 L33.948973,15.0727826 C33.635027,15.504 33.0642162,15.8162609 32.3507027,15.8162609 C31.3803243,15.8162609 30.5954595,15.399913 30.3385946,14.4185217 L35.7184865,14.4185217 C35.7612973,14.1657391 35.7898378,13.9129565 35.7898378,13.6304348 C35.7898378,11.4446087 34.2914595,9.70486957 32.1794595,9.70486957 C29.939027,9.70486957 28.4121081,11.4148696 28.4121081,13.6304348 C28.4121081,15.846 29.9247568,17.556 32.3221622,17.556 Z M33.948973,12.9315652 L30.3100541,12.9315652 C30.5241081,11.979913 31.1948108,11.4297391 32.1794595,11.4297391 C32.9500541,11.4297391 33.7206486,11.8609565 33.948973,12.9315652 Z M38.915027,17.3478261 L38.915027,13.794 C38.915027,12.2326957 40.128,11.7866087 41.0841081,11.9055652 L41.0841081,9.76434783 C40.1850811,9.76434783 39.2860541,10.1806957 38.915027,11.1918261 L38.915027,9.91304348 L37.0741622,9.91304348 L37.0741622,17.3478261 L38.915027,17.3478261 Z M46.6352432,9.02086957 C47.2631351,9.02086957 47.7768649,8.48556522 47.7768649,7.84617391 C47.7768649,7.20678261 47.2631351,6.6566087 46.6352432,6.6566087 C46.0216216,6.6566087 45.5078919,7.20678261 45.5078919,7.84617391 C45.5078919,8.48556522 46.0216216,9.02086957 46.6352432,9.02086957 Z M47.5628108,17.3478261 L47.5628108,9.91304348 L45.7219459,9.91304348 L45.7219459,17.3478261 L47.5628108,17.3478261 Z M52.3433514,17.556 C53.3850811,17.556 54.1414054,17.1545217 54.6551351,16.4705217 L54.6551351,17.3478261 L56.496,17.3478261 L56.496,6.93913043 L54.6551351,6.93913043 L54.6551351,10.7903478 C54.1414054,10.1063478 53.3850811,9.70486957 52.3433514,9.70486957 C50.4311351,9.70486957 48.8614054,11.4148696 48.8614054,13.6304348 C48.8614054,15.846 50.4311351,17.556 52.3433514,17.556 Z M52.6858378,15.7270435 C51.5442162,15.7270435 50.7022703,14.8794783 50.7022703,13.6304348 C50.7022703,12.3813913 51.5442162,11.5338261 52.6858378,11.5338261 C53.8131892,11.5338261 54.6551351,12.3813913 54.6551351,13.6304348 C54.6551351,14.8794783 53.8131892,15.7270435 52.6858378,15.7270435 Z M11.3734054,32.4255652 C12.7718919,32.4255652 13.9848649,31.6523478 14.5984865,30.4925217 L13.0002162,29.5408696 C12.7148108,30.1505217 12.1011892,30.5222609 11.3591351,30.5222609 C10.2603243,30.5222609 9.44691892,29.6746957 9.44691892,28.5 C9.44691892,27.3104348 10.2603243,26.4628696 11.3591351,26.4628696 C12.0869189,26.4628696 12.7005405,26.8494783 12.9859459,27.4591304 L14.5699459,26.4926087 C13.9848649,25.3476522 12.7718919,24.5744348 11.3734054,24.5744348 C9.20432432,24.5744348 7.60605405,26.2844348 7.60605405,28.5 C7.60605405,30.7155652 9.20432432,32.4255652 11.3734054,32.4255652 Z M18.5513514,32.4255652 C19.5930811,32.4255652 20.3636757,32.0092174 20.8774054,31.340087 L20.8774054,32.2173913 L22.7182703,32.2173913 L22.7182703,24.7826087 L20.8774054,24.7826087 L20.8774054,25.659913 C20.3636757,24.9907826 19.5930811,24.5744348 18.5513514,24.5744348 C16.6534054,24.5744348 15.0836757,26.2844348 15.0836757,28.5 C15.0836757,30.7155652 16.6534054,32.4255652 18.5513514,32.4255652 Z M18.8938378,30.5966087 C17.7664865,30.5966087 16.9245405,29.7490435 16.9245405,28.5 C16.9245405,27.2509565 17.7664865,26.4033913 18.8938378,26.4033913 C20.0354595,26.4033913 20.8774054,27.2509565 20.8774054,28.5 C20.8774054,29.7490435 20.0354595,30.5966087 18.8938378,30.5966087 Z M26.2287568,32.2173913 L26.2287568,28.6635652 C26.2287568,27.1022609 27.4417297,26.6561739 28.3978378,26.7751304 L28.3978378,24.633913 C27.4988108,24.633913 26.5997838,25.0502609 26.2287568,26.0613913 L26.2287568,24.7826087 L24.3878919,24.7826087 L24.3878919,32.2173913 L26.2287568,32.2173913 Z M32.2936216,32.4255652 C33.3353514,32.4255652 34.0916757,32.024087 34.6054054,31.340087 L34.6054054,32.2173913 L36.4462703,32.2173913 L36.4462703,21.8086957 L34.6054054,21.8086957 L34.6054054,25.659913 C34.0916757,24.975913 33.3353514,24.5744348 32.2936216,24.5744348 C30.3814054,24.5744348 28.8116757,26.2844348 28.8116757,28.5 C28.8116757,30.7155652 30.3814054,32.4255652 32.2936216,32.4255652 Z M32.6361081,30.5966087 C31.4944865,30.5966087 30.6525405,29.7490435 30.6525405,28.5 C30.6525405,27.2509565 31.4944865,26.4033913 32.6361081,26.4033913 C33.7634595,26.4033913 34.6054054,27.2509565 34.6054054,28.5 C34.6054054,29.7490435 33.7634595,30.5966087 32.6361081,30.5966087 Z" id="voteridcard" fill="#FFFFFF" fill-rule="nonzero" mask="url(#mask-2)"></path>
                    <g id="icon-/-48-/-info-/-verification-/-voter" mask="url(#mask-2)">
                        <g transform="translate(52.918919, 13.630435)">
                            <mask id="mask-4" fill="white">
                                <use xlink:href="#path-3"></use>
                            </mask>
                            <g id="container" stroke="none" fill="none"></g>
                            <g id="Group-22" stroke="none" stroke-width="1" fill="none" fill-rule="evenodd" mask="url(#mask-4)">
                                <g transform="translate(16.648649, 17.347826) rotate(-30.000000) translate(-16.648649, -17.347826) translate(5.549550, 8.673913)">
                                    <rect id="Rectangle" fill="#E54C00" x="0.191460829" y="0.710480109" width="15.954955" height="3.61413043" rx="1.80706522"></rect>
                                    <rect id="Rectangle-Copy" fill="#FFFFFF" x="0.166558346" y="6.53803256" width="15.954955" height="3.61413043" rx="1.80706522"></rect>
                                    <rect id="Rectangle-Copy-2" fill="#006835" x="0.395565377" y="13.3529838" width="15.954955" height="3.61413043" rx="1.80706522"></rect>
                                    <ellipse id="Oval" fill="#FFFFFF" cx="18.7535458" cy="2.20802886" rx="1.73423423" ry="1.80706522"></ellipse>
                                    <ellipse id="Oval-Copy" fill="#FFFFFF" cx="19.3293997" cy="8.39699436" rx="1.73423423" ry="1.80706522"></ellipse>
                                    <ellipse id="Oval-Copy-2" fill="#FFFFFF" cx="19.9052535" cy="14.5859598" rx="1.73423423" ry="1.80706522"></ellipse>
                                </g>
                            </g>
                        </g>
                    </g>
                    <path d="M9.23762162,47.0869565 L9.23762162,47.3942609 C9.07113514,47.1613043 8.81427027,47.0175652 8.47654054,47.0175652 C7.80108108,47.0175652 7.29210811,47.5925217 7.29210811,48.2864348 C7.29210811,48.9853043 7.80108108,49.5553043 8.47654054,49.5553043 C8.81427027,49.5553043 9.07113514,49.4115652 9.23762162,49.1786087 L9.23762162,49.4462609 C9.23762162,49.8378261 8.99978378,50.055913 8.61448649,50.055913 C8.24821622,50.055913 8.09124324,49.9022609 7.99135135,49.7089565 L7.46810811,50.0212174 C7.67740541,50.4226957 8.08648649,50.625913 8.59545946,50.625913 C9.22335135,50.625913 9.83697297,50.2591304 9.83697297,49.4462609 L9.83697297,47.0869565 L9.23762162,47.0869565 Z M8.57167568,48.9654783 C8.18637838,48.9654783 7.90572973,48.6829565 7.90572973,48.2864348 C7.90572973,47.8948696 8.18637838,47.6123478 8.57167568,47.6123478 C8.95697297,47.6123478 9.23762162,47.8948696 9.23762162,48.2864348 C9.23762162,48.6829565 8.95697297,48.9654783 8.57167568,48.9654783 Z M11.5256216,49.6346087 C12.2248649,49.6346087 12.7861622,49.0646087 12.7861622,48.326087 C12.7861622,47.5875652 12.2248649,47.0175652 11.5256216,47.0175652 C10.8263784,47.0175652 10.2698378,47.5875652 10.2698378,48.326087 C10.2698378,49.0646087 10.8263784,49.6346087 11.5256216,49.6346087 Z M11.5256216,49.010087 C11.1641081,49.010087 10.8834595,48.7275652 10.8834595,48.326087 C10.8834595,47.9246087 11.1641081,47.642087 11.5256216,47.642087 C11.8918919,47.642087 12.1725405,47.9246087 12.1725405,48.326087 C12.1725405,48.7275652 11.8918919,49.010087 11.5256216,49.010087 Z M14.6888649,47.0869565 L14.1085405,48.8217391 L13.532973,47.0869565 L12.8575135,47.0869565 L13.7612973,49.5652174 L14.4605405,49.5652174 L15.3643243,47.0869565 L14.6888649,47.0869565 Z M16.0825946,48.5887826 L17.8758919,48.5887826 C17.8901622,48.5045217 17.8996757,48.4202609 17.8996757,48.326087 C17.8996757,47.5974783 17.4002162,47.0175652 16.6962162,47.0175652 C15.9494054,47.0175652 15.4404324,47.5875652 15.4404324,48.326087 C15.4404324,49.0646087 15.9446486,49.6346087 16.7437838,49.6346087 C17.2004324,49.6346087 17.5571892,49.4413043 17.7807568,49.1042609 L17.2860541,48.8068696 C17.1814054,48.9506087 16.9911351,49.0546957 16.7532973,49.0546957 C16.4298378,49.0546957 16.1682162,48.915913 16.0825946,48.5887826 Z M16.0730811,48.0931304 C16.1444324,47.775913 16.368,47.5925217 16.6962162,47.5925217 C16.9530811,47.5925217 17.2099459,47.7362609 17.2860541,48.0931304 L16.0730811,48.0931304 Z M18.9414054,47.5132174 L18.9414054,47.0869565 L18.3277838,47.0869565 L18.3277838,49.5652174 L18.9414054,49.5652174 L18.9414054,48.3806087 C18.9414054,47.8601739 19.3457297,47.7114783 19.6644324,47.7511304 L19.6644324,47.0373913 C19.3647568,47.0373913 19.0650811,47.1761739 18.9414054,47.5132174 Z M21.3435676,47.0175652 C21.0248649,47.0175652 20.7775135,47.1414783 20.6348108,47.3645217 L20.6348108,47.0869565 L20.0211892,47.0869565 L20.0211892,49.5652174 L20.6348108,49.5652174 L20.6348108,48.2269565 C20.6348108,47.7957391 20.8583784,47.6123478 21.1580541,47.6123478 C21.4339459,47.6123478 21.628973,47.7858261 21.628973,48.1228696 L21.628973,49.5652174 L22.2425946,49.5652174 L22.2425946,48.0435652 C22.2425946,47.3843478 21.8477838,47.0175652 21.3435676,47.0175652 Z M25.3963243,47.0175652 C25.0728649,47.0175652 24.835027,47.1513913 24.6875676,47.3744348 C24.5543784,47.1464348 24.3355676,47.0175652 24.0406486,47.0175652 C23.7362162,47.0175652 23.5126486,47.1414783 23.3794595,47.3496522 L23.3794595,47.0869565 L22.7658378,47.0869565 L22.7658378,49.5652174 L23.3794595,49.5652174 L23.3794595,48.1724348 C23.3794595,47.8006957 23.564973,47.6123478 23.8265946,47.6123478 C24.0834595,47.6123478 24.2261622,47.7907826 24.2261622,48.0832174 L24.2261622,49.5652174 L24.8397838,49.5652174 L24.8397838,48.1724348 C24.8397838,47.8006957 25.011027,47.6123478 25.2821622,47.6123478 C25.539027,47.6123478 25.6817297,47.7907826 25.6817297,48.0832174 L25.6817297,49.5652174 L26.2953514,49.5652174 L26.2953514,48.0386087 C26.2953514,47.4190435 25.9385946,47.0175652 25.3963243,47.0175652 Z M27.3370811,48.5887826 L29.1303784,48.5887826 C29.1446486,48.5045217 29.1541622,48.4202609 29.1541622,48.326087 C29.1541622,47.5974783 28.6547027,47.0175652 27.9507027,47.0175652 C27.2038919,47.0175652 26.6949189,47.5875652 26.6949189,48.326087 C26.6949189,49.0646087 27.1991351,49.6346087 27.9982703,49.6346087 C28.4549189,49.6346087 28.8116757,49.4413043 29.0352432,49.1042609 L28.5405405,48.8068696 C28.4358919,48.9506087 28.2456216,49.0546957 28.0077838,49.0546957 C27.6843243,49.0546957 27.4227027,48.915913 27.3370811,48.5887826 Z M27.3275676,48.0931304 C27.3989189,47.775913 27.6224865,47.5925217 27.9507027,47.5925217 C28.2075676,47.5925217 28.4644324,47.7362609 28.5405405,48.0931304 L27.3275676,48.0931304 Z M30.9046486,47.0175652 C30.5859459,47.0175652 30.3385946,47.1414783 30.1958919,47.3645217 L30.1958919,47.0869565 L29.5822703,47.0869565 L29.5822703,49.5652174 L30.1958919,49.5652174 L30.1958919,48.2269565 C30.1958919,47.7957391 30.4194595,47.6123478 30.7191351,47.6123478 C30.995027,47.6123478 31.1900541,47.7858261 31.1900541,48.1228696 L31.1900541,49.5652174 L31.8036757,49.5652174 L31.8036757,48.0435652 C31.8036757,47.3843478 31.4088649,47.0175652 30.9046486,47.0175652 Z M33.6873514,47.7015652 L33.6873514,47.0869565 L33.1498378,47.0869565 L33.1498378,46.3930435 L32.5362162,46.5863478 L32.5362162,47.0869565 L32.1223784,47.0869565 L32.1223784,47.7015652 L32.5362162,47.7015652 L32.5362162,48.7325217 C32.5362162,49.4016522 32.8263784,49.6643478 33.6873514,49.5652174 L33.6873514,48.9853043 L33.5367806,48.9918288 C33.2826611,48.9973877 33.1498378,48.9589967 33.1498378,48.7325217 L33.1498378,47.7015652 L33.6873514,47.7015652 Z M36.4795676,49.6346087 C37.1788108,49.6346087 37.7401081,49.0646087 37.7401081,48.326087 C37.7401081,47.5875652 37.1788108,47.0175652 36.4795676,47.0175652 C35.7803243,47.0175652 35.2237838,47.5875652 35.2237838,48.326087 C35.2237838,49.0646087 35.7803243,49.6346087 36.4795676,49.6346087 Z M36.4795676,49.010087 C36.1180541,49.010087 35.8374054,48.7275652 35.8374054,48.326087 C35.8374054,47.9246087 36.1180541,47.642087 36.4795676,47.642087 C36.8458378,47.642087 37.1264865,47.9246087 37.1264865,48.326087 C37.1264865,48.7275652 36.8458378,49.010087 36.4795676,49.010087 Z M39.3764324,46.6408696 L39.3764324,46.0262609 C38.6561236,45.9790559 38.2939197,46.3409607 38.2610575,46.9663997 L38.2585946,47.0869565 L37.9161081,47.0869565 L37.9161081,47.7015652 L38.2585946,47.7015652 L38.2585946,49.5652174 L38.8722162,49.5652174 L38.8722162,47.7015652 L39.3764324,47.7015652 L39.3764324,47.0869565 L38.8722162,47.0869565 L38.8722162,47.0621739 C38.8722162,46.7251304 39.0577297,46.616087 39.3764324,46.6408696 Z M41.1507027,46.7895652 C41.36,46.7895652 41.5312432,46.6111304 41.5312432,46.398 C41.5312432,46.1848696 41.36,46.0014783 41.1507027,46.0014783 C40.9461622,46.0014783 40.7749189,46.1848696 40.7749189,46.398 C40.7749189,46.6111304 40.9461622,46.7895652 41.1507027,46.7895652 Z M40.8462703,49.5652174 L41.4598919,49.5652174 L41.4598919,47.0869565 L40.8462703,47.0869565 L40.8462703,49.5652174 Z M43.3435676,47.0175652 C43.0248649,47.0175652 42.7775135,47.1414783 42.6348108,47.3645217 L42.6348108,47.0869565 L42.0211892,47.0869565 L42.0211892,49.5652174 L42.6348108,49.5652174 L42.6348108,48.2269565 C42.6348108,47.7957391 42.8583784,47.6123478 43.1580541,47.6123478 C43.4339459,47.6123478 43.628973,47.7858261 43.628973,48.1228696 L43.628973,49.5652174 L44.2425946,49.5652174 L44.2425946,48.0435652 C44.2425946,47.3843478 43.8477838,47.0175652 43.3435676,47.0175652 Z M46.5686486,46.0956522 L46.5686486,47.3793913 C46.3974054,47.1513913 46.1452973,47.0175652 45.7980541,47.0175652 C45.1606486,47.0175652 44.6374054,47.5875652 44.6374054,48.326087 C44.6374054,49.0646087 45.1606486,49.6346087 45.7980541,49.6346087 C46.1452973,49.6346087 46.3974054,49.5007826 46.5686486,49.2727826 L46.5686486,49.5652174 L47.1822703,49.5652174 L47.1822703,46.0956522 L46.5686486,46.0956522 Z M45.9122162,49.0249565 C45.5316757,49.0249565 45.251027,48.7424348 45.251027,48.326087 C45.251027,47.9097391 45.5316757,47.6272174 45.9122162,47.6272174 C46.288,47.6272174 46.5686486,47.9097391 46.5686486,48.326087 C46.5686486,48.7424348 46.288,49.0249565 45.9122162,49.0249565 Z M48.048,46.7895652 C48.2572973,46.7895652 48.4285405,46.6111304 48.4285405,46.398 C48.4285405,46.1848696 48.2572973,46.0014783 48.048,46.0014783 C47.8434595,46.0014783 47.6722162,46.1848696 47.6722162,46.398 C47.6722162,46.6111304 47.8434595,46.7895652 48.048,46.7895652 Z M47.7435676,49.5652174 L48.3571892,49.5652174 L48.3571892,47.0869565 L47.7435676,47.0869565 L47.7435676,49.5652174 Z M50.7260541,47.0869565 L50.7260541,47.3793913 C50.5548108,47.1563478 50.2979459,47.0175652 49.9507027,47.0175652 C49.3180541,47.0175652 48.7948108,47.5875652 48.7948108,48.326087 C48.7948108,49.0646087 49.3180541,49.6346087 49.9507027,49.6346087 C50.2979459,49.6346087 50.5548108,49.4958261 50.7260541,49.2727826 L50.7260541,49.5652174 L51.3396757,49.5652174 L51.3396757,47.0869565 L50.7260541,47.0869565 Z M50.0648649,49.0249565 C49.6890811,49.0249565 49.4084324,48.7424348 49.4084324,48.326087 C49.4084324,47.9097391 49.6890811,47.6272174 50.0648649,47.6272174 C50.4454054,47.6272174 50.7260541,47.9097391 50.7260541,48.326087 C50.7260541,48.7424348 50.4454054,49.0249565 50.0648649,49.0249565 Z" id="governmentofindia" fill="#FFFFFF" fill-rule="nonzero" mask="url(#mask-2)"></path>
                </g>
            </g>
        </g>
    </g>
</svg>