<?xml version="1.0" encoding="UTF-8"?>
<svg width="40px" height="40px" viewBox="0 0 40 40" version="1.1" xmlns="http://www.w3.org/2000/svg" xmlns:xlink="http://www.w3.org/1999/xlink">
    <title>0BC97CFF-7512-42D2-8C38-DF4D2216E2CB</title>
    <defs>
        <rect id="path-1" x="0" y="0" width="40" height="40" rx="19.5"></rect>
        <path d="M15.9093166,12.9750758 L8.57598327,0.308409098 C8.44736114,0.115716394 8.23099338,0 7.9993166,0 C7.76763982,0 7.55127206,0.115716394 7.42264993,0.308409098 L0.0893165997,12.9750758 C-0.0297110547,13.1812374 -0.0297762607,13.4352239 0.0891455222,13.6414466 C0.208067305,13.8476694 0.427928333,13.9748317 0.665983266,13.9750758 L15.3326499,13.9750758 C15.5707049,13.9748317 15.7905659,13.8476694 15.9094877,13.6414466 C16.0284095,13.4352239 16.0283443,13.1812374 15.9093166,12.9750758 L15.9093166,12.9750758 Z M8.8033166,4.64174243 L8.48798327,9.04174243 L7.51064993,9.04174243 L7.2133166,4.64174243 L8.8033166,4.64174243 Z M7.9993166,11.9750758 C7.45918211,11.9750758 7.0213166,11.5372103 7.0213166,10.9970758 C7.0213166,10.4569413 7.45918211,10.0190758 7.9993166,10.0190758 C8.53945109,10.0190758 8.9773166,10.4569413 8.9773166,10.9970758 C8.9773166,11.5372103 8.53945109,11.9750758 7.9993166,11.9750758 Z" id="path-3"></path>
    </defs>
    <g id="⚙️-configuration" stroke="none" stroke-width="1" fill="none" fill-rule="evenodd">
        <g id="government-document-generation_ESIC_06" transform="translate(-700.000000, -325.000000)">
            <g id="popup" transform="translate(504.000000, 293.000000)">
                <g id="delet-icon" transform="translate(196.000000, 32.000000)">
                    <g id="icon-/-40-/-info-/-container">
                        <mask id="mask-2" fill="white">
                            <use xlink:href="#path-1"></use>
                        </mask>
                        <use fill="#E5EEF7" xlink:href="#path-1"></use>
                    </g>
                    <g id="icon-/-16-/-info-/-onhold" transform="translate(12.000000, 13.000000)">
                        <mask id="mask-4" fill="white">
                            <use xlink:href="#path-3"></use>
                        </mask>
                        <use id="Shape" fill="#000000" fill-rule="nonzero" xlink:href="#path-3"></use>
                        <rect id="Rectangle" fill="#0059B2" mask="url(#mask-4)" x="0" y="-1" width="16" height="16"></rect>
                    </g>
                </g>
            </g>
        </g>
    </g>
</svg>