<?xml version="1.0" encoding="UTF-8"?>
<svg width="12px" height="12px" viewBox="0 0 12 12" version="1.1" xmlns="http://www.w3.org/2000/svg" xmlns:xlink="http://www.w3.org/1999/xlink">
    <!-- Generator: Sketch 61 (89581) - https://sketch.com -->
    <title>icon / 12 / info / warning</title>
    <desc>Created with Sketch.</desc>
    <defs>
        <path d="M6,12 C9.3137085,12 12,9.3137085 12,6 C12,2.6862915 9.3137085,0 6,0 C2.6862915,0 0,2.6862915 0,6 C0,9.3137085 2.6862915,12 6,12 Z M5.5,3 L5.5,7.27272727 L6.5,7.27272727 L6.5,3 L5.5,3 Z M6.04545455,9.09090909 C6.34670077,9.09090909 6.59090909,8.84670077 6.59090909,8.54545455 C6.59090909,8.24420832 6.34670077,8 6.04545455,8 C5.74420832,8 5.5,8.24420832 5.5,8.54545455 C5.5,8.84670077 5.74420832,9.09090909 6.04545455,9.09090909 Z" id="path-1"></path>
    </defs>
    <g id="🖥-Ops_analyst-" stroke="none" stroke-width="1" fill="none" fill-rule="evenodd">
        <g id="postal-verification_03" transform="translate(-313.000000, -333.000000)">
            <g id="Group-9" transform="translate(160.000000, 181.000000)">
                <g id="fedex" transform="translate(0.000000, 44.000000)">
                    <g id="Group-3" transform="translate(153.000000, 39.000000)">
                        <g id="Group-10" transform="translate(0.000000, 68.000000)">
                            <g id="icon-/-12-/-info-/-warning" transform="translate(0.000000, 1.000000)">
                                <mask id="mask-2" fill="white">
                                    <use xlink:href="#path-1"></use>
                                </mask>
                                <use id="Combined-Shape" fill="#D72639" fill-rule="evenodd" xlink:href="#path-1"></use>
                                <rect id="Rectangle" fill="#EE3942" fill-rule="evenodd" mask="url(#mask-2)" x="0" y="0" width="12" height="12"></rect>
                            </g>
                        </g>
                    </g>
                </g>
            </g>
        </g>
    </g>
</svg>