<?xml version="1.0" encoding="UTF-8"?>
<svg width="16px" height="16px" viewBox="0 0 16 16" version="1.1" xmlns="http://www.w3.org/2000/svg" xmlns:xlink="http://www.w3.org/1999/xlink">
    <!-- Generator: Sketch 57.1 (83088) - https://sketch.com -->
    <title>Group 5</title>
    <desc>Created with Sketch.</desc>
    <g id="🧰-Employee-termination" stroke="none" stroke-width="1" fill="none" fill-rule="evenodd">
        <g id="BGV-Client-zomato-add-employee-details(termination)_1" transform="translate(-202.000000, -683.000000)" fill="#EE3942">
            <g id="Employment-details" transform="translate(160.000000, 121.000000)">
                <g id="Cta_ondoard" transform="translate(30.000000, 550.000000)">
                    <g id="Group-5" transform="translate(12.000000, 12.000000)">
                        <g transform="translate(8.000000, 8.000000) rotate(180.000000) translate(-8.000000, -8.000000) ">
                            <path d="M8,16 C12.418278,16 16,12.418278 16,8 C16,3.581722 12.418278,0 8,0 C3.581722,0 0,3.581722 0,8 C0,12.418278 3.581722,16 8,16 Z M8,14.2222222 C4.56356156,14.2222222 1.77777778,11.4364384 1.77777778,8 C1.77777778,4.56356156 4.56356156,1.77777778 8,1.77777778 C11.4364384,1.77777778 14.2222222,4.56356156 14.2222222,8 C14.2222222,11.4364384 11.4364384,14.2222222 8,14.2222222 Z" id="Oval" fill-rule="nonzero"></path>
                            <polygon id="Rectangle" points="0.888888889 7.11111111 15.1111111 7.11111111 15.1111111 8.88888889 0.888888889 8.88888889"></polygon>
                        </g>
                    </g>
                </g>
            </g>
        </g>
    </g>
</svg>