<?xml version="1.0" encoding="UTF-8"?>
<svg width="24px" height="24px" viewBox="0 0 24 24" version="1.1" xmlns="http://www.w3.org/2000/svg" xmlns:xlink="http://www.w3.org/1999/xlink">
    <title>6C50B02B-C186-4AD2-AD3D-3901AC4C36ED</title>
    <g id="🧰-Employee-termination" stroke="none" stroke-width="1" fill="none" fill-rule="evenodd">
        <g id="multiple-employee-termination_01" transform="translate(-428.000000, -278.000000)">
            <g id="employee-termination_alert" transform="translate(356.000000, 128.000000)">
                <g id="Group-7" transform="translate(64.000000, 136.000000)">
                    <g id="t-warning" transform="translate(8.000000, 14.000000)">
                        <rect id="Rectangle" fill="#F5F5F4" fill-rule="nonzero" opacity="0" x="0" y="0" width="24" height="24" rx="1"></rect>
                        <g id="Group" transform="translate(0.000000, 1.000000)" fill="#EE3942">
                            <path d="M14.677686,1.56033058 L23.5609917,17.1616529 C24.7385124,19.225124 23.2449587,21.7917355 20.8700826,21.7917355 L3.10214876,21.7917355 C0.727272727,21.7917355 -0.766280992,19.225124 0.411239669,17.1616529 L9.29454545,1.56033058 C10.4766942,-0.520330579 13.494876,-0.518347107 14.677686,1.56033058 L14.677686,1.56033058 Z M22.105124,17.9880992 L13.2218182,2.38677686 C12.6790083,1.43338843 11.2932231,1.43338843 10.7504132,2.38677686 L1.86710744,17.9880992 C1.32231405,18.9447934 1.99933884,20.1123967 3.10214876,20.1123967 L20.8700826,20.1123967 C21.9728926,20.1123967 22.6499174,18.9447934 22.105124,17.9880992 Z" id="Shape"></path>
                            <path d="M11.1464463,7.6614876 C11.1464463,7.19801653 11.5226446,6.82181818 11.9861157,6.82181818 C12.4495868,6.82181818 12.8257851,7.19801653 12.8257851,7.6614876 L12.8257851,13.705124 C12.8257851,14.168595 12.4495868,14.5447934 11.9861157,14.5447934 C11.5226446,14.5447934 11.1464463,14.168595 11.1464463,13.705124 L11.1464463,7.6614876 Z" id="Path"></path>
                            <path d="M13.0479339,17.0195041 C13.0479339,17.6092562 12.5719008,18.0852893 11.9861157,18.0852893 C11.4003306,18.0852893 10.9249587,17.6092562 10.9249587,17.0234711 C10.9249587,16.4297521 11.4003306,15.953719 11.9861157,15.953719 C12.5719008,15.953719 13.0479339,16.4297521 13.0479339,17.0195041 Z" id="Path"></path>
                        </g>
                    </g>
                </g>
            </g>
        </g>
    </g>
</svg>