<?xml version="1.0" encoding="UTF-8"?>
<svg width="59px" height="50px" viewBox="0 0 59 50" version="1.1" xmlns="http://www.w3.org/2000/svg" xmlns:xlink="http://www.w3.org/1999/xlink">
    <title>C85F45F5-4608-4F4F-95F3-00D629D6C480</title>
    <g id="⚙️-configuration" stroke="none" stroke-width="1" fill="none" fill-rule="evenodd">
        <g id="Gov_doc_cof_ESIC_01" transform="translate(-888.000000, -518.000000)">
            <g id="Group-7" transform="translate(135.000000, 136.000000)">
                <g id="Group-9" transform="translate(456.000000, 170.000000)">
                    <g id="Group-30" transform="translate(0.000000, 82.000000)">
                        <g id="Group" transform="translate(297.000000, 130.000000)">
                            <path d="M5.76888889,4.41152263 C4.98222222,4.41152263 4.39222222,5.00411523 4.39222222,5.79423868 C4.39222222,6.58436214 5.04777778,7.17695473 5.76888889,7.17695473 C6.55555556,7.17695473 7.14555556,6.58436214 7.14555556,5.79423868 C7.14555556,5.00411523 6.55555556,4.41152263 5.76888889,4.41152263 Z" id="Path" fill="#EE3942" fill-rule="nonzero"></path>
                            <path d="M9.57111111,4.41152263 C8.78444444,4.41152263 8.19444444,5.00411523 8.19444444,5.79423868 C8.19444444,6.58436214 8.78444444,7.17695473 9.57111111,7.17695473 C10.3577778,7.17695473 10.9477778,6.58436214 10.9477778,5.79423868 C10.9477778,5.00411523 10.3577778,4.41152263 9.57111111,4.41152263 Z" id="Path" fill="#FFB803"></path>
                            <path d="M2.62222222,11 L56.3777778,11 L56.3777778,46.0781893 C56.3777778,46.6304741 55.9300625,47.0781893 55.3777778,47.0781893 L3.62222222,47.0781893 C3.06993747,47.0781893 2.62222222,46.6304741 2.62222222,46.0781893 L2.62222222,11 L2.62222222,11 Z" id="Rectangle" fill="#F3F7FF"></path>
                            <path d="M31.9571553,35.9709872 C32.2784404,36.6500838 33.0816533,36.9696587 33.7643842,36.6900307 C34.4471151,36.4104027 34.7684003,35.5715186 34.4872758,34.892422 L32.2382798,29.8191709 L36.6961111,29.9390115 L26.7764324,20.7911808 L26.6961111,34.2532723 L29.7483199,30.937683 L31.9571553,35.9709872 Z" id="Path" fill="#AC0000" fill-rule="nonzero"></path>
                            <path d="M55.0666667,0.329218107 L3.93333333,0.329218107 C1.77,0.329218107 0,2.10699588 0,4.27983539 L0,45.7613169 C0,47.9341564 1.77,49.7119342 3.93333333,49.7119342 L55.0666667,49.7119342 C57.23,49.7119342 59,47.9341564 59,45.7613169 L59,4.27983539 C59,2.10699588 57.23,0.329218107 55.0666667,0.329218107 Z M56.3777778,45.7613169 C56.3777778,46.4855967 55.7877778,47.0781893 55.0666667,47.0781893 L3.93333333,47.0781893 C3.21222222,47.0781893 2.62222222,46.4855967 2.62222222,45.7613169 L2.62222222,10.9300412 L56.3777778,10.9300412 L56.3777778,45.7613169 Z M56.3777778,8.2962963 L2.62222222,8.2962963 L2.62222222,4.27983539 C2.62222222,3.55555556 3.21222222,2.96296296 3.93333333,2.96296296 L55.0666667,2.96296296 C55.7877778,2.96296296 56.3777778,3.55555556 56.3777778,4.27983539 L56.3777778,8.2962963 Z" id="Shape" fill="#C8D2DF" fill-rule="nonzero" opacity="0.514601935"></path>
                            <path d="M13.3733333,4.41152263 C12.5866667,4.41152263 11.9966667,5.00411523 11.9966667,5.79423868 C11.9966667,6.58436214 12.5866667,7.17695473 13.3733333,7.17695473 C14.16,7.17695473 14.75,6.58436214 14.75,5.79423868 C14.75,5.00411523 14.16,4.41152263 13.3733333,4.41152263 Z" id="Path" fill="#4BB752"></path>
                        </g>
                    </g>
                </g>
            </g>
        </g>
    </g>
</svg>