<?xml version="1.0" encoding="UTF-8"?>
<svg width="80px" height="80px" viewBox="0 0 80 80" version="1.1" xmlns="http://www.w3.org/2000/svg" xmlns:xlink="http://www.w3.org/1999/xlink">
    <!-- Generator: sketchtool 55.2 (78181) - https://sketchapp.com -->
    <title>6EA96DE0-360C-451F-8C72-AC20C074A076</title>
    <desc>Created with sketchtool.</desc>
    <g id="👽-GBV-Client" stroke="none" stroke-width="1" fill="none" fill-rule="evenodd">
        <g id="BGV-Client-zomato-add-employee-health-details_1" transform="translate(-200.000000, -194.000000)">
            <g id="personal_details-DL" transform="translate(160.000000, 116.000000)">
                <g id="weight" transform="translate(40.000000, 78.000000)">
                    <rect id="Rectangle" fill="#F3F7FD" x="0" y="0" width="80" height="80" rx="8"></rect>
                    <g transform="translate(11.000000, 11.000000)">
                        <rect id="Rectangle" fill-opacity="0" fill="#D8D8D8" x="0" y="0" width="58" height="58"></rect>
                        <g id="scale" transform="translate(1.000000, 0.000000)" fill-rule="nonzero">
                            <path d="M41.9379735,10.6014603 L49.1576704,10.6014603 C52.7571023,10.6014603 55.4876895,14.0708687 54.8570075,17.8491001 L49.188447,51.7733317 C48.8939394,54.5461232 46.4753788,56.7056798 43.4895833,56.8618562 L12.6245265,56.8618562 C9.63873103,56.7056798 7.22017042,54.5461232 6.92518933,51.7733317 L1.2571023,17.8491001 C0.626420485,14.0708687 3.35700752,10.6014603 6.95643939,10.6014603 L41.9379735,10.6014603 Z" id="Path" fill="#8697A8"></path>
                            <path d="M43.4895833,57.8258258 L12.6245265,57.8258258 C9.295928,57.8258258 6.46922352,55.3420047 5.90151515,51.9206846 L0.232954545,17.9973353 C-0.161458303,15.7945434 0.497632606,13.5410161 2.03693188,11.8292531 C3.24668558,10.4549897 5.04876897,9.65204944 6.95643939,9.63749055 L49.1576704,9.63749055 C51.063447,9.65116704 52.8645833,10.4523427 54.0748107,11.8244001 C55.6141098,13.5361632 56.2732007,15.7896905 55.8787879,17.9924824 L50.2107007,51.9171552 C49.6448863,55.3420047 46.8177084,57.8258258 43.4895833,57.8258258 Z M6.95643939,11.5649888 C5.65577648,11.5826358 4.42992424,12.137194 3.61032194,13.0782225 C2.47206436,14.3695448 1.98674242,16.0557196 2.27888255,17.7043944 L7.94744315,51.628626 C8.1638257,53.9315649 10.1491478,55.7439161 12.6245265,55.8983277 L43.4895833,55.8983277 C45.9654356,55.7439161 47.951231,53.9306826 48.1666667,51.6268613 L53.8347538,17.7026298 C54.1268939,16.0535137 53.6420455,14.3677801 52.5037879,13.0764578 C51.6837121,12.1358705 50.4583333,11.5821945 49.1576704,11.5649888 L6.95643939,11.5649888 Z" id="Shape" fill="#8697A8"></path>
                            <path d="M42.537941,14.4564565 C42.5506629,21.4905672 36.7713068,27.3577674 29.2485795,27.9480609 C21.7263258,28.5379133 14.9753788,23.6532122 13.7263258,16.7161601 C12.4772727,9.77866688 17.1477273,3.10896758 24.4649622,1.37911636 C31.782197,-0.350734979 39.3001893,3.4376437 41.7518939,10.0905784 C42.2769886,11.4939593 42.5426136,12.9701344 42.537941,14.4564565 Z" id="Path" fill="#EBECFD"></path>
                            <g id="Group" transform="translate(16.606061, 3.839996)" fill="#8697A8">
                                <path d="M11.4507576,2.90646775 C10.8797348,2.90646775 10.4166667,2.47499752 10.4166667,1.94249813 L10.4166667,0.978969659 C10.4166667,0.446470152 10.8797348,0.0149999289 11.4507576,0.0149999289 C12.0222538,0.0149999289 12.4853219,0.446470152 12.4853219,0.978969659 L12.4853219,1.94249813 C12.4853219,2.47499752 12.0222538,2.90646775 11.4507576,2.90646775 Z" id="Path"></path>
                                <path d="M6.79640145,4.0685287 C6.42660982,4.06896664 6.08475382,3.88543741 5.89962121,3.58676114 L5.38257576,2.75205619 C5.10132582,2.29146829 5.27225382,1.70602777 5.76467806,1.44132215 C6.25662885,1.17617526 6.88636364,1.33146923 7.17376897,1.78852772 L7.69128788,2.62279153 C7.97632582,3.08337931 7.80729164,3.6719082 7.31344703,3.93837853 C7.15672352,4.02396663 6.97821964,4.06896664 6.79640145,4.0685287 Z" id="Path"></path>
                                <path d="M3.38825758,7.2432314 C3.20643939,7.24366942 3.02793564,7.19911067 2.87121212,7.11396361 L1.97537879,6.63219937 C1.48484848,6.36440549 1.31818182,5.77764141 1.60274618,5.31881833 C1.88683709,4.85999525 2.51562497,4.70117188 3.0094697,4.96323039 L3.90530303,5.44499473 C4.31060606,5.66293564 4.50852267,6.10764109 4.38731055,6.52896423 C4.26609842,6.95028727 3.85653406,7.2432314 3.38825758,7.2432314 Z" id="Path"></path>
                                <path d="M20.407197,16.3989578 C20.2258522,16.3993957 20.0473485,16.354837 19.8901515,16.26969 L18.9943182,15.7879257 C18.5037879,15.5201319 18.3375947,14.9333677 18.6216856,14.4745446 C18.9062499,14.0157216 19.5345644,13.8568982 20.0288825,14.1189568 L20.9247159,14.600721 C21.3300189,14.818662 21.5274621,15.2633674 21.4062499,15.6846905 C21.2850378,16.1060137 20.8754735,16.3989578 20.407197,16.3989578 L20.407197,16.3989578 Z" id="Path"></path>
                                <path d="M2.14204545,11.5804298 L1.10748109,11.5804298 C0.536458303,11.5804298 0.0733901818,11.1485186 0.0733901818,10.6164602 C0.0733901818,10.0844019 0.536458303,9.65249059 1.10748109,9.65249059 L2.14204545,9.65249059 C2.71306812,9.65249059 3.17613636,10.0844019 3.17613636,10.6164602 C3.17613636,11.1485186 2.71306812,11.5804298 2.14204545,11.5804298 Z" id="Path"></path>
                                <path d="M21.7945076,11.5804298 L20.7599432,11.5804298 C20.1889205,11.5804298 19.7258522,11.1485186 19.7258522,10.6164602 C19.7258522,10.0844019 20.1889205,9.65249059 20.7599432,9.65249059 L21.7945076,9.65249059 C22.3655303,9.65249059 22.8285985,10.0844019 22.8285985,10.6164602 C22.8285985,11.1485186 22.3655303,11.5804298 21.7945076,11.5804298 Z" id="Path"></path>
                                <path d="M2.49479164,16.3989546 C2.02651515,16.3989546 1.61647733,16.1060137 1.49573867,15.6846905 C1.37452655,15.2633674 1.5719697,14.818662 1.97727273,14.600721 L2.87310606,14.1189568 C3.36742424,13.8568982 3.99573867,14.0157216 4.28030303,14.4745446 C4.56439394,14.9333677 4.39820073,15.5201319 3.90767042,15.7879257 L3.01183709,16.26969 C2.85464012,16.3543958 2.67613636,16.3989546 2.49479164,16.3989546 Z" id="Path"></path>
                                <path d="M19.5189394,7.2432314 C19.0506629,7.2432314 18.6410984,6.95028727 18.5198863,6.52896423 C18.3986742,6.10764109 18.5961175,5.66293564 19.0018939,5.44499473 L19.8972538,4.96323039 C20.217803,4.78808353 20.6136364,4.78631882 20.9356061,4.95881868 C21.2575758,5.13087739 21.4554924,5.45072999 21.4550198,5.79661201 C21.454072,6.14249402 21.2542613,6.46146433 20.9318182,6.63219937 L20.0359848,7.11396361 C19.8787879,7.19911067 19.7002841,7.24366942 19.5189394,7.2432314 Z" id="Path"></path>
                                <path d="M16.1055872,4.06852874 C15.923769,4.06896664 15.7452652,4.02440777 15.5885417,3.93837853 C15.0942235,3.67234935 14.9247159,3.08382057 15.2097538,2.62279153 L15.7267993,1.78852772 C15.9105114,1.4876456 16.252841,1.30191052 16.6240531,1.30102497 C16.9947916,1.30014582 17.3380681,1.4849986 17.5232007,1.78455705 C17.7078599,2.08455676 17.7059659,2.45382107 17.5184659,2.75205619 L17.0014205,3.58676114 C16.8162879,3.88499626 16.4749053,4.06852874 16.1055872,4.06852874 Z" id="Path"></path>
                            </g>
                            <path d="M28.1425991,23.1304185 C27.8334391,23.1304185 27.5827273,22.6989484 27.5827273,22.1664489 L27.5827273,9.63749055 C27.5827273,9.1054323 27.8334391,8.67396208 28.1425991,8.67396208 C28.4520155,8.67396208 28.7027273,9.1054323 28.7027273,9.63749055 L28.7027273,22.1664489 C28.7027273,22.6989484 28.4520155,23.1304185 28.1425991,23.1304185 Z" id="Path" fill="#8697A8"></path>
                            <path d="M31.1600378,23.1304185 L24.954072,23.1304185 C24.3825758,23.1304185 23.9195076,22.6989484 23.9195076,22.1664489 C23.9195076,21.6343907 24.3825758,21.2029204 24.954072,21.2029204 L31.1600378,21.2029204 C31.7315341,21.2029204 32.1946023,21.6343907 32.1946023,22.1664489 C32.1946023,22.6989484 31.7315341,23.1304185 31.1600378,23.1304185 Z" id="Path" fill="#8697A8"></path>
                            <path d="M14.6538825,20.2389508 C14.6538825,20.2389508 6.37926133,24.093947 9.48248109,29.8768825 C12.5852273,35.6593769 16.7225379,39.5143732 15.688447,45.2968675 C14.6538825,51.0793618 14.6538825,53.0068599 18.7911932,53.0068599 C22.9289772,53.0068599 28.1003788,53.0068599 24.9976326,44.333339 C23.1917613,38.8376091 22.8091856,33.0215853 23.8802084,27.3612968" id="Path" fill="#EBECFD"></path>
                            <path d="M32.2339016,27.3612968 C33.3049242,33.0215853 32.921875,38.8376091 31.1164773,44.333339 C28.013731,53.0068599 33.1851326,53.0068599 37.3224432,53.0068599 C41.4602273,53.0068599 41.4602273,51.0793618 40.4256629,45.2968675 C39.391572,39.5143732 43.5288825,35.6593769 46.6316288,29.8768825 C49.7348485,24.093947 41.4602273,20.2389508 41.4602273,20.2389508" id="Path" fill="#EBECFD"></path>
                            <path d="M28.0568182,28.9129129 C19.4881629,28.9129129 12.5416667,22.4404192 12.5416667,14.4564565 C12.5416667,6.4724937 19.4881629,0 28.0568182,0 C36.6259469,0 43.5719697,6.4724937 43.5719697,14.4564565 C43.5625,22.4368898 36.6216856,28.9040894 28.0568182,28.9129129 Z M28.0568182,1.92749809 C20.6306818,1.92749809 14.6103219,7.53705146 14.6103219,14.4564565 C14.6103219,21.3758615 20.6306818,26.9854148 28.0568182,26.9854148 C35.483428,26.9854148 41.5033144,21.3758615 41.5033144,14.4564565 C41.4947916,7.54013972 35.4796401,1.93543931 28.0568182,1.92749809 Z" id="Shape" fill="#8697A8"></path>
                        </g>
                    </g>
                </g>
            </g>
        </g>
    </g>
</svg>