<?xml version="1.0" encoding="UTF-8"?>
<svg width="40px" height="40px" viewBox="0 0 40 40" version="1.1" xmlns="http://www.w3.org/2000/svg" xmlns:xlink="http://www.w3.org/1999/xlink">
    <title>47AB686E-5243-4E18-A911-261BCF05612B</title>
    <defs>
        <path d="M10.0195925,-8.8817842e-15 C12.3489924,-8.8817842e-15 14.3305682,1.38702536 15.0650961,3.32298826 L17.2957484,3.3232726 C17.9529128,3.32798863 18.5739942,3.60425611 18.991314,4.07737936 C19.5221068,4.66764248 19.7493796,5.44472086 19.6133751,6.20430429 L17.6588623,17.9024673 C17.4637539,19.0834499 16.488865,19.9399399 15.3412356,19.9399399 L4.6981126,19.9399399 C3.55032,19.9399399 2.57559432,19.0834499 2.37983281,17.9036843 L0.42515674,6.20597769 C0.289152309,5.44639426 0.516425037,4.66931591 1.04721789,4.0790528 C1.46437434,3.60516887 2.0857824,3.32829291 2.74359979,3.3232726 L4.97410619,3.32298826 C5.70867125,1.38702536 7.69032129,-8.8817842e-15 10.0195925,-8.8817842e-15 Z M5.17253699,7.09796559 C4.51446397,7.46785285 2.73305213,8.65949388 3.61464865,10.3023733 C4.68456113,12.2963369 6.11121998,13.6256459 5.75463691,15.6196095 C5.39789053,17.613573 5.39789053,18.2782276 6.82454938,18.2782276 L7.02563105,18.2779266 C7.12700552,18.2774752 7.22938822,18.2763467 7.33168922,18.2735253 L7.53585933,18.2653247 C8.75635094,18.1989671 9.86044158,17.7913419 8.9647009,15.2873583 C8.37776752,13.5011693 8.22684481,11.6168619 8.52068237,9.77188316 C7.03671785,9.36901727 5.81894636,8.38308703 5.17253699,7.09796559 Z M14.8636749,7.09548789 L14.8375226,7.15069834 C14.2224647,8.33489783 13.1199567,9.25825736 11.7727927,9.69455039 L11.5175672,9.77 L11.5271475,9.82596205 C11.8094929,11.6536661 11.6556949,13.5186176 11.0746474,15.2873583 C10.1789066,17.7913419 11.2829973,18.1989671 12.5033931,18.2653247 L12.7075463,18.2735253 C12.7416437,18.2744658 12.7757501,18.2752181 12.809825,18.27582 L13.0135756,18.2779266 L13.2146356,18.2782276 C14.6414577,18.2782276 14.6414577,17.613573 14.2847113,15.6196095 C13.9281283,13.6256459 15.3547871,12.2963369 16.4246996,10.3023733 C17.3091461,8.65418284 15.5133387,7.46015299 14.8636749,7.09548789 Z M8.78102144,0.475557364 C6.25783699,1.07205779 4.64733542,3.3719541 5.07804339,5.76419313 C5.50875131,8.15628008 7.83666408,9.84065977 10.4305447,9.63726237 C13.0245885,9.4337129 15.01747,7.41054042 15.0130831,4.98498498 C15.0146943,4.47246014 14.9230995,3.96343425 14.7420324,3.47950978 C13.896617,1.18539438 11.3042059,-0.120943096 8.78102144,0.475557364 Z M10.0491721,2.99102141 C10.1558674,2.99102141 10.2423197,3.13980424 10.2423197,3.3232726 L10.2419337,7.31102141 L11.0896682,7.31135188 C11.2867359,7.31135188 11.4464146,7.46013471 11.4464146,7.64360308 C11.4464146,7.8272236 11.2867359,7.97600639 11.0896682,7.97600639 L8.94968,7.97600639 C8.75261233,7.97600639 8.59293367,7.8272236 8.59293367,7.64360308 C8.59293367,7.46013471 8.75261233,7.31135188 8.94968,7.31135188 L9.85593367,7.31102141 L9.85611285,3.3232726 C9.85611285,3.13980424 9.9425652,2.99102141 10.0491721,2.99102141 Z M12.9775666,6.19274243 L13.2864746,6.35886803 C13.4262343,6.43402007 13.4943182,6.58736678 13.4525209,6.73265062 C13.4107236,6.87793446 13.2694945,6.97894968 13.1080199,6.97894968 C13.0454872,6.97910068 12.9839342,6.9637356 12.9297283,6.93437458 L12.6208203,6.76824894 C12.4516719,6.67590626 12.3943639,6.47357378 12.4923263,6.31535893 C12.5904519,6.15714407 12.8071121,6.10237739 12.9775666,6.19274243 Z M7.54702194,6.31535893 C7.64498433,6.47357378 7.58767632,6.67590626 7.41852794,6.76824894 L7.1096199,6.93437458 C7.05541404,6.96358348 6.99386102,6.97894856 6.93132836,6.97894856 C6.76985371,6.97894856 6.62846136,6.87793446 6.58682734,6.73265062 C6.54503005,6.58736678 6.6131139,6.43402007 6.75287356,6.35886803 L7.06178161,6.19274243 C7.23223615,6.10237739 7.4488963,6.15714407 7.54702194,6.31535893 Z M6.80969175,4.65258167 C7.00659611,4.65258167 7.16627482,4.80151659 7.16627482,4.98498498 C7.16627482,5.16845338 7.00659611,5.3173883 6.80969175,5.3173883 L6.45294541,5.3173883 C6.256041,5.3173883 6.09636234,5.16845338 6.09636234,4.98498498 C6.09636234,4.80151659 6.256041,4.65258167 6.45294541,4.65258167 L6.80969175,4.65258167 Z M13.5864028,4.65258167 C13.7833072,4.65258167 13.9429859,4.80151659 13.9429859,4.98498498 C13.9429859,5.16845338 13.7833072,5.3173883 13.5864028,5.3173883 L13.2296565,5.3173883 C13.0327521,5.3173883 12.8730734,5.16845338 12.8730734,4.98498498 C12.8730734,4.80151659 13.0327521,4.65258167 13.2296565,4.65258167 L13.5864028,4.65258167 Z M7.10880355,3.03559539 L7.4177116,3.20172103 C7.55747126,3.27687306 7.62571837,3.43021977 7.58392109,3.57550361 C7.5421238,3.72078742 7.40089471,3.82180264 7.23942006,3.82180264 C7.17672414,3.82195368 7.11517112,3.80658859 7.06112853,3.77722754 L6.75222048,3.61110194 C6.5830721,3.51875922 6.52560084,3.31642678 6.62372648,3.15821192 C6.72168886,2.99999707 6.93851227,2.94523039 7.10880355,3.03559539 Z M13.2902299,3.03407411 C13.4012539,3.0934047 13.469501,3.2036987 13.4693381,3.32296836 C13.4690112,3.44223802 13.400111,3.55222778 13.2889237,3.61110194 L12.9800157,3.77722754 C12.9258098,3.80658859 12.8642568,3.82195368 12.8017241,3.82180264 C12.6402495,3.82180264 12.4990204,3.72078742 12.4572231,3.57550361 C12.4154258,3.43021977 12.4835097,3.27687306 12.6234326,3.20172103 L12.9321774,3.03559539 C13.0427116,2.97519992 13.1792059,2.9745914 13.2902299,3.03407411 Z M8.54476882,1.94087033 L8.72322362,2.22854751 C8.82151256,2.38737088 8.76322491,2.59031188 8.59293367,2.6821982 C8.53889108,2.71171134 8.47733801,2.72722858 8.41464209,2.72707757 C8.28712773,2.72722858 8.16924635,2.66394264 8.10540752,2.56095082 L7.92711599,2.27312153 C7.83013325,2.11429812 7.88907394,1.91242208 8.0588754,1.82114427 C8.22851361,1.72971431 8.44566353,1.78326396 8.54476882,1.94087033 Z M11.8034875,1.77276594 C11.9313284,1.77246278 12.0496996,1.83620512 12.1135384,1.93950114 C12.177214,2.04294931 12.1765609,2.17028183 12.1119057,2.27312153 L11.9336142,2.56095082 C11.8697753,2.66379052 11.7520572,2.72707758 11.6247061,2.72707758 C11.5620102,2.72722858 11.5004572,2.71186346 11.4464146,2.6821982 C11.27596,2.590464 11.2175091,2.38752304 11.3157981,2.22854751 L11.4940896,1.94087033 C11.5574386,1.83711788 11.6754833,1.7730713 11.8034875,1.77276594 Z M10.0195925,1.32930903 C10.2166601,1.32930903 10.3763388,1.47809186 10.3763388,1.66171238 L10.3763388,1.99396358 C10.3763388,2.17758406 10.2166601,2.32636689 10.0195925,2.32636689 C9.82268807,2.32636689 9.6630094,2.17758406 9.6630094,1.99396358 L9.6630094,1.66171238 C9.6630094,1.47809186 9.82268807,1.32930903 10.0195925,1.32930903 Z" id="path-1"></path>
    </defs>
    <g id="profille_view-mode" stroke="none" stroke-width="1" fill="none" fill-rule="evenodd">
        <g id="attendance-_profile_04" transform="translate(-200.000000, -2656.000000)">
            <g id="Group-29" transform="translate(160.000000, 446.000000)">
                <g id="section-copy" transform="translate(40.000000, 1882.000000)">
                    <g id="10th_class" transform="translate(0.000000, 325.000000)">
                        <g id="mother" transform="translate(0.000000, 3.000000)">
                            <circle id="Oval" fill="#E5EEF7" opacity="0.5" cx="20" cy="20" r="20"></circle>
                            <g id="icon-/-24-/-info-/-weight_mechine" transform="translate(10.000000, 10.000000)">
                                <mask id="mask-2" fill="white">
                                    <use xlink:href="#path-1"></use>
                                </mask>
                                <use id="Combined-Shape" fill="#7892B8" fill-rule="nonzero" xlink:href="#path-1"></use>
                                <rect id="Rectangle" fill="#0059B2" mask="url(#mask-2)" x="0" y="0" width="20" height="20"></rect>
                            </g>
                        </g>
                    </g>
                </g>
            </g>
        </g>
    </g>
</svg>