<?xml version="1.0" encoding="UTF-8"?>
<svg width="40px" height="40px" viewBox="0 0 40 40" version="1.1" xmlns="http://www.w3.org/2000/svg" xmlns:xlink="http://www.w3.org/1999/xlink">
    <title>3131D77F-5CDA-488B-8D8F-3408FBD28A6C</title>
    <g id="ðŸ­-vendor-management" stroke="none" stroke-width="1" fill="none" fill-rule="evenodd">
        <g id="notification-after-adding-vendor" transform="translate(-818.000000, -828.000000)">
            <g id="section" transform="translate(160.000000, 182.000000)">
                <g id="noun_clock_2093330" transform="translate(658.000000, 646.000000)">
                    <circle id="Oval" fill="#FFF7E5" cx="20" cy="20" r="20"></circle>
                    <path d="M17.6426143,10.0000856 C17.3352549,9.99573981 17.049365,10.1572249 16.8944171,10.4227054 C16.7394692,10.6881858 16.7394692,11.0165308 16.8944171,11.2820113 C17.049365,11.5474917 17.3352549,11.7089768 17.6426143,11.7046311 L21.9039776,11.7046311 C22.211337,11.7089768 22.4972269,11.5474917 22.6521748,11.2820113 C22.8071227,11.0165308 22.8071227,10.6881858 22.6521748,10.4227054 C22.4972269,10.1572249 22.211337,9.99573981 21.9039776,10.0000856 L17.6426143,10.0000856 Z M26.8977673,12.2855751 C26.550512,12.2856431 26.2380145,12.4963676 26.1077855,12.8182785 C25.9775565,13.1401895 26.055635,13.5089214 26.3051651,13.7504188 L27.6085457,15.0537969 C27.8223087,15.2764514 28.1397411,15.3661446 28.4384171,15.2882842 C28.7370931,15.2104238 28.9703398,14.9771766 29.0481996,14.6785005 C29.1260593,14.3798243 29.0363654,14.0623921 28.8137105,13.8486296 L27.5103384,12.5452515 C27.3497577,12.3792822 27.1287045,12.2855751 26.8977673,12.2855751 L26.8977673,12.2855751 Z M19.7732957,12.5569037 C17.5891172,12.5569037 15.4041115,13.3871614 13.7424695,15.0488027 C10.4191768,18.3720921 10.4191768,23.7855179 13.7424695,27.1087952 C17.0657536,30.4320784 22.4791764,30.4320784 25.8024605,27.1087952 C29.1257446,23.7855119 29.1257446,18.3720921 25.8024605,15.0488026 C24.1408185,13.3871614 21.9574832,12.5569037 19.7732957,12.5569037 Z M19.7732957,14.2514614 C21.5176849,14.2514614 23.2613506,14.9196875 24.5972957,16.2556344 C27.2691886,18.9275276 27.2691886,23.2317341 24.5972957,25.9036279 C21.9254037,28.5755208 17.6212053,28.5755208 14.9493047,25.9036279 C12.2774126,23.2317341 12.2774126,18.9275335 14.9493047,16.2556345 C16.2852507,14.9196876 18.0289155,14.2514614 19.7732966,14.2514614 L19.7732957,14.2514614 Z M19.7732957,27.0200154 C23.3497006,26.5059949 25.338337,24.5258669 25.7392048,21.0796313 C25.7392048,17.784752 23.068175,15.1137219 19.7732957,15.1137219 C19.803829,23.0649068 19.803829,27.0336713 19.7732957,27.0200154 Z" id="Shape" fill="#FFB803"></path>
                </g>
            </g>
        </g>
    </g>
</svg>