<?xml version="1.0" encoding="UTF-8"?>
<svg width="16px" height="16px" viewBox="0 0 16 16" version="1.1" xmlns="http://www.w3.org/2000/svg" xmlns:xlink="http://www.w3.org/1999/xlink">
    <title>C0CF1B15-E906-4314-A81C-35BF436FD66C</title>
    <defs>
        <path d="M8,0 C12.418278,0 16,3.581722 16,8 C16,12.418278 12.418278,16 8,16 C3.581722,16 0,12.418278 0,8 C0,3.581722 3.581722,0 8,0 Z M8,10.9090909 C7.59833836,10.9090909 7.27272727,11.234702 7.27272727,11.6363636 C7.27272727,12.0380253 7.59833836,12.3636364 8,12.3636364 C8.40166164,12.3636364 8.72727273,12.0380253 8.72727273,11.6363636 C8.72727273,11.234702 8.40166164,10.9090909 8,10.9090909 Z M9,3.36363636 L7,3.36363636 L7,9.72727273 L9,9.72727273 L9,3.36363636 Z" id="path-1"></path>
    </defs>
    <g id="attendance-configuration" stroke="none" stroke-width="1" fill="none" fill-rule="evenodd">
        <g id="orglevel_configuration_01-copy" transform="translate(-200.000000, -772.000000)">
            <g id="ID-verification" transform="translate(200.000000, 152.000000)">
                <g id="icon-/-16-/-info-/-warning" transform="translate(0.000000, 620.000000)">
                    <mask id="mask-2" fill="white">
                        <use xlink:href="#path-1"></use>
                    </mask>
                    <use id="Combined-Shape" fill="#D72639" xlink:href="#path-1"></use>
                    <rect id="Rectangle" fill="#FFB803" mask="url(#mask-2)" x="0" y="0" width="16" height="16"></rect>
                </g>
            </g>
        </g>
    </g>
</svg>