<?xml version="1.0" encoding="UTF-8"?>
<svg width="16px" height="16px" viewBox="0 0 16 16" version="1.1" xmlns="http://www.w3.org/2000/svg" xmlns:xlink="http://www.w3.org/1999/xlink">
    <!-- Generator: sketchtool 57.1 (101010) - https://sketch.com -->
    <title>0420FA57-4472-44E4-A2F9-A4F54CE59D1C</title>
    <desc>Created with sketchtool.</desc>
    <defs>
        <path d="M9.14622583,0.197569968 C10.5145884,-0.353329288 12.0606605,0.286424687 12.6471016,1.63701641 L12.6471016,1.63701641 L12.7181854,1.81472585 C12.9847495,2.47225077 13.5001069,2.98760814 14.1576318,3.25417229 L14.1576318,3.25417229 L14.3531121,3.34302701 C15.7037038,3.91169721 16.3612287,5.47554026 15.7925585,6.82613199 L15.7925585,6.82613199 L15.7037038,7.03938331 C15.4371397,7.67913729 15.4371397,8.40774598 15.7037038,9.0652709 L15.7037038,9.0652709 L15.7925585,9.2252094 C16.3612287,10.5935721 15.7214748,12.1396442 14.3531121,12.7083144 L14.3531121,12.7083144 L14.2109446,12.7616272 C13.5534197,13.0281914 13.0380624,13.5435487 12.7714982,14.2010736 L12.7714982,14.2010736 L12.7004144,14.3432412 C12.1317443,15.6938329 10.5679013,16.3513578 9.2173096,15.7826876 L9.2173096,15.7826876 L9.05737111,15.7116039 C8.39984622,15.4450397 7.67123755,15.4450397 7.01371266,15.7116039 L7.01371266,15.7116039 L6.81823229,15.8004586 C5.46764061,16.3513578 3.90379762,15.7116039 3.35289839,14.3432412 L3.35289839,14.3432412 L3.26404367,14.1477608 C2.99747953,13.4902359 2.48212218,12.9748785 1.82459729,12.7083144 L1.82459729,12.7083144 L1.64688786,12.6372306 C0.278525241,12.0863313 -0.36122871,10.5224883 0.207441468,9.17189657 L0.207441468,9.17189657 L0.278525241,8.97641618 C0.545089387,8.33666221 0.545089387,7.60805352 0.278525241,6.9505286 L0.278525241,6.9505286 L0.207441468,6.7905901 C-0.36122871,5.43999838 0.296296184,3.87615533 1.62911691,3.30748513 L1.62911691,3.30748513 L1.7890554,3.23640135 C2.44658029,2.96983719 2.96193764,2.45447983 3.22850179,1.79695491 L3.22850179,1.79695491 L3.29958556,1.65478736 C3.86825574,0.304195631 5.43209873,-0.353329288 6.76491946,0.197569968 L6.76491946,0.197569968 L6.92485794,0.268653743 C7.58238284,0.535217899 8.3109915,0.535217899 8.9685164,0.268653743 L8.9685164,0.268653743 Z M7.73333335,9.86666679 C7.14422961,9.86666679 6.66666667,10.3442297 6.66666667,10.9333335 C6.66666667,11.5224372 7.14422961,12.0000002 7.73333335,12.0000002 C8.32243709,12.0000002 8.80000003,11.5224372 8.80000003,10.9333335 C8.80000003,10.3442297 8.32243709,9.86666679 7.73333335,9.86666679 Z M8.80000003,4 L6.66666667,4 L7.20000001,9.33333333 L8.26666669,9.33333333 L8.80000003,4 Z" id="path-1"></path>
    </defs>
    <g id="🤖-BGV-OPs" stroke="none" stroke-width="1" fill="none" fill-rule="evenodd">
        <g id="01_BGV-OPs-dashboard-analyst_simple" transform="translate(-534.000000, -257.000000)">
            <g id="todos" transform="translate(160.000000, 257.000000)">
                <g id="nav">
                    <g id="insights-copy-2" transform="translate(374.000000, 0.000000)">
                        <g id="icon-/-16-/-info-/-onhold-icon-/-24-/-info-/-verified-/-yellow">
                            <mask id="mask-2" fill="white">
                                <use xlink:href="#path-1"></use>
                            </mask>
                            <path d="M9.14622583,0.197569968 C10.5145884,-0.353329288 12.0606605,0.286424687 12.6471016,1.63701641 L12.6471016,1.63701641 L12.7181854,1.81472585 C12.9847495,2.47225077 13.5001069,2.98760814 14.1576318,3.25417229 L14.1576318,3.25417229 L14.3531121,3.34302701 C15.7037038,3.91169721 16.3612287,5.47554026 15.7925585,6.82613199 L15.7925585,6.82613199 L15.7037038,7.03938331 C15.4371397,7.67913729 15.4371397,8.40774598 15.7037038,9.0652709 L15.7037038,9.0652709 L15.7925585,9.2252094 C16.3612287,10.5935721 15.7214748,12.1396442 14.3531121,12.7083144 L14.3531121,12.7083144 L14.2109446,12.7616272 C13.5534197,13.0281914 13.0380624,13.5435487 12.7714982,14.2010736 L12.7714982,14.2010736 L12.7004144,14.3432412 C12.1317443,15.6938329 10.5679013,16.3513578 9.2173096,15.7826876 L9.2173096,15.7826876 L9.05737111,15.7116039 C8.39984622,15.4450397 7.67123755,15.4450397 7.01371266,15.7116039 L7.01371266,15.7116039 L6.81823229,15.8004586 C5.46764061,16.3513578 3.90379762,15.7116039 3.35289839,14.3432412 L3.35289839,14.3432412 L3.26404367,14.1477608 C2.99747953,13.4902359 2.48212218,12.9748785 1.82459729,12.7083144 L1.82459729,12.7083144 L1.64688786,12.6372306 C0.278525241,12.0863313 -0.36122871,10.5224883 0.207441468,9.17189657 L0.207441468,9.17189657 L0.278525241,8.97641618 C0.545089387,8.33666221 0.545089387,7.60805352 0.278525241,6.9505286 L0.278525241,6.9505286 L0.207441468,6.7905901 C-0.36122871,5.43999838 0.296296184,3.87615533 1.62911691,3.30748513 L1.62911691,3.30748513 L1.7890554,3.23640135 C2.44658029,2.96983719 2.96193764,2.45447983 3.22850179,1.79695491 L3.22850179,1.79695491 L3.29958556,1.65478736 C3.86825574,0.304195631 5.43209873,-0.353329288 6.76491946,0.197569968 L6.76491946,0.197569968 L6.92485794,0.268653743 C7.58238284,0.535217899 8.3109915,0.535217899 8.9685164,0.268653743 L8.9685164,0.268653743 Z M7.73333335,9.86666679 C7.14422961,9.86666679 6.66666667,10.3442297 6.66666667,10.9333335 C6.66666667,11.5224372 7.14422961,12.0000002 7.73333335,12.0000002 C8.32243709,12.0000002 8.80000003,11.5224372 8.80000003,10.9333335 C8.80000003,10.3442297 8.32243709,9.86666679 7.73333335,9.86666679 Z M8.80000003,4 L6.66666667,4 L7.20000001,9.33333333 L8.26666669,9.33333333 L8.80000003,4 Z"></path>
                            <rect id="Rectangle" fill="#8697A8" mask="url(#mask-2)" x="0" y="0" width="16" height="16"></rect>
                        </g>
                    </g>
                </g>
            </g>
        </g>
    </g>
</svg>