<?xml version="1.0" encoding="UTF-8"?>
<svg width="24px" height="24px" viewBox="0 0 24 24" version="1.1" xmlns="http://www.w3.org/2000/svg" xmlns:xlink="http://www.w3.org/1999/xlink">
    <title>3AB5326F-EBEE-423D-8555-50BDCD57D445</title>
    <g id="🎭-all-employees_OA" stroke="none" stroke-width="1" fill="none" fill-rule="evenodd">
        <g id="bgv-summary-report-pdf-zipfile-generation_03" transform="translate(-213.000000, -221.000000)" fill="#0058B8" fill-rule="nonzero">
            <g id="action-bar-/-with-label_notification" transform="translate(160.000000, 120.000000)">
                <g id="Group-3" transform="translate(24.000000, 72.000000)">
                    <g id="Group" transform="translate(29.000000, 29.000000)">
                        <path d="M12.3130667,18.4789333 C11.4589333,18.4789333 10.7666667,19.1717333 10.7666667,20.0250667 C10.7666667,20.8776 11.4592,21.5709333 12.3130667,21.5709333 C13.1666667,21.5709333 13.8589333,20.8776 13.8589333,20.0250667 C13.8589333,19.1717333 13.1666667,18.4789333 12.3130667,18.4789333 Z" id="Path"></path>
                        <path d="M20,0 L4,0 C1.79093333,0 0,1.79093333 0,3.99973333 L0,20.0002667 C0,22.2085333 1.79093333,24 4,24 L20,24 C22.2088,24 24,22.2085333 24,20.0002667 L24,3.99973333 C24,1.79093333 22.2088,0 20,0 Z M12.2666667,2.93333333 L13.6,2.93333333 L13.6,3.73333333 L12.2666667,3.73333333 L12.2666667,2.93333333 Z M13.6,6.13333333 L13.6,6.93333333 L12.2666667,6.93333333 L12.2666667,6.13333333 L13.6,6.13333333 Z M12.2666667,5.33333333 L10.9333333,5.33333333 L10.9333333,4.53333333 L12.2666667,4.53333333 L12.2666667,5.33333333 Z M12.2666667,7.73333333 L12.2666667,8.53333333 L10.9333333,8.53333333 L10.9333333,7.73333333 L12.2666667,7.73333333 Z M10.6666667,1.6 L12,1.6 L12,2.4 L10.6666667,2.4 L10.6666667,1.6 Z M12.3130667,22.5570667 C10.9509333,22.5570667 9.83546667,21.5733333 9.6464,20.2626667 L10.38,11.2 L11.4666667,11.2 L11.4666667,9.33333333 L13.0666667,9.33333333 L13.0666667,11.2 L14.2458667,11.2 L14.9797333,20.3568 C14.7914667,21.668 13.6749333,22.5570667 12.3130667,22.5570667 Z" id="Shape"></path>
                    </g>
                </g>
            </g>
        </g>
    </g>
</svg>